<svg width="1440" height="930" viewBox="0 0 1440 930" fill="none" xmlns="http://www.w3.org/2000/svg">
<g clip-path="url(#clip0_1274_39931)">
<rect width="1440" height="930" fill="#EEEEEE"/>
<g style="mix-blend-mode:hard-light" opacity="0.08">
<path d="M928.66 443.22L938.757 444.627C973.311 449.885 1091.54 471.123 1220.03 530.656C1434.23 629.808 1442.05 747.301 1439.73 808.076C1435.59 918.572 1321.54 999.053 1218 1036.81L1214.4 1038.13C1110 1075.39 946.537 1099.99 946.537 1099.99C1026.07 1017.97 1077.43 903.626 1077.43 780.172C1077.43 646.658 1018.79 526.557 928.618 443.178L928.66 443.22ZM509.955 -156L782.25 353.631C731 334.228 676.648 324.324 621.852 324.403C370.207 324.403 166.276 528.42 166.276 780.131C166.276 907.642 218.583 1022.73 302.837 1105.53L294.933 1105.37C265.231 1104.49 235.633 1101.45 206.375 1096.26L199.961 1095.02C146.702 1084.46 45.1918 1054.74 -32.8136 1007.87C-113.881 959.06 -195.611 880.153 -188.576 791.806L-186.673 768.456C-179.72 690.956 -163.085 620.121 -0.328606 387.454C157.255 162.447 432.653 -87.4007 496.506 -144.118L509.955 -156ZM621.852 445.58C710.499 445.58 795.516 480.809 858.198 543.519C920.881 606.228 956.096 691.281 956.096 779.965C956.096 868.65 920.881 953.702 858.198 1016.41C795.516 1079.12 710.499 1114.35 621.852 1114.35C534.116 1112.97 450.441 1077.13 388.884 1014.57C327.328 952.014 292.827 867.749 292.827 779.965C292.827 692.181 327.328 607.917 388.884 545.357C450.441 482.798 534.116 446.961 621.852 445.58Z" fill="#061A28"/>
</g>
</g>
<defs>
<clipPath id="clip0_1274_39931">
<rect width="1440" height="930" fill="white"/>
</clipPath>
</defs>
</svg>
