<svg width="26" height="28" viewBox="0 0 26 28" fill="none" xmlns="http://www.w3.org/2000/svg">
<path d="M22.8616 2.75H21.6116V1.5C21.6116 0.8125 21.0491 0.25 20.3616 0.25C19.6741 0.25 19.1116 0.8125 19.1116 1.5V2.75H6.61157V1.5C6.61157 0.8125 6.04907 0.25 5.36157 0.25C4.67407 0.25 4.11157 0.8125 4.11157 1.5V2.75H2.86157C1.48657 2.75 0.361572 3.875 0.361572 5.25V25.25C0.361572 26.625 1.48657 27.75 2.86157 27.75H22.8616C24.2366 27.75 25.3616 26.625 25.3616 25.25V5.25C25.3616 3.875 24.2366 2.75 22.8616 2.75ZM21.6116 25.25H4.11157C3.42407 25.25 2.86157 24.6875 2.86157 24V9H22.8616V24C22.8616 24.6875 22.2991 25.25 21.6116 25.25Z" fill="#C72026"/>
</svg>
