<svg width="41" height="42" viewBox="0 0 41 42" fill="none" xmlns="http://www.w3.org/2000/svg">
<path d="M18.4583 10.7916H22.5417V14.875H18.4583V10.7916ZM18.4583 18.9583H22.5417V31.2083H18.4583V18.9583ZM20.5 0.583313C9.23001 0.583313 0.0833435 9.72998 0.0833435 21C0.0833435 32.27 9.23001 41.4166 20.5 41.4166C31.77 41.4166 40.9167 32.27 40.9167 21C40.9167 9.72998 31.77 0.583313 20.5 0.583313ZM20.5 37.3333C11.4963 37.3333 4.16668 30.0037 4.16668 21C4.16668 11.9962 11.4963 4.66665 20.5 4.66665C29.5038 4.66665 36.8333 11.9962 36.8333 21C36.8333 30.0037 29.5038 37.3333 20.5 37.3333Z" fill="#2081C7"/>
</svg>
