<svg width="19" height="22" viewBox="0 0 19 22" fill="none" xmlns="http://www.w3.org/2000/svg">
<path d="M0.99917 15.1375L6.72417 20.8625C7.21167 21.35 8.01167 21.35 8.49917 20.8625C8.98667 20.375 8.98667 19.575 8.49917 19.0875L4.89917 15.5H17.6117C18.2992 15.5 18.8617 14.9375 18.8617 14.25V1.75C18.8617 1.0625 18.2992 0.5 17.6117 0.5C16.9242 0.5 16.3617 1.0625 16.3617 1.75V13H4.89917L8.49917 9.4125C8.98667 8.925 8.98667 8.125 8.49917 7.6375C8.01167 7.15 7.21167 7.15 6.72417 7.6375L0.99917 13.3625C0.51167 13.85 0.51167 14.65 0.99917 15.1375Z" fill="#C72026"/>
</svg>
