<svg width="26" height="24" viewBox="0 0 26 24" fill="none" xmlns="http://www.w3.org/2000/svg">
<path d="M15.3616 5V2.5H10.3616V5H15.3616ZM2.86157 8.75V20C2.86157 20.6875 3.42407 21.25 4.11157 21.25H21.6116C22.2991 21.25 22.8616 20.6875 22.8616 20V8.75C22.8616 8.0625 22.2991 7.5 21.6116 7.5H4.11157C3.42407 7.5 2.86157 8.0625 2.86157 8.75ZM22.8616 5C24.2491 5 25.3616 6.1125 25.3616 7.5V21.25C25.3616 22.6375 24.2491 23.75 22.8616 23.75H2.86157C1.47407 23.75 0.361572 22.6375 0.361572 21.25L0.374072 7.5C0.374072 6.1125 1.47407 5 2.86157 5H7.86157V2.5C7.86157 1.1125 8.97407 0 10.3616 0H15.3616C16.7491 0 17.8616 1.1125 17.8616 2.5V5H22.8616Z" fill="#C72026"/>
</svg>
