<svg xmlns="http://www.w3.org/2000/svg" 
    xmlns:xlink="http://www.w3.org/1999/xlink" viewBox="0 0 294.54 401.1">
    <title>Hero</title>
    <g id="left-arm" class="left-arm-1">
        <path class="left-arm-2" d="M199.65,202c-6.57,2.15-12.68,4.43-19.25,6.57a261.61,261.61,0,0,1-8.92,35l22.89-2.43A230.48,230.48,0,0,0,199.65,202Z"/>
        <path class="left-arm-2" d="M171.48,243.57c1.91,2,4.35,5.45,6.06,7.63,7.79.5,17.53-.15,25-.81a70.73,70.73,0,0,0-8.15-9.25Z"/>
        <path class="left-arm-3" d="M199.65,202a230.48,230.48,0,0,1-5.28,39.15,70.73,70.73,0,0,1,8.15,9.25c3.95-12.51,5.29-26.93,6.22-40.79A24,24,0,0,0,199.65,202Z"/>
        <path class="left-arm-4" d="M187.66,239.41a6,6,0,0,1,3.37.2,29.15,29.15,0,0,1,2.69,11.09,16.31,16.31,0,0,1-9.21,6.43,24.52,24.52,0,0,1-11.52-.07,36.4,36.4,0,0,1,1.09-10.34l.1.12c.69-.11,1.34-.39,2-.5.43-1.83.79-3.41,1.22-5.24A37.57,37.57,0,0,1,187.66,239.41Z"/>
        <path class="left-arm-5" d="M199.65,202c-6.57,2.15-12.68,4.43-19.25,6.57-1.06,6.09-2.82,13.85-4.79,21.24,2.51-.4,9.52-1.52,11-1.79s9.12-1.89,10.66-2.21Q199,214.25,199.65,202Z"/>
        <path class="left-arm-4" d="M194.81,212.36a8.15,8.15,0,0,1-9,6.75,4,4,0,0,1-1.77-.56c-1.48-1-.65-2.5-.41-3.91.28-1.64.49-3.29.65-4.95a32.08,32.08,0,0,1,10-2.56C194.71,209.08,195.14,210.4,194.81,212.36Z"/>
        <path class="left-arm-6" d="M199.65,202q-.65,12.25-2.39,23.81l.27-.06a54.65,54.65,0,0,1,5.08,4.55c1.1,1.24,2.74,3.28,3.54,4.28,1.32-8.17,2-16.67,2.59-25A24,24,0,0,0,199.65,202Z"/>
        <path class="left-arm-4" d="M193.57,210.63a7.27,7.27,0,0,1-3.73,3.52,6.9,6.9,0,0,1-5-.07,73.82,73.82,0,0,0-7.47-19.6,15,15,0,0,1,5.35-2.35A68.8,68.8,0,0,1,193.57,210.63Z"/>
        <path class="left-arm-7" d="M197.19,226.25l.12-.84h0l-.13,0c-6.25,1.51-13.47,2.87-21.48,4.05-.07.27-.14.55-.22.83C183.57,229.13,190.87,227.77,197.19,226.25Z"/>
        <path class="left-arm-5" d="M206.24,234c-2.1-2.7-6.15-7.26-8.81-8.55l-.12-.06-.12.84h0c2.77,1.43,7.1,6.51,8.85,8.86Z"/>
        <path class="left-arm-2" d="M176.32,245.62a8.5,8.5,0,0,0-5.1.46A26.14,26.14,0,0,0,169,257.55c.57.21,1.71.62,1.71.65a15.9,15.9,0,0,0,6.75,1.09,59.54,59.54,0,0,0,.48-12.52Z"/>
        <path class="left-arm-2" d="M176.08,245.28a23.19,23.19,0,0,1,10.76-1.36c1-1.69,2-3.75,1.59-5.65l-1.46-1.5a21.94,21.94,0,0,0-11.79,2.34,9.31,9.31,0,0,0-.76,4.94Z"/>
        <path class="left-arm-2" d="M183.09,244.27a12.49,12.49,0,0,0-2.43.28,4.46,4.46,0,0,0-2.2,1,36,36,0,0,0,1.37,13.37l1.5.55a16.69,16.69,0,0,0,7.82-1.89c-.53-4.16-1.91-8.84-4.56-12.13Z"/>
        <path class="left-arm-8" d="M175.89,258.72a16,16,0,0,1-6.89-1.17,26.14,26.14,0,0,1,2.22-11.47,8.5,8.5,0,0,1,5.1-.46A64.45,64.45,0,0,1,175.89,258.72Zm7.2-14.45a12.49,12.49,0,0,0-2.43.28,4.46,4.46,0,0,0-2.2,1,36,36,0,0,0,1.37,13.37,16.5,16.5,0,0,0,8-1.94C187.24,252.63,185.8,247.73,183.09,244.27Zm3.88-7.5a21.94,21.94,0,0,0-11.79,2.34,9.31,9.31,0,0,0-.76,4.94,23,23,0,0,1,11-1.38C186.41,240.91,187.44,238.76,187,236.77Z"/>
        <path class="left-arm-7" d="M189.9,227.41l-.38,0a59.7,59.7,0,0,1,1.29-6.89l0-.1.08,0a30.28,30.28,0,0,1,4.87-1.65,66.26,66.26,0,0,0,1.34-15.88h.38a67,67,0,0,1-1.37,16.09l0,.12-.12,0a27.65,27.65,0,0,0-4.83,1.61A57.45,57.45,0,0,0,189.9,227.41Z"/>
        <path class="left-arm-9" d="M191,207.14a9.09,9.09,0,0,1-2.66,4.79,84.26,84.26,0,0,0-7.68-16.88,6.52,6.52,0,0,1,2.64-1.15A51.75,51.75,0,0,1,191,207.14Z"/>
        <path class="left-arm-4" d="M181.11,198.23a10.09,10.09,0,0,0,1.71-1.14c.57-.46,1-.89,1-.89s-.55.27-1.21.56-1.43.59-1.84.78Z"/>
        <path class="left-arm-4" d="M182.82,201.44a5.06,5.06,0,0,0,2-.87,5.14,5.14,0,0,0,1-.95,6,6,0,0,1-1.2.61,8,8,0,0,1-1.91.46Z"/>
        <path class="left-arm-4" d="M184.28,205.11a9.57,9.57,0,0,0,2.53-1.24,10.39,10.39,0,0,0,1.43-1.15,13,13,0,0,1-1.61.82,18,18,0,0,1-2.55.83Z"/>
        <path class="left-arm-4" d="M185.87,208.65a9.67,9.67,0,0,0,2.48-1.69,10.16,10.16,0,0,0,1.3-1.46,13,13,0,0,1-1.53,1.16,16.54,16.54,0,0,1-2.56,1.29Z"/>
        <path class="left-arm-10" d="M207.75,209.59a146,146,0,0,1-5.93,38,19.29,19.29,0,0,0-4-4.6,177,177,0,0,0,5.14-30.31,17.19,17.19,0,0,0-2.6-2.86c.09-2,.15-4,.24-6A37.75,37.75,0,0,1,207.75,209.59Z"/>
        <path class="left-arm-7" d="M175.85,236.45c-.71.09-1.41.16-2.1.19v-.38a24.54,24.54,0,0,0,6.57-1.24,20.65,20.65,0,0,0,1.88-6.17l.38.05a21.09,21.09,0,0,1-1.95,6.36l0,.07-.07,0A24.72,24.72,0,0,1,175.85,236.45Z"/>
        <path class="left-arm-5" d="M196.85,182.28c-1.41-.64-2.83-1.3-4.24-2s-2.84-1.33-4.26-2l-.28-.12,0-.31a119.1,119.1,0,0,0-4-18.57l1.06-.32a119.56,119.56,0,0,1,4,18.44c1.33.6,2.66,1.22,4,1.84s2.82,1.32,4.23,1.95Z"/>
        <path class="left-arm-5" d="M180,166.58a155.56,155.56,0,0,1-8.29,28.65A85.25,85.25,0,0,0,185.05,190,205.12,205.12,0,0,0,180,166.58Z"/>
        <path class="left-arm-11" d="M213.83,212.11a1.32,1.32,0,0,0-.6-1.84,1.52,1.52,0,0,0-1.85.89A1.32,1.32,0,0,0,212,213,1.52,1.52,0,0,0,213.83,212.11Z"/>
        <path class="left-arm-11" d="M210.32,205.78a1.32,1.32,0,0,0-.6-1.84,1.52,1.52,0,0,0-1.86.88,1.33,1.33,0,0,0,.6,1.84A1.53,1.53,0,0,0,210.32,205.78Z"/>
        <path class="left-arm-7" d="M170.46,198.41a85.12,85.12,0,0,0,26.85-7.23,80.77,80.77,0,0,1-12.49-1.11,86.42,86.42,0,0,1-13.1,5.16Q171.11,196.84,170.46,198.41Z"/>
        <path class="left-arm-12" d="M191.58,160.83c-2.24-.77-7-1.8-10.43-2.48h0c-.13,1.31-.29,2.63-.47,4l0,.21c-.19,1.34-.4,2.7-.64,4.05a205.12,205.12,0,0,1,5,23.37l-.23.12a80.77,80.77,0,0,0,12.49,1.11l.17-.08A66.93,66.93,0,0,0,191.58,160.83Z"/>
        <path class="left-arm-13" d="M190.92,161.73q-4.87-1.48-9.85-2.59c0,.24,0,.47-.08.7a92.73,92.73,0,0,1,8.69,5.42l.16.44a91.57,91.57,0,0,1,6.78,23.56C196.27,179.69,194.67,170,190.92,161.73Z"/>
    </g>
</svg>