<svg xmlns="http://www.w3.org/2000/svg" 
    xmlns:xlink="http://www.w3.org/1999/xlink" viewBox="0 0 294.54 401.1">
    <title>Hero</title>
    <g id="axe" class="axe-1">
        <path class="axe-2" d="M196.11,201.07a7.25,7.25,0,0,0,0-5.11,6.81,6.81,0,0,0-3.44-3.57c-6,3.54-7.69,1.33-14.47,3a12.77,12.77,0,0,0-3,1.34C179.1,200.59,189.8,203.67,196.11,201.07Z"/>
        <path class="axe-3" d="M194,211.39c-2.91-6.25-5.42-12.25-8.33-18.5A261.34,261.34,0,0,0,205,162.55l13.83,18.32A230,230,0,0,1,194,211.39Z"/>
        <path class="axe-3" d="M205,162.55c2.77,0,6.93-.54,9.69-.79,5.67,5.34,11.83,12.87,16.43,18.74a70.69,70.69,0,0,1-12.29.37Z"/>
        <path class="axe-4" d="M194,211.39a230,230,0,0,0,24.91-30.52,70.69,70.69,0,0,0,12.29-.37c-6.42,11.4-16,22.2-25.47,32.32A23.85,23.85,0,0,1,194,211.39Z"/>
        <path class="axe-5" d="M194,211.39c-2.91-6.25-5.42-12.25-8.33-18.5,3.71-4.92,8.16-11.48,12.2-17.95,1.42,2.1,5.38,8,6.18,9.22s4.84,7.92,5.65,9.27Q202.45,202.57,194,211.39Z"/>
        <path class="axe-6" d="M194,211.39q8.49-8.82,15.7-18l.15.24a54.18,54.18,0,0,0,6.77.59c1.65,0,4.25-.23,5.53-.33-5.05,6.53-10.75,12.83-16.42,18.89A23.85,23.85,0,0,1,194,211.39Z"/>
        <path class="axe-7" d="M210,193.07l-.53.66h0l-.06-.12c-3.16-5.57-7.1-11.75-11.69-18.39l.45-.73C202.77,181.19,206.75,187.43,210,193.07Z"/>
        <path class="axe-5" d="M221.77,194.36c-3.4.31-9.47.47-12.22-.58l-.13-.05.53-.66v0c2.93,1,9.58.72,12.48.41Z"/>
        <path class="axe-7" d="M205.82,187l-.29-.24a57.53,57.53,0,0,0-4.14,5.64l0,.08,0,.09a30.56,30.56,0,0,0,2.12,4.66A66.08,66.08,0,0,1,192.84,209l.25.29a66.74,66.74,0,0,0,10.78-12l.07-.1-.06-.11a28.13,28.13,0,0,1-2.12-4.62A59.34,59.34,0,0,1,205.82,187Z"/>
        <path class="axe-8" d="M205,212.11a145.17,145.17,0,0,0,23.61-30.2,19.51,19.51,0,0,1-6.1.2A175.84,175.84,0,0,1,204,206.5a17.79,17.79,0,0,1-3.86.06c-1.36,1.39-2.81,2.84-4.18,4.23A37.53,37.53,0,0,0,205,212.11Z"/>
        <path class="axe-7" d="M202.83,170.58q-.62-.87-1.29-1.65l-.29.24a23.88,23.88,0,0,1,3.58,5.63,20.44,20.44,0,0,1-3.21,5.58l.29.24a20.77,20.77,0,0,0,3.3-5.76l0-.07,0-.07A24.58,24.58,0,0,0,202.83,170.58Z"/>
        <path class="axe-5" d="M196.36,182.12c-1.41-.64-2.82-1.3-4.23-2s-2.83-1.32-4.25-2l-.28-.12,0-.31a118.43,118.43,0,0,0-4-18.52l1.06-.32a120.59,120.59,0,0,1,4,18.39c1.33.6,2.65,1.22,4,1.84s2.81,1.31,4.22,2Z"/>
        <path class="axe-9" d="M191.11,160.73c-2.24-.77-7-1.8-10.41-2.48q-.39,4.08-1.13,8.22a203.42,203.42,0,0,1,5,23.3l-.23.11A79.15,79.15,0,0,0,196.81,191l.18-.08A66.81,66.81,0,0,0,191.11,160.73Z"/>
        <path class="axe-3" d="M214.67,161.62a23.16,23.16,0,0,0,.94,10.77c-1.44,1.35-3.23,2.78-5.17,2.74l-1.77-1.1a21.91,21.91,0,0,1-.2-12,9.38,9.38,0,0,1,4.65-1.79Z"/>
        <path class="axe-3" d="M215.05,161.78a8.48,8.48,0,0,1-.62-5.07,26.07,26.07,0,0,1,10.71-4.57c.33.51,1,1.53,1,1.53a15.74,15.74,0,0,1,2.49,6.35,60.06,60.06,0,0,1-12.1,3.1Z"/>
        <path class="axe-3" d="M215.16,168.67a13.34,13.34,0,0,1-.24-2.43,4.44,4.44,0,0,1,.53-2.36,35.94,35.94,0,0,1,13.32-1.48l.85,1.35a16.73,16.73,0,0,1-.2,8c-4.17.36-9,0-12.79-1.89Z"/>
        <path class="axe-2" d="M211.38,174.14a6.11,6.11,0,0,0,.91,3.25,29,29,0,0,0,11.37.28A16.2,16.2,0,0,0,228,167.34a24.41,24.41,0,0,0-2.48-11.21,36.79,36.79,0,0,0-9.86,3.23l.14.08c0,.69-.1,1.39-.06,2.08-1.69.81-3.16,1.49-4.85,2.29A37.71,37.71,0,0,0,211.38,174.14Z"/>
        <path class="axe-13" d="M189.45,101.83s.24,1.17,3,4.09a13.22,13.22,0,0,1,2.63,3.33l5.88,1.6,5.87,3.48,2.77,6.25-.89,2.35a29.45,29.45,0,0,1-6.11,2.54s3.83-1.44,3.57-4.44a2.4,2.4,0,0,0-2.46-2.09,3.27,3.27,0,0,0-1.77-3.32c-2.13-1.15-3.76-.73-5.82-1.29a11.21,11.21,0,0,1-6.68-5.55,10.34,10.34,0,0,1-1.34-5.64s.24-2.86,1-3.57A3.6,3.6,0,0,0,189.45,101.83Z"/>
        <path class="axe-13" d="M244.61,69.78s.57-10.43-8.83-15.79c0,0,14.89,2.16,24.06,21.81,0,0,4.23,10.48,2.82,19.22,0,0-2.51-2.78-4.26-1.58s-1.47,2.6-1.22,3.16,1.06,1.76,3.63,2.73l.25.25a20.94,20.94,0,0,0-3.26,6,26.44,26.44,0,0,0-.25,4.39,8.57,8.57,0,0,1-2.6,5.89.87.87,0,0,0-1.28,0c-.72.63-1.91,2-1.91,5.2a11.2,11.2,0,0,1-2.4,7.21c-1.43,1.94-5.16,5.76-5.59,6.51s-2.82,3.19-.85,6.53c0,0-3.95-1.26-4.42,4.09a16.85,16.85,0,0,0-.09,5.17s-4.63-3.84-3.76-11.5c0,0,.56-4.29-1.88-4.76,0,0,7.89-4.26,6.86-9.93s4.14-27.1,4.14-27.1L247.24,85l1.6-8.46Z"/>
        <path class="axe-14" d="M220.17,137.05V110s.89-5.24,3-6.5l1.1-2.2,9.22,6.86,4.84-.19,3.57-14.66-8.52-7.52-5.83,1.82-8.45.63s-.89-2.7,1.43-3.14-5.14-2.75-6.92,0c0,0-.16-.18.78.38s.31,3.48.31,3.48l-1.09,2.19-4.08.31-2.72-2.72H200.3l8.4,12.16,2.63,1.31,1,3.56,1,1,.87,3.17,0,2.53-.63,2.13v24.12h6.55Z"/>
        <path class="axe-15" d="M219.11,88.2s7.15.18,7-3.34-1.55-4.28-1.55-4.28.61-2.54,4-3.76c0,0,2.77,4.09,6.91,4.8,0,0,.84-.14,1.12.18s3.15-1.26,3.15-2a4.86,4.86,0,0,1,.33-1.74c.24-.79,1.36-4.08.42-6.2s-.14-2.35-.14-2.35a6,6,0,0,0,.85-3.76c-.28-2.07,1-5.36-6.11-12.12,0,0,26.74,9.44,26.88,41,0,0-3-4.88-5.59-1.12s3.62,5.73,3.62,5.73-2.82,2.91-3.34,5.26,1,7.34-2.58,10.48c0,0-1.32-1-2.82,2s.14,4.28-1.79,8.6-6.2,7.33-7.52,9.59a13.25,13.25,0,0,0-1.43,5.31s-3.36-.9-3.83,7.66c0,0-2.23-1.63-1.85-11.07a3.16,3.16,0,0,0-1.69-3.67s3.88-4.2,3-8.71-3.2-6.33-5.89-6.27-7.15.31-5.52,7.71c0,0-8.9-6.61-4.26-15.54,0,0,6.52,1.34,6.39-3.17,0,0,2.85-.09.63-3.54s-4.95-.75-4.61.82c0,0-.59-6,4.81-6.71s5.12,6.86,5.12,6.86l.62,3.29,3.24-.56,3.83-12-4.65-11.07-7.36,2.63-5.64,2.72-3.52-.37S218.91,88.7,219.11,88.2Z"/>
        <path class="axe-16" d="M244,69.4s.56-10.44-8.84-15.79c0,0,14.9,2.16,24.06,21.8,0,0,4.23,10.48,2.82,19.22,0,0-2.51-2.78-4.26-1.58s-1.47,2.6-1.22,3.17,1.06,1.75,3.63,2.72l.25.25a21.13,21.13,0,0,0-3.25,6,26.35,26.35,0,0,0-.25,4.38,8.58,8.58,0,0,1-2.61,5.89.88.88,0,0,0-1.28,0c-.72.63-1.91,2-1.91,5.2a11.23,11.23,0,0,1-2.39,7.21c-1.43,1.94-5.16,5.77-5.6,6.52s-2.82,3.19-.85,6.53c0,0-3.94-1.27-4.41,4.09a17,17,0,0,0-.1,5.17s-4.63-3.85-3.76-11.51c0,0,.57-4.28-1.88-4.75,0,0,7.9-4.26,6.86-9.93s4.14-27.11,4.14-27.11l3.48-12.22,1.6-8.46Z"/>
        <path class="axe-15" d="M189.41,99.43s-2.25,7.42,2.92,11.75,9.35,2.72,11,4.74.85,2.64.85,2.64,3.19.61,2.35,3.33a5.44,5.44,0,0,1-3.62,3.43,14.67,14.67,0,0,0,5.87-1.17c2.73-1.27,6.73-4.65,4.42-13.25,0,0-3.52.23-4.84-1.37s-4.89-6.53-.14-8.08c0,0,3.24-.42,3.53,3.34a11.49,11.49,0,0,1,2.14,8.74,9.87,9.87,0,0,0-.55-8.32l-1-.31s.91-2.76-2.25-4.86l-1.57-1.1-6.46-8.8-.31-2.07,2.19.44,5.61,2.91,3.14.19a3.22,3.22,0,0,0,2-2.69s-.78,2.1-2.22,2-3.17-.72-3.29-3.73c0,0-2.6-1.12-3.07-3A11.33,11.33,0,0,0,205,84c-.75-.1-4.11.09-3.32-3.92s1.88-3.85,1.88-3.85-2.07-8,3.82-10.47c0,0-4.48-.94-12.56,8.27s-7.62,17.2-7.33,22.28c0,0,.56-6.64,7.11-3.32s1.19,8.68,1.19,8.68l.5.91a4.79,4.79,0,0,0-1.79,3.91,4,4,0,0,1-1.88-3.16A4.53,4.53,0,0,1,189.41,99.43Z"/>
        <path class="axe-17" d="M189.74,101.68s.24,1.18,3,4.09a13,13,0,0,1,2.63,3.34l5.88,1.6,5.87,3.48,2.77,6.25-.89,2.35a29.15,29.15,0,0,1-6.11,2.53s3.83-1.43,3.57-4.44c0,0-.09-1.85-2.47-2.09a3.25,3.25,0,0,0-1.76-3.31c-2.14-1.15-3.76-.73-5.83-1.29a11.26,11.26,0,0,1-6.67-5.55A10.34,10.34,0,0,1,188.4,103s.24-2.87,1-3.57A3.57,3.57,0,0,0,189.74,101.68Z"/>
        <path class="axe-18" d="M205,66.64s-4.32,1.88-4,9.34l-2.79,4.13-4.51,7-.56,3.07s-4.45-1.31-5.67,6.08c0,0-3.55-8.84,6.48-22,0,0,6.08-7.46,13.41-8.56Z"/>
        <path class="axe-19" d="M209,122.79s.85-4.14-2.07-5.55a3,3,0,0,0-.56-3,6.19,6.19,0,0,0-3.1-1.88c-1.23-.47-1.6,1-2.35,0a2.42,2.42,0,0,0-2.73-.75c-.47.28-.38-.47-1.6-1.13s-1.78-.56-2.54-1.69a7.56,7.56,0,0,1-1.31-3,2.35,2.35,0,0,0,2,1,.88.88,0,0,0,.35-.85,4.34,4.34,0,0,1,1.31-2.88,1.59,1.59,0,0,0,.63-1.51s3.35-4.07,1.25-8.08l-.81-1.06.22-1.19s-.94-.07-1.16.34-.82-.6-1-.78-.19-.35-1.45-.32-1.59,0-1.59,0v-.34a1.17,1.17,0,0,1-1.23-1.07c-.06-1.09-.15-.59.63-1.16s1.47-.72,1.29-1-.44-.47-.07-.69.29-.09.44-.72.47-1,.57-1.38.62-.53.72-.91-.44-1.09-1.41-1.62c0,0,1.22.47,2,.78s.41-1.19.35-1.51.47-.34-.22-.94-1.32-1.44-.35-1.5.63.66,1.44.63.54.12,1.13-.32a4.94,4.94,0,0,0,1.6-1.72c.41-.78.7-.56.83-.81a2.43,2.43,0,0,0,.17-.79L201,76l.5.09s-1.6,1.29-1.53,2.23a3.8,3.8,0,0,1-.41,1.84,1.41,1.41,0,0,0-.13,1.51c.44.75,0,1.6.57,2.13s2,1,2.1,1.41.44.66.91.31,1.88-.66,2.06-.88.22.88.47,1.13A17.23,17.23,0,0,0,207,87.51c.29.12.44,5,6.65,3.6,0,0-1.41,2.11-4.8.56a4.72,4.72,0,0,1-1.69-1.36,25.36,25.36,0,0,1-3.62-.52,13.69,13.69,0,0,1,1.55,4.09,8.35,8.35,0,0,1,4.61,5.55,12,12,0,0,0-3-.1,14.31,14.31,0,0,1-.89-1.22c-.14-.28,0,1.6,0,1.6a2.33,2.33,0,0,0-1.6,1.88c-.28,1.55-.56,1.83-.47,3.06a8.49,8.49,0,0,0,.42,2.11,1.65,1.65,0,0,0,.71,2.11c1.31.9,1.36,2.35,2.53,2.35s1.79,0,2.17.29,2.35.14,2.44.75S214.84,119,209,122.79Z"/>
        <path class="axe-19" d="M219.4,89.42s2.3,3.66,9-.66,11.33,3.34,9.3,9.68-2.72,4.18-3.1,8.41c0,0-.42.47-.84-.84s-.33-5.27-1.88-6.91-4.8-3.67-7.76,1.36c0,0,4.84-1.69,6.54,1.32s1.17,5.36.47,6a5,5,0,0,1-2.35.7,5.74,5.74,0,0,1-2.68,2.54,9.12,9.12,0,0,1-4.09.33,7.28,7.28,0,0,0-1.22,5.78l.56,3.05s.14-1.55.61-1.78.52.47.75-.47,1.41-1.74,1.46-2.16.23,0,.66-.19,1.36-.61,1.41-.8.7-1.93.7-1.93l1,1.55s4-.94,6.25,1.7a19.86,19.86,0,0,1,4.64,10.29s2.63-.91,2.94-1.6.25-.81.63-1.1a1.57,1.57,0,0,0,.72-.94c.06-.37.22-.47.44-.78s0-.41.31-.91.82-.34,1.13-.81.78-.5.22-1.07-.53-.81-.38-1.72.25-.75-.15-1.29.06-.34-.38-1-.78-.44-.69-.94.94-.91,1.1-1.22-.16-.72.19-1,.94-.07,1.22-.26a9,9,0,0,1,1.53-1.28c1.1-.69,1.6-.41,2.1-1.47s.63-.91.57-1.29.34-.19.53-.72-.06-.84,0-1.53.37-.32.44-1.13.44-.89.42-1.39.59-.61.7-1-2.34-3.12-2.34-3.12,2.63.33,1.78-1-1.34-.8-.94-1.53.4-.82-.12-1.1.43-.19.31-1.06-2-3-2.16-3.62-.52-.63,0-1.34a34.91,34.91,0,0,0,2.52-2.49c.45-.75.63-.4.7-.84s.45.58-.23-.45a6.13,6.13,0,0,1-1.43-3.88c-.08-2.09.35-2.14-.15-3.41s-1-4.79-2-4.86-1.62.8-1.62-.33.58-1.76-.12-2.42-1.11-1.81-1.91-2.37a5.8,5.8,0,0,0-1.55-.73,7.6,7.6,0,0,1-.65,3.15,10.49,10.49,0,0,1,1.17,4.72l1.93,1.48-1.79-.12s-.49,3.48-2.49,5-3.43,2.82-5.47,1.93a18.49,18.49,0,0,1-2.47-1.32c-1.08-.51-.71-.8-1.83-1s-3.11-2.54-3.11-2.54l-2.3,2a2,2,0,0,1,1.5,2c0,1.69.57,3.81-.65,4.14s-.61.56-1.37,1.12a4.07,4.07,0,0,1-2.21.76c-.47,0-.94-.24-1.36-.1s-.33.61-.94.66A16.5,16.5,0,0,0,219.4,89.42Z"/>
        <polygon class="axe-20" points="220.46 140.22 222.33 141.07 222.33 143.35 221.2 145.56 212.21 145.34 211.05 143.35 211.05 141.07 212.98 140.22 220.46 140.22"/>
        <path class="axe-21" d="M220.14,139.61l.32.61a10.68,10.68,0,0,1-7.48,0l.43-.42.18-.19Z"/>
        <path class="axe-22" d="M217,137.05a2.35,2.35,0,0,0,1.5.68,11.15,11.15,0,0,0,1.69,0v2a11.64,11.64,0,0,1-6.74.12v-2.09S216.05,138,217,137.05Z"/>
        <path class="axe-22" d="M212.93,188.56s.24-2.23-4.91-7.87l2.07-1.74.89-3.1,1.84.58,3.86.85,3.63-.54,2-.4.68,3,1.88,2.09s-3.74,4.37-4.35,6.93C220.5,188.37,217.87,190.13,212.93,188.56Z"/>
        <polygon class="axe-23" points="220.41 176.99 221.82 180 221.23 180.33 222.48 182.32 210.67 181.92 212.27 180.16 213.03 180.32 214.04 176.99 217.33 177.21 220.41 176.99"/>
        <path class="axe-24" d="M221.48,176.05l.81.29a11.5,11.5,0,0,1-11.31-.49l1-.19Z"/>
        <path class="axe-25" d="M211.94,175.66l.14-.64.94-3.36.3-1.06V166l.14-17.22,6.67-.16.05.14.14,23.2.38,2.73.9.53-.12.85A10.76,10.76,0,0,1,211.94,175.66Z"/>
        <path class="axe-26" d="M212.21,145.34a5.89,5.89,0,0,1,.94,3.51,22.58,22.58,0,0,0,7.3,0s.19-2.68,1-3.72c0,0-5.12,1.08-9.25-.16Z"/>
        <path class="axe-26" d="M220.43,149.36s-.94.83-7.26.12v2.82a9,9,0,0,0,7.12,0l.14-.06Z"/>
        <path class="axe-26" d="M220.43,153a10.11,10.11,0,0,1-7.26,0v3.76a9,9,0,0,0,7.26,0Z"/>
        <path class="axe-26" d="M220.43,157.91a10.81,10.81,0,0,1-7.26-.19v4a10.33,10.33,0,0,0,7.37,0Z"/>
        <path class="axe-26" d="M220.43,162.43a10.9,10.9,0,0,1-7.26,0v3.72a8.28,8.28,0,0,0,7.37,0Z"/>
        <path class="axe-26" d="M220.7,167.25s-4.14,1.28-7.68-.21l.15,3.49a10.53,10.53,0,0,0,7.53,0Z"/>
        <path class="axe-26" d="M220.82,171.41s-3.26,1.91-8.14,0l-.6,3.61a12.51,12.51,0,0,0,9.52.18Z"/>
        <path class="axe-24" d="M224.26,181.65s-7.73,3.78-15.16-.52c0,0,3.41.73,4.09.31s.94.95,1.84.72a8.56,8.56,0,0,1,3.12,0c1.22.15,1.76-.84,2.44-.63A23.54,23.54,0,0,0,224.26,181.65Z"/>
        <path class="axe-27" d="M222.69,179.49s-2.24-.61-2.52-.24a9.09,9.09,0,0,1-1.57,1.39c-.1,0-4.7.42-7.62-1,0,0,3.08,1.76,8.28,1.07A11.5,11.5,0,0,0,222.69,179.49Z"/>
        <path class="axe-28" d="M221.82,185.46l-2.07-.1s-.82-.12-1-.35-.14-.71-1.11-.73-2.3,0-2.3,0-.7-.05-.89.31a.88.88,0,0,1-.68.37l-2.33,0"/>
        <path class="axe-28" d="M220.17,188a12.27,12.27,0,0,1-7.24-.26"/>
        <path class="axe-21" d="M218.3,138.15s-1.33,0-1.35-.38c0,0,0,.32-1.29.38Z"/>
        <path class="axe-29" d="M221.71,141.22a14.93,14.93,0,0,1-9.87,0"/>
        <path class="axe-29" d="M221.73,143.35a14.92,14.92,0,0,1-9.87,0"/>
        <path class="axe-30" d="M220.43,105.21s-1.72,2-.88,7.91c0,0,1.41-6.16,2.52-7.91,0,0-.37-4.29,2.07-4.75,0,0,2.55-4.35,6.19-2.62s2.6,7.09,3,8.17a2.35,2.35,0,0,0,1.32,1.45,11.18,11.18,0,0,1-.42-4.46c.28-2.44,1.45-8.37-2.92-9.16s-7.89,2.72-8.08,3.69-.19,0-1,.91A6.72,6.72,0,0,0,220.43,105.21Z"/>
        <path class="axe-31" d="M204,90.17s1.83,1.79,1.88,2.63,4.93,2.45,5.78,5.69c0,0,3.2,1.06,1.64,6.72,0,0,2.46,3.1.55,8.32a15.76,15.76,0,0,0-2.14-8.74s.95-1.88-1.66-4.75a10.78,10.78,0,0,0-5-6.16,28,28,0,0,0-1.55-4.09Z"/>
        <path class="axe-32" d="M221.1,85s-3.83-2-4,3,3,7.74,4.74,7.56,6.71-4.43,9.21-3.62,5.61,2,3.25,11.11c0,0-.49,3.37.42,4.46a48.73,48.73,0,0,1,3-7.48c2.25-4.77,1.31-8.78-.82-10.66s-4.07-3-7.89-1.5-6.18,3.63-8.26,2.63S218.47,85.5,221.1,85Z"/>
        <path class="axe-33" d="M213.15,85.25S217,83.84,217,87.48a7.49,7.49,0,0,1-3.89,6.89c-2,1-6.68-2.26-7.18-3a6.84,6.84,0,0,0-2.46-1.54s3.43.13,3.65.22,1.22,1.87,3.12,2a4,4,0,0,0,4.43-3.07C215.15,86.66,215.12,85.91,213.15,85.25Z"/>
        <ellipse class="axe-34" cx="217.05" cy="97.53" rx="2.34" ry="7.07"/>
        <ellipse class="axe-15" cx="217.05" cy="97.38" rx="2.34" ry="6.27"/>
        <path class="axe-35" d="M214.08,171.23a23,23,0,0,1-1-11,9.38,9.38,0,0,0-4.65,1.79,21.91,21.91,0,0,0,.2,12C210.71,174.07,212.58,172.61,214.08,171.23Zm14.47-.66a16.61,16.61,0,0,0,.22-8.17,35.94,35.94,0,0,0-13.32,1.48,4.44,4.44,0,0,0-.53,2.36,13.34,13.34,0,0,0,.24,2.43C219.11,170.58,224.18,171,228.55,170.57Zm-13.5-8.79a8.48,8.48,0,0,1-.62-5.07,26.07,26.07,0,0,1,10.71-4.57,16.09,16.09,0,0,1,2.6,6.47A64.24,64.24,0,0,1,215.05,161.78Z"/>
        <path class="axe-5" d="M179.57,166.47A156.37,156.37,0,0,1,171.31,195a84.61,84.61,0,0,0,13.28-5.26A203.42,203.42,0,0,0,179.57,166.47Z"/>
        <path class="axe-54" d="M190.45,161.63q-4.86-1.49-9.83-2.58c0,.23,0,.46-.07.69a94.29,94.29,0,0,1,8.66,5.41l.16.44a91.43,91.43,0,0,1,6.76,23.49C195.78,179.54,194.19,169.86,190.45,161.63Z"/>
        <path class="axe-7" d="M170,198.2A84.81,84.81,0,0,0,196.81,191a79.15,79.15,0,0,1-12.45-1.11A85.17,85.17,0,0,1,171.31,195C170.89,196.1,170.47,197.15,170,198.2Z"/>
    </g>
</svg>