<svg xmlns="http://www.w3.org/2000/svg" 
    xmlns:xlink="http://www.w3.org/1999/xlink" viewBox="0 0 294.54 401.1">
    <title>Hero</title>
    <g id="fight" class="fight-1">
        <path class="fight-2" d="M196.41,201a7.25,7.25,0,0,0,0-5.11,6.81,6.81,0,0,0-3.44-3.57c-6,3.54-7.69,1.33-14.48,3a12.74,12.74,0,0,0-2.95,1.34C179.4,200.53,190.1,203.61,196.41,201Z"/>
        <path class="fight-3" d="M194.26,211.33c-2.91-6.25-5.42-12.25-8.33-18.5a261.34,261.34,0,0,0,19.41-30.34l13.83,18.32A230.76,230.76,0,0,1,194.26,211.33Z"/>
        <path class="fight-3" d="M205.34,162.49c2.77,0,6.93-.54,9.69-.79,5.66,5.34,11.83,12.87,16.43,18.74a70.69,70.69,0,0,1-12.29.37Z"/>
        <path class="fight-4" d="M194.26,211.33a230.76,230.76,0,0,0,24.91-30.52,70.69,70.69,0,0,0,12.29-.37c-6.42,11.4-16,22.2-25.47,32.32A23.85,23.85,0,0,1,194.26,211.33Z"/>
        <path class="fight-5" d="M194.26,211.33c-2.91-6.25-5.42-12.25-8.33-18.5,3.71-4.92,8.16-11.48,12.2-18,1.41,2.1,5.38,8,6.18,9.22s4.84,7.92,5.65,9.27Q202.75,202.51,194.26,211.33Z"/>
        <path class="fight-6" d="M194.26,211.33q8.49-8.82,15.7-18l.15.24a54.16,54.16,0,0,0,6.76.59c1.66,0,4.26-.23,5.54-.33-5,6.53-10.75,12.83-16.42,18.89A23.85,23.85,0,0,1,194.26,211.33Z"/>
        <path class="fight-7" d="M210.25,193l-.53.66h0l-.07-.12c-3.15-5.57-7.09-11.75-11.68-18.39l.45-.73C203.06,181.13,207.05,187.37,210.25,193Z"/>
        <path class="fight-5" d="M222.07,194.3c-3.4.31-9.47.47-12.22-.58l-.13-.05.53-.66v0c2.93,1,9.58.72,12.48.41Z"/>
        <path class="fight-7" d="M206.12,186.91l-.29-.24a56,56,0,0,0-4.14,5.64l-.05.08,0,.09a29.62,29.62,0,0,0,2.12,4.66,66.08,66.08,0,0,1-10.65,11.8l.25.29a66.74,66.74,0,0,0,10.78-12l.07-.1-.06-.11a28.13,28.13,0,0,1-2.12-4.62A59.34,59.34,0,0,1,206.12,186.91Z"/>
        <path class="fight-8" d="M205.31,212.05a145.17,145.17,0,0,0,23.61-30.2,19.51,19.51,0,0,1-6.1.2,176.63,176.63,0,0,1-18.56,24.39,17.79,17.79,0,0,1-3.86.06c-1.36,1.39-2.82,2.84-4.18,4.23A37.45,37.45,0,0,0,205.31,212.05Z"/>
        <path class="fight-7" d="M203.13,170.52q-.62-.87-1.29-1.65l-.29.24a23.88,23.88,0,0,1,3.58,5.63,20.7,20.7,0,0,1-3.21,5.58l.29.24a20.77,20.77,0,0,0,3.3-5.76l0-.07,0-.07A24.58,24.58,0,0,0,203.13,170.52Z"/>
        <path class="fight-5" d="M196.66,182.06c-1.41-.64-2.82-1.3-4.23-2s-2.83-1.32-4.25-2l-.28-.12,0-.31a118.43,118.43,0,0,0-4-18.52l1.06-.32a120.33,120.33,0,0,1,4,18.39c1.32.6,2.65,1.22,4,1.84s2.81,1.31,4.22,2Z"/>
        <path class="fight-9" d="M191.41,160.67c-2.24-.77-7-1.8-10.41-2.48q-.39,4.08-1.13,8.22a205.57,205.57,0,0,1,5,23.3l-.23.11a79.15,79.15,0,0,0,12.45,1.11l.18-.08A66.94,66.94,0,0,0,191.41,160.67Z"/>
        <path class="fight-2" d="M211.68,174.08a5.94,5.94,0,0,0,.91,3.25,29,29,0,0,0,11.37.28,16.2,16.2,0,0,0,4.33-10.33,24.54,24.54,0,0,0-2.48-11.21A36.79,36.79,0,0,0,216,159.3l.14.08c0,.69-.1,1.39-.06,2.08-1.69.81-3.16,1.49-4.85,2.29A37.71,37.71,0,0,0,211.68,174.08Z"/>
        <path class="fight-5" d="M179.87,166.41A155.61,155.61,0,0,1,171.6,195a84.73,84.73,0,0,0,13.29-5.26A205.57,205.57,0,0,0,179.87,166.41Z"/>
        <path class="fight-10" d="M190.75,161.57q-4.86-1.48-9.83-2.58c0,.23,0,.46-.07.69a94.29,94.29,0,0,1,8.66,5.41l.16.44A91.43,91.43,0,0,1,196.43,189C196.08,179.48,194.49,169.8,190.75,161.57Z"/>
        <path class="fight-7" d="M170.34,198.14a84.81,84.81,0,0,0,26.77-7.21,79.15,79.15,0,0,1-12.45-1.11A84.89,84.89,0,0,1,171.6,195C171.19,196,170.77,197.09,170.34,198.14Z"/>
        <path class="fight-3" d="M215,161.56a23.16,23.16,0,0,0,.93,10.77c-1.43,1.35-3.22,2.78-5.16,2.74L209,174a21.91,21.91,0,0,1-.2-12,9.38,9.38,0,0,1,4.65-1.79Z"/>
        <path class="fight-3" d="M215.35,161.72a8.48,8.48,0,0,1-.62-5.07,25.94,25.94,0,0,1,10.71-4.57c.33.5,1,1.53,1,1.53a15.88,15.88,0,0,1,2.49,6.35,60,60,0,0,1-12.11,3.1Z"/>
        <path class="fight-3" d="M215.46,168.61a13.34,13.34,0,0,1-.24-2.43,4.44,4.44,0,0,1,.53-2.36,35.94,35.94,0,0,1,13.32-1.48l.84,1.35a16.61,16.61,0,0,1-.19,8c-4.17.36-9,0-12.79-1.89Z"/>
        <path class="fight-11" d="M214.38,171.17a23,23,0,0,1-1-11,9.38,9.38,0,0,0-4.65,1.79,21.91,21.91,0,0,0,.2,12C211,174,212.88,172.55,214.38,171.17Zm14.47-.66a16.61,16.61,0,0,0,.22-8.17,35.94,35.94,0,0,0-13.32,1.48,4.44,4.44,0,0,0-.53,2.36,13.34,13.34,0,0,0,.24,2.43C219.41,170.52,224.48,170.89,228.85,170.51Zm-13.5-8.79a8.48,8.48,0,0,1-.62-5.07,25.94,25.94,0,0,1,10.71-4.57,15.93,15.93,0,0,1,2.59,6.47A64,64,0,0,1,215.35,161.72Z"/>
    </g>
</svg>