<svg xmlns="http://www.w3.org/2000/svg" 
    xmlns:xlink="http://www.w3.org/1999/xlink" viewBox="0 0 294.54 401.1">
    <title>Hero</title>
    <g id="flame" class="flame-1">
        <path class="flame-2" d="M241,87.75c-.19-1.63.17-4.2,2.55-7.76,0,0-1.14,2.9-.91,3.64,0,0,.91-.47,1.74-3.76a11.27,11.27,0,0,1,1.74-4.34s-.68,2.11-.38,2.71c0,0,.63-3.74,2.3-4.81A41.31,41.31,0,0,0,246.4,81C245,87.79,241.39,89.24,241,87.75Z"/>
        <path class="flame-3" d="M197,181.36c-1.41-.64-2.83-1.3-4.24-2l-4.26-2-.29-.12,0-.31a117.93,117.93,0,0,0-4-18.57l1.06-.32a119.82,119.82,0,0,1,4,18.44l4,1.84c1.41.66,2.82,1.32,4.23,2Z"/>
        <path class="flame-3" d="M180.11,165.66a155.56,155.56,0,0,1-8.29,28.65A84.66,84.66,0,0,0,185.15,189,207.3,207.3,0,0,0,180.11,165.66Z"/>
        <path class="flame-4" d="M191.68,159.91c-2.24-.77-7-1.8-10.43-2.48h0c-.12,1.31-.28,2.63-.46,4l0,.21c-.19,1.34-.4,2.7-.64,4a207.3,207.3,0,0,1,5,23.37l-.24.12a80.88,80.88,0,0,0,12.49,1.11l.18-.08A67.07,67.07,0,0,0,191.68,159.91Z"/>
        <path class="flame-5" d="M191,160.81q-4.87-1.49-9.86-2.58c0,.23,0,.46-.07.69a90.78,90.78,0,0,1,8.69,5.43l.16.43a92,92,0,0,1,6.78,23.56C196.37,178.77,194.77,169.07,191,160.81Z"/>
        <path class="flame-6" d="M221,210.58a32.59,32.59,0,0,0,1.11-3.75c2.62-10.3,8.13-37,8.13-37l-10.53-4-11.22,31.29-7.8,21.77,7.94,3.1S219.45,213.87,221,210.58Z"/>
        <path class="flame-7" d="M240.81,63.83s3.4,21-19.34,40.56c0,0-9.8,6.69-12.09,28.21,0,0-3.51-9.66,1.66-21.93,0,0-23.91,40,12.44,54.25,0,0,38.65-2,28.27-51.84,0,0-2.76,18-8.12,20.26,0,0-6.18-6.23,1.22-24.54,0,0,8.16-13.94,3.86-27,0,0-3.4,12.41-8.88,13.69C239.83,95.46,251.05,76.05,240.81,63.83Z"/>
        <path class="flame-8" d="M230.77,163.4c5.16-3.63,9.95-11.05,6.79-26.21,0,0-1.58,10.27-4.64,11.59,0,0-3.54-3.56.69-14,0,0,4.67-8,2.21-15.46,0,0-1.94,7.1-5.08,7.83,0,0,6.42-11.1.56-18.09,0,0,1.95,12-11.06,23.2,0,0-5.6,3.82-6.91,16.13a18.42,18.42,0,0,1,.94-12.54s-6.85,11.49-3.47,21.07a35.32,35.32,0,0,0,12.68,8A31.5,31.5,0,0,0,230.77,163.4Z"/>
        <path class="flame-9" d="M228.16,164.14c2.3-2.69,3.83-7.17,2.27-14.66,0,0-1,6.46-2.92,7.28,0,0-2.22-2.24.44-8.82,0,0,2.93-5,1.39-9.72,0,0-1.23,4.46-3.2,4.92,0,0,4-7,.35-11.37,0,0,1.23,7.56-7,14.59,0,0-3.52,2.4-4.34,10.14a11.56,11.56,0,0,1,.59-7.89s-3,5.12-2.75,10.34a37.74,37.74,0,0,0,10.44,6A28.36,28.36,0,0,0,228.16,164.14Z"/>
        <path class="flame-10" d="M174.74,193.37a60.58,60.58,0,0,0,11,14.44,13.19,13.19,0,0,0,4.41-2.58,64.34,64.34,0,0,1-7.9-14.79C179.59,191.49,177,192.51,174.74,193.37Z"/>
        <path class="flame-11" d="M188.49,206a5.75,5.75,0,0,0,2.15-1.31c-.43-.54-.85-1.08-1.27-1.63l-.64.38c-.54.33-1,.63-1,.63s.33-.42.77-.89c.17-.18.36-.37.55-.54-.57-.77-1.12-1.55-1.66-2.34a5.44,5.44,0,0,0-.82.37,5.6,5.6,0,0,0-1,.67,4.3,4.3,0,0,1,.77-.94,4.25,4.25,0,0,1,.7-.55c-.53-.78-1-1.58-1.53-2.39a11.7,11.7,0,0,0-1.11.58,10.64,10.64,0,0,0-1.29.9,9.21,9.21,0,0,1,1.09-1.16,7.73,7.73,0,0,1,1-.79c-1.18-2-2.28-4-3.28-6a8,8,0,0,0-1.74,4.46A45.27,45.27,0,0,0,188.49,206Z"/>
        <polygon class="flame-12" points="209.81 164.26 213.97 159.99 227.33 165.21 227.96 170.9 209.81 164.26"/>
        <path class="flame-13" d="M194.56,175.2l18.84,23.49,9.68,4c4-10.86,7.13-32.88,7.13-32.88l-10.53-4-12.21-4.1A110.33,110.33,0,0,0,194.56,175.2Z"/>
        <path class="flame-3" d="M211.05,207.76c.36-.87,1.09-3.73,2-7.58,2.82-12,7.27-33.57,6.63-34.33l-12.21-4.1c-1.32-.51-13.15,13.49-20.33,22.52a82.7,82.7,0,0,0-5.45,7.28c-1,2.2,1.63,18.75,1.63,18.75l17.34,8.61S209.62,211.33,211.05,207.76Z"/>
        <path class="flame-14" d="M208.47,222l-1.95-.76c1.19-1,9.26-7.61,10.68-10.87,1.5-3.46,10.2-39.05,9.8-41.53l1.89.69c.83,1-6.82,37-9.77,41.65S208.47,222,208.47,222Z"/>
        <path class="flame-15" d="M221,210.58c.23-.51,1.62-6,2.11-7.86-3-1.22-10-4.19-10-4.19a32.08,32.08,0,0,1-4.67-1.39c-7.56-4.88-15.78-9.7-21.32-12.87a82.7,82.7,0,0,0-5.45,7.28c-1,2.2,1.63,18.75,1.63,18.75l17.34,8.61,7.94,3.1S219.45,213.87,221,210.58Z"/>
    </g>
</svg>