<svg xmlns="http://www.w3.org/2000/svg" 
    xmlns:xlink="http://www.w3.org/1999/xlink" viewBox="0 0 294.54 401.1">
    <title>Hero</title>
    <g id="flowers" class="flowers-1">
        <path class="flowers-2" d="M196.7,200.34a7.2,7.2,0,0,0,0-5.11,6.83,6.83,0,0,0-3.44-3.58c-6,3.54-7.69,1.33-14.47,3a12.77,12.77,0,0,0-3,1.34C179.69,199.86,190.39,202.93,196.7,200.34Z"/>
        <path class="flowers-3" d="M194.56,210.65c-2.92-6.24-5.42-12.24-8.34-18.49a262.26,262.26,0,0,0,19.42-30.34l13.82,18.31A229.38,229.38,0,0,1,194.56,210.65Z"/>
        <path class="flowers-3" d="M205.64,161.82c2.76,0,6.93-.55,9.68-.8,5.67,5.34,11.83,12.87,16.43,18.75a69.64,69.64,0,0,1-12.29.36Z"/>
        <path class="flowers-4" d="M194.56,210.65a229.38,229.38,0,0,0,24.9-30.52,69.64,69.64,0,0,0,12.29-.36c-6.42,11.39-16,22.2-25.47,32.31A23.69,23.69,0,0,1,194.56,210.65Z"/>
        <path class="flowers-5" d="M194.56,210.65c-2.92-6.24-5.42-12.24-8.34-18.49,3.71-4.92,8.16-11.48,12.2-18,1.42,2.1,5.38,8,6.18,9.22s4.84,7.93,5.65,9.27Q203,201.84,194.56,210.65Z"/>
        <path class="flowers-6" d="M194.56,210.65q8.48-8.81,15.69-18l.15.24a55.57,55.57,0,0,0,6.77.6c1.66-.05,4.26-.24,5.53-.34-5,6.53-10.75,12.84-16.42,18.89A23.69,23.69,0,0,1,194.56,210.65Z"/>
        <path class="flowers-7" d="M210.54,192.33,210,193h0l-.07-.12c-3.16-5.57-7.09-11.76-11.69-18.39l.45-.73C203.36,180.45,207.34,186.7,210.54,192.33Z"/>
        <path class="flowers-5" d="M222.37,193.62c-3.41.32-9.48.48-12.23-.58l-.13,0,.53-.66v0c2.93,1,9.58.73,12.49.41Z"/>
        <path class="flowers-7" d="M206.42,186.23l-.3-.24a60,60,0,0,0-4.14,5.64l0,.08,0,.09a29.24,29.24,0,0,0,2.11,4.67,66.37,66.37,0,0,1-10.65,11.79l.25.29a67.08,67.08,0,0,0,10.79-12l.07-.11-.07-.1a28,28,0,0,1-2.11-4.62A56.06,56.06,0,0,1,206.42,186.23Z"/>
        <path class="flowers-8" d="M205.61,211.38a145.72,145.72,0,0,0,23.6-30.2,19.15,19.15,0,0,1-6.09.19,177.39,177.39,0,0,1-18.57,24.4,17.09,17.09,0,0,1-3.85,0c-1.37,1.39-2.82,2.84-4.18,4.24A37.88,37.88,0,0,0,205.61,211.38Z"/>
        <path class="flowers-7" d="M203.42,169.84c-.41-.57-.84-1.13-1.29-1.65l-.28.25a24.17,24.17,0,0,1,3.57,5.63,20.23,20.23,0,0,1-3.21,5.57l.29.25a21.19,21.19,0,0,0,3.31-5.76l0-.07,0-.08A24.58,24.58,0,0,0,203.42,169.84Z"/>
        <path class="flowers-5" d="M197,181.38c-1.41-.63-2.82-1.29-4.23-1.95s-2.83-1.32-4.24-2l-.29-.13,0-.3a118.43,118.43,0,0,0-4-18.52l1.06-.32a119.28,119.28,0,0,1,4,18.38l4,1.84c1.41.66,2.81,1.32,4.22,2Z"/>
        <path class="flowers-9" d="M191.7,160c-2.24-.77-7-1.79-10.41-2.47q-.39,4.06-1.13,8.21a206.08,206.08,0,0,1,5,23.3l-.24.12a80.49,80.49,0,0,0,12.46,1.11l.17-.08A66.85,66.85,0,0,0,191.7,160Z"/>
        <path class="flowers-2" d="M212,173.4a6.11,6.11,0,0,0,.91,3.25,29.06,29.06,0,0,0,11.38.29,16.3,16.3,0,0,0,4.33-10.33,24.49,24.49,0,0,0-2.49-11.22,36.4,36.4,0,0,0-9.85,3.24l.13.07c0,.7-.1,1.39-.06,2.09-1.69.8-3.16,1.48-4.85,2.29A37.64,37.64,0,0,0,212,173.4Z"/>
        <path class="flowers-5" d="M180.16,165.73a155.35,155.35,0,0,1-8.26,28.56A84.14,84.14,0,0,0,185.19,189,206.08,206.08,0,0,0,180.16,165.73Z"/>
        <path class="flowers-10" d="M191,160.89q-4.86-1.48-9.83-2.58c0,.24,0,.47-.07.7a88.93,88.93,0,0,1,8.66,5.41l.16.43a91,91,0,0,1,6.76,23.5C196.38,178.8,194.78,169.13,191,160.89Z"/>
        <path class="flowers-7" d="M170.63,197.47a84.94,84.94,0,0,0,26.78-7.21A80.49,80.49,0,0,1,185,189.15a85.77,85.77,0,0,1-13,5.14C171.48,195.36,171.06,196.42,170.63,197.47Z"/>
        <path class="flowers-11" d="M231,69.79a7.91,7.91,0,0,1-.35,3.59h0c-.11.33-.22.59-.29.76a36.91,36.91,0,0,1,.28,4.49A7.33,7.33,0,0,1,232,76.39a8.27,8.27,0,0,1,4.09-2.24,8.3,8.3,0,0,1-1.93,4.25,7.82,7.82,0,0,1-3,1.94h0l-.55.18c-.06,1.83-.24,3.76-.5,5.72a7.39,7.39,0,0,1,1.3-2,8.68,8.68,0,0,1,4.31-2.36,8.72,8.72,0,0,1-2,4.47,8.08,8.08,0,0,1-3.21,2h0c-.3.11-.55.19-.74.24-.39,2.29-.91,4.59-1.52,6.83a8.43,8.43,0,0,1,2.05-2.27,9.65,9.65,0,0,1,5.19-1.74A9.76,9.76,0,0,1,232.3,96a9.13,9.13,0,0,1-3.92,1.6h0c-.35.06-.64.09-.86.11-.48,1.53-1,3-1.57,4.43l-.22.52a5.78,5.78,0,0,1,2.43-1.15,15.66,15.66,0,0,1,5.09,0,6.47,6.47,0,0,1-4.08,3,14.16,14.16,0,0,1-4.21.1h-.09c-.2.42-.41.85-.62,1.27a16.28,16.28,0,0,1-2.23,3.6c-.54.59-1.32-.08-1.07-.75a26,26,0,0,1,1.62-3.26c.15-.29.45-.83.85-1.57l-.32-.33a14.12,14.12,0,0,1-2.47-3.41,6.5,6.5,0,0,1,0-5.09,15.54,15.54,0,0,1,3.09,4,6,6,0,0,1,.51,3.32,55.54,55.54,0,0,0,2.28-5.11l-.12-.12a14.18,14.18,0,0,1-2.47-3.41,6.55,6.55,0,0,1-.05-5.09,15.67,15.67,0,0,1,3.1,4,5.51,5.51,0,0,1,.5,1.69,58.57,58.57,0,0,0,1.35-5.9l-.3-.25a13.74,13.74,0,0,1-2.93-3,6.55,6.55,0,0,1-.76-5,15.54,15.54,0,0,1,3.63,3.57,5.36,5.36,0,0,1,.8,1.88c.25-1.87.41-3.65.51-5.26l-.41-.31a14,14,0,0,1-3-3,6.46,6.46,0,0,1-.86-5,15.73,15.73,0,0,1,3.7,3.49,5.79,5.79,0,0,1,.7,1.38c0-1.15,0-2.15,0-3v0l-.05,0,0,0,0,0,0,0,0-.06,0,0,0-.06,0,0A8,8,0,0,1,228,70.26a8.34,8.34,0,0,1,.76-4.61A8.25,8.25,0,0,1,231,69.79Z"/>
        <path class="flowers-11" d="M246.8,77.14a7.87,7.87,0,0,1-1.33,3.36h0a8.11,8.11,0,0,1-.49.66,35.33,35.33,0,0,1-1,4.39A7.06,7.06,0,0,1,246,83.77a8.23,8.23,0,0,1,4.55-1,8.23,8.23,0,0,1-3,3.55,7.74,7.74,0,0,1-3.46,1h0c-.22,0-.41,0-.57,0-.58,1.75-1.27,3.55-2.07,5.36a7.67,7.67,0,0,1,1.8-1.55,8.7,8.7,0,0,1,4.8-1.09,8.73,8.73,0,0,1-3.19,3.75,8.31,8.31,0,0,1-3.64,1.08h0c-.32,0-.58,0-.78,0-1,2.09-2.13,4.16-3.34,6.15a8.55,8.55,0,0,1,2.59-1.62,9.7,9.7,0,0,1,5.48-.24,9.72,9.72,0,0,1-4.24,3.47,9.21,9.21,0,0,1-4.21.47h0c-.35,0-.64-.09-.86-.13-.88,1.33-1.79,2.62-2.73,3.82-.11.15-.23.3-.35.44a5.68,5.68,0,0,1,2.66-.43,15.57,15.57,0,0,1,4.89,1.41,6.52,6.52,0,0,1-4.77,1.8,14,14,0,0,1-4.07-1.06l-.09,0c-.3.36-.62.71-.94,1.06a16.22,16.22,0,0,1-3.13,2.84c-.68.43-1.25-.44-.83-1a28.41,28.41,0,0,1,2.46-2.69l1.24-1.28-.21-.4a14.09,14.09,0,0,1-1.44-4,6.5,6.5,0,0,1,1.36-4.91,15.53,15.53,0,0,1,1.86,4.74,5.93,5.93,0,0,1-.43,3.33,54.34,54.34,0,0,0,3.6-4.28l-.08-.15a13.82,13.82,0,0,1-1.43-4,6.51,6.51,0,0,1,1.35-4.91,15.81,15.81,0,0,1,1.86,4.74,5.49,5.49,0,0,1,0,1.76,58.23,58.23,0,0,0,2.93-5.3l-.23-.32a13.9,13.9,0,0,1-2-3.72,6.55,6.55,0,0,1,.65-5,15.46,15.46,0,0,1,2.51,4.43,5.62,5.62,0,0,1,.26,2c.75-1.73,1.39-3.39,1.93-4.92-.08-.11-.19-.24-.31-.41a14,14,0,0,1-2.05-3.68,6.55,6.55,0,0,1,.55-5.06,15.47,15.47,0,0,1,2.6,4.38,5.29,5.29,0,0,1,.29,1.52c.34-1.1.62-2.06.83-2.84h0l0-.06v0l0-.06v0l0-.07,0,0,0-.07v0a7.89,7.89,0,0,1-.54-3.71,8.23,8.23,0,0,1,2-4.22A8.3,8.3,0,0,1,246.8,77.14Z"/>
        <path class="flowers-11" d="M252.73,100a7.71,7.71,0,0,1-2.42,2.67h0c-.28.2-.53.35-.69.45a35.79,35.79,0,0,1-2.45,3.77,7.35,7.35,0,0,1,2.45-1,8.31,8.31,0,0,1,4.63.63,8.28,8.28,0,0,1-4.08,2.27,7.84,7.84,0,0,1-3.6-.25h0l-.54-.19c-1.15,1.44-2.44,2.88-3.82,4.3a7.65,7.65,0,0,1,2.23-.83,8.72,8.72,0,0,1,4.87.68,8.72,8.72,0,0,1-4.3,2.38,8.1,8.1,0,0,1-3.79-.27h0c-.3-.09-.55-.18-.73-.25-1.68,1.6-3.47,3.15-5.3,4.58a8.35,8.35,0,0,1,3-.6,9.69,9.69,0,0,1,5.2,1.69,9.68,9.68,0,0,1-5.18,1.77,9.18,9.18,0,0,1-4.1-1h0a6.52,6.52,0,0,1-.75-.42c-1.3.94-2.6,1.82-3.9,2.62l-.49.29a5.62,5.62,0,0,1,2.64.53,15.68,15.68,0,0,1,4.08,3,6.46,6.46,0,0,1-5.09,0,13.68,13.68,0,0,1-3.44-2.43l-.07-.06c-.41.23-.83.45-1.25.65a16.22,16.22,0,0,1-3.93,1.57c-.79.16-1-.85-.43-1.24a26.8,26.8,0,0,1,3.25-1.65c.29-.15.86-.41,1.62-.76,0-.13,0-.28-.06-.46a13.55,13.55,0,0,1,.05-4.21,6.51,6.51,0,0,1,3-4.12,16,16,0,0,1,.08,5.09,5.92,5.92,0,0,1-1.58,3,54.69,54.69,0,0,0,4.88-2.74,1,1,0,0,1,0-.17,13.81,13.81,0,0,1,0-4.21,6.51,6.51,0,0,1,3-4.12,15.29,15.29,0,0,1,.08,5.09,5.22,5.22,0,0,1-.6,1.65,56.22,56.22,0,0,0,4.61-3.93c0-.11-.07-.24-.11-.38a14.37,14.37,0,0,1-.54-4.18,6.48,6.48,0,0,1,2.39-4.49,15.74,15.74,0,0,1,.79,5,5.49,5.49,0,0,1-.48,2c1.32-1.36,2.5-2.69,3.54-3.93,0-.13-.09-.3-.14-.49a13.86,13.86,0,0,1-.63-4.17,6.48,6.48,0,0,1,2.3-4.54,15.59,15.59,0,0,1,.89,5,5.33,5.33,0,0,1-.26,1.53c.7-.91,1.3-1.72,1.77-2.37v-.47a7.93,7.93,0,0,1,.8-3.67,8.23,8.23,0,0,1,3.36-3.24A8.3,8.3,0,0,1,252.73,100Z"/>
        <path class="flowers-11" d="M181.49,100a7.61,7.61,0,0,0,2.42,2.67h0c.28.2.53.35.69.45a35.79,35.79,0,0,0,2.45,3.77,7.32,7.32,0,0,0-2.46-1,8.29,8.29,0,0,0-4.62.63,8.28,8.28,0,0,0,4.08,2.27,7.84,7.84,0,0,0,3.6-.25h0l.54-.19c1.15,1.44,2.44,2.88,3.82,4.3a7.65,7.65,0,0,0-2.23-.83,8.72,8.72,0,0,0-4.87.68,8.66,8.66,0,0,0,4.3,2.38,8.05,8.05,0,0,0,3.78-.27h0c.3-.09.55-.18.73-.25,1.68,1.6,3.46,3.15,5.3,4.58a8.39,8.39,0,0,0-3-.6,9.69,9.69,0,0,0-5.2,1.69,9.68,9.68,0,0,0,5.18,1.77,9.21,9.21,0,0,0,4.1-1h0a6,6,0,0,0,.76-.42c1.3.94,2.6,1.82,3.9,2.62.16.1.32.2.49.29a5.6,5.6,0,0,0-2.64.53,15.47,15.47,0,0,0-4.08,3,6.46,6.46,0,0,0,5.09,0,13.68,13.68,0,0,0,3.44-2.43l.07-.06c.41.23.83.45,1.25.65a16.22,16.22,0,0,0,3.93,1.57c.79.16,1-.85.43-1.24a26.8,26.8,0,0,0-3.25-1.65c-.29-.15-.86-.41-1.62-.76,0-.13,0-.28.06-.46a13.87,13.87,0,0,0-.05-4.21,6.51,6.51,0,0,0-3-4.12,16,16,0,0,0-.08,5.09,6,6,0,0,0,1.57,3,54.62,54.62,0,0,1-4.87-2.74,1,1,0,0,0,0-.17,13.55,13.55,0,0,0-.05-4.21,6.44,6.44,0,0,0-3-4.12,15.94,15.94,0,0,0-.08,5.09,5.48,5.48,0,0,0,.61,1.65,56.22,56.22,0,0,1-4.61-3.93l.11-.38a14.37,14.37,0,0,0,.54-4.18,6.52,6.52,0,0,0-2.39-4.49,15.74,15.74,0,0,0-.79,5,5.49,5.49,0,0,0,.48,2c-1.32-1.36-2.5-2.69-3.55-3.93a5,5,0,0,0,.15-.49,14.19,14.19,0,0,0,.63-4.17,6.48,6.48,0,0,0-2.3-4.54,15.59,15.59,0,0,0-.89,5,5.33,5.33,0,0,0,.26,1.53c-.7-.91-1.3-1.72-1.77-2.37v-.47a7.93,7.93,0,0,0-.8-3.67,8.23,8.23,0,0,0-3.36-3.24A8.3,8.3,0,0,0,181.49,100Z"/>
        <path class="flowers-11" d="M205.33,69.58a7.77,7.77,0,0,0,.42,3.58h0a6,6,0,0,0,.31.77,33.73,33.73,0,0,0-.2,4.49,7.15,7.15,0,0,0-1.43-2.22A8.24,8.24,0,0,0,200.29,74a8.34,8.34,0,0,0,2,4.21,7.72,7.72,0,0,0,3.08,1.88h0l.55.16c.1,1.84.31,3.76.61,5.71a7.39,7.39,0,0,0-1.33-2,8.69,8.69,0,0,0-4.36-2.28A8.68,8.68,0,0,0,203,86.19a8.12,8.12,0,0,0,3.24,2h0a5.55,5.55,0,0,0,.75.22c.44,2.28,1,4.58,1.65,6.81A8.55,8.55,0,0,0,206.52,93a9.68,9.68,0,0,0-5.23-1.63,9.69,9.69,0,0,0,3.2,4.44,9.1,9.1,0,0,0,3.95,1.53h0c.35.06.64.08.86.1.51,1.52,1.06,3,1.66,4.39.07.18.15.35.22.52a5.7,5.7,0,0,0-2.45-1.1,15.76,15.76,0,0,0-5.09.11,6.48,6.48,0,0,0,4.14,3,14,14,0,0,0,4.21,0h.09c.21.42.42.84.64,1.26a15.77,15.77,0,0,0,2.3,3.55c.55.59,1.32-.1,1.06-.76a28.26,28.26,0,0,0-1.68-3.23l-.88-1.56.31-.33a14.14,14.14,0,0,0,2.41-3.46,6.52,6.52,0,0,0-.05-5.09,15.93,15.93,0,0,0-3,4.1,5.91,5.91,0,0,0-.44,3.33A54.4,54.4,0,0,1,210.36,97l.11-.13a13.79,13.79,0,0,0,2.4-3.45,6.52,6.52,0,0,0,0-5.09,15,15,0,0,0-3,4.1,5.17,5.17,0,0,0-.47,1.69,59.25,59.25,0,0,1-1.47-5.87l.3-.25A13.76,13.76,0,0,0,211,85a6.5,6.5,0,0,0,.66-5,16.08,16.08,0,0,0-3.56,3.64,5.53,5.53,0,0,0-.76,1.9c-.29-1.87-.48-3.64-.61-5.26l.41-.31a14.2,14.2,0,0,0,2.92-3,6.55,6.55,0,0,0,.77-5,15.72,15.72,0,0,0-3.64,3.57,5.6,5.6,0,0,0-.67,1.4c-.05-1.15-.06-2.15-.07-3h0l0-.06,0,0,0-.06,0,0,0-.06,0,0,0-.06,0,0A7.8,7.8,0,0,0,208.25,70a8.28,8.28,0,0,0-.84-4.59A8.23,8.23,0,0,0,205.33,69.58Z"/>
        <path class="flowers-11" d="M210.63,81a3.52,3.52,0,0,0,2.78,2.57A3.5,3.5,0,0,0,215,80.12c-.45-2.19-3.16-4.47-3.16-4.47S210.19,78.81,210.63,81Z"/>
        <path class="flowers-12" d="M211.31,80.45s0-.06,0,0a6.84,6.84,0,0,1,1.46.93c-.05-.22-.09-.43-.13-.65s-.05-.26-.08-.39,0,0,0,0h0l0-.22a7.37,7.37,0,0,0-1.19-.92s0-.06,0,0a6.27,6.27,0,0,1,1.11.73c-.08-.42-.16-.84-.23-1.26a4,4,0,0,1-.71-.89s0,0,.06,0c.2.21.43.42.61.65,0-.28-.07-.56-.1-.84a0,0,0,0,1,.06,0c.08.27.16.54.23.81a8.29,8.29,0,0,1,.31-.83s.07,0,.06,0a4.32,4.32,0,0,1-.3,1.09c.1.42.19.84.28,1.26a5.8,5.8,0,0,1,.74-1.11s.07,0,0,0a6.69,6.69,0,0,0-.74,1.32l0,.21h0s0,0,0,0,.05.26.08.39.09.43.13.64a7.49,7.49,0,0,1,1-1.42s.08,0,.06,0a7.36,7.36,0,0,0-.65,1.06c-.11.23-.2.48-.31.71,0,.17.07.33.11.5s.1.46.16.69c.19-.36.5-.71.72-1.07,0,0,.1,0,.07,0-.3.4-.45.84-.76,1.23a2.58,2.58,0,0,1,.07.68c0,.07-.17.1-.2,0a2.57,2.57,0,0,1-.2-.65c-.44-.24-.75-.59-1.18-.84,0,0,0-.07.06,0,.34.25.77.45,1.08.71,0-.21-.06-.41-.1-.61l-.12-.59c-.19-.17-.36-.36-.56-.53A6.36,6.36,0,0,0,211.31,80.45Z"/>
        <path class="flowers-11" d="M218.91,81.92a3.51,3.51,0,0,0-1.4,3.52,3.53,3.53,0,0,0,3.79.2c1.88-1.21,3-4.56,3-4.56S220.79,80.71,218.91,81.92Z"/>
        <path class="flowers-12" d="M219.67,82.35s.06,0,.05,0a6.66,6.66,0,0,1-.33,1.69l.55-.35.34-.21a0,0,0,0,1,0,0h0l.19-.12a7.19,7.19,0,0,0,.42-1.45s.06,0,.06,0a6,6,0,0,1-.29,1.3c.37-.23.73-.46,1.1-.67a3.94,3.94,0,0,1,.57-1s.06,0,0,0a7.49,7.49,0,0,1-.38.81c.24-.14.49-.27.74-.4,0,0,0,0,0,0-.22.18-.44.35-.67.51a6.61,6.61,0,0,1,.89,0s0,0,0,0a3.84,3.84,0,0,1-1.13.11c-.35.25-.71.48-1.07.72a5.64,5.64,0,0,1,1.3.29s0,.06,0,0a7.26,7.26,0,0,0-1.49-.22l-.19.12v0h0l-.33.22-.55.36a6.66,6.66,0,0,1,1.67.4s0,.07,0,.06a6.77,6.77,0,0,0-1.23-.22l-.77,0-.42.27-.59.41c.41,0,.85.21,1.25.28,0,0,.06.09,0,.08-.48-.14-.94-.12-1.42-.26a2.81,2.81,0,0,1-.6.3c-.07,0-.16-.12-.11-.17a2.39,2.39,0,0,1,.53-.42c.07-.49.28-.91.35-1.4,0,0,.08,0,.07,0-.11.4-.14.87-.27,1.26l.54-.32.5-.32c.09-.24.21-.47.29-.72A6.4,6.4,0,0,0,219.67,82.35Z"/>
        <path class="flowers-13" d="M218.5,92.17c-1-3.24-3.46-6-5.05-5.5s-1.84,3.73-1.61,5.29c.85,5.68,2.65,4.38,4.24,4.59S219.46,95.17,218.5,92.17Z"/>
        <path class="flowers-14" d="M211.78,91.18c-.07-1.67.31-4.08,1.67-4.51s3.05,1.26,4.25,3.58a2.45,2.45,0,0,1-2.62,2.16C213.94,92.26,212.7,92.87,211.78,91.18Z"/>
        <path class="flowers-13" d="M219.65,82.74c-1.4,3.1-4.12,5.57-5.64,4.88s-1.4-3.91-1-5.44c1.49-5.55,3.93-5.47,4.74-4.08C219.14,80.49,221,79.86,219.65,82.74Z"/>
        <path class="flowers-14" d="M215.91,82.41c.94,1.62,2.08,1.85,2.31,2.73-1.4,1.84-3.11,3-4.21,2.48-1.39-.63-1.41-3.37-1.09-5C214.13,81.14,215.38,81.49,215.91,82.41Z"/>
        <path class="flowers-15" d="M210.33,92.71c3-1.61,5.28-4.48,4.49-5.95s-4-1.14-5.49-.63c-5.44,1.87-3.83,3.4-3.75,5S207.55,94.21,210.33,92.71Z"/>
        <path class="flowers-16" d="M209.49,89.15c-.05-1.05-.74-2.05.25-3.14,1.61-.43,4.36-.6,5.08.75.6,1.1-.54,3-2.42,4.56A2.5,2.5,0,0,1,209.49,89.15Z"/>
        <path class="flowers-17" d="M219.74,91.38c-3.3-.81-6.23-3-5.83-4.66s3.6-2.08,5.17-2c5.73.46,4.55,2.34,4.87,3.92S222.81,92.14,219.74,91.38Z"/>
        <path class="flowers-13" d="M217.66,90.67c-2.34-1-4.06-2.68-3.75-4s2.78-1.93,4.45-2c1.6.81,1.1,2,1.32,3.15A2.46,2.46,0,0,1,217.66,90.67Z"/>
        <path class="flowers-17" d="M207.45,85.21c2.48,2.32,5.94,3.56,7.08,2.34s-.21-4.15-1.17-5.4c-3.51-4.55-5.73-3.55-5.94-2C207.06,82.93,205.14,83.05,207.45,85.21Z"/>
        <path class="flowers-13" d="M214.53,87.55c-.78.84-2.65.52-4.56-.52-.16-.92.83-1.56,1.08-3.44.13-1,1-1.76,2.56-1.09C214.53,83.88,215.58,86.43,214.53,87.55Z"/>
        <path class="flowers-18" d="M213.07,88.69a1.7,1.7,0,0,0,.74.3,3,3,0,0,0,1.3-.15,1.74,1.74,0,0,0,.73-.37,2.26,2.26,0,0,0,.64-1.31,2,2,0,0,0-.65-1.41,2.07,2.07,0,0,0-2.92.1A2,2,0,0,0,213.07,88.69Z"/>
        <path class="flowers-19" d="M212.52,86.49a1.68,1.68,0,0,0,.62.91,1.66,1.66,0,0,0,.73.3,3.07,3.07,0,0,0,1.31-.15,1.81,1.81,0,0,0,.73-.37,2.25,2.25,0,0,0,.45-.65,1.54,1.54,0,0,1,.12.63,2.26,2.26,0,0,1-.64,1.31,1.74,1.74,0,0,1-.73.37,3,3,0,0,1-1.3.15,1.7,1.7,0,0,1-.74-.3A1.87,1.87,0,0,1,212.52,86.49Z"/>
        <path class="flowers-20" d="M209.63,79.64c.34.13.73.32.77.68a.74.74,0,0,1-.33.64,7,7,0,0,1-.66.37,2.22,2.22,0,0,0-.95,1.14c-.15.41-.18.85-.32,1.25a.44.44,0,0,1-.25.32.4.4,0,0,1-.24,0,.93.93,0,0,1-.51-.92,2.55,2.55,0,0,1,.4-1,3.53,3.53,0,0,0,.5-1c.05-.24.05-.49.1-.74C208.29,79.52,209,79.38,209.63,79.64Z"/>
        <path class="flowers-21" d="M216.88,78.27a2.22,2.22,0,0,1,.87.85,3.58,3.58,0,0,0,.8.93c.25.17.58.29.71.56a1.06,1.06,0,0,1,.05.56.69.69,0,0,1-.06.31.49.49,0,0,1-.51.19,1,1,0,0,1-.48-.3,9.39,9.39,0,0,1-.83-1.13,2,2,0,0,0-1.08-.85C215.13,79.08,215.89,77.81,216.88,78.27Z"/>
        <path class="flowers-22" d="M214.38,85.62a1.7,1.7,0,0,1,1,.36.62.62,0,0,1,.29.44.48.48,0,0,1-.23.41A1,1,0,0,1,215,87a2.19,2.19,0,0,1-1.41-.09.6.6,0,0,1-.22-.17.63.63,0,0,1,.09-.79A1.34,1.34,0,0,1,214.38,85.62Z"/>
        <path class="flowers-23" d="M226.53,95.63a7.41,7.41,0,0,0-1.41-3.71A11.69,11.69,0,0,0,223,89.54a5.28,5.28,0,0,0-1.89-1.08,2.15,2.15,0,0,0-2,.35c-.24.21-.42.5-.72.62s-.67,0-1,.16a1.09,1.09,0,0,0-.56,1.25c.1.51.79,2.69,5.42,5.36a6.29,6.29,0,0,0,2.76,1c.38,0,1,0,1.24-.24A1.81,1.81,0,0,0,226.53,95.63Z"/>
        <path class="flowers-24" d="M226.24,96.91c-.27.28-.86.26-1.24.24a6.29,6.29,0,0,1-2.76-1c-.57-.33-1.09-.66-1.55-1a3.3,3.3,0,0,1-.46-1.08,1.07,1.07,0,0,1,.56-1.25c.3-.11.67,0,1-.16s.48-.41.72-.63a2.16,2.16,0,0,1,2-.34,4,4,0,0,1,.75.29,7.28,7.28,0,0,1,1.32,3.58A1.81,1.81,0,0,1,226.24,96.91Z"/>
        <path class="flowers-23" d="M227.5,96.57a7.34,7.34,0,0,1,3.75,1.28,11.44,11.44,0,0,1,2.45,2.1,5.11,5.11,0,0,1,1.14,1.85,2.14,2.14,0,0,1-.28,2c-.2.25-.49.44-.6.74s0,.67-.13,1a1.07,1.07,0,0,1-1.23.6c-.51-.08-2.71-.7-5.53-5.24a6.32,6.32,0,0,1-1-2.73,1.17,1.17,0,0,1,1.48-1.57Z"/>
        <path class="flowers-24" d="M226.22,96.89a1.83,1.83,0,0,0-.2,1.25,6.32,6.32,0,0,0,1,2.73c.35.57.69,1.07,1,1.52a3.67,3.67,0,0,0,1.09.43,1.08,1.08,0,0,0,1.23-.6c.11-.31,0-.68.13-1a2.71,2.71,0,0,1,.61-.74,2.17,2.17,0,0,0,.28-2,3.76,3.76,0,0,0-.32-.74,7.26,7.26,0,0,0-3.62-1.2A1.82,1.82,0,0,0,226.22,96.89Z"/>
        <path class="flowers-23" d="M227.62,97a7.41,7.41,0,0,0,3.71-1.41,11.4,11.4,0,0,0,2.38-2.17,5.28,5.28,0,0,0,1.08-1.89,7.69,7.69,0,0,0,.28-2.54c-.26-1.67-2.16-1.8-2.67-1.7s-2.68.8-5.35,5.42a6.3,6.3,0,0,0-1,2.76A1.18,1.18,0,0,0,227.62,97Z"/>
        <path class="flowers-24" d="M226.09,95.43a6.3,6.3,0,0,1,1-2.76c.25-.44.5-.84.75-1.21a3.31,3.31,0,0,1,.86-.34c.5-.1,2.41,0,2.67,1.7a7.7,7.7,0,0,1-.29,2.54,4.09,4.09,0,0,1-.18.49A6.94,6.94,0,0,1,227.62,97a1.18,1.18,0,0,1-1.53-1.53Z"/>
        <path class="flowers-23" d="M226.37,98.25a7.48,7.48,0,0,1-1.29,3.76,11.44,11.44,0,0,1-2.1,2.45,5.11,5.11,0,0,1-1.85,1.14,7.66,7.66,0,0,1-2.52.37c-1.69-.21-1.88-2.11-1.79-2.61s.7-2.71,5.24-5.53a6.24,6.24,0,0,1,2.73-1A1.78,1.78,0,0,1,226,97,1.86,1.86,0,0,1,226.37,98.25Z"/>
        <path class="flowers-24" d="M224.79,96.78a6.24,6.24,0,0,0-2.73,1c-.43.26-.82.53-1.19.78a2.9,2.9,0,0,0-.3.87c-.09.51.1,2.41,1.78,2.62a7.68,7.68,0,0,0,2.53-.37,4.94,4.94,0,0,0,.49-.19,7.16,7.16,0,0,0,1-3.29A1.86,1.86,0,0,0,226,97,1.78,1.78,0,0,0,224.79,96.78Z"/>
        <path class="flowers-25" d="M227.35,96.22a7.47,7.47,0,0,0,1.69-3.6,11.57,11.57,0,0,0,.19-3.22,5,5,0,0,0-.54-2.1,2.15,2.15,0,0,0-1.62-1.19,2.72,2.72,0,0,1-.95-.08c-.3-.13-.5-.44-.79-.58a1.07,1.07,0,0,0-1.29.46c-.3.43-1.38,2.44-.08,7.62a6.28,6.28,0,0,0,1.23,2.65c.25.28.65.72,1,.72A1.8,1.8,0,0,0,227.35,96.22Z"/>
        <path class="flowers-26" d="M226.23,96.9c-.39,0-.79-.44-1-.72A6.28,6.28,0,0,1,224,93.53c-.16-.65-.29-1.24-.38-1.79a3.62,3.62,0,0,1,.46-1.09,1.09,1.09,0,0,1,1.29-.47c.29.15.49.46.79.59a2.72,2.72,0,0,0,.95.08A2.15,2.15,0,0,1,228.69,92a3.73,3.73,0,0,1,.31.74,7.28,7.28,0,0,1-1.65,3.44A1.8,1.8,0,0,1,226.23,96.9Z"/>
        <path class="flowers-25" d="M227.35,97.56a7.43,7.43,0,0,1,1.69,3.6,11.52,11.52,0,0,1,.19,3.21,5,5,0,0,1-.54,2.11,2.14,2.14,0,0,1-1.62,1.18,3,3,0,0,0-.95.09c-.3.13-.5.44-.79.58a1.07,1.07,0,0,1-1.29-.46c-.3-.43-1.38-2.44-.08-7.62a6.28,6.28,0,0,1,1.23-2.65c.25-.29.65-.72,1-.72A1.8,1.8,0,0,1,227.35,97.56Z"/>
        <path class="flowers-26" d="M226.23,96.88c-.39,0-.79.43-1,.72a6.28,6.28,0,0,0-1.23,2.65c-.16.65-.29,1.24-.38,1.79a3.62,3.62,0,0,0,.46,1.09,1.07,1.07,0,0,0,1.29.46c.29-.14.49-.45.79-.58a2.72,2.72,0,0,1,.95-.08,2.15,2.15,0,0,0,1.62-1.19A3.73,3.73,0,0,0,229,101a7.28,7.28,0,0,0-1.65-3.44A1.8,1.8,0,0,0,226.23,96.88Z"/>
        <path class="flowers-25" d="M227.15,97.92a7.35,7.35,0,0,0,3.59,1.69,11.6,11.6,0,0,0,3.22.2,5.23,5.23,0,0,0,2.11-.54,7.67,7.67,0,0,0,2-1.56c1-1.35-.21-2.81-.64-3.1s-2.43-1.38-7.62-.08a6.25,6.25,0,0,0-2.64,1.24c-.29.25-.72.64-.73,1S226.86,97.65,227.15,97.92Z"/>
        <path class="flowers-26" d="M227.19,95.77a6.25,6.25,0,0,1,2.64-1.24l1.4-.31a3.54,3.54,0,0,1,.84.39c.42.29,1.66,1.75.63,3.1a7.67,7.67,0,0,1-2,1.56c-.15.08-.31.15-.48.22a7.11,7.11,0,0,1-3-1.57c-.29-.27-.7-.71-.69-1.12S226.9,96,227.19,95.77Z"/>
        <path class="flowers-25" d="M225.35,97.92a7.35,7.35,0,0,1-3.59,1.69,11.62,11.62,0,0,1-3.22.2,5.23,5.23,0,0,1-2.11-.54,7.67,7.67,0,0,1-2-1.56c-1-1.35.21-2.81.64-3.1s2.43-1.38,7.61-.08a6.24,6.24,0,0,1,2.65,1.24c.29.25.72.64.73,1S225.64,97.65,225.35,97.92Z"/>
        <path class="flowers-26" d="M225.31,95.77a6.24,6.24,0,0,0-2.65-1.24c-.49-.12-.95-.22-1.39-.31a3.34,3.34,0,0,0-.84.39c-.42.29-1.66,1.75-.63,3.1a7.67,7.67,0,0,0,2,1.56c.15.08.31.15.48.22a7.11,7.11,0,0,0,3-1.57c.29-.27.7-.71.69-1.12S225.6,96,225.31,95.77Z"/>
        <path class="flowers-27" d="M227.27,98.54a2.13,2.13,0,0,1-2.87-1.66A2,2,0,0,1,227.5,95,2,2,0,0,1,227.27,98.54Z"/>
        <path class="flowers-28" d="M225.48,94.88a2.07,2.07,0,0,0,2.72,2.72l.06,0a1.81,1.81,0,0,1-1,1,2.13,2.13,0,0,1-2.87-1.66A1.84,1.84,0,0,1,225.48,94.88Z"/>
        <path class="flowers-29" d="M227.6,95.7a1,1,0,0,1,.23.54.69.69,0,0,1-.19.58.66.66,0,0,1-.65.11,1.5,1.5,0,0,1-.58-.38,1.19,1.19,0,0,1-.43-.67.57.57,0,0,1,.6-.67A1.48,1.48,0,0,1,227.6,95.7Z"/>
        <path class="flowers-30" d="M224.54,86.2a.78.78,0,0,1,.74,0c.24.1.44.26.68.35.5.18,1.1,0,1.56.3a2.05,2.05,0,0,1,.42.36,1.41,1.41,0,0,1,.34.47.51.51,0,0,1-.11.54.54.54,0,0,1-.55,0,2.6,2.6,0,0,1-.46-.36,2.32,2.32,0,0,0-1.92-.46,1.72,1.72,0,0,1-.67.09C224,87.43,224.14,86.43,224.54,86.2Z"/>
        <path class="flowers-30" d="M237.52,95.84a1.3,1.3,0,0,1,0,1.21c-.23.44-.73.64-1.12,1a8.74,8.74,0,0,1-.95.78.62.62,0,0,1-.29.09.42.42,0,0,1-.32-.51.85.85,0,0,1,.41-.52,4.58,4.58,0,0,0,.56-.38,1.72,1.72,0,0,0,.39-.61,1.17,1.17,0,0,0,0-.86c-.11-.25-.37-.44-.37-.71a.42.42,0,0,1,.24-.37C236.63,94.69,237.33,95.48,237.52,95.84Z"/>
        <path class="flowers-31" d="M222.92,114c1.66,2.53,1.8,7.28,1.8,7.28s-4.31-2-6-4.53-1.21-3.88-.06-4.64S221.25,111.5,222.92,114Z"/>
        <path class="flowers-32" d="M223.13,116.33c.35,1,.62,2,.94,3-.43-.78-.86-1.56-1.25-2.35,0-.06-.15,0-.12.06.35.78.7,1.6,1.07,2.39-.72-1-1.4-2-2.15-3,0-.06-.12,0-.09.06.54,1,1.15,1.91,1.74,2.87-.59-.6-1.19-1.19-1.72-1.8-.06-.06-.18,0-.12.11.51.66,1,1.38,1.59,2.09-.91-.78-1.82-1.56-2.66-2.42-.06,0-.15,0-.1.09a33.17,33.17,0,0,0,2.67,2.93c1,.6,1.79,1,1.79,1s0-.58-.11-1.45c-.4-1.2-.8-2.41-1.28-3.59A.1.1,0,0,0,223.13,116.33Z"/>
        <path class="flowers-31" d="M223.84,103.68c2.32,1.95,3.81,6.46,3.81,6.46s-4.7-.68-7-2.63-2.27-3.37-1.38-4.43S221.51,101.73,223.84,103.68Z"/>
        <path class="flowers-32" d="M224.71,105.82c.6.82,1.16,1.73,1.75,2.61-.63-.63-1.27-1.25-1.87-1.9-.05,0-.15,0-.1.09.56.66,1.13,1.33,1.71,2-1-.75-1.92-1.56-2.92-2.27a.05.05,0,1,0-.07.08c.8.78,1.65,1.51,2.49,2.25-.74-.4-1.48-.8-2.17-1.22-.07,0-.15.08-.08.13.68.48,1.39,1,2.12,1.55-1.09-.48-2.18-1-3.24-1.55-.07,0-.14.07-.07.11a35.56,35.56,0,0,0,3.4,2c1.15.29,2,.41,2,.41s-.18-.55-.52-1.35c-.73-1.05-1.46-2.09-2.25-3.09C224.79,105.6,224.63,105.71,224.71,105.82Z"/>
        <path class="flowers-31" d="M225,83.73c1.78,1.76,2.7,5.57,2.7,5.57s-3.82-.89-5.6-2.64-1.63-2.92-.83-3.73S223.18,82,225,83.73Z"/>
        <path class="flowers-32" d="M225.52,85.55c.44.71.84,1.5,1.26,2.26-.47-.56-.95-1.11-1.41-1.68,0,0-.11,0-.08.06.42.58.83,1.17,1.27,1.75-.75-.68-1.47-1.41-2.25-2.07a0,0,0,0,0-.06.07c.6.69,1.26,1.35,1.89,2-.58-.39-1.16-.76-1.69-1.16-.06,0-.14.06-.08.11.53.44,1.07.94,1.64,1.42-.87-.48-1.73-1-2.56-1.5,0,0-.12,0-.07.09a27.63,27.63,0,0,0,2.66,1.9c.92.32,1.61.48,1.61.48s-.11-.47-.34-1.15c-.53-.91-1.06-1.82-1.64-2.69C225.61,85.37,225.46,85.45,225.52,85.55Z"/>
        <path class="flowers-31" d="M224.22,94.56c2.19,1.19,4.15,4.58,4.15,4.58s-3.91.23-6.11-1-2.4-2.34-1.86-3.34S222,93.37,224.22,94.56Z"/>
        <path class="flowers-32" d="M225.27,96.14c.63.56,1.23,1.21,1.85,1.82-.61-.4-1.23-.8-1.83-1.22,0,0-.11.05-.06.08.56.44,1.13.89,1.71,1.33-.91-.45-1.81-.94-2.74-1.35a0,0,0,1,0,0,.07c.78.5,1.59.95,2.39,1.41-.67-.2-1.33-.4-2-.63-.07,0-.12.09,0,.12.63.28,1.29.61,2,.9-1-.21-1.93-.43-2.88-.72a.06.06,0,0,0,0,.11,27.28,27.28,0,0,0,3.08,1.08c1,0,1.68,0,1.68,0s-.24-.41-.65-1c-.76-.72-1.52-1.44-2.33-2.11C225.31,96,225.19,96.07,225.27,96.14Z"/>
        <path class="flowers-31" d="M229.4,114.11c-2.4,1.85-4.08,6.3-4.08,6.3s4.73-.49,7.13-2.34,2.41-3.27,1.57-4.37S231.8,112.26,229.4,114.11Z"/>
        <path class="flowers-32" d="M228.44,116.22c-.64.79-1.23,1.67-1.86,2.53.66-.6,1.32-1.2,1.95-1.82.05-.05.14,0,.09.09-.59.63-1.18,1.29-1.79,1.92,1-.71,2-1.48,3-2.15a.05.05,0,1,1,.06.08c-.83.75-1.71,1.44-2.58,2.15.76-.37,1.51-.73,2.22-1.13.07,0,.15.09.07.13-.7.46-1.43,1-2.18,1.47,1.11-.44,2.22-.89,3.3-1.42.07,0,.14.07.07.11a35.13,35.13,0,0,1-3.48,1.9c-1.16.24-2,.33-2,.33s.2-.55.57-1.34c.78-1,1.55-2,2.38-3C228.36,116,228.53,116.11,228.44,116.22Z"/>
        <path class="flowers-31" d="M232.64,102.92c-2.4,1.85-4.08,6.3-4.08,6.3s4.73-.49,7.13-2.34,2.41-3.27,1.57-4.36S235,101.07,232.64,102.92Z"/>
        <path class="flowers-32" d="M231.68,105c-.64.79-1.23,1.67-1.86,2.53.66-.6,1.32-1.2,2-1.82,0,0,.14,0,.09.09-.58.63-1.17,1.29-1.79,1.92,1-.71,2-1.47,3-2.15.06,0,.12,0,.07.08-.83.75-1.72,1.44-2.59,2.15.76-.37,1.52-.73,2.22-1.13.08,0,.15.09.08.14-.71.45-1.43,1-2.19,1.46,1.12-.44,2.23-.89,3.3-1.42.07,0,.14.08.07.12a36,36,0,0,1-3.48,1.89c-1.16.24-2,.33-2,.33s.21-.55.58-1.33c.77-1,1.54-2,2.38-3C231.6,104.8,231.77,104.92,231.68,105Z"/>
        <path class="flowers-31" d="M235.29,91.25c-2.37,1.82-4,6.21-4,6.21s4.66-.49,7-2.31,2.37-3.23,1.54-4.3S237.66,89.42,235.29,91.25Z"/>
        <path class="flowers-32" d="M234.35,93.32c-.63.78-1.22,1.66-1.84,2.5.65-.59,1.3-1.18,1.92-1.79,0,0,.14,0,.09.09-.58.62-1.16,1.26-1.76,1.89,1-.71,2-1.46,3-2.12a.05.05,0,1,1,.07.08c-.82.74-1.7,1.42-2.55,2.12.74-.37,1.49-.73,2.18-1.12.08,0,.16.09.08.14-.69.44-1.41,1-2.15,1.44,1.1-.44,2.19-.88,3.25-1.4.07,0,.13.07.07.11a33.06,33.06,0,0,1-3.43,1.87c-1.14.24-2,.33-2,.33s.2-.54.56-1.32c.77-1,1.53-2,2.35-2.94C234.27,93.1,234.43,93.22,234.35,93.32Z"/>
        <path class="flowers-32" d="M223.21,128.22a42,42,0,0,0,3.57-10.2c2.55-10.34,7.84-26.63,7.5-34.06,0-.55-1.81,8-3.08,11.84q-.94,2.88-2.06,5.68a.69.69,0,0,0,0,.13,61.25,61.25,0,0,0-1-14.38,72.43,72.43,0,0,0-3.35-12.71c-.87-2.19,5,19.15,2.12,33.34-1.07,5.3-1.47,7.56-1.69,8.4q-.72,2.8-1.68,5.55c-.66,1.91-1.47,3.77-2.09,5.7A1,1,0,0,0,223.21,128.22Z"/>
        <path class="flowers-13" d="M236.78,77.1l-.06-.13a2,2,0,0,0-.74-1,2.46,2.46,0,0,0-.7-.26l-1.06-.28a3.81,3.81,0,0,0-1.26-.07,2,2,0,0,0-1.33.79,1.9,1.9,0,0,0-.37.77,2.12,2.12,0,0,0,.79,2,4.31,4.31,0,0,0,2.1.9A7.06,7.06,0,0,0,237,79.7c.5-.11,1.28-.61.9-1.19-.18-.27-.49-.34-.71-.55A2.3,2.3,0,0,1,236.78,77.1Z"/>
        <path class="flowers-33" d="M235.81,75.85c.78,0,1.54.35,2.32.34a7.94,7.94,0,0,1,1.54,0,2.94,2.94,0,0,1,1.58.91,3.64,3.64,0,0,1,.84,1.57,2,2,0,0,1,0,1,1.83,1.83,0,0,1-.58.86,6.55,6.55,0,0,1-2.86,1.24,4.46,4.46,0,0,1-2,.2,6.11,6.11,0,0,0-1.6-.38c-.23,0-.45.1-.68.13a2.47,2.47,0,0,1-2-1C231.9,80.23,233,75.69,235.81,75.85Z"/>
        <path class="flowers-34" d="M231.85,78.34a2.36,2.36,0,0,0,.85,1.26,1.45,1.45,0,0,0,.65.31,2.07,2.07,0,0,0,1.21-.27,5.1,5.1,0,0,1,2.67-.59,5.33,5.33,0,0,0,1.57.2,2.33,2.33,0,0,0,1.07-.6.76.76,0,0,0,.33-.46c0-.25-.22-.46-.45-.62a4.61,4.61,0,0,0-2.37-1c-.35,0-.69,0-1,0A20.62,20.62,0,0,0,234,76.3a3,3,0,0,0-.84.2,3.07,3.07,0,0,0-1,.56,1.21,1.21,0,0,0-.4,1Z"/>
        <path class="flowers-35" d="M232.09,78.7l-.06-.27a1.21,1.21,0,0,1,.4-1,2.81,2.81,0,0,1,1-.56,3.45,3.45,0,0,1,.84-.21,23.29,23.29,0,0,1,2.31.32c.34,0,.69,0,1,0a4.55,4.55,0,0,1,2.37,1,1,1,0,0,1,.2.16.9.9,0,0,0-.44-.53,4.61,4.61,0,0,0-2.37-1c-.35,0-.69,0-1,0A20.62,20.62,0,0,0,234,76.3a3,3,0,0,0-.84.2,3.07,3.07,0,0,0-1,.56,1.21,1.21,0,0,0-.4,1l.06.28a2.36,2.36,0,0,0,.43.85A2.26,2.26,0,0,1,232.09,78.7Z"/>
        <path class="flowers-36" d="M233,78.42c1.15-1.16,2.57-.75,3.38-.82a8,8,0,0,1,1.83,0,2.9,2.9,0,0,1,1.65.73,1.1,1.1,0,0,1,.37.91,1.07,1.07,0,0,1-.32.54,3.37,3.37,0,0,1-1.75.8,17.54,17.54,0,0,0-1.94.4,3.48,3.48,0,0,1-1.3.34,1.68,1.68,0,0,1-1-.46,1.81,1.81,0,0,0-.32-.3c-.12-.07-.25-.11-.37-.17A1.28,1.28,0,0,1,233,78.42Z"/>
        <path class="flowers-37" d="M233.23,78.89c1.16-1.15,2.57-.74,3.38-.81a8.09,8.09,0,0,1,1.84,0,2.87,2.87,0,0,1,1.64.73,1.11,1.11,0,0,1,.38.91,1.07,1.07,0,0,1-.32.54,3.53,3.53,0,0,1-1.75.8,17.54,17.54,0,0,0-1.94.4,4,4,0,0,1-1.3.34,1.59,1.59,0,0,1-1-.47,2.28,2.28,0,0,0-.33-.29,4,4,0,0,0-.36-.17A1.3,1.3,0,0,1,233.23,78.89Z"/>
        <path class="flowers-35" d="M233.22,79.66c.1-.4.31-.87.75-.94a1.56,1.56,0,0,1,.48,0,14.79,14.79,0,0,0,2.39.25,4.49,4.49,0,0,0,1.8-.24,1.56,1.56,0,0,0,.81-1.41,1.6,1.6,0,0,1,1.31,1,2.33,2.33,0,0,1-.6,2.16,5.54,5.54,0,0,1-2,1.28,24.82,24.82,0,0,1-3.5,1.07,2.46,2.46,0,0,1-.93.09C232.43,82.72,233,80.43,233.22,79.66Z"/>
        <path class="flowers-38" d="M238,79.28a9.42,9.42,0,0,1-2.42,1.29,2,2,0,0,0-.66.19.77.77,0,0,0-.32.62,2.1,2.1,0,0,0,.12.7,1.35,1.35,0,0,0,.53.82,1.11,1.11,0,0,0,.78.1,3,3,0,0,0,1.52-.86,14.53,14.53,0,0,1,1.28-1.2c.45-.32,1-.55,1.4-.89a1.85,1.85,0,0,0,.63-.88c0-.1.11-.42,0-.51s-.43,0-.56,0A5.59,5.59,0,0,0,238,79.28Z"/>
        <path class="flowers-33" d="M239.23,85.88c-.38.52-2.64,4.47-5.46,3.22a1.12,1.12,0,0,1-.73-.94.91.91,0,0,1,.12-.56A19.82,19.82,0,0,1,235.22,84c.28-.37.6-.71.91-1.06a10.92,10.92,0,0,1,1.38-1.34,11.16,11.16,0,0,1,2.07-1.12c.35-.15,1.58-.71,2-.47S240.16,84.6,239.23,85.88Z"/>
        <path class="flowers-39" d="M235.14,89.33a4.15,4.15,0,0,0,.8-2.41,14.39,14.39,0,0,1,0-1.74,4.19,4.19,0,0,1,1.05-2c.16-.18.65-.49.31-.72s-.73.17-.94.3l-.14.09-.13.14c-.31.35-.63.69-.91,1.06a19.82,19.82,0,0,0-2.06,3.57,1.26,1.26,0,0,0-.08.18c0,.13,0,.27,0,.4a1.14,1.14,0,0,0,.73.92A2.7,2.7,0,0,0,235.14,89.33Z"/>
        <path class="flowers-13" d="M241.93,81.73a10.36,10.36,0,0,0-1.12.1,5.44,5.44,0,0,0-1.15.7,6.35,6.35,0,0,1-1.38.44,8.16,8.16,0,0,0-4.14,3.25c-.44.58-1,1.52-1,1.47a12.13,12.13,0,0,1,3.79-7.21A7,7,0,0,1,239.46,79a5.86,5.86,0,0,1,1.9-.35C243.58,78.66,243.9,81.38,241.93,81.73Z"/>
        <path class="flowers-13" d="M230.31,83.69c.1.63.27,5.18,3.35,5.38a1.14,1.14,0,0,0,1.08-.49,1,1,0,0,0,.15-.55,19.59,19.59,0,0,0-.17-4.12c-.08-.46-.2-.91-.32-1.37a9.7,9.7,0,0,0-.6-1.82,10.91,10.91,0,0,0-1.31-2c-.24-.3-1.07-1.37-1.53-1.33S230.08,82.12,230.31,83.69Z"/>
        <path class="flowers-33" d="M234.55,83.14a7.4,7.4,0,0,0-1-1.88c-.6-.8-1.36-1.49-1.89-2.34a2.55,2.55,0,0,0-.48-.65.66.66,0,0,0-.53-.18,14.33,14.33,0,0,0-.29,2l0,0c.32.3.67.57,1,.87a4.25,4.25,0,0,1,1,1.64,14.47,14.47,0,0,0,.5,1.74A13.34,13.34,0,0,0,234.08,86a4.34,4.34,0,0,1,.75,2.08c0-.11,0-.22.07-.33a18.54,18.54,0,0,0-.18-3.87A6.6,6.6,0,0,0,234.55,83.14Z"/>
        <path class="flowers-40" d="M229.84,78.75c.3.23.68.36.95.61a6.17,6.17,0,0,1,.7,1.16,5.84,5.84,0,0,0,1,1,8.15,8.15,0,0,1,2.15,4.8c.13.72.23,1.84.24,1.78a12.54,12.54,0,0,0,0-8.14,7.49,7.49,0,0,0-1.59-2.51,6.11,6.11,0,0,0-1.53-1.19C229.94,75.33,228.26,77.54,229.84,78.75Z"/>
        <path class="flowers-40" d="M239.36,79.35c-.09.05-.2.13-.17.24a11.56,11.56,0,0,0,1.18.17,1.18,1.18,0,0,1,.94.61,3.94,3.94,0,0,0,.14.49.71.71,0,0,0,.89.24,1,1,0,0,0,.53-.77,1,1,0,0,0-.14-.82A2.11,2.11,0,0,0,241.2,79,3.4,3.4,0,0,0,239.36,79.35Z"/>
        <path class="flowers-32" d="M234.89,89.57a2.8,2.8,0,0,0,2.61-1.47c-2.76.85-5-.57-6.42-1.08C231,87.14,231.65,89.46,234.89,89.57Z"/>
        <path class="flowers-13" d="M222.33,67.06l-.11-.09a2.18,2.18,0,0,0-1.13-.52,2.65,2.65,0,0,0-.74.11l-1.06.27a3.78,3.78,0,0,0-1.15.54,2.07,2.07,0,0,0-.78,1.33,1.92,1.92,0,0,0,0,.86A2.13,2.13,0,0,0,219,70.9a4.35,4.35,0,0,0,2.28-.23,7.13,7.13,0,0,0,2.47-1.44c.38-.34.82-1.15.21-1.48-.29-.15-.59-.06-.88-.14A2.22,2.22,0,0,1,222.33,67.06Z"/>
        <path class="flowers-33" d="M220.88,66.43c.71-.34,1.52-.43,2.2-.81a7.38,7.38,0,0,1,1.37-.7,2.94,2.94,0,0,1,1.83,0,3.64,3.64,0,0,1,1.49,1,2.06,2.06,0,0,1,.53.88,1.74,1.74,0,0,1-.09,1,6.55,6.55,0,0,1-1.91,2.47,4.32,4.32,0,0,1-1.64,1.13,6,6,0,0,0-1.58.44c-.19.12-.35.3-.54.44a2.44,2.44,0,0,1-2.25.1C219.56,72.15,218.32,67.66,220.88,66.43Z"/>
        <path class="flowers-34" d="M218.61,70.52a2.29,2.29,0,0,0,1.35.69,1.46,1.46,0,0,0,.72,0,2.16,2.16,0,0,0,.94-.81,5,5,0,0,1,2-1.81,5.55,5.55,0,0,0,1.47-.57,2.45,2.45,0,0,0,.65-1,.74.74,0,0,0,.06-.56c-.1-.23-.41-.3-.68-.33a4.64,4.64,0,0,0-2.56.27c-.31.16-.59.38-.9.54a19.45,19.45,0,0,0-2.17.83,3.23,3.23,0,0,0-.64.58,3,3,0,0,0-.61,1,1.17,1.17,0,0,0,.14,1.06Z"/>
        <path class="flowers-35" d="M219,70.72l-.18-.21a1.16,1.16,0,0,1-.13-1.07,2.7,2.7,0,0,1,.61-1,2.94,2.94,0,0,1,.63-.59c.65-.42,1.48-.47,2.17-.83.32-.16.59-.38.9-.54a4.55,4.55,0,0,1,2.56-.26l.25,0a1,1,0,0,0-.63-.25,4.64,4.64,0,0,0-2.56.27c-.31.16-.59.38-.9.54a19.45,19.45,0,0,0-2.17.83,3.23,3.23,0,0,0-.64.58,3,3,0,0,0-.61,1,1.17,1.17,0,0,0,.14,1.06l.18.22a2.41,2.41,0,0,0,.79.54A2.25,2.25,0,0,1,219,70.72Z"/>
        <path class="flowers-36" d="M219.65,70c.46-1.57,1.89-1.89,2.57-2.33a8.41,8.41,0,0,1,1.6-.9,2.86,2.86,0,0,1,1.8-.15,1.07,1.07,0,0,1,.76.62,1,1,0,0,1,0,.62,3.48,3.48,0,0,1-1.15,1.55,15.34,15.34,0,0,0-1.5,1.28,3.57,3.57,0,0,1-1,.92,1.55,1.55,0,0,1-1.12.09,2.23,2.23,0,0,0-.43-.1c-.14,0-.27,0-.4,0A1.3,1.3,0,0,1,219.65,70Z"/>
        <path class="flowers-37" d="M220.09,70.34c.45-1.57,1.89-1.89,2.57-2.34a9.27,9.27,0,0,1,1.6-.9,2.86,2.86,0,0,1,1.8-.14,1.08,1.08,0,0,1,.76.61,1,1,0,0,1,0,.63,3.45,3.45,0,0,1-1.15,1.54,17,17,0,0,0-1.5,1.29,3.89,3.89,0,0,1-1,.92A1.63,1.63,0,0,1,222,72a1.58,1.58,0,0,0-.43-.1c-.13,0-.26,0-.4,0A1.28,1.28,0,0,1,220.09,70.34Z"/>
        <path class="flowers-35" d="M220.44,71a1.11,1.11,0,0,1,.21-1.18,1.35,1.35,0,0,1,.44-.2,14.93,14.93,0,0,0,2.22-.94,4.48,4.48,0,0,0,1.46-1.08,1.57,1.57,0,0,0,0-1.61,1.61,1.61,0,0,1,1.64.24,2.36,2.36,0,0,1,.51,2.19,5.59,5.59,0,0,1-1.15,2.09,23.36,23.36,0,0,1-2.55,2.62,2.14,2.14,0,0,1-.78.52C221.22,74.08,220.64,71.78,220.44,71Z"/>
        <path class="flowers-38" d="M224.44,68.39a9.24,9.24,0,0,1-1.5,2.29,1.9,1.9,0,0,0-.49.49.8.8,0,0,0,0,.69,2.22,2.22,0,0,0,.45.56,1.35,1.35,0,0,0,.85.47,1.15,1.15,0,0,0,.74-.29,3.1,3.1,0,0,0,.92-1.49,13.41,13.41,0,0,1,.54-1.66c.24-.5.59-1,.8-1.46a1.83,1.83,0,0,0,.13-1.08c0-.1-.11-.41-.23-.45s-.39.18-.51.25A5.52,5.52,0,0,0,224.44,68.39Z"/>
        <path class="flowers-33" d="M228.71,73.58c-.08.63-.16,5.19-3.24,5.45a1.13,1.13,0,0,1-1.1-.48,1,1,0,0,1-.16-.54,20.26,20.26,0,0,1,.09-4.12c.07-.46.18-.92.29-1.38a9.94,9.94,0,0,1,.57-1.83,10.92,10.92,0,0,1,1.27-2c.23-.3,1-1.38,1.5-1.36S228.91,72,228.71,73.58Z"/>
        <path class="flowers-39" d="M226.78,78.57a4.22,4.22,0,0,0-.45-2.51,11.73,11.73,0,0,1-.8-1.53,4.11,4.11,0,0,1-.06-2.28c.05-.23.33-.74-.07-.78s-.56.51-.69.72l-.07.14,0,.18c-.11.46-.22.92-.29,1.38a20.26,20.26,0,0,0-.09,4.12c0,.08,0,.14,0,.19s.1.25.16.38a1.17,1.17,0,0,0,1.08.45A2.7,2.7,0,0,0,226.78,78.57Z"/>
        <path class="flowers-13" d="M229.08,68.63c-.3.24-.67.37-.94.63a5.91,5.91,0,0,0-.67,1.17,5.52,5.52,0,0,1-1,1,8.17,8.17,0,0,0-2.06,4.85c-.11.72-.19,1.84-.21,1.78a12.1,12.1,0,0,1-.14-8.14,7.11,7.11,0,0,1,1.53-2.54,6.13,6.13,0,0,1,1.51-1.22C229,65.15,230.63,67.39,229.08,68.63Z"/>
        <path class="flowers-13" d="M219.84,76c.38.51,2.72,4.42,5.52,3.11a1.13,1.13,0,0,0,.71-1,1,1,0,0,0-.13-.55A20.08,20.08,0,0,0,223.81,74c-.3-.36-.62-.7-.94-1a9.66,9.66,0,0,0-1.41-1.3,10.33,10.33,0,0,0-2.09-1.08c-.35-.15-1.59-.68-2-.43S218.87,74.68,219.84,76Z"/>
        <path class="flowers-33" d="M223.29,73.42a7.6,7.6,0,0,0-1.79-1.15c-.91-.42-1.91-.66-2.78-1.15a2.38,2.38,0,0,0-.74-.34.65.65,0,0,0-.55.1,17.63,17.63,0,0,0,.69,1.85h0c.42.12.85.18,1.27.3a4.29,4.29,0,0,1,1.66.95,15.59,15.59,0,0,0,1.28,1.29,13.83,13.83,0,0,0,1.9.91,4.35,4.35,0,0,1,1.66,1.46c0-.11-.07-.22-.1-.32a18.9,18.9,0,0,0-2-3.31C223.64,73.81,223.47,73.62,223.29,73.42Z"/>
        <path class="flowers-40" d="M217.05,71.85a10.36,10.36,0,0,1,1.12.08,5.1,5.1,0,0,1,1.17.68,6.38,6.38,0,0,0,1.39.41,8.12,8.12,0,0,1,4.2,3.17c.45.57,1.08,1.5,1.07,1.44a12.57,12.57,0,0,0-3.93-7.12,7.46,7.46,0,0,0-2.6-1.44,6.54,6.54,0,0,0-1.92-.31C215.49,68.8,215.08,71.54,217.05,71.85Z"/>
        <path class="flowers-40" d="M225.68,67.79c-.06.09-.11.21,0,.29a9.49,9.49,0,0,0,1.12-.42,1.16,1.16,0,0,1,1.12.09c.13.11.21.27.35.36a.71.71,0,0,0,.9-.22,1,1,0,0,0,.1-.94,1.09,1.09,0,0,0-.52-.65,2.22,2.22,0,0,0-1.6.29A3.35,3.35,0,0,0,225.68,67.79Z"/>
        <path class="flowers-32" d="M226.68,78.9a2.81,2.81,0,0,0,1.58-2.54c-2,2.07-4.68,1.92-6.15,2.14C222.06,78.66,223.79,80.36,226.68,78.9Z"/>
        <path class="flowers-13" d="M237.24,102.37c1.7-2.68,2.26-6.06.94-6.9s-3.78.9-4.76,2c-3.57,4-1.57,4.51-.77,5.78S235.65,104.86,237.24,102.37Z"/>
        <path class="flowers-14" d="M233.94,97c1.16-1,3.12-2.19,4.24-1.48s.91,2.94,0,5.19a2.29,2.29,0,0,1-3.11-.6C234.46,99.15,233.28,98.63,233.94,97Z"/>
        <path class="flowers-13" d="M244.7,97.58c-3.07.84-6.46.37-6.87-1.14s2-3.34,3.31-4c4.88-2.24,6.28-.44,5.76,1C246,95.87,247.54,96.8,244.7,97.58Z"/>
        <path class="flowers-14" d="M242.7,94.7c-.6,1.64-.09,2.6-.59,3.28-2.15.09-4-.46-4.28-1.54-.38-1.37,1.58-3,2.94-3.77C242.55,92.67,243.05,93.77,242.7,94.7Z"/>
        <path class="flowers-15" d="M232,96.83c2.94,1.19,6.37,1.12,7-.32s-1.57-3.55-2.82-4.32c-4.58-2.79-4.72-.73-5.83.29S229.25,95.72,232,96.83Z"/>
        <path class="flowers-16" d="M234,94.1c.72-.65,1-1.75,2.4-1.69,1.27.9,3,2.77,2.49,4.1-.44,1.08-2.48,1.39-4.71,1A2.33,2.33,0,0,1,234,94.1Z"/>
        <path class="flowers-17" d="M238.54,102.8c-1.38-2.86-1.53-6.29-.12-7s3.64,1.33,4.48,2.54c3.09,4.39,1,4.66.09,5.83S239.82,105.45,238.54,102.8Z"/>
        <path class="flowers-13" d="M237.82,100.88c-.65-2.31-.5-4.51.6-5s3,.83,4.07,2c.37,1.63-.82,2-1.48,2.83A2.29,2.29,0,0,1,237.82,100.88Z"/>
        <path class="flowers-17" d="M235.65,90.29c-.19,3.17,1,6.39,2.54,6.48s2.86-2.63,3.18-4.06c1.18-5.23-.87-6.23-2.14-5.43C237.05,88.65,235.82,87.34,235.65,90.29Z"/>
        <path class="flowers-13" d="M238.19,96.77c-1.07-.06-1.95-1.6-2.34-3.58.56-.66,1.61-.34,3.11-1.28.79-.5,1.88-.3,2.31,1.18C240.83,94.58,239.62,96.86,238.19,96.77Z"/>
        <path class="flowers-18" d="M236.5,96.4a1.69,1.69,0,0,0,.23.71,2.86,2.86,0,0,0,.88.85,1.73,1.73,0,0,0,.7.3,2.17,2.17,0,0,0,1.32-.32,1.88,1.88,0,0,0,.63-1.31,1.92,1.92,0,0,0-1.81-2A1.81,1.81,0,0,0,236.5,96.4Z"/>
        <path class="flowers-19" d="M237.76,94.69a1.52,1.52,0,0,0-.29,1,1.54,1.54,0,0,0,.22.71,3,3,0,0,0,.89.85,1.62,1.62,0,0,0,.7.3,1.94,1.94,0,0,0,.73-.07,1.46,1.46,0,0,1-.38.47,2.17,2.17,0,0,1-1.32.32,1.73,1.73,0,0,1-.7-.3,2.86,2.86,0,0,1-.88-.85,1.69,1.69,0,0,1-.23-.71A1.77,1.77,0,0,1,237.76,94.69Z"/>
        <path class="flowers-20" d="M241,88.54c.11.32.2.71,0,.95a.71.71,0,0,1-.66.15c-.22-.06-.43-.17-.65-.25a2,2,0,0,0-1.39,0c-.38.14-.71.38-1.09.52a.42.42,0,0,1-.38,0,.32.32,0,0,1-.12-.18.84.84,0,0,1,.36-.92,2.12,2.12,0,0,1,1-.33,3.81,3.81,0,0,0,1-.25c.21-.11.39-.25.6-.37C240.24,87.5,240.74,87.91,241,88.54Z"/>
        <path class="flowers-21" d="M246.26,92.93a2.19,2.19,0,0,1-.09,1.13,2.92,2.92,0,0,0-.19,1.13,1.71,1.71,0,0,1,0,.84,1,1,0,0,1-.37.37.66.66,0,0,1-.26.14.45.45,0,0,1-.44-.25,1,1,0,0,1-.07-.53,8,8,0,0,1,.32-1.26,2,2,0,0,0,0-1.29C244.63,92.15,246,91.94,246.26,92.93Z"/>
        <path class="flowers-22" d="M239.49,95.51a1.6,1.6,0,0,1,.32.92.61.61,0,0,1-.15.46.44.44,0,0,1-.43.09,1.2,1.2,0,0,1-.4-.22,2,2,0,0,1-.77-1.07.74.74,0,0,1,0-.26.59.59,0,0,1,.63-.41A1.3,1.3,0,0,1,239.49,95.51Z"/>
        <path class="flowers-31" d="M207.2,114.54c-1.3,2.8-.73,7.6-.73,7.6s4-2.66,5.34-5.46.64-4.08-.63-4.67S208.5,111.74,207.2,114.54Z"/>
        <path class="flowers-32" d="M207.32,116.89c-.2,1-.32,2.09-.49,3.16.31-.85.63-1.7.91-2.56,0-.07.14,0,.12,0-.23.85-.46,1.72-.71,2.57.57-1.11,1.1-2.26,1.71-3.35,0-.07.12,0,.1,0-.4,1.06-.88,2.11-1.32,3.15.5-.69,1-1.37,1.46-2.06.05-.08.18,0,.14.09-.42.74-.84,1.55-1.29,2.34.8-.92,1.59-1.84,2.32-2.83,0-.06.15,0,.11.07a35.65,35.65,0,0,1-2.25,3.35c-.93.76-1.66,1.24-1.66,1.24s-.07-.59-.11-1.48c.23-1.27.45-2.55.75-3.81C207.14,116.72,207.35,116.75,207.32,116.89Z"/>
        <path class="flowers-31" d="M204.72,104.26c-2,2.31-2.87,7.08-2.87,7.08s4.63-1.4,6.68-3.71,1.78-3.72.73-4.65S206.77,102,204.72,104.26Z"/>
        <path class="flowers-32" d="M204.17,106.55c-.49.91-.91,1.91-1.37,2.89.54-.73,1.09-1.45,1.6-2.19,0-.06.14,0,.1.07-.46.74-.93,1.51-1.42,2.26.87-.91,1.7-1.85,2.6-2.73,0,0,.13,0,.09.08-.69.9-1.45,1.76-2.17,2.63.68-.51,1.37-1,2-1.55.07-.06.17.06.11.12-.62.59-1.25,1.25-1.91,1.88,1-.65,2.06-1.31,3-2.05.06,0,.15.05.09.1a35.58,35.58,0,0,1-3.11,2.56c-1.12.46-2,.72-2,.72s.1-.59.32-1.45c.58-1.16,1.16-2.32,1.81-3.43C204.05,106.34,204.23,106.43,204.17,106.55Z"/>
        <path class="flowers-31" d="M200.62,84.36c-1.53,2-1.88,6-1.88,6s3.71-1.46,5.23-3.49,1.21-3.18.29-3.88S202.14,82.32,200.62,84.36Z"/>
        <path class="flowers-32" d="M200.32,86.27c-.34.79-.62,1.64-.93,2.47.39-.63.79-1.27,1.16-1.91,0,0,.12,0,.1,0-.34.65-.67,1.31-1,2,.65-.81,1.27-1.64,2-2.42,0,0,.11,0,.08,0-.51.79-1.07,1.55-1.61,2.32.53-.47,1.06-.93,1.54-1.41,0-.06.14,0,.09.09-.47.52-.94,1.11-1.44,1.67.8-.61,1.6-1.22,2.35-1.89,0,0,.13,0,.08.08a27.43,27.43,0,0,1-2.38,2.31c-.89.46-1.55.72-1.55.72s0-.48.16-1.2c.4-1,.8-2,1.25-3C200.2,86.11,200.36,86.17,200.32,86.27Z"/>
        <path class="flowers-31" d="M203,95.14c-2,1.53-3.49,5.24-3.49,5.24s4-.36,6-1.89,2.06-2.71,1.37-3.64S205,93.62,203,95.14Z"/>
        <path class="flowers-32" d="M202.15,96.9c-.54.65-1.05,1.39-1.59,2.1.56-.5,1.13-1,1.66-1.5,0,0,.12,0,.08.07-.51.53-1,1.07-1.53,1.59.85-.58,1.68-1.21,2.56-1.77,0,0,.09,0,0,.07-.71.62-1.46,1.19-2.19,1.78.64-.31,1.28-.6,1.87-.93.06,0,.13.08.06.12-.59.37-1.21.8-1.84,1.2.93-.36,1.87-.72,2.78-1.16.06,0,.11.07.06.1a28.25,28.25,0,0,1-2.94,1.55c-1,.19-1.69.26-1.69.26s.17-.46.49-1.12c.67-.84,1.32-1.68,2-2.47C202.09,96.7,202.23,96.81,202.15,96.9Z"/>
        <path class="flowers-31" d="M200.69,115.59c2.69,1.5,5.05,5.73,5.05,5.73s-4.84.21-7.53-1.29-2.91-2.93-2.23-4.16S198,114.08,200.69,115.59Z"/>
        <path class="flowers-32" d="M202,117.56c.76.71,1.49,1.51,2.24,2.28-.75-.51-1.5-1-2.23-1.54-.06,0-.13.06-.08.1.69.55,1.38,1.12,2.09,1.67-1.11-.57-2.22-1.19-3.35-1.72a.06.06,0,0,0-.06.1c.95.62,1.95,1.19,2.92,1.77-.81-.26-1.63-.51-2.4-.81-.08,0-.14.11,0,.15.77.35,1.58.77,2.41,1.15-1.18-.28-2.37-.57-3.53-.94-.08,0-.12.1-.05.13a32.58,32.58,0,0,0,3.78,1.38c1.21.07,2.08,0,2.08,0s-.29-.52-.78-1.26c-.94-.9-1.86-1.81-2.85-2.65C202,117.32,201.86,117.47,202,117.56Z"/>
        <path class="flowers-31" d="M195.75,104.82c2.7,1.5,5.05,5.72,5.05,5.72s-4.83.22-7.52-1.29-2.92-2.92-2.23-4.15S193.06,103.31,195.75,104.82Z"/>
        <path class="flowers-32" d="M197,106.79c.76.7,1.49,1.51,2.25,2.27-.75-.5-1.51-1-2.23-1.53-.06,0-.14,0-.08.1.69.55,1.38,1.12,2.09,1.66-1.12-.57-2.22-1.19-3.36-1.71a.05.05,0,1,0,0,.09c.94.63,1.94,1.19,2.92,1.78-.82-.27-1.63-.51-2.4-.81-.08,0-.14.11-.06.15.78.35,1.59.76,2.42,1.14-1.19-.27-2.37-.56-3.54-.93-.07,0-.12.1-.05.13a36.92,36.92,0,0,0,3.79,1.38c1.2.07,2.07,0,2.07,0s-.29-.51-.78-1.25c-.93-.9-1.86-1.81-2.84-2.65C197.08,106.55,196.93,106.7,197,106.79Z"/>
        <path class="flowers-31" d="M191.34,93.47c2.66,1.48,5,5.64,5,5.64s-4.76.21-7.42-1.27S186,95,186.7,93.74,188.69,92,191.34,93.47Z"/>
        <path class="flowers-32" d="M192.6,95.41c.75.7,1.47,1.48,2.22,2.24-.74-.5-1.49-1-2.2-1.51-.06,0-.14,0-.08.1.68.54,1.36,1.1,2.06,1.64-1.1-.56-2.19-1.17-3.31-1.69a.05.05,0,1,0,0,.09c.93.62,1.91,1.18,2.88,1.75-.81-.26-1.61-.5-2.37-.8-.08,0-.14.12-.05.15.76.35,1.56.76,2.38,1.13-1.17-.27-2.34-.55-3.49-.92-.07,0-.12.09-.05.12a32.43,32.43,0,0,0,3.73,1.37c1.19.07,2,0,2,0s-.29-.51-.77-1.24c-.92-.89-1.83-1.78-2.8-2.61C192.65,95.18,192.5,95.32,192.6,95.41Z"/>
        <path class="flowers-32" d="M209,128.86a42.69,42.69,0,0,1-5.13-9.73c-4.1-10-11.87-25.62-12.63-33.15-.06-.55,3,7.77,4.87,11.46.92,1.83,1.89,3.64,2.92,5.4a1.27,1.27,0,0,0,.07.12A61.83,61.83,0,0,1,198,88.35a74.79,74.79,0,0,1,1.48-13.29c.55-2.33-2.17,20,2.85,33.86,1.87,5.17,2.61,7.39,3,8.2q1.15,2.72,2.52,5.33c1,1.83,2.05,3.58,3,5.42A1,1,0,0,1,209,128.86Z"/>
        <path class="flowers-13" d="M187.73,79.46a.57.57,0,0,1,0-.14,2.07,2.07,0,0,1,.59-1.12,2.73,2.73,0,0,1,.67-.37l1-.43a3.65,3.65,0,0,1,1.26-.27,2.08,2.08,0,0,1,1.45.6,1.78,1.78,0,0,1,.49.72,2.14,2.14,0,0,1-.5,2.09,4.36,4.36,0,0,1-2,1.22,7.25,7.25,0,0,1-2.88.35c-.52,0-1.38-.42-1.09-1.07.14-.3.45-.41.63-.65A2.42,2.42,0,0,0,187.73,79.46Z"/>
        <path class="flowers-33" d="M188.52,78.05c-.78.16-1.5.58-2.28.7a8.11,8.11,0,0,0-1.55.27,3.07,3.07,0,0,0-1.46,1.15,3.7,3.7,0,0,0-.6,1.71,2,2,0,0,0,.1,1,1.9,1.9,0,0,0,.71.78,6.71,6.71,0,0,0,3.07.82,4.59,4.59,0,0,0,2-.09,5.71,5.71,0,0,1,1.55-.62c.23,0,.47,0,.71,0a2.55,2.55,0,0,0,1.89-1.31C193.1,81.87,191.35,77.47,188.52,78.05Z"/>
        <path class="flowers-34" d="M192.87,80a2.35,2.35,0,0,1-.66,1.39,1.57,1.57,0,0,1-.61.41,2.18,2.18,0,0,1-1.26-.09,5.27,5.27,0,0,0-2.78-.2,5.17,5.17,0,0,1-1.54.44,2.36,2.36,0,0,1-1.17-.44.76.76,0,0,1-.4-.41c-.06-.26.16-.5.36-.69A4.61,4.61,0,0,1,187,79c.35-.07.71-.06,1.06-.12a21.57,21.57,0,0,1,2.27-.66,3.25,3.25,0,0,1,.88.08,2.93,2.93,0,0,1,1.09.41,1.22,1.22,0,0,1,.55,1Z"/>
        <path class="flowers-35" d="M192.69,80.37v-.29a1.17,1.17,0,0,0-.55-.94,2.88,2.88,0,0,0-1.09-.42,3.17,3.17,0,0,0-.87-.08,20.26,20.26,0,0,0-2.27.66c-.36.06-.71.06-1.06.12a4.64,4.64,0,0,0-2.24,1.36l-.18.19a1,1,0,0,1,.37-.59A4.61,4.61,0,0,1,187,79c.35-.07.71-.06,1.06-.12a21.57,21.57,0,0,1,2.27-.66,3.25,3.25,0,0,1,.88.08,2.93,2.93,0,0,1,1.09.41,1.22,1.22,0,0,1,.55,1l0,.29a2.37,2.37,0,0,1-.3.92A2.44,2.44,0,0,0,192.69,80.37Z"/>
        <path class="flowers-36" d="M191.73,80.21c-1.34-1-2.7-.36-3.52-.31a8.87,8.87,0,0,0-1.85.26,2.94,2.94,0,0,0-1.55,1,1.09,1.09,0,0,0-.23,1,1,1,0,0,0,.4.49,3.53,3.53,0,0,0,1.88.54,16.81,16.81,0,0,1,2,.12,3.66,3.66,0,0,0,1.35.14,1.59,1.59,0,0,0,1-.62,1.58,1.58,0,0,1,.29-.34,4,4,0,0,1,.34-.23A1.32,1.32,0,0,0,191.73,80.21Z"/>
        <path class="flowers-37" d="M191.56,80.73c-1.33-1-2.69-.37-3.52-.31a8.17,8.17,0,0,0-1.84.26,2.84,2.84,0,0,0-1.55,1,1.08,1.08,0,0,0-.24,1,1,1,0,0,0,.4.5,3.53,3.53,0,0,0,1.88.54,16.81,16.81,0,0,1,2,.12,3.69,3.69,0,0,0,1.36.14,1.64,1.64,0,0,0,1-.62,2.39,2.39,0,0,1,.28-.35c.1-.08.23-.14.34-.22A1.32,1.32,0,0,0,191.56,80.73Z"/>
        <path class="flowers-35" d="M191.7,81.5c-.17-.39-.45-.83-.9-.83a1.39,1.39,0,0,0-.48.11,16.16,16.16,0,0,1-2.37.61,4.61,4.61,0,0,1-1.85,0,1.6,1.6,0,0,1-1-1.29,1.62,1.62,0,0,0-1.17,1.21,2.36,2.36,0,0,0,.93,2.08,5.59,5.59,0,0,0,2.22,1,23.67,23.67,0,0,0,3.68.55,2.13,2.13,0,0,0,.94,0C193,84.46,192,82.24,191.7,81.5Z"/>
        <path class="flowers-38" d="M186.84,81.83a9.39,9.39,0,0,0,2.63.93,2,2,0,0,1,.69.1.8.8,0,0,1,.41.57,2,2,0,0,1,0,.73,1.36,1.36,0,0,1-.4.9,1.12,1.12,0,0,1-.78.22,3.07,3.07,0,0,1-1.66-.64,13.52,13.52,0,0,0-1.46-1c-.5-.26-1.06-.41-1.54-.69a1.89,1.89,0,0,1-.77-.79c0-.1-.17-.41-.09-.51s.42-.1.56-.11A5.53,5.53,0,0,1,186.84,81.83Z"/>
        <path class="flowers-33" d="M186.58,88.66c.45.46,3.32,4.1,6,2.42a1.18,1.18,0,0,0,.6-1.06,1,1,0,0,0-.21-.54,20,20,0,0,0-2.6-3.28c-.35-.33-.72-.63-1.09-.94a10.33,10.33,0,0,0-1.58-1.13,11,11,0,0,0-2.25-.82c-.37-.11-1.7-.48-2-.18S185.44,87.5,186.58,88.66Z"/>
        <path class="flowers-39" d="M191.21,91.52A4.23,4.23,0,0,1,190,89.21a16.63,16.63,0,0,0-.3-1.74,4.23,4.23,0,0,0-1.36-1.88c-.18-.16-.73-.4-.42-.68s.77.07,1,.17l.14.06.15.12c.37.31.74.61,1.09.94a20,20,0,0,1,2.6,3.28.82.82,0,0,1,.1.17c0,.13.08.26.11.4a1.16,1.16,0,0,1-.6,1A2.76,2.76,0,0,1,191.21,91.52Z"/>
        <path class="flowers-13" d="M183.24,84.88c.38,0,.76-.11,1.14-.07a5.57,5.57,0,0,1,1.26.54,5.93,5.93,0,0,0,1.46.23,8.32,8.32,0,0,1,4.64,2.66c.54.52,1.29,1.37,1.27,1.32a12.29,12.29,0,0,0-4.88-6.68,7.09,7.09,0,0,0-2.81-1.11,5.92,5.92,0,0,0-2-.07C181.12,82,181.21,84.83,183.24,84.88Z"/>
        <path class="flowers-13" d="M195.22,85.12c0,.65.51,5.25-2.56,5.92a1.17,1.17,0,0,1-1.17-.34,1,1,0,0,1-.23-.53,20.88,20.88,0,0,1-.45-4.17c0-.47.07-1,.12-1.42a9.76,9.76,0,0,1,.34-1.93,10.94,10.94,0,0,1,1-2.16c.19-.33.87-1.53,1.33-1.56S195.22,83.5,195.22,85.12Z"/>
        <path class="flowers-33" d="M190.87,85.2a7.9,7.9,0,0,1,.73-2c.48-.9,1.15-1.71,1.55-2.64a2.57,2.57,0,0,1,.39-.73.63.63,0,0,1,.51-.25,15.83,15.83,0,0,1,.58,1.92l0,0c-.27.35-.59.67-.85,1a4.21,4.21,0,0,0-.76,1.8,16.1,16.1,0,0,1-.25,1.83,12.67,12.67,0,0,1-1,1.9,4.57,4.57,0,0,0-.44,2.2,3,3,0,0,1-.11-.32,19.26,19.26,0,0,1-.41-3.92C190.82,85.73,190.84,85.46,190.87,85.2Z"/>
        <path class="flowers-40" d="M195,80.08c-.27.28-.63.46-.87.76a5.77,5.77,0,0,0-.52,1.26,6,6,0,0,1-.88,1.19,8.34,8.34,0,0,0-1.45,5.16c0,.74,0,1.88,0,1.82a12.85,12.85,0,0,1-1.2-8.19,7.41,7.41,0,0,1,1.23-2.76,6.11,6.11,0,0,1,1.35-1.43C194.34,76.66,196.36,78.62,195,80.08Z"/>
        <path class="flowers-40" d="M185.47,82.11c.1,0,.21.1.2.21a10.43,10.43,0,0,1-1.16.35,1.17,1.17,0,0,0-.85.76,4.46,4.46,0,0,1-.07.51.71.71,0,0,1-.86.37,1.19,1.19,0,0,1-.63-1.54c.26-.47.94-.63,1.47-.75A3.41,3.41,0,0,1,185.47,82.11Z"/>
        <path class="flowers-32" d="M191.49,91.72a2.85,2.85,0,0,1-2.84-1.08c2.9.43,5-1.33,6.3-2.06C195.08,88.68,194.73,91.12,191.49,91.72Z"/>
        <path class="flowers-13" d="M200.76,67.2l.1-.11a2,2,0,0,1,1.06-.69,2.42,2.42,0,0,1,.76,0l1.11.11a3.57,3.57,0,0,1,1.23.37,2.1,2.1,0,0,1,1,1.22,2,2,0,0,1,.08.87,2.15,2.15,0,0,1-1.45,1.59,4.34,4.34,0,0,1-2.32.12,7.48,7.48,0,0,1-2.7-1.08c-.43-.29-1-1-.43-1.46.26-.2.58-.15.86-.27A2.38,2.38,0,0,0,200.76,67.2Z"/>
        <path class="flowers-33" d="M202.13,66.34c-.76-.23-1.59-.21-2.33-.48a7.94,7.94,0,0,0-1.49-.51,3,3,0,0,0-1.83.31,3.75,3.75,0,0,0-1.36,1.2,2.07,2.07,0,0,0-.4,1,1.77,1.77,0,0,0,.24,1,6.71,6.71,0,0,0,2.29,2.2,4.69,4.69,0,0,0,1.82.89,6.09,6.09,0,0,1,1.66.2c.21.1.39.26.6.37a2.53,2.53,0,0,0,2.29-.24C204.31,71.9,204.89,67.19,202.13,66.34Z"/>
        <path class="flowers-34" d="M205,70.12a2.46,2.46,0,0,1-1.26.9,1.64,1.64,0,0,1-.73.07A2.14,2.14,0,0,1,202,70.4a5.24,5.24,0,0,0-2.34-1.51,5.3,5.3,0,0,1-1.56-.35,2.45,2.45,0,0,1-.82-1,.7.7,0,0,1-.14-.55c.07-.25.37-.37.64-.44a4.65,4.65,0,0,1,2.61-.11c.34.11.65.29,1,.41a22.07,22.07,0,0,1,2.31.51,3.22,3.22,0,0,1,.73.49,2.9,2.9,0,0,1,.75.89,1.2,1.2,0,0,1,0,1.09Z"/>
        <path class="flowers-35" d="M204.67,70.38l.15-.24a1.22,1.22,0,0,0,0-1.1,2.86,2.86,0,0,0-.75-.88,3.37,3.37,0,0,0-.73-.5,21.52,21.52,0,0,0-2.31-.51c-.34-.11-.65-.29-1-.4a4.59,4.59,0,0,0-2.62.11l-.25.08a1,1,0,0,1,.61-.35,4.65,4.65,0,0,1,2.61-.11c.34.11.65.29,1,.41a22.07,22.07,0,0,1,2.31.51,3.22,3.22,0,0,1,.73.49,2.9,2.9,0,0,1,.75.89,1.2,1.2,0,0,1,0,1.09l-.15.25a2.4,2.4,0,0,1-.72.66A2,2,0,0,0,204.67,70.38Z"/>
        <path class="flowers-36" d="M203.9,69.79c-.69-1.52-2.18-1.62-2.93-2a8.94,8.94,0,0,0-1.74-.67,3,3,0,0,0-1.84.13.93.93,0,0,0-.56,1.36A3.55,3.55,0,0,0,198.22,70a15.68,15.68,0,0,1,1.7,1.07,3.86,3.86,0,0,0,1.12.77,1.63,1.63,0,0,0,1.15-.07,2.17,2.17,0,0,1,.42-.17c.13,0,.27,0,.4,0A1.31,1.31,0,0,0,203.9,69.79Z"/>
        <path class="flowers-37" d="M203.51,70.16c-.69-1.51-2.19-1.62-2.93-2a8.61,8.61,0,0,0-1.75-.66,2.86,2.86,0,0,0-1.83.12,1.12,1.12,0,0,0-.68.73,1,1,0,0,0,.12.63,3.55,3.55,0,0,0,1.39,1.38,15.68,15.68,0,0,1,1.7,1.07,3.9,3.9,0,0,0,1.12.78,1.63,1.63,0,0,0,1.15-.08,2.09,2.09,0,0,1,.41-.17c.14,0,.28,0,.41,0A1.31,1.31,0,0,0,203.51,70.16Z"/>
        <path class="flowers-35" d="M203.25,70.9a1.12,1.12,0,0,0-.38-1.16,1.5,1.5,0,0,0-.47-.14A14.72,14.72,0,0,1,200,69a4.47,4.47,0,0,1-1.63-.86,1.59,1.59,0,0,1-.27-1.63,1.67,1.67,0,0,0-1.62.49,2.37,2.37,0,0,0-.18,2.28,5.55,5.55,0,0,0,1.46,1.93,24.11,24.11,0,0,0,3,2.26,2.2,2.2,0,0,0,.86.41C202.93,74.09,203.17,71.69,203.25,70.9Z"/>
        <path class="flowers-38" d="M198.84,68.85a9.68,9.68,0,0,0,1.85,2.08,2,2,0,0,1,.57.42.82.82,0,0,1,.08.7,2.13,2.13,0,0,1-.37.63,1.37,1.37,0,0,1-.79.59,1.19,1.19,0,0,1-.78-.17,3.2,3.2,0,0,1-1.15-1.37,13.83,13.83,0,0,0-.79-1.59c-.31-.47-.73-.87-1-1.35a1.83,1.83,0,0,1-.29-1.06c0-.1,0-.43.16-.49s.42.12.54.17A5.54,5.54,0,0,1,198.84,68.85Z"/>
        <path class="flowers-33" d="M195.32,74.71c.18.62.94,5.19,4.07,5a1.18,1.18,0,0,0,1-.65,1,1,0,0,0,.08-.57,20.06,20.06,0,0,0-.71-4.13c-.14-.45-.32-.9-.5-1.34a9.79,9.79,0,0,0-.84-1.76,10.35,10.35,0,0,0-1.58-1.8c-.27-.27-1.25-1.24-1.71-1.15S194.89,73.15,195.32,74.71Z"/>
        <path class="flowers-39" d="M198,79.44a4.32,4.32,0,0,1,.09-2.59,13,13,0,0,0,.57-1.66,4.13,4.13,0,0,0-.28-2.3c-.09-.23-.45-.7,0-.8s.64.42.79.62a1.13,1.13,0,0,1,.1.13l.07.18c.18.44.36.89.5,1.34a20.06,20.06,0,0,1,.71,4.13c0,.08,0,.14,0,.2s-.07.27-.1.4a1.2,1.2,0,0,1-1,.62A2.75,2.75,0,0,1,198,79.44Z"/>
        <path class="flowers-13" d="M194.21,69.79c.33.19.73.27,1,.49a5.63,5.63,0,0,1,.85,1.08,5.71,5.71,0,0,0,1.16.9,8.22,8.22,0,0,1,2.79,4.57c.22.71.47,1.82.48,1.76a12.3,12.3,0,0,0-1.07-8.21,7.15,7.15,0,0,0-1.92-2.32,6.22,6.22,0,0,0-1.7-1C193.73,66.28,192.46,68.76,194.21,69.79Z"/>
        <path class="flowers-13" d="M204.6,75.77c-.31.57-2.08,4.85-5.09,4a1.17,1.17,0,0,1-.86-.86.93.93,0,0,1,0-.57,19.32,19.32,0,0,1,1.62-3.87c.24-.41.51-.8.79-1.19a9.42,9.42,0,0,1,1.22-1.53,10.55,10.55,0,0,1,1.94-1.4c.33-.2,1.5-.92,1.92-.73S205.38,74.35,204.6,75.77Z"/>
        <path class="flowers-33" d="M200.75,73.74a7.44,7.44,0,0,1,1.63-1.43c.85-.56,1.82-1,2.62-1.57a2.56,2.56,0,0,1,.69-.45.61.61,0,0,1,.57,0,14.07,14.07,0,0,1-.42,2l0,0c-.4.17-.83.3-1.23.49A4.43,4.43,0,0,0,203,74,14.59,14.59,0,0,1,202,75.47a14.84,14.84,0,0,1-1.77,1.2,4.38,4.38,0,0,0-1.45,1.72c0-.12,0-.23.05-.34a19.4,19.4,0,0,1,1.54-3.63C200.45,74.19,200.6,74,200.75,73.74Z"/>
        <path class="flowers-40" d="M206.79,71.22c-.36.12-.77.1-1.12.25a5.46,5.46,0,0,0-1.07.86,6.21,6.21,0,0,1-1.33.62,8.22,8.22,0,0,0-3.75,3.82c-.38.64-.87,1.67-.87,1.61a12.87,12.87,0,0,1,2.89-7.76A7.5,7.5,0,0,1,204,68.79a6.11,6.11,0,0,1,1.87-.6C207.91,67.92,208.73,70.62,206.79,71.22Z"/>
        <path class="flowers-40" d="M197.5,68.43c.07.08.14.2.08.28a9.92,9.92,0,0,1-1.18-.25,1.22,1.22,0,0,0-1.12.26,3.08,3.08,0,0,1-.3.41A.71.71,0,0,1,194,69a1,1,0,0,1-.23-.92,1,1,0,0,1,.42-.73,2.25,2.25,0,0,1,1.65,0A3.45,3.45,0,0,1,197.5,68.43Z"/>
        <path class="flowers-32" d="M198.16,79.76a2.84,2.84,0,0,1-2-2.32c2.33,1.78,5,1.23,6.5,1.23C202.76,78.82,201.29,80.79,198.16,79.76Z"/>
        <path class="flowers-41" d="M221.75,159.06a30.58,30.58,0,0,1-.38-7.4l1.24-17.19c2.26-13.57.53-25-12.74-28.67-9.5-2.59-12.36-2.76-21.15-9.25C182.49,92,209,149.07,209,149.07c2.89,6.31.66,14.8.25,16.23-2.28,8,8,9.5,10.27,8.59,4.93-2,3.92-5.31,3.54-7.51Z"/>
        <path class="flowers-42" d="M213.2,159.06a30.57,30.57,0,0,0,.37-7.4l-1.24-17.19c-2.26-13.57-.53-25,12.74-28.67,9.5-2.59,12.37-2.76,21.16-9.25C252.45,92,226,149.07,226,149.07c-2.9,6.31-.66,14.8-.26,16.23,2.28,8-8,9.5-10.27,8.59-4.93-2-3.92-5.31-3.54-7.51Z"/>
        <path class="flowers-11" d="M201.54,104.46a3.52,3.52,0,0,0-.93-3.67,3.53,3.53,0,0,0-3.18,2.06c-.81,2.08.24,5.46.24,5.46S200.73,106.53,201.54,104.46Z"/>
        <path class="flowers-12" d="M200.68,104.55s0,0-.06,0a6.29,6.29,0,0,1-.72-1.56l-.24.61-.15.37a0,0,0,0,1,0,0h0l-.08.2a7.54,7.54,0,0,0,.5,1.42s0,0,0,0a5.69,5.69,0,0,1-.54-1.22c-.16.4-.32.8-.49,1.19a4,4,0,0,1,.11,1.13s0,0-.06,0a8.34,8.34,0,0,1-.16-.87c-.12.25-.24.51-.37.76,0,0-.06,0-.06,0,.08-.27.16-.54.25-.81a7.87,7.87,0,0,1-.72.53s-.06,0,0,0a4.36,4.36,0,0,1,.84-.75c.14-.4.29-.81.45-1.2a6.42,6.42,0,0,1-1.22.53s-.07,0,0-.05a7,7,0,0,0,1.33-.7l.08-.2v0a0,0,0,0,1,0,0c.05-.12.09-.25.14-.37l.24-.61a7.2,7.2,0,0,1-1.59.66s-.07,0,0,0a6.75,6.75,0,0,0,1.11-.55c.23-.13.43-.29.65-.43l.18-.47c.08-.21.15-.44.24-.67-.36.2-.81.33-1.19.51,0,0-.09,0,0-.06.46-.16.82-.45,1.29-.62a3.41,3.41,0,0,1,.31-.6c0-.06.2,0,.19.07a3.08,3.08,0,0,1-.18.66c.23.43.31.89.53,1.33,0,0,0,.06-.07,0-.15-.39-.4-.79-.53-1.18l-.24.58-.22.55c.07.25.11.5.19.75A5.91,5.91,0,0,0,200.68,104.55Z"/>
        <path class="flowers-11" d="M195.29,101.86a3.52,3.52,0,0,0,1.7-3.38,3.51,3.51,0,0,0-3.75-.52c-2,1-3.4,4.27-3.4,4.27S193.31,102.9,195.29,101.86Z"/>
        <path class="flowers-12" d="M194.57,101.37s-.06,0,0,0a6.84,6.84,0,0,1,.48-1.65l-.58.3-.35.18,0,0h0l-.19.1a6.69,6.69,0,0,0-.55,1.4s-.06,0,0,0a6.47,6.47,0,0,1,.39-1.27c-.38.2-.76.39-1.15.57a4,4,0,0,1-.65.93s-.05,0,0,0a6,6,0,0,1,.45-.77q-.39.18-.78.33s-.05,0,0,0c.24-.16.47-.31.72-.45a6.67,6.67,0,0,1-.89-.07s0-.06,0-.06a4.26,4.26,0,0,1,1.13,0l1.13-.62a5.65,5.65,0,0,1-1.27-.4s0-.06,0,0a7.25,7.25,0,0,0,1.47.34l.19-.1h0l.35-.18.58-.31a7,7,0,0,1-1.63-.55s0-.07,0-.06a7.2,7.2,0,0,0,1.2.33l.77.1.44-.24.62-.35c-.4-.08-.82-.28-1.22-.39,0,0-.05-.09,0-.07.46.17.93.19,1.39.38a2.89,2.89,0,0,1,.63-.26c.07,0,.15.14.09.19a3,3,0,0,1-.56.37c-.11.48-.36.88-.48,1.36,0,.05-.08,0-.06,0,.14-.39.21-.86.38-1.24l-.57.28-.52.27c-.12.23-.25.45-.36.69A8.06,8.06,0,0,0,194.57,101.37Z"/>
        <path class="flowers-23" d="M201.36,94.25a6.44,6.44,0,0,0-1.91-2.87,10.21,10.21,0,0,0-2.31-1.59,4.38,4.38,0,0,0-1.81-.55,1.88,1.88,0,0,0-1.61.68,2.52,2.52,0,0,1-.49.67c-.23.16-.56.17-.8.32a1,1,0,0,0-.23,1.17c.19.41,1.19,2.12,5.64,3.49a5.46,5.46,0,0,0,2.52.27c.33,0,.83-.15,1-.44A1.58,1.58,0,0,0,201.36,94.25Z"/>
        <path class="flowers-24" d="M201.37,95.4c-.18.29-.68.39-1,.44a5.46,5.46,0,0,1-2.52-.27c-.56-.17-1.06-.35-1.51-.52a3.1,3.1,0,0,1-.6-.83.93.93,0,0,1,.23-1.17c.24-.16.56-.17.8-.33a2.34,2.34,0,0,0,.48-.67,1.91,1.91,0,0,1,1.62-.68,3.3,3.3,0,0,1,.69.11,6.37,6.37,0,0,1,1.81,2.77A1.58,1.58,0,0,1,201.37,95.4Z"/>
        <path class="flowers-23" d="M202.36,94.86a6.47,6.47,0,0,1,3.44.36,10.48,10.48,0,0,1,2.48,1.3,4.62,4.62,0,0,1,1.33,1.35,1.92,1.92,0,0,1,.15,1.75,2.45,2.45,0,0,0-.37.74c0,.28.11.57.08.86a.92.92,0,0,1-.93.74c-.44,0-2.43-.07-5.7-3.37a5.33,5.33,0,0,1-1.42-2.11,1.53,1.53,0,0,1-.07-1.09A1.59,1.59,0,0,1,202.36,94.86Z"/>
        <path class="flowers-24" d="M201.35,95.39a1.53,1.53,0,0,0,.07,1.09,5.33,5.33,0,0,0,1.42,2.11c.41.42.79.78,1.16,1.09a3.11,3.11,0,0,0,1,.15.93.93,0,0,0,.92-.75c0-.28-.11-.57-.08-.85a2.5,2.5,0,0,1,.37-.75,1.87,1.87,0,0,0-.15-1.74,2.83,2.83,0,0,0-.42-.56,6.34,6.34,0,0,0-3.3-.32A1.59,1.59,0,0,0,201.35,95.39Z"/>
        <path class="flowers-23" d="M202.54,95.17a6.41,6.41,0,0,0,2.88-1.91A10.21,10.21,0,0,0,207,91a4.53,4.53,0,0,0,.55-1.81,6.71,6.71,0,0,0-.25-2.21c-.55-1.37-2.19-1.1-2.6-.92s-2.12,1.19-3.48,5.64a5.33,5.33,0,0,0-.28,2.52c.06.33.16.83.45,1A1.55,1.55,0,0,0,202.54,95.17Z"/>
        <path class="flowers-24" d="M201,94.17a5.33,5.33,0,0,1,.28-2.52c.13-.43.26-.82.39-1.18a3,3,0,0,1,.67-.45c.41-.18,2.05-.45,2.59.92a6.45,6.45,0,0,1,.25,2.21,2.3,2.3,0,0,1,0,.45,6.06,6.06,0,0,1-2.54,1.57,1.55,1.55,0,0,1-1.14,0C201.11,95,201,94.5,201,94.17Z"/>
        <path class="flowers-23" d="M201.73,96.51a6.38,6.38,0,0,1-.36,3.44,9.79,9.79,0,0,1-1.3,2.48,4.62,4.62,0,0,1-1.35,1.33,6.67,6.67,0,0,1-2.07.8c-1.47.15-2-1.42-2-1.87s.07-2.43,3.37-5.71a5.49,5.49,0,0,1,2.11-1.41,1.51,1.51,0,0,1,1.1-.07C201.52,95.67,201.66,96.17,201.73,96.51Z"/>
        <path class="flowers-24" d="M200.11,95.57A5.49,5.49,0,0,0,198,97l-.86.9a3.41,3.41,0,0,0-.09.8c0,.45.56,2,2,1.87a6.62,6.62,0,0,0,2.06-.8,3.62,3.62,0,0,0,.38-.26,6.19,6.19,0,0,0,.21-3c-.07-.34-.21-.84-.52-1A1.51,1.51,0,0,0,200.11,95.57Z"/>
        <path class="flowers-25" d="M202.17,94.59a6.42,6.42,0,0,0,.73-3.37,10,10,0,0,0-.45-2.77,4.49,4.49,0,0,0-.87-1.68,1.88,1.88,0,0,0-1.61-.69,2.55,2.55,0,0,1-.82.12c-.28-.06-.51-.28-.79-.35a1,1,0,0,0-1,.65c-.16.42-.69,2.33,1.41,6.47a5.46,5.46,0,0,0,1.56,2c.27.19.69.48,1,.41S202,94.89,202.17,94.59Z"/>
        <path class="flowers-26" d="M201.35,95.39c-.33.07-.75-.22-1-.41a5.46,5.46,0,0,1-1.56-2c-.26-.51-.48-1-.67-1.44a3,3,0,0,1,.18-1,.93.93,0,0,1,1-.65c.28.06.51.29.79.35a2.55,2.55,0,0,0,.82-.12,1.88,1.88,0,0,1,1.61.69,2.54,2.54,0,0,1,.4.57,6.2,6.2,0,0,1-.73,3.23C202,94.89,201.7,95.32,201.35,95.39Z"/>
        <path class="flowers-25" d="M202.43,95.73a6.46,6.46,0,0,1,2.13,2.72,9.78,9.78,0,0,1,.79,2.69,4.34,4.34,0,0,1,0,1.9,1.85,1.85,0,0,1-1.14,1.31,2.53,2.53,0,0,0-.79.26c-.23.17-.34.47-.56.65a.94.94,0,0,1-1.19-.15c-.33-.3-1.64-1.79-1.54-6.44a5.52,5.52,0,0,1,.53-2.49c.16-.29.41-.73.74-.81A1.57,1.57,0,0,1,202.43,95.73Z"/>
        <path class="flowers-26" d="M201.35,95.37c-.33.08-.58.52-.74.81a5.52,5.52,0,0,0-.53,2.49c0,.58,0,1.11,0,1.6a3.63,3.63,0,0,0,.6.83,1,1,0,0,0,1.19.14c.22-.18.33-.48.56-.65a2.29,2.29,0,0,1,.79-.25A1.89,1.89,0,0,0,204.38,99a2.78,2.78,0,0,0,.12-.69,6.33,6.33,0,0,0-2.07-2.6A1.57,1.57,0,0,0,201.35,95.37Z"/>
        <path class="flowers-25" d="M202.33,96.08a6.46,6.46,0,0,0,3.38.73,10,10,0,0,0,2.76-.46,4.4,4.4,0,0,0,1.68-.86,6.78,6.78,0,0,0,1.42-1.72,2,2,0,0,0-1.14-2.5c-.42-.17-2.34-.7-6.48,1.41a5.46,5.46,0,0,0-2,1.56c-.19.27-.48.69-.41,1S202,95.91,202.33,96.08Z"/>
        <path class="flowers-26" d="M201.94,94.24a5.46,5.46,0,0,1,2-1.56c.39-.2.77-.37,1.12-.53a3.65,3.65,0,0,1,.79.16c.42.17,1.75,1.17,1.14,2.51a6.7,6.7,0,0,1-1.41,1.71,3.27,3.27,0,0,1-.37.28,6.16,6.16,0,0,1-2.89-.73c-.3-.17-.73-.47-.8-.82S201.75,94.51,201.94,94.24Z"/>
        <path class="flowers-25" d="M200.81,96.43a6.54,6.54,0,0,1-2.72,2.13,10.41,10.41,0,0,1-2.69.79,4.61,4.61,0,0,1-1.89,0,6.44,6.44,0,0,1-2-.93,2,2,0,0,1-.06-2.75c.3-.33,1.79-1.64,6.44-1.55a5.4,5.4,0,0,1,2.49.54c.29.15.73.4.81.73A1.6,1.6,0,0,1,200.81,96.43Z"/>
        <path class="flowers-26" d="M200.36,94.61a5.4,5.4,0,0,0-2.49-.54h-1.24a3.23,3.23,0,0,0-.64.49,2,2,0,0,0,.07,2.76,6.47,6.47,0,0,0,2,.92,2.42,2.42,0,0,0,.45.1,6.32,6.32,0,0,0,2.29-1.92,1.6,1.6,0,0,0,.36-1.09C201.09,95,200.65,94.76,200.36,94.61Z"/>
        <path class="flowers-27" d="M202.55,96.58a1.85,1.85,0,0,1-2.75-.85,1.73,1.73,0,0,1,2.26-2.2A1.76,1.76,0,0,1,202.55,96.58Z"/>
        <path class="flowers-28" d="M200.32,93.82a1.81,1.81,0,0,0,2.84,1.78l.05,0a1.63,1.63,0,0,1-.66,1,1.85,1.85,0,0,1-2.75-.85A1.6,1.6,0,0,1,200.32,93.82Z"/>
        <path class="flowers-29" d="M202.28,94.11a.88.88,0,0,1,.3.41.53.53,0,0,1-.58.75,1.41,1.41,0,0,1-.56-.21,1.11,1.11,0,0,1-.5-.48.51.51,0,0,1,.38-.69A1.26,1.26,0,0,1,202.28,94.11Z"/>
        <path class="flowers-26" d="M197.85,86.64a.73.73,0,0,1,.63-.12c.22,0,.42.14.64.17.46.06.94-.18,1.38,0a1.61,1.61,0,0,1,.43.23,1.21,1.21,0,0,1,.38.33.42.42,0,0,1,0,.47.44.44,0,0,1-.46.13,2.72,2.72,0,0,1-.46-.21,2,2,0,0,0-1.72,0,1.66,1.66,0,0,1-.55.2C197.6,87.8,197.55,86.92,197.85,86.64Z"/>
        <path class="flowers-26" d="M210.72,92.29a1.13,1.13,0,0,1,.28,1c-.12.41-.5.68-.77,1a7.94,7.94,0,0,1-.65.85.45.45,0,0,1-.23.13A.36.36,0,0,1,209,95a.79.79,0,0,1,.24-.53,3.32,3.32,0,0,0,.41-.43,1.35,1.35,0,0,0,.21-.59,1,1,0,0,0-.13-.73c-.15-.19-.4-.31-.45-.54a.38.38,0,0,1,.12-.36C209.74,91.49,210.49,92,210.72,92.29Z"/>
        <path class="flowers-11" d="M219.42,99.92a3.53,3.53,0,0,0-2.75,2.61A3.52,3.52,0,0,0,220,104.3c2.21-.31,4.65-2.87,4.65-2.87S221.63,99.62,219.42,99.92Z"/>
        <path class="flowers-12" d="M219.92,100.63s.06,0,0,.05a7.07,7.07,0,0,1-1,1.39l.65-.09.39,0h0l.22,0a6.87,6.87,0,0,0,1-1.14s.06,0,0,0a5.85,5.85,0,0,1-.8,1.07c.42-.06.85-.11,1.28-.15a4.11,4.11,0,0,1,.93-.65s0,0,0,.05c-.22.19-.44.41-.68.58.28,0,.56,0,.84,0,0,0,0,0,0,0l-.83.19a8.5,8.5,0,0,1,.82.36s0,.07,0,.06a4.39,4.39,0,0,1-1.07-.37l-1.27.2a6.09,6.09,0,0,1,1.06.81s0,.07,0,0a8,8,0,0,0-1.26-.82l-.22,0h0a0,0,0,0,1,0,0l-.39.06-.65.09a6.78,6.78,0,0,1,1.35,1.06s0,.08,0,.06a6.23,6.23,0,0,0-1-.71c-.22-.13-.46-.23-.69-.36l-.5.08-.7.11c.35.22.68.55,1,.79,0,0,0,.1,0,.07-.37-.32-.8-.5-1.17-.83a3.1,3.1,0,0,1-.68,0c-.07,0-.1-.18,0-.2a2.89,2.89,0,0,1,.66-.16c.27-.42.64-.71.91-1.12,0,0,.07,0,0,.06-.26.32-.49.74-.77,1l.62-.07.59-.08c.19-.18.39-.34.57-.53A6.85,6.85,0,0,0,219.92,100.63Z"/>
        <path class="flowers-11" d="M216.57,109a3.52,3.52,0,0,0-2.88-2.47,3.51,3.51,0,0,0-1.42,3.51c.53,2.17,3.34,4.34,3.34,4.34S217.09,111.15,216.57,109Z"/>
        <path class="flowers-12" d="M215.91,109.56s0,.06,0,0a6.65,6.65,0,0,1-1.49-.86c.05.21.11.43.15.64s.07.26.1.38,0,0,0,0h0l.06.22a7.42,7.42,0,0,0,1.22.87s0,.06,0,0a5.86,5.86,0,0,1-1.14-.69c.1.42.19.84.28,1.26a4.27,4.27,0,0,1,.74.86s0,0,0,0a5.34,5.34,0,0,1-.64-.62c.05.28.1.56.13.84,0,0,0,0,0,0-.1-.26-.19-.53-.27-.8-.06.28-.19.57-.28.85,0,0-.06,0-.06,0a4.5,4.5,0,0,1,.26-1.1l-.33-1.24a6.12,6.12,0,0,1-.69,1.13s-.07,0-.05,0a8.11,8.11,0,0,0,.69-1.34l-.06-.21h0v0l-.09-.38c-.06-.22-.11-.43-.16-.64a7,7,0,0,1-.92,1.45s-.08,0-.06,0a6.49,6.49,0,0,0,.6-1.09c.11-.23.18-.48.28-.72l-.12-.49c-.06-.23-.13-.45-.19-.69-.18.37-.48.74-.68,1.1,0,0-.1,0-.07,0,.28-.4.42-.85.71-1.25a2.66,2.66,0,0,1-.1-.68c0-.07.17-.11.21-.05a3,3,0,0,1,.22.64c.44.23.77.56,1.21.79,0,0,0,.08-.06,0-.34-.23-.78-.41-1.11-.66,0,.2.08.41.13.61s.1.39.14.58c.2.17.38.35.58.51A7,7,0,0,0,215.91,109.56Z"/>
        <path class="flowers-13" d="M213.67,108.91c.88-3.28.35-6.92-1.27-7.35s-3.57,2.14-4.21,3.58c-2.37,5.24-.15,5.11,1.08,6.16S212.85,112,213.67,108.91Z"/>
        <path class="flowers-14" d="M208.55,104.44c.85-1.43,2.47-3.25,3.85-2.88s1.88,2.71,1.64,5.31a2.45,2.45,0,0,1-3.37.4C209.79,106.52,208.41,106.37,208.55,104.44Z"/>
        <path class="flowers-13" d="M219.74,101.61c-2.85,1.84-6.48,2.46-7.38,1s.94-4,2.1-5.11c4.26-3.86,6.27-2.48,6.2-.87C220.53,99.44,222.4,99.89,219.74,101.61Z"/>
        <path class="flowers-14" d="M216.78,99.31c-.09,1.87.74,2.68.46,3.54-2.17.79-4.23.82-4.88-.19-.83-1.28.64-3.6,1.79-4.8C216,97.28,216.83,98.24,216.78,99.31Z"/>
        <path class="flowers-15" d="M206.51,105c3.39.27,6.87-.91,7-2.58s-2.76-3.12-4.29-3.49c-5.58-1.38-5.05.78-5.86,2.18S203.35,104.71,206.51,105Z"/>
        <path class="flowers-16" d="M207.73,101.5c.52-.91.48-2.13,1.91-2.5,1.58.5,4,1.85,3.87,3.37-.1,1.25-2.09,2.23-4.51,2.53A2.5,2.5,0,0,1,207.73,101.5Z"/>
        <path class="flowers-17" d="M215.14,108.93c-2.34-2.48-3.6-5.93-2.38-7.08s4.16.19,5.41,1.15c4.57,3.49,2.56,4.43,2,5.94S217.31,111.23,215.14,108.93Z"/>
        <path class="flowers-13" d="M213.78,107.2c-1.41-2.15-2-4.45-1-5.35s3.39-.12,4.81.75c.91,1.54-.18,2.32-.59,3.36A2.45,2.45,0,0,1,213.78,107.2Z"/>
        <path class="flowers-17" d="M208.14,97.08c.84,3.3,3.07,6.21,4.69,5.8s2.07-3.6,1.94-5.18c-.49-5.72-2.9-6.08-3.94-4.85C209,95,207.37,94,208.14,97.08Z"/>
        <path class="flowers-13" d="M212.83,102.88c-1.11.29-2.51-1-3.55-2.9.36-.86,1.54-.86,2.76-2.31.65-.77,1.83-.92,2.75.46C214.82,99.79,214.32,102.51,212.83,102.88Z"/>
        <path class="flowers-18" d="M211,103.05a1.73,1.73,0,0,0,.46.65,3,3,0,0,0,1.18.58,1.86,1.86,0,0,0,.81.09,2.33,2.33,0,0,0,1.24-.76,2,2,0,0,0,.22-1.54,2.07,2.07,0,0,0-2.51-1.49A1.94,1.94,0,0,0,211,103.05Z"/>
        <path class="flowers-19" d="M211.72,100.9a1.66,1.66,0,0,0,0,1.1,1.59,1.59,0,0,0,.46.65,3,3,0,0,0,1.18.58,1.74,1.74,0,0,0,.81.09,2.13,2.13,0,0,0,.73-.31,1.52,1.52,0,0,1-.24.6,2.33,2.33,0,0,1-1.24.76,1.86,1.86,0,0,1-.81-.09,3,3,0,0,1-1.18-.58,1.73,1.73,0,0,1-.46-.65A1.87,1.87,0,0,1,211.72,100.9Z"/>
        <path class="flowers-20" d="M213,93.58c.22.29.44.66.28,1a.73.73,0,0,1-.62.36,6.28,6.28,0,0,1-.75,0,2.29,2.29,0,0,0-1.43.44c-.34.26-.6.62-.94.89a.52.52,0,0,1-.39.13.38.38,0,0,1-.18-.15.91.91,0,0,1,.07-1,2.2,2.2,0,0,1,.9-.66,3.76,3.76,0,0,0,1-.59c.18-.17.32-.38.49-.56C211.93,92.75,212.57,93,213,93.58Z"/>
        <path class="flowers-21" d="M219.83,96.35a2.26,2.26,0,0,1,.28,1.18,3.34,3.34,0,0,0,.17,1.22c.11.28.32.55.28.86a1.09,1.09,0,0,1-.25.49.66.66,0,0,1-.22.22.46.46,0,0,1-.53-.1,1,1,0,0,1-.24-.52,9.32,9.32,0,0,1-.09-1.4,2.05,2.05,0,0,0-.45-1.3C217.92,96.08,219.24,95.43,219.83,96.35Z"/>
        <path class="flowers-22" d="M213.75,101.18a1.65,1.65,0,0,1,.62.83.63.63,0,0,1,0,.52.5.5,0,0,1-.41.23,1.1,1.1,0,0,1-.47-.1,2.2,2.2,0,0,1-1.14-.84.64.64,0,0,1-.1-.26.63.63,0,0,1,.51-.62A1.3,1.3,0,0,1,213.75,101.18Z"/>
        <path class="flowers-43" d="M225.73,153.4c-1-.89-10,1.89-11,3.19s0,4.93,0,4.93a3.19,3.19,0,0,0-3.18-.37c-2.13.65-1.34,1.39-1.34,1.39l.72,11.24,3.56,1.7s9.69-.35,10.34-2.42S225.73,153.4,225.73,153.4Z"/>
        <path class="flowers-3" d="M215.26,160.88a23.19,23.19,0,0,0,.94,10.78c-1.43,1.35-3.22,2.78-5.17,2.74l-1.77-1.11a21.87,21.87,0,0,1-.2-12,9.28,9.28,0,0,1,4.65-1.79Z"/>
        <path class="flowers-3" d="M215.64,161.05A8.52,8.52,0,0,1,215,156a26.13,26.13,0,0,1,10.71-4.57c.33.51,1,1.53,1,1.53a16.07,16.07,0,0,1,2.49,6.36,59.47,59.47,0,0,1-12.11,3.09Z"/>
        <path class="flowers-3" d="M215.76,167.93a12.35,12.35,0,0,1-.25-2.42,4.45,4.45,0,0,1,.53-2.37,36,36,0,0,1,13.32-1.47l.85,1.34a16.73,16.73,0,0,1-.2,8c-4.17.36-9,0-12.78-1.89Z"/>
        <path class="flowers-44" d="M214.68,170.49a22.84,22.84,0,0,1-1-11,9.28,9.28,0,0,0-4.65,1.79,21.87,21.87,0,0,0,.2,12C211.3,173.33,213.17,171.87,214.68,170.49Zm14.46-.65a16.38,16.38,0,0,0,.22-8.17A36,36,0,0,0,216,163.14a4.45,4.45,0,0,0-.53,2.37,12.35,12.35,0,0,0,.25,2.42C219.7,169.84,224.78,170.21,229.14,169.84Zm-13.5-8.79A8.52,8.52,0,0,1,215,156a26.13,26.13,0,0,1,10.71-4.57,16,16,0,0,1,2.6,6.47A64.26,64.26,0,0,1,215.64,161.05Z"/>
    </g>
</svg>