<?xml version="1.0" encoding="utf-8"?>
<!-- Generator: Adobe Illustrator 22.0.0, SVG Export Plug-In . SVG Version: 6.00 Build 0)  -->
<svg version="1.1" id="Layer_1" xmlns="http://www.w3.org/2000/svg" xmlns:xlink="http://www.w3.org/1999/xlink" x="0px" y="0px"
	 viewBox="0 0 245.9 350.1" style="enable-background:new 0 0 245.9 350.1;" xml:space="preserve">
<style type="text/css">
	.st0{opacity:0.15;fill:#010101;}
	.st1{fill:#C8C8C8;}
	.st2{fill:#695F33;}
	.st3{fill:#7F3D1B;}
	.st4{fill:#432212;}
	.st5{fill:#6B3615;}
	.st6{fill:#78716D;}
	.st7{fill:#575351;}
	.st8{fill:#331A0F;}
	.st9{fill:#4D311D;}
	.st10{fill:#5E5F5F;}
	.st11{fill:#525150;}
	.st12{fill:#737374;}
	.st13{fill:#582C11;}
	.st14{fill:#5F422F;}
	.st15{fill:#D8B094;}
	.st16{fill:#F3D6C0;}
	.st17{fill:#484544;}
	.st18{fill:#BC1F37;}
	.st19{fill:#A41E22;}
	.st20{fill:#755037;}
	.st21{fill:#646261;}
	.st22{fill:#8F8B89;}
	.st23{fill:#676361;}
	.st24{fill:#994922;}
	.st25{fill:#BE9375;}
	.st26{fill:#C25F28;}
	.st27{fill:#5B2846;}
	.st28{fill:#D7D6D6;}
	.st29{fill:#FFFFFF;}
	.st30{fill:#BB9F2F;}
	.st31{fill:#D6B943;}
	.st32{fill:#623012;}
	.st33{fill:#3E3E3E;}
	.st34{fill:#671111;}
	.st35{fill:#972E2C;}
</style>
<g>
	<path class="st0" d="M191.8,312.7c0,3.5-25.6,6.4-57.1,6.4c-31.5,0-57.1-2.8-57.1-6.4c0-3.5,25.6-6.3,57.1-6.3
		C166.2,306.4,191.8,309.2,191.8,312.7z"/>
	<path class="st1" d="M186.9,56c-3.7,0-8.9,0.2-15.3,0.5c0-0.5,0-0.9,0.1-1.4c0-0.6,0-1.1,0.1-1.6c6.1-0.9,9.6-1.5,9.6-1.7
		c0-0.2-3.5,0-9.6,0.6c0-0.4,0-0.7,0-1c0-0.9-0.1-1.4-0.2-1.4c-0.1,0-0.3,0.5-0.5,1.3c-0.1,0.3-0.1,0.7-0.2,1.2
		c-1.9,0.2-4,0.4-6.3,0.6c0.2-4.5,0.2-7,0-7.1c-0.2,0-0.6,2.5-1.2,7.2c0,0-0.1,0-0.1,0c-5.6,0.6-12.3,1.3-19.7,2.2
		c-7.4,0.9-15.6,1.9-24.1,2.9c-8.6,1.1-16.7,2.1-24.1,3.1c-7.4,1-14.1,1.9-19.7,2.6c-11.2,1.5-18.1,2.6-18.1,2.9
		c0,0.3,7-0.3,18.2-1.5c5.6-0.6,12.3-1.3,19.7-2.2c7.4-0.9,15.6-1.9,24.1-2.9c8.6-1.1,16.7-2.1,24.1-3.1c7.3-1,13.9-1.8,19.5-2.6
		c-0.1,0.7-0.2,1.5-0.3,2.3c-5.4,0.4-11.3,0.8-17.6,1.4c-9.4,0.8-19.6,1.9-30.4,3.1c-10.8,1.2-21,2.4-30.4,3.4
		c-9.3,1.1-17.7,2-24.8,2.8c-3.8,0.4-7.1,0.8-10.1,1.1c-0.1-1.1-0.2-2.2-0.3-3.1c-0.6-5.6-1.1-8.7-1.3-8.6c-0.2,0-0.2,3.1,0,8.8
		c0,1,0.1,2.1,0.1,3.2c-1.9,0.2-3.6,0.4-5.1,0.6c-0.8,0.1-1.5,0.2-2.2,0.3c0-0.1,0-0.2-0.1-0.3c-0.2-1.2-0.4-2.1-0.6-2.8
		c-0.2-0.6-0.4-1-0.5-1c-0.1,0-0.2,0.4-0.2,1.1c0,0.7,0,1.6,0,2.8c0,0.1,0,0.3,0,0.4c-1.7,0.3-2.6,0.5-2.6,0.7
		c0,0.2,0.9,0.3,2.7,0.3c0,1.2,0.1,2.5,0.2,4c-2.3,0.3-4.4,0.6-6.3,0.9c-4.8,0.7-7.7,1.2-7.7,1.5c0,0.3,3,0.2,7.8-0.1
		c1.8-0.1,3.9-0.3,6.2-0.5c0,0.7,0.1,1.4,0.1,2.1c0.2,3.6,0.5,6.9,0.7,9.2c0.2,2.4,0.4,3.8,0.7,3.8c0.2,0,0.5-1.5,0.6-3.9
		c0.1-2.4,0-5.7-0.2-9.3c0-0.7-0.1-1.5-0.1-2.2c0.2,0,0.3,0,0.5,0c2-0.2,4.1-0.4,6.3-0.7c0.2,4,0.4,8.6,0.7,13.6
		c1,20.1,2.6,47.8,4.7,78.3c2.1,30.6,4.2,58.2,6.1,78.2c0,0.3,0.1,0.7,0.1,1c-0.5,0.1-1,0.1-1.4,0.2c-0.3-3.2-0.6-6.8-1-10.8
		c-1.4-15.1-3.3-36-5.3-59.1c-1-11.5-1.9-22.6-2.7-32.6c-0.8-10-1.5-19-2-26.6c-1.1-15.2-1.6-24.5-1.8-24.5c-0.1,0-0.2,2.4-0.1,6.6
		c0.1,4.3,0.3,10.4,0.7,18c0.4,7.6,0.9,16.6,1.6,26.7c0.7,10,1.6,21.1,2.6,32.6c2,23.1,4.1,44,5.8,59.1c0.4,4,0.9,7.7,1.2,10.8
		c-0.4,0.1-0.8,0.1-1.2,0.2c-1.4,0.2-2.7,0.4-3.7,0.6c-1.1,0.2-1.9,0.4-2.5,0.7c-0.6,0.2-0.9,0.4-0.9,0.5c0,0.1,0.4,0.2,1,0.2
		c0.6,0,1.5,0,2.5,0c1.1,0,2.3-0.1,3.8-0.2c0.4,0,0.8-0.1,1.2-0.1c0.2,2,0.5,3.7,0.6,5.2c0.5,4.2,0.9,6.5,1,6.5c0.1,0,0-2.4-0.3-6.6
		c-0.1-1.5-0.3-3.2-0.4-5.2c0.5,0,1-0.1,1.4-0.1c0.8,8.6,1.6,15.7,2.3,20.7c0.2,1.5,0.4,2.8,0.6,3.9c-1.5,0.2-2.8,0.5-3.9,0.7
		c-2.7,0.5-4.2,1-4.2,1.2c0,0.3,1.6,0.4,4.3,0.3c1.2,0,2.5-0.1,4.1-0.2c0,0.2,0.1,0.3,0.1,0.4c0.3,1.5,0.5,2.2,0.6,2.2
		c0.1,0,0.1-0.8,0.1-2.3c0-0.1,0-0.2,0-0.4c0.8,0,1.6-0.1,2.5-0.1c0.2,1.4,0.3,2.5,0.4,3.4c0.1,1,0.3,1.6,0.4,1.6
		c0.1,0,0.2-0.6,0.3-1.6c0.1-0.9,0.1-2,0.1-3.4c1-0.1,2-0.1,3.1-0.2c4.9-0.3,10.7-0.7,17.2-1.1c2.2-0.1,4.5-0.3,6.9-0.4
		c-3.1,0.4-6,0.9-8.5,1.3c-3.9,0.6-7.1,1.2-9.3,1.7c-2.2,0.5-3.4,0.8-3.4,0.9c0,0.1,1.3,0.1,3.5-0.2c2.2-0.2,5.4-0.6,9.4-1.1
		c7.9-0.9,18.8-2.2,30.9-3c6.1-0.4,11.8-0.7,17.1-0.8c5.3-0.1,10-0.1,14-0.1c0.4,0,0.7,0,1.1,0c0,0.5,0,0.9,0,1.4
		c-1.6-0.1-3.3-0.2-5.2-0.2c-2.5-0.1-5.2-0.1-8,0c-2.8,0.1-5.6,0.2-8,0.5c-2.5,0.2-4.7,0.5-6.5,0.9c-1.8,0.3-3.3,0.7-4.3,1
		c-1,0.3-1.6,0.5-1.5,0.7c0,0.1,0.6,0.2,1.6,0.1c1-0.1,2.5-0.2,4.4-0.3c1.8-0.1,4-0.3,6.5-0.4c2.4-0.1,5.1-0.2,8-0.3
		c2.8-0.1,5.5-0.1,8-0.1c1.9,0,3.7-0.1,5.3-0.1c0.1,2.4,0.2,3.6,0.4,3.6c0.2,0,0.3-1.3,0.5-3.6c0.1,0,0.3,0,0.4,0
		c1.9,0,3.4-0.1,4.4-0.2c1-0.1,1.6-0.2,1.6-0.3c0-0.1-0.6-0.3-1.6-0.4c-1-0.1-2.5-0.3-4.4-0.4c-0.1,0-0.2,0-0.3,0
		c0-0.4,0.1-0.9,0.1-1.4c2.9,0.1,5.4,0.2,7.2,0.2c2.2,0.1,3.5,0.1,3.5-0.1c0-0.1-1.2-0.4-3.4-0.7c-1.8-0.2-4.2-0.5-7.1-0.7
		c0-0.1,0-0.3,0-0.4c3.3-0.2,6.1-0.4,8.1-0.5c2.7-0.2,4.3-0.5,4.3-0.8c0-0.3-1.5-0.5-4.3-0.8c-2-0.2-4.7-0.3-8-0.4
		c0.4-5.8,0.9-13.8,1.4-23.4c0.5-8.4,1.1-18,1.8-28.6c0.4,0,0.8,0,1.2,0c4.3,0,7.8-0.4,7.8-1c0-0.5-3.5-1-7.8-1c-0.4,0-0.8,0-1.1,0
		c0.1-2.1,0.3-4.3,0.4-6.5c0.9-13.9,1.9-29.3,2.9-45.4c1.1-17.2,2.2-33.5,3.1-48.2c0.4,0,0.8,0,1.2,0c-0.4,6.3-0.8,13-1.2,19.9
		c-1.1,18.9-2,36-2.7,48.3l-0.8,14.6c-0.1,1.7-0.2,3.1-0.2,4c0,0.9,0,1.4,0,1.4c0.1,0,0.2-0.5,0.3-1.4c0.2-0.9,0.3-2.2,0.5-4
		c0.4-3.4,0.9-8.4,1.4-14.6c1-12.4,2.1-29.4,3.2-48.3c0.4-7,0.8-13.7,1.1-20.1c0.5,0,0.9-0.1,1.4-0.1c2.7-0.2,5.2-0.4,6.9-0.7
		c1.8-0.3,2.9-0.6,2.9-0.9c0-0.3-1.1-0.5-2.9-0.5c-1.8-0.1-4.3-0.1-7,0.1c-0.4,0-0.8,0.1-1.2,0.1c0.1-1,0.1-2,0.2-3
		c0.6-0.1,1.2-0.2,1.7-0.3c1.5-0.3,2.3-0.7,2.3-1c0-0.3-1-0.4-2.4-0.4c-0.4,0-0.9,0-1.5,0c0.4-8.1,0.8-15.4,1.1-21.6l0.8-14.6l0.2-4
		c0-0.9,0.1-1.4,0-1.4c-0.1,0-0.2,0.4-0.4,1.4c-0.2,0.9-0.3,2.2-0.5,4c-0.4,3.4-0.8,8.4-1.3,14.6c-0.5,6.2-1,13.6-1.5,21.8
		c-0.4,0-0.8,0-1.2,0.1c0.7-10.2,1.2-19.5,1.7-27.6c0.5-8,0.9-14.9,1.2-20.3c2-0.2,3.9-0.4,5.7-0.6c-0.3,2.3-0.6,4.9-0.8,7.7
		c-0.5,4.7-0.8,9.1-0.9,12.2c-0.1,3.1,0,5.1,0.2,5.1c0.2,0,0.6-1.9,1.1-5c0.4-3.1,0.9-7.4,1.4-12.1c0.3-2.9,0.5-5.7,0.7-8.1
		c6.5-0.7,11.8-1.3,15.5-1.7c3.9-0.5,6.1-0.9,6.1-1.1C193,56.2,190.8,56,186.9,56z M41.7,75c-0.2,0-0.3,0-0.5,0.1
		c-0.1-1.4-0.3-2.6-0.4-3.7c0.6,0,1.3,0,2.1,0c1.5,0,3.1-0.1,5.1-0.1c0,0.9,0.1,1.9,0.1,3C45.8,74.5,43.7,74.7,41.7,75z M63.6,269.8
		c-0.3-5-0.7-12.1-1.3-20.8c0.6-0.1,1.3-0.2,1.9-0.3c0,1.1,0.1,2.3,0.1,3.5c0.1,2.5,0.3,5.2,0.5,8c0.4,5,0.9,9.5,1.2,13
		c-0.8,0.1-1.6,0.2-2.3,0.4C63.8,272.6,63.7,271.3,63.6,269.8z M149.5,271.4c-0.3,0-0.7,0-1-0.1c-0.4,0-0.9-0.1-1.4-0.1
		c0.1,0,0.1,0,0.2,0c0.7,0,1.5-0.1,2.2-0.1C149.5,271.2,149.5,271.3,149.5,271.4z M162.3,109.7c-0.1,0.9-0.1,1.9-0.2,2.9
		c-0.4,0-0.8,0.1-1.2,0.1c0.1-1,0.1-1.9,0.2-2.9C161.5,109.8,161.9,109.8,162.3,109.7z M160.5,80.1c-0.8,8.2-1.6,17.7-2.4,28.1
		c-1.5,0.2-2.9,0.3-3.9,0.5c-1.5,0.3-2.4,0.6-2.3,0.9c0,0.3,0.9,0.5,2.4,0.5c1,0.1,2.3,0.1,3.7,0c-0.1,1.1-0.2,2.1-0.3,3.2
		c-1.5,0.3-2.4,0.7-2.4,0.9c0,0.2,0.9,0.4,2.3,0.4c-1.1,14.6-2.3,30.8-3.4,47.9c-1.1,16.1-1.9,31.4-2.7,45.4
		c-0.1,2.3-0.2,4.6-0.3,6.8c-2.1,0.2-3.5,0.5-3.5,0.8c0,0.3,1.3,0.6,3.4,0.8c-0.5,10.6-0.9,20.3-1.1,28.6
		c-0.3,9.7-0.4,17.7-0.4,23.5c-0.7,0-1.4,0-2.2-0.1c-4.9-0.1-10.8-0.1-17.3,0c-6.5,0.1-13.7,0.3-21.2,0.8c-7.5,0.4-14.6,1-21.1,1.6
		c-6.5,0.6-12.3,1.3-17.2,1.9c-1,0.1-2,0.3-3,0.4c-0.1-3.6-0.4-8.1-0.8-13c-0.2-2.8-0.4-5.5-0.7-8l-0.3-3.6c1.4-0.2,2.6-0.5,3.6-0.8
		c1.1-0.3,1.9-0.6,2.5-0.8c0.6-0.2,0.9-0.5,0.8-0.6c0-0.1-0.4-0.2-1-0.2c-0.6,0-1.5,0.1-2.5,0.2c-1,0.1-2.2,0.2-3.6,0.3l-0.1-1.1
		c-0.2-1.8-0.3-3.3-0.4-4.4c-0.1-1-0.2-1.6-0.4-1.6c-0.1,0-0.2,0.6-0.3,1.6c-0.1,1-0.1,2.6-0.1,4.4c0,0.4,0,0.7,0,1.1
		c-0.6,0.1-1.3,0.1-2,0.2c0-0.3,0-0.7-0.1-1c-1.2-20-3-47.7-5.1-78.3c-2.1-30.6-4.1-58.2-5.7-78.3c-0.4-5-0.8-9.6-1.2-13.6
		c0.7-0.1,1.4-0.2,2-0.2c3.7-0.4,7.1-0.9,10.3-1.3c3.2-0.4,6-0.8,8.4-1.2c4.8-0.7,7.7-1.2,7.7-1.5c0-0.3-3-0.2-7.8,0.1
		c-2.4,0.2-5.3,0.4-8.5,0.7c-3.2,0.3-6.7,0.7-10.3,1.2c-0.7,0.1-1.4,0.2-2,0.2c-0.1-1-0.2-1.9-0.3-2.8c2.9-0.1,6.3-0.3,10-0.5
		c7.1-0.4,15.5-1.1,24.9-2c9.4-0.9,19.6-2,30.4-3.1c10.8-1.2,21-2.4,30.4-3.4c6.1-0.7,11.8-1.3,17-1.9
		C161.8,65.6,161.2,72.3,160.5,80.1z M170,56.6c-1.8,0.1-3.7,0.2-5.7,0.4c0-0.9,0.1-1.7,0.1-2.4c2.3-0.3,4.3-0.6,6.2-0.9
		c-0.1,0.4-0.1,0.9-0.2,1.3c-0.1,0.5-0.1,1-0.2,1.6C170.1,56.6,170.1,56.6,170,56.6z"/>
	<polygon class="st1" points="149.1,270.5 63.5,274.4 48.9,69.3 162.9,57.3 	"/>
	<g id="XMLID_1097_">
		<g id="XMLID_1273_">
			<g id="XMLID_1280_">
				<polygon id="XMLID_1293_" class="st2" points="127,215.9 101,246 103.7,306.9 116.3,307.7 				"/>
				<path id="XMLID_1292_" class="st3" d="M122.1,258l-20.2,8.7l0.1,1.4c5.5-2.3,13.4-5.6,19.9-8.3L122.1,258z"/>
				<path id="XMLID_1291_" class="st3" d="M122.1,258.4l-20.4-8.7l0.3,1.4c0,0,11.1,4.9,20,8.9L122.1,258.4z"/>
				<polygon id="XMLID_1290_" class="st4" points="119.6,279.2 102.4,277.8 103.7,306.9 116.3,307.7 				"/>
				<path id="XMLID_1289_" class="st3" d="M122.1,275.6c-3.6-1.9-22.4-1.5-22.4-1.5s-1.9,2-0.9,5.9c1,3.9,4.1,4.1,4.1,4.1v-2.6
					c0.3,1.9,5.5,2.8,5.5,2.8v-2.9c1.5,2.3,5.6,2.3,5.6,2.3l-0.1-2.1c1.4,1.9,5.5,3,5.5,3l-0.1-3l4,2.8
					C123.3,284.3,125.7,277.5,122.1,275.6z"/>
				<g id="XMLID_1284_">
					<path id="XMLID_1288_" class="st5" d="M110.1,281.5v1.3c0.9,0.4,1.9,0.7,2.7,0.8C111.5,283.1,110.2,282.4,110.1,281.5z"/>
					<path id="XMLID_1287_" class="st5" d="M107,274.1c-4.1-0.1-7.4,0-7.4,0s-1.9,2-0.9,5.9c1,3.9,4.1,4.1,4.1,4.1v-2.6
						c0.3,1.9,5.5,2.8,5.5,2.8v-0.7c-0.9-0.5-2-1.6-2.5-3.5c-1-3.9,0.9-5.9,0.9-5.9S106.9,274.1,107,274.1z"/>
					<path id="XMLID_1286_" class="st5" d="M123.6,283.4c-1-0.5-1.9-1.1-2.5-1.8l0.1,1.3l2.1,1.5
						C123.3,284.3,123.4,283.9,123.6,283.4z"/>
					<path id="XMLID_1285_" class="st5" d="M115.6,281.4v1.5c1.7,1,3.8,1.6,3.8,1.6l0-1.1C118.1,283.2,116.4,282.6,115.6,281.4z"/>
				</g>
				<g id="XMLID_1281_">
					<polygon id="XMLID_1283_" class="st3" points="120.6,270.9 101.7,261.2 101.8,263 120.4,273 					"/>
					<path id="XMLID_1282_" class="st3" d="M130.7,249.8l0,0.5C130.7,250,130.8,249.8,130.7,249.8z"/>
				</g>
			</g>
			<g id="XMLID_1276_">
				<ellipse id="XMLID_1279_" class="st6" cx="107.9" cy="266.7" rx="6.1" ry="7.2"/>
				<ellipse id="XMLID_1278_" class="st7" cx="107.9" cy="266.7" rx="3.9" ry="4.6"/>
				<path id="XMLID_1277_" class="st6" d="M109.4,266.7c0-1-0.7-1.8-1.5-1.8c-0.8,0-1.5,0.8-1.5,1.8c0,1,0.7,1.8,1.5,1.8
					C108.8,268.5,109.4,267.7,109.4,266.7z"/>
			</g>
			<path id="XMLID_1275_" class="st4" d="M116,297.1l-10.4-0.3c0,0-5.3,8.8-12.5,11.1v3.8h24.9C117.9,311.8,118.9,299.3,116,297.1z"
				/>
			<path id="XMLID_1274_" class="st8" d="M117.4,300.1c-6.6-1.2-13.3,7.8-13.3,7.8h-2.3h-8.8c0,0-0.1,0-0.1,0v3.8h24.9
				C117.9,311.8,118.5,304.5,117.4,300.1z"/>
		</g>
		<g id="XMLID_1252_">
			<g id="XMLID_1259_">
				<polygon id="XMLID_1272_" class="st2" points="168.9,246 142.9,215.9 153.6,307.7 166.3,306.9 				"/>
				<path id="XMLID_1271_" class="st3" d="M168,266.7l-20.2-8.7l0.2,1.8c6.5,2.7,14.4,6,19.9,8.3L168,266.7z"/>
				<path id="XMLID_1270_" class="st3" d="M168.3,249.7l-20.4,8.7l0.2,1.5c8.9-4,20-8.9,20-8.9L168.3,249.7z"/>
				<polygon id="XMLID_1269_" class="st4" points="167.5,277.8 150.3,279.2 153.6,307.7 166.3,306.9 				"/>
				<path id="XMLID_1268_" class="st5" d="M171.2,280c1-3.9-0.9-5.9-0.9-5.9s-18.8-0.4-22.4,1.5c-3.6,1.9-1.3,8.6-1.3,8.6l4-2.8
					l-0.1,3c0,0,4.1-1.1,5.5-3l-0.1,2.1c0,0,4.1,0,5.6-2.3v2.9c0,0,5.3-0.9,5.5-2.8v2.6C167,284.1,170.2,283.9,171.2,280z"/>
				<g id="XMLID_1263_">
					<path id="XMLID_1267_" class="st5" d="M157.2,283.5c0.8-0.1,1.8-0.3,2.7-0.8v-1.3C159.7,282.4,158.5,283.1,157.2,283.5z"/>
					<path id="XMLID_1266_" class="st3" d="M161.5,283.5v0.7c0,0,5.3-0.9,5.5-2.8v2.6c0,0,3.1-0.3,4.1-4.1c1-3.9-0.9-5.9-0.9-5.9
						s-3.3-0.1-7.4,0c0.2,0,0.2,0,0.2,0s1.9,2,0.9,5.9C163.5,282,162.4,283,161.5,283.5z"/>
					<path id="XMLID_1265_" class="st5" d="M148.8,281.5c-0.5,0.7-1.5,1.4-2.5,1.8c0.1,0.6,0.3,0.9,0.3,0.9l2.1-1.5L148.8,281.5z"/>
					<path id="XMLID_1264_" class="st5" d="M150.5,283.4l0,1.1c0,0,2.1-0.6,3.8-1.6v-1.5C153.5,282.6,151.8,283.2,150.5,283.4z"/>
				</g>
				<g id="XMLID_1260_">
					<polygon id="XMLID_1262_" class="st3" points="168.2,261.2 149.3,270.9 149.6,273 168.2,263 					"/>
					<path id="XMLID_1261_" class="st3" d="M139.3,250.3l0-0.5C139.2,249.8,139.2,250,139.3,250.3z"/>
				</g>
			</g>
			<g id="XMLID_1255_">
				<ellipse id="XMLID_1258_" class="st6" cx="162" cy="266.7" rx="6.1" ry="7.2"/>
				<ellipse id="XMLID_1257_" class="st7" cx="162" cy="266.7" rx="3.9" ry="4.6"/>
				<path id="XMLID_1256_" class="st6" d="M163.6,266.7c0-1-0.7-1.8-1.5-1.8s-1.5,0.8-1.5,1.8c0,1,0.7,1.8,1.5,1.8
					S163.6,267.7,163.6,266.7z"/>
			</g>
			<path id="XMLID_1254_" class="st4" d="M177,308c-7.3-2.3-12.5-11.1-12.5-11.1l-10.4,0.3c-2.9,2.2-1.9,14.6-1.9,14.6H177V308z"/>
			<path id="XMLID_1253_" class="st8" d="M177,308c0,0-0.1,0-0.1,0h-8.8h-2.3c0,0-6.7-9-13.3-7.8c-1,4.4-0.4,11.6-0.4,11.6H177V308z
				"/>
		</g>
		<path id="XMLID_1251_" class="st9" d="M74.8,217.2l0.4-8.3c0,0,31.6,27.5,37.2,27.5c5.6,0,27.1-51.1,27.1-51.1l-68.1-45.9
			c0,0-17.3,29-13.2,50l7.9-5.3C66.2,184.1,56.4,203.7,74.8,217.2z"/>
		<path id="XMLID_1250_" class="st9" d="M201.2,139.4l-68.1,45.9c0,0,21.4,51.1,27.1,51.1c5.6,0,37.2-27.5,37.2-27.5l0.4,8.3
			c18.4-13.5,8.6-33.1,8.6-33.1l7.9,5.3C218.5,168.3,201.2,139.4,201.2,139.4z"/>
		<g id="XMLID_1246_">
			<path id="XMLID_1249_" class="st10" d="M120.7,111.6l7.2-5.2C99.4,102,99,90.4,99,90.4s-3.8,7,3.6,13.5
				C110,110.5,120.7,111.6,120.7,111.6z"/>
			<path id="XMLID_1248_" class="st11" d="M117,110.9c-0.1-0.3-0.2-0.6-0.3-1c-2.6-6.8-7.1-3.5-13.2-7c-3.9-2.3-4.8-7.6-5-11.1
				c-0.7,2.4-1.2,7.4,4.1,12.1C107.2,108,113.2,110,117,110.9z"/>
			<path id="XMLID_1247_" class="st12" d="M122.3,110.7c0.3,0,1.8-3.3,0.8-5.6c-1.1-2.3-3.4-2.3-5.2-1.8c-1.8,0.6-4.5,3.7-5.7,6
				c-1.2,2.3,1.8,4.7,1.8,4.7L122.3,110.7z"/>
		</g>
		<g id="XMLID_1242_">
			<path id="XMLID_1245_" class="st10" d="M170.3,90.4c0,0-0.4,11.6-28.9,16.1l7.2,5.2c0,0,10.8-1.1,18.2-7.7
				C174.2,97.3,170.3,90.4,170.3,90.4z"/>
			<path id="XMLID_1244_" class="st11" d="M170.9,91.8c-0.2,3.5-1.2,8.8-5,11.1c-6,3.5-10.5,0.3-13.2,7c-0.1,0.3-0.2,0.7-0.3,1
				c3.8-0.9,9.8-2.9,14.4-7C172.1,99.1,171.6,94.2,170.9,91.8z"/>
			<path id="XMLID_1243_" class="st12" d="M155.3,114c0,0,3-2.3,1.8-4.7c-1.2-2.3-3.9-5.4-5.7-6c-1.8-0.6-4.1-0.5-5.2,1.8
				c-1.1,2.3,0.4,5.6,0.8,5.6L155.3,114z"/>
		</g>
		<polygon id="XMLID_1241_" class="st10" points="130.8,103.6 140.5,106.1 134.8,93.9 		"/>
		<path id="XMLID_1240_" class="st4" d="M149.1,224.7c-17.9-1.5-18.6-1.2-19.2-1.2L111,231c0,0,1.3,24.9,13,35.1l1.8-4.3
			c0,0,2.7,8.7,10.5,11.4l7-12.9l1.2,4.8c0,0,13.7-12,13.5-20.7C158,235.7,167,226.2,149.1,224.7z"/>
		<path id="XMLID_1239_" class="st13" d="M174.5,256.9l-7-44.9l-22.1-9.8l-25.6,6.3c0,0,2.8,22.6,16.3,29.1l0.8-4
			c0,0,2.8,13.3,15,17l-1-4.8C150.9,245.9,159.2,255.4,174.5,256.9z"/>
		<path id="XMLID_1238_" class="st4" d="M150.5,241.4v-4c3.9,8,16.1,11.2,22.8,12.4l-1.1-6.7c-14.9-2.7-22.9-16-22.9-16l-0.5,5.7
			c-3-2.5-6.5-13-6.5-13l-2.8,3l-2.5-14.9c0,0-5.7-0.7-6.4,6.2c-0.7,6.9,8,16.2,8,16.2l1.2-3.2C141.3,233.5,150.5,241.4,150.5,241.4
			z"/>
		<path id="XMLID_1237_" class="st3" d="M133.8,233.6l0.8,4c13.5-6.5,16.3-29.1,16.3-29.1l-25.6-6.3l-22.1,9.8l-7,44.9
			c15.3-1.5,23.6-11,23.6-11l-1,4.8C131.1,246.9,133.8,233.6,133.8,233.6z"/>
		<path id="XMLID_1236_" class="st4" d="M130.8,227l1.2,3.2c0,0,8.7-9.4,8-16.2c-0.7-6.9-6.4-6.2-6.4-6.2l-2.5,14.9l-2.8-3
			c0,0-3.5,10.5-6.5,13l-0.5-5.7c0,0-8,13.2-22.8,16l-1.1,6.7c6.8-1.1,18.8-4.4,22.7-12.3v4C120.1,241.4,129.2,233.5,130.8,227z"/>
		<path id="XMLID_1235_" class="st9" d="M68.2,150c7,14,57.8,8,57.8,8l-2.7-40.8c0,0-22.2-13.4-38.8-5.3l5.2,4c0,0-14.5-0.8-20.2,10
			l5.3,0.2C74.9,126.1,61.2,135.9,68.2,150z"/>
		<path id="XMLID_1234_" class="st9" d="M147.1,117.2l-2.7,40.8c0,0,50.8,6,57.8-8c7-14-6.7-23.9-6.7-23.9l5.3-0.2
			c-5.7-10.9-20.2-10-20.2-10l5.2-4C169.4,103.9,147.1,117.2,147.1,117.2z"/>
		<path id="XMLID_1233_" class="st7" d="M170.2,206.8c0-1-0.8-1.8-1.8-1.8c-1,0-1.8,0.8-1.8,1.8c0,1,0.8,1.8,1.8,1.8
			C169.4,208.6,170.2,207.8,170.2,206.8z"/>
		<path id="XMLID_1232_" class="st14" d="M138.1,211.8h25.3l21.6-69.2c-12-8.5-37.6-18.6-37.6-18.6l-12,17.5l-12-17.5
			c0,0-25.6,10-37.6,18.6l21.6,69.2h25.3H138.1z"/>
		<g id="XMLID_1229_">
			<path id="XMLID_1231_" class="st15" d="M105.3,142.4l-36.6,18.6c0,0,8.5,53.9,18.6,65.4l10.8,0.5c0,0-3.6-53.3,1.8-68.4
				C105.1,143.3,105,143.4,105.3,142.4z"/>
			<path id="XMLID_1230_" class="st16" d="M87.3,179.9c-4.9,4,1.1,25.1,1.1,25.1l8.6,2.7c-0.3-9.3-0.4-20.5,0-30.2
				C93.9,177.3,89.9,177.8,87.3,179.9z"/>
		</g>
		<g id="XMLID_1226_">
			<path id="XMLID_1228_" class="st16" d="M184,226.4c10-11.5,18.6-65.4,18.6-65.4l-36.6-18.6c0.3,1,0.2,0.9,5.5,16
				c5.3,15.2,1.8,68.4,1.8,68.4L184,226.4z"/>
			<path id="XMLID_1227_" class="st15" d="M184,226.4c1-1.2,2-2.7,3-4.7c0.8-15.5,1.8-48.8-2.2-60.3c-2-5.8-3.3-9.3-4.1-11.6
				l-14.7-7.5c0.3,1,0.2,0.9,5.5,16c5.3,15.2,1.8,68.4,1.8,68.4L184,226.4z"/>
		</g>
		<path id="XMLID_1225_" class="st2" d="M177,158.2l-30.8-11.8c-0.9-0.2-37.5,35.9-45.6,43.8l4.6,14.9l22.1,0.4L177,158.2z"/>
		<path id="XMLID_1224_" class="st17" d="M180.6,139.3l-18.7-9.7l-50.5-1l-20.7,10.2c0,0,7.2,40.6,42.6,41.4
			C168.7,181.1,180.6,139.3,180.6,139.3z"/>
		<g id="XMLID_1203_">
			<path id="XMLID_1223_" class="st12" d="M81.1,177.4c0-0.5,2.9-4.9,2.9-4.9l7.6,2.6l2.4-4.9l6.5,2.2l1.8-5.5c0,0,6.7,2.3,6.7,1.5
				c0-0.8,0.3-5.7,0.3-5.7l6.6,2l0.2-8.1l-11.4-0.2L67,164.8l-1.5,5.5l4.8,5.9l4-3.5C74.3,172.7,81.2,177.9,81.1,177.4z"/>
			<path id="XMLID_1222_" class="st3" d="M114.6,156.9l-12.4-9.3L69,147l-3.5,23.3c0,0,11,5.6,28.8-0.7
				C112.1,163.3,114.6,156.9,114.6,156.9z"/>
			<path id="XMLID_1221_" class="st12" d="M80,170.3c0-0.5,2.9-4.9,2.9-4.9l7.6,2.6l2.4-4.9l6.5,2.2l1.8-5.5c0,0,6.7,2.3,6.7,1.5
				c0-0.8,0.3-5.7,0.3-5.7l6.6,2l0.2-8.1l-11.4-0.2l-37.5,8.3l-1.5,5.5l4.8,5.9l4-3.5C73.2,165.5,80.1,170.7,80,170.3z"/>
			<path id="XMLID_1220_" class="st3" d="M113.5,149.8l-12.4-9.3l-33.2-0.6l-3.5,23.3c0,0,11,5.6,28.8-0.7
				C111.1,156.2,113.5,149.8,113.5,149.8z"/>
			<polygon id="XMLID_1219_" class="st12" points="75.2,131.6 94.2,127.7 80.7,115.8 			"/>
			<path id="XMLID_1218_" class="st12" d="M68.1,140.5c0.2-1-0.5-2-1.5-2.2c-1-0.2-2,0.5-2.2,1.5c-0.2,1,0.5,2,1.5,2.2
				C66.9,142.2,67.9,141.5,68.1,140.5z"/>
			<g id="XMLID_1216_">
				<path id="XMLID_1217_" class="st18" d="M117.7,138.8l-13-13.2c0,0-13.3-4.5-26.8,0.9c-13.5,5.4-13.9,25.2-13.9,25.2
					s14.8,8.2,33.7,0.5C116.5,144.5,117.7,138.8,117.7,138.8z"/>
			</g>
			<path id="XMLID_1215_" class="st19" d="M89.2,129.3c5.9-2.4,11.7-2.8,16.5-2.6l-1-1.1c0,0-13.3-4.5-26.8,0.9
				c-13.5,5.4-13.9,25.2-13.9,25.2s5.1,2.8,13.2,3.6c-1.2-0.5-1.8-0.9-1.8-0.9S75.8,134.7,89.2,129.3z"/>
			<path id="XMLID_1214_" class="st20" d="M88.3,147.7c0.2-1-0.5-2-1.5-2.2c-1-0.2-2,0.5-2.2,1.5c-0.2,1,0.5,2,1.5,2.2
				C87.1,149.5,88.1,148.8,88.3,147.7z"/>
			<path id="XMLID_1213_" class="st20" d="M70.5,145.7c0.2-1-0.5-2-1.5-2.2c-1-0.2-2,0.5-2.2,1.5c-0.2,1,0.5,2,1.5,2.2
				C69.3,147.5,70.3,146.8,70.5,145.7z"/>
			<path id="XMLID_1212_" class="st20" d="M103.7,142.9c0.2-1-0.5-2-1.5-2.2c-1-0.2-2,0.5-2.2,1.5s0.5,2,1.5,2.2
				C102.5,144.7,103.5,144,103.7,142.9z"/>
			<g id="XMLID_1210_">
				<path id="XMLID_1211_" class="st12" d="M72.6,158c1.5,0.3,3.2,0.5,5,0.7c12.7,1.1,24.6-2.6,34.1-10.8c1.3-1.1,1.4-3,0.3-4.2
					c-1.1-1.3-3-1.4-4.2-0.3c-8.4,7.2-18.3,10.4-29.5,9.4c-8.5-0.7-14.5-3.6-14.6-3.7c-1.5-0.7-3.3-0.1-4,1.4
					c-0.7,1.5-0.1,3.3,1.4,4C61.3,154.5,65.8,156.7,72.6,158z"/>
			</g>
			<path id="XMLID_1209_" class="st12" d="M88.7,146.6c0.2-1-0.5-2-1.5-2.2c-1-0.2-2,0.5-2.2,1.5c-0.2,1,0.5,2,1.5,2.2
				C87.5,148.3,88.5,147.7,88.7,146.6z"/>
			<path id="XMLID_1208_" class="st12" d="M70.8,144.6c0.2-1-0.5-2-1.5-2.2c-1-0.2-2,0.5-2.2,1.5c-0.2,1,0.5,2,1.5,2.2
				S70.6,145.7,70.8,144.6z"/>
			<path id="XMLID_1207_" class="st12" d="M104.1,141.8c0.2-1-0.5-2-1.5-2.2c-1-0.2-2,0.5-2.2,1.5c-0.2,1,0.5,2,1.5,2.2
				C102.9,143.5,103.9,142.9,104.1,141.8z"/>
			<path id="XMLID_1206_" class="st12" d="M82.7,137.4c0.2,0,7.2,5.1,7.2,5.1l4.6-6.8l7.8,2.4l1.2-6l7.1,2.5l1.2-1.7l-3.2-3.3
				l-0.6,1.3l-6.2-2.6l-1.8,6.5l-7.1-2.7l-4,6.6l-6.4-5.1c0,0-5.6,5-5.7,4.8c-0.1-0.2-3.1-5.5-3.1-5.5l-4.3,1.1
				c-0.9,1.4-1.7,3-2.4,4.5l5.1-1.7l4.7,5.7C76.7,142.4,82.4,137.4,82.7,137.4z"/>
			<path id="XMLID_1205_" class="st21" d="M78.3,141c1.1-2.5,2.5-5,4.4-7.1l-0.4-0.3c0,0-5.6,5-5.7,4.8c-0.1-0.2-3.1-5.5-3.1-5.5
				l-4.3,1.1c0,0,0,0,0,0c-0.1,0.2-0.2,0.4-0.3,0.5c0,0,0,0,0,0c-0.1,0.2-0.2,0.3-0.3,0.5c0,0,0,0,0,0c-0.1,0.2-0.2,0.3-0.3,0.5
				c0,0,0,0,0,0.1c-0.1,0.2-0.2,0.3-0.3,0.5c0,0,0,0,0,0.1c-0.1,0.2-0.2,0.3-0.2,0.5c0,0,0,0.1,0,0.1c-0.1,0.2-0.2,0.3-0.2,0.5
				c0,0,0,0.1,0,0.1c-0.1,0.2-0.2,0.3-0.2,0.5c0,0,0,0,0,0.1c-0.1,0.2-0.2,0.4-0.2,0.6c0,0,0,0,0,0l5.1-1.7l4.7,5.7
				C76.7,142.4,77.4,141.8,78.3,141z"/>
			<path id="XMLID_1204_" class="st21" d="M63.7,149c-1.5-0.7-3.3-0.1-4,1.4c-0.7,1.5-0.1,3.3,1.4,4c0.2,0.1,4.7,2.3,11.6,3.6
				c1.1,0.2,2.3,0.4,3.6,0.5c-0.9-2-0.6-4.1,0.2-6C69,151.6,63.8,149.1,63.7,149z"/>
		</g>
		<path id="XMLID_1202_" class="st9" d="M117.9,157.8c14.5,0.8,15.5-20.6,15.5-20.6l-17.2-18.1c0,0-15.9,1.3-18.4,14.5l4.3-1.5
			c0,0-7,5.8,1.2,13.7l1.3-4.2C104.7,141.8,103.3,157,117.9,157.8z"/>
		<g id="XMLID_1183_">
			<path id="XMLID_1201_" class="st12" d="M163.3,169.7c0,0.8,6.7-1.7,6.7-1.7l2,5.4l6.4-2.4l2.5,4.8l7.5-2.8c0,0,3.1,4.3,3,4.8
				c0,0.5,6.7-5,6.7-5l4.1,3.4l4.6-6.1l-1.7-5.4l-37.8-7.2l-11.4,0.5l0.4,8.1l6.5-2.2C162.9,164,163.3,168.9,163.3,169.7z"/>
			<path id="XMLID_1200_" class="st3" d="M206.8,170.1l-4.2-23.2l-33.1,1.6l-12.1,9.7c0,0,2.7,6.4,20.7,12.1
				C196,176,206.8,170.1,206.8,170.1z"/>
			<path id="XMLID_1199_" class="st12" d="M164.2,162.5c0,0.8,6.7-1.7,6.7-1.7l2,5.4l6.4-2.4l2.5,4.8l7.5-2.8c0,0,3.1,4.3,3,4.8
				c0,0.5,6.7-5,6.7-5l4.1,3.4l4.6-6.1l-1.7-5.4l-37.8-7.2l-11.4,0.5l0.4,8.1l6.5-2.2C163.7,156.8,164.1,161.7,164.2,162.5z"/>
			<path id="XMLID_1198_" class="st3" d="M207.7,162.9l-4.2-23.2l-33.1,1.6l-12.1,9.7c0,0,2.7,6.4,20.7,12.1
				C196.9,168.8,207.7,162.9,207.7,162.9z"/>
			<polygon id="XMLID_1197_" class="st12" points="176.8,128.4 195.9,131.7 189.9,116.1 			"/>
			<path id="XMLID_1196_" class="st12" d="M205.5,141.8c1-0.2,1.7-1.2,1.5-2.3c-0.2-1-1.2-1.7-2.3-1.5s-1.7,1.2-1.5,2.3
				C203.5,141.4,204.5,142,205.5,141.8z"/>
			<g id="XMLID_1194_">
				<path id="XMLID_1195_" class="st19" d="M207.8,151.5c0,0-1.1-19.8-14.7-24.8c-13.6-5-26.8-0.1-26.8-0.1l-12.6,13.6
					c0,0,1.3,5.6,20.5,12.8C193.2,160.2,207.8,151.5,207.8,151.5z"/>
			</g>
			<path id="XMLID_1193_" class="st18" d="M207.8,151.5c0,0-1.1-19.8-14.7-24.8c-13.6-5-26.8-0.1-26.8-0.1l-1,1.1
				c4.7-0.4,10.6-0.1,16.5,2.1c13.6,5,14.7,24.8,14.7,24.8s-0.6,0.4-1.8,0.9C202.7,154.5,207.8,151.5,207.8,151.5z"/>
			<path id="XMLID_1192_" class="st20" d="M203.3,147.2c1-0.2,1.7-1.2,1.5-2.3c-0.2-1-1.2-1.7-2.3-1.5c-1,0.2-1.7,1.2-1.5,2.3
				C201.3,146.7,202.3,147.4,203.3,147.2z"/>
			<g id="XMLID_1190_">
				<path id="XMLID_1191_" class="st12" d="M194.3,158.8c1.7-0.2,3.4-0.5,4.9-0.8c6.8-1.5,11.2-3.8,11.5-3.9c1.5-0.8,2-2.6,1.2-4.1
					c-0.8-1.5-2.6-2-4.1-1.2c-0.1,0-6.1,3.2-14.5,4.1c-11.1,1.3-21.1-1.6-29.8-8.5c-1.3-1-3.2-0.8-4.2,0.5c-1,1.3-0.8,3.2,0.5,4.2
					C169.7,157,181.6,160.3,194.3,158.8z"/>
			</g>
			<path id="XMLID_1189_" class="st12" d="M185.2,148.6c1-0.2,1.7-1.2,1.5-2.3c-0.2-1-1.2-1.7-2.3-1.5c-1,0.2-1.7,1.2-1.5,2.3
				C183.1,148.2,184.2,148.8,185.2,148.6z"/>
			<path id="XMLID_1188_" class="st12" d="M202.9,146c1-0.2,1.7-1.2,1.5-2.3c-0.2-1-1.2-1.7-2.3-1.5c-1,0.2-1.7,1.2-1.5,2.3
				C200.9,145.6,201.9,146.3,202.9,146z"/>
			<path id="XMLID_1187_" class="st12" d="M169.6,144.3c1-0.2,1.7-1.2,1.5-2.3c-0.2-1-1.2-1.7-2.3-1.5c-1,0.2-1.7,1.2-1.5,2.3
				C167.6,143.8,168.6,144.5,169.6,144.3z"/>
			<path id="XMLID_1186_" class="st12" d="M169.1,139l7.8-2.6l4.8,6.7c0,0,6.8-5.2,7-5.3s6.2,4.8,6.2,4.8l4.5-5.8l5.2,1.6
				c-0.7-1.5-1.5-3-2.5-4.4l-4.4-1c0,0-2.9,5.4-2.9,5.6c-0.1,0.2-5.8-4.6-5.8-4.6l-6.3,5.3l-4.2-6.5l-7.1,2.9l-2-6.5l-6.1,2.8
				l-0.6-1.3l-3.1,3.4l1.3,1.7l7-2.7L169.1,139z"/>
			<path id="XMLID_1185_" class="st22" d="M199.3,136.7l5.2,1.6c0,0,0,0,0,0c-0.1-0.2-0.2-0.4-0.3-0.6c0,0,0,0,0-0.1
				c-0.1-0.2-0.2-0.3-0.2-0.5c0,0,0,0,0-0.1c-0.1-0.2-0.2-0.3-0.2-0.5c0,0,0,0,0-0.1c-0.1-0.2-0.2-0.3-0.3-0.5c0,0,0,0,0-0.1
				c-0.1-0.2-0.2-0.3-0.3-0.5c0,0,0,0,0-0.1c-0.1-0.2-0.2-0.3-0.3-0.5c0,0,0,0,0,0c-0.1-0.2-0.2-0.3-0.3-0.5c0,0,0,0,0,0
				c-0.1-0.2-0.2-0.4-0.4-0.5c0,0,0,0,0,0l-4.4-1c0,0-2.9,5.4-2.9,5.6c-0.1,0.2-5.8-4.6-5.8-4.6l-0.4,0.3c2,2.1,3.5,4.5,4.6,7
				c1,0.8,1.7,1.4,1.7,1.4L199.3,136.7z"/>
			<path id="XMLID_1184_" class="st22" d="M199.3,158c6.8-1.5,11.2-3.8,11.5-3.9c1.5-0.8,2-2.6,1.2-4.1c-0.8-1.5-2.6-2-4.1-1.2
				c-0.1,0-5.2,2.7-12.6,3.9c0.8,1.9,1.3,4,0.4,6C196.9,158.5,198.1,158.2,199.3,158z"/>
		</g>
		<path id="XMLID_1182_" class="st9" d="M161.2,154.7c0,0-12-9.4-12.5-9.4l-35.1,9.9c0,0,5.3,21.9,18.6,22.9
			S161.2,154.7,161.2,154.7z"/>
		<path id="XMLID_1181_" class="st9" d="M154.3,119.2l-17.2,18.1c0,0,1,21.4,15.5,20.6s13.2-16,13.2-16l1.3,4.2
			c8.2-7.9,1.2-13.7,1.2-13.7l4.3,1.5C170.2,120.6,154.3,119.2,154.3,119.2z"/>
		<rect id="XMLID_1180_" x="103.6" y="200.3" class="st23" width="64.8" height="13.8"/>
		<rect id="XMLID_1179_" x="103.5" y="200.3" class="st7" width="27.2" height="13.8"/>
		<path id="XMLID_1178_" class="st6" d="M168.8,201.6c0.9,0,1.6-0.7,1.6-1.6c0-0.9-0.7-1.6-1.6-1.6h-65.5c-0.9,0-1.6,0.7-1.6,1.6
			c0,0.9,0.7,1.6,1.6,1.6H168.8z"/>
		<path id="XMLID_1177_" class="st6" d="M168.8,215.5c0.9,0,1.6-0.7,1.6-1.6c0-0.9-0.7-1.6-1.6-1.6h-65.5c-0.9,0-1.6,0.7-1.6,1.6
			c0,0.9,0.7,1.6,1.6,1.6H168.8z"/>
		<path id="XMLID_1176_" class="st3" d="M128.7,194.4c2.6,3.9,6.6,4.3,6.1,7.9c0,0,1-0.3,1.1-2.8c0,0,1.3,2.8-0.9,4.8
			c0,0,4.3,0.2,6.4-7.4c2.1-7.6-1.5-15.4-4.4-16.3l1.4-0.8l-0.7-6.1l-6.7,0.8l0.1,5.9C131.1,180.4,126.1,190.4,128.7,194.4z"/>
		<path id="XMLID_1175_" class="st24" d="M135.7,204.3c1.3-0.3,4.1-1.7,5.7-7.3c1.7-6-0.3-12.2-2.6-14.9c-0.6,0.3-1.2,0.6-1.8,1
			c-5.6,3.3,1.3,11.7,0.5,17C137.2,201.9,136.5,203.3,135.7,204.3z"/>
		<g id="XMLID_1148_">
			<path id="XMLID_1174_" class="st25" d="M161.4,135.1c3.6-0.8,5.4-7.5,3.3-9.6c-2.1-2.1-4.8,0.2-4.8,0.2l-2.2,4.2
				C157.7,130,157.8,135.9,161.4,135.1z"/>
			<path id="XMLID_1173_" class="st26" d="M152.1,108.3l-9.5,25.9c0,0,3.9,23.7,11.4,20.9c7.5-2.8,6.9-17.5,6.9-17.5l1.4,2.5
				C167.5,123.3,152.1,108.3,152.1,108.3z"/>
			<path id="XMLID_1172_" class="st25" d="M114,130l-2.2-4.2c0,0-2.6-2.3-4.8-0.2c-2.1,2.1-0.3,8.8,3.3,9.6
				C114,135.9,114,130,114,130z"/>
			<path id="XMLID_1171_" class="st3" d="M116.7,155.1c7.5,2.8,11.4-20.9,11.4-20.9l-9.5-25.9c0,0-15.4,15-10.2,31.8l1.4-2.5
				C109.8,137.6,109.2,152.4,116.7,155.1z"/>
			<path id="XMLID_1170_" class="st27" d="M122.6,156.8c0.1,0.1,0.2,0.1,0.2,0.1C122.8,156.9,122.8,156.8,122.6,156.8z"/>
			<path id="XMLID_1169_" class="st28" d="M162.2,137.1l-0.1,0.2C162.2,137.2,162.2,137.1,162.2,137.1z"/>
			<path id="XMLID_1168_" class="st16" d="M161.3,126.1c0-13.5-11.5-24.5-25.7-24.5c-14.2,0-25.7,11-25.7,24.5s11.5,21.3,25.7,21.3
				C149.9,147.3,161.3,139.6,161.3,126.1z"/>
			<path id="XMLID_1167_" class="st15" d="M142.3,102.6c-2.2-0.6-4.6-1-7-1c-14,0.2-25.2,11.1-25.2,24.5c0,13.4,11.3,21.1,25.2,21.3
				c2.4,0,4.8-0.3,7-0.7c-10.6-2.2-18.4-9.4-18.4-20.5C123.9,115,131.7,105.6,142.3,102.6z"/>
			<path id="XMLID_1166_" class="st24" d="M142.1,128.6h-7.3h-0.6h-7.3c0,0-14.8,7.5-16.2,18.7l3.1-1.8c0,0-6,9.3,0.9,15.9l0.8-2.5
				c0,0,13.7,13.7,17.5,15h1.1h0.6h1.1c3.9-1.4,17.5-15,17.5-15l0.8,2.5c6.9-6.6,0.9-15.9,0.9-15.9l3.1,1.8
				C156.9,136.1,142.1,128.6,142.1,128.6z"/>
			<path id="XMLID_1165_" class="st3" d="M119.1,134c-3.8,3.3-7.7,7.8-8.3,13.3l3.1-1.8c0,0-6,9.3,0.9,15.9l0.8-2.5
				c0,0,13.7,13.7,17.5,15h1.1h0.6h1c-3.8-4.3-7.3-11.8-7.3-11.8l3,1.2l-4.7-12.4l3.3,2C129.1,144.3,123.7,137.9,119.1,134z"/>
			<path id="XMLID_1164_" class="st3" d="M126,138.3c6.5-2.8,7.5-9.5,7.5-9.5l-0.2-0.2h-6.4c0,0-6,3-10.7,8.1
				c-0.2,7.5,3.3,24.1,3.8,26.6c0,0,0,0,0.1,0.1C120.1,160.9,119.9,140.9,126,138.3z"/>
			<path id="XMLID_1163_" class="st3" d="M150.2,134.1c-4-3.5-8-5.6-8-5.6h-7.3h-0.6h-0.8l-0.2,0.2c0,0,1,6.7,7.5,9.5
				c6.5,2.8,5.9,25.3,5.9,25.3S151.9,139.6,150.2,134.1z"/>
			<path id="XMLID_1162_" class="st26" d="M153.2,153.9l-14.7,18.5c5.4-3.9,15-13.5,15-13.5l0.8,2.5c4.2-4,3.6-9,2.5-12.3
				c0.4,4.1-3.1,7.5-3.1,7.5L153.2,153.9z"/>
			<path id="XMLID_1161_" class="st29" d="M142.8,130.6c0,0-6.7,3.8-14.6,0.3l-2.9,0.2C125.3,131.1,136.9,138.2,142.8,130.6z"/>
			<circle id="XMLID_1160_" class="st9" cx="150.1" cy="124.2" r="2.6"/>
			
				<ellipse id="XMLID_1159_" transform="matrix(0.3803 -0.9249 0.9249 0.3803 -40.3941 188.0777)" class="st9" cx="120.1" cy="124.2" rx="2.6" ry="2.6"/>
			<path id="XMLID_1158_" class="st25" d="M122.6,127.5c-0.6,0.6-1.5,0.9-2.5,0.9c-1,0-1.9-0.4-2.5-0.9c0.3,1,1.3,1.8,2.5,1.8
				C121.3,129.3,122.3,128.5,122.6,127.5z"/>
			<path id="XMLID_1157_" class="st15" d="M152.8,127.5c-0.6,0.6-1.5,0.9-2.5,0.9c-1,0-1.9-0.4-2.5-0.9c0.3,1,1.3,1.8,2.5,1.8
				C151.4,129.3,152.4,128.5,152.8,127.5z"/>
			<path id="XMLID_1156_" class="st26" d="M127.5,137.9c6.5-2.8,7.5-9.5,7.5-9.5l-3.6-3.6c0,0-10.7,4.3-13,8.4
				c-2.3,4.1,3.3,30,3.3,30S121,140.7,127.5,137.9z"/>
			<path id="XMLID_1155_" class="st24" d="M131.4,124.9L131.4,124.9c-0.1-0.1-10.8,4.2-13.1,8.4c-2.3,4.1,3.3,30,3.3,30
				s-0.2-6.7,0.7-13.2c-1-4.3-1.7-8.9-1-11.4C122.4,134.6,128.1,128.3,131.4,124.9z"/>
			<path id="XMLID_1154_" class="st26" d="M151.4,133.2c-2.3-4.1-13-8.4-13-8.4l-3.6,3.6c0,0,1,6.7,7.5,9.5
				c6.5,2.8,5.9,25.3,5.9,25.3S153.8,137.4,151.4,133.2z"/>
			<path id="XMLID_1153_" class="st26" d="M124.1,120.4l0.7-2c0,0-5-2.5-9.2,1.8l0.2,0.2C115.7,120.4,120.4,118,124.1,120.4z"/>
			<path id="XMLID_1152_" class="st26" d="M154.3,120.4l0.2-0.2c-4.2-4.3-9.2-1.8-9.2-1.8l0.7,2C149.7,118,154.3,120.4,154.3,120.4z
				"/>
			<path id="XMLID_1151_" class="st16" d="M137.3,130.2c1.1,0,2-0.9,2-2v-7c0-1.1-0.9-2-2-2H132c-1.1,0-2,0.9-2,2v7c0,1.1,0.9,2,2,2
				H137.3z"/>
			<path id="XMLID_1150_" class="st15" d="M160.7,120.9l-2.8-5.8c-12.4-3.2-23.1,2.8-23.1,2.8s-10.1-5.7-22-3.1
				c-1,1.9-1.8,3.9-2.3,6c4.7-0.4,18.2-1,24.2,4.5C142.1,118.6,160.4,120.9,160.7,120.9z"/>
			<path id="XMLID_1149_" class="st25" d="M137.3,130.2c1.1,0,2-0.9,2-2v-7c0,0,0,0,0,0l-0.4,5.8c0,1.1-0.8,2-1.8,2h-4.9
				c-1,0-1.8-0.9-1.8-2l-0.4-5.3v6.5c0,1.1,0.9,2,2,2H137.3z"/>
		</g>
		<g id="XMLID_1145_">
			<path id="XMLID_1147_" class="st30" d="M137.3,177.4c1.1,0,2-0.9,2-2v-0.6c0-1.1-0.9-2-2-2h-5.9c-1.1,0-2,0.9-2,2v0.6
				c0,1.1,0.9,2,2,2H137.3z"/>
			<path id="XMLID_1146_" class="st31" d="M137.3,177.4c1.1,0,2-0.9,2-2v-0.6c0-1.1-0.9-2-2-2H136c-1.1,0-2,0.9-2,2v0.6
				c0,1.1,0.9,2,2,2H137.3z"/>
		</g>
		<g id="XMLID_1142_">
			<path id="XMLID_1144_" class="st30" d="M137.3,182.4c1.1,0,2-0.9,2-2v-0.6c0-1.1-0.9-2-2-2h-5.9c-1.1,0-2,0.9-2,2v0.6
				c0,1.1,0.9,2,2,2H137.3z"/>
			<path id="XMLID_1143_" class="st31" d="M137.3,182.4c1.1,0,2-0.9,2-2v-0.6c0-1.1-0.9-2-2-2H136c-1.1,0-2,0.9-2,2v0.6
				c0,1.1,0.9,2,2,2H137.3z"/>
		</g>
		<path id="XMLID_1141_" class="st7" d="M138,206.8c0-1-0.8-1.8-1.8-1.8c-1,0-1.8,0.8-1.8,1.8c0,1,0.8,1.8,1.8,1.8
			C137.2,208.6,138,207.8,138,206.8z"/>
		<path id="XMLID_1140_" class="st17" d="M126.3,206.8c0-1-0.8-1.8-1.8-1.8c-1,0-1.8,0.8-1.8,1.8c0,1,0.8,1.8,1.8,1.8
			C125.5,208.6,126.3,207.8,126.3,206.8z"/>
		<path id="XMLID_1139_" class="st17" d="M115.8,206.8c0-1-0.8-1.8-1.8-1.8c-1,0-1.8,0.8-1.8,1.8c0,1,0.8,1.8,1.8,1.8
			C115,208.6,115.8,207.8,115.8,206.8z"/>
		<path id="XMLID_1138_" class="st17" d="M106.6,206.8c0-1-0.8-1.8-1.8-1.8c-1,0-1.8,0.8-1.8,1.8c0,1,0.8,1.8,1.8,1.8
			C105.8,208.6,106.6,207.8,106.6,206.8z"/>
		<path id="XMLID_1137_" class="st7" d="M149.1,206.8c0-1-0.8-1.8-1.8-1.8c-1,0-1.8,0.8-1.8,1.8c0,1,0.8,1.8,1.8,1.8
			C148.3,208.6,149.1,207.8,149.1,206.8z"/>
		<path id="XMLID_1136_" class="st7" d="M161.8,206.8c0-1-0.8-1.8-1.8-1.8s-1.8,0.8-1.8,1.8c0,1,0.8,1.8,1.8,1.8
			S161.8,207.8,161.8,206.8z"/>
		<path id="XMLID_1135_" class="st18" d="M135.1,99.8c-9.7,0-18.2,5.2-22.6,12.8l21.6,5.6l24.4-3.8
			C154.5,105.8,145.5,99.8,135.1,99.8z"/>
		<path id="XMLID_1134_" class="st32" d="M134.8,104.1c-2.3-0.6-7.3,3.8-7.3,3.8l7.4,1.8l-0.5-2.6l0.8,0.8
			C135.2,107.8,137.1,104.6,134.8,104.1z"/>
		<path id="XMLID_1133_" class="st19" d="M143.9,101.3c-2.8-1-5.8-1.5-8.9-1.5c-9.7,0-18.2,5.2-22.6,12.8l21.6,5.6l2.1-0.3
			l-14.5-3.7C126,106.6,134.3,101.4,143.9,101.3z"/>
		<g id="XMLID_1118_">
			<rect id="XMLID_1132_" x="131.7" y="117.7" class="st10" width="6.3" height="9.8"/>
			<path id="XMLID_1131_" class="st33" d="M135.4,122.2c0-0.3-0.2-0.5-0.5-0.5s-0.5,0.2-0.5,0.5c0,0.3,0.2,0.5,0.5,0.5
				S135.4,122.5,135.4,122.2z"/>
			<path id="XMLID_1130_" class="st10" d="M134.8,115c0,0-10.7-6-23.1-2.8L109,118c0.3,0,18.6-2.3,25.8,4.3V115z"/>
			<path id="XMLID_1129_" class="st12" d="M157.9,112.1c-12.4-3.2-23.1,2.8-23.1,2.8v7.4c7.3-6.6,25.6-4.3,25.8-4.3L157.9,112.1z"/>
			<path id="XMLID_1128_" class="st33" d="M135.4,125c0-0.3-0.2-0.5-0.5-0.5s-0.5,0.2-0.5,0.5c0,0.3,0.2,0.5,0.5,0.5
				S135.4,125.3,135.4,125z"/>
			<path id="XMLID_1127_" class="st33" d="M135.4,118.2c0-0.3-0.2-0.5-0.5-0.5s-0.5,0.2-0.5,0.5s0.2,0.5,0.5,0.5
				S135.4,118.5,135.4,118.2z"/>
			<path id="XMLID_1126_" class="st33" d="M130,116c0-0.3-0.2-0.5-0.5-0.5s-0.5,0.2-0.5,0.5s0.2,0.5,0.5,0.5S130,116.3,130,116z"/>
			<path id="XMLID_1125_" class="st33" d="M124.8,114.8c0-0.3-0.2-0.5-0.5-0.5s-0.5,0.2-0.5,0.5s0.2,0.5,0.5,0.5
				S124.8,115.1,124.8,114.8z"/>
			<path id="XMLID_1124_" class="st33" d="M119.6,114.3c0-0.3-0.2-0.5-0.5-0.5s-0.5,0.2-0.5,0.5s0.2,0.5,0.5,0.5
				S119.6,114.6,119.6,114.3z"/>
			<path id="XMLID_1123_" class="st33" d="M114.4,114.7c0-0.3-0.2-0.5-0.5-0.5s-0.5,0.2-0.5,0.5s0.2,0.5,0.5,0.5
				S114.4,115,114.4,114.7z"/>
			<path id="XMLID_1122_" class="st33" d="M140.5,116c0-0.3-0.2-0.5-0.5-0.5s-0.5,0.2-0.5,0.5s0.2,0.5,0.5,0.5
				S140.5,116.3,140.5,116z"/>
			<path id="XMLID_1121_" class="st33" d="M145.8,114.8c0-0.3-0.2-0.5-0.5-0.5s-0.5,0.2-0.5,0.5s0.2,0.5,0.5,0.5
				S145.8,115.1,145.8,114.8z"/>
			<path id="XMLID_1120_" class="st33" d="M150.9,114.3c0-0.3-0.2-0.5-0.5-0.5s-0.5,0.2-0.5,0.5s0.2,0.5,0.5,0.5
				S150.9,114.6,150.9,114.3z"/>
			<path id="XMLID_1119_" class="st33" d="M156.2,114.7c0-0.3-0.2-0.5-0.5-0.5s-0.5,0.2-0.5,0.5s0.2,0.5,0.5,0.5
				S156.2,115,156.2,114.7z"/>
		</g>
		
			<ellipse id="XMLID_1117_" transform="matrix(0.3801 -0.925 0.925 0.3801 -15.3224 190.6913)" class="st12" cx="134.6" cy="106.8" rx="2.8" ry="2.8"/>
		<path id="XMLID_1116_" class="st11" d="M135.1,109.6c0.4-0.5,0.6-1.1,0.6-1.7c0-1.6-1.3-2.8-2.8-2.8c-0.2,0-0.3,0-0.5,0
			c-0.4,0.5-0.6,1.1-0.6,1.7c0,1.6,1.3,2.8,2.8,2.8C134.8,109.6,134.9,109.6,135.1,109.6z"/>
		<path id="XMLID_1115_" class="st6" d="M178,277c0,0,15,11.7,42.3-1.8c0,0-15-30.1-10.4-42l-17,0.7c0,0,1.2,13-0.5,27.2
			C190.8,275.3,178,277,178,277z"/>
		<path id="XMLID_1114_" class="st7" d="M178,277c0,0,6.2,4.8,17.8,4.7c1-1.1,1.9-2.3,2.8-3.7c11.7-17.7,3.5-41.3,2.3-44.4l-8,0.3
			c0,0,1.2,13-0.5,27.2C190.8,275.3,178,277,178,277z"/>
		<polygon id="XMLID_1113_" class="st34" points="52.5,230.4 52.5,238.3 214.9,234.9 215.3,230.4 		"/>
		<polygon id="XMLID_1112_" class="st35" points="52.5,230.4 52.5,232.1 215.2,232.1 215.3,230.4 		"/>
		<path id="XMLID_1111_" class="st15" d="M101.4,230.3c0.5,0,0.9,0.1,1.3,0.2c0-0.9-0.2-4.3-4.4-4.5l-12.6-1.2l2.3,13.8h3.2v0.6
			l3.9,0.2v0.5l5.3-0.1l0.3-2.6c0,0,0,0-0.1-0.1c-1.7-0.4-2.9-1.7-2.9-3.4C97.6,231.9,99.3,230.3,101.4,230.3z"/>
		<path id="XMLID_1110_" class="st15" d="M170.7,235.7c-0.2,0.2-0.3,0.3-0.3,0.3l0.3,2.2l5.3,0.1v-0.4l3.9-0.1v-0.5h3.2l2.3-11.8
			l-12.6,1c-4.6,0.1-4.5,3.7-4.4,4c0.3-0.1,0.7-0.1,1-0.1c2.1,0,3.9,1.3,3.9,2.8C173.3,234.3,172.2,235.3,170.7,235.7z"/>
		<rect id="XMLID_1109_" x="191.3" y="229" class="st7" width="20.3" height="7.9"/>
		<g id="XMLID_1104_">
			<path id="XMLID_1108_" class="st7" d="M96.9,200.7l-19.8,0.4c2.7,10.2,5.9,19.5,9.4,24.2l11.5,0.1
				C97.7,221.9,97.1,212,96.9,200.7z"/>
			<path id="XMLID_1107_" class="st6" d="M97.7,203.5c1.1,0,2-0.9,2-2v-0.9c0-1.1-0.9-2-2-2H76.7c-1.1,0-2,0.9-2,2v0.9
				c0,1.1,0.9,2,2,2H97.7z"/>
			<path id="XMLID_1106_" class="st6" d="M98,228.4c1.1,0,2-0.9,2-2v-0.9c0-1.1-0.9-2-2-2H85.3c-1.1,0-2,0.9-2,2v0.9
				c0,1.1,0.9,2,2,2H98z"/>
			<path id="XMLID_1105_" class="st6" d="M89,218.3l2.9-5.3l4.2,4.5l1.3-2.1c-0.1-1.6-0.1-3.4-0.2-5.2l-1.9,3.2l-3.5-5L88,214
				l-4.6-4.9l-2.9,3.6c0.5,1.5,1,3,1.6,4.3l2.1-3.2L89,218.3z"/>
		</g>
		<g id="XMLID_1099_">
			<path id="XMLID_1103_" class="st7" d="M174.3,200.7c-0.2,11.3-0.8,21.2-1,24.7l11.5-0.1c3.4-4.7,6.6-14,9.4-24.2L174.3,200.7z"/>
			<path id="XMLID_1102_" class="st6" d="M194.5,203.5c1.1,0,2-0.9,2-2v-0.9c0-1.1-0.9-2-2-2h-21.1c-1.1,0-2,0.9-2,2v0.9
				c0,1.1,0.9,2,2,2H194.5z"/>
			<path id="XMLID_1101_" class="st6" d="M185.9,228.4c1.1,0,2-0.9,2-2v-0.9c0-1.1-0.9-2-2-2h-12.7c-1.1,0-2,0.9-2,2v0.9
				c0,1.1,0.9,2,2,2H185.9z"/>
			<path id="XMLID_1100_" class="st6" d="M182.2,218.3l4.7-4.5l2.1,3.2c0.5-1.4,1.1-2.8,1.6-4.3l-2.9-3.6l-4.6,4.9l-3.7-5.8l-3.5,5
				l-1.9-3.2c-0.1,1.9-0.1,3.6-0.2,5.2l1.3,2.1l4.2-4.5L182.2,218.3z"/>
		</g>
		<polygon id="XMLID_1098_" class="st35" points="49.1,228.4 49.1,241.2 62.8,240.6 62.8,228.6 		"/>
	</g>
</g>
</svg>
