<?xml version="1.0" encoding="utf-8"?>
<!-- Generator: Adobe Illustrator 22.0.0, SVG Export Plug-In . SVG Version: 6.00 Build 0)  -->
<svg version="1.1" id="Layer_1" xmlns="http://www.w3.org/2000/svg" xmlns:xlink="http://www.w3.org/1999/xlink" x="0px" y="0px"
	 viewBox="0 0 245.9 350.1" style="enable-background:new 0 0 245.9 350.1;" xml:space="preserve">
<style type="text/css">
	.st0{opacity:0.15;fill:#010101;}
	.st1{fill:#C8C8C8;}
	.st2{fill:#BC1F37;}
	.st3{fill:#010101;}
	.st4{fill:#D5AF29;}
	.st5{fill:#604330;}
	.st6{fill:#765640;}
	.st7{fill:#BB992F;}
	.st8{fill:#F5CB21;}
	.st9{fill:#A41E22;}
	.st10{fill:#B5B0B0;}
	.st11{fill:#8F6D56;}
	.st12{fill:#E0DBDA;}
	.st13{fill:#333232;}
	.st14{fill:#A0852F;}
	.st15{fill:#F7CD1D;}
	.st16{fill:#A5846D;}
	.st17{opacity:0.41;fill:#125478;}
	.st18{fill:#FFFFFF;}
	.st19{fill:#6E2A28;}
	.st20{fill:#863E39;}
	.st21{fill:#F0EFEF;}
	.st22{fill:#125478;}
	.st23{fill:#B69730;}
	.st24{fill:#A08A30;}
	.st25{fill:#C1B993;}
	.st26{fill:#A09772;}
	.st27{fill:#857D5E;}
	.st28{fill:#71684A;}
</style>
<g>
	<path class="st0" d="M208.5,312.7c0,3.5-25.6,6.4-57.1,6.4c-31.5,0-57.1-2.8-57.1-6.4c0-3.5,25.6-6.3,57.1-6.3
		C182.9,306.4,208.5,309.2,208.5,312.7z"/>
	<g>
		<polygon class="st1" points="174.6,270 63.6,273.9 44.7,73.2 192.4,61.5 		"/>
		<path class="st1" d="M223.4,60.2c-4.8,0-11.5,0.2-19.8,0.5c0-0.5,0.1-0.9,0.1-1.3c0-0.6,0.1-1.1,0.1-1.6
			c7.9-0.9,12.5-1.4,12.4-1.6c0-0.2-4.6,0-12.4,0.6c0-0.4,0-0.7,0-1c0-0.9-0.1-1.3-0.3-1.4c-0.2,0-0.4,0.4-0.6,1.3
			c-0.1,0.3-0.2,0.7-0.3,1.1c-2.5,0.2-5.2,0.4-8.2,0.6c0.2-4.4,0.2-6.9,0-6.9c-0.3,0-0.8,2.5-1.6,7c-0.1,0-0.1,0-0.2,0
			c-7.3,0.6-15.9,1.3-25.6,2.2c-9.6,0.9-20.2,1.8-31.3,2.9c-11.1,1.1-21.6,2.1-31.2,3c-9.6,1-18.2,1.8-25.5,2.6
			c-14.5,1.5-23.5,2.5-23.4,2.8c0,0.3,9.1-0.3,23.6-1.4c7.3-0.6,15.9-1.3,25.6-2.2c9.6-0.9,20.2-1.8,31.3-2.9
			c11.1-1,21.6-2.1,31.2-3c9.5-0.9,18.1-1.8,25.3-2.6c-0.1,0.7-0.2,1.5-0.4,2.3c-7,0.4-14.6,0.8-22.9,1.4c-12.1,0.8-25.5,1.9-39.4,3
			c-14,1.2-27.3,2.3-39.4,3.4c-12.1,1-23,2-32.1,2.8c-4.9,0.4-9.2,0.8-13,1.1c-0.2-1.1-0.3-2.1-0.4-3.1c-0.8-5.5-1.4-8.5-1.7-8.4
			c-0.3,0-0.3,3.1-0.1,8.6c0,1,0.1,2,0.2,3.1c-2.5,0.2-4.7,0.4-6.5,0.6c-1,0.1-2,0.2-2.8,0.3c0-0.1,0-0.2-0.1-0.3
			c-0.2-1.2-0.5-2.1-0.7-2.7c-0.2-0.6-0.5-1-0.6-0.9c-0.2,0-0.2,0.4-0.3,1c0,0.7,0,1.6,0,2.8c0,0.1,0,0.2,0,0.4
			c-2.2,0.3-3.4,0.5-3.4,0.7c0,0.2,1.2,0.3,3.4,0.3c0.1,1.2,0.1,2.5,0.2,3.9c-3,0.3-5.7,0.6-8.1,0.9c-6.2,0.7-10,1.2-10,1.5
			c0,0.3,3.9,0.2,10.2-0.1c2.4-0.1,5.1-0.3,8.1-0.5c0,0.7,0.1,1.4,0.2,2.1c0.3,3.5,0.6,6.7,0.9,9c0.3,2.3,0.6,3.7,0.9,3.7
			c0.3,0,0.6-1.4,0.7-3.8c0.1-2.3,0.1-5.6-0.2-9.1C35,82,35,81.3,34.9,80.6c0.2,0,0.4,0,0.6,0c2.6-0.2,5.3-0.4,8.2-0.7
			c0.2,3.9,0.5,8.4,0.9,13.3c1.3,19.6,3.4,46.7,6.1,76.6c2.7,29.9,5.5,57,7.9,76.5c0,0.3,0.1,0.7,0.1,1c-0.6,0.1-1.2,0.1-1.8,0.2
			c-0.4-3.1-0.8-6.6-1.2-10.6c-1.8-14.8-4.3-35.3-6.8-57.9c-1.3-11.3-2.5-22.1-3.5-31.9c-1-9.8-1.9-18.6-2.6-26
			c-1.4-14.8-2-24-2.4-24c-0.2,0-0.2,2.3-0.1,6.5c0.1,4.2,0.4,10.2,0.8,17.6c0.5,7.4,1.2,16.3,2.1,26.1c0.9,9.8,2,20.6,3.3,31.9
			c2.6,22.6,5.3,43,7.5,57.8c0.6,3.9,1.1,7.5,1.6,10.6c-0.5,0-1,0.1-1.5,0.2c-1.8,0.2-3.5,0.4-4.8,0.6c-1.4,0.2-2.5,0.4-3.2,0.6
			c-0.8,0.2-1.2,0.4-1.1,0.5c0,0.1,0.5,0.2,1.3,0.2c0.8,0,1.9,0,3.3,0c1.4,0,3-0.1,4.9-0.2c0.5,0,1-0.1,1.6-0.1
			c0.3,1.9,0.6,3.6,0.8,5.1c0.7,4.1,1.2,6.4,1.3,6.4c0.2,0,0-2.3-0.4-6.5c-0.2-1.5-0.3-3.2-0.5-5.1c0.6,0,1.2-0.1,1.9-0.1
			c1.1,8.4,2.1,15.3,3,20.2c0.3,1.4,0.5,2.7,0.7,3.8c-1.9,0.2-3.6,0.5-5,0.7c-3.5,0.5-5.4,1-5.4,1.2c0,0.3,2,0.3,5.6,0.3
			c1.5,0,3.3-0.1,5.3-0.1c0,0.1,0.1,0.3,0.1,0.4c0.4,1.4,0.6,2.2,0.8,2.1c0.2,0,0.2-0.8,0.1-2.2c0-0.1,0-0.2,0-0.4
			c1,0,2.1-0.1,3.2-0.1c0.2,1.4,0.4,2.5,0.5,3.3c0.2,1,0.3,1.6,0.5,1.6c0.2,0,0.3-0.6,0.4-1.6c0.1-0.8,0.1-2,0.1-3.3
			c1.3-0.1,2.7-0.1,4.1-0.2c6.4-0.3,13.9-0.7,22.3-1.1c2.9-0.1,5.9-0.3,8.9-0.4c-4.1,0.4-7.8,0.8-11.1,1.3
			c-5.1,0.6-9.2,1.2-12.1,1.7c-2.8,0.5-4.4,0.8-4.4,0.9c0,0.1,1.6,0.1,4.5-0.2c2.9-0.2,7-0.6,12.2-1.1c10.3-0.9,24.4-2.1,40.1-2.9
			c7.8-0.4,15.3-0.7,22.1-0.8c6.8-0.1,12.9-0.1,18.1-0.1c0.5,0,0.9,0,1.4,0c0,0.5,0,0.9,0,1.3c-2-0.1-4.3-0.2-6.8-0.2
			c-3.2-0.1-6.7-0.1-10.4,0c-3.7,0.1-7.2,0.2-10.4,0.4c-3.2,0.2-6.1,0.5-8.5,0.8c-2.4,0.3-4.3,0.7-5.6,0.9c-1.3,0.3-2,0.5-2,0.7
			c0,0.1,0.8,0.1,2.1,0.1c1.3-0.1,3.3-0.2,5.7-0.3c2.4-0.1,5.2-0.3,8.4-0.4c3.2-0.1,6.6-0.2,10.3-0.3c3.7-0.1,7.2-0.1,10.3-0.1
			c2.5,0,4.8-0.1,6.8-0.1c0.1,2.3,0.3,3.5,0.5,3.5c0.2,0,0.4-1.2,0.7-3.6c0.2,0,0.3,0,0.5,0c2.4,0,4.4-0.1,5.7-0.2
			c1.3-0.1,2.1-0.2,2.1-0.3c0-0.1-0.7-0.3-2.1-0.4c-1.3-0.1-3.3-0.3-5.7-0.4c-0.1,0-0.2,0-0.4,0c0-0.4,0.1-0.9,0.1-1.4
			c3.8,0.1,7,0.2,9.3,0.2c2.9,0.1,4.5,0.1,4.5-0.1c0-0.1-1.6-0.4-4.4-0.7c-2.3-0.2-5.4-0.5-9.2-0.7c0-0.1,0-0.3,0-0.4
			c4.3-0.2,7.9-0.4,10.5-0.5c3.6-0.2,5.5-0.5,5.5-0.8c0-0.3-2-0.5-5.5-0.7c-2.6-0.2-6.1-0.3-10.3-0.4c0.5-5.7,1.1-13.5,1.9-22.9
			c0.7-8.2,1.4-17.6,2.3-28c0.5,0,1.1,0,1.6,0c5.6,0,10.1-0.4,10.1-1c0-0.5-4.5-1-10.1-1c-0.5,0-1,0-1.4,0c0.2-2.1,0.4-4.2,0.5-6.3
			c1.2-13.6,2.4-28.6,3.8-44.4c1.5-16.8,2.8-32.8,4.1-47.1c0.5,0,1,0,1.6,0c-0.5,6.2-1,12.7-1.5,19.5c-1.4,18.5-2.6,35.2-3.5,47.3
			l-1,14.3c-0.1,1.7-0.2,3-0.3,3.9c0,0.9,0,1.4,0,1.4c0.1,0,0.2-0.4,0.4-1.3c0.2-0.9,0.4-2.2,0.7-3.9c0.5-3.4,1.1-8.3,1.8-14.3
			c1.3-12.1,2.7-28.8,4.1-47.3c0.5-6.8,1-13.4,1.5-19.7c0.6,0,1.2-0.1,1.9-0.1c3.5-0.2,6.7-0.4,9-0.7c2.3-0.3,3.7-0.6,3.7-0.8
			c0-0.3-1.5-0.4-3.8-0.5c-2.3-0.1-5.5-0.1-9.1,0.1c-0.5,0-1.1,0.1-1.6,0.1c0.1-1,0.1-1.9,0.2-2.9c0.8-0.1,1.5-0.2,2.2-0.3
			c1.9-0.3,3-0.7,3-1c0-0.3-1.2-0.4-3.1-0.4c-0.6,0-1.2,0-1.9,0c0.6-7.9,1.1-15.1,1.5-21.1l1-14.3l0.3-3.9c0.1-0.9,0.1-1.4,0-1.4
			c-0.1,0-0.3,0.4-0.5,1.3c-0.2,0.9-0.4,2.2-0.7,3.9c-0.5,3.4-1.1,8.3-1.7,14.3c-0.6,6.1-1.3,13.3-2,21.3c-0.5,0-1,0-1.6,0.1
			c0.8-10,1.6-19.1,2.3-27c0.6-7.8,1.1-14.5,1.5-19.8c2.6-0.2,5-0.4,7.3-0.6c-0.4,2.3-0.7,4.8-1.1,7.5c-0.6,4.6-1,8.9-1.1,11.9
			c-0.2,3.1-0.1,5,0.3,5c0.3,0,0.8-1.8,1.4-4.9c0.6-3,1.2-7.2,1.8-11.8c0.4-2.8,0.7-5.5,0.9-7.9c8.4-0.7,15.3-1.2,20.1-1.7
			c5.1-0.5,7.9-0.8,7.9-1.1C231.5,60.3,228.6,60.2,223.4,60.2z M35.3,78.8c-0.2,0-0.4,0-0.6,0.1c-0.2-1.3-0.3-2.6-0.5-3.7
			c0.8,0,1.7,0,2.7,0c1.9,0,4.1-0.1,6.5-0.1c0.1,0.9,0.1,1.9,0.2,2.9C40.7,78.2,37.9,78.5,35.3,78.8z M63.7,269.3
			c-0.4-4.9-0.9-11.9-1.6-20.3c0.8-0.1,1.7-0.2,2.4-0.2c0,1.1,0.1,2.2,0.2,3.4c0.2,2.4,0.4,5.1,0.7,7.8c0.5,4.9,1.1,9.3,1.6,12.7
			c-1,0.1-2,0.2-3,0.3C63.9,272,63.8,270.8,63.7,269.3z M175,270.9c-0.4,0-0.9,0-1.3-0.1c-0.6,0-1.2-0.1-1.8-0.1c0.1,0,0.2,0,0.3,0
			c1,0,1.9-0.1,2.8-0.1C175,270.8,175,270.8,175,270.9z M191.7,112.8c-0.1,0.9-0.2,1.9-0.2,2.8c-0.5,0-1.1,0.1-1.6,0.1
			c0.1-0.9,0.2-1.9,0.2-2.8C190.6,112.8,191.1,112.8,191.7,112.8z M189.2,83.7c-1,8-2,17.3-3.1,27.5c-2,0.2-3.7,0.3-5.1,0.5
			c-1.9,0.3-3,0.6-3,0.9c0,0.3,1.2,0.4,3.1,0.5c1.3,0.1,3,0.1,4.8,0c-0.1,1-0.2,2.1-0.3,3.1c-1.9,0.3-3.1,0.6-3.1,0.9
			c0,0.2,1.1,0.4,2.9,0.4c-1.5,14.3-3,30.1-4.5,46.8c-1.4,15.8-2.5,30.8-3.4,44.4c-0.2,2.3-0.3,4.5-0.4,6.7
			c-2.7,0.2-4.5,0.5-4.5,0.8c0,0.3,1.7,0.6,4.4,0.8c-0.7,10.4-1.2,19.8-1.5,28c-0.4,9.5-0.6,17.3-0.6,23c-0.9,0-1.9,0-2.8-0.1
			c-6.4-0.1-14-0.1-22.4,0c-8.4,0.1-17.7,0.3-27.4,0.7c-9.7,0.4-19,0.9-27.4,1.5c-8.4,0.6-16,1.3-22.3,1.9c-1.3,0.1-2.6,0.3-3.9,0.4
			c-0.2-3.5-0.6-7.9-1.1-12.7c-0.3-2.8-0.6-5.4-0.9-7.8l-0.4-3.5c1.8-0.2,3.3-0.5,4.7-0.7c1.4-0.3,2.5-0.5,3.2-0.8
			c0.7-0.2,1.1-0.4,1.1-0.6c0-0.1-0.5-0.2-1.3-0.2c-0.8,0-1.9,0.1-3.3,0.2c-1.3,0.1-2.9,0.2-4.6,0.3l-0.1-1.1
			c-0.2-1.8-0.4-3.3-0.5-4.3c-0.2-1-0.3-1.6-0.5-1.6c-0.2,0-0.3,0.6-0.4,1.6c-0.1,1-0.2,2.5-0.2,4.3c0,0.4,0,0.7,0,1.1
			c-0.8,0.1-1.7,0.1-2.6,0.2c0-0.3-0.1-0.6-0.1-1c-1.6-19.6-3.9-46.7-6.6-76.6c-2.7-29.9-5.3-57-7.5-76.6c-0.5-4.9-1.1-9.4-1.5-13.3
			c0.9-0.1,1.8-0.2,2.6-0.2c4.7-0.4,9.3-0.9,13.4-1.3c4.1-0.4,7.8-0.8,10.9-1.1c6.2-0.7,10-1.2,10-1.5c0-0.3-3.9-0.2-10.2,0.1
			c-3.1,0.2-6.8,0.4-11,0.7c-4.1,0.3-8.6,0.7-13.4,1.1c-0.9,0.1-1.8,0.2-2.6,0.2c-0.1-0.9-0.2-1.9-0.4-2.7c3.8-0.1,8.2-0.3,13-0.5
			c9.2-0.4,20.1-1.1,32.3-1.9c12.1-0.9,25.4-1.9,39.4-3.1c14-1.2,27.3-2.3,39.4-3.3c7.9-0.7,15.3-1.3,22-1.8
			C191,69.5,190.2,76.1,189.2,83.7z M201.6,60.8c-2.4,0.1-4.9,0.2-7.4,0.3c0.1-0.8,0.1-1.6,0.1-2.4c2.9-0.3,5.6-0.6,8-0.8
			c-0.1,0.4-0.2,0.8-0.3,1.3c-0.1,0.5-0.2,1-0.3,1.6C201.8,60.8,201.7,60.8,201.6,60.8z"/>
	</g>
	<g id="XMLID_1_">
		<path id="XMLID_745_" class="st2" d="M171.9,209.8c-4.7-0.9-9.6-1.9-10.4-2c-1-0.2-2.5-5.2-3.6-9.3l-20.1,0.3l-43.2,70.3l18.8-6.4
			l2.6,17.3l15.8-10.9l7.5,17.3l16.2-12l10.5,9.8l4.5-14.7l12.4,7.1C183,276.7,182.4,234.7,171.9,209.8z"/>
		<g id="XMLID_744_">
			<path id="XMLID_750_" class="st3" d="M178.7,234c-7.2-1.9-15.3-4.1-16-4.1c-0.7-0.1,9.6,7.2,17.4,12.7
				C179.7,239.8,179.3,236.9,178.7,234z"/>
			<path id="XMLID_752_" class="st3" d="M163.9,225.5l13.7,3c-0.3-1.3-0.6-2.6-0.9-3.9L163.9,225.5z"/>
		</g>
		<polygon id="XMLID_751_" class="st3" points="126.1,234.5 130,246.1 130.8,228.2 118.9,229.7 113.7,238.2 		"/>
		<path id="XMLID_742_" class="st3" d="M170.9,261.3l11.7,6.5c-0.2-3.8-0.6-8.5-1.1-13.8l-11.5-5.7c0,0-7.4,14.4-7.4,13.9
			s-5.7-10.9-5.7-10.9l-9.5,11.5c0,0-0.7-15-1.5-15c-0.8,0-20.9,10.7-20.9,9.4c0-1.3-0.8-11.9-0.8-11.9l-17,3.4l-7.4,12
			c7.5-2.5,18-6.2,18-6.2l2.2,15.5l19.7-10.4l4.3,16l11-11l9.2,11.2L170.9,261.3z"/>
		<g id="XMLID_763_">
			<path id="XMLID_760_" class="st4" d="M93.6,227.9c2.2,0.3,4.3-2.8,4.8-6.9c0.5-4.1-0.8-7.6-3-7.8c-2.2-0.3-4.3,2.8-4.8,6.9
				C90.1,224.2,91.4,227.7,93.6,227.9z M92,220.3c0.4-3,1.7-5.2,3.1-5.1c1.3,0.2,2.1,2.7,1.8,5.6c-0.4,3-1.7,5.2-3.1,5.1
				C92.5,225.8,91.7,223.2,92,220.3z"/>
			<path id="XMLID_764_" class="st4" d="M96.8,229.2c2.2,0.3,4.3-2.8,4.8-6.9c0.5-4.1-0.8-7.6-3-7.8c-2.2-0.3-4.3,2.8-4.8,6.9
				C93.3,225.4,94.7,228.9,96.8,229.2z M95.3,221.6c0.4-3,1.7-5.2,3.1-5.1c1.3,0.2,2.1,2.7,1.8,5.6c-0.4,3-1.7,5.2-3.1,5.1
				C95.7,227,94.9,224.5,95.3,221.6z"/>
			<path id="XMLID_756_" class="st5" d="M126.7,312.7c3.6-2.3,5-1.4,5-1.4s0.2-3.7-0.9-5l-4.2-3c-0.8,0.7-7.9,8.9-11.1,10.5
				C115.5,313.9,123.1,315,126.7,312.7z"/>
			<path id="XMLID_754_" class="st6" d="M178.7,228.8c-2.5,8.3-13.5,15-13.5,15l5-0.3l1,2c0,0,19.8-7.5,16.3-20.8
				c-3.5-13.3-28.6-22.1-29.8-22.3l3.3,12.7C161,215.1,181.2,220.5,178.7,228.8z"/>
			<path id="XMLID_753_" class="st5" d="M178.7,228.8c-2.5,8.3-13.5,15-13.5,15l5-0.3l1,2c0,0,1.7-0.6,4-1.9l-0.2-0.5l-5,0.3
				c0,0,11-6.8,13.5-15c2.5-8.3-17.7-13.7-17.7-13.7l-2.7-10.3c-3-1.2-5.1-1.9-5.4-2l3.3,12.7C161,215.1,181.2,220.5,178.7,228.8z"
				/>
			<g id="XMLID_694_">
				<path id="XMLID_749_" class="st4" d="M180.4,214.7c-1.4-1.2-2.9-2.3-4.4-3.3c-2.6,1.8-4.6,4.7-5.9,7.1c0.9,0.4,1.8,0.9,2.7,1.4
					C174.4,217,178,215.5,180.4,214.7z"/>
				<path id="XMLID_728_" class="st4" d="M176.9,223.1c3.5-1.3,6.6-1.7,9.2-1.7c-0.6-1.1-1.3-2.1-2.2-3.1c-3.1,0.4-6.3,1.7-8.9,3.2
					C175.7,221.9,176.3,222.5,176.9,223.1z"/>
			</g>
			<g id="XMLID_690_">
				<path id="XMLID_727_" class="st4" d="M180.4,214.7c-1.4-1.2-2.9-2.3-4.4-3.3c-2.6,1.8-4.6,4.7-5.9,7.1c0.9,0.4,1.8,0.9,2.7,1.4
					C174.4,217,178,215.5,180.4,214.7z"/>
				<path id="XMLID_723_" class="st7" d="M171.4,219.2C171.4,219.2,171.4,219.2,171.4,219.2c0.5,0.2,0.9,0.5,1.3,0.7c0,0,0,0,0,0
					c0.4-0.8,1-1.4,1.6-2c-1.1-0.5-2.1-0.9-3.1-1.3c-0.4,0.7-0.8,1.3-1.2,1.9c0,0,0,0,0,0C170.5,218.8,171,219,171.4,219.2z"/>
				<path id="XMLID_605_" class="st7" d="M175.5,221.9c0.3,0.3,0.6,0.5,0.9,0.8c0,0,0,0,0,0c0.1,0.1,0.3,0.3,0.4,0.4l0,0
					c1.4-0.5,2.7-0.9,4-1.1c-0.8-0.7-1.8-1.4-2.8-2c-1.1,0.5-2.1,1-3.1,1.5C175.2,221.5,175.3,221.7,175.5,221.9
					C175.5,221.8,175.5,221.8,175.5,221.9z"/>
			</g>
			<path id="XMLID_606_" class="st8" d="M175.4,249.7c0.4,0.6,1.1,0.8,1.8,0.5c0.6-0.4,0.8-1.1,0.5-1.8l-6.8-12
				c-0.4-0.6-1.1-0.8-1.8-0.5l0,0c-0.6,0.4-0.8,1.1-0.5,1.8L175.4,249.7z"/>
			<path id="XMLID_722_" class="st8" d="M171.9,251.4c0.3,0.7,1,1,1.7,0.7c0.7-0.3,1-1,0.7-1.7l-5.3-12.7c-0.3-0.7-1-1-1.7-0.7
				c-0.7,0.3-1,1-0.7,1.7L171.9,251.4z"/>
			<path id="XMLID_715_" class="st6" d="M116.8,229.8c15-1.3,32.6-19.3,32.6-19.3l-10.8-8.3c0,0-15.5,16.8-25.3,18.3
				c-9.8,1.5-23.6-8.3-23.6-8.3l-1.8,3C87.9,215.3,101.7,231.1,116.8,229.8z"/>
			<g id="XMLID_691_">
				<path id="XMLID_726_" class="st5" d="M116.8,229.8c15-1.3,32.6-19.3,32.6-19.3l-10.8-8.3c0,0-0.2,0.2-0.5,0.5l6.2,4.7
					c0,0-17.5,18.1-32.6,19.3c-4.9,0.4-9.7-1-13.9-3.1C103,227.3,109.7,230.4,116.8,229.8z"/>
			</g>
			<path id="XMLID_699_" class="st2" d="M114.4,160.7c0,0-9,4.4-5.9,14.7l3.8-3.6c0,0-5.9,14.8,5.8,17.2l1.6-5.4
				c0,0,0.7,13.8,14.8,12.4l-0.2-3.1c0,0,5.9,7.4,14.9,4.5c9-2.9,12.7-16.9,12.7-16.9l2.6-15.3c1.2-0.4,5.5-2.3,5.9-6.7
				c0.5-5.1-3.9-8.8-3.9-8.8c4.1-2.6,0.6-9.5-2.8-12.3s0.8-7.9,0.8-7.9c-3.4-0.2-5.6,0.7-7,2c-0.6-1.2-1.5-2.2-2.8-2.9
				c-5-2.6-4.2-6.8-4.2-6.8s-5.5,3.4-3.3,8c0,0-8.5-8.8-13.6-2.1s-10.7,2.6-10.7,2.6s-2.9,8.6,1.6,10.4c0,0-12.3-0.6-11.8,7.3
				c0.4,7.9-5.2,7.6-5.2,7.6S108.9,162.1,114.4,160.7z"/>
			<path id="XMLID_698_" class="st9" d="M114.4,160.7c0,0-9,4.4-5.9,14.7l3.8-3.6c0,0-5.9,14.8,5.8,17.2l1.6-5.4
				c0,0,0.3,7.1,5.8,10.6c9.7-6.3,24-16.6,24-16.6s4.3-4.4,4.8-11c0.5-6.6-5.4-9.7-5.4-9.7l0.6,3.5c0,0-8.6-2.5-7.5-6.4
				s-4.8-9.9-4.8-9.9l4.4,0.1c-1.9-4.4-5.9-3.3-11.9-4.1c-4.2-0.6-5.8-6.1-6.4-9.6c-0.3-0.1-0.4-0.3-0.4-0.3s-2.9,8.6,1.6,10.4
				c0,0-12.3-0.6-11.8,7.3c0.4,7.9-5.2,7.6-5.2,7.6S108.9,162.1,114.4,160.7z"/>
			<path id="XMLID_697_" class="st10" d="M116.1,171.4l3-4l1.4,5.8l3.1-2.5l6.8,9.9l-2.5,4.9l-6.1-8.9l-1.6,2.9l-2.3-4.3l-2.1,4
				l-2-4l-2.9,4.2c0,1.4,0.2,2.9,0.7,4.3l1.8-3.9l2.4,3.4l1.9-3l2.1,3.3l1.5-2.2l6,8.3l7.3-16.5l-5-10.3l-6.4,3.1l-2.1-5.6l-3.5,3.6
				l-2.8-5.4l-2.5,2.3c0.6,0.1,1.4,0.1,2.2-0.1c0,0-6.4,3.1-6.5,10.3l5.5-4.5L116.1,171.4z"/>
			<path id="XMLID_767_" class="st4" d="M123,209.3c5.1,0,9.2-4.1,9.2-9.2s-4.1-9.2-9.2-9.2c-5.1,0-9.2,4.1-9.2,9.2
				S118,209.3,123,209.3z M123,192.5c4.2,0,7.5,3.4,7.5,7.6c0,4.2-3.4,7.6-7.5,7.6c-4.2,0-7.5-3.4-7.5-7.6
				C115.5,195.9,118.9,192.5,123,192.5z"/>
			<path id="XMLID_770_" class="st4" d="M172.8,207.5c5.1,0,9.2-4.1,9.2-9.2c0-5.1-4.1-9.2-9.2-9.2c-5.1,0-9.2,4.1-9.2,9.2
				C163.7,203.4,167.8,207.5,172.8,207.5z M172.8,190.7c4.2,0,7.5,3.4,7.5,7.6c0,4.2-3.4,7.6-7.5,7.6s-7.5-3.4-7.5-7.6
				C165.3,194.1,168.7,190.7,172.8,190.7z"/>
			<circle id="XMLID_685_" class="st11" cx="123.3" cy="187.8" r="5.1"/>
			<circle id="XMLID_612_" class="st11" cx="172.9" cy="187.8" r="5.1"/>
			<g id="XMLID_507_">
				<path id="XMLID_611_" class="st6" d="M145.5,245.9c2.3-1.2,13.1,0.2,13.1,0.2l13.1,59.2l4.8-0.2c0,0-2.8-53.3-9.6-85.1
					c1.5-2.1,2.8-4.5,2.3-5.5c-0.6-1.2-3-3.1-4.7-4.3c-1.9-6.7-3.9-11.9-6.3-14.8l-20.1,4.7c0,0-11.3,67.2-12.8,104.8h5.4
					C130.9,304.9,143.2,247.1,145.5,245.9z"/>
			</g>
			<g id="XMLID_735_">
				<path id="XMLID_609_" class="st5" d="M172.2,293.3l-5.5-25.9l6.8-2.3c-0.3-3.5-0.7-7-1.1-10.6c-3.2,0.4-7.5,1.1-11.5,1.6
					l8.6,38.8L172.2,293.3z"/>
				<path id="XMLID_613_" class="st5" d="M144.4,248.2l-13.7,3.3c-1.6,12.7-3.2,26-4.2,38.1l11.9-18.4
					C140.7,261.3,143,252.2,144.4,248.2z"/>
			</g>
			<path id="XMLID_614_" class="st5" d="M143,245.9c0.5-0.3,1.6-0.4,2.9-0.4l-2.1-22.7l-9.2-1c-1.2,7.6-2.6,16.6-3.9,26.1
				c3-0.4,8.3-1,11.8-1.4C142.8,246.2,142.9,246,143,245.9z"/>
			<circle id="XMLID_651_" class="st5" cx="151.5" cy="238.8" r="1.1"/>
			<ellipse id="XMLID_682_" class="st5" cx="151.4" cy="241.1" rx="0.5" ry="1"/>
			<path id="XMLID_679_" class="st5" d="M143.5,235.3l4.9-4.4l5.2,3.7l3.7-3.8l6.5,2.8l2.7-4.3l2.6,1.4c-0.6-3.6-1.3-7.1-2-10.4
				c1.1-1.6,2.1-3.3,2.4-4.5c-1-0.9-2.3-1.7-3.4-2.4c-0.3-0.8-0.5-1.7-0.8-2.4c-0.2-0.1-0.4-0.3-0.5-0.4c-0.3-0.9-0.5-1.8-0.8-2.7
				c-4.1,2.8-15,9.2-28.4,9.1c-0.8,5.2-1.8,11.3-2.8,18l5-4.1L143.5,235.3z"/>
			<path id="XMLID_678_" class="st2" d="M162.6,200.9l-3.2,8.3c0.3,0.2,22.9,6.7,22.9,6.7L162.6,200.9z"/>
			<path id="XMLID_686_" class="st3" d="M162.5,207.6l12.9,3.3l-13.8-7.4l-1.2,3.1C161.7,207.3,162.5,207.7,162.5,207.6z"/>
			<g id="XMLID_510_">
				<path id="XMLID_687_" class="st12" d="M144.4,232.4l4.4-4.4l4.7,3.7l3.3-3.8l5.8,2.8l2.4-4.3l3.6,2.1c-0.5-2.8-1-5.6-1.6-8.3
					c1.5-2.1,2.8-4.5,2.3-5.5c-0.6-1.2-3-3.1-4.7-4.3c-0.6-2-1.1-3.9-1.8-5.6c-3.7,2.9-14.1,9.7-26.9,9.2c-0.9,5.4-2,12.1-3.1,19.5
					l6.1-5.6L144.4,232.4z"/>
			</g>
			<path id="XMLID_680_" class="st10" d="M144.4,232.4l4.4-4.4l0.5,0.4l0.3-4.8c0,0,5.1-3.9,5-5.7c-0.1-1.2-4.1-3.7-7-5.4
				c-3.5,1-7.4,1.6-11.5,1.4c-0.9,5.4-2,12.1-3.1,19.5l6.1-5.6L144.4,232.4z"/>
			<path id="XMLID_684_" class="st13" d="M186.9,264.2l0.1,0.1C186.9,264.3,186.9,264.2,186.9,264.2z"/>
			<g id="XMLID_506_">
				<g id="XMLID_15_">
					<path id="XMLID_608_" class="st4" d="M154.3,221.7c0.4,0,0.8,0,1.3-0.1c2.7-0.3,4.8-1.6,6.3-3.8c4.3-6.1,2.4-17.1,2.4-17.6
						l-2.1,0.4c0,0.1,1.8,10.6-2,15.8c-1.2,1.7-2.8,2.6-4.8,2.9c-4,0.5-10.3-2-17.7-16.4c-0.2-0.3-0.3-0.6-0.4-0.7
						c-0.5-0.9-1-0.9-1.4-0.8l0.7,2.2c-0.5,0.2-1-0.1-1.2-0.4c0.1,0.1,0.2,0.4,0.4,0.8C141.8,215.8,148,221.7,154.3,221.7z"/>
				</g>
				<g id="XMLID_17_">
					<path id="XMLID_689_" class="st14" d="M164.5,210.2l-2.2-0.3c0,0.2,0,0.3-0.1,0.5l2.2,0.3C164.5,210.6,164.5,210.4,164.5,210.2
						z"/>
					<path id="XMLID_729_" class="st14" d="M164.7,206.5l-2.2,0c0,0.2,0,0.3,0,0.5l2.2,0C164.7,206.9,164.7,206.7,164.7,206.5z"/>
					<path id="XMLID_730_" class="st14" d="M164.7,208.4l-2.2-0.1c0,0.2,0,0.3,0,0.5l2.2,0.2C164.7,208.7,164.7,208.5,164.7,208.4z"
						/>
					<path id="XMLID_738_" class="st14" d="M155.6,221.7c0.1,0,0.3,0,0.4-0.1l-0.3-2.3c-0.1,0-0.2,0-0.3,0l-0.1,0l0.2,2.3
						L155.6,221.7z"/>
					<path id="XMLID_740_" class="st14" d="M154.2,219.5c-0.1,0-0.3,0-0.4,0l-0.2,2.3c0.2,0,0.4,0,0.5,0L154.2,219.5z"/>
					<path id="XMLID_771_" class="st14" d="M157.8,221.1l-0.7-2.1c-0.1,0-0.3,0.1-0.4,0.1l0.6,2.2
						C157.5,221.2,157.7,221.2,157.8,221.1z"/>
					<path id="XMLID_772_" class="st14" d="M164.5,201.6c0-0.2,0-0.4-0.1-0.5l-2.2,0.3c0,0.1,0,0.3,0.1,0.5L164.5,201.6z"/>
					<path id="XMLID_773_" class="st14" d="M164.7,205.2c0-0.2,0-0.4,0-0.5l-2.2,0.1c0,0.2,0,0.3,0,0.5L164.7,205.2z"/>
					<path id="XMLID_774_" class="st14" d="M159.6,220.2l-1.2-1.9c-0.1,0.1-0.2,0.2-0.4,0.2l1.1,2
						C159.3,220.4,159.4,220.3,159.6,220.2z"/>
					<path id="XMLID_775_" class="st14" d="M162.3,217.4l-1.8-1.3c-0.1,0.1-0.2,0.2-0.2,0.4l1.8,1.4
						C162.1,217.7,162.2,217.5,162.3,217.4z"/>
					<path id="XMLID_776_" class="st14" d="M161.1,218.9l-1.6-1.6c-0.1,0.1-0.2,0.2-0.3,0.3l1.5,1.7
						C160.8,219.2,160.9,219.1,161.1,218.9z"/>
					<path id="XMLID_777_" class="st14" d="M163.2,215.7l-2-0.9c-0.1,0.1-0.1,0.3-0.2,0.4l1.9,1C163,216,163.1,215.8,163.2,215.7z"
						/>
					<path id="XMLID_778_" class="st14" d="M164.6,203.4c0-0.2,0-0.4,0-0.5l-2.2,0.2c0,0.2,0,0.3,0,0.5L164.6,203.4z"/>
					<path id="XMLID_779_" class="st14" d="M164.2,212l-2.1-0.5c0,0.2-0.1,0.3-0.1,0.5l2.1,0.5C164.2,212.4,164.2,212.2,164.2,212z"
						/>
					<path id="XMLID_780_" class="st14" d="M152.7,219.3c-0.1,0-0.3-0.1-0.4-0.1l-0.5,2.2c0.2,0,0.3,0.1,0.5,0.1L152.7,219.3z"/>
					<path id="XMLID_781_" class="st14" d="M163.8,213.9l-2.1-0.7c0,0.2-0.1,0.3-0.1,0.4l2.1,0.7C163.7,214.2,163.7,214,163.8,213.9
						z"/>
					<path id="XMLID_782_" class="st14" d="M146,215.2c-0.1-0.1-0.2-0.2-0.3-0.3l-1.5,1.6c0.1,0.1,0.2,0.2,0.4,0.4L146,215.2z"/>
					<path id="XMLID_783_" class="st14" d="M147.2,216.3c-0.1-0.1-0.2-0.2-0.4-0.3l-1.4,1.7c0.1,0.1,0.3,0.2,0.4,0.3L147.2,216.3z"
						/>
					<path id="XMLID_784_" class="st14" d="M143.7,212.7c-0.1-0.1-0.2-0.3-0.3-0.4l-1.7,1.4c0.1,0.1,0.2,0.3,0.3,0.4L143.7,212.7z"
						/>
					<path id="XMLID_785_" class="st14" d="M144.8,214c-0.1-0.1-0.2-0.2-0.3-0.4l-1.6,1.5c0.1,0.1,0.2,0.3,0.3,0.4L144.8,214z"/>
					<path id="XMLID_786_" class="st14" d="M135.6,203.5c-0.1-0.1-0.2-0.2-0.2-0.2C135.4,203.4,135.4,203.4,135.6,203.5L135.6,203.5
						z"/>
					<path id="XMLID_787_" class="st14" d="M148.5,217.3c-0.1-0.1-0.2-0.2-0.4-0.3l-1.3,1.9c0.1,0.1,0.3,0.2,0.4,0.3L148.5,217.3z"
						/>
					<path id="XMLID_788_" class="st14" d="M149.8,218.2c-0.1-0.1-0.3-0.1-0.4-0.2l-1.1,2c0.2,0.1,0.3,0.2,0.5,0.3L149.8,218.2z"/>
					<path id="XMLID_789_" class="st14" d="M139.9,207.1c-0.1-0.1-0.2-0.3-0.2-0.4l-1.9,1.2c0.1,0.1,0.2,0.3,0.3,0.4L139.9,207.1z"
						/>
					<path id="XMLID_790_" class="st14" d="M139,205.6c-0.1-0.1-0.2-0.3-0.2-0.4l-1.9,1.1c0.1,0.1,0.2,0.3,0.2,0.4L139,205.6z"/>
					<path id="XMLID_791_" class="st14" d="M136.2,201.5v1.7l1.2-0.7C137.2,202,136.9,201.5,136.2,201.5z"/>
					<path id="XMLID_792_" class="st14" d="M138.2,204c-0.1-0.2-0.2-0.3-0.2-0.4l-1.9,1.1c0.1,0.1,0.2,0.3,0.2,0.5L138.2,204z"/>
					<path id="XMLID_793_" class="st14" d="M142.7,211.4c-0.1-0.1-0.2-0.3-0.3-0.4l-1.7,1.4c0.1,0.1,0.2,0.3,0.3,0.4L142.7,211.4z"
						/>
					<path id="XMLID_794_" class="st14" d="M141.7,210c-0.1-0.1-0.2-0.3-0.3-0.4l-1.8,1.3c0.1,0.1,0.2,0.3,0.3,0.4L141.7,210z"/>
					<path id="XMLID_795_" class="st14" d="M140.8,208.5c-0.1-0.1-0.2-0.3-0.3-0.4l-1.8,1.2c0.1,0.1,0.2,0.3,0.3,0.4L140.8,208.5z"
						/>
					<path id="XMLID_796_" class="st14" d="M151.2,218.8c-0.1-0.1-0.3-0.1-0.4-0.2l-0.8,2.1c0.2,0.1,0.3,0.1,0.5,0.2L151.2,218.8z"
						/>
				</g>
			</g>
			<path id="XMLID_797_" class="st14" d="M153.8,209.3c12.7-2.9,13.7-12.4,13.7-12.4l-33.8,4.4C133.7,201.2,141.2,212.1,153.8,209.3
				z"/>
			<path id="XMLID_604_" class="st15" d="M152.1,203.3l0.6,0.1C152.6,203.3,152.4,203.3,152.1,203.3z"/>
			<path id="XMLID_798_" class="st2" d="M141.8,213.1c5.6-4.3,5.8-8.3,5.8-8.3s3.1-1.4,4.6-1.5l-16.1-1.5l-12.4,13.5
				C123.7,215.3,136.2,217.3,141.8,213.1z"/>
			<g id="XMLID_746_">
				<path id="XMLID_739_" class="st3" d="M152.1,203.3l0.6,0.1C152.6,203.3,152.4,203.3,152.1,203.3z"/>
				<path id="XMLID_747_" class="st3" d="M135.7,212.5c4.5-0.9,8.3-7.1,8.3-7.1l4.1-0.7c0.9-0.4,3-1.2,4.1-1.3l-13.2-1.3
					c-0.1,0.4-0.1,0.7-0.2,1.1c-1,8.1-12.2,9.4-12.2,9.4S131.1,213.4,135.7,212.5z"/>
			</g>
			<path id="XMLID_748_" class="st16" d="M149.8,206.8c14.3,0,26-7.8,26-21.5c0-8.4-4.4-15.8-11-20.3c-0.1,0-0.1,0-0.2,0
				c0.1,0.1,0.1,0.1,0.1,0.1s-2.2-1.3-3.7,6.7c-1.5,7.9-10.5,4.8-10.5,4.8s-1.1-4.2-5.7-7.8c-2-1.6-6.1-2.8-10-3.7
				c-6.6,4.5-10.9,11.9-10.9,20.2C123.9,199,135.5,206.8,149.8,206.8z"/>
			<path id="XMLID_603_" class="st11" d="M149.8,206.8c2.6,0,5.1-0.3,7.4-0.7c-10.7-2.2-18.6-9.5-18.6-20.8c0-6.2,2.4-11.9,6.4-16.3
				c-0.1-0.1-0.2-0.1-0.3-0.2c-2-1.6-6.1-2.8-10-3.7c-6.6,4.5-10.9,11.9-10.9,20.2C123.9,199,135.5,206.8,149.8,206.8z"/>
			<path id="XMLID_602_" class="st17" d="M133.4,185.9c2.6,0,4.7-2.2,4.7-5c0-2.7-2.1-5-4.7-5c-2.6,0-4.7,2.2-4.7,5
				C128.7,183.7,130.8,185.9,133.4,185.9z"/>
			<path id="XMLID_519_" class="st17" d="M167.4,185.9c2.6,0,4.7-2.2,4.7-5c0-2.7-2.1-5-4.7-5c-2.6,0-4.7,2.2-4.7,5
				C162.6,183.7,164.7,185.9,167.4,185.9z"/>
			<path id="XMLID_520_" class="st6" d="M151.1,201.7c8.3,0,15-4.8,15-10.7c0-0.7-0.1-1.3-0.3-2c-4.5-0.5-9.5-0.8-14.6-0.8
				c-5.3,0-10.3,0.3-14.9,0.9c-0.2,0.6-0.2,1.3-0.2,1.9C136.1,196.9,142.8,201.7,151.1,201.7z"/>
			<path id="XMLID_521_" class="st18" d="M150.9,200.5c8,0,14.4-4.1,14.4-9.1c0-0.6-0.1-1.1-0.2-1.7c-4.3-0.5-9.1-0.7-14.1-0.7
				c-5.1,0-9.9,0.3-14.3,0.7c-0.2,0.5-0.2,1.1-0.2,1.6C136.5,196.4,142.9,200.5,150.9,200.5z"/>
			<path id="XMLID_522_" class="st18" d="M150.9,200.5c8,0,14.4-4.1,14.4-9.1c0-0.6-0.1-1.1-0.2-1.7c-4.3-0.5-9.1-0.7-14.1-0.7
				c-5.1,0-9.9,0.3-14.3,0.7c-0.2,0.5-0.2,1.1-0.2,1.6C136.5,196.4,142.9,200.5,150.9,200.5z"/>
			<path id="XMLID_523_" class="st19" d="M150.9,200.5c7.3,0,13.4-3.5,14.3-7.9c-4.4-0.3-9.2-0.5-14.2-0.5c-5,0-9.9,0.2-14.4,0.5
				C137.5,197,143.5,200.5,150.9,200.5z"/>
			<path id="XMLID_524_" class="st3" d="M133.4,186c1.8,0,3.3-1.5,3.3-3.3c0-1.8-1.5-3.3-3.3-3.3s-3.3,1.5-3.3,3.3
				C130.1,184.5,131.6,186,133.4,186z"/>
			<path id="XMLID_525_" class="st3" d="M136.2,177.3c-0.6-0.9-1.6-1.5-2.8-1.5c-1.2,0-2.2,0.6-2.8,1.5c0.9-0.2,1.8-0.3,2.8-0.3
				C134.4,177.1,135.3,177.2,136.2,177.3z"/>
			<path id="XMLID_526_" class="st3" d="M167.5,185.7c1.8,0,3.3-1.5,3.3-3.3c0-1.8-1.5-3.3-3.3-3.3s-3.3,1.5-3.3,3.3
				C164.2,184.2,165.6,185.7,167.5,185.7z"/>
			<path id="XMLID_527_" class="st3" d="M170.2,177.1c-0.6-0.9-1.6-1.5-2.8-1.5c-1.2,0-2.2,0.6-2.8,1.5c0.9-0.2,1.8-0.3,2.8-0.3
				C168.5,176.8,169.4,176.9,170.2,177.1z"/>
			<path id="XMLID_528_" class="st6" d="M154.8,185.7c-0.3-1.6-1.6-2.8-3.3-2.8c-1.6,0-3,1.2-3.3,2.8c0.9-0.5,2-0.9,3.3-0.9
				C152.8,184.8,154,185.2,154.8,185.7z"/>
			<path id="XMLID_529_" class="st20" d="M150.9,200.5c3.7,0,7-0.9,9.5-2.3c-1.6-2.6-7.3-4.5-14.2-4.5c-3.2,0-6.2,0.4-8.7,1.1
				C139.7,198.1,144.9,200.5,150.9,200.5z"/>
			<path id="XMLID_530_" class="st6" d="M130.8,193.2c1.1,0,2-0.9,2-2c0-1.1-0.9-2-2-2s-2,0.9-2,2
				C128.8,192.3,129.7,193.2,130.8,193.2z"/>
			<circle id="XMLID_531_" class="st11" cx="169.9" cy="190.9" r="2"/>
			<path id="XMLID_532_" class="st21" d="M136.8,208.6c0.1,0,0.1,0,0.1,0C136.9,208.6,136.9,208.6,136.8,208.6z"/>
			<path id="XMLID_533_" class="st10" d="M136.8,208.6c0.1,0,0.1,0,0.1,0C136.9,208.6,136.9,208.6,136.8,208.6z"/>
			<path id="XMLID_534_" class="st22" d="M145.1,186.7l0.4,0l0.1-0.4c0-0.1,0.9-3,4.3-4.2c1.3-0.4,2.5-0.4,3.8,0.2
				c1.6,0.8,3,2.5,3.6,4.3l0.1,0.4l0.4,0c0.1,0,10.3,0.5,17.7,2c0.1-0.4,0.1-0.8,0.2-1.2c-6.7-1.4-15.4-1.8-17.4-2
				c-0.7-2-2.3-3.7-4.1-4.6c-1.5-0.8-3.2-0.9-4.7-0.3c-3.2,1.1-4.5,3.6-4.9,4.6c-8.1,0.5-16.4,2.5-20.4,3.5c0.1,0.4,0.1,0.8,0.2,1.2
				C128.3,189.1,136.9,187.1,145.1,186.7z"/>
			<path id="XMLID_535_" class="st2" d="M144.4,232.4l4.4-4.4l4.7,3.7l3.3-3.8l5.8,2.8l2.4-4.3l3.6,2.1c-0.1-0.8-0.3-1.6-0.4-2.4
				l-4.2-2.1l-1.8,4.1l-5.9-2.9l-2.9,4.1l-4.8-4.1l-4.3,4.9l-5.7-4.6l-5.3,5c-0.2,1-0.3,2.1-0.5,3.1l6.1-5.6L144.4,232.4z"/>
			<polygon id="XMLID_518_" class="st12" points="142.5,276.3 154.1,267.4 154.1,271.1 166.7,262.4 166.4,265.3 173.9,260.5 
				170.9,241.1 131.2,240.9 125.7,284.5 140.6,272.3 			"/>
			<path id="XMLID_517_" class="st10" d="M142.5,276.3l7.6-5.8c-5.2-5.4-5.3-17-5.3-17l8.4,2.9l-2.3-3.1l14.5,5.8l-1.9-4.4l10,3.2
				l-2.5-16.4l-11.1-0.5l-28.7-0.2l-5.5,43.6l14.9-12.2L142.5,276.3z"/>
			<path id="XMLID_538_" class="st2" d="M142.5,276.3l11.7-8.9v3.6l12.5-8.6l-0.3,2.9l7.5-4.8l-0.2-1.4l-5.3,2.7l0.4-3.4l-12.5,9.4
				l-0.3-5.4l-12.5,10.5l-2.6-5.1c0,0-8.9,7.6-14.6,12.3l-0.6,4.4l14.9-12.2L142.5,276.3z"/>
			<polygon id="XMLID_539_" class="st2" points="136.3,246.7 149,252.9 147.9,249.1 163.5,257.1 162.1,252.9 173.7,258.8 
				170.9,241.1 131.2,240.9 130.4,247.2 137.6,250.8 			"/>
			<path id="XMLID_541_" class="st12" d="M133,243.1l13,5.8l-1.7-4l15.5,7.5l-1.9-4.3l15.3,6.9l-2.2-13.9l-39.7-0.3l-0.5,3.9
				c1.9,1.1,3.5,2,3.5,2L133,243.1z"/>
			<circle id="XMLID_564_" class="st4" cx="152.6" cy="238.4" r="1.1"/>
			<ellipse id="XMLID_571_" class="st4" cx="152.6" cy="240.7" rx="0.5" ry="1"/>
			<path id="XMLID_589_" class="st4" d="M130.6,225l-5.7-10.4c-1.5,1.1-3.1,2.2-4.7,3.1l5.8,9.6C127.6,226.6,129.1,225.9,130.6,225z
				"/>
			<path id="XMLID_590_" class="st7" d="M126,227.3c0.4-0.2,0.7-0.3,1.1-0.5c0,0,0.1,0,0.1-0.1c1.1-0.5,2.3-1.1,3.4-1.7l-2.5-4.6
				c-1.5,0.9-3,1.8-4.6,2.6L126,227.3L126,227.3z"/>
			<path id="XMLID_591_" class="st4" d="M120.1,229.3l-3.1-9.9c-0.8,0.3-1.6,0.6-2.3,0.8l3,9.5C118.4,229.6,119.2,229.5,120.1,229.3
				z"/>
			<path id="XMLID_592_" class="st7" d="M120.1,229.3L120.1,229.3l-1.3-4.2c-0.8,0.3-1.6,0.5-2.3,0.8l1.2,3.8
				C118.4,229.6,119.2,229.5,120.1,229.3z"/>
			<path id="XMLID_601_" class="st7" d="M131.7,309.2v-3.4l3-14.8l-10.3-6l0.1,20.3C124.5,305.3,131.4,306.9,131.7,309.2z"/>
			<path id="XMLID_607_" class="st4" d="M131.7,309.2v-3.4l3-14.8l-5.3-3.1c-0.3,5.1-0.7,12.6-1.1,18.6
				C130,307.2,131.6,308.1,131.7,309.2z"/>
			<path id="XMLID_610_" class="st6" d="M174.6,312.7c3.6,2.3,11.2,1.1,11.2,1.1c-3.2-1.6-10.3-9.8-11.1-10.5l-4.2,3
				c-1.1,1.3-0.9,5-0.9,5S171,310.5,174.6,312.7z"/>
			<path id="XMLID_615_" class="st7" d="M169.7,309.2c0.3-2.3,7.1-3.9,7.1-3.9l0.1-20.3l-10.3,6l3,14.8V309.2z"/>
			<path id="XMLID_671_" class="st4" d="M169.7,309.2c0.1-1.1,1.7-2,3.4-2.7c-0.3-6.1-0.8-13.5-1.1-18.6l-5.3,3.1l3,14.8V309.2z"/>
			<path id="XMLID_672_" class="st23" d="M93.6,227.9c1.7,0.2,3.3-1.5,4.2-4.2c-0.4-0.3-0.9-0.6-1.3-0.9c-0.6,1.9-1.6,3.2-2.7,3.1
				c-1.3-0.2-2.1-2.7-1.8-5.6c0.4-3,1.7-5.2,3.1-5.1c0.5,0.1,0.9,0.4,1.2,1c0.6,0.3,1.3,0.7,2,1c-0.4-2.2-1.5-3.8-2.9-4
				c-2.2-0.3-4.3,2.8-4.8,6.9C90.1,224.2,91.4,227.7,93.6,227.9z"/>
			<path id="XMLID_673_" class="st4" d="M96.8,229.2c1.4,0.2,2.8-1,3.7-3c-0.5-0.2-1-0.3-1.5-0.5c-0.6,1-1.3,1.6-2,1.5
				c-1.3-0.2-2.1-2.7-1.8-5.6c0.4-3,1.7-5.2,3.1-5.1c0.6,0.1,1,0.6,1.4,1.4c0.6,0.3,1.2,0.5,1.8,0.8c-0.4-2.3-1.5-3.9-2.9-4.1
				c-2.2-0.3-4.3,2.8-4.8,6.9C93.3,225.4,94.7,228.9,96.8,229.2z"/>
			<g id="XMLID_743_">
				<path id="XMLID_802_" class="st24" d="M80,178.1c0,2.1,2.7,3.9,6,3.9c3.3,0,6-1.7,6-3.9c0-2.1-2.7-3.9-6-3.9
					C82.7,174.2,80,175.9,80,178.1z M89.8,178.1c0,1-1.7,1.9-3.8,1.9c-2.1,0-3.8-0.8-3.8-1.9c0-1,1.7-1.9,3.8-1.9
					C88.1,176.2,89.8,177,89.8,178.1z"/>
				<path id="XMLID_799_" class="st24" d="M80,189.6c0,2.1,2.7,3.9,6,3.9c3.3,0,6-1.7,6-3.9c0-2.1-2.7-3.9-6-3.9
					C82.7,185.7,80,187.4,80,189.6z M89.8,189.6c0,1-1.7,1.9-3.8,1.9c-2.1,0-3.8-0.8-3.8-1.9s1.7-1.9,3.8-1.9
					C88.1,187.7,89.8,188.5,89.8,189.6z"/>
				<rect id="XMLID_674_" x="83.9" y="131.4" class="st5" width="4.5" height="179.7"/>
				<path id="XMLID_675_" class="st4" d="M78.1,158.7c0,0.4,0,0.9,0,1.3c0,0-0.6,2.6,0.1,5.1s2.3,4.1,2.3,4.1s-0.4-0.8-0.8-2.5
					c-0.2-1.2,0.8-3.9,1.3-5.4c0,0,0.1,0,0.1,0c-0.3,1.1-0.6,3.1-0.5,5.4c0.1,3.5,3.4,3.3,3.4,3.3s-1.1-1.2-0.9-3.9
					c0.1-1.3,0.5-2.9,0.9-4.3c0.1,0,0.2,0,0.3,0c-0.2,1.4-0.3,3.2-0.1,5.1c0.5,3.8,3.1,3.8,3.3,3.8c0.2,0-1.2-0.4-1.6-4.7
					c-0.1-1.2,0-2.7,0.1-4.2c0.3,0,0.7,0,1-0.1c-0.2,4.7,1.5,9.7,1.5,9.7s0.3-5.9,0.5-10c0.1,0,0.2,0,0.2-0.1
					c0.1,3.8,0.1,9.1,0.1,9.1c2.2-2.4,2.2-7.1,2.1-9.8c0.1,0,0.2-0.1,0.3-0.1c1.1,2.3-0.3,8.2-0.3,8.2c2.7-1.2,2.7-7.6,2.7-7.6
					c1.1,2.3-0.6,6.9-0.6,6.9c2.4-1.6,1.9-9.4,1.9-9.4c0-9.2-3.9-16.7-8.7-16.7C82,142,78.1,149.5,78.1,158.7z"/>
				<path id="XMLID_676_" class="st24" d="M78.1,158.7c0,0.4,0,0.9,0,1.3c0,0-0.6,2.6,0.1,5.1c0.7,2.5,2.3,4.1,2.3,4.1
					s-0.4-0.8-0.8-2.5c-0.2-1.2,0.8-3.9,1.3-5.4c0,0,0.1,0,0.1,0c-0.3,1.1-0.6,3.1-0.5,5.4c0.1,3.5,3.4,3.3,3.4,3.3
					s-1.1-1.2-0.9-3.9c0.1-1.3,0.5-2.9,0.9-4.3c0.1,0,0.2,0,0.3,0c-0.2,1.4-0.3,3.2-0.1,5.1c0.5,3.8,3.1,3.8,3.3,3.8
					c0.2,0-1.2-0.4-1.6-4.7c-0.1-1.2,0-2.7,0.1-4.2c0.3,0,0.7,0,1-0.1c-0.2,3.4,0.7,6.9,1.2,8.6c0.1-0.2,0.3-0.5,0.4-0.8
					c0.1-2.1,0.3-5.5,0.4-8.2c0.1,0,0.2,0,0.2-0.1c0,1.9,0.1,4.2,0.1,6c1.4-6.9-1.5-19.2-3.2-25.6C81.7,142.6,78.1,149.9,78.1,158.7
					z"/>
				<g id="XMLID_731_">
					<polygon id="XMLID_677_" class="st25" points="86.8,139.4 98.4,127.8 86.8,103.7 75.1,127.8 					"/>
					<polygon id="XMLID_688_" class="st26" points="86.8,139.4 98.2,128 86.8,116.4 75.3,128 					"/>
					<polygon id="XMLID_692_" class="st27" points="86.8,139.4 86.8,139.3 86.8,103.8 86.8,103.7 75.1,127.8 					"/>
					<polygon id="XMLID_693_" class="st28" points="86.8,139.4 86.8,139.3 86.8,116.5 86.8,116.4 75.3,128 					"/>
				</g>
				<path id="XMLID_695_" class="st2" d="M74.6,144.2c0,0-0.7,7.1,2.7,8.6c0,0-2.3-4.1-0.8-6.3c0,0,0,5.9,3.8,7c0,0-2-5.3-0.4-7.4
					c0.1,0,0.2,0.1,0.4,0.1c-0.2,2.4-0.1,6.7,2.9,8.9c0,0,0.1-4.8,0.2-8.2c0.1,0,0.2,0,0.3,0.1c0.3,3.7,0.6,9.1,0.6,9.1
					s2.5-4.5,2.1-8.8c0.5,0,0.9,0.1,1.4,0.1c0.2,1.4,0.3,2.7,0.2,3.8c-0.6,3.9-2.4,4.3-2.2,4.3c0.3,0,3.8,0,4.6-3.4
					c0.4-1.7,0.2-3.4-0.1-4.7c0.1,0,0.3,0,0.4,0c0.5,1.2,1.1,2.7,1.2,3.9c0.2,2.4-1.3,3.5-1.3,3.5s4.6,0.2,4.8-3
					c0.1-2.1-0.4-3.9-0.7-4.9c0.1,0,0.1,0,0.2,0c0.8,1.3,2.2,3.7,1.9,4.9c-0.4,1.6-1.1,2.3-1.1,2.3s2.2-1.5,3.2-3.8s0.1-4.6,0.1-4.6
					c0-0.4,0-0.8,0-1.2c0-8.4-5.4-15.2-12.2-15.2C80,129,74.6,135.8,74.6,144.2z"/>
				<path id="XMLID_696_" class="st9" d="M74.6,144.2c0,0-0.7,7.1,2.7,8.6c0,0-2.3-4.1-0.8-6.3c0,0,0,5.9,3.8,7c0,0-2-5.3-0.4-7.4
					c0.1,0,0.2,0.1,0.4,0.1c-0.2,2.4-0.1,6.7,2.9,8.9c0,0,0.1-4.8,0.2-8.2c0.1,0,0.2,0,0.3,0.1c0.3,3.7,0.6,9.1,0.6,9.1
					s2.5-4.5,2.1-8.8c0.5,0,0.9,0.1,1.4,0.1c0.2,1.4,0.3,2.7,0.2,3.8c-0.6,3.9-2.4,4.3-2.2,4.3c0.2,0,2.5,0,3.8-1.8
					c1-5.5-2.4-13.2-2.4-13.2l-0.8,4.1c0,0-0.6,0-2.3-5.8c-1.1-3.6,1.7-7.4,3.8-9.7c-0.4,0-0.8-0.1-1.2-0.1
					C80,129,74.6,135.8,74.6,144.2z"/>
				<path id="XMLID_700_" class="st24" d="M80,189.6c0,1.4,1.1,2.6,2.8,3.3v-2.3c-0.3-0.3-0.5-0.6-0.5-1c0-1,1.7-1.9,3.8-1.9
					c2.1,0,3.8,0.8,3.8,1.9c0,0.3-0.1,0.5-0.3,0.7v2.4c1.5-0.7,2.5-1.9,2.5-3.2c0-2.1-2.7-3.9-6-3.9C82.7,185.7,80,187.4,80,189.6z"
					/>
				<path id="XMLID_701_" class="st24" d="M80,178.1c0,1.4,1.1,2.6,2.8,3.3V179c-0.3-0.3-0.5-0.6-0.5-1c0-1,1.7-1.9,3.8-1.9
					c2.1,0,3.8,0.8,3.8,1.9c0,0.3-0.1,0.5-0.3,0.7v2.4c1.5-0.7,2.5-1.9,2.5-3.2c0-2.1-2.7-3.9-6-3.9C82.7,174.2,80,175.9,80,178.1z"
					/>
				<g id="XMLID_755_">
					<path id="XMLID_702_" class="st10" d="M83.9,246.1l4.5-1.1v-6c-1.5,0.2-3.1,0.3-4.5,0.5V246.1z"/>
					<polygon id="XMLID_703_" class="st10" points="83.9,258.2 88.4,258.9 88.4,252.8 83.9,252.2 					"/>
					<polygon id="XMLID_704_" class="st10" points="83.9,299.2 88.4,301.7 88.4,293.1 83.9,291.9 					"/>
					<polygon id="XMLID_705_" class="st10" points="83.9,206.2 88.4,206.3 88.4,202.6 83.9,202.6 					"/>
					<path id="XMLID_706_" class="st10" d="M83.9,200.5l4.5,0.2v-4.5c-1.5,0-3.1,0-4.5,0V200.5z"/>
					<polygon id="XMLID_707_" class="st10" points="83.9,270.5 88.4,268.8 88.4,262.1 83.9,263.4 					"/>
					<polygon id="XMLID_708_" class="st10" points="83.9,279 88.4,277.7 88.4,270.9 83.9,272.8 					"/>
				</g>
			</g>
			<path id="XMLID_709_" class="st6" d="M85.6,213.3l2.6-2.6c0,0-2,5.5,1.1,5.4l1.6-1.6c0,0,1.8-2.3-0.3-4.8s-3.3-1.4-3.3-1.4
				l-2.1,4.6L85.6,213.3z"/>
			<path id="XMLID_710_" class="st6" d="M84,206.6c0,0-1.8,0.8-1.3,2.2c0.5,1.4,3.2,0.7,3.9,1.5c0,0,0.4-1.1,0-1.3s-2.5-0.8-2.5-0.8
				L84,206.6z"/>
			<path id="XMLID_711_" class="st6" d="M84,208.5c0,0-1.8,0.8-1.3,2.2s3.2,0.7,3.9,1.5c0,0,0.4-1.1,0-1.3s-2.5-0.8-2.5-0.8
				L84,208.5z"/>
			<path id="XMLID_712_" class="st6" d="M84,210.6c0,0-1.8,0.8-1.3,2.2s3.2,0.7,3.9,1.5c0,0,0.4-1.1,0-1.3c-0.4-0.2-2.5-0.8-2.5-0.8
				L84,210.6z"/>
		</g>
	</g>
</g>
</svg>
