<?xml version="1.0" encoding="utf-8"?>
<!-- Generator: Adobe Illustrator 22.0.0, SVG Export Plug-In . SVG Version: 6.00 Build 0)  -->
<svg version="1.1" id="Layer_1" xmlns="http://www.w3.org/2000/svg" xmlns:xlink="http://www.w3.org/1999/xlink" x="0px" y="0px"
	 viewBox="0 0 245.9 350.1" style="enable-background:new 0 0 245.9 350.1;" xml:space="preserve">
<style type="text/css">
	.st0{fill:#C8C8C8;}
	.st1{opacity:0.15;fill:#010101;}
	.st2{fill:#132730;}
	.st3{fill:#233B47;}
	.st4{fill:#1D5468;}
	.st5{fill:#205A77;}
	.st6{fill:#1E6A7C;}
	.st7{fill:#4A6878;}
	.st8{fill:#D3A889;}
	.st9{fill:#CA9D8E;}
	.st10{fill:#BC1F37;}
	.st11{fill:#425050;}
	.st12{fill:#536464;}
	.st13{fill:#E0B3A0;}
	.st14{fill:#5B2A29;}
	.st15{fill:#BB3838;}
	.st16{fill:#D59529;}
	.st17{fill:#8D2828;}
	.st18{fill:#854F4E;}
	.st19{fill:#ECB72C;}
	.st20{fill:#4F2020;}
	.st21{fill:#D7D6D6;}
	.st22{fill:#BE9375;}
	.st23{fill:#F3D6C0;}
	.st24{fill:#D8B094;}
	.st25{fill:#EDEDEE;}
	.st26{fill:#BCBCBC;}
	.st27{fill:#FFFFFF;}
	.st28{fill:#BF3B3A;}
</style>
<g>
	<path class="st0" d="M186.4,63.8c-4,0-9.7,0.2-16.6,0.5c0-0.5,0.1-0.9,0.1-1.3c0-0.6,0-1.1,0.1-1.6c6.6-0.8,10.4-1.4,10.4-1.6
		c0-0.2-3.8,0-10.4,0.6c0-0.4,0-0.7,0-1c0-0.8-0.1-1.3-0.2-1.3c-0.1,0-0.3,0.4-0.5,1.2c-0.1,0.3-0.2,0.7-0.2,1.1
		c-2.1,0.2-4.4,0.4-6.9,0.6c0.2-4.3,0.2-6.7,0-6.7c-0.2,0-0.7,2.4-1.3,6.8c0,0-0.1,0-0.1,0c-6.1,0.6-13.3,1.3-21.4,2.1
		c-8,0.8-16.9,1.8-26.2,2.8c-9.3,1-18.1,2-26.2,2.9c-8,0.9-15.3,1.8-21.3,2.5C53.4,73,45.9,74,46,74.3c0,0.3,7.6-0.3,19.8-1.4
		c6.1-0.6,13.3-1.3,21.4-2.1c8-0.8,16.9-1.8,26.2-2.8c9.3-1,18.1-2,26.2-2.9c8-0.9,15.1-1.8,21.2-2.5c-0.1,0.7-0.2,1.4-0.3,2.2
		c-5.8,0.3-12.3,0.8-19.1,1.3c-10.2,0.8-21.3,1.8-33,2.9c-11.7,1.1-22.8,2.3-32.9,3.3c-10.1,1-19.2,1.9-26.9,2.7
		c-4.1,0.4-7.7,0.8-10.9,1.1c-0.1-1.1-0.2-2.1-0.4-3c-0.7-5.3-1.2-8.2-1.4-8.2c-0.3,0-0.3,3,0,8.3c0,0.9,0.1,2,0.1,3
		c-2.1,0.2-3.9,0.4-5.5,0.6c-0.9,0.1-1.7,0.2-2.4,0.3c0-0.1,0-0.2-0.1-0.3c-0.2-1.1-0.4-2-0.6-2.6c-0.2-0.6-0.4-0.9-0.5-0.9
		c-0.1,0-0.2,0.4-0.2,1c0,0.6,0,1.5,0,2.7c0,0.1,0,0.2,0,0.4c-1.9,0.3-2.9,0.5-2.9,0.6c0,0.2,1,0.3,2.9,0.3c0,1.1,0.1,2.4,0.2,3.8
		c-2.5,0.3-4.8,0.6-6.8,0.8c-5.2,0.7-8.4,1.2-8.4,1.4c0,0.3,3.3,0.2,8.5-0.1c2-0.1,4.3-0.3,6.8-0.5c0,0.7,0.1,1.3,0.1,2
		c0.2,3.4,0.5,6.5,0.7,8.8c0.3,2.2,0.5,3.6,0.8,3.6c0.3,0,0.5-1.4,0.6-3.7c0.1-2.3,0.1-5.4-0.2-8.8c0-0.7-0.1-1.4-0.2-2
		c0.2,0,0.3,0,0.5,0c2.2-0.2,4.5-0.4,6.9-0.6c0.2,3.8,0.4,8.1,0.7,12.9c1.1,19,2.9,45.3,5.1,74.3c2.2,29,4.6,55.3,6.6,74.2
		c0,0.3,0.1,0.6,0.1,1c-0.5,0.1-1,0.1-1.5,0.2c-0.3-3-0.6-6.4-1-10.3c-1.5-14.4-3.6-34.2-5.7-56.1c-1.1-11-2.1-21.4-2.9-30.9
		c-0.9-9.5-1.6-18.1-2.2-25.2c-1.2-14.4-1.7-23.3-2-23.3c-0.1,0-0.2,2.2-0.1,6.3c0.1,4,0.3,9.9,0.7,17.1c0.4,7.2,1,15.8,1.8,25.3
		c0.8,9.5,1.7,20,2.8,30.9c2.2,21.9,4.5,41.7,6.3,56.1c0.5,3.8,0.9,7.3,1.3,10.2c-0.4,0-0.8,0.1-1.3,0.1c-1.5,0.2-2.9,0.4-4.1,0.6
		c-1.2,0.2-2.1,0.4-2.7,0.6c-0.6,0.2-1,0.4-1,0.5c0,0.1,0.4,0.2,1.1,0.2c0.7,0,1.6,0,2.8,0c1.2,0,2.5-0.1,4.1-0.2
		c0.4,0,0.9-0.1,1.3-0.1c0.3,1.9,0.5,3.5,0.7,4.9c0.6,4,1,6.2,1.1,6.2c0.1,0,0-2.2-0.4-6.3c-0.1-1.4-0.3-3.1-0.5-4.9
		c0.5,0,1-0.1,1.6-0.1c0.9,8.2,1.8,14.9,2.5,19.6c0.2,1.4,0.4,2.6,0.6,3.7c-1.6,0.2-3,0.5-4.2,0.7c-2.9,0.5-4.6,0.9-4.5,1.2
		c0,0.3,1.7,0.3,4.7,0.3c1.2,0,2.7-0.1,4.4-0.1c0,0.1,0.1,0.3,0.1,0.4c0.3,1.4,0.5,2.1,0.7,2.1c0.1,0,0.2-0.8,0.1-2.2
		c0-0.1,0-0.2,0-0.4c0.8,0,1.7-0.1,2.7-0.1c0.2,1.3,0.3,2.4,0.5,3.2c0.2,1,0.3,1.5,0.4,1.5c0.1,0,0.3-0.6,0.3-1.5
		c0.1-0.8,0.1-1.9,0.1-3.2c1.1-0.1,2.2-0.1,3.4-0.2c5.3-0.3,11.6-0.6,18.7-1c2.4-0.1,4.9-0.3,7.5-0.4c-3.4,0.4-6.5,0.8-9.3,1.2
		c-4.3,0.6-7.7,1.2-10.1,1.6c-2.4,0.4-3.7,0.8-3.7,0.9c0,0.1,1.4,0.1,3.8-0.2c2.4-0.2,5.9-0.6,10.2-1c8.6-0.9,20.4-2.1,33.6-2.9
		c6.6-0.4,12.8-0.6,18.5-0.8c5.7-0.1,10.8-0.1,15.1-0.1c0.4,0,0.8,0,1.2,0c0,0.5,0,0.9,0,1.3c-1.7-0.1-3.6-0.2-5.7-0.2
		c-2.7-0.1-5.6-0.1-8.7,0c-3.1,0.1-6,0.2-8.7,0.4c-2.7,0.2-5.1,0.5-7.1,0.8c-2,0.3-3.6,0.6-4.7,0.9c-1.1,0.3-1.7,0.5-1.7,0.6
		c0,0.1,0.7,0.1,1.8,0.1c1.1-0.1,2.8-0.2,4.8-0.3c2-0.1,4.4-0.3,7-0.4c2.6-0.1,5.6-0.2,8.6-0.3c3.1-0.1,6-0.1,8.6-0.1
		c2.1,0,4,0,5.7-0.1c0.1,2.2,0.2,3.4,0.4,3.4c0.2,0,0.4-1.2,0.6-3.5c0.1,0,0.3,0,0.4,0c2,0,3.6-0.1,4.8-0.2c1.1-0.1,1.8-0.2,1.8-0.3
		c0-0.1-0.6-0.3-1.7-0.4c-1.1-0.1-2.8-0.3-4.8-0.4c-0.1,0-0.2,0-0.3,0c0-0.4,0.1-0.9,0.1-1.3c3.2,0.1,5.8,0.1,7.8,0.2
		c2.4,0.1,3.8,0.1,3.8-0.1c0-0.1-1.3-0.4-3.7-0.7c-1.9-0.2-4.5-0.5-7.7-0.7c0-0.1,0-0.3,0-0.4c3.6-0.2,6.6-0.3,8.8-0.5
		c3-0.2,4.6-0.5,4.6-0.7c0-0.3-1.6-0.5-4.6-0.7c-2.2-0.2-5.1-0.3-8.6-0.4c0.4-5.5,0.9-13.1,1.6-22.2c0.6-7.9,1.2-17.1,1.9-27.2
		c0.4,0,0.9,0,1.3,0c4.7,0,8.4-0.4,8.4-0.9c0-0.5-3.8-0.9-8.4-0.9c-0.4,0-0.8,0-1.2,0c0.1-2,0.3-4,0.4-6.1c1-13.2,2-27.8,3.2-43
		c1.2-16.3,2.4-31.8,3.4-45.7c0.4,0,0.9,0,1.3,0c-0.4,6-0.9,12.3-1.3,18.9c-1.2,17.9-2.2,34.1-2.9,45.9l-0.9,13.9
		c-0.1,1.6-0.2,2.9-0.2,3.8c0,0.9,0,1.3,0,1.3c0.1,0,0.2-0.4,0.4-1.3c0.2-0.9,0.4-2.1,0.6-3.8c0.4-3.3,0.9-8,1.5-13.9
		c1.1-11.7,2.3-27.9,3.5-45.8c0.4-6.6,0.8-13,1.2-19.1c0.5,0,1-0.1,1.6-0.1c2.9-0.2,5.6-0.4,7.5-0.7c1.9-0.3,3.1-0.6,3.1-0.8
		c0-0.3-1.2-0.4-3.2-0.5c-1.9-0.1-4.6-0.1-7.6,0.1c-0.4,0-0.9,0.1-1.3,0.1c0.1-0.9,0.1-1.9,0.2-2.8c0.7-0.1,1.3-0.2,1.8-0.3
		c1.6-0.3,2.5-0.7,2.5-0.9c0-0.3-1-0.4-2.6-0.4c-0.5,0-1,0-1.6,0c0.5-7.7,0.9-14.6,1.2-20.5l0.8-13.9l0.2-3.8c0-0.9,0.1-1.3,0-1.3
		c-0.1,0-0.2,0.4-0.4,1.3c-0.2,0.9-0.4,2.1-0.6,3.8c-0.4,3.3-0.9,8-1.4,13.9c-0.5,5.9-1.1,12.9-1.7,20.6c-0.4,0-0.9,0-1.3,0.1
		c0.7-9.7,1.3-18.5,1.9-26.2c0.5-7.6,1-14.1,1.3-19.2c2.1-0.2,4.2-0.4,6.2-0.6c-0.3,2.2-0.6,4.7-0.9,7.3c-0.5,4.5-0.8,8.6-0.9,11.6
		c-0.1,3-0.1,4.8,0.2,4.8c0.3,0,0.7-1.8,1.1-4.7c0.5-2.9,1-7,1.5-11.5c0.3-2.8,0.5-5.4,0.7-7.6c7.1-0.7,12.8-1.2,16.9-1.6
		c4.3-0.5,6.7-0.8,6.6-1.1C193.2,63.9,190.8,63.8,186.4,63.8z M28.9,81.8c-0.2,0-0.3,0-0.5,0.1c-0.1-1.3-0.3-2.5-0.4-3.5
		c0.7,0,1.4,0,2.3,0c1.6,0,3.4,0,5.5-0.1c0,0.9,0.1,1.8,0.1,2.8C33.5,81.3,31.1,81.6,28.9,81.8z M52.7,266.6
		c-0.3-4.8-0.8-11.5-1.4-19.7c0.7-0.1,1.4-0.2,2-0.2c0,1,0.1,2.2,0.1,3.3c0.1,2.3,0.3,4.9,0.6,7.6c0.4,4.7,0.9,9,1.3,12.4
		c-0.9,0.1-1.7,0.2-2.5,0.3C52.9,269.2,52.8,268,52.7,266.6z M145.9,268.2c-0.4,0-0.7,0-1.1-0.1c-0.5,0-1-0.1-1.5-0.1
		c0.1,0,0.2,0,0.2,0c0.8,0,1.6-0.1,2.4-0.1C145.9,268,145.9,268.1,145.9,268.2z M159.8,114.8c-0.1,0.9-0.1,1.8-0.2,2.7
		c-0.5,0-0.9,0.1-1.3,0.1c0.1-0.9,0.1-1.8,0.2-2.7C159,114.9,159.4,114.8,159.8,114.8z M157.8,86.6c-0.8,7.8-1.7,16.8-2.6,26.6
		c-1.7,0.1-3.1,0.3-4.3,0.5c-1.6,0.3-2.6,0.6-2.5,0.8c0,0.3,1,0.4,2.6,0.5c1.1,0,2.5,0.1,4,0c-0.1,1-0.2,2-0.3,3
		c-1.6,0.3-2.6,0.6-2.6,0.9c0,0.2,0.9,0.3,2.5,0.4c-1.2,13.8-2.5,29.2-3.7,45.4c-1.1,15.3-2.1,29.8-2.9,43.1
		c-0.1,2.2-0.3,4.4-0.4,6.5c-2.3,0.2-3.8,0.5-3.8,0.8c0,0.3,1.5,0.6,3.7,0.8c-0.5,10.1-1,19.2-1.2,27.2c-0.3,9.2-0.5,16.8-0.5,22.3
		c-0.8,0-1.6,0-2.4-0.1c-5.3-0.1-11.7-0.1-18.8,0c-7.1,0.1-14.8,0.3-23,0.7c-8.1,0.4-15.9,0.9-22.9,1.5c-7,0.6-13.4,1.2-18.7,1.8
		c-1.1,0.1-2.2,0.3-3.2,0.4c-0.1-3.4-0.5-7.7-0.9-12.3c-0.2-2.7-0.5-5.2-0.7-7.6l-0.3-3.4c1.5-0.2,2.8-0.5,3.9-0.7
		c1.1-0.3,2.1-0.5,2.7-0.8c0.6-0.2,0.9-0.4,0.9-0.6c0-0.1-0.4-0.2-1.1-0.2c-0.7,0-1.6,0.1-2.7,0.2c-1.1,0.1-2.4,0.2-3.9,0.3l-0.1-1
		c-0.2-1.8-0.3-3.2-0.5-4.2c-0.1-1-0.3-1.5-0.4-1.5c-0.1,0-0.3,0.5-0.4,1.5c-0.1,1-0.2,2.4-0.2,4.2c0,0.3,0,0.7,0,1.1
		c-0.7,0.1-1.4,0.1-2.1,0.2c0-0.3,0-0.6-0.1-0.9c-1.4-19-3.2-45.3-5.5-74.3c-2.2-29-4.4-55.3-6.2-74.2c-0.5-4.8-0.9-9.1-1.3-12.9
		c0.7-0.1,1.5-0.2,2.2-0.2c4-0.4,7.8-0.8,11.2-1.2c3.4-0.4,6.5-0.8,9.1-1.1c5.2-0.7,8.4-1.2,8.4-1.4c0-0.3-3.3-0.2-8.5,0.1
		c-2.6,0.2-5.7,0.4-9.2,0.7c-3.4,0.3-7.2,0.7-11.2,1.1c-0.7,0.1-1.5,0.2-2.2,0.2c-0.1-0.9-0.2-1.8-0.3-2.7c3.2-0.1,6.8-0.3,10.9-0.5
		c7.7-0.4,16.9-1,27-1.9c10.2-0.8,21.3-1.9,33-3c11.7-1.1,22.8-2.2,32.9-3.2c6.6-0.6,12.8-1.2,18.4-1.8
		C159.3,72.9,158.6,79.2,157.8,86.6z M168.2,64.4c-2,0.1-4.1,0.2-6.2,0.3c0-0.8,0.1-1.6,0.1-2.3c2.5-0.3,4.7-0.6,6.7-0.8
		c-0.1,0.4-0.1,0.8-0.2,1.3c-0.1,0.5-0.2,1-0.2,1.5C168.3,64.4,168.2,64.4,168.2,64.4z"/>
	<polygon class="st0" points="145.5,267.3 52.6,271 36.8,76.4 160.5,65 	"/>
	<path class="st1" d="M202.9,312.7c0,3.5-25.6,6.4-57.1,6.4c-31.5,0-57.1-2.8-57.1-6.4c0-3.5,25.6-6.3,57.1-6.3
		C177.3,306.4,202.9,309.2,202.9,312.7z"/>
	<g id="XMLID_441_">
		<polygon id="XMLID_24_" class="st2" points="109.5,282.7 108.9,311.4 176.7,311.4 174.8,286.4 		"/>
		<path id="XMLID_580_" class="st3" d="M171.5,193.5l-60.9-14.2c0,0-23.5,64.9-66.9,73.5c0,0,16.9,9.9,29.8,5l-11.9,12.6
			c0,0,15.9,6.3,31.1,0L85,281c0,0,24.2,10.3,40.7,1.3c16.6-8.9,45,7.3,45,7.3l3.3-21.9l14.2,5.6l1-15.6l15.6,0.3l-5-12.3l13.9-5.6
			l-10.6-12.9l12.3-6l-11.3-9.3l12.3-7.3l-10.9-12.3l6.6-14.9L171.5,193.5z"/>
		<path id="XMLID_573_" class="st3" d="M171.5,193.5l-60.9-14.2c0,0-23.5,64.9-66.9,73.5c0,0,16.9,9.9,29.8,5l-11.9,12.6
			c0,0,15.9,6.3,31.1,0L85,281c0,0,24.2,10.3,40.7,1.3c16.6-8.9,45,7.3,45,7.3l3.3-21.9l14.2,5.6l1-15.6l15.6,0.3l-5-12.3l13.9-5.6
			l-10.6-12.9l12.3-6l-11.3-9.3l12.3-7.3l-10.9-12.3l6.6-14.9L171.5,193.5z"/>
		<path id="XMLID_621_" class="st4" d="M174,192.5l-2.5,1l-42.9-10c-1.8,0.6-2.8,1.1-2.8,1.1l-13.9,18.5c0,0-25.2,42.4-50,54.3
			c-0.8,0.4-1.6,0.8-2.3,1.2c4.5,0.8,9.4,0.9,13.9-0.9l-11.9,12.6c0,0,2.4,0.9,6.2,1.7c11.6-12.2,25.2-27.9,33.2-41.8
			c16.2-28.1,16.2-28.1,16.2-28.1s-14.7,50.1-31.2,70.2c2.2-0.4,4.5-1.1,6.7-2L85,281c0,0,2.6,1.1,6.6,2.3
			c7.1-14.5,14.6-31.7,16.9-44.3c4.7-26,17.9-39.1,17.9-39.1l62.3,67.4l0.6-9.4l2.1,0L153.3,218c0,0-14.9-24.2-10.9-20.9
			c2.6,2.2,36,31.8,59.1,52.2l-1.4-3.6l13.1-5.3c-17.8-9.2-43.8-23.8-50.2-33.8c-4.4-6.9-7.1-11.4-8.6-13.9c5.9,6.2,30,26.5,51,36.9
			l-2.1-2.5l7.4-3.6C198.5,216.1,182.4,204.6,174,192.5z"/>
		<polygon id="XMLID_575_" class="st5" points="169.4,256.5 183.9,261.6 185.3,250.6 195.4,251.5 190.6,240 203.4,237.3 
			192.1,223.2 203.8,219.2 195.4,209.3 204.7,202.2 195.9,192.3 185.9,190.5 195.6,202.2 187.7,207.3 195.2,216.8 183.7,220.8 
			194.3,233.8 183.1,235.6 188.4,246.4 178.4,245.1 179.7,253.7 168.7,249.7 		"/>
		<g id="XMLID_585_">
			<polygon id="XMLID_574_" class="st6" points="183.4,261.4 183.9,261.6 185.2,251.3 179.4,245.2 178.4,245.1 179.7,253.7 
				174.5,251.8 			"/>
			<path id="XMLID_577_" class="st6" d="M190.7,239.9l12.6-2.6l-2.6-3.3c-3.9-2.1-7.9-4.4-11.7-6.7l5.3,6.5l-8.9,1.4
				C187.2,236.8,189,238.4,190.7,239.9z"/>
			<path id="XMLID_579_" class="st6" d="M193,222.9l10.8-3.7c-5.3-3.6-10.8-7.6-16-12l-0.2,0.1l7.5,9.5l-7.6,2.6
				C189.4,220.6,191.2,221.8,193,222.9z"/>
		</g>
		<path id="XMLID_586_" class="st5" d="M61.4,245.8c-2.3,1.4-4.7,2.6-7.2,3.7c5.3,1.7,14.9,3.7,27.9,1.8l-6.4,9.1
			c0,0,8.8,8.8,25.4,0.9l-4.9,7.1c0,0,6.6,5.1,16.6,1.8c9.9-3.3,5.3-6,5.3-6s-8.2,1.8-15.2,1.8l6.2-11.7c0,0-11.9,4.6-27.2,4
			l7.9-11.3C89.9,246.8,71,248.1,61.4,245.8z"/>
		<g id="XMLID_582_">
			<path id="XMLID_576_" class="st7" d="M98.1,269.3c2-4.5,3.9-9.1,5.5-13.6c-2.2,0.6-5,1.2-8.2,1.6c-1.3,2.4-2.6,4.7-3.9,6.8
				c2.8-0.4,6-1.3,9.5-3l-4.9,7.1C96.3,268.2,96.9,268.7,98.1,269.3z"/>
			<path id="XMLID_583_" class="st7" d="M77.4,261.6c4.2-4.7,8.4-9.7,12.2-14.7c-1.2,0.1-6.8,0.4-13,0.3c-2,1.7-4,3.4-6,4.9
				c3.5,0.1,7.3-0.2,11.5-0.8l-6.4,9.1C75.8,260.3,76.3,260.9,77.4,261.6z"/>
		</g>
		<path id="XMLID_584_" class="st8" d="M51.5,215c4.8,1.6,10.4,0.7,10.4,0.7l6.2-0.7c0,0,2-1.5,0.6-4.8c-1.3-3.2-10.3-6.3-10.3-6.3
			l-0.1,0.6l3.8,3.3l-9.5-3.7l-0.1,0.7l5.4,4.3l-6.3-1.5l0,0.7l5.7,3.2l-5.7-0.4v0.8l5.5,1.9l-5.6,0.7L51.5,215z"/>
		<g id="XMLID_2849_">
			<path id="XMLID_572_" class="st9" d="M225.1,154c-0.1-0.1-1.6-1.8-1.6-1.8l-0.6-1.2l-4.7,3.6c0,0-2.1,3.3-2.2,3.3l0.5,1.8
				l4.8,1.8l5.2-4.2l-1-1l0.3-1C225.8,155.4,225.2,154.1,225.1,154z"/>
			<path id="XMLID_587_" class="st10" d="M178.8,116.9l-1.6-0.7c2.3,2.5,5,4,5,4l-2-0.1c0,0,3,2.2,5.2,2.3c2.1,0.1,2.3-1.1,2.3-1.1
				c3.9-1,0.8-7.6,0.8-7.6l-0.7,3c-0.2-3.2-2.2-8.8-2.2-8.8l-0.6,5.2l-2.7-6.5l0.1,6.3l-5.4-8.8l2.5,9.3l-3.4-3.6
				C175.9,113.9,178.8,116.9,178.8,116.9z"/>
			<g id="XMLID_2855_">
				<polygon id="XMLID_588_" class="st11" points="184,116.6 183.9,117.9 227.5,166 228.3,162.5 				"/>
				<path id="XMLID_622_" class="st12" d="M216.5,150.3l0.8,0.7c-1.1-3.6-4.3-5.5-5.9-4.6c-1.5,0.9-3.2-1.7-3.2-1.7s-0.2,0.6,1.8,3
					C212,150.2,216.5,150.3,216.5,150.3z"/>
				<path id="XMLID_623_" class="st12" d="M208.4,141.8c0,0-1.3-4.6-4.5-5.3c-3.2-0.7-4.2-1-4.2-1s-0.8-0.1,0.7,2.8
					C201.8,141,206.7,139.7,208.4,141.8z"/>
				<path id="XMLID_624_" class="st12" d="M198.5,131.5c0,0-1.1-2.9-2.8-3.9c-1.7-1-3,0.2-4.3-1.4c0,0,1.4,4.3,3.5,4.4
					C197.1,130.8,198.5,131.5,198.5,131.5z"/>
				<path id="XMLID_625_" class="st12" d="M191,123.7c0,0-1.3-3-2.8-3.2c-1.5-0.2-3.2-1.3-3.2-1.3s2.2,3.9,3.6,3.9
					C190,123.2,191,123.7,191,123.7z"/>
				<path id="XMLID_626_" class="st12" d="M224.7,158.8l0.9,1.2c-0.2-4.5-4.6-7.9-6-6.5c-1.3,1.4-4.5-1-4.5-1c1.2,2.5,4.7,5,6.9,5.1
					C224.1,157.7,224.7,158.8,224.7,158.8z"/>
				<path id="XMLID_627_" class="st11" d="M222.7,157.6l-1.8,1.1l5.4,6l-0.5-2.6C224.1,156.8,222.7,157.6,222.7,157.6z"/>
			</g>
			<path id="XMLID_628_" class="st13" d="M220.1,153.6c1.6-1.7,1.6-3.8,1.6-3.8l-4.7,4l-2.3,6.9l3.5,5.2l4.1-1.1
				c0,0,1.5-2.5-0.6-4.8c-2.1-2.3-4.1-2-4.1-2l0.7-3.2C218.3,154.8,218.5,155.3,220.1,153.6z"/>
			<polygon id="XMLID_629_" class="st13" points="222.8,150.1 219.3,155.2 220.3,155.9 224.3,151.4 			"/>
			<path id="XMLID_630_" class="st13" d="M219.7,158.1c-0.1,0.2,1.2,0.7,1.2,0.7l4.9-4.5l-2.5-2.5l-0.3,0.5l1.2,1.3
				C224.3,153.6,219.7,157.9,219.7,158.1z"/>
			<path id="XMLID_631_" class="st13" d="M220.5,159.6c-0.1,0.1,1.2,0.9,1.2,0.9l5.3-4l-2.2-2.7l-0.3,0.4l1.1,1.4
				C225.5,155.6,220.6,159.4,220.5,159.6z"/>
			<path id="XMLID_632_" class="st13" d="M221,161.2c-0.1,0.1,1.2,0.9,1.2,0.9l5.3-4l-1.9-2.4l-0.3,0.4l0.7,1.1
				C226,157.2,221.1,161,221,161.2z"/>
		</g>
		<path id="XMLID_633_" class="st14" d="M199.3,176.4c-11.6,10.9-39.1,5.5-39.1,5.5l5.5,9.3c0,0,26.4,7.1,43.7,3.1
			c17.3-4,25.1-24,25.1-24l-23.8-16.5C210.7,153.8,210.9,165.6,199.3,176.4z"/>
		<g id="XMLID_598_">
			<path id="XMLID_570_" class="st15" d="M199.3,176.4c-6.4,6-17.7,7.1-26.5,6.8c5.8,2.2,15.5,4.2,28.8,0.7c22.7-6,21.4-11,21.4-11
				l-6.2,1.1c0,0,5.7-4.1,6.9-11.1l-13-9.1C210.7,153.8,210.9,165.6,199.3,176.4z"/>
			<path id="XMLID_599_" class="st15" d="M163.4,183.9l1.5-1.3c-0.2,0-0.3,0-0.5-0.1L163.4,183.9z"/>
		</g>
		<path id="XMLID_600_" class="st16" d="M232.9,173.6c1-2,1.5-3.2,1.5-3.2l-23.8-16.5c0,0,0,1.4-0.4,3.6L232.9,173.6z"/>
		<path id="XMLID_569_" class="st14" d="M117.8,187.8l-4.5-9.8c0,0-11.3,25.7-26.9,29c-15.5,3.3-25.1-3.6-25.1-3.6v29
			c0,0,20.9,5.1,34-6.9C108.6,213.5,117.8,187.8,117.8,187.8z"/>
		<path id="XMLID_568_" class="st5" d="M140.1,306.3l6.5,0.4l0.4-2.1l15.5,0.1c0,0,3.1-40,2.6-40c-0.4,0-19.1-3.7-22.5-3.1
			c-3.4,0.6-13.4,3.1-19.4,4.7c-6,1.6-6.5,2.9-6.5,2.9l11.6,37.8l11,1.8L140.1,306.3z"/>
		<path id="XMLID_477_" class="st3" d="M155.8,238l-19.6,2.2l-14.7,15.9c0,0,18,15.9,36.1,5.3C175.7,250.8,155.8,238,155.8,238z"/>
		<g id="XMLID_482_">
			<path id="XMLID_475_" class="st3" d="M140.1,306.3L140.1,306.3l-4.1-39.4c0,0,0.4,29.6,0.5,41.6l2.9,0.5L140.1,306.3z"/>
			<polygon id="XMLID_483_" class="st3" points="147.2,304.7 154.8,304.7 150.2,265.5 			"/>
			<path id="XMLID_484_" class="st3" d="M143.4,261.6C143.3,261.6,143.3,261.6,143.4,261.6l-0.2,44.9l3.4,0.2l0.3-1.2L143.4,261.6z"
				/>
		</g>
		<polygon id="XMLID_485_" class="st14" points="166.9,315.1 172.2,305.6 180.6,314.6 177.5,261.4 150.8,227.6 152.8,314.4 
			160.8,306.4 		"/>
		<polygon id="XMLID_467_" class="st14" points="122.8,304.2 133.4,314.2 132.9,252.1 108.9,242 105.3,311.5 110,304.7 117,313.3 		
			"/>
		<polygon id="XMLID_439_" class="st14" points="150.5,274.7 156.6,283.5 167.6,272.2 180.6,287.7 175.6,214.4 143.1,206.9 
			108,208.2 106.4,263.6 116.6,254.6 131.2,277.1 134.7,273.8 133.4,210.4 149.7,212.4 		"/>
		<g id="XMLID_471_">
			<path id="XMLID_595_" class="st17" d="M176.9,233.4l-7.5-9.7c0,0-1.9,33.5,0.8,51.6l10.5,12.5L176.9,233.4z"/>
			<g id="XMLID_472_">
				<path id="XMLID_473_" class="st17" d="M132.5,221.7c0,0,0.5,3.5,1.3,8.9l-0.2-9.2L132.5,221.7z"/>
				<polygon id="XMLID_593_" class="st17" points="166.3,273.5 159.7,236.9 149.8,221.6 150.5,274.7 156.6,283.5 				"/>
			</g>
			<path id="XMLID_594_" class="st17" d="M134.5,261.3l-2-19.1c0,0-1.6,18.1-2.9,32.4l1.6,2.5l3.5-3.3L134.5,261.3z"/>
		</g>
		<g id="XMLID_581_">
			<path id="XMLID_474_" class="st14" d="M133.6,223c-7.5,1.9-13,8.6-13,16.7c0,8.3,5.9,15.2,13.7,16.9L133.6,223z"/>
			<path id="XMLID_596_" class="st14" d="M149.9,227.4l0.3,24.3c3-3.1,4.9-7.3,4.9-12C155.1,234.8,153.1,230.5,149.9,227.4z"/>
		</g>
		<path id="XMLID_597_" class="st17" d="M121.7,227.2l10.2-8.8l13,13.2l8.2-11l8.2,11.3l7.7-15l9.1,12.6c0,0-1.5-45-3.5-52.3
			l-68.4,2l0.2,42.6l8.4-6.6L121.7,227.2z"/>
		<g id="XMLID_542_">
			<g id="XMLID_566_">
				<path id="XMLID_436_" class="st14" d="M150,232c0.4-0.4,0.6-0.9,0.6-1.5c0-0.6-0.2-1.1-0.6-1.5c-0.4-0.4-0.9-0.6-1.5-0.6
					c-0.6,0-1.1,0.2-1.5,0.6c-0.4,0.4-0.6,0.9-0.6,1.5c0,0.6,0.2,1.1,0.6,1.5c0.4,0.4,0.9,0.6,1.5,0.6
					C149,232.6,149.6,232.4,150,232z"/>
			</g>
			<g id="XMLID_545_">
				<path id="XMLID_652_" class="st14" d="M168.9,178.4c-1.1,0.3-1.8,1.4-1.6,2.5c0.2,1,1.1,1.6,2,1.6c0.2,0,0.3,0,0.5-0.1
					c1.1-0.3,1.8-1.4,1.6-2.5C171.2,178.9,170.1,178.2,168.9,178.4z"/>
				<path id="XMLID_653_" class="st14" d="M170,187.7c-1.2-0.1-2.2,0.8-2.3,1.9c-0.1,1.2,0.8,2.2,1.9,2.3c0.1,0,0.1,0,0.2,0
					c1.1,0,2-0.8,2.1-1.9C172.1,188.8,171.2,187.8,170,187.7z"/>
				<path id="XMLID_654_" class="st14" d="M171.3,194.8c0.2-1.1-0.5-2.2-1.7-2.5c-1.1-0.2-2.2,0.5-2.5,1.7c-0.2,1.1,0.5,2.2,1.7,2.5
					c0.1,0,0.3,0,0.4,0C170.2,196.5,171.1,195.8,171.3,194.8z"/>
				<path id="XMLID_655_" class="st14" d="M169.9,183c-1.2,0.1-2.1,1-2,2.2c0.1,1.1,1,2,2.1,2c0,0,0.1,0,0.1,0c1.2-0.1,2.1-1,2-2.2
					C172,183.8,171,183,169.9,183z"/>
				<path id="XMLID_656_" class="st14" d="M140.5,177.8c0.4,0.7,1.1,1.1,1.8,1.1c0.3,0,0.7-0.1,1-0.3c1-0.6,1.4-1.8,0.8-2.9
					c-0.6-1-1.8-1.4-2.9-0.8c0,0,0,0,0,0C140.3,175.6,139.9,176.8,140.5,177.8z"/>
				<path id="XMLID_657_" class="st14" d="M166.7,174.3c-1,0.6-1.3,1.9-0.7,2.9c0.4,0.7,1.1,1,1.8,1c0.4,0,0.7-0.1,1.1-0.3
					c1-0.6,1.3-1.9,0.7-2.9C168.9,174,167.7,173.7,166.7,174.3z"/>
				<path id="XMLID_658_" class="st14" d="M146.5,176.8c0.3,0,0.6-0.1,0.9-0.2c1.1-0.5,1.5-1.7,1-2.8c-0.5-1.1-1.7-1.5-2.8-1
					c-1.1,0.5-1.5,1.7-1,2.8C145,176.3,145.7,176.8,146.5,176.8z"/>
				<path id="XMLID_659_" class="st14" d="M165.6,205.8c-1-0.5-2.3-0.1-2.8,1c-0.5,1-0.1,2.3,1,2.8c0.3,0.1,0.6,0.2,0.9,0.2
					c0.8,0,1.5-0.4,1.9-1.2C167.1,207.6,166.7,206.3,165.6,205.8z"/>
				<path id="XMLID_660_" class="st14" d="M170.1,199.6c0.3-1.1-0.3-2.3-1.4-2.6c-1.1-0.3-2.3,0.3-2.6,1.4c-0.3,1.1,0.3,2.3,1.4,2.6
					c0.2,0.1,0.4,0.1,0.6,0.1C169,201.1,169.9,200.5,170.1,199.6z"/>
				<path id="XMLID_661_" class="st14" d="M168.6,204.2c0.4-1.1-0.1-2.3-1.2-2.7c-1.1-0.4-2.3,0.1-2.7,1.2c-0.4,1.1,0.1,2.3,1.2,2.7
					c0.3,0.1,0.5,0.1,0.8,0.1C167.5,205.5,168.2,205,168.6,204.2z"/>
				<path id="XMLID_662_" class="st14" d="M153.1,222.2c-0.7,0.9-0.6,2.2,0.3,2.9c0.4,0.3,0.8,0.5,1.3,0.5c0.6,0,1.2-0.3,1.6-0.8
					c0.7-0.9,0.6-2.2-0.3-2.9C155.1,221.1,153.8,221.3,153.1,222.2z"/>
				<path id="XMLID_663_" class="st14" d="M153.1,225.5c-0.9-0.8-2.2-0.7-3,0.2c-0.8,0.9-0.7,2.2,0.2,3c0.4,0.4,0.9,0.5,1.4,0.5
					c0.6,0,1.2-0.2,1.6-0.7C154,227.6,154,226.3,153.1,225.5z"/>
				<path id="XMLID_664_" class="st14" d="M155,169.7c-1.1,0.2-1.9,1.3-1.7,2.4c0.2,1,1.1,1.7,2.1,1.7c0.1,0,0.2,0,0.4,0
					c1.1-0.2,1.9-1.3,1.7-2.4C157.2,170.2,156.1,169.5,155,169.7z"/>
				<path id="XMLID_665_" class="st14" d="M150.2,171c-1.1,0.4-1.7,1.6-1.3,2.7c0.3,0.9,1.1,1.4,2,1.4c0.2,0,0.5,0,0.7-0.1
					c1.1-0.4,1.7-1.6,1.3-2.7C152.5,171.2,151.3,170.6,150.2,171z"/>
				<path id="XMLID_666_" class="st14" d="M165.6,171c-1-0.6-2.3-0.3-2.9,0.7c-0.6,1-0.3,2.3,0.7,2.9c0.3,0.2,0.7,0.3,1.1,0.3
					c0.7,0,1.4-0.4,1.8-1C166.9,172.9,166.5,171.6,165.6,171z"/>
				<path id="XMLID_667_" class="st14" d="M160.8,210.8c-0.6,1-0.2,2.3,0.8,2.9c0.3,0.2,0.7,0.3,1,0.3c0.7,0,1.4-0.4,1.8-1.1
					c0.6-1,0.2-2.3-0.8-2.9C162.6,209.5,161.3,209.8,160.8,210.8z"/>
				<path id="XMLID_668_" class="st14" d="M155.8,218.5c-0.7,0.9-0.5,2.3,0.5,2.9c0.4,0.3,0.8,0.4,1.2,0.4c0.7,0,1.3-0.3,1.7-0.9
					c0.7-0.9,0.5-2.3-0.5-2.9C157.8,217.4,156.5,217.6,155.8,218.5z"/>
				<path id="XMLID_669_" class="st14" d="M158.4,214.7c-0.6,1-0.3,2.3,0.6,2.9c0.4,0.2,0.7,0.3,1.1,0.3c0.7,0,1.4-0.3,1.8-1
					c0.6-1,0.3-2.3-0.6-2.9C160.3,213.5,159,213.8,158.4,214.7z"/>
				<path id="XMLID_670_" class="st14" d="M160.2,169.4c-1.2-0.1-2.2,0.8-2.3,1.9c-0.1,1.2,0.8,2.2,1.9,2.3c0.1,0,0.1,0,0.2,0
					c1.1,0,2-0.8,2.1-1.9C162.2,170.5,161.4,169.5,160.2,169.4z"/>
			</g>
			<g id="XMLID_543_">
				<path id="XMLID_546_" class="st14" d="M139.8,180.8c0.4-0.4,0.6-0.9,0.6-1.5c0-0.6-0.2-1.1-0.6-1.5c-0.4-0.4-0.9-0.6-1.5-0.6
					c-0.6,0-1.1,0.2-1.5,0.6c-0.4,0.4-0.6,0.9-0.6,1.5c0,0.6,0.2,1.1,0.6,1.5c0.4,0.4,0.9,0.6,1.5,0.6
					C138.9,181.4,139.4,181.1,139.8,180.8z"/>
			</g>
		</g>
		<g id="XMLID_443_">
			<path id="XMLID_544_" class="st14" d="M121.7,227.2l10.2-8.8l13,13.2l8.2-11l7.5,10.3c-0.7-9.6-3.1-44.8-3.2-45.1
				c-0.1-0.4-9.7,37.2-9.7,37.2s-14.9-32.1-20.8-29.4c-5.9,2.6-5.3,24-6,25.3c-0.7,1.3-10.5-37.2-10.5-37.2l-4.3,1.1l0.2,39l8.4-6.6
				L121.7,227.2z"/>
			<polygon id="XMLID_468_" class="st14" points="161.9,207.4 160.8,231.2 161.2,231.8 164.6,225.1 			"/>
		</g>
		<path id="XMLID_469_" class="st18" d="M121.7,227.2l10.2-8.8l13,13.2l8.2-11l8.2,11.3l7.7-15l9.1,12.6c0,0-0.1-2.9-0.3-7.3
			l-9-11.7l-7.5,16.2L148,209.6l-6.9,2.8l-18.8,9.7l-6.5-11l-9.3,7.6l0,2.8l8.2-6.5L121.7,227.2z"/>
		<g id="XMLID_478_">
			<g id="XMLID_489_">
				<path id="XMLID_470_" class="st19" d="M130.7,232c0.4-0.4,0.6-0.9,0.6-1.5c0-0.6-0.2-1.1-0.6-1.5c-0.4-0.4-0.9-0.6-1.5-0.6
					c-0.6,0-1.1,0.2-1.5,0.6c-0.4,0.4-0.6,0.9-0.6,1.5c0,0.6,0.2,1.1,0.6,1.5c0.4,0.4,0.9,0.6,1.5,0.6
					C129.7,232.6,130.3,232.4,130.7,232z"/>
			</g>
			<g id="XMLID_488_">
				<path id="XMLID_565_" class="st19" d="M118.9,218c-0.9,0.7-1.2,2-0.5,2.9c0.4,0.6,1.1,0.9,1.7,0.9c0.4,0,0.9-0.1,1.2-0.4
					c0.9-0.7,1.2-2,0.5-2.9C121.2,217.6,119.9,217.4,118.9,218z"/>
				<path id="XMLID_567_" class="st19" d="M117.5,169.4c-1.2,0.1-2,1.1-1.9,2.3c0.1,1.1,1,1.9,2.1,1.9c0.1,0,0.1,0,0.2,0
					c1.2-0.1,2-1.1,1.9-2.3C119.6,170.1,118.6,169.3,117.5,169.4z"/>
				<path id="XMLID_634_" class="st19" d="M119.3,214.7c-0.6-1-1.9-1.3-2.9-0.6c-1,0.6-1.3,1.9-0.6,2.9c0.4,0.6,1.1,1,1.8,1
					c0.4,0,0.8-0.1,1.1-0.3C119.6,217,119.9,215.7,119.3,214.7z"/>
				<path id="XMLID_635_" class="st19" d="M128.8,173.6c0.4-1.1-0.2-2.3-1.3-2.7c-1.1-0.4-2.3,0.2-2.7,1.3c-0.4,1.1,0.2,2.3,1.3,2.7
					c0.2,0.1,0.5,0.1,0.7,0.1C127.7,175,128.5,174.5,128.8,173.6z"/>
				<path id="XMLID_636_" class="st19" d="M114.1,210c-1,0.6-1.4,1.8-0.8,2.9c0.4,0.7,1.1,1.1,1.8,1.1c0.3,0,0.7-0.1,1-0.3
					c1-0.6,1.4-1.8,0.8-2.9C116.4,209.8,115.1,209.5,114.1,210z"/>
				<path id="XMLID_637_" class="st19" d="M108.4,196.5c0.1,0,0.3,0,0.4,0c1.1-0.2,1.9-1.3,1.7-2.5c-0.2-1.1-1.3-1.9-2.5-1.7
					c-1.1,0.2-1.9,1.3-1.7,2.5C106.6,195.8,107.4,196.5,108.4,196.5z"/>
				<path id="XMLID_638_" class="st19" d="M121.7,221.8c-0.9,0.7-1.1,2-0.3,2.9c0.4,0.5,1,0.8,1.6,0.8c0.5,0,0.9-0.2,1.3-0.5
					c0.9-0.7,1.1-2,0.3-2.9C123.9,221.3,122.6,221.1,121.7,221.8z"/>
				<path id="XMLID_639_" class="st19" d="M124.6,225.5c-0.9,0.8-1,2.1-0.2,3c0.4,0.5,1,0.7,1.6,0.7c0.5,0,1-0.2,1.4-0.5
					c0.9-0.8,1-2.1,0.2-3C126.8,224.8,125.5,224.7,124.6,225.5z"/>
				<path id="XMLID_640_" class="st19" d="M122.7,169.7c-1.1-0.2-2.2,0.6-2.4,1.7c-0.2,1.1,0.6,2.2,1.7,2.4c0.1,0,0.2,0,0.4,0
					c1,0,1.9-0.7,2.1-1.7C124.6,171,123.8,169.9,122.7,169.7z"/>
				<path id="XMLID_641_" class="st19" d="M108.1,175c-0.6,1-0.3,2.3,0.7,2.9c0.3,0.2,0.7,0.3,1.1,0.3c0.7,0,1.4-0.4,1.8-1
					c0.6-1,0.3-2.3-0.7-2.9C110,173.7,108.7,174,108.1,175z"/>
				<path id="XMLID_642_" class="st19" d="M108,191.9c1.2-0.1,2-1.1,1.9-2.3c-0.1-1.2-1.1-2-2.3-1.9c-1.2,0.1-2,1.1-1.9,2.3
					c0.1,1.1,1,1.9,2.1,1.9C107.9,191.9,107.9,191.9,108,191.9z"/>
				<path id="XMLID_643_" class="st19" d="M133.5,175.8c-0.6,1-0.2,2.3,0.8,2.9c0.3,0.2,0.7,0.3,1,0.3c0.7,0,1.4-0.4,1.8-1.1
					c0.6-1,0.2-2.3-0.8-2.9c0,0,0,0,0,0C135.4,174.4,134.1,174.8,133.5,175.8z"/>
				<path id="XMLID_644_" class="st19" d="M107.6,187.2c0,0,0.1,0,0.1,0c1.1,0,2-0.9,2.1-2c0.1-1.2-0.8-2.1-2-2.2
					c-1.2-0.1-2.1,0.8-2.2,2C105.6,186.2,106.5,187.1,107.6,187.2z"/>
				<path id="XMLID_645_" class="st19" d="M132.1,172.8c-1.1-0.5-2.3,0-2.8,1c-0.5,1.1,0,2.3,1,2.8c0.3,0.1,0.6,0.2,0.9,0.2
					c0.8,0,1.6-0.5,1.9-1.2C133.6,174.5,133.1,173.3,132.1,172.8z"/>
				<path id="XMLID_646_" class="st19" d="M106.3,180c-0.3,1.1,0.5,2.3,1.6,2.5c0.2,0,0.3,0.1,0.5,0.1c1,0,1.8-0.7,2-1.6
					c0.3-1.1-0.5-2.3-1.6-2.5C107.6,178.2,106.5,178.9,106.3,180z"/>
				<path id="XMLID_647_" class="st19" d="M111.1,205.5c0.3,0,0.5,0,0.8-0.1c1.1-0.4,1.6-1.6,1.2-2.7c-0.4-1.1-1.6-1.6-2.7-1.2
					c-1.1,0.4-1.6,1.6-1.2,2.7C109.4,205,110.2,205.5,111.1,205.5z"/>
				<path id="XMLID_648_" class="st19" d="M112.1,171c-1,0.6-1.3,1.9-0.7,2.9c0.4,0.7,1.1,1,1.8,1c0.4,0,0.7-0.1,1.1-0.3
					c1-0.6,1.3-1.9,0.7-2.9C114.4,170.7,113.1,170.4,112.1,171z"/>
				<path id="XMLID_649_" class="st19" d="M109.5,201.1c0.2,0,0.4,0,0.6-0.1c1.1-0.3,1.7-1.5,1.4-2.6c-0.3-1.1-1.5-1.7-2.6-1.4
					c-1.1,0.3-1.7,1.5-1.4,2.6C107.8,200.5,108.6,201.1,109.5,201.1z"/>
				<path id="XMLID_650_" class="st19" d="M112.9,209.8c0.3,0,0.6-0.1,0.9-0.2c1-0.5,1.5-1.8,1-2.8c-0.5-1-1.8-1.5-2.8-1
					c-1,0.5-1.5,1.8-1,2.8C111.4,209.3,112.2,209.8,112.9,209.8z"/>
			</g>
			<g id="XMLID_487_">
				<path id="XMLID_491_" class="st19" d="M140.8,180.8c0.4-0.4,0.6-0.9,0.6-1.5c0-0.6-0.2-1.1-0.6-1.5c-0.4-0.4-0.9-0.6-1.5-0.6
					c-0.6,0-1.1,0.2-1.5,0.6c-0.4,0.4-0.6,0.9-0.6,1.5c0,0.6,0.2,1.1,0.6,1.5c0.4,0.4,0.9,0.6,1.5,0.6
					C139.9,181.4,140.4,181.1,140.8,180.8z"/>
			</g>
		</g>
		<path id="XMLID_490_" class="st5" d="M148.2,214.2c0,0,26.1-24.1,26.7-31s-51.3-1.3-51.3-1.3l-19.3,4c0,0,19.3,25.5,25.6,27.5
			C136.1,215.3,148.2,214.2,148.2,214.2z"/>
		<g id="XMLID_512_">
			<g id="XMLID_536_">
				<path id="XMLID_492_" class="st19" d="M152.2,232c0.4-0.4,0.6-0.9,0.6-1.5c0-0.6-0.2-1.1-0.6-1.5c-0.4-0.4-0.9-0.6-1.5-0.6
					c-0.6,0-1.1,0.2-1.5,0.6c-0.4,0.4-0.6,0.9-0.6,1.5c0,0.6,0.2,1.1,0.6,1.5c0.4,0.4,0.9,0.6,1.5,0.6
					C151.3,232.6,151.8,232.4,152.2,232z"/>
			</g>
			<g id="XMLID_515_">
				<path id="XMLID_537_" class="st19" d="M172.3,187.7c-1.2-0.1-2.2,0.8-2.3,1.9c-0.1,1.2,0.8,2.2,1.9,2.3c0.1,0,0.1,0,0.2,0
					c1.1,0,2-0.8,2.1-1.9C174.3,188.8,173.4,187.8,172.3,187.7z"/>
				<path id="XMLID_540_" class="st19" d="M173.5,194.8c0.2-1.1-0.5-2.2-1.7-2.5c-1.1-0.2-2.2,0.5-2.5,1.7c-0.2,1.1,0.5,2.2,1.7,2.5
					c0.1,0,0.3,0,0.4,0C172.4,196.5,173.3,195.8,173.5,194.8z"/>
				<path id="XMLID_547_" class="st19" d="M168.9,174.3c-1,0.6-1.3,1.9-0.7,2.9c0.4,0.7,1.1,1,1.8,1c0.4,0,0.7-0.1,1.1-0.3
					c1-0.6,1.3-1.9,0.7-2.9C171.1,174,169.9,173.7,168.9,174.3z"/>
				<path id="XMLID_548_" class="st19" d="M172.1,183c-1.2,0.1-2.1,1-2,2.2c0.1,1.1,1,2,2.1,2c0,0,0.1,0,0.1,0c1.2-0.1,2.1-1,2-2.2
					C174.2,183.8,173.2,183,172.1,183z"/>
				<path id="XMLID_549_" class="st19" d="M172.4,199.6c0.3-1.1-0.3-2.3-1.4-2.6c-1.1-0.3-2.3,0.3-2.6,1.4c-0.3,1.1,0.3,2.3,1.4,2.6
					c0.2,0.1,0.4,0.1,0.6,0.1C171.3,201.1,172.1,200.5,172.4,199.6z"/>
				<path id="XMLID_550_" class="st19" d="M142.7,177.8c0.4,0.7,1.1,1.1,1.8,1.1c0.3,0,0.7-0.1,1-0.3c1-0.6,1.4-1.8,0.8-2.9
					c-0.6-1-1.8-1.4-2.9-0.8c0,0,0,0,0,0C142.5,175.6,142.1,176.8,142.7,177.8z"/>
				<path id="XMLID_551_" class="st19" d="M167.9,205.8c-1-0.5-2.3-0.1-2.8,1c-0.5,1-0.1,2.3,1,2.8c0.3,0.1,0.6,0.2,0.9,0.2
					c0.8,0,1.5-0.4,1.9-1.2C169.3,207.6,168.9,206.3,167.9,205.8z"/>
				<path id="XMLID_552_" class="st19" d="M148.7,176.8c0.3,0,0.6-0.1,0.9-0.2c1.1-0.5,1.5-1.7,1-2.8c-0.5-1.1-1.7-1.5-2.8-1
					c-1.1,0.5-1.5,1.7-1,2.8C147.2,176.3,147.9,176.8,148.7,176.8z"/>
				<path id="XMLID_553_" class="st19" d="M170.8,204.2c0.4-1.1-0.1-2.3-1.2-2.7c-1.1-0.4-2.3,0.1-2.7,1.2c-0.4,1.1,0.1,2.3,1.2,2.7
					c0.3,0.1,0.5,0.1,0.8,0.1C169.7,205.5,170.5,205,170.8,204.2z"/>
				<path id="XMLID_554_" class="st19" d="M171.1,178.4c-1.1,0.3-1.8,1.4-1.6,2.5c0.2,1,1.1,1.6,2,1.6c0.2,0,0.3,0,0.5-0.1
					c1.1-0.3,1.8-1.4,1.6-2.5C173.4,178.9,172.3,178.2,171.1,178.4z"/>
				<path id="XMLID_555_" class="st19" d="M155.3,225.5c-0.9-0.8-2.2-0.7-3,0.2c-0.8,0.9-0.7,2.2,0.2,3c0.4,0.4,0.9,0.5,1.4,0.5
					c0.6,0,1.2-0.2,1.6-0.7C156.2,227.6,156.2,226.3,155.3,225.5z"/>
				<path id="XMLID_556_" class="st19" d="M157.2,169.7c-1.1,0.2-1.9,1.3-1.7,2.4c0.2,1,1.1,1.7,2.1,1.7c0.1,0,0.2,0,0.4,0
					c1.1-0.2,1.9-1.3,1.7-2.4C159.4,170.2,158.4,169.5,157.2,169.7z"/>
				<path id="XMLID_557_" class="st19" d="M155.3,222.2c-0.7,0.9-0.6,2.2,0.3,2.9c0.4,0.3,0.8,0.5,1.3,0.5c0.6,0,1.2-0.3,1.6-0.8
					c0.7-0.9,0.6-2.2-0.3-2.9C157.3,221.1,156,221.3,155.3,222.2z"/>
				<path id="XMLID_558_" class="st19" d="M152.4,171c-1.1,0.4-1.7,1.6-1.3,2.7c0.3,0.9,1.1,1.4,2,1.4c0.2,0,0.5,0,0.7-0.1
					c1.1-0.4,1.7-1.6,1.3-2.7C154.7,171.2,153.5,170.6,152.4,171z"/>
				<path id="XMLID_559_" class="st19" d="M160.6,214.7c-0.6,1-0.3,2.3,0.6,2.9c0.4,0.2,0.7,0.3,1.1,0.3c0.7,0,1.4-0.3,1.8-1
					c0.6-1,0.3-2.3-0.6-2.9C162.5,213.5,161.2,213.8,160.6,214.7z"/>
				<path id="XMLID_560_" class="st19" d="M158,218.5c-0.7,0.9-0.5,2.3,0.5,2.9c0.4,0.3,0.8,0.4,1.2,0.4c0.7,0,1.3-0.3,1.7-0.9
					c0.7-0.9,0.5-2.3-0.5-2.9C160,217.4,158.7,217.6,158,218.5z"/>
				<path id="XMLID_561_" class="st19" d="M167.8,171c-1-0.6-2.3-0.3-2.9,0.7c-0.6,1-0.3,2.3,0.7,2.9c0.3,0.2,0.7,0.3,1.1,0.3
					c0.7,0,1.4-0.4,1.8-1C169.1,172.9,168.8,171.6,167.8,171z"/>
				<path id="XMLID_562_" class="st19" d="M163,210.8c-0.6,1-0.2,2.3,0.8,2.9c0.3,0.2,0.7,0.3,1,0.3c0.7,0,1.4-0.4,1.8-1.1
					c0.6-1,0.2-2.3-0.8-2.9C164.8,209.5,163.5,209.8,163,210.8z"/>
				<path id="XMLID_563_" class="st19" d="M162.4,169.4c-1.2-0.1-2.2,0.8-2.3,1.9c-0.1,1.2,0.8,2.2,1.9,2.3c0.1,0,0.1,0,0.2,0
					c1.1,0,2-0.8,2.1-1.9C164.4,170.5,163.6,169.5,162.4,169.4z"/>
			</g>
			<g id="XMLID_513_">
				<path id="XMLID_493_" class="st19" d="M142,180.8c0.4-0.4,0.6-0.9,0.6-1.5c0-0.6-0.2-1.1-0.6-1.5c-0.4-0.4-0.9-0.6-1.5-0.6
					c-0.6,0-1.1,0.2-1.5,0.6c-0.4,0.4-0.6,0.9-0.6,1.5c0,0.6,0.2,1.1,0.6,1.5c0.4,0.4,0.9,0.6,1.5,0.6
					C141.1,181.4,141.6,181.1,142,180.8z"/>
			</g>
		</g>
		<path id="XMLID_494_" class="st20" d="M130.9,202.1c0,0,39.2-6.3,43.5-20.1c0,0,4.2-4.1,3.3-7c-0.9-2.9-9.8-7.4-9.8-7.4l-54.3,2.1
			c0,0-8.1,8.3-7.8,13.5C106,188.5,130.9,202.1,130.9,202.1z"/>
		<path id="XMLID_434_" class="st14" d="M152.9,194.4l2,0.3c0,0,22-6.8,25.5-17.6c3.5-10.7-14-17.3-14-17.3l-4,10.3
			c0,0,14.6,3.8,12.6,9.4C173,185.1,152.9,194.4,152.9,194.4z"/>
		<path id="XMLID_435_" class="st17" d="M162.9,191.6c6.7-3,15.4-8,17.5-14.4c3.5-10.7-14-17.3-14-17.3l-0.3,0.8l-0.6,5.7
			c0,0,12.5,5.3,12.5,10C177.9,180.2,167.2,188.5,162.9,191.6z"/>
		<path id="XMLID_438_" class="st14" d="M128,200.5c0.1,0.1,0.2,0.1,0.2,0.1C128.3,200.6,128.2,200.5,128,200.5z"/>
		<path id="XMLID_495_" class="st14" d="M121.5,170.3l-5.4-6.8c0,0-11.7,7.6-13.2,17.9c-1.5,9.7,22.7,18.1,25.2,19.1
			c-2.1-1.1-18.5-12.1-19.3-17.5C107.8,177.4,121.5,170.3,121.5,170.3z"/>
		<path id="XMLID_416_" class="st21" d="M173.5,170.2c0,0,4.6-13.5-8.2-14.7c-12.8-1.2-35.2,1.2-35.2,1.2l-17.8,7.5
			c0,0-2.2,18.2,2.3,24.3l0.4-3.5c0,0,2,4.9,7.3,5.7c5.3,0.9,12.7-0.1,13.2-0.1s12.5,0.2,12.5,0.2s11.6-2.9,15.6-5.9
			c3-2.3,3.8-3.5,3.9-4l0.1-0.2c0,0,0,0.1-0.1,0.2l-0.8,3.3c0,0,3.2-0.8,4.3-8.5c1.1-7.7-2.4-15.2-2.4-15.2S173.4,162.7,173.5,170.2
			z"/>
		<path id="XMLID_496_" class="st21" d="M167.6,181c0.1-0.1,0.1-0.2,0.1-0.2L167.6,181z"/>
		<path id="XMLID_432_" class="st22" d="M119.5,173.7l-2.2-4.2c0,0-2.6-2.3-4.8-0.2c-2.1,2.1-0.3,8.8,3.3,9.6
			C119.4,179.6,119.5,173.7,119.5,173.7z"/>
		<path id="XMLID_426_" class="st22" d="M166.9,178.8c3.6-0.8,5.4-7.5,3.3-9.6c-2.1-2.1-4.8,0.2-4.8,0.2l-2.2,4.2
			C163.2,173.7,163.2,179.6,166.9,178.8z"/>
		<path id="XMLID_430_" class="st23" d="M166.8,169.8c0-13.5-11.5-24.5-25.7-24.5c-14.2,0-25.7,11-25.7,24.5
			c0,13.5,11.5,21.3,25.7,21.3C155.3,191,166.8,183.3,166.8,169.8z"/>
		<path id="XMLID_408_" class="st24" d="M140.8,155c-8,1.9-18.8,3.5-21.6,5.2c-0.3,0.2-1,0.5-2,0.7c-0.9,2.2-1.5,4.6-1.6,7.1
			c16.1-0.7,38.4-2.4,50-6c-1-2.9-2.6-5.6-4.6-7.9C155,154,147.4,153.5,140.8,155z"/>
		<path id="XMLID_418_" class="st24" d="M148.4,146.3c-2.3-0.7-4.8-1-7.3-1c-14.2,0-25.7,11-25.7,24.5c0,13.5,11.5,21.3,25.7,21.3
			c2.5,0,5-0.2,7.3-0.7c-10.6-2.2-18.4-9.4-18.4-20.5C130.1,158.7,137.8,149.3,148.4,146.3z"/>
		<circle id="XMLID_405_" class="st19" cx="140.4" cy="237.7" r="17.2"/>
		<polygon id="XMLID_476_" class="st16" points="132.1,238.5 124.5,243 133.3,242 128.4,249.4 135.9,244.7 134.7,253.4 139.4,246 
			142.1,254.4 143.1,245.6 149.1,252 146.3,243.7 154.5,246.8 148.3,240.6 157.1,239.8 148.8,236.9 156.3,232.4 147.6,233.3 
			152.5,226 145,230.6 146.2,221.9 141.5,229.4 138.8,221 137.8,229.7 131.7,223.3 134.6,231.7 126.3,228.6 132.5,234.8 
			123.8,235.6 		"/>
		<circle id="XMLID_486_" class="st19" cx="140.4" cy="237.7" r="10.9"/>
		
			<ellipse id="XMLID_497_" transform="matrix(0.9732 -0.2298 0.2298 0.9732 -50.8524 38.6201)" class="st16" cx="140.4" cy="237.7" rx="9.2" ry="9.2"/>
		<path id="XMLID_498_" class="st21" d="M154.5,217c1.5-10.8,1.5-36.4,1.5-36.4l-11.3-8.8l-7.9,0.9l-11.6,7.9c0,0-1.5,30.7,0.1,39.3
			c1.5,8.6,5.7,15.9,5.7,15.9l0.9-4.6c0,0,5.1,7.5,7.7,10.4c0,0,4.9-2.6,9.1-12.6v6.2C148.8,235.1,153,227.8,154.5,217z"/>
		<path id="XMLID_21_" class="st25" d="M153.5,206.2c0,0,0.1-1.1,0.3-2.7c0-2-0.4-5.2-1.9-9.7c-1.6-4.7-5.3-8.2-8.4-10.4
			c-0.1,11.8-0.6,33.5-3.4,39.8c0,0,3.2-5.2,5-9.4c1.8-4.3,2.5-7.9,2.5-7.9s0.6,13-4.1,19c-2.9,3.7-3.3,11.3-3.3,16.5
			c1.3-0.9,5.2-4.1,8.6-12.3v6.2c0,0,4.2-7.3,5.7-18.1c1.5-10.6,1.5-35.4,1.5-36.4l-7.6-3c3.3,2.4,7.3,5.5,7.3,6.4
			c0,1.2-1.3,13.8-1.9,19.4C153.8,205.4,153.5,206.2,153.5,206.2z"/>
		<path id="XMLID_427_" class="st26" d="M148.4,174c0,0-6.7,3.8-14.6,0.3l-2.9,0.2C131,174.6,142.6,181.6,148.4,174z"/>
		<circle id="XMLID_414_" class="st3" cx="155.5" cy="167.9" r="2.6"/>
		
			<ellipse id="XMLID_19_" transform="matrix(0.3827 -0.9239 0.9239 0.3827 -77.582 219.6647)" class="st3" cx="125.6" cy="167.9" rx="2.6" ry="2.6"/>
		<path id="XMLID_411_" class="st22" d="M128.1,171.2c-0.6,0.6-1.5,0.9-2.5,0.9s-1.9-0.4-2.5-0.9c0.3,1,1.3,1.8,2.5,1.8
			C126.7,173,127.7,172.2,128.1,171.2z"/>
		<path id="XMLID_413_" class="st24" d="M158.2,171.2c-0.6,0.6-1.5,0.9-2.5,0.9c-1,0-1.9-0.4-2.5-0.9c0.3,1,1.3,1.8,2.5,1.8
			C156.9,173,157.9,172.2,158.2,171.2z"/>
		<path id="XMLID_409_" class="st27" d="M133,181.6c6.5-2.8,7.5-9.5,7.5-9.5l-3.6-3.6c0,0-10.7,4.3-13,8.4c-2.3,4.1,3.3,30,3.3,30
			S126.5,184.4,133,181.6z"/>
		<path id="XMLID_20_" class="st25" d="M131.6,176.2c4.8-2.6,6-5.2,6.1-6.8l-0.9-0.9c0,0-10.7,4.3-13,8.4
			c-2.1,3.7,2.3,25.1,3.1,29.3C126.4,199.2,125.4,179.5,131.6,176.2z"/>
		<path id="XMLID_431_" class="st27" d="M156.9,176.9c-2.3-4.1-13-8.4-13-8.4l-3.6,3.6c0,0,1,6.7,7.5,9.5c6.5,2.8,5.9,25.3,5.9,25.3
			S159.2,181.1,156.9,176.9z"/>
		<polygon id="XMLID_403_" class="st22" points="140.5,171.1 136.6,168.2 140.5,172.8 144.3,168.2 		"/>
		<path id="XMLID_401_" class="st27" d="M129.5,164.1l0.7-2c0,0-5-2.5-9.2,1.8l0.2,0.2C121.2,164.1,125.8,161.7,129.5,164.1z"/>
		<path id="XMLID_18_" class="st27" d="M159.8,164.1l0.2-0.2c-4.2-4.3-9.2-1.8-9.2-1.8l0.7,2C155.1,161.7,159.8,164.1,159.8,164.1z"
			/>
		<path id="XMLID_404_" class="st21" d="M152.3,156.9c0,0.1,0.4,0.4,1,0.9C155.3,153.9,152.3,156.7,152.3,156.9z"/>
		<path id="XMLID_499_" class="st21" d="M152.3,159.7c0.4-0.7,0.8-1.4,1-1.9c-0.6-0.5-1-0.9-1-0.9c0-0.3,3-3.1,1,0.9
			c2.5,1.9,8.9,5.8,11.9,1.1c3.8-6-13.5-5-13.5-5l-24.4,6.2c0,0,4,7.9,19.6,5.7l-5.7-2.6C141.1,163.3,148.5,166.4,152.3,159.7z"/>
		<path id="XMLID_437_" class="st17" d="M170.5,157.7c13.4-8,12.4-10.5,10.6-11.4c-1.7-0.9-10.3,5.7-16.6,5.7
			c-6.3,0-15.8-1.1-23.9,0.7c-8,1.9-18.8,3.5-21.6,5.2c-2.8,1.7-29.9,6.3-22.6,8.4C96.4,166.3,157.1,165.7,170.5,157.7z"/>
		<path id="XMLID_412_" class="st15" d="M174.6,152.7c3.9-2.3,6.1-4.7,6.4-6.4c-1.9-0.6-10.3,5.7-16.5,5.7c-2.4,0-5.2-0.2-8.3-0.3
			l3.5,4C159.7,155.7,167.5,156.9,174.6,152.7z"/>
		<path id="XMLID_433_" class="st14" d="M170.5,157.7c0.8-0.5,1.6-0.9,2.3-1.4c-0.4,0.2-0.8,0.3-1.2,0.5c-14.5,6-37.3,2.7-49.9,0.1
			c-1.2,0.3-2.1,0.7-2.6,1c-2.8,1.7-29.9,6.3-22.6,8.4C96.4,166.3,157.1,165.7,170.5,157.7z"/>
		<path id="XMLID_428_" class="st17" d="M154.3,140.3c-1.1-1.6-6-3.3-6.9-5.6c-0.9-2.3-20.5-10.4-23.5-11.2
			c-3-0.8-23.9,3.5-23.9,3.5l-1.4,2.6c1.5,1.7,12.6,1.7,12.6,1.7s2.4,2.8,4.3,5.9s3.6,4.7,3.6,4.7s-1,2.4-1.3,3.8
			c-0.3,1.5,0.8,4.6,0.8,4.6l-1.2,1.7l-1.5,8.7c13.6,3.7,46.7-1.9,47.3-4.6c0.7-2.7-2.7-4.8-3.1-7.2c-0.3-2.4-4.9-4.8-4.9-4.8
			S155.4,141.9,154.3,140.3z"/>
		<path id="XMLID_415_" class="st15" d="M154.3,140.3c-1.1-1.6-6-3.3-6.9-5.6c-0.9-2.3-20.5-10.4-23.5-11.2
			c-1.2-0.3-5.1,0.2-9.4,0.8c3.9,0.5,8.9,1.3,9.9,2c1.7,1.1,0.8,10.6,3.5,10.7c2.5,0.1,11.4-1.4,12.9-1.7
			c-1.5,0.4-10.2,3.5-10.2,3.5l8.7-1.3c0,0-8.2,2.1-8.4,4.7c-0.2,2.6,2.1,3.2,2.1,3.2l9.3-4.3l-7.2,7.2c0,0,2.6,2.9,5.1,1
			c2.4-1.9,5.9-7.6,5.9-7.6l-2.4,10.2c0,0,6.2,2.1,10.7-1.2c4.5-3.3-2.5,4-2.5,4l-6.4,2.5c0,0,11.6,1.2,14.5-1.9
			c0.8-0.9,1.5-1.9,2.1-2.9c-0.8-1.1-1.7-2.3-1.9-3.4c-0.3-2.4-4.9-4.8-4.9-4.8S155.4,141.9,154.3,140.3z"/>
		<path id="XMLID_429_" class="st14" d="M128.5,138.5c4-0.7,14.7-4.1,14.7-4.1s-14.4,2.6-17.7,2.5c-3.2-0.1-2.5-8.1-3.4-10
			c-0.3-0.7-3-1.7-6.5-2.8c-7,1-15.8,2.8-15.8,2.8l-1.4,2.6c1.5,1.7,12.6,1.7,12.6,1.7s2.4,2.8,4.3,5.9c1.9,3,3.6,4.7,3.6,4.7
			s-1,2.4-1.3,3.8c-0.3,1.5,0.8,4.6,0.8,4.6l-1.2,1.7l-1.5,8.7c5.8,1.6,15.2,1.4,24.1,0.6c2.7-1.1,5.8-2.4,9.3-3.6
			c8.4-2.9,7.4-11,7.4-11s-1,3.1-5.6,6.6c-4.6,3.5-15.6,2.5-15.6,2.5s2.8-0.3,5.4-3c2.6-2.7,6.9-15,6.9-15s-5.2,9.4-9.9,12.4
			c-4.7,2.9-13.7,0.3-5.3-2.4c8.4-2.6,14.3-11.2,14.3-11.2s-14,9.9-18.7,9.4C123.2,145.6,124.6,139.2,128.5,138.5z"/>
		<path id="XMLID_424_" class="st14" d="M148,140.1l-3,9.5C150,146.4,148,140.1,148,140.1z"/>
		<path id="XMLID_417_" class="st14" d="M142.2,136.1l-7.7,2.3C134.6,138.3,140.4,139,142.2,136.1z"/>
		<path id="XMLID_423_" class="st14" d="M157.5,146.8l-1.6,7.5C159.3,152.5,157.5,146.8,157.5,146.8z"/>
		<g id="XMLID_578_">
			<polygon id="XMLID_425_" class="st18" points="134.7,273.8 134.6,267.4 130.7,271 116.7,249 106.6,258.2 106.4,263.6 
				116.6,254.6 131.2,277.1 			"/>
			<polygon id="XMLID_500_" class="st18" points="167.6,272.2 180.6,287.7 179.7,274 167.6,264.6 157,276.3 150.5,267.8 
				150.5,274.7 156.6,283.5 			"/>
		</g>
		<path id="XMLID_501_" class="st17" d="M180.6,314.6l-1.2-21.3c-4.8-5.4-14-15.9-14-15.9s-3.5,29,1.9,36.9l4.9-8.8L180.6,314.6z"/>
		<polygon id="XMLID_479_" class="st18" points="166.9,315.1 172.2,305.6 180.6,314.6 180.3,308.3 172.8,301.1 167.3,310.1 
			160.4,302.3 152.7,308.6 152.8,314.4 160.8,306.4 		"/>
		<polygon id="XMLID_480_" class="st18" points="122.8,304.2 133.4,314.2 133.4,309.9 121.4,298.5 116.2,308.4 109.9,300.4 
			105.7,304.9 105.3,311.5 110,304.7 117,313.3 		"/>
		<path id="XMLID_481_" class="st16" d="M61.4,203.3v29c0,0,1.3,0.3,3.5,0.6L64.6,205C62.5,204.1,61.4,203.3,61.4,203.3z"/>
		<path id="XMLID_502_" class="st17" d="M201.8,173.9c-0.8,0.9-1.6,1.7-2.5,2.6c-0.4,0.4-0.9,0.8-1.3,1.1l7.3-2.4l-2.1,8.2l7.1-1.1
			l-3.4,7.9h9.1l-0.8,2.1c0.8-0.4,1.7-0.8,2.5-1.3l1.5-3.1l-8.8-0.4l3.4-7.8l-7.8,0.8l2.6-8.3L201.8,173.9z"/>
		<path id="XMLID_503_" class="st28" d="M201.8,173.9c-0.2,0.2-0.4,0.4-0.5,0.6c-0.1,0.1-0.1,0.1-0.2,0.2c-0.1,0.1-0.3,0.3-0.4,0.4
			c-0.1,0.1-0.1,0.1-0.2,0.2c-0.1,0.1-0.3,0.3-0.4,0.4c-0.1,0.1-0.1,0.1-0.2,0.2c-0.2,0.2-0.4,0.4-0.6,0.6c-0.4,0.4-0.9,0.8-1.3,1.1
			l7.3-2.4l-2.1,8.2l1.1-0.2c3.7-1.1,6.7-2.1,9.1-3l0.2-0.5l-7.8,0.8l2.6-8.3L201.8,173.9z"/>
		<line id="XMLID_16_" class="st17" x1="213.6" y1="179.6" x2="205.8" y2="180.4"/>
		<path id="XMLID_505_" class="st17" d="M81.3,207.7l-4.7,3.6l7.6,4.4l-6.6,5.4l7.3,2.9l-6.2,6.1l6.1,1.3c1.4-0.4,2.8-1,4.1-1.6
			l-5.9-1l5.6-6.3l-6.8-2.3l6.7-5.5l-8-4.2l3.5-3.3C83,207.5,82.1,207.6,81.3,207.7z"/>
	</g>
</g>
</svg>
