<svg xmlns="http://www.w3.org/2000/svg" xmlns:xlink="http://www.w3.org/1999/xlink" viewBox="0 0 245.89 350.07">
	<defs>
		<style>
			.body-3,
			.body-12,
			.axe-2,
			.axe-18,
			.drill-12,
			.drill-13,
			.missile-6,
			.missile-9,
			.slicer-6,
			.slicer-7,
			.slicer-10,
			.sword-2,
			.sword-12,
			.club-7,
			.club-2,
			.hand-2,
			.hand-3,
			.shield-3,
			.dagger-2,
			.dagger-3,
			.torch-2,
			.torch-3,
			.right-hand-6,
			.right-hand-9 {
			fill: rgb(175, 175, 175);
			}
			
			.gradient-primary {
			stop-color: rgb(255, 255, 255);
			}
			
			.gradient-stop1 {
			stop-color: rgb(251, 251, 251);
			}
			
			.gradient-stop2 {
			stop-color: rgb(249, 249, 249);
			}
			
			.gradient-stop3 {
			stop-color: rgb(229, 229, 229);
			}
			
			.gradient-stop4 {
			stop-color: rgb(223, 223, 223);
			}
			
			.gradient-stop5 {
			stop-color: rgb(215, 215, 215);
			}
			
			.gradient-alt-stop1 {
			stop-color: rgb(231, 231, 231);
			}
		</style>
		<style>
			.base-isolate,
			.body-1,
			.axe-6,
			.drill-1,
			.missile-1,
			.slicer-1,
			.sword-1,
			.club-1,
			.hand-1,
			.shield-1,
			.dagger-1,
			.torch-1,
			.antenna-1,
			.right-hand-1 {
			isolation: isolate;
			}
			
			.base-dark,
			.body-2,
			.axe-3,
			.drill-2,
			.missile-3,
			.slicer-2,
			.sword-3,
			.club-4,
			.hand-5,
			.shield-5,
			.dagger-5,
			.torch-5,
			.right-hand-3 {
			fill: #2a3e51;
			}
			
			.base-4,
			.body-4,
			.axe-4,
			.drill-6,
			.missile-5,
			.slicer-11,
			.sword-4,
			.club-3,
			.hand-4,
			.shield-4,
			.dagger-4,
			.torch-4,
			.right-hand-5 {
			fill: url(#_4);
			}
			
			.base-3,
			.body-5,
			.axe-20,
			.drill-15,
			.missile-11,
			.slicer-12,
			.sword-14,
			.club-5,
			.hand-6,
			.shield-6,
			.dagger-6,
			.torch-6,
			.right-hand-11 {
			fill: url(#_3);
			}
			
			.body-6,
			.dagger-10 {
			fill: #aeaeaf;
			}
			
			.base-7,
			.body-7,
			.axe-22,
			.drill-3,
			.missile-13,
			.slicer-13,
			.sword-16,
			.club-9,
			.hand-9,
			.shield-9,
			.dagger-9,
			.torch-9,
			.right-hand-13 {
			fill: #477087;
			}
			
			.base-2,
			.body-8,
			.axe-16,
			.drill-10,
			.missile-2,
			.slicer-8,
			.sword-10,
			.antenna-5,
			.right-hand-2 {
			fill: url(#_2);
			}
			
			.body-9,
			.antenna-2 {
			fill: #4b6d73;
			}
			
			.body-10,
			.body-17,
			.body-18,
			.body-19,
			.body-21,
			.body-24,
			.body-27,
			.club-8,
			.axe-17,
			.axe-23,
			.drill-11,
			.drill-16,
			.missile-14,
			.missile-4,
			.slicer-14,
			.slicer-9,
			.sword-11,
			.sword-17,
			.hand-8,
			.shield-8,
			.dagger-21,
			.dagger-8,
			.torch-8,
			.antenna-6,
			.antenna-9,
			.right-hand-14 {
			mix-blend-mode: screen;
			}
			
			.base-40,
			.body-10,
			.axe-17,
			.drill-11,
			.missile-4,
			.slicer-9,
			.sword-11,
			.club-8,
			.hand-8,
			.shield-8,
			.dagger-8,
			.torch-8,
			.antenna-9,
			.right-hand-4,
			.right-hand-14 {
			fill: url(#_40);
			}
			
			.base-4-2,
			.body-11,
			.axe-14,
			.drill-7,
			.missile-7,
			.club-14,
			.hand-10,
			.shield-10,
			.dagger-25,
			.torch-16,
			.right-hand-7 {
			fill: url(#_4-2);
			}
			
			.base-4-3,
			.body-13,
			.axe-15,
			.drill-8,
			.missile-8,
			.sword-8,
			.right-hand-8 {
			fill: url(#_4-3);
			}
			
			.body-14 {
			fill: url(#_3-2);
			}
			
			.base-4-4,
			.body-15,
			.axe-19,
			.drill-9,
			.missile-10,
			.sword-9,
			.right-hand-10 {
			fill: url(#_4-4);
			}
			
			.body-16 {
			fill: url(#_3-3);
			}
			
			.body-17 {
			fill: url(#_171);
			}
			
			.body-18 {
			fill: url(#_171-2);
			}
			
			.base-40-2,
			.body-19,
			.axe-23,
			.drill-16,
			.missile-14,
			.slicer-14,
			.sword-17,
			.right-hand-14 {
			fill: url(#_40-2);
			}
			
			.body-20,
			.drill-14,
			.sword-13 {
			fill: url(#_4-5);
			}
			
			.body-21 {
			fill: url(#_171-3);
			}
			
			.base-grey,
			.axe-21,
			.drill-5,
			.missile-12,
			.slicer-5,
			.sword-15,
			.club-6,
			.hand-7,
			.shield-7,
			.dagger-7,
			.torch-7,
			.right-hand-12 {
			fill: #99999a;
			}
			
			.body-22 {
			fill: url(#_4-6);
			}
			.body-23,
			.shield-12,
			.dagger-24,
			.pattern-2-2 {
			fill: url(#_160);
			}
			.body-24 {
			fill: url(#_166);
			}
			.body-25 {
			fill: url(#_4-7);
			}
			.body-26 {
			fill: url(#_4-8);
			}
			.body-27 {
			fill: url(#_171-4);
			}
			
			.axe-13,
			.drill-17,
			.antenna-3,
			.right-hand-15 {
			fill: #c62026;
			}
			
			.axe-1,
			.axe-11,
			.axe-5 {
			fill: #e1e1e1;
			}
			.axe-11,
			.axe-6,
			.dagger-21,
			.torch-15 {
			fill: #fff;
			}
			.club-11 {
			fill: #d3d3d3;
			}
			.axe-6 {
			opacity: 0.27;
			}
			.axe-7 {
			fill: #999696;
			}
			.axe-8 {
			fill: #f3f1f1;
			}
			.axe-9 {
			fill: #bbbaba;
			}
			.axe-10,
			.club-10 {
			fill: #2d353a;
			}
			.axe-11 {
			opacity: 0.39;
			}
			.axe-12,
			.club-13,
			.sword-6 {
			fill: #13181d;
			}
			
			.drill-4 {
			fill: url(#drill-gradient);
			}
			
			.missile-15 {
			fill: #131f32;
			}
			
			.slicer-3 {
			fill: #989898;
			}
			.slicer-4 {
			fill: url(#slicer-gradient);
			}
			
			.sword-5 {
			fill: #c0c0c0;
			}
			
			.sword-7 {
			fill: #2d353a;
			}
			
			.sword-18,
			.shield-2,
			.pattern-2-1 {
			fill: #d7d7d7;
			}
			
			.club-11 {
			stroke: #939393;
			stroke-miterlimit: 10;
			stroke-width: 0.25px;
			}
			.club-12 {
			fill: url(#club-gradient);
			}
			
			.shield-11 {
			fill: #bfbfbf;
			}
			.shield-13,
			.pattern-2-3 {
			fill: url(#_160-2);
			}
			.shield-14 {
			fill: url(#_160-3);
			}
			.shield-15 {
			fill: url(#_160-4);
			}
			.shield-16 {
			fill: url(#_160-5);
			}
			.shield-17 {
			fill: url(#_160-6);
			}
			.dagger-11,
			.dagger-12,
			.dagger-13,
			.dagger-14,
			.dagger-15,
			.dagger-16,
			.dagger-17,
			.dagger-18,
			.dagger-2 {
			stroke-miterlimit: 10;
			}
			.dagger-11,
			.dagger-12,
			.dagger-13,
			.dagger-14,
			.dagger-15,
			.dagger-16,
			.dagger-17,
			.dagger-18 {
			stroke-width: 0.09px;
			}
			.dagger-11 {
			fill: url(#dagger-gradient);
			stroke: url(#dagger-gradient-2);
			}
			.dagger-12 {
			fill: url(#dagger-gradient-3);
			stroke: url(#dagger-gradient-4);
			}
			.dagger-13 {
			fill: url(#dagger-gradient-5);
			stroke: url(#dagger-gradient-6);
			}
			.dagger-14 {
			fill: url(#dagger-gradient-7);
			stroke: url(#dagger-gradient-8);
			}
			.dagger-15 {
			fill: url(#dagger-gradient-9);
			stroke: url(#dagger-gradient-10);
			}
			.dagger-16 {
			fill: url(#dagger-gradient-11);
			stroke: url(#dagger-gradient-12);
			}
			.dagger-17 {
			fill: url(#dagger-gradient-13);
			stroke: url(#dagger-gradient-14);
			}
			.dagger-18 {
			fill: url(#dagger-gradient-15);
			stroke: url(#dagger-gradient-16);
			}
			.dagger-19 {
			fill: #a8a9ac;
			}
			.dagger-20 {
			fill: #d2d3d4;
			}
			.dagger-22 {
			fill: url(#dagger-gradient-17);
			}
			.dagger-23 {
			fill: none;
			stroke: #2a3e51;
			stroke-width: 1.3px;
			}
			
			.torch-10 {
			fill: url(#torch-gradient);
			}
			.torch-11 {
			fill: url(#torch-gradient-2);
			}
			.torch-12 {
			fill: #b2b2b2;
			}
			.torch-13 {
			fill: #575756;
			}
			.torch-14 {
			fill: #fcea10;
			}
			
			.pattern-1-1 {
			fill: url(#pattern-1-gradient);
			}
			.pattern-1-2 {
			fill: url(#pattern-1-gradient-2);
			}
			
			.antenna-4 {
			fill: #efefef;
			}
			.antenna-6 {
			fill: #fff7cd;
			opacity: 0.85;
			}
			.antenna-7 {
			fill: url(#_2-2);
			}
			.antenna-8 {
			fill: #3c5a5f;
			}
			
			.hair-1 {
			fill: #8217ce;
			}
			.hair-2 {
			fill: #bc43d1;
			}
		</style>
		<linearGradient id="_4" gradientUnits="userSpaceOnUse">
			<stop offset="0.04" class="gradient-primary">
			</stop>
			<stop offset="0.3" class="gradient-stop1">
			</stop>
			<stop offset="0.55" class="gradient-stop2">
			</stop>
			<stop offset="0.7" class="gradient-stop3">
			</stop>
			<stop offset="0.8" class="gradient-stop4">
			</stop>
			<stop offset="1" class="gradient-stop5">
			</stop>
		</linearGradient>
		<linearGradient id="_3" x1="183.91" y1="238.22" x2="189.47" y2="263.76" gradientUnits="userSpaceOnUse">
			<stop offset="0" class="gradient-primary">
			</stop>
			<stop offset="0.84" class="gradient-alt-stop1">
			</stop>
		</linearGradient>
		<linearGradient id="_2" x1="139.97" y1="221.18" x2="104.24" y2="222.27" gradientUnits="userSpaceOnUse">
			<stop offset="0" stop-color="#f2f2f2">
			</stop>
			<stop offset="0.42" stop-color="#b5c5c5">
			</stop>
			<stop offset="0.84" stop-color="#759595">
			</stop>
		</linearGradient>
		<linearGradient id="_2-2" x1="84.06" y1="100.87" x2="64.87" y2="130.18" xlink:href="#_2">
		</linearGradient>
		<linearGradient id="_40" x1="131.59" y1="212.19" x2="125.45" y2="231.82" gradientUnits="userSpaceOnUse">
			<stop offset="0.17" stop-color="#bdb48e">
			</stop>
			<stop offset="0.26" stop-color="#b3ab87">
			</stop>
			<stop offset="0.41" stop-color="#999273">
			</stop>
			<stop offset="0.6" stop-color="#6e6953">
			</stop>
			<stop offset="0.82" stop-color="#333126">
			</stop>
			<stop offset="1">
			</stop>
		</linearGradient>
		<linearGradient id="_4-2" x1="131.83" y1="221.6" x2="117.65" y2="265.97" xlink:href="#_4">
		</linearGradient>
		<linearGradient id="_4-3" x1="96.42" y1="235.65" x2="77.33" y2="295.79" xlink:href="#_4">
		</linearGradient>
		<linearGradient id="_3-2" x1="94.59" y1="236.3" x2="81" y2="279.12" xlink:href="#_3">
		</linearGradient>
		<linearGradient id="_4-4" x1="44.17" y1="236.39" x2="67.49" y2="282.89" xlink:href="#_4">
		</linearGradient>
		<linearGradient id="_3-3" x1="50" y1="235.86" x2="62.55" y2="260.88" xlink:href="#_3">
		</linearGradient>
		<linearGradient id="_171" x1="55.15" y1="231.38" x2="56.1" y2="278.43" gradientUnits="userSpaceOnUse">
			<stop offset="0" stop-color="#c3bea9">
			</stop>
			<stop offset="0.5" stop-color="#636156">
			</stop>
			<stop offset="1">
			</stop>
		</linearGradient>
		<linearGradient id="_171-2" x1="87.84" y1="235.21" x2="92.57" y2="292.12" xlink:href="#_171">
		</linearGradient>
		<linearGradient id="_40-2" x1="145.69" y1="219.18" x2="118.42" y2="250.64" xlink:href="#_40">
		</linearGradient>
		<linearGradient id="_4-5" x1="205.32" y1="179.43" x2="205.09" y2="231.05" xlink:href="#_4">
		</linearGradient>
		<linearGradient id="_171-3" x1="154.1" y1="110.14" x2="122.86" y2="181.1" xlink:href="#_171">
		</linearGradient>
		<linearGradient id="_4-6" x1="147.71" y1="122.23" x2="120.99" y2="208.78" gradientTransform="translate(27.28 -19.37) rotate(9.09)" xlink:href="#_4">
		</linearGradient>
		<linearGradient id="_4-7" x1="147.61" y1="109.28" x2="107.97" y2="230.4">
			<stop offset="0.04" stop-color="#fff">
			</stop>
			<stop offset="1" stop-color="#d7d7d7">
			</stop>
		</linearGradient>
		<linearGradient id="_4-8" x1="147.71" y1="122.23" x2="120.99" y2="208.78" gradientTransform="translate(27.28 -19.37) rotate(9.09)" xlink:href="#_4-7">
		</linearGradient>
		<radialGradient id="_160" cx="-237.68" cy="147.16" r="32.5" gradientTransform="translate(408.08) scale(1.1 1)" gradientUnits="userSpaceOnUse">
			<stop offset="0.01" stop-color="#22577e">
			</stop>
			<stop offset="0.25" stop-color="#204f77">
			</stop>
			<stop offset="0.63" stop-color="#1c3b62">
			</stop>
			<stop offset="1" stop-color="#162048">
			</stop>
		</radialGradient>
		<radialGradient id="_160-2" cx="193.59" cy="226.98" r="39.49" gradientTransform="matrix(1, 0, 0, 1, 0, 0)" xlink:href="#_160">
		</radialGradient>
		<radialGradient id="_160-3" cx="324.31" cy="581.82" r="25.53" gradientTransform="matrix(-0.83, -0.47, 1.68, -1.89, -497.79, 1459.76)" xlink:href="#_160">
		</radialGradient>
		<radialGradient id="_160-4" cx="192.52" cy="175.42" r="10.56" gradientTransform="matrix(1.01, 0, 0, 1.02, 1.21, 21.11)" xlink:href="#_160">
		</radialGradient>
		<radialGradient id="_160-5" cx="735.31" cy="86" r="5.19" gradientTransform="matrix(0.91, 0.45, -0.45, 0.92, -422.95, -190.9)" xlink:href="#_160">
		</radialGradient>
		<radialGradient id="_160-6" cx="277.24" cy="203.11" r="3.34" gradientTransform="matrix(1.01, 0.06, -0.05, 1.02, -72.56, 5.67)" xlink:href="#_160">
		</radialGradient>
		<linearGradient id="_166" x1="153.04" y1="134.66" x2="132.82" y2="167.95" gradientUnits="userSpaceOnUse">
			<stop offset="0" stop-color="#848174">
			</stop>
			<stop offset="0.73" stop-color="#252420">
			</stop>
			<stop offset="1">
			</stop>
		</linearGradient>
		<linearGradient id="_171-4" x1="149.98" y1="122.69" x2="127.15" y2="184.68" xlink:href="#_171">
		</linearGradient>
		<linearGradient id="drill-gradient" x1="-92.33" y1="1165.17" x2="-130.3" y2="1229.77" gradientTransform="translate(-531.01 -770.59) rotate(-37.17)" gradientUnits="userSpaceOnUse">
			<stop offset="0.16" stop-color="#fff">
			</stop>
			<stop offset="0.35" stop-color="#fbfbfb">
			</stop>
			<stop offset="0.54" stop-color="#f0f0ef">
			</stop>
			<stop offset="0.63" stop-color="#e7e7e6">
			</stop>
			<stop offset="0.74" stop-color="#d4d4d4">
			</stop>
			<stop offset="0.98" stop-color="#a2a4a5">
			</stop>
			<stop offset="1" stop-color="#9d9fa0">
			</stop>
		</linearGradient>
		<linearGradient id="slicer-gradient" x1="-5.06" y1="276.56" x2="33.4" y2="322.38" gradientTransform="matrix(1.07, -0.11, 0.1, 0.91, 13.14, -15.97)" gradientUnits="userSpaceOnUse">
			<stop offset="0" stop-color="#a7a9aa">
			</stop>
			<stop offset="0.01" stop-color="#a8aaab">
			</stop>
			<stop offset="0.32" stop-color="#d8d8d8">
			</stop>
			<stop offset="0.63" stop-color="#cdcecf">
			</stop>
			<stop offset="1" stop-color="#c5c7c9">
			</stop>
		</linearGradient>
		<linearGradient id="club-gradient" x1="-1.18" y1="-15.79" x2="82.1" y2="-15.79" gradientTransform="translate(98.11 102.42) rotate(-15.55)" gradientUnits="userSpaceOnUse">
			<stop offset="0.04" stop-color="#fff">
			</stop>
			<stop offset="0.19" stop-color="#fbfbfb">
			</stop>
			<stop offset="0.34" stop-color="#efefef">
			</stop>
			<stop offset="0.43" stop-color="#e5e5e4">
			</stop>
			<stop offset="0.62" stop-color="#dfdfde">
			</stop>
			<stop offset="1" stop-color="#d7d7d7">
			</stop>
		</linearGradient>
		<linearGradient id="dagger-gradient" x1="186.95" y1="215.2" x2="191.12" y2="215.2" gradientUnits="userSpaceOnUse">
			<stop offset="0.04" stop-color="#fff">
			</stop>
			<stop offset="0.23" stop-color="#fbfbfb">
			</stop>
			<stop offset="0.41" stop-color="#efefef">
			</stop>
			<stop offset="0.52" stop-color="#e5e5e4">
			</stop>
			<stop offset="0.68" stop-color="#dfdfde">
			</stop>
			<stop offset="1" stop-color="#d7d7d7">
			</stop>
		</linearGradient>
		<linearGradient id="dagger-gradient-2" x1="186.9" y1="215.2" x2="191.17" y2="215.2" gradientUnits="userSpaceOnUse">
			<stop offset="0" stop-color="#e5e5e4">
			</stop>
			<stop offset="0.29" stop-color="#dfdfde">
			</stop>
			<stop offset="0.88" stop-color="#d7d7d7">
			</stop>
		</linearGradient>
		<linearGradient id="dagger-gradient-3" x1="186.97" y1="217.07" x2="191.14" y2="217.07" xlink:href="#dagger-gradient">
		</linearGradient>
		<linearGradient id="dagger-gradient-4" x1="186.92" y1="217.07" x2="191.19" y2="217.07" xlink:href="#dagger-gradient-2">
		</linearGradient>
		<linearGradient id="dagger-gradient-5" x1="186.97" y1="218.94" x2="191.14" y2="218.94" xlink:href="#dagger-gradient">
		</linearGradient>
		<linearGradient id="dagger-gradient-6" x1="186.92" y1="218.94" x2="191.19" y2="218.94" xlink:href="#dagger-gradient-2">
		</linearGradient>
		<linearGradient id="dagger-gradient-7" x1="186.95" y1="220.81" x2="191.12" y2="220.81" xlink:href="#dagger-gradient">
		</linearGradient>
		<linearGradient id="dagger-gradient-8" x1="186.9" y1="220.81" x2="191.17" y2="220.81" xlink:href="#dagger-gradient-2">
		</linearGradient>
		<linearGradient id="dagger-gradient-9" x1="186.94" y1="222.72" x2="191.11" y2="222.72" xlink:href="#dagger-gradient">
		</linearGradient>
		<linearGradient id="dagger-gradient-10" x1="186.89" y1="222.72" x2="191.16" y2="222.72" xlink:href="#dagger-gradient-2">
		</linearGradient>
		<linearGradient id="dagger-gradient-11" x1="186.96" y1="224.59" x2="191.13" y2="224.59" xlink:href="#dagger-gradient">
		</linearGradient>
		<linearGradient id="dagger-gradient-12" x1="186.91" y1="224.59" x2="191.18" y2="224.59" xlink:href="#dagger-gradient-2">
		</linearGradient>
		<linearGradient id="dagger-gradient-13" x1="186.96" y1="226.46" x2="191.13" y2="226.46" xlink:href="#dagger-gradient">
		</linearGradient>
		<linearGradient id="dagger-gradient-14" x1="186.91" y1="226.46" x2="191.18" y2="226.46" xlink:href="#dagger-gradient-2">
		</linearGradient>
		<linearGradient id="dagger-gradient-15" x1="186.94" y1="228.33" x2="191.11" y2="228.33" xlink:href="#dagger-gradient">
		</linearGradient>
		<linearGradient id="dagger-gradient-16" x1="186.89" y1="228.33" x2="191.16" y2="228.33" xlink:href="#dagger-gradient-2">
		</linearGradient>
		<linearGradient id="dagger-gradient-17" x1="189.01" y1="198.52" x2="189.01" y2="214.71" xlink:href="#dagger-gradient">
		</linearGradient>
		<linearGradient id="torch-gradient" x1="169.41" y1="230.24" x2="183.09" y2="230.24" gradientUnits="userSpaceOnUse">
			<stop offset="0" stop-color="#fff">
			</stop>
			<stop offset="0.84" stop-color="#e8e7e7">
			</stop>
		</linearGradient>
		<linearGradient id="torch-gradient-2" x1="172.73" y1="222.6" x2="216.21" y2="222.6" gradientTransform="translate(101.03 -57.82) rotate(22.71)" xlink:href="#torch-gradient">
		</linearGradient>
		<linearGradient id="pattern-1-gradient" x1="150.25" y1="128.52" x2="121.27" y2="111.79" gradientUnits="userSpaceOnUse">
			<stop offset="0" stop-color="#162048">
			</stop>
			<stop offset="1" stop-color="#22577e">
			</stop>
		</linearGradient>
		<linearGradient id="pattern-1-gradient-2" x1="157.06" y1="219.45" x2="113.95" y2="194.56" xlink:href="#pattern-1-gradient">
		</linearGradient>
	</defs>
	<!--  -->
	<g id="body" class="body-1">
		<path class="body-2" d="M160.39,248.16a10.38,10.38,0,0,0-6.18-2.34A48.94,48.94,0,0,0,137.64,252a129.53,129.53,0,0,1,5.66,13.46,102.37,102.37,0,0,1-9.24,6.43,61.89,61.89,0,0,1-6.2-14.66,5.43,5.43,0,0,0-4.31.94,63.68,63.68,0,0,0,8,22.5,67,67,0,0,0,14.11-7.95,128.09,128.09,0,0,1,4.17,19.85,22.83,22.83,0,0,0,13.36,1.16C167.5,282.29,166.2,257.11,160.39,248.16Z">
		</path>
		<path class="body-3" d="M179.62,240.72a37.69,37.69,0,0,0-16.52,5.55q9,23.07,15.74,46.91a66.84,66.84,0,0,0,12.64.49h0A128.48,128.48,0,0,0,179.62,240.72Z">
		</path>
		<path class="body-2" d="M176.73,243.5a39.15,39.15,0,0,0-11.82,4.38,257.29,257.29,0,0,1,10.46,26.8l10.91-.45C183.46,262.82,180.4,252.22,176.73,243.5Z">
		</path>
		<path class="body-4" d="M194.56,267.63c-.68-8.52-3-17.29-7.69-24.46-2.59-1.79-7.09-2.47-7.09-2.47l-.16,0a128.48,128.48,0,0,1,11.89,53,16,16,0,0,0,2.27-.45C194.51,284.71,195.25,276.15,194.56,267.63Z">
		</path>
		<path class="body-5" d="M193.93,262.52a50.19,50.19,0,0,0-7.06-19.35c-2.59-1.79-7.09-2.47-7.09-2.47l-.16,0a134.44,134.44,0,0,1,7.67,21.38C189.48,262.22,191.73,262.39,193.93,262.52Z">
		</path>
		<path class="body-2" d="M177.31,261a33.71,33.71,0,0,0-2-5.15,47.82,47.82,0,0,0-5.84,1.63c-3.43,5.82-13.62,15.89-18.77,19.34-7.59-2.73-12.94-10.14-18.13-15.44-.54.55-1,.9-1.54,1.45,5.38,6.71,11.59,15.67,20.18,18.6C156.82,279.08,172.34,268.2,177.31,261Z">
		</path>
		<polygon class="body-6" points="187.01 261.36 193.86 261.98 194.03 262.99 187.53 262.99 187.01 261.36">
		</polygon>
		<path class="body-7" d="M175.83,262.87l-1.64-5.26a191.66,191.66,0,0,1-20.55,19.66l1.18,2.26C161.09,275.89,170.9,268.66,175.83,262.87Z">
		</path>
		<path class="body-8" d="M140.76,209.9a137.3,137.3,0,0,0-4.83,24.54,133.3,133.3,0,0,1-28.38-.15,130.59,130.59,0,0,1-5.84-24C114.26,207.16,127.91,208.48,140.76,209.9Z">
		</path>
		<path class="body-9" d="M134.83,217.54l-4.2-.07c-2.59,0-6.15,0-10.08.12s-7.48.36-10.06.56l-4.18.36s1.55-.41,4.11-.89a70.77,70.77,0,0,1,10.1-1.1,71.5,71.5,0,0,1,10.14.41C133.25,217.23,134.83,217.54,134.83,217.54Z">
		</path>
		<path class="body-9" d="M133.06,224.61s-1.38.28-3.64.57a69,69,0,0,1-8.85.56,67.16,67.16,0,0,1-8.85-.64c-2.25-.31-3.63-.6-3.63-.6l3.67.07c2.26.05,5.38.08,8.81.1s6.56,0,8.82,0Z">
		</path>
		<path class="body-10" d="M137.14,215.48a111.07,111.07,0,0,0-2.68,15.81c-3.91-.1-7.65-.24-11.56-.34a42.44,42.44,0,0,1-1.24-15.3,56.93,56.93,0,0,1,15.26-.18C136.83,215.51,137.23,215.44,137.14,215.48Z">
		</path>
		<path class="body-11" d="M106.87,230.54a194.18,194.18,0,0,0,4.52,25.33c2.91.2,6.06.43,8.9.82.52,2.57,1,5.22,1.31,7.85a79,79,0,0,0,10.09-.65,22.35,22.35,0,0,0,4.37-6.55,23.61,23.61,0,0,1,5.86-1.91,50,50,0,0,0,6.7-24.35Q127.82,230.09,106.87,230.54Z">
		</path>
		<path class="body-3" d="M111.39,255.87a194.18,194.18,0,0,1-4.52-25.33q-8.48.17-17,.54a62.91,62.91,0,0,0,5.88,22.8l9,.88a54.71,54.71,0,0,1,5,9,85.86,85.86,0,0,0,11.77.78c-.34-2.63-.79-5.28-1.31-7.85C117.45,256.3,114.3,256.07,111.39,255.87Z">
		</path>
		<path class="body-12" d="M139.67,230.74A102.47,102.47,0,0,1,136.16,246a48.48,48.48,0,0,1-17.52-.23L116,230.43h-.81l2.71,16,.27.06a50.62,50.62,0,0,0,9.85,1,49.13,49.13,0,0,0,8.48-.74l.24,0,.08-.24a103.14,103.14,0,0,0,3.61-15.69C140.2,230.76,139.94,230.74,139.67,230.74Z">
		</path>
		<path class="body-2" d="M87,264.81a104.92,104.92,0,0,0,17.85-10.05l3.27.32c-4.45,5.07-10.59,11.52-15.25,15Z">
		</path>
		<path class="body-2" d="M117.36,256.38a118.8,118.8,0,0,1-12.16,25,46.42,46.42,0,0,1-8.61-5.67,23.52,23.52,0,0,1,1.88-9,30.76,30.76,0,0,0,5.19,4.18c3.66-3.62,7.08-10.34,9.48-14.9A39.38,39.38,0,0,1,117.36,256.38Z">
		</path>
		<path class="body-2" d="M78.86,262.16c-2.64-4.49-5.56-8.38-8.21-12.86-.86,3.3-1.62,6.17-2.47,9.48q4.62,5.14,9.26,10.28A37.91,37.91,0,0,0,78.86,262.16Z">
		</path>
		<path class="body-13" d="M99.28,240.85c2.69,17.92-.09,36.56-6.88,53.37a35.49,35.49,0,0,1-12-.05,93.9,93.9,0,0,1-1-51.89C85,240.27,93.44,239.53,99.28,240.85Z">
		</path>
		<path class="body-14" d="M79.41,242.28a92.94,92.94,0,0,0-3.11,21,12.07,12.07,0,0,0,4.65.78,126.53,126.53,0,0,0,.57,13.34c1.54,0,3.07.1,4.61.13a6.88,6.88,0,0,0,3-.37A53.59,53.59,0,0,1,91.9,263c2.73-.61,5.5-1.39,8.19-2.22a94.59,94.59,0,0,0-.81-20C93.44,239.53,85,240.27,79.41,242.28Z">
		</path>
		<path class="body-15" d="M72.28,242.57a106.21,106.21,0,0,1-19.9,49.21,14.76,14.76,0,0,1-5.54-.2,109.24,109.24,0,0,1,5.94-54.34A27.15,27.15,0,0,1,72.28,242.57Z">
		</path>
		<path class="body-16" d="M52.78,237.24A108.52,108.52,0,0,0,46.18,266a28.46,28.46,0,0,0,7.49.08,105.28,105.28,0,0,1,8-17.74A25.48,25.48,0,0,1,71,250.22c.52-2.54.95-5.09,1.27-7.65A27.15,27.15,0,0,0,52.78,237.24Z">
		</path>
		<path class="body-6" d="M61.62,248l-.26.05-.12.23a105.11,105.11,0,0,0-7.62,17.13,23.42,23.42,0,0,1-7.38-.1c0,.36-.07.71-.1,1.06a24.19,24.19,0,0,0,8,0l.32-.05.1-.31a104.46,104.46,0,0,1,7.53-17,14.59,14.59,0,0,1,8.87,1.65c.07-.36.16-.72.23-1.08A15.66,15.66,0,0,0,61.62,248Z">
		</path>
		<path class="body-6" d="M100.14,259.89a40.81,40.81,0,0,1-8.41,2.43l-.32.07-.09.31a105.06,105.06,0,0,0-2.62,13.2l-.13.84a31.57,31.57,0,0,1-6.65.17,116.89,116.89,0,0,1-.11-13l0-.57h-.57a20.87,20.87,0,0,1-5-.55c0,.36,0,.73,0,1.09a21.8,21.8,0,0,0,4.43.52,120,120,0,0,0,.17,13.05l0,.45.44.05a26.35,26.35,0,0,0,3,.16,32.39,32.39,0,0,0,4.73-.34l.39-.06.25-1.62a103,103,0,0,1,2.51-12.76,43.21,43.21,0,0,0,7.81-2.22Z">
		</path>
		<path class="body-17" d="M64.94,240a157,157,0,0,0-15.1,41.89c-1.14.08-2.13.05-3.27.13a122.41,122.41,0,0,1,6.54-43.41C56.67,238.22,61.7,238.51,64.94,240Z">
		</path>
		<path class="body-18" d="M91.84,292.27c-.85,0-1.31,0-2.16,0a260.83,260.83,0,0,0,2.62-42.07c-4.39-.72-9-1.31-13.36-2a23.8,23.8,0,0,1,1-4.64,44.5,44.5,0,0,1,18-1.8C100.2,249,99.11,275.54,91.84,292.27Z">
		</path>
		<path class="body-19" d="M131.31,262.68a15.35,15.35,0,0,0,4.08-6.79c1.82-.69,3.9-1.28,5.71-2a57.85,57.85,0,0,0,5.61-20.51,282.13,282.13,0,0,0-37.79-1.27c10.83,1.7,21.93,3.76,32.76,5.47a30.47,30.47,0,0,1-3.12,14.64c-1.45.78-3.37,1.45-4.82,2.23C132.72,257,132.34,260.22,131.31,262.68Z">
		</path>
		<path class="body-20" d="M96.84,106.74h0c2.16,45.31,3.43,67.09,1.68,107.38l66.65-.8c5.25-34.95,6.81-50.94,6.67-90.74Z">
		</path>
		<polygon class="body-3" points="155.19 191.95 115.91 189.92 115.55 189.9 103.25 214.05 104.38 214.05 116.22 190.88 154.36 192.86 159.49 213.4 160.56 213.4 155.19 191.95">
		</polygon>
		<path class="body-21" d="M98.8,108.59l71.45,14.55c.77,26.8-1.69,58.83-5.37,89.69H163.5c1.54-28.71,2.29-58.37.71-82.76-15.49-5.73-39.81-12.71-65.41-19.88Z">
		</path>
		<path class="body-3" d="M96.84,106.74h0L60,124.19c5.41,38.25,7.77,54,10.78,89.93H98.52C100.27,173.83,99,152.05,96.84,106.74Z">
		</path>
		<path class="body-6" d="M90.13,206.17H76.07l0-.32c-2.8-28.15-5.73-43.58-10.72-74.76l0-.27,25.14-10.38,0,.52c1.82,36.69,1,54.59-.29,84.87Zm-13.35-.71h12.6c1.3-30,2.08-47.63.3-83.94l-23.56,9.73C71.07,162.23,74,177.47,76.78,205.46Z">
		</path>
		<polygon class="body-3" points="151.69 118.33 149.3 129.25 126.09 125.49 122.07 112.07 121.22 111.89 125.41 125.89 125.47 126.11 149.91 130.07 152.45 118.48 151.69 118.33">
		</polygon>
		<ellipse class="body-22" cx="135.48" cy="161.85" rx="31.74" ry="36.98" transform="translate(-23.87 23.44) rotate(-9.09)">
		</ellipse>
		<path class="body-3" d="M137.06,199.09c-.54,0-1.07,0-1.61,0-17.8-1-32.28-18.46-32.28-39,0-11.43,4.47-21.82,12.25-28.5a28,28,0,0,1,20.08-6.94c17.8,1,32.29,18.47,32.29,39,0,11.43-4.47,21.82-12.26,28.5A28,28,0,0,1,137.06,199.09Zm-3.16-73.72A27.17,27.17,0,0,0,116,132.14c-7.62,6.54-12,16.72-12,27.94,0,20.1,14.12,37.23,31.48,38.19A27.13,27.13,0,0,0,155,191.55c7.62-6.54,12-16.72,12-27.94,0-20.1-14.13-37.23-31.49-38.19C134.93,125.39,134.42,125.37,133.9,125.37Z">
		</path>
		<path class="body-3" d="M138.28,191.44c-.37,0-.73,0-1.1,0-13.57-.75-24.61-14.78-24.61-31.26,0-15.65,10-27.9,22.71-27.9.37,0,.73,0,1.1,0C150,133,161,147.06,161,163.55a31,31,0,0,1-7.11,20.37,20.61,20.61,0,0,1-15.6,7.52Z">
		</path>
		<path class="body-23" d="M134.64,133.28c-.36,0-.73,0-1.09,0a19.42,19.42,0,0,0-8.9,2.15c-7.24,4.61-12.08,13.85-12.08,24.75,0,16.48,11,30.51,24.61,31.26.37,0,.73,0,1.1,0h0a19.42,19.42,0,0,0,8.88-2.18,23.56,23.56,0,0,0,5-4.34,31,31,0,0,0,7.11-20.37C159.25,148.06,148.21,134,134.64,133.28Z">
		</path>
		<path class="body-24" d="M147.73,173.12a66,66,0,0,0,7.67,4.74,32.19,32.19,0,0,0,2.77-13.31c0-16-10.58-29.57-23.59-30.29l-1,0a18.23,18.23,0,0,0-8.33,2,21,21,0,0,0-3.39,2.73C127.53,152,135.46,164.23,147.73,173.12Z">
		</path>
		<path class="body-25" d="M134.34,169c.48,3.32-1.43,6-4.28,6s-5.53-2.69-6-6,1.44-6,4.28-6S133.87,165.65,134.34,169Z">
		</path>
		<path class="body-26" d="M140.29,168.15c-.63,4.4,1.91,8,5.69,8s7.34-3.58,8-8-1.91-8-5.69-8S140.93,163.74,140.29,168.15Z">
		</path>
		<path class="body-27" d="M134.22,128.29c17.19,1,31.13,17.81,31.13,37.65a38.93,38.93,0,0,1-3.68,16.75,38.37,38.37,0,0,0,4.93-19.12c0-19.85-13.93-36.71-31.12-37.66-11.88-.66-22.2,6.46-27.45,17.47C113.57,133.74,123.23,127.68,134.22,128.29Z">
		</path>
	</g>
	<!--  -->
	<!--  -->
	<g id="torch" class="torch-1">
		<path class="torch-2" d="M190.75,153.65c-7,5.38-13.51,10.73-20.43,16.1-.27,3.54-.59,7-1,10.59a384.79,384.79,0,0,1,4.3,43.72l29.95-14A343.32,343.32,0,0,0,190.75,153.65Z">
		</path>
		<path class="torch-3" d="M190.75,153.65c-7,5.38-13.51,10.73-20.43,16.1-.27,3.54-.59,7-1,10.59,1.11,7.11,2.11,15.06,2.87,22.81,3.21-1.71,12.2-6.51,14.06-7.56,2-1.14,11.46-6.83,13.39-8Q196.15,170.85,190.75,153.65Z">
		</path>
		<path class="torch-2" d="M173.65,224.06c3.63,1.88,8.72,5.49,12.16,7.72,10.87-2.93,23.82-8.34,33.64-12.7a106.93,106.93,0,0,0-15.85-9Z">
		</path>
		<path class="torch-4" d="M190.75,153.65A343.32,343.32,0,0,1,203.6,210.1a106.93,106.93,0,0,1,15.85,9c-1-19.09-6.58-39.6-12.43-59.14A36,36,0,0,0,190.75,153.65Z">
		</path>
		<path class="torch-5" d="M193.56,210.82a8.62,8.62,0,0,1,4.71-1.29,44.49,44.49,0,0,1,9.34,14.05,22.64,22.64,0,0,1-9.26,13.14A34.6,34.6,0,0,1,182.62,242a54.41,54.41,0,0,1-3.82-14.77l.2.12c.88-.47,1.62-1.17,2.51-1.64-.35-2.71-.67-5.07-1-7.79A52.91,52.91,0,0,1,193.56,210.82Z">
		</path>
		<path class="torch-5" d="M189.46,170.2a11.7,11.7,0,0,1-1.64,8.58,11.43,11.43,0,0,1-7.14,4.89,5.91,5.91,0,0,1-2.71.05c-2.5-.63-2.16-3.14-2.56-5.2-.45-2.39-1-4.77-1.64-7.12a44.45,44.45,0,0,1,12.36-8.2C187.65,165.72,188.91,167.34,189.46,170.2Z">
		</path>
		<path class="torch-6" d="M190.75,153.65q5.4,17.21,8.92,33.95l.35-.22a84,84,0,0,1,9.24,3.93c2.14,1.2,5.42,3.25,7,4.26-2.38-11.88-5.77-23.93-9.27-35.63A36,36,0,0,0,190.75,153.65Z">
		</path>
		<path class="torch-7" d="M199.82,188.26l-.27-1.22h0l-.17.11c-7.74,5-16.89,10.19-27.2,15.53.05.42.09.84.13,1.25C182.73,198.54,192,193.28,199.82,188.26Z">
		</path>
		<path class="torch-3" d="M216.13,194.78c-4.25-2.76-12.1-7.17-16.38-7.71l-.2,0,.27,1.22,0,0c4.51.69,13,5.7,16.61,8.11C216.34,195.83,216.24,195.3,216.13,194.78Z">
		</path>
		<path class="torch-7" d="M190.47,193.23l-.54.11a86.55,86.55,0,0,1-1.77-10.11v-.14l.1-.09a40.86,40.86,0,0,1,5.79-4.53,99.75,99.75,0,0,0-6.3-22.52l.51-.2a100.82,100.82,0,0,1,6.37,22.84l0,.18-.15.09a39.09,39.09,0,0,0-5.76,4.47A85.82,85.82,0,0,0,190.47,193.23Z">
		</path>
		<path class="torch-8" d="M205.68,160.38A216.27,216.27,0,0,1,217,215.51a29.32,29.32,0,0,0-7.86-4.47,263,263,0,0,0-8.51-44.19,26.78,26.78,0,0,0-5-2.74c-.88-2.73-1.85-5.6-2.73-8.33C196.84,156.77,202.14,158.37,205.68,160.38Z">
		</path>
		<path class="torch-7" d="M176,212.21c-.92.46-1.84.87-2.77,1.23l-.22-.51a33.66,33.66,0,0,0,8.33-4.75,30.66,30.66,0,0,0-.59-9.39l.53-.11a30.42,30.42,0,0,1,.6,9.68v.11l-.09.07A33.93,33.93,0,0,1,176,212.21Z">
		</path>
		<path class="torch-5" d="M171.23,153.77c-.19,5.09-.46,9.86-.8,14.53,2.26,2.86,4.39,5.82,6.35,8.88A9.67,9.67,0,0,0,183.6,175a10.15,10.15,0,0,0,3.28-6.58A102.76,102.76,0,0,0,171.23,153.77Z">
		</path>
		<path class="torch-9" d="M181.58,164.78a80.64,80.64,0,0,0-10.4-9.85c-.09,2.33-.2,4.59-.32,6.81l1.35,1.38a19,19,0,0,0,3.35-3.16,14.7,14.7,0,0,1-1.35,2.24,13.8,13.8,0,0,1-1.36,1.61c1,1.1,2,2.23,3,3.37a17.27,17.27,0,0,0,1.53-1.75,16.66,16.66,0,0,0,1.51-2.3,14.78,14.78,0,0,1-1,2.61,13.42,13.42,0,0,1-1.36,2.17c1.33,1.54,2.63,3.1,3.88,4.71A13.05,13.05,0,0,0,181.58,164.78Z">
		</path>
		<path class="torch-7" d="M166.83,241.19a10.34,10.34,0,0,1-2.05-1.76,12.76,12.76,0,0,1-3.12-7.47,10,10,0,0,1,.18-2.69c.91-4.25,4.62-5.8,8.29-3.46a12.14,12.14,0,0,1,5,11.91C174.2,242,170.49,243.52,166.83,241.19Z">
		</path>
		<rect class="torch-7" x="167.95" y="221.76" width="13.49" height="18.24" transform="translate(-75.6 85.35) rotate(-22.71)">
		</rect>
		<path class="torch-10" d="M174.61,237.93a9.47,9.47,0,0,1-2.05-1.76,12.76,12.76,0,0,1-3.12-7.46,9.61,9.61,0,0,1,.18-2.69c.91-4.25,4.62-5.81,8.28-3.47a12.12,12.12,0,0,1,5,11.91C182,238.71,178.27,240.27,174.61,237.93Z">
		</path>
		<rect class="torch-11" x="174.72" y="213.48" width="39.5" height="18.24" transform="translate(-70.87 92.35) rotate(-22.71)">
		</rect>
		<path class="torch-7" d="M210.59,225.73a5.66,5.66,0,0,1-4.83-.84,10,10,0,0,1-2-1.76,12.76,12.76,0,0,1-3.12-7.46,9.61,9.61,0,0,1,.18-2.69,5.55,5.55,0,0,1,3.11-4.21l-5.06,2.12a5.55,5.55,0,0,0-3.11,4.2,9.68,9.68,0,0,0-.18,2.7,12.76,12.76,0,0,0,3.12,7.46,10.06,10.06,0,0,0,2.05,1.76,5.42,5.42,0,0,0,5.58.53Z">
		</path>
		<path class="torch-7" d="M204.48,228.29a5.66,5.66,0,0,1-4.83-.84,10,10,0,0,1-2-1.76,12.84,12.84,0,0,1-3.13-7.46,9.7,9.7,0,0,1,.19-2.7,5.55,5.55,0,0,1,3.11-4.2l-2.36,1a5.55,5.55,0,0,0-3.11,4.2,9.61,9.61,0,0,0-.18,2.69,12.73,12.73,0,0,0,3.12,7.46,9.47,9.47,0,0,0,2.05,1.76,5.37,5.37,0,0,0,5.58.53Z">
		</path>
		<path class="torch-12" d="M211,222.68a10,10,0,0,1-2-1.76,12.84,12.84,0,0,1-3.13-7.46,9.6,9.6,0,0,1,.19-2.69c.9-4.25,4.62-5.81,8.28-3.47a12.12,12.12,0,0,1,5,11.91C218.42,223.46,214.71,225,211,222.68Z">
		</path>
		<ellipse class="torch-13" cx="214.82" cy="214.1" rx="8.68" ry="12.49" transform="translate(-66.01 99.54) rotate(-22.71)">
		</ellipse>
		<path class="torch-5" d="M207.4,218.88,206.21,216c-3-7.25,1.58-16.08,10.31-19.73l7.7-3.22,12.17,29.08-7.7,3.22C220,229,210.43,226.12,207.4,218.88Z">
		</path>
		<ellipse class="torch-9" cx="230.3" cy="207.62" rx="10.96" ry="15.76" transform="translate(-62.3 105.02) rotate(-22.71)">
		</ellipse>
		<path class="torch-14" d="M228,218.25a13.51,13.51,0,0,1-2.83-2.43,17.79,17.79,0,0,1-4.32-10.32,13.51,13.51,0,0,1,.26-3.72c1.25-5.88,6.39-8,11.45-4.8s8.16,10.6,6.9,16.48S233.09,221.48,228,218.25Z">
		</path>
		<path class="torch-15" d="M225.19,215.82a17.79,17.79,0,0,1-4.32-10.32,3.26,3.26,0,0,1,3.81.12,7.58,7.58,0,0,1,3.1,7.41A3.27,3.27,0,0,1,225.19,215.82Z">
		</path>
		<path class="torch-2" d="M181.29,224.64a12,12,0,0,0-6.72,3,38.71,38.71,0,0,0,2.85,16.84c.89,0,2.65.08,2.67.11a22.72,22.72,0,0,0,9.77-1.62,90.06,90.06,0,0,0-5.77-17.49Z">
		</path>
		<path class="torch-2" d="M180.79,224.29a32.34,32.34,0,0,1,14-6.87c.52-2.81.87-6.12-.72-8.52l-2.76-1.4a30.57,30.57,0,0,0-14.87,8.69,13.81,13.81,0,0,0,1.48,7.17Z">
		</path>
		<path class="torch-2" d="M189.83,219.64a18.42,18.42,0,0,0-3.17,1.51,6.15,6.15,0,0,0-2.48,2.42,54.59,54.59,0,0,0,8.71,17.81l2.33.05a23.22,23.22,0,0,0,9.69-6.23c-2.85-5.49-7.14-11.3-12.43-14.62Z">
		</path>
		<path class="torch-16" d="M187.42,242.91a22.9,22.9,0,0,1-10,1.57,38.71,38.71,0,0,1-2.85-16.84,12,12,0,0,1,6.72-3A96.43,96.43,0,0,1,187.42,242.91Zm2.41-23.27a18.42,18.42,0,0,0-3.17,1.51,6.15,6.15,0,0,0-2.48,2.42,54.59,54.59,0,0,0,8.71,17.81,23,23,0,0,0,9.86-6.37C199.76,229.25,195.3,223.16,189.83,219.64Zm1.45-12.14a30.57,30.57,0,0,0-14.87,8.69,13.81,13.81,0,0,0,1.48,7.17,32.06,32.06,0,0,1,14.24-7C192.63,213.46,192.94,210,191.28,207.5Z">
		</path>
	</g>
	<!--  -->
	<g id="drill" class="drill-1">
		<path class="drill-2" d="M105.87,224.65A66.58,66.58,0,0,1,97.78,233a45.74,45.74,0,0,1-8.31,5.86c1-5.69.16-10-2.38-12.66,3.48-3.27,6.63-6.17,10.2-9C101.87,217.81,105.13,220.49,105.87,224.65Z">
		</path>
		<path class="drill-3" d="M103.35,223.89a58.58,58.58,0,0,1-6.95,8.45c-.18-4.19-1.57-7.35-4.14-9.42a66,66,0,0,1,5-4.42A6.83,6.83,0,0,1,103.35,223.89Z">
		</path>
		<path class="drill-2" d="M91.39,225.86c.82-.73,2.27-2.1,3.46-3.29S97,220.39,97,220.39l-2.31,2.06c-1.26,1.11-2.71,2.35-3.49,3.05Z">
		</path>
		<path class="drill-2" d="M92.59,227.36A48.91,48.91,0,0,0,96.37,224c1.28-1.24,2.19-2.26,2.19-2.26s-1.06,1-2.33,2.11-2.68,2.2-3.44,2.78Z">
		</path>
		<path class="drill-2" d="M93.15,229.65c1.14-.93,3.21-2.77,4.88-4.38s3-3,3-3-1.42,1.33-3.12,2.81-3.65,3.1-4.72,4Z">
		</path>
		<path class="drill-2" d="M94,231.67c1.21-1.06,3.36-3.1,5-4.84s2.94-3.16,2.94-3.16-1.42,1.45-3.18,3.11-3.83,3.49-5,4.48Z">
		</path>
		<polygon class="drill-4" points="138.43 284.5 130.15 210.02 73.07 254.59 138.43 284.5">
		</polygon>
		<path class="drill-5" d="M73.07,254.59s-2.38-1.69,5.64-9.8,22.44-20.14,41.93-31.79c0,0,8.5-4.79,9.51-3S115,226.46,101.71,236.55,76.36,255,73.07,254.59Z">
		</path>
		<path class="drill-6" d="M134.69,212.66l-1.09-1.43s.32,10.24-18.27,32.06c0,0-2,1.49-21.45,18,0,0,15-4.83,32.66-31C126.54,230.29,133.05,220,134.69,212.66Z">
		</path>
		<path class="drill-5" d="M133.69,212.08s-2.31,16.1-23.92,37.82c0,0-14.64,14.41-24.08,14.58,0,0-2.06-1-.52-4.57l3.31,1S106,256.08,124.08,228c0,0,7-9.9,6.47-14.48l3-2.31Z">
		</path>
		<path class="drill-7" d="M135.61,229.94l-.83-1.09s.24,7.82-14,24.48c0,0-1.53,1.14-16.38,13.77,0,0,11.46-3.68,24.93-23.69C129.38,243.41,134.36,235.52,135.61,229.94Z">
		</path>
		<path class="drill-5" d="M134.85,229.5s-1.77,12.3-18.27,28.88c0,0-11.18,11-18.38,11.13,0,0-1.57-.78-.4-3.49l2.53.75s13.37-3.68,27.17-25.1c0,0,5.34-7.56,4.95-11l2.33-1.77Z">
		</path>
		<path class="drill-8" d="M136.26,243.16l-.62-.83s.18,5.91-10.55,18.5c0,0-1.15.86-12.37,10.41,0,0,8.66-2.79,18.84-17.91C131.56,253.33,135.32,247.37,136.26,243.16Z">
		</path>
		<path class="drill-5" d="M135.69,242.82s-1.34,9.29-13.81,21.82c0,0-8.44,8.32-13.89,8.42,0,0-1.18-.59-.3-2.64l1.92.56s10.09-2.77,20.53-19c0,0,4-5.71,3.74-8.35l1.76-1.34Z">
		</path>
		<path class="drill-9" d="M137,256.45l-.42-.56s.12,4-7.18,12.6c0,0-.78.59-8.43,7.09,0,0,5.9-1.9,12.83-12.2A28.66,28.66,0,0,0,137,256.45Z">
		</path>
		<path class="drill-5" d="M136.58,256.23s-.91,6.32-9.4,14.86c0,0-5.75,5.66-9.46,5.72,0,0-.8-.39-.2-1.79l1.3.38s6.88-1.89,14-12.91c0,0,2.75-3.89,2.55-5.69l1.2-.91Z">
		</path>
		<path class="drill-2" d="M113.76,217.76S116,220,101,231.51s-17.76,9.93-17.76,9.93-.42-1.28,1.7-3.33S109,219.86,109,219.86,112.39,217.41,113.76,217.76Z">
		</path>
		<path class="drill-10" d="M88.3,156.72A3.72,3.72,0,0,0,90,154a8.51,8.51,0,0,0-.37-3.28A23.8,23.8,0,0,0,78.4,136.54a15.58,15.58,0,0,0-9.11,5.77c-2.1,3-2.62,7.27-.68,10.39C77.37,163.14,85.27,158.81,88.3,156.72Z">
		</path>
		<path class="drill-2" d="M68.32,149.57a5.35,5.35,0,0,1,3-3.67,9.54,9.54,0,0,1,8.72,0,15.71,15.71,0,0,1,6.44,6.83,3.82,3.82,0,0,1,.56,2.34c-.44,2.94-4.38,3.88-6.84,3.66A15.86,15.86,0,0,1,73,156.05C71,154.72,68,152.25,68.32,149.57Z">
		</path>
		<path class="drill-11" d="M84.08,143a19.82,19.82,0,0,0-5.76-5.37,14.3,14.3,0,0,0-7.12,4,4.81,4.81,0,0,0-1.56,3.93,15.7,15.7,0,0,1,13.08-1.42C83.19,143.78,83.79,143.55,84.08,143Z">
		</path>
		<path class="drill-2" d="M79,177.19a78.66,78.66,0,0,1,3.6-24.9,7.31,7.31,0,0,0-3.61-3.58,6.8,6.8,0,0,0-4.9-.28,57.82,57.82,0,0,0-4.1,20.38C71.73,172.52,75.37,175.13,79,177.19Z">
		</path>
		<path class="drill-12" d="M58,164.59c-6.12,4.83-11.41,10.95-16.5,16.87A201.27,201.27,0,0,0,74,234.41a75.45,75.45,0,0,0,26.4-15.77c-15-17.06-29.91-35.11-42.27-54.1Z">
		</path>
		<path class="drill-13" d="M91.47,208.29a431.36,431.36,0,0,1-33.3-43.75l-.15.05c-6.12,4.83-11.41,10.95-16.5,16.87a200.61,200.61,0,0,0,9.85,20.28L57,197.2s4.51,7.07,8,11.51,9,11.14,9,11.14a54.35,54.35,0,0,0,7-3.7c3.53-2.21,10.51-7.86,10.51-7.86Z">
		</path>
		<path class="drill-14" d="M108.14,208.68c-12.73-15.36-27.41-31.3-39.1-47.47-3.32.86-9.84,3-10.87,3.33,12.36,19,27.25,37,42.27,54.1l.19-.17A123.2,123.2,0,0,0,108.14,208.68Z">
		</path>
		<path class="drill-15" d="M58.17,164.54a431.36,431.36,0,0,0,33.3,43.75,66.19,66.19,0,0,0,4.55-5c1.08-1.38,2.54-3.51,3.46-4.9C89.08,186.28,78.15,173.81,69,161.21,65.72,162.07,59.2,164.21,58.17,164.54Z">
		</path>
		<path class="drill-13" d="M99.8,198.8l-.51-.6a47.05,47.05,0,0,1-8,9.85l.49.57h0A47.62,47.62,0,0,0,99.8,198.8Z">
		</path>
		<path class="drill-5" d="M91.26,208.06a69.78,69.78,0,0,1-17.21,11.35A204.44,204.44,0,0,1,57.25,197l-.21-.34-.32.23a41.49,41.49,0,0,0-5.5,4.58c.13.23.25.46.38.68a41.59,41.59,0,0,1,5.23-4.42,207.77,207.77,0,0,0,16.83,22.38l.19.22.25-.12A66.79,66.79,0,0,0,80.25,217a70.74,70.74,0,0,0,11.51-8.4l-.49-.57Z">
		</path>
		<path class="drill-5" d="M78.26,202.13l-1-1.17c-2.68,2.06-5.43,4-8.22,5.91L70,208A99.22,99.22,0,0,0,78.26,202.13Z">
		</path>
		<path class="drill-5" d="M74.66,197.66l-.93-1.18-8,5.91.83,1.17C69.32,201.64,72,199.66,74.66,197.66Z">
		</path>
		<path class="drill-5" d="M76.44,199.91c-.32-.39-.63-.79-1-1.19-2.66,2-5.37,4-8.09,5.93l.86,1.15C71,203.94,73.78,202,76.44,199.91Z">
		</path>
		<path class="drill-5" d="M62.72,197.7c.25.42.52.83.78,1.24,2.51-2,5.1-3.94,7.72-5.83l-.9-1.24Q66.42,194.65,62.72,197.7Z">
		</path>
		<path class="drill-5" d="M72.92,195.4,72,194.2c-2.64,1.91-5.25,3.88-7.79,5.88.26.4.54.8.8,1.2Q69,198.33,72.92,195.4Z">
		</path>
		<path class="drill-5" d="M75.06,213l-.57.32c.47.52.93,1,1.4,1.54A94.87,94.87,0,0,0,84.28,209l-1.39-1.56A58.38,58.38,0,0,1,75.06,213Z">
		</path>
		<path class="drill-5" d="M69.55,190.77,68.34,189c-2.55,1.89-5.28,4-7.28,5.85.32.57.65,1.11,1,1.67C64.46,194.52,67,192.59,69.55,190.77Z">
		</path>
		<path class="drill-5" d="M80.11,204.31l-1-1.15A98.13,98.13,0,0,1,70.82,209c.31.37.61.75.91,1.12A73.49,73.49,0,0,0,80.11,204.31Z">
		</path>
		<path class="drill-5" d="M82,206.47l-1-1.14a75.27,75.27,0,0,1-8.37,5.86c.31.36.62.73.94,1.09A57.81,57.81,0,0,0,82,206.47Z">
		</path>
		<path class="drill-3" d="M77.79,171a73.27,73.27,0,0,1,3.39-19,4.31,4.31,0,0,0-3.82-1.5,51.87,51.87,0,0,0-3.74,14.89S76.43,169.42,77.79,171Z">
		</path>
		<path class="drill-2" d="M74.73,153a16.32,16.32,0,0,1,2.76,1.55,11.66,11.66,0,0,1,1.63,1.4,10.24,10.24,0,0,0-1.29-1.77,9,9,0,0,0-2.67-2.08Z">
		</path>
		<path class="drill-2" d="M73.53,156.8a15.49,15.49,0,0,1,3,1.15,11.1,11.1,0,0,1,1.8,1.19,9.38,9.38,0,0,0-1.52-1.6,9.07,9.07,0,0,0-3-1.7Z">
		</path>
		<path class="drill-2" d="M72.49,161.27a17.08,17.08,0,0,1,3.27,1,13.45,13.45,0,0,1,2,1.13A11.2,11.2,0,0,0,76,161.88a10.16,10.16,0,0,0-3.29-1.58Z">
		</path>
		<path class="drill-16" d="M106.27,208.66a11.73,11.73,0,0,1-2.84,4c-11.8-12.57-23.22-26.18-34.65-40.41-1.44.05-2.72-.3-4.16-.25-1.68-2.22-3.25-4.53-4.7-6.9a32.22,32.22,0,0,1,8.36-2.66C80.81,178,93.28,193.9,106.27,208.66Z">
		</path>
		<path class="drill-5" d="M85.37,222.9a24.9,24.9,0,0,1-3.55,1.74l-.15.06-.12-.12a42.52,42.52,0,0,1-4.92-6l.41-.28a43.16,43.16,0,0,0,4.75,5.85A29.14,29.14,0,0,0,89,219.82a57,57,0,0,1-4-6.09l.44-.22a61.77,61.77,0,0,0,4.15,6.2l.15.19-.19.16A33.52,33.52,0,0,1,85.37,222.9Z">
		</path>
		<path class="drill-5" d="M54.37,199a35.09,35.09,0,0,1-4.92-8.7l-.07-.19.12-.16a41.16,41.16,0,0,1,8.2-8.48,45.66,45.66,0,0,1-6.18-11l.7-.26a45.45,45.45,0,0,0,6.3,11.07l.22.3-.3.22a40.8,40.8,0,0,0-8.22,8.38A34.63,34.63,0,0,0,55,198.5Z">
		</path>
		<path class="drill-5" d="M59.57,174.33l-2-3.22a39.14,39.14,0,0,0-5.84,5.67,15.44,15.44,0,0,0,1.69,3C55,178.28,57.6,175.93,59.57,174.33Z">
		</path>
		<path class="drill-17" d="M59.07,174.29l-1.53-2.4a28.53,28.53,0,0,0-4.35,4.23,11.41,11.41,0,0,0,1.26,2.23C55.64,177.24,57.6,175.48,59.07,174.29Z">
		</path>
		<path class="drill-5" d="M84.68,216.44c.5.88,1.06,1.77,1.64,2.59a24.16,24.16,0,0,1-4.82,2.87,13.45,13.45,0,0,1-2-2.18A30.59,30.59,0,0,0,84.68,216.44Z">
		</path>
		<path class="drill-17" d="M83.77,220c-.66.39-1.36.76-2.07,1.09a11.48,11.48,0,0,1-1.29-1.41c.39-.22.78-.43,1.16-.66a29.27,29.27,0,0,0,3.07-2.05c.37.63.74,1.21,1.1,1.74A23.07,23.07,0,0,1,83.77,220Z">
		</path>
		<path class="drill-5" d="M70,229.55l-.3-.4,3.47-2.51a129.08,129.08,0,0,1-12.54-16.83l-3.17,2.26-.29-.4,3.61-2.58.13.23a129,129,0,0,0,12.82,17.2l.18.2Z">
		</path>
	</g>
	<!--  -->
	<!--  -->
</svg>
