<?xml version="1.0" encoding="utf-8"?>
<!-- Generator: Adobe Illustrator 22.0.0, SVG Export Plug-In . SVG Version: 6.00 Build 0)  -->
<svg version="1.1" id="Layer_1" xmlns="http://www.w3.org/2000/svg" xmlns:xlink="http://www.w3.org/1999/xlink" x="0px" y="0px"
	 viewBox="0 0 245.9 350.1" style="enable-background:new 0 0 245.9 350.1;" xml:space="preserve">
<style type="text/css">
	.st0{fill:#C7C7C7;}
	.st1{fill:#2A3E51;}
	.st2{fill:url(#SVGID_1_);}
	.st3{fill:url(#SVGID_2_);}
	.st4{fill:#D3D3D3;}
	.st5{fill:url(#SVGID_3_);}
	.st6{fill:url(#SVGID_4_);}
	.st7{fill:#99999A;}
	.st8{opacity:0.65;fill:#C7C7C7;}
	.st9{fill:url(#SVGID_5_);}
	.st10{fill:#D7D7D7;}
	.st11{fill:url(#SVGID_6_);}
	.st12{fill:url(#SVGID_7_);}
	.st13{fill:url(#SVGID_8_);}
	.st14{fill:url(#SVGID_9_);}
	.st15{fill:url(#SVGID_10_);}
	.st16{fill:url(#SVGID_11_);}
	.st17{fill:url(#SVGID_12_);}
	.st18{fill:#4B6D73;}
	.st19{fill:url(#SVGID_13_);}
	.st20{fill:#C62026;}
	.st21{fill:url(#SVGID_14_);}
	.st22{fill:url(#SVGID_15_);}
	.st23{fill:url(#SVGID_16_);}
	.st24{fill:url(#SVGID_17_);}
	.st25{fill:url(#SVGID_18_);}
	.st26{fill:url(#SVGID_19_);}
	.st27{fill:url(#SVGID_20_);}
	.st28{fill:url(#SVGID_21_);}
	.st29{fill:url(#SVGID_22_);}
	.st30{fill:url(#SVGID_23_);}
	.st31{fill:url(#SVGID_24_);}
	.st32{fill:url(#SVGID_25_);}
	.st33{fill:url(#SVGID_26_);}
	.st34{fill:url(#SVGID_27_);}
	.st35{fill:url(#SVGID_28_);}
	.st36{fill:url(#SVGID_29_);}
</style>
<g>
	<g>
		<path class="st0" d="M189.3,52.9c-4,0-9.7,0.2-16.6,0.5c0-0.5,0.1-0.9,0.1-1.3c0-0.6,0-1.1,0.1-1.6c6.6-0.8,10.4-1.4,10.4-1.6
			c0-0.2-3.8,0-10.4,0.6c0-0.4,0-0.7,0-1c0-0.8-0.1-1.3-0.2-1.3c-0.1,0-0.3,0.4-0.5,1.2c-0.1,0.3-0.2,0.7-0.2,1.1
			c-2.1,0.2-4.4,0.4-6.9,0.6c0.2-4.3,0.2-6.7,0-6.7s-0.7,2.4-1.3,6.8h-0.1c-6.1,0.6-13.3,1.3-21.4,2.1c-8,0.8-16.9,1.8-26.2,2.8
			S98,57.1,89.9,58c-8,0.9-15.3,1.8-21.3,2.5C56.5,62,48.9,63,49,63.2c0,0.3,7.6-0.3,19.8-1.4c6.1-0.6,13.3-1.3,21.4-2.1
			c8-0.8,16.9-1.8,26.2-2.8s18.1-2,26.2-2.9c8-0.9,15.1-1.8,21.2-2.5c-0.1,0.7-0.2,1.4-0.3,2.2c-5.8,0.3-12.3,0.8-19.1,1.3
			c-10.2,0.8-21.3,1.8-33,2.9c-11.7,1.1-22.8,2.3-32.9,3.3s-19.2,1.9-26.9,2.7c-4.1,0.4-7.7,0.8-10.9,1.1c-0.1-1.1-0.2-2.1-0.4-3
			c-0.7-5.3-1.2-8.2-1.4-8.2c-0.3,0-0.3,3,0,8.3c0,0.9,0.1,2,0.1,3c-2.1,0.2-3.9,0.4-5.5,0.6c-0.9,0.1-1.7,0.2-2.4,0.3
			c0-0.1,0-0.2-0.1-0.3c-0.2-1.1-0.4-2-0.6-2.6s-0.4-0.9-0.5-0.9s-0.2,0.4-0.2,1s0,1.5,0,2.7c0,0.1,0,0.2,0,0.4
			c-1.9,0.3-2.9,0.5-2.9,0.6c0,0.2,1,0.3,2.9,0.3c0,1.1,0.1,2.4,0.2,3.8c-2.5,0.3-4.8,0.6-6.8,0.8c-5.2,0.7-8.4,1.2-8.4,1.4
			c0,0.3,3.3,0.2,8.5-0.1c2-0.1,4.3-0.3,6.8-0.5c0,0.7,0.1,1.3,0.1,2c0.2,3.4,0.5,6.5,0.7,8.8c0.3,2.2,0.5,3.6,0.8,3.6
			s0.5-1.4,0.6-3.7c0.1-2.3,0.1-5.4-0.2-8.8c0-0.7-0.1-1.4-0.2-2c0.2,0,0.3,0,0.5,0c2.2-0.2,4.5-0.4,6.9-0.6
			c0.2,3.8,0.4,8.1,0.7,12.9c1.1,19,2.9,45.3,5.1,74.3c2.2,29,4.6,55.3,6.6,74.2c0,0.3,0.1,0.6,0.1,1c-0.5,0.1-1,0.1-1.5,0.2
			c-0.3-3-0.6-6.4-1-10.3c-1.5-14.4-3.6-34.2-5.7-56.1c-1.1-11-2.1-21.4-2.9-30.9c-0.9-9.5-1.6-18.1-2.2-25.2
			c-1.2-14.4-1.7-23.3-2-23.3c-0.1,0-0.2,2.2-0.1,6.3c0.1,4,0.3,9.9,0.7,17.1s1,15.8,1.8,25.3s1.7,20,2.8,30.9
			c2.2,21.9,4.5,41.7,6.3,56.1c0.5,3.8,0.9,7.3,1.3,10.2c-0.4,0-0.8,0.1-1.3,0.1c-1.5,0.2-2.9,0.4-4.1,0.6c-1.2,0.2-2.1,0.4-2.7,0.6
			c-0.6,0.2-1,0.4-1,0.5s0.4,0.2,1.1,0.2c0.7,0,1.6,0,2.8,0s2.5-0.1,4.1-0.2c0.4,0,0.9-0.1,1.3-0.1c0.3,1.9,0.5,3.5,0.7,4.9
			c0.6,4,1,6.2,1.1,6.2s0-2.2-0.4-6.3c-0.1-1.4-0.3-3.1-0.5-4.9c0.5,0,1-0.1,1.6-0.1c0.9,8.2,1.8,14.9,2.5,19.6
			c0.2,1.4,0.4,2.6,0.6,3.7c-1.6,0.2-3,0.5-4.2,0.7c-2.9,0.5-4.6,0.9-4.5,1.2c0,0.3,1.7,0.3,4.7,0.3c1.2,0,2.7-0.1,4.4-0.1
			c0,0.1,0.1,0.3,0.1,0.4c0.3,1.4,0.5,2.1,0.7,2.1c0.1,0,0.2-0.8,0.1-2.2c0-0.1,0-0.2,0-0.4c0.8,0,1.7-0.1,2.7-0.1
			c0.2,1.3,0.3,2.4,0.5,3.2c0.2,1,0.3,1.5,0.4,1.5c0.1,0,0.3-0.6,0.3-1.5c0.1-0.8,0.1-1.9,0.1-3.2c1.1-0.1,2.2-0.1,3.4-0.2
			c5.3-0.3,11.6-0.6,18.7-1c2.4-0.1,4.9-0.3,7.5-0.4c-3.4,0.4-6.5,0.8-9.3,1.2c-4.3,0.6-7.7,1.2-10.1,1.6s-3.7,0.8-3.7,0.9
			s1.4,0.1,3.8-0.2c2.4-0.2,5.9-0.6,10.2-1c8.6-0.9,20.4-2.1,33.6-2.9c6.6-0.4,12.8-0.6,18.5-0.8c5.7-0.1,10.8-0.1,15.1-0.1
			c0.4,0,0.8,0,1.2,0c0,0.5,0,0.9,0,1.3c-1.7-0.1-3.6-0.2-5.7-0.2c-2.7-0.1-5.6-0.1-8.7,0c-3.1,0.1-6,0.2-8.7,0.4
			c-2.7,0.2-5.1,0.5-7.1,0.8s-3.6,0.6-4.7,0.9s-1.7,0.5-1.7,0.6s0.7,0.1,1.8,0.1c1.1-0.1,2.8-0.2,4.8-0.3c2-0.1,4.4-0.3,7-0.4
			s5.6-0.2,8.6-0.3c3.1-0.1,6-0.1,8.6-0.1c2.1,0,4,0,5.7-0.1c0.1,2.2,0.2,3.4,0.4,3.4s0.4-1.2,0.6-3.5c0.1,0,0.3,0,0.4,0
			c2,0,3.6-0.1,4.8-0.2c1.1-0.1,1.8-0.2,1.8-0.3c0-0.1-0.6-0.3-1.7-0.4c-1.1-0.1-2.8-0.3-4.8-0.4c-0.1,0-0.2,0-0.3,0
			c0-0.4,0.1-0.9,0.1-1.3c3.2,0.1,5.8,0.1,7.8,0.2c2.4,0.1,3.8,0.1,3.8-0.1c0-0.1-1.3-0.4-3.7-0.7c-1.9-0.2-4.5-0.5-7.7-0.7
			c0-0.1,0-0.3,0-0.4c3.6-0.2,6.6-0.3,8.8-0.5c3-0.2,4.6-0.5,4.6-0.7c0-0.3-1.6-0.5-4.6-0.7c-2.2-0.2-5.1-0.3-8.6-0.4
			c0.4-5.5,0.9-13.1,1.6-22.2c0.6-7.9,1.2-17.1,1.9-27.2c0.4,0,0.9,0,1.3,0c4.7,0,8.4-0.4,8.4-0.9s-3.8-0.9-8.4-0.9
			c-0.4,0-0.8,0-1.2,0c0.1-2,0.3-4,0.4-6.1c1-13.2,2-27.8,3.2-43c1.2-16.3,2.4-31.8,3.4-45.7c0.4,0,0.9,0,1.3,0
			c-0.4,6-0.9,12.3-1.3,18.9c-1.2,17.9-2.2,34.1-2.9,45.9l-0.9,13.9c-0.1,1.6-0.2,2.9-0.2,3.8c0,0.9,0,1.3,0,1.3
			c0.1,0,0.2-0.4,0.4-1.3c0.2-0.9,0.4-2.1,0.6-3.8c0.4-3.3,0.9-8,1.5-13.9c1.1-11.7,2.3-27.9,3.5-45.8c0.4-6.6,0.8-13,1.2-19.1
			c0.5,0,1-0.1,1.6-0.1c2.9-0.2,5.6-0.4,7.5-0.7c1.9-0.3,3.1-0.6,3.1-0.8c0-0.3-1.2-0.4-3.2-0.5c-1.9-0.1-4.6-0.1-7.6,0.1
			c-0.4,0-0.9,0.1-1.3,0.1c0.1-0.9,0.1-1.9,0.2-2.8c0.7-0.1,1.3-0.2,1.8-0.3c1.6-0.3,2.5-0.7,2.5-0.9c0-0.3-1-0.4-2.6-0.4
			c-0.5,0-1,0-1.6,0c0.5-7.7,0.9-14.6,1.2-20.5l0.8-13.9l0.2-3.8c0-0.9,0.1-1.3,0-1.3s-0.2,0.4-0.4,1.3s-0.4,2.1-0.6,3.8
			c-0.4,3.3-0.9,8-1.4,13.9s-1.1,12.9-1.7,20.6c-0.4,0-0.9,0-1.3,0.1c0.7-9.7,1.3-18.5,1.9-26.2c0.5-7.6,1-14.1,1.3-19.2
			c2.1-0.2,4.2-0.4,6.2-0.6c-0.3,2.2-0.6,4.7-0.9,7.3c-0.5,4.5-0.8,8.6-0.9,11.6c-0.1,3-0.1,4.8,0.2,4.8s0.7-1.8,1.1-4.7
			c0.5-2.9,1-7,1.5-11.5c0.3-2.8,0.5-5.4,0.7-7.6c7.1-0.7,12.8-1.2,16.9-1.6c4.3-0.5,6.7-0.8,6.6-1.1C196,53,193.6,52.9,189.3,52.9z
			 M31.8,70.9c-0.2,0-0.3,0-0.5,0.1c-0.1-1.3-0.3-2.5-0.4-3.5c0.7,0,1.4,0,2.3,0c1.6,0,3.4,0,5.5-0.1c0,0.9,0.1,1.8,0.1,2.8
			C36.3,70.4,34,70.6,31.8,70.9z M55.6,255.7c-0.3-4.8-0.8-11.5-1.4-19.7c0.7-0.1,1.4-0.2,2-0.2c0,1,0.1,2.2,0.1,3.3
			c0.1,2.3,0.3,4.9,0.6,7.6c0.4,4.7,0.9,9,1.3,12.4c-0.9,0.1-1.7,0.2-2.5,0.3C55.8,258.3,55.7,257.1,55.6,255.7z M148.8,257.2
			c-0.4,0-0.7,0-1.1-0.1c-0.5,0-1-0.1-1.5-0.1c0.1,0,0.2,0,0.2,0c0.8,0,1.6-0.1,2.4-0.1C148.7,257,148.7,257.1,148.8,257.2z
			 M162.7,103.8c-0.1,0.9-0.1,1.8-0.2,2.7c-0.5,0-0.9,0.1-1.3,0.1c0.1-0.9,0.1-1.8,0.2-2.7C161.8,103.9,162.3,103.9,162.7,103.8z
			 M160.7,75.7c-0.8,7.8-1.7,16.8-2.6,26.6c-1.7,0.1-3.1,0.3-4.3,0.5c-1.6,0.3-2.6,0.6-2.5,0.8c0,0.3,1,0.4,2.6,0.5
			c1.1,0,2.5,0.1,4,0c-0.1,1-0.2,2-0.3,3c-1.6,0.3-2.6,0.6-2.6,0.9c0,0.2,0.9,0.3,2.5,0.4c-1.2,13.8-2.5,29.2-3.7,45.4
			c-1.1,15.3-2.1,29.8-2.9,43.1c-0.1,2.2-0.3,4.4-0.4,6.5c-2.3,0.2-3.8,0.5-3.8,0.8s1.5,0.6,3.7,0.8c-0.5,10.1-1,19.2-1.2,27.2
			c-0.3,9.2-0.5,16.8-0.5,22.3c-0.8,0-1.6,0-2.4-0.1c-5.3-0.1-11.7-0.1-18.8,0c-7.1,0.1-14.8,0.3-23,0.7c-8.1,0.4-15.9,0.9-22.9,1.5
			s-13.4,1.2-18.7,1.8c-1.1,0.1-2.2,0.3-3.2,0.4c-0.1-3.4-0.5-7.7-0.9-12.3c-0.2-2.7-0.5-5.2-0.7-7.6l-0.3-3.4
			c1.5-0.2,2.8-0.5,3.9-0.7c1.1-0.3,2.1-0.5,2.7-0.8c0.6-0.2,0.9-0.4,0.9-0.6c0-0.1-0.4-0.2-1.1-0.2c-0.7,0-1.6,0.1-2.7,0.2
			c-1.1,0.1-2.4,0.2-3.9,0.3l-0.1-1c-0.2-1.8-0.3-3.2-0.5-4.2c-0.1-1-0.3-1.5-0.4-1.5c-0.1,0-0.3,0.5-0.4,1.5
			c-0.1,1-0.2,2.4-0.2,4.2c0,0.3,0,0.7,0,1.1c-0.7,0.1-1.4,0.1-2.1,0.2c0-0.3,0-0.6-0.1-0.9c-1.4-19-3.2-45.3-5.5-74.3
			c-2.2-29-4.4-55.3-6.2-74.2c-0.5-4.8-0.9-9.1-1.3-12.9c0.7-0.1,1.5-0.2,2.2-0.2c4-0.4,7.8-0.8,11.2-1.2c3.4-0.4,6.5-0.8,9.1-1.1
			c5.2-0.7,8.4-1.2,8.4-1.4c0-0.3-3.3-0.2-8.5,0.1c-2.6,0.2-5.7,0.4-9.2,0.7c-3.4,0.3-7.2,0.7-11.2,1.1c-0.7,0.1-1.5,0.2-2.2,0.2
			c-0.1-0.9-0.2-1.8-0.3-2.7c3.2-0.1,6.8-0.3,10.9-0.5c7.7-0.4,16.9-1,27-1.9c10.2-0.8,21.3-1.9,33-3s22.8-2.2,32.9-3.2
			c6.6-0.6,12.8-1.2,18.4-1.8C162.2,61.9,161.5,68.3,160.7,75.7z M171.1,53.4c-2,0.1-4.1,0.2-6.2,0.3c0-0.8,0.1-1.6,0.1-2.3
			c2.5-0.3,4.7-0.6,6.7-0.8c-0.1,0.4-0.1,0.8-0.2,1.3c-0.1,0.5-0.2,1-0.2,1.5C171.2,53.4,171.1,53.4,171.1,53.4z"/>
		<polygon class="st0" points="148.4,256.3 55.5,260.1 39.7,65.4 163.3,54.1 		"/>
	</g>
	<g>
		<g>
			<path class="st1" d="M216.2,137.9c-0.8-14.5-3-29.5-6.9-43.5c-4.4,0-8.6,0.8-12.5,3c3.5,11.8,5.6,24.1,6.1,36.4
				c2.7,3.1,5.5,5.1,9.4,6.3c0.7,0.2,1.4,0.4,2,0.2C215,140.2,216.2,138.6,216.2,137.9z"/>
			
				<linearGradient id="SVGID_1_" gradientUnits="userSpaceOnUse" x1="234.0796" y1="204.3299" x2="204.3797" y2="189.5734" gradientTransform="matrix(1 0 0 -1 0 351.2756)">
				<stop  offset="0" style="stop-color:#FFFFFF"/>
				<stop  offset="0.8404" style="stop-color:#E8E7E7"/>
			</linearGradient>
			<path class="st2" d="M224.8,182c1.5-6.9,1.9-14.2,4.3-20.8c4.3-12.2,2.9-26.5-3.4-37.8c-3.9-0.3-7.3,0.5-11,1.9
				c1.1,4.9,0.8,9.6-1.2,14.2c-2.6-0.5-4.8-2.4-6.2-4.7s-2.6-4.8-3.3-7.4c-6.4,2.3-11.7,7.5-14.1,13.9c1.2,7.4,4.3,14.9,8.8,20.9
				c0.5,6.3,0.2,13-0.1,19.3c-0.2,3.2,2.8,6.4,5.9,7.2c3.1,0.8,16.2-0.2,17.5-1.1C223.3,186.6,224.5,183.6,224.8,182z"/>
			
				<linearGradient id="SVGID_2_" gradientUnits="userSpaceOnUse" x1="230.369" y1="230.9435" x2="218.9747" y2="182.3773" gradientTransform="matrix(1 0 0 -1 0 351.2756)">
				<stop  offset="0" style="stop-color:#FFFFFF"/>
				<stop  offset="0.4786" style="stop-color:#EEEEEE"/>
				<stop  offset="1" style="stop-color:#D7D7D7"/>
			</linearGradient>
			<path class="st3" d="M221.1,123.5c3.1,9.5,3.6,19.9,1.4,29.6c1.3,0.7,2.8,1.7,3.8,2.7c-0.1,4.8-1.3,10-3.4,14.4
				c0.1,0.1,0.2,0.2,0.4,0.2c1.1,0.8,2.1,1.6,3.2,2.2c0.6-3.9,1.3-7.8,2.6-11.6c4.3-12.2,2.9-26.5-3.4-37.8
				C224.1,123.2,222.6,123.3,221.1,123.5z"/>
			<path class="st4" d="M210.2,176.3c0.3-7.6,0.9-15.4,2.3-22.9c-1.7-3.6-2.4-7.7-2.6-11.7c1.5-0.6,2.9-1.3,4.1-2.3
				c0-0.2-0.1-0.4-0.1-0.6c-0.1,0.2-0.2,0.4-0.3,0.7c-2.6-0.5-4.8-2.4-6.2-4.7s-2.6-4.8-3.3-7.4c-6.4,2.3-11.7,7.5-14.1,13.9
				c1.2,7.4,4.3,14.9,8.8,20.9c0.5,6.3,0.2,13-0.1,19.3c-0.2,3.2,2.8,6.4,5.9,7.2c3.1,0.8,16.2-0.2,17.5-1.1
				c0.7-0.5,1.3-1.4,1.8-2.5C220,181.1,215.3,177.9,210.2,176.3z"/>
			<g>
				
					<linearGradient id="SVGID_3_" gradientUnits="userSpaceOnUse" x1="226.5016" y1="138.2706" x2="186.855" y2="117.2565" gradientTransform="matrix(1 0 0 -1 0 351.2756)">
					<stop  offset="0" style="stop-color:#FFFFFF"/>
					<stop  offset="0.8404" style="stop-color:#E8E7E7"/>
				</linearGradient>
				<path class="st5" d="M202.9,214.1c1,0.6,2.2,0.8,3.3,0.8c0.1,0.7,0.3,1.5,0.7,2.2c-2.3,4.6-5.9,8.6-10.3,11.3
					c-2-0.5-4.3-1.1-6.3-1.6c-0.1-0.8-0.3-1.3-0.4-2C194.6,222.4,199.5,218.1,202.9,214.1z M212.2,232c4.4-2.9,7.7-7.6,9-12.7
					c-0.4-0.6-0.8-1.5-1.1-2.2c-1.7,0.1-3.2-0.1-4.9-0.4c-3.1,4.3-6.7,8.1-10.8,11.5c0,0.8-0.3,1.6-0.3,2.4
					C206.5,231.3,209.8,231.8,212.2,232z"/>
				<g>
					<path class="st4" d="M196.6,228.3c-0.2-0.8-0.3-1.5-0.4-2.3c4.4-2.4,7.9-6.3,10.1-10.8c0-0.1,0-0.2-0.1-0.3
						c-1.1,0.1-2.3-0.2-3.3-0.8c-3.3,4.1-8.2,8.3-13,10.6c0.1,0.8,0.3,1.3,0.4,2C192.3,227.2,194.6,227.8,196.6,228.3L196.6,228.3z"
						/>
					<path class="st4" d="M212.4,231.9c0-0.8-0.1-1.5-0.2-2.3c3.5-3.5,6.2-7.8,7.8-12.4c-1.7,0.1-3.2-0.1-4.8-0.4
						c-3.1,4.3-6.7,8.1-10.8,11.5c0,0.8-0.3,1.6-0.3,2.4c2.4,0.7,5.7,1.3,8.1,1.4C212.3,231.9,212.3,231.9,212.4,231.9z"/>
				</g>
				<path class="st1" d="M222,197.8c-0.7-2.1,1.2-5.4,0.3-7.3c-0.3-0.5-0.6-1-1-1.5c0.1-0.7,0.3-1.5,0.3-2.2c-2.6-2.6-5.5-5-8.8-6.7
					c-4.8,0.1-8.9,1.3-12.4,3.7c-0.1,4.7-0.5,9.3-1.2,13.9c-0.3,2.3-0.1,4.7,1,6.8c1.5,2.7,0.3,6.2-0.1,9.3
					c-2.2,2.6-4.7,4.9-7.4,6.9c-0.1,0.8-0.2,1.6,0.2,2.2c1.7,0.5,2.9,0.9,4.7,1c2.9-2.2,5.3-5,7-8.2c1.7-3,2.1-6.8,2.4-10.3
					c1.5,0,3.1-0.1,4.6-0.3c1,2.9,1.4,6.4,1.3,9.5c-0.1,3.5-3.6,6.4-5.9,9.1c0.1,0.7,0,1.4,0.1,2.1c1.7,0.3,3.1,0.8,4.9,1.1
					c3.1-2.4,5.4-5.3,7.1-8.8c-0.6-2.4-1.1-4.8-1.3-7.2c0.9,0.4,1.9,0.6,3,0.5C223.3,207.3,223.4,202.4,222,197.8z"/>
				<g>
					<path class="st4" d="M224.5,201.1c-1.4-1.1-3.2-1.8-5-1.9l-1.5,1c0.3,4.3,0.1,8.6-0.5,12.8c1.4,0.6,2.8,1,4.3,1.1l1.4-1.2
						C224.3,209.1,224.8,204.9,224.5,201.1z"/>
					<path class="st4" d="M224.9,190.1c-2.2-1.6-4.7-2.9-7.4-3.6l-1.5,1c0.7,3.3,0.6,9.9,0.6,9.8c2.4,0.3,4.7,1.3,6.8,2.5l1.5-1
						C225.5,196.1,225.8,192.7,224.9,190.1z"/>
				</g>
				
					<linearGradient id="SVGID_4_" gradientUnits="userSpaceOnUse" x1="236.0291" y1="171.6981" x2="161.8731" y2="76.0537" gradientTransform="matrix(1 0 0 -1 0 351.2756)">
					<stop  offset="0" style="stop-color:#FFFFFF"/>
					<stop  offset="0.8404" style="stop-color:#E8E7E7"/>
				</linearGradient>
				<path class="st6" d="M224.8,198.8c-2-1.2-4.4-2.2-6.8-2.5c0,0.1,0.2-6.5-0.6-9.8c2.7,0.7,5.2,2,7.4,3.6
					C225.8,192.7,225.5,196.1,224.8,198.8z M224.5,201.1c-1.4-1.1-3.2-1.8-5-1.9c0.3,4.3,0.1,8.6-0.5,12.8c1.4,0.6,2.8,1,4.3,1.1
					c0-0.1-0.1-0.2-0.1-0.3C224.3,209.1,224.8,204.9,224.5,201.1z"/>
			</g>
			<path class="st7" d="M199.1,171.3l-0.3-0.5c2.1-1.2,4.4-2,6.4-2.4c0.1-1.9,0.2-3.9,0.4-5.9c0.1-2,0.3-4.1,0.4-6
				c-2.5-2.7-4.7-6.3-6.3-10.1c-2.6,0.7-5.1,1.9-7.3,3.4l-0.3-0.4c2.4-1.6,4.9-2.8,7.7-3.6l0.2-0.1l0.1,0.2
				c1.5,3.8,3.8,7.5,6.3,10.2l0.1,0.1v0.1c-0.1,2-0.3,4.1-0.4,6.1c-0.1,2.1-0.3,4.1-0.4,6.1v0.2h-0.2
				C203.5,169.3,201.2,170.1,199.1,171.3z"/>
			<path class="st7" d="M226.6,173.1c-1.5-0.2-2.8-1.3-3.9-2.2l-0.2-0.2l0.1-0.3c2-4.7,3.1-9.3,3.3-13.8V156c-1-0.9-2.2-1.7-3.4-2.3
				l-0.3-0.1l0.1-0.3c1.7-9.9,1.2-20.2-1.5-29.8l0.8-0.2c2.7,9.6,3.3,20,1.6,29.9c1.3,0.6,2.5,1.5,3.5,2.4l0.1,0.1v1
				c-0.2,4.6-1.3,9.1-3.2,13.9c0.9,0.8,2,1.7,3.2,1.8L226.6,173.1z"/>
			<path class="st8" d="M223.7,181.1c-1.5-1.1-3.1-2-4.6-3.1c2.5-7.9,3.2-16.4,3.5-24.7c0.3-9.2-0.8-18.4-3.4-27.2
				c1.8-0.9,3.9-1.4,5.9-1.4c5.7,11.2,6.4,25.2,2,36.9C226,167.9,225,174.9,223.7,181.1z"/>
			
				<linearGradient id="SVGID_5_" gradientUnits="userSpaceOnUse" x1="183.1625" y1="308.4794" x2="192.7947" y2="255.9402" gradientTransform="matrix(0.9825 -0.1864 -0.1864 -0.9825 70.9426 383.4831)">
				<stop  offset="4.356780e-02" style="stop-color:#FFFFFF"/>
				<stop  offset="0.2974" style="stop-color:#FBFBFB"/>
				<stop  offset="0.553" style="stop-color:#EFEFEF"/>
				<stop  offset="0.7039" style="stop-color:#E5E5E4"/>
				<stop  offset="0.802" style="stop-color:#DFDFDE"/>
				<stop  offset="1" style="stop-color:#D7D7D7"/>
			</linearGradient>
			<path class="st9" d="M205,52c-6.8-0.4-13.5-0.1-20.2,0.8c0,0-0.1,0,0,0C196,66.1,202.3,80.4,208,96.7c3.4-2,6.6-4.1,9.5-6.7
				C216.3,75.8,212.7,64,205,52z"/>
			<path class="st10" d="M170.8,70.4c5.7,11.9,12.6,22.4,20.7,32.8c5.8-1.5,11.3-3.7,16.6-6.5c-5.7-16.2-11.9-30.6-23.2-43.8
				C179.3,58.2,174.7,63.9,170.8,70.4z"/>
			<path class="st10" d="M216.6,81.4c-3.1,0.3-6.1,0.4-9.1,0.1c-0.1,0-0.2,0-0.3,0c0,0,0-0.2-0.1-0.3c-2.6-10.9-7.2-19.8-13.9-28.8
				c0.2-0.2,0.4-0.3,0.6-0.5c6.8,8.9,11.3,17.9,14.1,28.8c2.1,0.4,6.8,0.1,8.3,0c1.1-0.1,0.2,0,0.3,0
				C216.9,80.7,216.7,81.3,216.6,81.4C216.6,81.5,216.6,81.4,216.6,81.4z"/>
			<path class="st8" d="M216.3,87.3c-1.5-12.6-5-23.4-11.5-34.3c-6-0.3-12-0.4-18,0.2c5.5,0.3,10.7,1.8,15.9,3.6
				C209.2,66.4,213.6,76.1,216.3,87.3z"/>
		</g>
		<path class="st1" d="M86.2,177.7c2.6,4.9,5.3,9.7,8,14.6c-9.6,7-22.3,9.3-33.5,5.4c-0.8-3.8-1-7.8-0.8-11.7
			C67.7,181.2,77,177.7,86.2,177.7z M61.6,211.8c-1.3,4-3.1,7.8-5.2,11.4c1.1,3.2,2.4,6.4,4.1,9.4c0.5,0.9,1,2.3,2.1,2.4
			c1.4,0.1,3.2-1,4.2-1.9c-1-3-1.5-6.2-1.8-9.4c1.9-4,2.4-8.9,1.9-13.4C65.2,210.5,63.3,211.3,61.6,211.8z M72.4,210.4
			c-0.5,4.2-1.4,8.3-2.8,12.3c1.8,2.9,3.7,5.8,6,8.3c0.7,0.8,1.4,2.1,2.6,1.9c1.4-0.2,2.9-1.6,3.7-2.7c-1.6-2.7-2.7-5.8-3.7-8.8
			c1.1-4.4,0.5-9.2-0.9-13.5C75.6,208.4,74,209.6,72.4,210.4z M90.1,197.5c0.6,3.4,2,6.1,4.3,8.6c0-0.1,0,0.4-0.1,0.3
			c-0.3,3-1.6,6.8-2.2,10.2c1.9,0.6,3.7,1,5.6,0.4c1.7-3.5,2.2-7.3,2.1-11.2c-2.2-2.8-4.1-6.1-5.7-9.2
			C92.5,196.4,91.5,196.7,90.1,197.5z"/>
		
			<linearGradient id="SVGID_6_" gradientUnits="userSpaceOnUse" x1="171.5665" y1="293.3823" x2="129.7395" y2="222.2198" gradientTransform="matrix(1 0 0 -1 0 351.2756)">
			<stop  offset="4.356780e-02" style="stop-color:#FFFFFF"/>
			<stop  offset="0.2974" style="stop-color:#FBFBFB"/>
			<stop  offset="0.553" style="stop-color:#EFEFEF"/>
			<stop  offset="0.7039" style="stop-color:#E5E5E4"/>
			<stop  offset="0.802" style="stop-color:#DFDFDE"/>
			<stop  offset="1" style="stop-color:#D7D7D7"/>
		</linearGradient>
		<path class="st11" d="M188.4,71.6c-4-1.7-7.7-3-11.4-4.1c-0.6-0.9-1.2-1.9-1.7-2.6c-17.2-3.7-34.5-5.2-52-5.3
			c-1.5,1.2-3.1,2.5-4.6,3.7c-4,0.7-8.2,1.7-12.6,3.1c-8.4,9.1-14.4,25.2-8.3,35.9c7.1,12.6,17.6,23.3,30,30.7
			c19.3,2.7,43.7,2.7,62.6-2.5C198.8,108.1,200.1,86.2,188.4,71.6z"/>
		<path class="st10" d="M128.5,66.2c-0.4,0.4-0.9,0.8-1.3,1.1c5.2,6.1,11.6,11.4,18.8,14.9c-0.1,0.6-0.3,1.2-0.4,1.9
			c-10.7-3.5-20.2-11-26-20.6c1.2-1,2.2-2.1,3.4-3.2c2.3-0.1,4.6-0.1,6.9-0.1c0.4,1,0.6,2.1,0.7,3.2c0,0.3,0.1,0.5,0,0.8
			C130.4,64.8,129.1,65.7,128.5,66.2z"/>
		<path class="st10" d="M147.5,132.2c-7.9-0.3-15.2-4.7-20.6-10.5s-8.9-12.3-12.7-19.2c5.5-12.1,6.2-26.2,1.9-38.8
			c-3.3,0.7-6.6,1.5-10.1,2.6c-8.4,9.1-14.4,25.2-8.3,35.9c7.1,12.6,17.6,23.3,30,30.7c19.3,2.7,43.7,2.7,62.6-2.5
			c0.3-0.8,0.6-1.6,0.9-2.4C176.5,129.4,162.3,132.8,147.5,132.2z"/>
		<g>
			<path class="st10" d="M147.2,97.3l-0.1-0.2l-0.2-0.1c-11.2-5.2-23-9-35.2-11.3l-0.2,1.1c12,2.3,23.6,6.1,34.7,11.2
				c3.4,6.7,6.3,14.8,8.6,24.1l1.1-0.3C153.6,112.3,150.7,104.1,147.2,97.3z"/>
			<path class="st10" d="M195.4,85.8c-0.1-0.4-0.2-0.8-0.3-1.2c-0.3,0.3-0.6,0.5-0.9,0.8c-3.5,2.8-7.3,5.8-11.6,8l-0.3,0.1v0.3
				c-0.4,9.6-2.2,19.1-5.2,28.2l1.1,0.3c3-9.1,4.7-18.6,5.2-28.2c4.2-2.2,8.1-5.2,11.5-7.9C195,86.1,195.2,85.9,195.4,85.8z"/>
		</g>
		<path class="st1" d="M173.6,171.8c-4,17-5.5,34.4-4.4,51.9c-3,1-6,1.1-9,2.1c-0.5-15.9,1.6-31.8,6.3-47
			C167.5,175.3,170.7,173.7,173.6,171.8z"/>
		
			<linearGradient id="SVGID_7_" gradientUnits="userSpaceOnUse" x1="139.8762" y1="112.3275" x2="92.1821" y2="54.4134" gradientTransform="matrix(1 0 0 -1 0 351.2756)">
			<stop  offset="4.356780e-02" style="stop-color:#FFFFFF"/>
			<stop  offset="0.2974" style="stop-color:#FBFBFB"/>
			<stop  offset="0.553" style="stop-color:#EFEFEF"/>
			<stop  offset="0.7039" style="stop-color:#E5E5E4"/>
			<stop  offset="0.802" style="stop-color:#DFDFDE"/>
			<stop  offset="1" style="stop-color:#D7D7D7"/>
		</linearGradient>
		<path class="st12" d="M132.5,303.3c-3.1-24.2-3.9-49.6-3-74c-8.4-4.2-18.8-4.2-27.3-0.1C95,254,91.3,280,92,305.8
			c2.4,2.3,5.1,3.7,9.1,5.1l20.1,0.7C126.9,309.3,130.2,306.6,132.5,303.3z"/>
		<path class="st10" d="M123.2,237.8c0.8-3.5,1.7-6.9,1.5-10.3c-7.4-2.2-15.6-1.6-22.6,1.7C95,254,91.3,280,92,305.8
			c2.4,2.3,5.1,3.7,9.1,5.1l3.4,0.1c1.3-8.7,1.3-17.7,0.3-26.5c-1.7,1.2-3.2,2.8-4.9,4c-0.8-17.3,1.3-34.8,6.3-51.4
			C111.9,237.4,117.6,237.6,123.2,237.8z"/>
		
			<linearGradient id="SVGID_8_" gradientUnits="userSpaceOnUse" x1="126.3705" y1="73.2401" x2="99.4007" y2="30.9401" gradientTransform="matrix(1 0 0 -1 0 351.2756)">
			<stop  offset="0" style="stop-color:#F2F2F2"/>
			<stop  offset="0.4203" style="stop-color:#B5C5C5"/>
			<stop  offset="0.8404" style="stop-color:#759595"/>
		</linearGradient>
		<path class="st13" d="M114.7,319.2c3.6-2.1,6.8-5.3,8.6-9c-1.8-8.5-4.4-17-7.6-25.1c-3.6-1-7.2-1.3-10.9-0.8
			c-3.8,8-6.3,16.5-7.2,25.3c0,0,1.9,6.3,4.1,8.7C105.6,319.4,114.7,319.2,114.7,319.2z"/>
		<path class="st10" d="M177.1,155.2c1,0,2,0.4,2.8,0.9c-0.8,4.2-1.8,9.1-3.6,13s-4.8,7.5-8.9,9.2
			C169.6,170.6,173,162.2,177.1,155.2z"/>
		
			<linearGradient id="SVGID_9_" gradientUnits="userSpaceOnUse" x1="175.6173" y1="231.8599" x2="148.7894" y2="196.3733" gradientTransform="matrix(1 0 0 -1 0 351.2756)">
			<stop  offset="0" style="stop-color:#F2F2F2"/>
			<stop  offset="0.4203" style="stop-color:#B5C5C5"/>
			<stop  offset="0.8404" style="stop-color:#759595"/>
		</linearGradient>
		<path class="st14" d="M179.9,132.4c-0.3,8.2-2.5,16.3-6.2,23.7c-10.9,3.6-23.2,2.4-33.5-2.7c0-7.3-0.2-12.1-1.5-19.3
			c4,0.6,7.7-0.6,10.8-3.1s5.2-6.4,5.5-10.4c7.4-2.4,15.2-2.9,22.8-1.4C179.5,123.5,180,128,179.9,132.4z"/>
		<path class="st8" d="M174.1,155.1c-4.7,0.6-9.5,0.7-14.2-0.1c0.1-11.3-0.9-22.6-3-33.7c6.6-1.7,13.7-2.4,20.5-1.5
			C180.6,131.2,179.1,144.4,174.1,155.1z"/>
		<path class="st10" d="M150.4,152.3c-5.9-0.1-12,0.9-17.6,2.6c1,4.4,1.5,8.9,1.6,13.4c0,3,2.9,5.7,5.5,7.4s5.8,2.6,9,2.5
			C149.4,176.4,150.3,158.8,150.4,152.3z"/>
		<path class="st10" d="M178.4,153.3c-2.2,10.1-6.3,21.6-12.9,29.6c-5.1,0.8-10.8,0.9-15.8-0.4c-1.7-9.3-2.4-19.8-1.9-29.2
			c4.1-2.2,7.3-6.1,10.2-9.7c5-1,10.3-0.8,15.4-0.4C175.8,146.1,177.6,149.7,178.4,153.3z"/>
		<path class="st1" d="M127,217.6c4.2-14.2,9.8-28.4,16-41.9c-1.1-2-3.2-3.7-5.5-3.9c-8,13.7-14.8,28-20.4,42.8
			C120.1,215.5,124,216.7,127,217.6z"/>
		
			<linearGradient id="SVGID_10_" gradientUnits="userSpaceOnUse" x1="133.678" y1="147.394" x2="110.1149" y2="110.4879" gradientTransform="matrix(1 0 0 -1 0 351.2756)">
			<stop  offset="0" style="stop-color:#F2F2F2"/>
			<stop  offset="0.4203" style="stop-color:#B5C5C5"/>
			<stop  offset="0.8404" style="stop-color:#759595"/>
		</linearGradient>
		<path class="st15" d="M123.1,238.5c2.9-1.9,5.8-5.3,6.3-8.8c0.9-5.7,1.5-12,2.3-17.8c-4.1-2.4-8.9-3.5-13.7-3.7
			c-4.8,6.2-8.4,13.5-10.4,21.1c1,2.3,2,4.4,3.5,6.4C114.2,237,119.8,238.3,123.1,238.5z"/>
		
			<linearGradient id="SVGID_11_" gradientUnits="userSpaceOnUse" x1="183.5263" y1="125.3718" x2="150.3109" y2="60.0765" gradientTransform="matrix(1 0 0 -1 0 351.2756)">
			<stop  offset="4.356780e-02" style="stop-color:#FFFFFF"/>
			<stop  offset="0.2974" style="stop-color:#FBFBFB"/>
			<stop  offset="0.553" style="stop-color:#EFEFEF"/>
			<stop  offset="0.7039" style="stop-color:#E5E5E4"/>
			<stop  offset="0.802" style="stop-color:#DFDFDE"/>
			<stop  offset="1" style="stop-color:#D7D7D7"/>
		</linearGradient>
		<path class="st16" d="M181.5,275.1c-4-17.7-7.3-36.4-8.4-54.5c-5.2-0.1-10.4,1-14.8,3.7c-7.3,24-14.7,48.8-12.4,73.9
			c8.3,2,17.2,2.7,25.7,2C176.5,292.6,181.5,275.1,181.5,275.1z"/>
		<path class="st1" d="M173.6,66c-0.4,5.6-1.7,10.7-4,15.9c-7.1,1.2-22-1.1-22-1.1c-9.3-4-17.5-10.7-23.3-19
			C140.3,61.9,157.8,63.2,173.6,66z"/>
		
			<linearGradient id="SVGID_12_" gradientUnits="userSpaceOnUse" x1="170.0338" y1="299.2367" x2="151.1075" y2="278.7963" gradientTransform="matrix(1 0 0 -1 0 351.2756)">
			<stop  offset="0" style="stop-color:#F2F2F2"/>
			<stop  offset="0.4203" style="stop-color:#B5C5C5"/>
			<stop  offset="0.8404" style="stop-color:#759595"/>
		</linearGradient>
		<path class="st17" d="M163.2,49.4c-1.7-0.4-3.2-0.5-4.9-0.2c-3.2,2.4-6.9,6.1-9.1,9.5c0.7,6.1,2.6,12.1,5.6,17.4
			c2.7,0.4,5.6-0.1,8.3-0.1c2.8-5.2,5.5-10.9,6.7-16.6c-0.5-0.8-0.8-1.7-1.3-2.5C167,54.6,165.3,51.4,163.2,49.4z"/>
		<path class="st18" d="M134.2,45.7c-2.8-0.5-5.6-0.7-8.4-0.6c-0.3,4.5-0.2,9.7,0.4,14.2c6,7.2,14.3,12.7,23.4,15.5
			c-3-9.9-7.8-19.6-13-28.5C135.7,46,135,45.9,134.2,45.7z"/>
		
			<linearGradient id="SVGID_13_" gradientUnits="userSpaceOnUse" x1="157.54" y1="323.2164" x2="131.6111" y2="272.8727" gradientTransform="matrix(1 0 0 -1 0 351.2756)">
			<stop  offset="4.356780e-02" style="stop-color:#FFFFFF"/>
			<stop  offset="0.2974" style="stop-color:#FBFBFB"/>
			<stop  offset="0.553" style="stop-color:#EFEFEF"/>
			<stop  offset="0.7039" style="stop-color:#E5E5E4"/>
			<stop  offset="0.802" style="stop-color:#DFDFDE"/>
			<stop  offset="1" style="stop-color:#D7D7D7"/>
		</linearGradient>
		<path class="st19" d="M167.7,36c-7.6-4.5-18.1-6.2-26.1-4.5c-5.7,1.2-11.2,3.9-15.2,7.1c-0.3,1.8-0.5,4-0.7,6.5
			c2.8-0.1,5.6,0.1,8.4,0.6c0.8,0.1,1.6,0.3,2.3,0.6c5.2,8.8,10,18.6,13,28.5c1.6,0.5,3.3,0.9,5,1.2c0.1,0,0.2,0,0.3,0
			c-3-5.3-4.9-11.3-5.6-17.4c2.2-3.4,5.9-7.1,9.1-9.5c1.7-0.3,3.2-0.1,4.9,0.2c2.1,2,3.8,5.2,5.4,7.4
			C169.4,50.3,168.7,42.4,167.7,36z"/>
		<path class="st8" d="M141.1,32.2c8.8-1.5,18.2-0.1,26.1,4c1,5.4,1.2,11.2,0.6,16.7c-0.5-0.5-1.7-1.8-1.7-1.8
			c-0.5-4.2-0.3-9.1-1.7-13.3C158.2,34.7,149.7,32.7,141.1,32.2z"/>
		<g>
			<path class="st1" d="M136,55.7c-2.4-0.7-4.8-1.7-7.1-2.7c0,0.5,0,0.9,0,1.4c2.2,1.8,4.9,3.5,7.6,4.7
				C136.4,57.9,136.2,56.8,136,55.7z"/>
			<path class="st1" d="M129.1,56.7c0.1,0.8,0.2,1.5,0.3,2.2c0,0,4.5,4.4,7.2,5.3c0-1.1,0-2.2-0.1-3.2
				C134,59.8,131.4,58.3,129.1,56.7z"/>
			<path class="st1" d="M135.6,53.8c-0.2-0.9-0.5-1.9-0.8-2.9c-1.8-0.8-4-1.3-5.8-1.2c0,0.5-0.1,1-0.1,1.4
				C131,52.2,133.3,53.1,135.6,53.8z"/>
		</g>
		<path class="st1" d="M113.3,66c2,6.4,2.3,13.6-0.3,19.8c-2.6,6.2-8.6,11.3-15.4,11.8C94.8,85.9,103.3,73,113.3,66z"/>
		<path class="st10" d="M143.7,128c1.1-1.9,1.6-4.1,1.8-6.3c-3.2-0.1-6.7-0.2-9.9-0.3c-0.1,2.1-0.2,4.2-0.3,6.3
			C137.7,128,141.3,128.4,143.7,128z"/>
		<path class="st20" d="M142.3,127.1c0.8-1.4,1.2-3,1.3-4.6c-2.3-0.1-4.9-0.2-7.2-0.3c-0.1,1.5-0.2,3.1-0.2,4.6
			C137.9,127.1,140.5,127.4,142.3,127.1z"/>
		<path class="st8" d="M158.7,49.5c1.5-0.1,2.9,0.1,4.3,0.5c0,0,5,6.3,6.4,9.9c-1.7,5.4-4.2,10.7-7.2,15.5c-0.2,0-2.1,0-2.3,0.1
			c1.5-7.8,2.6-16.2,0.6-24C160.4,50.7,159.3,50,158.7,49.5z"/>
		<path class="st18" d="M160.5,73c0,0,0.2-1.2,0.5-3.1c0.2-1.9,0.4-4.6,0.3-7.6c0-3-0.2-5.7-0.4-7.6c-0.2-2-0.3-3.2-0.3-3.2
			s0.3,1.2,0.7,3.1c0.4,1.9,0.8,4.6,0.8,7.7c0.1,3-0.3,5.7-0.8,7.7C160.9,71.8,160.5,73,160.5,73z"/>
		<path class="st18" d="M157.1,71.8c0,0,0.2-1,0.5-2.7c0.2-1.7,0.4-3.9,0.3-6.5c0-2.5-0.2-4.8-0.4-6.5s-0.3-2.7-0.3-2.7
			s0.3,1,0.7,2.6s0.8,3.9,0.8,6.5c0.1,2.6-0.3,4.9-0.8,6.5C157.5,70.8,157.1,71.8,157.1,71.8z"/>
		<path class="st18" d="M163.8,71.1c0,0,0.2-1,0.5-2.5c0.2-1.6,0.4-3.7,0.3-6.1c0-2.4-0.2-4.5-0.4-6.1s-0.3-2.5-0.3-2.5
			s0.3,0.9,0.7,2.5c0.4,1.5,0.8,3.7,0.8,6.1c0.1,2.4-0.3,4.6-0.8,6.1C164.2,70.1,163.8,71.1,163.8,71.1z"/>
		<path class="st10" d="M139.8,31.9c-5,1.3-9.8,3.8-13.4,6.7c-0.3,1.8-0.5,4-0.7,6.5c2.8-0.1,5.6,0.1,8.4,0.6
			c0.8,0.1,1.6,0.3,2.3,0.6c5.2,8.8,10,18.6,13,28.5c0.2,0.1,0.4,0.1,0.6,0.2C144.9,61.2,141.4,46.6,139.8,31.9z"/>
		<path class="st1" d="M91.1,95c-4,12.9-6.5,25.5-6.4,39c0.1,0.1,0.3,0.3,0.4,0.4c-5.8,1.3-11.7,0.7-17-2
			c-0.5-14.2,2.5-28.4,8.6-41.2c2.7-0.5,4.9-1,7.7-0.9c2.7,0.1,5.5,1,7.6,2.8C91.9,93.3,91.3,94.8,91.1,95z"/>
		<path class="st10" d="M99.5,45.9c-7.7-1.1-16.5-0.6-24.1,1.2c-8.4,12.4-13.3,27.2-14,42.1c7,3,14.2,5.6,21.6,7.5
			C93.4,81.8,99.6,64.1,99.5,45.9z"/>
		
			<linearGradient id="SVGID_14_" gradientUnits="userSpaceOnUse" x1="110.4318" y1="300.5693" x2="88.8561" y2="249.2796" gradientTransform="matrix(1 0 0 -1 0 351.2756)">
			<stop  offset="4.356780e-02" style="stop-color:#FFFFFF"/>
			<stop  offset="0.2974" style="stop-color:#FBFBFB"/>
			<stop  offset="0.553" style="stop-color:#EFEFEF"/>
			<stop  offset="0.7039" style="stop-color:#E5E5E4"/>
			<stop  offset="0.802" style="stop-color:#DFDFDE"/>
			<stop  offset="1" style="stop-color:#D7D7D7"/>
		</linearGradient>
		<path class="st21" d="M115,63.7c-3.8-6.9-9.4-12.7-15.4-17.8l0,0c0,18.1-6.2,35.9-16.5,50.8c5.3,1.4,10.7,2.4,16,2.9
			C107.9,89.4,113.4,77.1,115,63.7z"/>
		
			<linearGradient id="SVGID_15_" gradientUnits="userSpaceOnUse" x1="93.4498" y1="227.4391" x2="57.3954" y2="191.6687" gradientTransform="matrix(1 0 0 -1 0 351.2756)">
			<stop  offset="0" style="stop-color:#FFFFFF"/>
			<stop  offset="0.8404" style="stop-color:#E8E7E7"/>
		</linearGradient>
		<path class="st22" d="M90.2,180.6c-2-9.3-2.8-19.4-2.3-29c4.9-7.2,8.9-16.9,6.6-25.3c-1.1-3.7-4.9-7.9-8.5-9.5
			c0,0.1-1.2,7.9-1.5,14.6c-3.6,2.5-5.4,1.7-8-2.4c-0.2-4.8,0.9-12,3.2-17.3c-1.1-1-2.6-2.4-3.7-3.4c-9.1-1.8-19,0.4-26.6,5.7
			c-3.2,8.4-6.5,17.2-5.9,26.2c0.5,7.2,3.4,14.1,5.8,20.9c3,8.6,6.8,19.2,8.2,28.2c8.1-0.6,16.2-2.1,24-4.6
			C84.5,183.7,87.3,181.8,90.2,180.6z"/>
		<path class="st4" d="M57.6,189.2c8.1-0.6,16.2-2.1,24-4.6c2-0.6,3.8-1.7,5.7-2.6c-4.9,1.9-10,2.3-15.3,2
			c-1.6-4.7-2.8-9.6-3.6-14.6c-4.2,2.5-9.8,4.4-14.7,4.2C55.3,178.9,56.8,184.3,57.6,189.2z"/>
		<path class="st10" d="M63.9,145c2.8-1.4,5.7-2.8,8.8-3.3c-1.7-11.2-0.7-22.8,2.9-33.5c-9-1.6-18.6,0.6-26.1,5.8
			c-3.2,8.4-6.5,17.2-5.9,26.2c0.5,7.2,3.4,14.1,5.8,20.9c1.3,3.7,2.7,7.8,4.1,12c5,0.4,10.4-1,14.7-3.5
			C68.3,161.2,66.8,152.8,63.9,145z"/>
		
			<linearGradient id="SVGID_16_" gradientUnits="userSpaceOnUse" x1="69.7794" y1="247.6313" x2="58.7076" y2="190.5689" gradientTransform="matrix(1 0 0 -1 0 351.2756)">
			<stop  offset="0" style="stop-color:#FFFFFF"/>
			<stop  offset="0.4786" style="stop-color:#EEEEEE"/>
			<stop  offset="1" style="stop-color:#D7D7D7"/>
		</linearGradient>
		<path class="st23" d="M75.5,108.2c-5.9-1-12-0.5-17.7,1.5c-3.3,9.9-1.8,21,1.1,31.2c2.8,9.7,6.7,19,8.8,28.8
			c0.1-0.1,0.3-0.1,0.4-0.2c0.1-8.3-1.4-16.7-4.3-24.5c2.8-1.4,5.7-2.8,8.8-3.3C71,130.5,72,118.9,75.5,108.2z"/>
		<path class="st4" d="M78.6,188.3c-0.1,0-0.2,0-0.3,0.1c-6.4,2.1-13.1,3.3-19.8,3.8c-1.9,5.7-2.4,11.8-1.7,17.8
			c6.8-0.1,13.5-1.3,20.1-3C77.4,200.7,77.9,194.8,78.6,188.3z"/>
		
			<linearGradient id="SVGID_17_" gradientUnits="userSpaceOnUse" x1="59.3517" y1="121.3756" x2="67.5214" y2="121.3756" gradientTransform="matrix(1 0 0 -1 0 351.2756)">
			<stop  offset="0" style="stop-color:#FFFFFF"/>
			<stop  offset="0.8404" style="stop-color:#E8E7E7"/>
		</linearGradient>
		<path class="st24" d="M67.5,237.7c-1.8-4.8-3.3-9.6-4.9-14.5c-1-0.4-2.2-1.3-3.3-1.3c2.1,5.6,4.7,11,7.9,16
			C67.3,237.9,67.4,237.8,67.5,237.7z"/>
		<path class="st4" d="M59.4,221.9c-0.1,0-0.2,0-0.3,0c-2.7,0.5-5.2,2-7.1,3.9c2.2,5.8,6.4,10.9,11.8,14.2c1.1-0.3,2.6-1.2,3.6-2
			C64.1,232.9,61.4,227.5,59.4,221.9z"/>
		
			<linearGradient id="SVGID_18_" gradientUnits="userSpaceOnUse" x1="72.2671" y1="123.5457" x2="83.5128" y2="123.5457" gradientTransform="matrix(1 0 0 -1 0 351.2756)">
			<stop  offset="0" style="stop-color:#FFFFFF"/>
			<stop  offset="0.8404" style="stop-color:#E8E7E7"/>
		</linearGradient>
		<path class="st25" d="M83.5,234.5c-2.7-4.3-5.3-8.7-7.7-13.2c-1.1-0.2-2.4-0.8-3.5-0.6c3.2,5,6.9,9.8,11,14.1
			C83.4,234.7,83.5,234.6,83.5,234.5z"/>
		<path class="st4" d="M72.3,220.8c-0.1,0-0.2,0-0.3,0.1c-2.5,1-4.6,3-6.1,5.3c3.4,5.2,8.5,9.3,14.4,11.4c1-0.5,2.3-1.7,3.1-2.7
			C79.2,230.5,75.5,225.8,72.3,220.8z"/>
		
			<linearGradient id="SVGID_19_" gradientUnits="userSpaceOnUse" x1="100.9526" y1="164.4165" x2="82.2157" y2="152.0673" gradientTransform="matrix(1 0 0 -1 0 351.2756)">
			<stop  offset="0" style="stop-color:#FFFFFF"/>
			<stop  offset="0.8404" style="stop-color:#E8E7E7"/>
		</linearGradient>
		<path class="st26" d="M98.9,195.5c-3.8,3.8-9.2,5.9-14.6,5.7c-0.5-3.8-0.4-7.7,0.5-11.4c2.1-1.6,4.6-2.7,7.2-3.2
			C95,188.6,97.3,192.3,98.9,195.5z"/>
		
			<linearGradient id="SVGID_20_" gradientUnits="userSpaceOnUse" x1="112.118" y1="147.476" x2="93.381" y2="135.1267" gradientTransform="matrix(1 0 0 -1 0 351.2756)">
			<stop  offset="0" style="stop-color:#FFFFFF"/>
			<stop  offset="0.8404" style="stop-color:#E8E7E7"/>
		</linearGradient>
		<path class="st27" d="M104.7,204.7c0.1,5.5-1.8,11-5.2,15.3c-1.2,0.3-2.4,0.3-3.6,0.3c0.6-5.5,1.9-11,3.8-16.2
			C101.2,203.9,103.3,204.1,104.7,204.7z"/>
		<path class="st18" d="M177.1,127.1c0,0-0.3,0-0.8-0.1c-0.5,0-1.3-0.1-2.2-0.1c-1.9-0.1-4.4,0-7.3,0.4c-2.8,0.4-5.3,0.9-7.1,1.4
			c-0.9,0.3-1.6,0.5-2.1,0.6c-0.5,0.2-0.8,0.3-0.8,0.3s0.3-0.1,0.7-0.4c0.5-0.3,1.1-0.6,2-1c1.7-0.8,4.3-1.6,7.2-2s5.6-0.2,7.4,0.2
			c0.9,0.2,1.7,0.3,2.2,0.5C176.9,127,177.1,127.1,177.1,127.1z"/>
		<path class="st18" d="M178.4,136.4c0,0-1.2,0-3,0c-1.9,0-4.4,0.1-7.3,0.3c-2.8,0.2-5.4,0.4-7.2,0.6c-1.9,0.2-3,0.3-3,0.3
			s1.1-0.4,2.9-0.9c1.8-0.5,4.4-1,7.3-1.1c2.9-0.2,5.5,0,7.4,0.3C177.3,136.1,178.4,136.4,178.4,136.4z"/>
		<path class="st4" d="M81.2,161.7v0.3c-0.5,7.4,0.3,14.8,2.2,21.9c0.3-0.1,0.5-0.2,0.8-0.3c-1.8-6.9-2.6-14.1-2.1-21.3
			c2.1-0.8,4-1.3,5.8-1.6c0-0.3,0-0.6,0-0.8c-2,0.3-4,0.8-6.3,1.7L81.2,161.7z"/>
		<path class="st7" d="M68.7,169.5v-0.2c0-8.4-1.5-16.5-4.3-24.1c3.1-1.4,6-2.4,8.5-2.8l0.4-0.1l-0.1-0.4c-2.2-11.1-1.3-23,2.6-33.7
			c-0.3-0.1-0.6-0.1-0.8-0.1c-3.8,10.6-4.7,22.5-2.6,33.6c-2.6,0.5-5.5,1.5-8.7,2.9l-0.3,0.2l0.1,0.4c2.8,7.6,4.3,15.7,4.4,24
			c-4.3,3-9.7,4.3-14.5,3.5c0.1,0.3,0.2,0.6,0.3,0.9c0.9,0.1,1.8,0.2,2.7,0.2c4.2,0,8.6-1.4,12.2-4.1L68.7,169.5z"/>
		<path class="st7" d="M65.8,119.1c-2.8,0.3-5.6,1.2-8.3,2.2c-0.2-2.2,0.2-4.4,1.3-6.3c2.4-0.9,5-1.7,7.6-1.8
			C66.1,114.9,66,117.3,65.8,119.1z"/>
		<path class="st20" d="M65.2,118.6c-2.1,0.2-4.2,0.8-6.2,1.5c-0.2-1.5,0.2-3,1-4.2c1.8-0.6,3.8-1.1,5.7-1.2
			C65.5,115.8,65.4,117.4,65.2,118.6z"/>
		<path class="st7" d="M58.3,172.9c-0.4-5.6-2.2-11-4-16.3c-0.4-1.1-0.7-2.2-1.1-3.3c-1.9-6.1-3.8-13.1-2.5-19.9
			c-2-0.8-4.5-1.7-6.6-1.5l-0.1-0.6c2.3-0.2,5,0.7,7.1,1.6l0.2,0.1v0.2c-1.3,6.7,0.5,13.8,2.5,19.9c0.4,1.1,0.7,2.2,1.1,3.3
			c1.8,5.3,3.6,10.8,4,16.4L58.3,172.9z"/>
		<path class="st7" d="M76.3,207.1c-6.4,1.6-13,2.8-19.6,2.9c0,0.1,0,0.3,0,0.4c0.9,0.6,1.6,1.7,2.4,2.3c6.8,0.2,13.9-0.6,20.4-2.8
			c0-0.1,0-0.2,0.1-0.3C78.6,208.8,77.4,208,76.3,207.1z"/>
		
			<linearGradient id="SVGID_21_" gradientUnits="userSpaceOnUse" x1="83.3395" y1="154.3478" x2="56.9375" y2="141.2888" gradientTransform="matrix(1 0 0 -1 0 351.2756)">
			<stop  offset="0" style="stop-color:#FFFFFF"/>
			<stop  offset="0.8404" style="stop-color:#E8E7E7"/>
		</linearGradient>
		<path class="st28" d="M83.5,189.6c-0.8-0.7-3.4-1.1-4.9-1.2c-0.8,6.5-1.2,12.3-1.8,18.7c-0.2,0-0.3,0.1-0.5,0.1
			c1.1,0.9,2.2,1.6,3.4,2.4C80.8,203,82.4,196.1,83.5,189.6z"/>
		<path class="st8" d="M88,119.9c4.5,3.3,6,9.6,5.1,15.1s-3.9,10.5-7,15.2c-0.3,9.7,0.2,19.8,1.5,29.5c-1,0.4-2.4,0.8-3.4,1.1
			c-2.9-10.5-3.4-21.8-1.6-32.5c5-5.4,6.7-14.2,4.7-21.3C86.8,124.9,87.9,122.1,88,119.9z"/>
		<path class="st8" d="M97.5,195.4c-1.4-2.7-3.5-5.4-5.7-7.5c-1.2,0.2-2.1,1-3.1,1.7c1.7,2.9,3.2,5.9,4.2,9.1c0.1,0.1,0.3,0,0.3-0.1
			c0-0.2-0.3-0.2-0.3,0C94.3,197.7,96.4,196.4,97.5,195.4z"/>
		<path class="st8" d="M104.1,205.4c0,3.8-1.4,7.9-3.3,11.3c0.9-2.9,1.1-6.2,0.5-9.2c-0.5-0.2-0.9-0.4-1.4-0.7
			c0.4-0.6,0.4-1.4,0.5-2.1C101.5,204.6,103,204.9,104.1,205.4z"/>
		<path class="st10" d="M95.2,91H95c-0.9-0.1-1.8-0.1-2.7-0.2c-1.8,0-3.7-0.1-5.4-0.9l0.4-0.7c1.5,0.7,3.2,0.8,5,0.8
			c0.8,0,1.7,0,2.5,0.1c8.2-9.1,13.8-20.5,15.9-31.9l0.8,0.1c-2.1,11.7-7.9,23.2-16.2,32.5L95.2,91z"/>
		<path class="st7" d="M86.9,89.9c-1.5-0.7-3-1.4-4.4-2.1c-1.5-0.7-3-1.4-4.5-2.1l-0.3-0.2l0.1-0.3c1.6-5.7,2.4-11.8,2.5-17.6
			c-4.5-1.3-9-2.2-13.7-2.8l0.1-0.8c4.8,0.6,9.5,1.5,14.1,2.9l0.3,0.1v0.3c0,5.9-0.9,12-2.4,17.8c1.4,0.7,2.8,1.3,4.2,2
			c1.5,0.7,3,1.4,4.5,2.1L86.9,89.9z"/>
		<path class="st7" d="M81.5,55c-2.3-0.1-4.7-0.2-7.1-0.5c0.5-1.7,1.3-3.3,2.2-4.8c2.3-0.3,4.8-0.6,7.1-0.4
			C83.3,51.1,82.4,53.3,81.5,55z"/>
		<path class="st20" d="M81.2,54.4c-1.6,0-3.1-0.2-4.7-0.3c0.3-1.1,0.8-2.2,1.5-3.2c1.6-0.2,3.2-0.4,4.7-0.2
			C82.4,51.8,81.8,53.2,81.2,54.4z"/>
		<path class="st8" d="M109.4,66.4c-1.3,11-5.2,21.9-10.4,31.7c10.2-12.4,12.8-23.3,15.4-34.4c-3.1-6-8.1-11.2-13.5-15.3
			c3,5.6,5.6,11,8.6,16.6L109.4,66.4z"/>
		
			<linearGradient id="SVGID_22_" gradientUnits="userSpaceOnUse" x1="169.0025" y1="289.7344" x2="155.1864" y2="257.5599" gradientTransform="matrix(1 0 0 -1 0 351.2756)">
			<stop  offset="0.1676" style="stop-color:#BDB48E"/>
			<stop  offset="0.2563" style="stop-color:#B3AB87"/>
			<stop  offset="0.406" style="stop-color:#999273"/>
			<stop  offset="0.5983" style="stop-color:#6E6953"/>
			<stop  offset="0.8233" style="stop-color:#333126"/>
			<stop  offset="1" style="stop-color:#000000"/>
		</linearGradient>
		<path class="st29" d="M170.1,82.6c1.7-3.9,3.2-7.9,4.6-11.9c0.3,0.2,0.5,0.4,0.8,0.7c-0.1-0.1-2.6,10-5.7,13.9
			c-7.3,1.2-14.8,0.9-22-0.3c0-0.6,0.3-1.3,0.4-1.9c7,0.6,14.1,0.6,21.1,0L170.1,82.6z"/>
		<path class="st8" d="M179.5,70.5c3,0.4,5.9,1.3,8.5,2.7c6.1,8.7,6.9,17.3,6.6,26.3c-0.3,9-2.5,17.9-4.7,26.6
			c-2.7,0.7-5.5,1.2-8.3,1.1c-0.4-4.3-1.2-8.3-3-12.2c-4.8-0.3-9.8-0.7-14.6-0.4c-3.6-8.7-7.2-18-10.7-26.6c6.3,1,12.5,0.6,18.8-0.1
			C175.3,82.6,178.2,76.5,179.5,70.5z"/>
		
			<linearGradient id="SVGID_23_" gradientUnits="userSpaceOnUse" x1="175.1167" y1="209.3658" x2="147.2155" y2="170.1399" gradientTransform="matrix(1 0 0 -1 0 351.2756)">
			<stop  offset="4.356780e-02" style="stop-color:#FFFFFF"/>
			<stop  offset="0.2974" style="stop-color:#FBFBFB"/>
			<stop  offset="0.553" style="stop-color:#EFEFEF"/>
			<stop  offset="0.7039" style="stop-color:#E5E5E4"/>
			<stop  offset="0.802" style="stop-color:#DFDFDE"/>
			<stop  offset="1" style="stop-color:#D7D7D7"/>
		</linearGradient>
		<path class="st30" d="M177.7,151.9c-1.9,8.8-5.5,18.8-11.2,25.7c-4.4,0.7-9.4,0.8-13.7-0.4c-1.5-8-2-17.2-1.6-25.4
			c3.5-1.9,6.4-5.3,8.9-8.4c4.3-0.9,9-0.7,13.4-0.3C175.4,145.7,177,148.8,177.7,151.9z"/>
		<path class="st10" d="M174.3,165.6c-1.6-0.3-3.9-0.7-5.2-0.9l-0.5-0.1l0.2-0.5c0.9-2.6,1.5-5.3,1.7-7.8c-2.1-0.2-4.3-0.2-6.4-0.2
			c-0.6,0-1.1,0-1.7,0c-0.3,1.4-0.5,2.8-0.6,4.2c-0.1,1.1-0.3,2.2-0.4,3.3l-0.1,0.3l-10.8,0.5v-0.8l10.2-0.5c0.1-1,0.3-1.9,0.4-2.9
			c0.2-1.5,0.4-3.1,0.7-4.6l0.1-0.3h0.3c0.7,0,1.3,0,2,0c2.3,0,4.6,0,6.9,0.3h0.4v0.4c-0.2,2.6-0.7,5.3-1.6,8
			c1.4,0.2,3.3,0.6,4.8,0.9L174.3,165.6z"/>
		<path class="st8" d="M160.7,177.2c1.6,0,3.3-0.2,4.9-0.2c5.6-7.5,10.1-16.6,11.5-25.8c-0.7-2.6-2.1-5.3-3.8-7.3
			c-4-0.3-8.2-0.1-12.2,0.2c-1.7,3.4-4.6,6.1-8,7.7c3.9-0.4,7.3-1.8,10.2-4.4c2.8-0.4,5.9-0.6,8.7-0.2c1,1.4,2,3,2.7,4.5
			c-2,8.2-5,16.4-9.4,23.6C163.6,175.9,162.4,176.6,160.7,177.2z"/>
		<path class="st18" d="M123.6,234.8c-4.1-0.4-8.1-2.2-11.7-4.3c1.9-7.6,4.3-15,7.2-22.3c-0.3,0-0.7-0.1-1-0.1
			c-4.8,6.2-8.4,13.5-10.4,21.1c1,2.3,2,4.4,3.5,6.4c3.1,1.2,8.7,2.5,12,2.7c2.9-1.9,5.7-5.3,6.3-8.7
			C127.7,231.7,125.8,233.4,123.6,234.8z"/>
		<path class="st10" d="M170.2,291.9c-6.1,0.4-11.9-0.7-17.6-3c-0.7-20.8,2.4-42.1,8.1-62.1c0.5-0.2,1.4-0.4,1.9-0.2
			c0.2,2.3,1.1,4.4,1.3,6.6c3,2,6.5,3.4,10.1,3.9c-0.2-5.2-1.2-11.2-2.6-16.5c-4.6,0.1-9.2,1.2-13.2,3.7
			c-7.3,24-14.7,48.8-12.4,73.9c8.3,2,17.2,2.7,25.7,2c3.5-5.2,6.8-15.1,8.6-20.8C176.6,283.4,173.2,287.5,170.2,291.9z"/>
		
			<linearGradient id="SVGID_24_" gradientUnits="userSpaceOnUse" x1="182.083" y1="150.7543" x2="167.0366" y2="112.7126" gradientTransform="matrix(1 0 0 -1 0 351.2756)">
			<stop  offset="0" style="stop-color:#F2F2F2"/>
			<stop  offset="0.4203" style="stop-color:#B5C5C5"/>
			<stop  offset="0.8404" style="stop-color:#759595"/>
		</linearGradient>
		<path class="st31" d="M176.8,236.3c-1,0.1-2.5,0.5-3.4,0.1c-3.3-1.3-6.2-3.1-8.7-5.6c0.2-6,1.4-12,3.5-17.6
			c2.3-1.3,5.2-2.8,7.8-3.3C178.9,218,178.3,227.9,176.8,236.3z"/>
		<path class="st18" d="M176.8,236.3c0.1-0.3,0.1-0.7,0.2-1c-2.7-2-5.2-4.2-7.8-6.5c0.1-5.7,0.6-11.4,1.8-17h-0.1
			c-0.9,0.4-1.8,0.9-2.6,1.4c-2.1,5.7-3.2,11.6-3.5,17.6c2.5,2.5,5.4,4.3,8.7,5.6C174.4,236.8,175.8,236.4,176.8,236.3z"/>
		
			<linearGradient id="SVGID_25_" gradientUnits="userSpaceOnUse" x1="204.1648" y1="75.7493" x2="184.5762" y2="41.1145" gradientTransform="matrix(1 0 0 -1 0 351.2756)">
			<stop  offset="0" style="stop-color:#F2F2F2"/>
			<stop  offset="0.4203" style="stop-color:#B5C5C5"/>
			<stop  offset="0.8404" style="stop-color:#759595"/>
		</linearGradient>
		<path class="st32" d="M213.6,301.2c-14.5,0.9-29.1,0.6-43.6-0.8c1.8-9.4,5.2-17.6,11-25.1c4.4,3.6,8.6,7.9,13,11.5
			c0,0,12.4,4.6,18.9,5.1C213.8,294.8,213.8,298.1,213.6,301.2z"/>
		<path class="st10" d="M124.2,293.6l-0.1-0.5c-1-10.4-2.6-20.8-4.8-31c-6.2-0.7-12.9-1.2-19.3,0.6l-0.2-0.8
			c6.7-1.9,13.5-1.4,19.9-0.6h0.3l0.1,0.3c2.2,10.2,3.8,20.5,4.8,30.9c2.3-1,4.3-2.1,5.8-3.4l0.6,0.6c-1.7,1.5-3.9,2.7-6.5,3.8
			L124.2,293.6z"/>
		<path class="st18" d="M114.6,319.2c-0.1-0.4-0.2-0.9-0.2-1.3c-3.6-0.2-7.6-1.2-11-2.4c0.3-10.4,0.9-20.8,1.9-31.2
			c-0.1,0-0.3,0-0.4,0c-3.8,8-6.3,16.5-7.2,25.3c0,0,1.9,6.3,4.1,8.7C105.4,319.4,113.8,319.2,114.6,319.2z"/>
		<path class="st18" d="M213.6,301.2c0-0.5,0.1-1,0.1-1.5c-8.4,0.9-16.9-1.6-24.4-5.4c0.1-1.5,1-3.5,1.9-4.6c-1.9,1.5-4,2.6-6.1,3.8
			c-3.7-2.3-7.1-5.3-10-8.6c-2.4,4.8-4,10-5.1,15.5C184.5,301.8,199,302.1,213.6,301.2z"/>
		<path class="st18" d="M103.7,299.4c1.6-0.3,4.5-0.9,7.2-1.1c2.6-0.2,4.9-0.2,4.9-0.2s-2.2-0.6-4.8-0.9c-2.7-0.4-5.9-0.3-7.6,0
			L103.7,299.4z"/>
		<path class="st10" d="M156.6,281.9c-1.6,0-3-0.1-4.4-0.4l0.2-0.8c2.8,0.6,6,0.5,9.7-0.1c-0.2-7.2,0.8-14.9,3.1-22.7l0.1-0.2
			l0.2-0.1c3.7-1.7,7.7-2.9,11.7-3.5l0.1,0.8c-3.9,0.6-7.7,1.7-11.3,3.4c-2.3,7.8-3.3,15.4-3,22.6v0.4l-0.4,0.1
			C160.5,281.7,158.5,281.9,156.6,281.9z"/>
		<path class="st8" d="M130.9,302.9c-2.9-20.7-4-42.4-3.4-63.4c-2.8,1.2-6.1,2.4-8.9,3.6c-0.2,21.7,1.7,43.3,7.7,62.8
			C127.6,305.2,129.9,304,130.9,302.9z"/>
		<path class="st8" d="M180.2,274.2c-3.2-11-5.3-23-6.7-35.2c-1.9-0.1-3.8-0.5-5.6-1.2c-0.4,14.2,2.2,28.5,7.4,41.7
			c1.4-1.9,3.1-3.7,4.6-5.6C179.8,274.1,180.3,274.3,180.2,274.2z"/>
		
			<radialGradient id="SVGID_26_" cx="167.6475" cy="317.3042" r="27.2507" gradientTransform="matrix(1 0 0 -1 0 351.2756)" gradientUnits="userSpaceOnUse">
			<stop  offset="5.032370e-03" style="stop-color:#22577E"/>
			<stop  offset="0.2551" style="stop-color:#204F76"/>
			<stop  offset="0.6313" style="stop-color:#1C3A62"/>
			<stop  offset="1" style="stop-color:#162048"/>
		</radialGradient>
		<path class="st33" d="M141.9,36.4c8.7,0.1,17.3,1.3,25.9,3.6c0.4,2.4,0.5,4.9,0.4,7.6c-7.8-0.7-16.2-0.1-24.9,1.6
			C142.1,44.6,141.5,40.2,141.9,36.4z"/>
		<polygon class="st20" points="147.1,39.8 147.6,44 155.5,42.6 155.8,40.2 		"/>
		<polygon class="st20" points="166.2,41.2 166.4,44.8 160.3,42.7 160.1,40.6 		"/>
		<g>
			
				<ellipse transform="matrix(0.8712 -0.4909 0.4909 0.8712 -27.8897 94.5256)" class="st10" cx="166.2" cy="100.4" rx="10.8" ry="12.7"/>
			
				<linearGradient id="SVGID_27_" gradientUnits="userSpaceOnUse" x1="160.3426" y1="261.338" x2="147.4415" y2="241.6069" gradientTransform="matrix(1.0105 -9.000000e-04 -0.1263 -0.9895 43.7611 347.6402)">
				<stop  offset="4.356780e-02" style="stop-color:#FFFFFF"/>
				<stop  offset="0.2974" style="stop-color:#FBFBFB"/>
				<stop  offset="0.553" style="stop-color:#EFEFEF"/>
				<stop  offset="0.7039" style="stop-color:#E5E5E4"/>
				<stop  offset="0.802" style="stop-color:#DFDFDE"/>
				<stop  offset="1" style="stop-color:#D7D7D7"/>
			</linearGradient>
			<path class="st34" d="M168.2,111.5c-5.7,0-11-5.1-11.8-11.4s3.2-11.4,8.8-11.4c5.7,0,11,5.1,11.8,11.4
				C177.9,106.4,173.9,111.5,168.2,111.5z"/>
			<path class="st10" d="M175.4,100c0.6,4.6-2.2,8.4-6.3,8.4s-7.9-3.8-8.5-8.4s2.2-8.4,6.3-8.4S174.8,95.4,175.4,100z"/>
			
				<radialGradient id="SVGID_28_" cx="158.2267" cy="258.4111" r="17.2509" gradientTransform="matrix(1.0105 -9.000000e-04 -0.1263 -0.9895 43.7611 347.6402)" gradientUnits="userSpaceOnUse">
				<stop  offset="5.032370e-03" style="stop-color:#22577E"/>
				<stop  offset="0.2551" style="stop-color:#204F76"/>
				<stop  offset="0.6313" style="stop-color:#1C3A62"/>
				<stop  offset="1" style="stop-color:#162048"/>
			</radialGradient>
			<path class="st35" d="M165.8,92.3c-0.9,0-1.7,0.2-2.5,0.5c-2,1.5-3.1,4.1-2.7,7.2c0.6,4.6,4.4,8.4,8.5,8.4c0.9,0,1.7-0.2,2.5-0.5
				c2-1.5,3.1-4.1,2.7-7.2C173.6,96.1,169.8,92.3,165.8,92.3z"/>
			
				<linearGradient id="SVGID_29_" gradientUnits="userSpaceOnUse" x1="161.4139" y1="260.2669" x2="150.3721" y2="247.0622" gradientTransform="matrix(1.0105 -9.000000e-04 -0.1263 -0.9895 43.7611 347.6402)">
				<stop  offset="0" style="stop-color:#848174"/>
				<stop  offset="0.7277" style="stop-color:#252420"/>
				<stop  offset="1" style="stop-color:#000000"/>
			</linearGradient>
			<path class="st36" d="M168.5,101c1.9,0.8,3.5,0.9,5.1,0.6c0-0.3,0-0.6-0.1-0.9c-0.5-4.3-4-7.8-7.7-7.8c-0.7,0-1.4,0.1-2.1,0.5
				c-0.4,0.3-0.8,0.7-1.1,1.2C163.3,97.3,164.9,99.4,168.5,101z"/>
		</g>
	</g>
</g>
</svg>
