<svg xmlns="http://www.w3.org/2000/svg" xmlns:xlink="http://www.w3.org/1999/xlink" viewBox="0 0 294.54 401.1"><defs><style>.cls-1{isolation:isolate;}.cls-2{fill:#d7d7d7;}.cls-3{fill:url(#_ÂÁ_Ï_ÌÌ_È_ËÂÌÚ_4);}.cls-4{fill:#99999a;}.cls-5{fill:#d3d3d3;}.cls-6{fill:url(#_ÂÁ_Ï_ÌÌ_È_ËÂÌÚ_3);}.cls-7{fill:#2a3e51;}.cls-8{fill:url(#_ÂÁ_Ï_ÌÌ_È_ËÂÌÚ_5);}.cls-9{fill:url(#_ÂÁ_Ï_ÌÌ_È_ËÂÌÚ_3-2);}.cls-10{fill:#477087;}.cls-11,.cls-12,.cls-20,.cls-23,.cls-25,.cls-27,.cls-31,.cls-34,.cls-37,.cls-40,.cls-47{mix-blend-mode:screen;}.cls-11{fill:url(#_ÂÁ_Ï_ÌÌ_È_ËÂÌÚ_40);}.cls-12{fill:url(#_ÂÁ_Ï_ÌÌ_È_ËÂÌÚ_40-2);}.cls-13{fill:url(#_ÂÁ_Ï_ÌÌ_È_ËÂÌÚ_160);}.cls-14{fill:url(#_ÂÁ_Ï_ÌÌ_È_ËÂÌÚ_160-2);}.cls-15{fill:#e2e2e2;mix-blend-mode:multiply;}.cls-16{fill:#4b6d73;}.cls-17{fill:url(#_ÂÁ_Ï_ÌÌ_È_ËÂÌÚ_3-3);}.cls-18{fill:url(#_ÂÁ_Ï_ÌÌ_È_ËÂÌÚ_3-4);}.cls-19{fill:url(#_ÂÁ_Ï_ÌÌ_È_ËÂÌÚ_4-2);}.cls-20{fill:url(#_ÂÁ_Ï_ÌÌ_È_ËÂÌÚ_40-3);}.cls-21{fill:url(#_ÂÁ_Ï_ÌÌ_È_ËÂÌÚ_4-3);}.cls-22{fill:url(#_ÂÁ_Ï_ÌÌ_È_ËÂÌÚ_160-3);}.cls-23{fill:url(#_ÂÁ_Ï_ÌÌ_È_ËÂÌÚ_166);}.cls-24{fill:url(#_ÂÁ_Ï_ÌÌ_È_ËÂÌÚ_2);}.cls-25{fill:url(#_ÂÁ_Ï_ÌÌ_È_ËÂÌÚ_40-4);}.cls-26{fill:url(#_ÂÁ_Ï_ÌÌ_È_ËÂÌÚ_4-4);}.cls-27{fill:url(#_ÂÁ_Ï_ÌÌ_È_ËÂÌÚ_40-5);}.cls-28{fill:url(#_ÂÁ_Ï_ÌÌ_È_ËÂÌÚ_160-4);}.cls-29,.cls-38{fill:#fff;}.cls-30{fill:url(#_ÂÁ_Ï_ÌÌ_È_ËÂÌÚ_2-2);}.cls-31{fill:url(#_ÂÁ_Ï_ÌÌ_È_ËÂÌÚ_40-6);}.cls-32{fill:url(#_ÂÁ_Ï_ÌÌ_È_ËÂÌÚ_3-5);}.cls-33{fill:url(#_ÂÁ_Ï_ÌÌ_È_ËÂÌÚ_4-5);}.cls-34{fill:url(#_ÂÁ_Ï_ÌÌ_È_ËÂÌÚ_40-7);}.cls-35{fill:url(#_ÂÁ_Ï_ÌÌ_È_ËÂÌÚ_2-3);}.cls-36{fill:url(#_ÂÁ_Ï_ÌÌ_È_ËÂÌÚ_2-4);}.cls-37{fill:url(#_ÂÁ_Ï_ÌÌ_È_ËÂÌÚ_190);}.cls-38{mix-blend-mode:soft-light;}.cls-39{fill:url(#_ÂÁ_Ï_ÌÌ_È_ËÂÌÚ_3-6);}.cls-40{fill:url(#_ÂÁ_Ï_ÌÌ_È_ËÂÌÚ_190-2);}.cls-41{fill:url(#_ÂÁ_Ï_ÌÌ_È_ËÂÌÚ_3-7);}.cls-42{fill:url(#_ÂÁ_Ï_ÌÌ_È_ËÂÌÚ_3-8);}.cls-43{fill:url(#_ÂÁ_Ï_ÌÌ_È_ËÂÌÚ_3-9);}.cls-44{fill:url(#_ÂÁ_Ï_ÌÌ_È_ËÂÌÚ_3-10);}.cls-45{fill:url(#_ÂÁ_Ï_ÌÌ_È_ËÂÌÚ_5-2);}.cls-46{fill:#9d9d9d;}.cls-47{fill:url(#_ÂÁ_Ï_ÌÌ_È_ËÂÌÚ_40-8);}.cls-48{fill:#c62026;}.cls-49{fill:url(#_ÂÁ_Ï_ÌÌ_È_ËÂÌÚ_4-6);}</style><linearGradient id="_ÂÁ_Ï_ÌÌ_È_ËÂÌÚ_4" x1="186.65" y1="153.22" x2="188.36" y2="195.25" gradientUnits="userSpaceOnUse"><stop offset="0.04" stop-color="#fff"/><stop offset="0.3" stop-color="#fbfbfb"/><stop offset="0.55" stop-color="#efefef"/><stop offset="0.7" stop-color="#e5e5e4"/><stop offset="0.8" stop-color="#dfdfde"/><stop offset="1" stop-color="#d7d7d7"/></linearGradient><linearGradient id="_ÂÁ_Ï_ÌÌ_È_ËÂÌÚ_3" x1="88.21" y1="975.52" x2="73.62" y2="1016.63" gradientTransform="translate(-13.89 -741.29) rotate(-7.68)" gradientUnits="userSpaceOnUse"><stop offset="0" stop-color="#fff"/><stop offset="0.84" stop-color="#e8e7e7"/></linearGradient><linearGradient id="_ÂÁ_Ï_ÌÌ_È_ËÂÌÚ_5" x1="82.75" y1="1005.53" x2="90.48" y2="954.7" gradientTransform="translate(-13.89 -741.29) rotate(-7.68)" gradientUnits="userSpaceOnUse"><stop offset="0" stop-color="#fff"/><stop offset="0.48" stop-color="#eee"/><stop offset="1" stop-color="#d7d7d7"/></linearGradient><linearGradient id="_ÂÁ_Ï_ÌÌ_È_ËÂÌÚ_3-2" x1="72.26" y1="994.49" x2="53.85" y2="1014.93" xlink:href="#_ÂÁ_Ï_ÌÌ_È_ËÂÌÚ_3"/><linearGradient id="_ÂÁ_Ï_ÌÌ_È_ËÂÌÚ_40" x1="42.48" y1="1144.03" x2="57.68" y2="1144.03" gradientTransform="translate(-30.41 -895.65) rotate(-9.24)" gradientUnits="userSpaceOnUse"><stop offset="0.17" stop-color="#bdb48e"/><stop offset="0.26" stop-color="#b3ab87"/><stop offset="0.41" stop-color="#999273"/><stop offset="0.6" stop-color="#6e6953"/><stop offset="0.82" stop-color="#333126"/><stop offset="1"/></linearGradient><linearGradient id="_ÂÁ_Ï_ÌÌ_È_ËÂÌÚ_40-2" x1="183.55" y1="154.67" x2="192.64" y2="187.9" gradientTransform="matrix(1, 0, 0, 1, 0, 0)" xlink:href="#_ÂÁ_Ï_ÌÌ_È_ËÂÌÚ_40"/><radialGradient id="_ÂÁ_Ï_ÌÌ_È_ËÂÌÚ_160" cx="148.49" cy="145.44" r="9.31" gradientUnits="userSpaceOnUse"><stop offset="0.01" stop-color="#22577e"/><stop offset="0.25" stop-color="#204f77"/><stop offset="0.63" stop-color="#1c3b62"/><stop offset="1" stop-color="#162048"/></radialGradient><radialGradient id="_ÂÁ_Ï_ÌÌ_È_ËÂÌÚ_160-2" cx="136.32" cy="146.41" r="7.97" xlink:href="#_ÂÁ_Ï_ÌÌ_È_ËÂÌÚ_160"/><linearGradient id="_ÂÁ_Ï_ÌÌ_È_ËÂÌÚ_3-3" x1="200.16" y1="295.71" x2="152.08" y2="332.06" gradientTransform="matrix(1, 0, 0, 1, 0, 0)" xlink:href="#_ÂÁ_Ï_ÌÌ_È_ËÂÌÚ_3"/><linearGradient id="_ÂÁ_Ï_ÌÌ_È_ËÂÌÚ_3-4" x1="140.08" y1="299.11" x2="70.09" y2="338.25" gradientTransform="matrix(1, 0, 0, 1, 0, 0)" xlink:href="#_ÂÁ_Ï_ÌÌ_È_ËÂÌÚ_3"/><linearGradient id="_ÂÁ_Ï_ÌÌ_È_ËÂÌÚ_4-2" x1="163.05" y1="212.47" x2="142.68" y2="139" xlink:href="#_ÂÁ_Ï_ÌÌ_È_ËÂÌÚ_4"/><linearGradient id="_ÂÁ_Ï_ÌÌ_È_ËÂÌÚ_40-3" x1="184.89" y1="165.08" x2="143.7" y2="209.94" gradientTransform="matrix(1, 0, 0, 1, 0, 0)" xlink:href="#_ÂÁ_Ï_ÌÌ_È_ËÂÌÚ_40"/><linearGradient id="_ÂÁ_Ï_ÌÌ_È_ËÂÌÚ_4-3" x1="165" y1="158.66" x2="144.35" y2="190.23" xlink:href="#_ÂÁ_Ï_ÌÌ_È_ËÂÌÚ_4"/><radialGradient id="_ÂÁ_Ï_ÌÌ_È_ËÂÌÚ_160-3" cx="161.59" cy="163.33" r="27.61" xlink:href="#_ÂÁ_Ï_ÌÌ_È_ËÂÌÚ_160"/><linearGradient id="_ÂÁ_Ï_ÌÌ_È_ËÂÌÚ_166" x1="166.69" y1="160.35" x2="149.02" y2="181.49" gradientUnits="userSpaceOnUse"><stop offset="0" stop-color="#848174"/><stop offset="0.73" stop-color="#252420"/><stop offset="1"/></linearGradient><linearGradient id="_ÂÁ_Ï_ÌÌ_È_ËÂÌÚ_2" x1="166.04" y1="139.7" x2="125.34" y2="132.32" gradientUnits="userSpaceOnUse"><stop offset="0" stop-color="#f2f2f2"/><stop offset="0.42" stop-color="#b5c5c5"/><stop offset="0.84" stop-color="#759595"/></linearGradient><linearGradient id="_ÂÁ_Ï_ÌÌ_È_ËÂÌÚ_40-4" x1="167.32" y1="118.95" x2="141.95" y2="147.92" gradientTransform="matrix(1, 0, 0, 1, 0, 0)" xlink:href="#_ÂÁ_Ï_ÌÌ_È_ËÂÌÚ_40"/><linearGradient id="_ÂÁ_Ï_ÌÌ_È_ËÂÌÚ_4-4" x1="159.31" y1="106.48" x2="131.29" y2="134.31" xlink:href="#_ÂÁ_Ï_ÌÌ_È_ËÂÌÚ_4"/><linearGradient id="_ÂÁ_Ï_ÌÌ_È_ËÂÌÚ_40-5" x1="164.13" y1="100.45" x2="140.84" y2="123.93" gradientTransform="matrix(1, 0, 0, 1, 0, 0)" xlink:href="#_ÂÁ_Ï_ÌÌ_È_ËÂÌÚ_40"/><radialGradient id="_ÂÁ_Ï_ÌÌ_È_ËÂÌÚ_160-4" cx="158.87" cy="105.16" r="31.13" xlink:href="#_ÂÁ_Ï_ÌÌ_È_ËÂÌÚ_160"/><linearGradient id="_ÂÁ_Ï_ÌÌ_È_ËÂÌÚ_2-2" x1="-9697.22" y1="-231.22" x2="-9731.54" y2="-231.51" gradientTransform="matrix(-1, -0.09, -0.09, 1, -9559.88, -439.59)" xlink:href="#_ÂÁ_Ï_ÌÌ_È_ËÂÌÚ_2"/><linearGradient id="_ÂÁ_Ï_ÌÌ_È_ËÂÌÚ_40-6" x1="-9700.64" y1="-245.26" x2="-9726.63" y2="-219.27" gradientTransform="matrix(-1, -0.09, -0.09, 1, -9559.88, -439.59)" xlink:href="#_ÂÁ_Ï_ÌÌ_È_ËÂÌÚ_40"/><linearGradient id="_ÂÁ_Ï_ÌÌ_È_ËÂÌÚ_3-5" x1="146.86" y1="223.71" x2="132.09" y2="269.9" gradientTransform="matrix(1, 0, 0, 1, 0, 0)" xlink:href="#_ÂÁ_Ï_ÌÌ_È_ËÂÌÚ_3"/><linearGradient id="_ÂÁ_Ï_ÌÌ_È_ËÂÌÚ_4-5" x1="142.95" y1="229.17" x2="140.53" y2="265.25" xlink:href="#_ÂÁ_Ï_ÌÌ_È_ËÂÌÚ_4"/><linearGradient id="_ÂÁ_Ï_ÌÌ_È_ËÂÌÚ_40-7" x1="161.28" y1="221.18" x2="132.89" y2="253.93" gradientTransform="matrix(1, 0, 0, 1, 0, 0)" xlink:href="#_ÂÁ_Ï_ÌÌ_È_ËÂÌÚ_40"/><linearGradient id="_ÂÁ_Ï_ÌÌ_È_ËÂÌÚ_2-3" x1="199.92" y1="325.76" x2="182.5" y2="347.72" xlink:href="#_ÂÁ_Ï_ÌÌ_È_ËÂÌÚ_2"/><linearGradient id="_ÂÁ_Ï_ÌÌ_È_ËÂÌÚ_2-4" x1="114.74" y1="330.1" x2="93.15" y2="355.09" xlink:href="#_ÂÁ_Ï_ÌÌ_È_ËÂÌÚ_2"/><linearGradient id="_ÂÁ_Ï_ÌÌ_È_ËÂÌÚ_190" x1="187.96" y1="275.89" x2="184.84" y2="322.75" gradientUnits="userSpaceOnUse"><stop offset="0.17" stop-color="#bdb48e"/><stop offset="0.26" stop-color="#b3ab87"/><stop offset="0.4" stop-color="#999273"/><stop offset="0.59" stop-color="#6e6953"/><stop offset="0.82" stop-color="#333126"/><stop offset="0.99"/></linearGradient><linearGradient id="_ÂÁ_Ï_ÌÌ_È_ËÂÌÚ_3-6" x1="99.12" y1="310.89" x2="123.05" y2="310.89" gradientTransform="matrix(1, 0, 0, 1, 0, 0)" xlink:href="#_ÂÁ_Ï_ÌÌ_È_ËÂÌÚ_3"/><linearGradient id="_ÂÁ_Ï_ÌÌ_È_ËÂÌÚ_190-2" x1="328.45" y1="228.13" x2="290.15" y2="275.36" gradientTransform="matrix(0.97, 0.01, -0.01, 1, -182.5, 53.7)" xlink:href="#_ÂÁ_Ï_ÌÌ_È_ËÂÌÚ_190"/><linearGradient id="_ÂÁ_Ï_ÌÌ_È_ËÂÌÚ_3-7" x1="22.39" y1="811.2" x2="14.76" y2="826.15" gradientTransform="matrix(1, -0.1, 0.1, 1, -0.13, -569.86)" xlink:href="#_ÂÁ_Ï_ÌÌ_È_ËÂÌÚ_3"/><linearGradient id="_ÂÁ_Ï_ÌÌ_È_ËÂÌÚ_3-8" x1="-3.79" y1="813.82" x2="-10.11" y2="825.14" gradientTransform="matrix(1, -0.1, 0.1, 1, -0.13, -569.86)" xlink:href="#_ÂÁ_Ï_ÌÌ_È_ËÂÌÚ_3"/><linearGradient id="_ÂÁ_Ï_ÌÌ_È_ËÂÌÚ_3-9" x1="5.81" y1="815.61" x2="2.18" y2="826.8" gradientTransform="matrix(1, -0.1, 0.1, 1, -0.13, -569.86)" xlink:href="#_ÂÁ_Ï_ÌÌ_È_ËÂÌÚ_3"/><linearGradient id="_ÂÁ_Ï_ÌÌ_È_ËÂÌÚ_3-10" x1="9.54" y1="816.29" x2="10.29" y2="791.39" gradientTransform="matrix(1, -0.1, 0.1, 1, -0.13, -569.86)" xlink:href="#_ÂÁ_Ï_ÌÌ_È_ËÂÌÚ_3"/><linearGradient id="_ÂÁ_Ï_ÌÌ_È_ËÂÌÚ_5-2" x1="7.13" y1="760.39" x2="12.13" y2="802.92" gradientTransform="matrix(1, -0.1, 0.1, 1, -0.13, -569.86)" xlink:href="#_ÂÁ_Ï_ÌÌ_È_ËÂÌÚ_5"/><linearGradient id="_ÂÁ_Ï_ÌÌ_È_ËÂÌÚ_40-8" x1="11.71" y1="753.37" x2="8.9" y2="818.3" gradientTransform="matrix(1, -0.1, 0.1, 1, -0.13, -569.86)" xlink:href="#_ÂÁ_Ï_ÌÌ_È_ËÂÌÚ_40"/><linearGradient id="_ÂÁ_Ï_ÌÌ_È_ËÂÌÚ_4-6" x1="126.92" y1="143.27" x2="99.23" y2="189.13" xlink:href="#_ÂÁ_Ï_ÌÌ_È_ËÂÌÚ_4"/></defs><title>Hero</title><g class="cls-1"><g id="Layer_1" data-name="Layer 1"><path class="cls-2" d="M177.33,157.65A69.9,69.9,0,0,0,160,168.38c0,9.24,1.27,20,4.68,28.72A89.22,89.22,0,0,0,185.05,190,207.11,207.11,0,0,0,177.33,157.65Z"/><path class="cls-3" d="M197.48,191.1a66.93,66.93,0,0,0-5.9-30.27c-3.67-1.26-14.17-3.21-14.17-3.21l-.08,0a207.11,207.11,0,0,1,7.72,32.3l-.23.12a80.77,80.77,0,0,0,12.49,1.11Z"/><path class="cls-4" d="M184.82,190.07a90.41,90.41,0,0,1-20.15,7c.21.54.4,1.1.62,1.63a84.73,84.73,0,0,0,32-7.55A80.77,80.77,0,0,1,184.82,190.07Z"/><path class="cls-5" d="M199.65,202c-6.57,2.15-12.68,4.43-19.25,6.57a261.61,261.61,0,0,1-8.92,35l22.89-2.43A230.48,230.48,0,0,0,199.65,202Z"/><path class="cls-5" d="M171.48,243.57c1.91,2,4.35,5.45,6.06,7.63,7.79.5,17.53-.15,25-.81a70.73,70.73,0,0,0-8.15-9.25Z"/><path class="cls-6" d="M199.65,202a230.48,230.48,0,0,1-5.28,39.15,70.73,70.73,0,0,1,8.15,9.25c3.95-12.51,5.29-26.93,6.22-40.79A24,24,0,0,0,199.65,202Z"/><path class="cls-7" d="M187.66,239.41a6,6,0,0,1,3.37.2,29.15,29.15,0,0,1,2.69,11.09,16.31,16.31,0,0,1-9.21,6.43,24.52,24.52,0,0,1-11.52-.07,36.4,36.4,0,0,1,1.09-10.34l.1.12c.69-.11,1.34-.39,2-.5.43-1.83.79-3.41,1.22-5.24A37.57,37.57,0,0,1,187.66,239.41Z"/><path class="cls-2" d="M199.65,202c-6.57,2.15-12.68,4.43-19.25,6.57-1.06,6.09-2.82,13.85-4.79,21.24,2.51-.4,9.52-1.52,11-1.79s9.12-1.89,10.66-2.21Q199,214.25,199.65,202Z"/><path class="cls-7" d="M194.81,212.36a8.15,8.15,0,0,1-9,6.75,4,4,0,0,1-1.77-.56c-1.48-1-.65-2.5-.41-3.91.28-1.64.49-3.29.65-4.95a32.08,32.08,0,0,1,10-2.56C194.71,209.08,195.14,210.4,194.81,212.36Z"/><path class="cls-8" d="M199.65,202q-.65,12.25-2.39,23.81l.27-.06a54.65,54.65,0,0,1,5.08,4.55c1.1,1.24,2.74,3.28,3.54,4.28,1.32-8.17,2-16.67,2.59-25A24,24,0,0,0,199.65,202Z"/><path class="cls-7" d="M193.57,210.63a7.27,7.27,0,0,1-3.73,3.52,6.9,6.9,0,0,1-5-.07,73.82,73.82,0,0,0-7.47-19.6,15,15,0,0,1,5.35-2.35A68.8,68.8,0,0,1,193.57,210.63Z"/><path class="cls-4" d="M197.19,226.25l.12-.84h0l-.13,0c-6.25,1.51-13.47,2.87-21.48,4.05-.07.27-.14.55-.22.83C183.57,229.13,190.87,227.77,197.19,226.25Z"/><path class="cls-2" d="M206.24,234c-2.1-2.7-6.15-7.26-8.81-8.55l-.12-.06-.12.84h0c2.77,1.43,7.1,6.51,8.85,8.86Z"/><path class="cls-5" d="M176.32,245.62a8.5,8.5,0,0,0-5.1.46A26.14,26.14,0,0,0,169,257.55c.57.21,1.71.62,1.71.65a15.9,15.9,0,0,0,6.75,1.09,59.54,59.54,0,0,0,.48-12.52Z"/><path class="cls-5" d="M176.08,245.28a23.19,23.19,0,0,1,10.76-1.36c1-1.69,2-3.75,1.59-5.65l-1.46-1.5a21.94,21.94,0,0,0-11.79,2.34,9.31,9.31,0,0,0-.76,4.94Z"/><path class="cls-5" d="M183.09,244.27a12.49,12.49,0,0,0-2.43.28,4.46,4.46,0,0,0-2.2,1,36,36,0,0,0,1.37,13.37l1.5.55a16.69,16.69,0,0,0,7.82-1.89c-.53-4.16-1.91-8.84-4.56-12.13Z"/><path class="cls-9" d="M175.89,258.72a16,16,0,0,1-6.89-1.17,26.14,26.14,0,0,1,2.22-11.47,8.5,8.5,0,0,1,5.1-.46A64.45,64.45,0,0,1,175.89,258.72Zm7.2-14.45a12.49,12.49,0,0,0-2.43.28,4.46,4.46,0,0,0-2.2,1,36,36,0,0,0,1.37,13.37,16.5,16.5,0,0,0,8-1.94C187.24,252.63,185.8,247.73,183.09,244.27Zm3.88-7.5a21.94,21.94,0,0,0-11.79,2.34,9.31,9.31,0,0,0-.76,4.94,23,23,0,0,1,11-1.38C186.41,240.91,187.44,238.76,187,236.77Z"/><path class="cls-4" d="M189.9,227.41l-.38,0a59.7,59.7,0,0,1,1.29-6.89l0-.1.08,0a30.28,30.28,0,0,1,4.87-1.65,66.26,66.26,0,0,0,1.34-15.88h.38a67,67,0,0,1-1.37,16.09l0,.12-.12,0a27.65,27.65,0,0,0-4.83,1.61A57.45,57.45,0,0,0,189.9,227.41Z"/><path class="cls-10" d="M191,207.14a9.09,9.09,0,0,1-2.66,4.79,84.26,84.26,0,0,0-7.68-16.88,6.52,6.52,0,0,1,2.64-1.15A51.75,51.75,0,0,1,191,207.14Z"/><path class="cls-7" d="M181.11,198.23a10.09,10.09,0,0,0,1.71-1.14c.57-.46,1-.89,1-.89s-.55.27-1.21.56-1.43.59-1.84.78Z"/><path class="cls-7" d="M182.82,201.44a5.06,5.06,0,0,0,2-.87,5.14,5.14,0,0,0,1-.95,6,6,0,0,1-1.2.61,8,8,0,0,1-1.91.46Z"/><path class="cls-7" d="M184.28,205.11a9.57,9.57,0,0,0,2.53-1.24,10.39,10.39,0,0,0,1.43-1.15,13,13,0,0,1-1.61.82,18,18,0,0,1-2.55.83Z"/><path class="cls-7" d="M185.87,208.65a9.67,9.67,0,0,0,2.48-1.69,10.16,10.16,0,0,0,1.3-1.46,13,13,0,0,1-1.53,1.16,16.54,16.54,0,0,1-2.56,1.29Z"/><path class="cls-11" d="M207.75,209.59a146,146,0,0,1-5.93,38,19.29,19.29,0,0,0-4-4.6,177,177,0,0,0,5.14-30.31,17.19,17.19,0,0,0-2.6-2.86c.09-2,.15-4,.24-6A37.75,37.75,0,0,1,207.75,209.59Z"/><path class="cls-4" d="M175.85,236.45c-.71.09-1.41.16-2.1.19v-.38a24.54,24.54,0,0,0,6.57-1.24,20.65,20.65,0,0,0,1.88-6.17l.38.05a21.09,21.09,0,0,1-1.95,6.36l0,.07-.07,0A24.72,24.72,0,0,1,175.85,236.45Z"/><path class="cls-2" d="M196.85,182.28c-1.41-.64-2.83-1.3-4.24-2s-2.84-1.33-4.26-2l-.28-.12,0-.31a119.1,119.1,0,0,0-4-18.57l1.06-.32a119.56,119.56,0,0,1,4,18.44c1.33.6,2.66,1.22,4,1.84s2.82,1.32,4.23,1.95Z"/><path class="cls-12" d="M189.84,165.7a91.57,91.57,0,0,1,6.78,23.56c-.35-9.57-2-19.27-5.7-27.53a126.94,126.94,0,0,0-12.43-3.13,76.61,76.61,0,0,1,11.19,6.66Z"/><path class="cls-13" d="M140.56,135.55l.86,19.57,12.09.83,2.92-20S146.43,134,140.56,135.55Z"/><polygon class="cls-14" points="140.89 136.4 134.84 136.4 131.13 154.25 141.5 156.41 140.89 136.4"/><path class="cls-15" d="M99.81,189.52l.57,6a31.56,31.56,0,0,0,18.77,2c5-11.49,7.49-23.84,6.11-36.31C113.37,167.15,98.56,176.32,99.81,189.52Z"/><path class="cls-16" d="M144,152.4c.71-.57,1.57-.67,1.92-.24s.06,1.26-.65,1.83-1.57.68-1.92.24S143.27,153,144,152.4Z"/><path class="cls-17" d="M201.15,342a59.13,59.13,0,0,1-12.51,2.81,104,104,0,0,1-36.45-3.21,327.55,327.55,0,0,1,3-58.88,97.06,97.06,0,0,1,19-8.69,39.81,39.81,0,0,1,9.13,8.1S197.73,311.68,201.15,342Z"/><path class="cls-18" d="M126.59,347.5c-9.54,2-17.22,4.06-29.53,4.12-6.23-1.37-12.81-3.24-18.92-5.06a228,228,0,0,1,17.38-59.1s6.24-7.52,10.27-10a73.49,73.49,0,0,1,20.47,9C126.7,287,127.75,327.16,126.59,347.5Z"/><path class="cls-4" d="M102.11,204.68c15.85,5.41,34.23,5.85,48.4,5.07,6-.67,12-3.24,17.38-5.84-11.72-.67-25.39-.91-41.23-3C116.16,202.18,110.66,203.5,102.11,204.68Z"/><path class="cls-2" d="M124.15,150a145.6,145.6,0,0,0-24.8,8.62c-1.43,14.84-.89,31.57,2.67,46.05l.09,0c8.48-1.17,14-2.48,24.28-3.77A191,191,0,0,1,124.15,150Z"/><path class="cls-19" d="M124.3,150l-.15,0a191,191,0,0,0,2.24,50.93l.27,0c15.84,2.12,29.51,2.36,41.23,3l.28-.13c6.31-14.22,11.72-30.85,13.07-46.36C181.33,157.47,147.33,149.15,124.3,150Z"/><path class="cls-20" d="M179.79,159.35a205.94,205.94,0,0,1-12.69,43.09,173.28,173.28,0,0,1-28.72-1c8.66-.32,17.65-.52,26.31-.84a332.8,332.8,0,0,0,11.5-37.07,5,5,0,0,0-2.12-.34c.23-1.64.38-3.3.61-4.94a29.57,29.57,0,0,1,4.87,1C179.4,159.26,179.94,159.29,179.79,159.35Z"/><path class="cls-2" d="M152.31,197.11c-9.78,0-17.75-8.93-17.75-19.9s8-19.89,17.75-19.89,17.75,8.92,17.75,19.89S162.1,197.11,152.31,197.11Z"/><path class="cls-21" d="M153.16,195.23c-9,0-16.32-8.29-16.32-18.47s7.32-18.47,16.32-18.47,16.32,8.29,16.32,18.47S162.16,195.23,153.16,195.23Z"/><ellipse class="cls-2" cx="155.12" cy="176.66" rx="11.72" ry="13.59"/><path class="cls-22" d="M153.16,164.17a10.2,10.2,0,0,0-4,.88,14,14,0,0,0-5.72,11.61c0,7.51,5.24,13.59,11.71,13.59a10.21,10.21,0,0,0,4-.88,14.06,14.06,0,0,0,5.72-11.61C164.88,170.25,159.63,164.17,153.16,164.17Z"/><path class="cls-23" d="M155.71,178.17a13.12,13.12,0,0,0,8,1.06c0-.48.08-1,.08-1.46,0-6.91-4.77-12.54-10.62-12.54a8.94,8.94,0,0,0-3.44.73,11.07,11.07,0,0,0-2,1.86C148.31,172.18,150.3,175.67,155.71,178.17Z"/><path class="cls-24" d="M162.12,133.87l1.17,0a25.76,25.76,0,0,0,1.34-6.74,6.19,6.19,0,0,1,2.22,2,51.36,51.36,0,0,1-5.46,18,95.91,95.91,0,0,1-34.59-1.82,57.4,57.4,0,0,1-10.42-22.18,18.45,18.45,0,0,1,4.65-4.16,57.41,57.41,0,0,0,8.18,13,42.72,42.72,0,0,0,11.43,1.23,83,83,0,0,0,3.11-9.11,49.21,49.21,0,0,1,17.07,1.93A46.92,46.92,0,0,1,162.12,133.87Z"/><path class="cls-25" d="M165.52,129.27a21.78,21.78,0,0,1-1.22,5.11l-.31.69-3-.13,0-1a39.06,39.06,0,0,0-1-6.47l-.09-.44a47.65,47.65,0,0,0-13.13-1.78c-.71,0-1.43,0-2.15,0a78.12,78.12,0,0,1-2.95,8.49l-.28.65h-.14c.83,2.42,1.5,5,2.39,7.08.76,1.8,1.49,3.58,2.18,5.38,1.16,0,2.32.07,3.48.07a86.69,86.69,0,0,0,11.38-.73,49.9,49.9,0,0,0,5-16.71C165.64,129.41,165.59,129.34,165.52,129.27Z"/><path class="cls-16" d="M129.21,132.06a57.41,57.41,0,0,1-8.18-13l3.38,1.37a32.7,32.7,0,0,0,6.48,11c3,.34,6.12.52,9.18.58a48.85,48.85,0,0,0,3-8.63,43.55,43.55,0,0,1,17.61,1.92,6.51,6.51,0,0,1,.13.77,49.14,49.14,0,0,0-17-1.92,85.27,85.27,0,0,1-3.11,9.11A42.72,42.72,0,0,1,129.21,132.06Zm35.42-4.88h-1.27a25.36,25.36,0,0,1-1.24,6.69l1.17,0A25.91,25.91,0,0,0,164.63,127.18Z"/><path class="cls-26" d="M124.41,120.43a32.7,32.7,0,0,0,6.48,11c3,.34,6.12.52,9.18.58a48.85,48.85,0,0,0,3-8.63,43.55,43.55,0,0,1,17.61,1.92,6.51,6.51,0,0,1,.13.77h0a46.92,46.92,0,0,1,1.3,7.76h0a25.36,25.36,0,0,0,1.24-6.69h.26a63.93,63.93,0,0,0-.69-20.38c-8.93-2.23-18.32-3.69-28.47-2.35a101.71,101.71,0,0,0-11,7.39,27.36,27.36,0,0,0-.17,8.13Z"/><path class="cls-27" d="M134.84,105.31a82,82,0,0,1,27.28,2.28c1.42,5.78,1.22,12.31.46,19.09-.53-6.25-1-12.53-2.42-16.61C154,107.85,144.77,106.48,134.84,105.31Z"/><path class="cls-2" d="M134.46,104.45a101.71,101.71,0,0,0-11,7.39,27.36,27.36,0,0,0-.17,8.13l1.13.46a32.7,32.7,0,0,0,6.48,11c1.31.14,2.63.25,4,.34A156.14,156.14,0,0,1,134.46,104.45Z"/><path class="cls-28" d="M134.84,108.35a229.17,229.17,0,0,0,28.33,3l.38,8s-.79,2.7-11.75,1.94c-11.62-.81-17-4.92-17-4.92Z"/><polygon class="cls-29" points="147.71 116.56 139.8 115.58 140.31 111.33 148.56 113.24 147.71 116.56"/><polygon class="cls-29" points="153.63 117.22 160.35 117.17 160.33 113.56 153.25 114.36 153.63 117.22"/><path class="cls-30" d="M120.51,236.15A174.19,174.19,0,0,0,119.38,207a54.64,54.64,0,0,1,35.11-.36,134.84,134.84,0,0,1-2,31.35A59.92,59.92,0,0,1,120.51,236.15Z"/><path class="cls-31" d="M121.29,211c.69,5.87,1.67,12.11,2.36,18a50.18,50.18,0,0,0,16.74,2.13,13.62,13.62,0,0,0,.41-4.23c-1.9-1.44-3.91-3.15-5.81-4.59,1.95.11,3.93,0,5.88.07l.23.66a23.54,23.54,0,0,0,.24-7.24c-2-.9-4.26-3.08-5.93-4.82,1.81.08,3.68-.14,5.49-.06-.19-1.41-.37-2.82-.55-4.22C133.81,206.12,127.75,208.54,121.29,211Z"/><path class="cls-16" d="M122.36,215.21l1.2-.29c.78-.21,1.89-.46,3.27-.75a81.1,81.1,0,0,1,10.76-1.47,78.55,78.55,0,0,1,10.73,0c1.37.1,2.48.21,3.25.31l1.19.13-1.15-.39a31.44,31.44,0,0,0-3.19-.88,37.67,37.67,0,0,0-10.79-.87,40.49,40.49,0,0,0-10.86,2.32c-1.37.5-2.48,1-3.23,1.31Z"/><path class="cls-16" d="M124.75,221.44a73.19,73.19,0,0,0,13.47,1.86,74.44,74.44,0,0,0,13.65-.65s-6.06-.68-13.53-1S124.75,221.44,124.75,221.44Z"/><path class="cls-16" d="M123.79,228.77s1.45.55,3.85,1.21a57.49,57.49,0,0,0,19.12,2c2.47-.16,4-.39,4-.39l-13.49-1.45Z"/><path class="cls-7" d="M169.76,279a101.87,101.87,0,0,0-22.57-22.74,14.81,14.81,0,0,0-5.69,3.54,98.15,98.15,0,0,1,18.38,24.74C164,283.77,167.53,282.6,169.76,279Z"/><path class="cls-32" d="M120.86,233a201.29,201.29,0,0,0,4.71,26.38c3,.21,6.31.45,9.26.86.55,2.67,1,5.43,1.38,8.17a81.91,81.91,0,0,0,10.5-.68,23.53,23.53,0,0,0,4.55-6.82,25.14,25.14,0,0,1,6.1-2,52,52,0,0,0,7-25.35Q142.69,232.55,120.86,233Z"/><path class="cls-33" d="M129.93,232.9l2.85,16.15s6.11,1.51,10.32,1.12,8.59-.82,8.59-.82a36.7,36.7,0,0,0,2.28-7.93c.63-4.14,1.48-8.2,1.48-8.2Q142.4,232.79,129.93,232.9Z"/><path class="cls-5" d="M125.57,259.38A201.29,201.29,0,0,1,120.86,233q-8.81.18-17.66.57a65.58,65.58,0,0,0,6.13,23.73l9.41.93a56.79,56.79,0,0,1,5.21,9.36,88.18,88.18,0,0,0,12.26.82c-.37-2.74-.83-5.5-1.38-8.17C131.88,259.83,128.61,259.59,125.57,259.38Z"/><path class="cls-4" d="M155,233.21a108.81,108.81,0,0,1-3.64,15.89,50.92,50.92,0,0,1-18.25-.24l-2.71-16h-.84l2.82,16.67.28.05a52.59,52.59,0,0,0,10.26,1,50.32,50.32,0,0,0,8.83-.78l.25,0,.08-.24a109.61,109.61,0,0,0,3.76-16.34Z"/><path class="cls-34" d="M146.32,266.48a16.14,16.14,0,0,0,4.24-7.08c1.89-.72,4.06-1.32,5.95-2A60.39,60.39,0,0,0,162.35,236,297.12,297.12,0,0,0,123,234.67c11.28,1.78,22.84,3.92,34.11,5.7a31.72,31.72,0,0,1-3.25,15.24c-1.51.82-3.51,1.51-5,2.33C147.78,260.5,147.38,263.91,146.32,266.48Z"/><path class="cls-7" d="M119.32,283.46a78.94,78.94,0,0,1,4.34-24.61c-2.45-.3-5.77-.87-8.42-1a64,64,0,0,0-9.74,25C109.79,284.31,115.15,285.19,119.32,283.46Z"/><path class="cls-5" d="M175.38,337.69A38.82,38.82,0,0,1,158,336.27a326.54,326.54,0,0,1-.94-54.34,2.69,2.69,0,0,0,0-.29c-.62.34-1.24.69-1.84,1a327.55,327.55,0,0,0-3,58.88,104.82,104.82,0,0,0,32,3.52,132.63,132.63,0,0,0,1.24-24.7A55.05,55.05,0,0,0,175.38,337.69Z"/><path class="cls-35" d="M202.75,341.67a38.85,38.85,0,0,1-2,6.48,105.91,105.91,0,0,1-24.14-3.34c1.33-8.15,4.91-17.12,8.9-24.35C199.15,326.9,202.75,341.67,202.75,341.67Z"/><path class="cls-5" d="M93.89,350.86a242.09,242.09,0,0,1,8.29-26.76,52.15,52.15,0,0,0-12.32,12.26,315.22,315.22,0,0,1,14.38-58.93,77.15,77.15,0,0,0-8.72,9.05,234.16,234.16,0,0,0-17.38,60C83.23,348,88.63,349.58,93.89,350.86Z"/><path class="cls-36" d="M116.58,349.59c-1.79-10.91-6.37-18.85-14.16-26.37-7.45,7.11-13.33,15.59-14.76,26,3.53,3.88,11.91,5.73,11.91,5.73S111.07,353.56,116.58,349.59Z"/><path class="cls-16" d="M99.17,354.88a106.45,106.45,0,0,1,3.07-31.48c-7.37,7.08-13.16,15.49-14.58,25.85C90.73,352.63,97.46,354.46,99.17,354.88Z"/><path class="cls-16" d="M176.62,344.81a105.91,105.91,0,0,0,24.14,3.34c.09-.18.18-.38.26-.59a102.5,102.5,0,0,0-15.81-26.51C181.35,328.18,177.92,336.87,176.62,344.81Z"/><path class="cls-10" d="M117.63,278.75a32.45,32.45,0,0,0-6.22-2.49,43.22,43.22,0,0,1,5.25-16.59,8.21,8.21,0,0,1,4.6,2.95,37.92,37.92,0,0,0-3.27,15.7C118,278,117.65,279,117.63,278.75Z"/><path class="cls-10" d="M165.55,275.52a8.59,8.59,0,0,0-4.21,1.65,116.45,116.45,0,0,0-10.28-12.83,6.59,6.59,0,0,1,1.8-2.09C157,266.21,161.84,271.17,165.55,275.52Z"/><path class="cls-7" d="M114.37,263.24a22.16,22.16,0,0,1,2.32.75,11.19,11.19,0,0,1,1.49.73,8.72,8.72,0,0,0-1.2-1.2,7.4,7.4,0,0,0-2.27-1.34Z"/><path class="cls-7" d="M112.18,268.19a8.45,8.45,0,0,1,3.16.68,7.37,7.37,0,0,1,1.88,1.21,6.54,6.54,0,0,0-1.6-1.68,6.47,6.47,0,0,0-3.39-1.32Z"/><path class="cls-7" d="M111.08,273.24a11,11,0,0,1,3.08.67,8.8,8.8,0,0,1,1.89,1,7.7,7.7,0,0,0-4.85-2.8Z"/><path class="cls-7" d="M155.87,271.43c.37-.3,1-.93,1.54-1.44s1.08-.92,1.08-.92a12.91,12.91,0,0,0-1.37.45,8.1,8.1,0,0,0-2,1Z"/><path class="cls-7" d="M151.86,267.56a24.94,24.94,0,0,0,2.79-2.13,26.31,26.31,0,0,0-3.31,1.15Z"/><path class="cls-7" d="M158.77,275.4c.51-.33,1.41-1,2.25-1.46a16.83,16.83,0,0,1,1.61-.84,12.4,12.4,0,0,0-1.82.32,10.21,10.21,0,0,0-2.63,1Z"/><path class="cls-5" d="M163.76,316.17l-.16-.86a158.66,158.66,0,0,1-2.37-30.84l1.12,0a156.22,156.22,0,0,0,2.2,29.76,97.59,97.59,0,0,1,20-10.57l.21-.09.21.09a31.14,31.14,0,0,1,10.72,7.86l-.83.73a30.12,30.12,0,0,0-10.11-7.47,95.27,95.27,0,0,0-20.29,10.86Z"/><path class="cls-37" d="M174.22,274l-.17.06a339.51,339.51,0,0,1,13.71,43.74L198.59,327a225.74,225.74,0,0,0-15.24-44.86A40.06,40.06,0,0,0,174.22,274Z"/><path class="cls-38" d="M213.83,212.11a1.32,1.32,0,0,0-.6-1.84,1.52,1.52,0,0,0-1.85.89A1.32,1.32,0,0,0,212,213,1.52,1.52,0,0,0,213.83,212.11Z"/><path class="cls-39" d="M121.91,344.1c-1.85.23-4,.45-5.87.69A61.32,61.32,0,0,0,99.12,317,380.29,380.29,0,0,1,103.93,277a50.27,50.27,0,0,1,18.35,8A458.53,458.53,0,0,1,121.91,344.1Z"/><path class="cls-40" d="M121.91,344.18c-1.85.23-4,.46-5.87.69A61.32,61.32,0,0,0,99.12,317a380.29,380.29,0,0,1,4.81-39.95,50.27,50.27,0,0,1,18.35,8A458.52,458.52,0,0,1,121.91,344.18Z"/><path class="cls-5" d="M114.91,315.06l-.58-.44c-1.74-1.33-7-5.35-11.09-6.33A51.18,51.18,0,0,0,93,314.6l-.71-.84a52.31,52.31,0,0,1,10.65-6.55l.17-.08.19,0c3.69.8,8,3.77,11.14,6.13,3.79-9.28,6-19.94,7.53-28.25l1.09.19c-1.56,8.57-3.87,19.62-7.86,29.15Z"/><path class="cls-38" d="M210.32,205.78a1.32,1.32,0,0,0-.6-1.84,1.52,1.52,0,0,0-1.86.88,1.33,1.33,0,0,0,.6,1.84A1.53,1.53,0,0,0,210.32,205.78Z"/><path class="cls-4" d="M97.49,176.2a111.53,111.53,0,0,0-26.7,1.61c4.3,4.4,9.16,8.88,13.87,12.83,0,0,19.51,2.42,28.29.22A98.41,98.41,0,0,0,97.49,176.2Z"/><path class="cls-41" d="M100.18,237.7h0A34.83,34.83,0,0,1,98.61,248a22.74,22.74,0,0,1-6.06,1s0,0,0,0l.83,1.28a19.91,19.91,0,0,0,5.94-.82,21.33,21.33,0,0,0,1.56-10.62C100.82,238.45,100.39,238.06,100.18,237.7Z"/><path class="cls-5" d="M98.61,248a34.83,34.83,0,0,0,1.54-10.29,23.66,23.66,0,0,0-5,1.05A77.69,77.69,0,0,1,92.55,249,22.74,22.74,0,0,0,98.61,248Z"/><path class="cls-7" d="M76.75,238.23a27.91,27.91,0,0,0-1.55,5.06,80.93,80.93,0,0,1,3,7.82,5.25,5.25,0,0,1-4.92,1.68c-1.9-3-4.39-9.77-4.39-9.77A15.19,15.19,0,0,1,71,238,15.54,15.54,0,0,1,76.75,238.23Z"/><path class="cls-5" d="M66.39,243.51a19.3,19.3,0,0,0,6.14,12,9,9,0,0,0,4.58-.74l.06-.11a73.53,73.53,0,0,1-4.94-11.5A23.34,23.34,0,0,1,66.39,243.51Z"/><path class="cls-42" d="M73.07,241.77a26.89,26.89,0,0,1-5.72.58c-.23.22-.73.92-1,1.14v0a23.34,23.34,0,0,0,5.84-.37,73.53,73.53,0,0,0,4.94,11.5l.63-1.15A84.21,84.21,0,0,1,73.07,241.77Z"/><path class="cls-7" d="M86.2,236.38a27.48,27.48,0,0,0-.36,5.28c1.7,2.19,3.17,4.61,4.64,7a5.24,5.24,0,0,1-4.41,2.75c-2.53-2.5-6.49-8.52-6.49-8.52a15.22,15.22,0,0,1,1-5.34A15.6,15.6,0,0,1,86.2,236.38Z"/><path class="cls-5" d="M77.3,243.87A19.29,19.29,0,0,0,86,254.15a9,9,0,0,0,4.29-1.76l0-.12a72.61,72.61,0,0,1-7.42-10.08A23.4,23.4,0,0,1,77.3,243.87Z"/><path class="cls-43" d="M83.42,240.66A27,27,0,0,1,78,242.53c-.17.26-.5,1.06-.67,1.32v0a23.4,23.4,0,0,0,5.61-1.68,72.61,72.61,0,0,0,7.42,10.08l.35-1.26A82.55,82.55,0,0,1,83.42,240.66Z"/><path class="cls-7" d="M94.11,233.14a23,23,0,0,1,4.56,6.79,18.73,18.73,0,0,1-1,7.42,19.86,19.86,0,0,1-4.54.76,5.87,5.87,0,0,1-1.17-1.63,27.05,27.05,0,0,0,.84-4.88,29.22,29.22,0,0,0-2.94-6.25A19.41,19.41,0,0,1,94.11,233.14Z"/><path class="cls-7" d="M87,202a57.76,57.76,0,0,1,10.09-15.51A5.37,5.37,0,0,0,95.82,183a5,5,0,0,0-3.19-1.7,42.91,42.91,0,0,0-9,12.35C83.66,196.69,85.29,199.56,87,202Z"/><path class="cls-5" d="M77,187.17c-5.58,1.33-11,3.79-16.22,6.17a148.09,148.09,0,0,0,5.39,45.4,55.61,55.61,0,0,0,22.49-2.39c-4.76-16-9.14-32.68-11.54-49.17Z"/><path class="cls-2" d="M85.81,226.66a318.52,318.52,0,0,1-8.74-39.48H77c-5.58,1.33-11,3.79-16.22,6.17a150.32,150.32,0,0,0,.32,16.58l5.14-1.3S67,214.73,68,218.76,70.53,229,70.53,229a40.46,40.46,0,0,0,5.84-.29c3-.39,9.44-2,9.44-2Z"/><path class="cls-44" d="M96.83,232.07c-3.77-14.18-8.65-29.36-11.48-43.76-2.48-.45-7.49-1-8.28-1.13,2.4,16.49,6.78,33.14,11.54,49.17l.19-.06S94.29,233.72,96.83,232.07Z"/><path class="cls-45" d="M77.07,187.18a318.52,318.52,0,0,0,8.74,39.48,44.16,44.16,0,0,0,4.57-1.9c1.15-.59,2.78-1.57,3.83-2.21-3.21-11.32-6.66-23-8.86-34.24C82.87,187.86,77.86,187.27,77.07,187.18Z"/><path class="cls-2" d="M94.3,222.9l-.15-.56a34.91,34.91,0,0,1-8.4,4.11l.15.53h0A35.26,35.26,0,0,0,94.3,222.9Z"/><path class="cls-4" d="M85.74,226.45a51.39,51.39,0,0,1-15,2.27,150,150,0,0,1-4.31-20.15l0-.29-.29.05A30.73,30.73,0,0,0,61,209.7c0,.19,0,.38,0,.57a30.31,30.31,0,0,1,4.85-1.34,154.5,154.5,0,0,0,4.35,20.14l0,.2h.21a46.56,46.56,0,0,0,5.09-.24A51.91,51.91,0,0,0,85.9,227l-.15-.53Z"/><path class="cls-46" d="M78.89,218.48c-.09-.36-.19-.72-.28-1.08-2.42.55-4.87,1-7.31,1.41l.24,1C74,219.51,76.47,219.05,78.89,218.48Z"/><path class="cls-46" d="M77.86,214.38c-.08-.35-.17-.71-.25-1.07q-3.57.74-7.13,1.5c.06.34.12.68.19,1C73.07,215.39,75.48,214.9,77.86,214.38Z"/><path class="cls-46" d="M78.36,216.44l-.27-1.09c-2.39.52-4.81,1-7.23,1.46.07.35.14.69.22,1C73.51,217.46,76,217,78.36,216.44Z"/><path class="cls-46" d="M69.88,210.73c0,.36.09.71.14,1.06,2.29-.55,4.62-1,7-1.51-.07-.37-.15-.73-.21-1.1C74.45,209.61,72.15,210.13,69.88,210.73Z"/><path class="cls-46" d="M77.4,212.34l-.24-1.09c-2.35.47-4.7,1-7,1.53,0,.35.11.7.16,1.05C72.67,213.32,75,212.83,77.4,212.34Z"/><path class="cls-46" d="M73.41,224.75l-.48,0c.15.48.3,1,.46,1.46a71.41,71.41,0,0,0,7.39-1.3l-.45-1.47A43,43,0,0,1,73.41,224.75Z"/><path class="cls-46" d="M76.58,208.2l-.27-1.54a68.17,68.17,0,0,0-6.66,1.66c0,.47.08.94.13,1.41C72,209.14,74.3,208.63,76.58,208.2Z"/><path class="cls-46" d="M79.45,220.51c-.1-.36-.19-.72-.29-1.08a74.05,74.05,0,0,1-7.37,1.37l.27,1A54.75,54.75,0,0,0,79.45,220.51Z"/><path class="cls-46" d="M80,222.53c-.1-.36-.2-.71-.31-1.07a54.64,54.64,0,0,1-7.4,1.33l.3,1A43.35,43.35,0,0,0,80,222.53Z"/><path class="cls-10" d="M88.18,197.54A53.77,53.77,0,0,1,96.3,185.9a3.14,3.14,0,0,0-2.09-2.17,38,38,0,0,0-7.09,8.78S87.76,196.07,88.18,197.54Z"/><path class="cls-7" d="M91.7,184.56a12.14,12.14,0,0,1,1.36,1.89,9.57,9.57,0,0,1,.66,1.44,7.4,7.4,0,0,0-.32-1.58,7.2,7.2,0,0,0-1.14-2.21Z"/><path class="cls-7" d="M89.72,186.74a11.12,11.12,0,0,1,1.62,1.69,8.61,8.61,0,0,1,.84,1.35,7,7,0,0,0-.53-1.54,6.65,6.65,0,0,0-1.45-2Z"/><path class="cls-7" d="M87.64,189.41a12.26,12.26,0,0,1,1.86,1.7,9.12,9.12,0,0,1,1,1.38,8,8,0,0,0-.7-1.59,7.36,7.36,0,0,0-1.71-2.06Z"/><path class="cls-47" d="M95.58,231.48a8.63,8.63,0,0,1-3.12,1.77c-4-12-7.43-24.65-10.67-37.67-1-.41-1.73-1-2.71-1.45-.43-2-.77-4-1-6.06a23.8,23.8,0,0,1,6.4.8C88,203.17,91.46,217.61,95.58,231.48Z"/><path class="cls-4" d="M75.34,234.64c-.34,0-.67,0-1,0h-.12l0-.11a31.18,31.18,0,0,1-1.42-5.55l.35-.06a31.07,31.07,0,0,0,1.37,5.37,21.38,21.38,0,0,0,6.11-.66,41.83,41.83,0,0,1-.83-5.32h.36a45.83,45.83,0,0,0,.86,5.43l0,.17-.17,0A22.93,22.93,0,0,1,75.34,234.64Z"/><path class="cls-4" d="M63.92,209a25.72,25.72,0,0,1-.6-7.32v-.15l.13-.07a30.62,30.62,0,0,1,8.1-3.14,33.51,33.51,0,0,1-.75-9.22l.54,0a33.37,33.37,0,0,0,.79,9.33l.06.27-.26.06a29.56,29.56,0,0,0-8.08,3.06,25.09,25.09,0,0,0,.6,7Z"/><path class="cls-4" d="M75,194.14l-.37-2.78a28.3,28.3,0,0,0-5.65,2,11.2,11.2,0,0,0,.21,2.52C70.69,195.37,73.17,194.6,75,194.14Z"/><path class="cls-48" d="M74.66,194l-.28-2.07a21.47,21.47,0,0,0-4.21,1.48,8.43,8.43,0,0,0,.15,1.88C71.46,194.88,73.31,194.31,74.66,194Z"/><path class="cls-4" d="M78.76,230c.07.75.17,1.51.3,2.24a17.63,17.63,0,0,1-4.1.43,9.26,9.26,0,0,1-.63-2.06A22,22,0,0,0,78.76,230Z"/><path class="cls-48" d="M77.08,232.08a16.42,16.42,0,0,1-1.73.09,10.55,10.55,0,0,1-.42-1.35c.33,0,.66,0,1-.07a22,22,0,0,0,2.68-.43c0,.54.12,1,.2,1.5A15.63,15.63,0,0,1,77.08,232.08Z"/><path class="cls-4" d="M64.93,234.25l-.07-.36,3.09-.6a95.15,95.15,0,0,1-3.19-15.12l-2.82.54-.06-.36,3.2-.6,0,.19a93.81,93.81,0,0,0,3.26,15.44l0,.19Z"/><path class="cls-2" d="M84.84,144.15a95.66,95.66,0,0,0-14.08,33.63l0,0a112.38,112.38,0,0,1,26.36-1.63,141.76,141.76,0,0,0,15.76-34.49A86.23,86.23,0,0,0,84.84,144.15Z"/><path class="cls-49" d="M113.2,141.71l-.29,0a141.76,141.76,0,0,1-15.76,34.49l.34,0A98.41,98.41,0,0,1,113,190.86l.24-.06a112.27,112.27,0,0,0,13.24-38.7C122.78,147.9,113.2,141.71,113.2,141.71Z"/><path class="cls-4" d="M85.47,166.67l.42-.92a70.65,70.65,0,0,0,3.37-8.66A43.8,43.8,0,0,0,77.13,159l-.31-1.07A45.16,45.16,0,0,1,90,156h.75l-.21.72a65,65,0,0,1-3.23,8.63,71,71,0,0,1,15.82-.33l-.12,1.11a70.49,70.49,0,0,0-16.54.44Z"/></g></g></svg>