<?xml version="1.0" encoding="utf-8"?>
<!-- Generator: Adobe Illustrator 22.0.0, SVG Export Plug-In . SVG Version: 6.00 Build 0)  -->
<svg version="1.1" id="Layer_1" xmlns="http://www.w3.org/2000/svg" xmlns:xlink="http://www.w3.org/1999/xlink" x="0px" y="0px"
	 viewBox="0 0 245.9 350.1" style="enable-background:new 0 0 245.9 350.1;" xml:space="preserve">
<style type="text/css">
	.st0{fill:#C7C7C7;}
	.st1{fill:#2A3E51;}
	.st2{fill:#D7D7D7;}
	.st3{fill:url(#SVGID_1_);}
	.st4{fill:url(#SVGID_2_);}
	.st5{fill:#AEAEAF;}
	.st6{fill:#477087;}
	.st7{fill:url(#SVGID_3_);}
	.st8{fill:#4B6D73;}
	.st9{opacity:0.65;fill:#C7C7C7;}
	.st10{fill:url(#SVGID_4_);}
	.st11{fill:#D3D3D3;}
	.st12{fill:url(#SVGID_5_);}
	.st13{fill:url(#SVGID_6_);}
	.st14{fill:url(#SVGID_7_);}
	.st15{fill:url(#SVGID_8_);}
	.st16{fill:url(#SVGID_9_);}
	.st17{fill:url(#SVGID_10_);}
	.st18{fill:#99999A;}
	.st19{fill:url(#SVGID_11_);}
	.st20{fill:url(#SVGID_12_);}
	.st21{fill:#C62026;}
	.st22{fill:url(#SVGID_13_);}
	.st23{fill:url(#SVGID_14_);}
	.st24{fill:url(#SVGID_15_);}
	.st25{fill:url(#SVGID_16_);}
	.st26{fill:url(#SVGID_17_);}
	.st27{fill:url(#SVGID_18_);}
	.st28{fill:url(#SVGID_19_);}
	.st29{fill:url(#SVGID_20_);}
	.st30{fill:url(#SVGID_21_);}
	.st31{fill:#EFEFEF;}
	.st32{fill:url(#SVGID_22_);}
	.st33{opacity:0.85;fill:#FFF7CD;enable-background:new    ;}
	.st34{fill:url(#SVGID_23_);}
	.st35{fill:#3C5A5F;}
</style>
<path class="st0" d="M185.7,42.9c-3.7,0-8.9,0.2-15.3,0.5c0-0.5,0-0.9,0.1-1.4c0-0.6,0-1.1,0.1-1.6c6.1-0.9,9.6-1.5,9.6-1.7
	s-3.5,0-9.6,0.6c0-0.4,0-0.7,0-1c0-0.9-0.1-1.4-0.2-1.4c-0.1,0-0.3,0.5-0.5,1.3c-0.1,0.3-0.1,0.7-0.2,1.2c-1.9,0.2-4,0.4-6.3,0.6
	c0.2-4.5,0.2-7,0-7.1c-0.2,0-0.6,2.5-1.2,7.2h-0.1c-5.6,0.6-12.3,1.3-19.7,2.2s-15.6,1.9-24.1,2.9c-8.6,1.1-16.7,2.1-24.1,3.1
	c-7.4,1-14.1,1.9-19.7,2.6c-11.2,1.5-18.1,2.6-18.1,2.9c0,0.3,7-0.3,18.2-1.5c5.6-0.6,12.3-1.3,19.7-2.2c7.4-0.9,15.6-1.9,24.1-2.9
	c8.6-1.1,16.7-2.1,24.1-3.1c7.3-1,13.9-1.8,19.5-2.6c-0.1,0.7-0.2,1.5-0.3,2.3c-5.4,0.4-11.3,0.8-17.6,1.4
	c-9.4,0.8-19.6,1.9-30.4,3.1c-10.8,1.2-21,2.4-30.4,3.4c-9.3,1.1-17.7,2-24.8,2.8c-3.8,0.4-7.1,0.8-10.1,1.1
	c-0.1-1.1-0.2-2.2-0.3-3.1c-0.6-5.6-1.1-8.7-1.3-8.6c-0.2,0-0.2,3.1,0,8.8c0,1,0.1,2.1,0.1,3.2c-1.9,0.2-3.6,0.4-5.1,0.6
	c-0.8,0.1-1.5,0.2-2.2,0.3c0-0.1,0-0.2-0.1-0.3c-0.2-1.2-0.4-2.1-0.6-2.8c-0.2-0.6-0.4-1-0.5-1s-0.2,0.4-0.2,1.1c0,0.7,0,1.6,0,2.8
	c0,0.1,0,0.3,0,0.4c-1.7,0.3-2.6,0.5-2.6,0.7s0.9,0.3,2.7,0.3c0,1.2,0.1,2.5,0.2,4c-2.3,0.3-4.4,0.6-6.3,0.9
	c-4.8,0.7-7.7,1.2-7.7,1.5s3,0.2,7.8-0.1c1.8-0.1,3.9-0.3,6.2-0.5c0,0.7,0.1,1.4,0.1,2.1c0.2,3.6,0.5,6.9,0.7,9.2
	c0.2,2.4,0.4,3.8,0.7,3.8c0.2,0,0.5-1.5,0.6-3.9s0-5.7-0.2-9.3c0-0.7-0.1-1.5-0.1-2.2c0.2,0,0.3,0,0.5,0c2-0.2,4.1-0.4,6.3-0.7
	c0.2,4,0.4,8.6,0.7,13.6c1,20.1,2.6,47.8,4.7,78.3c2.1,30.6,4.2,58.2,6.1,78.2c0,0.3,0.1,0.7,0.1,1c-0.5,0.1-1,0.1-1.4,0.2
	c-0.3-3.2-0.6-6.8-1-10.8c-1.4-15.1-3.3-36-5.3-59.1c-1-11.5-1.9-22.6-2.7-32.6s-1.5-19-2-26.6c-1.1-15.2-1.6-24.5-1.8-24.5
	c-0.1,0-0.2,2.4-0.1,6.6c0.1,4.3,0.3,10.4,0.7,18s0.9,16.6,1.6,26.7c0.7,10,1.6,21.1,2.6,32.6c2,23.1,4.1,44,5.8,59.1
	c0.4,4,0.9,7.7,1.2,10.8c-0.4,0.1-0.8,0.1-1.2,0.2c-1.4,0.2-2.7,0.4-3.7,0.6c-1.1,0.2-1.9,0.4-2.5,0.7c-0.6,0.2-0.9,0.4-0.9,0.5
	s0.4,0.2,1,0.2s1.5,0,2.5,0c1.1,0,2.3-0.1,3.8-0.2c0.4,0,0.8-0.1,1.2-0.1c0.2,2,0.5,3.7,0.6,5.2c0.5,4.2,0.9,6.5,1,6.5
	s0-2.4-0.3-6.6c-0.1-1.5-0.3-3.2-0.4-5.2c0.5,0,1-0.1,1.4-0.1c0.8,8.6,1.6,15.7,2.3,20.7c0.2,1.5,0.4,2.8,0.6,3.9
	c-1.5,0.2-2.8,0.5-3.9,0.7c-2.7,0.5-4.2,1-4.2,1.2c0,0.3,1.6,0.4,4.3,0.3c1.2,0,2.5-0.1,4.1-0.2c0,0.2,0.1,0.3,0.1,0.4
	c0.3,1.5,0.5,2.2,0.6,2.2s0.1-0.8,0.1-2.3c0-0.1,0-0.2,0-0.4c0.8,0,1.6-0.1,2.5-0.1c0.2,1.4,0.3,2.5,0.4,3.4c0.1,1,0.3,1.6,0.4,1.6
	s0.2-0.6,0.3-1.6c0.1-0.9,0.1-2,0.1-3.4c1-0.1,2-0.1,3.1-0.2c4.9-0.3,10.7-0.7,17.2-1.1c2.2-0.1,4.5-0.3,6.9-0.4
	c-3.1,0.4-6,0.9-8.5,1.3c-3.9,0.6-7.1,1.2-9.3,1.7c-2.2,0.5-3.4,0.8-3.4,0.9s1.3,0.1,3.5-0.2c2.2-0.2,5.4-0.6,9.4-1.1
	c7.9-0.9,18.8-2.2,30.9-3c6.1-0.4,11.8-0.7,17.1-0.8c5.3-0.1,10-0.1,14-0.1c0.4,0,0.7,0,1.1,0c0,0.5,0,0.9,0,1.4
	c-1.6-0.1-3.3-0.2-5.2-0.2c-2.5-0.1-5.2-0.1-8,0s-5.6,0.2-8,0.5c-2.5,0.2-4.7,0.5-6.5,0.9c-1.8,0.3-3.3,0.7-4.3,1s-1.6,0.5-1.5,0.7
	c0,0.1,0.6,0.2,1.6,0.1s2.5-0.2,4.4-0.3c1.8-0.1,4-0.3,6.5-0.4c2.4-0.1,5.1-0.2,8-0.3c2.8-0.1,5.5-0.1,8-0.1c1.9,0,3.7-0.1,5.3-0.1
	c0.1,2.4,0.2,3.6,0.4,3.6s0.3-1.3,0.5-3.6c0.1,0,0.3,0,0.4,0c1.9,0,3.4-0.1,4.4-0.2s1.6-0.2,1.6-0.3c0-0.1-0.6-0.3-1.6-0.4
	s-2.5-0.3-4.4-0.4c-0.1,0-0.2,0-0.3,0c0-0.4,0.1-0.9,0.1-1.4c2.9,0.1,5.4,0.2,7.2,0.2c2.2,0.1,3.5,0.1,3.5-0.1
	c0-0.1-1.2-0.4-3.4-0.7c-1.8-0.2-4.2-0.5-7.1-0.7c0-0.1,0-0.3,0-0.4c3.3-0.2,6.1-0.4,8.1-0.5c2.7-0.2,4.3-0.5,4.3-0.8
	s-1.5-0.5-4.3-0.8c-2-0.2-4.7-0.3-8-0.4c0.4-5.8,0.9-13.8,1.4-23.4c0.5-8.4,1.1-18,1.8-28.6c0.4,0,0.8,0,1.2,0c4.3,0,7.8-0.4,7.8-1
	c0-0.5-3.5-1-7.8-1c-0.4,0-0.8,0-1.1,0c0.1-2.1,0.3-4.3,0.4-6.5c0.9-13.9,1.9-29.3,2.9-45.4c1.1-17.2,2.2-33.5,3.1-48.2
	c0.4,0,0.8,0,1.2,0c-0.4,6.3-0.8,13-1.2,19.9c-1.1,18.9-2,36-2.7,48.3l-0.8,14.6c-0.1,1.7-0.2,3.1-0.2,4s0,1.4,0,1.4
	c0.1,0,0.2-0.5,0.3-1.4c0.2-0.9,0.3-2.2,0.5-4c0.4-3.4,0.9-8.4,1.4-14.6c1-12.4,2.1-29.4,3.2-48.3c0.4-7,0.8-13.7,1.1-20.1
	c0.5,0,0.9-0.1,1.4-0.1c2.7-0.2,5.2-0.4,6.9-0.7c1.8-0.3,2.9-0.6,2.9-0.9s-1.1-0.5-2.9-0.5c-1.8-0.1-4.3-0.1-7,0.1
	c-0.4,0-0.8,0.1-1.2,0.1c0.1-1,0.1-2,0.2-3c0.6-0.1,1.2-0.2,1.7-0.3c1.5-0.3,2.3-0.7,2.3-1s-1-0.4-2.4-0.4c-0.4,0-0.9,0-1.5,0
	c0.4-8.1,0.8-15.4,1.1-21.6l0.8-14.6l0.2-4c0-0.9,0.1-1.4,0-1.4s-0.2,0.4-0.4,1.4c-0.2,0.9-0.3,2.2-0.5,4c-0.4,3.4-0.8,8.4-1.3,14.6
	s-1,13.6-1.5,21.8c-0.4,0-0.8,0-1.2,0.1c0.7-10.2,1.2-19.5,1.7-27.6c0.5-8,0.9-14.9,1.2-20.3c2-0.2,3.9-0.4,5.7-0.6
	c-0.3,2.3-0.6,4.9-0.8,7.7c-0.5,4.7-0.8,9.1-0.9,12.2c-0.1,3.1,0,5.1,0.2,5.1s0.6-1.9,1.1-5c0.4-3.1,0.9-7.4,1.4-12.1
	c0.3-2.9,0.5-5.7,0.7-8.1c6.5-0.7,11.8-1.3,15.5-1.7c3.9-0.5,6.1-0.9,6.1-1.1C191.9,43.1,189.7,42.9,185.7,42.9z M40.5,61.9
	c-0.2,0-0.3,0-0.5,0.1c-0.1-1.4-0.3-2.6-0.4-3.7c0.6,0,1.3,0,2.1,0c1.5,0,3.1-0.1,5.1-0.1c0,0.9,0.1,1.9,0.1,3
	C44.7,61.4,42.5,61.6,40.5,61.9z M62.4,256.7c-0.3-5-0.7-12.1-1.3-20.8c0.6-0.1,1.3-0.2,1.9-0.3c0,1.1,0.1,2.3,0.1,3.5
	c0.1,2.5,0.3,5.2,0.5,8c0.4,5,0.9,9.5,1.2,13c-0.8,0.1-1.6,0.2-2.3,0.4C62.6,259.5,62.5,258.2,62.4,256.7z M148.3,258.3
	c-0.3,0-0.7,0-1-0.1c-0.4,0-0.9-0.1-1.4-0.1c0.1,0,0.1,0,0.2,0c0.7,0,1.5-0.1,2.2-0.1C148.3,258.1,148.3,258.2,148.3,258.3z
	 M161.1,96.6c-0.1,0.9-0.1,1.9-0.2,2.9c-0.4,0-0.8,0.1-1.2,0.1c0.1-1,0.1-1.9,0.2-2.9C160.3,96.7,160.7,96.7,161.1,96.6z M159.3,67
	c-0.8,8.2-1.6,17.7-2.4,28.1c-1.5,0.2-2.9,0.3-3.9,0.5c-1.5,0.3-2.4,0.6-2.3,0.9c0,0.3,0.9,0.5,2.4,0.5c1,0.1,2.3,0.1,3.7,0
	c-0.1,1.1-0.2,2.1-0.3,3.2c-1.5,0.3-2.4,0.7-2.4,0.9c0,0.2,0.9,0.4,2.3,0.4c-1.1,14.6-2.3,30.8-3.4,47.9
	c-1.1,16.1-1.9,31.4-2.7,45.4c-0.1,2.3-0.2,4.6-0.3,6.8c-2.1,0.2-3.5,0.5-3.5,0.8s1.3,0.6,3.4,0.8c-0.5,10.6-0.9,20.3-1.1,28.6
	c-0.3,9.7-0.4,17.7-0.4,23.5c-0.7,0-1.4,0-2.2-0.1c-4.9-0.1-10.8-0.1-17.3,0s-13.7,0.3-21.2,0.8c-7.5,0.4-14.6,1-21.1,1.6
	s-12.3,1.3-17.2,1.9c-1,0.1-2,0.3-3,0.4c-0.1-3.6-0.4-8.1-0.8-13c-0.2-2.8-0.4-5.5-0.7-8l-0.3-3.6c1.4-0.2,2.6-0.5,3.6-0.8
	c1.1-0.3,1.9-0.6,2.5-0.8s0.9-0.5,0.8-0.6c0-0.1-0.4-0.2-1-0.2S69,233,68,233.1c-1,0.1-2.2,0.2-3.6,0.3l-0.1-1.1
	c-0.2-1.8-0.3-3.3-0.4-4.4c-0.1-1-0.2-1.6-0.4-1.6c-0.1,0-0.2,0.6-0.3,1.6s-0.1,2.6-0.1,4.4c0,0.4,0,0.7,0,1.1
	c-0.6,0.1-1.3,0.1-2,0.2c0-0.3,0-0.7-0.1-1c-1.2-20-3-47.7-5.1-78.3S51.8,96.1,50.2,76c-0.4-5-0.8-9.6-1.2-13.6
	c0.7-0.1,1.4-0.2,2-0.2c3.7-0.4,7.1-0.9,10.3-1.3c3.2-0.4,6-0.8,8.4-1.2c4.8-0.7,7.7-1.2,7.7-1.5s-3-0.2-7.8,0.1
	c-2.4,0.2-5.3,0.4-8.5,0.7c-3.2,0.3-6.7,0.7-10.3,1.2c-0.7,0.1-1.4,0.2-2,0.2c-0.1-1-0.2-1.9-0.3-2.8c2.9-0.1,6.3-0.3,10-0.5
	c7.1-0.4,15.5-1.1,24.9-2s19.6-2,30.4-3.1c10.8-1.2,21-2.4,30.4-3.4c6.1-0.7,11.8-1.3,17-1.9C160.7,52.5,160,59.2,159.3,67z
	 M168.8,43.5c-1.8,0.1-3.7,0.2-5.7,0.4c0-0.9,0.1-1.7,0.1-2.4c2.3-0.3,4.3-0.6,6.2-0.9c-0.1,0.4-0.1,0.9-0.2,1.3
	c-0.1,0.5-0.1,1-0.2,1.6C168.9,43.5,168.9,43.5,168.8,43.5z"/>
<polygon class="st0" points="148,257.4 62.3,261.3 47.7,56.2 161.7,44.2 "/>
<path class="st1" d="M162.3,270.5c-1.7-1.3-4.1-2.4-6.2-2.3c-6,0.9-11.4,3.2-16.6,6.1c2.2,4.4,4,8.9,5.7,13.5
	c-2.9,2.3-6.1,4.5-9.2,6.4c-2.7-4.6-4.8-9.6-6.2-14.7c-1.7-0.2-3.1-0.1-4.3,0.9c1.2,7.8,3.9,15.5,8,22.5c5.1-2.1,9.8-4.8,14.1-8
	c1.9,6.5,3.3,13.2,4.2,19.8c4.2,1.7,8.9,2.1,13.4,1.2C169.4,304.7,168.1,279.5,162.3,270.5z"/>
<g>
	<path class="st2" d="M181.5,263.1c-5.6,0.5-11.8,2.5-16.5,5.5c6,15.4,11.2,31,15.7,46.9c4.6,0.5,8.1,0.8,12.6,0.5l0,0
		C193.4,297.9,189.1,279.7,181.5,263.1z"/>
	<path class="st1" d="M178.6,265.9c-4.2,0.9-8.2,2.3-11.8,4.4c3.9,8.4,7.3,17.4,10.5,26.8l10.9-0.5
		C185.4,285.2,182.3,274.6,178.6,265.9z"/>
	
		<linearGradient id="SVGID_1_" gradientUnits="userSpaceOnUse" x1="185.4339" y1="92.5204" x2="197.8441" y2="35.5151" gradientTransform="matrix(1 0 0 -1 0 351.2756)">
		<stop  offset="4.356780e-02" style="stop-color:#FFFFFF"/>
		<stop  offset="0.2974" style="stop-color:#FBFBFB"/>
		<stop  offset="0.553" style="stop-color:#EFEFEF"/>
		<stop  offset="0.7039" style="stop-color:#E5E5E4"/>
		<stop  offset="0.802" style="stop-color:#DFDFDE"/>
		<stop  offset="1" style="stop-color:#D7D7D7"/>
	</linearGradient>
	<path class="st3" d="M196.5,290c-0.7-8.5-3-17.3-7.7-24.5c-2.6-1.8-7.1-2.5-7.1-2.5c-0.1,0-0.1,0-0.2,0
		c7.6,16.6,11.9,34.8,11.9,52.9c0.2,0,1.8-0.2,2.3-0.4C196.4,307.1,197.1,298.5,196.5,290z"/>
	
		<linearGradient id="SVGID_2_" gradientUnits="userSpaceOnUse" x1="185.7341" y1="90.6582" x2="191.2937" y2="65.1206" gradientTransform="matrix(1 0 0 -1 0 351.2756)">
		<stop  offset="0" style="stop-color:#FFFFFF"/>
		<stop  offset="0.8404" style="stop-color:#E8E7E7"/>
	</linearGradient>
	<path class="st4" d="M195.8,284.9c-1.1-6.8-3.3-13.6-7.1-19.3c-2.6-1.8-7.1-2.5-7.1-2.5c-0.1,0-0.1,0-0.2,0
		c3.1,6.9,5.7,14.1,7.7,21.4C191.4,284.6,193.6,284.8,195.8,284.9z"/>
	<path class="st1" d="M179.2,283.3c-0.5-1.9-1.4-3.9-2-5.2c-2,0.3-3.9,1.1-5.8,1.6c-3.4,5.8-13.6,15.9-18.8,19.3
		c-7.6-2.7-12.9-10.1-18.1-15.4c-0.5,0.5-1,0.9-1.5,1.4c5.4,6.7,11.6,15.7,20.2,18.6C158.7,301.5,174.2,290.6,179.2,283.3z"/>
	<polygon class="st5" points="188.9,283.7 195.8,284.4 195.9,285.4 189.4,285.4 	"/>
	<path class="st6" d="M177.7,285.3l-1.6-5.3c-6.2,7-13.1,13.5-20.5,19.7l1.2,2.3C163,298.3,172.8,291,177.7,285.3z"/>
</g>
<linearGradient id="SVGID_3_" gradientUnits="userSpaceOnUse" x1="141.8617" y1="107.7307" x2="106.1312" y2="106.6397" gradientTransform="matrix(1 0 0 -1 0 351.2756)">
	<stop  offset="0" style="stop-color:#F2F2F2"/>
	<stop  offset="0.4203" style="stop-color:#B5C5C5"/>
	<stop  offset="0.8404" style="stop-color:#759595"/>
</linearGradient>
<path class="st7" d="M142.6,232.3c-2.4,8.1-3.9,16.1-4.8,24.5c-10,1.1-18.4,0.8-28.4-0.2c-2.7-7.8-4.7-15.8-5.8-24
	C116.1,229.5,129.8,230.9,142.6,232.3z"/>
<path class="st8" d="M136.7,239.9c0,0-1.6,0-4.2-0.1c-2.6,0-6.2,0-10.1,0.1s-7.5,0.4-10.1,0.6c-2.6,0.2-4.2,0.4-4.2,0.4
	s1.6-0.4,4.1-0.9c2.6-0.5,6.1-1,10.1-1.1s7.6,0.1,10.1,0.4C135.1,239.6,136.7,239.9,136.7,239.9z"/>
<path class="st8" d="M134.9,247c0,0-1.4,0.3-3.6,0.6c-2.3,0.3-5.4,0.6-8.9,0.6s-6.6-0.3-8.8-0.6c-2.3-0.3-3.6-0.6-3.6-0.6
	s1.4,0,3.7,0.1c2.3,0,5.4,0.1,8.8,0.1s6.6,0,8.8,0C133.5,247,134.9,247,134.9,247z"/>
<path class="st9" d="M139,237.9c-1.3,5.2-2.2,10.5-2.7,15.8c-3.9-0.1-7.7-0.2-11.6-0.3c-1.3-5-1.8-10.2-1.2-15.3
	c4.9-0.7,10.3-0.8,15.3-0.2C138.7,237.9,139.1,237.8,139,237.9z"/>
<linearGradient id="SVGID_4_" gradientUnits="userSpaceOnUse" x1="133.7698" y1="107.2716" x2="119.5867" y2="62.904" gradientTransform="matrix(1 0 0 -1 0 351.2756)">
	<stop  offset="4.356780e-02" style="stop-color:#FFFFFF"/>
	<stop  offset="0.2974" style="stop-color:#FBFBFB"/>
	<stop  offset="0.553" style="stop-color:#EFEFEF"/>
	<stop  offset="0.7039" style="stop-color:#E5E5E4"/>
	<stop  offset="0.802" style="stop-color:#DFDFDE"/>
	<stop  offset="1" style="stop-color:#D7D7D7"/>
</linearGradient>
<path class="st10" d="M108.8,252.9c1,8.5,2.4,17,4.5,25.3c2.9,0.2,6.1,0.4,8.9,0.8c0.5,2.6,1,5.2,1.3,7.8c3.4,0,6.7-0.2,10.1-0.6
	c1.8-1.9,3.3-4.1,4.4-6.6c1.9-0.9,3.9-1.5,5.9-1.9c4.3-7.2,6.6-16,6.7-24.3C136.6,252.8,122.7,252.6,108.8,252.9z"/>
<path class="st2" d="M113.3,278.2c-2.1-8.3-3.6-16.8-4.5-25.3c-5.6,0.1-11.3,0.3-17,0.5c0.5,7.9,2.5,15.6,5.9,22.8
	c2.9,0.3,6.1,0.6,9,0.9c1.9,2.9,3.7,5.8,5,9c3.9,0.5,7.8,0.8,11.8,0.8c-0.3-2.6-0.8-5.3-1.3-7.8
	C119.3,278.7,116.2,278.4,113.3,278.2z"/>
<path class="st11" d="M141.6,253.1c-0.8,5-1.9,10.2-3.5,15.3c-5.8,1-11.7,0.9-17.5-0.2l-2.6-15.3c-0.3,0-0.5,0-0.8,0l2.7,16l0.3,0.1
	c3.3,0.7,6.6,1,9.9,1c2.8,0,5.7-0.2,8.5-0.7h0.2l0.1-0.2c1.6-5.2,2.8-10.5,3.6-15.7C142.1,253.1,141.8,253.1,141.6,253.1z"/>
<path class="st1" d="M88.9,287.2c5.6-2.4,12.5-6.3,17.8-10l3.3,0.3c-4.5,5.1-10.6,11.5-15.3,15L88.9,287.2z"/>
<path class="st1" d="M119.2,278.8c-2.9,8.3-7.3,17.7-12.2,25c-3.1-1.6-6-3.5-8.6-5.7c0.2-3.1,0.6-6.1,1.9-9c1.6,1.6,3.3,2.9,5.2,4.2
	c3.7-3.6,7.1-10.3,9.5-14.9C116.5,278.5,117.8,278.5,119.2,278.8z"/>
<path class="st1" d="M80.8,284.5c-2.6-4.5-5.6-8.4-8.2-12.9c-0.9,3.3-1.6,6.2-2.5,9.5c3.1,3.4,6.2,6.9,9.3,10.3
	C79.9,289.5,80.6,286.6,80.8,284.5z"/>
<linearGradient id="SVGID_5_" gradientUnits="userSpaceOnUse" x1="98.3275" y1="93.2391" x2="79.2349" y2="33.0974" gradientTransform="matrix(1 0 0 -1 0 351.2756)">
	<stop  offset="4.356780e-02" style="stop-color:#FFFFFF"/>
	<stop  offset="0.2974" style="stop-color:#FBFBFB"/>
	<stop  offset="0.553" style="stop-color:#EFEFEF"/>
	<stop  offset="0.7039" style="stop-color:#E5E5E4"/>
	<stop  offset="0.802" style="stop-color:#DFDFDE"/>
	<stop  offset="1" style="stop-color:#D7D7D7"/>
</linearGradient>
<path class="st12" d="M101.2,263.2c2.7,17.9-0.1,36.6-6.9,53.4c-3.9,0.6-8.1,0.7-12,0c-5.2-16.7-5.5-35-1-51.9
	C86.9,262.6,95.3,261.9,101.2,263.2z"/>
<linearGradient id="SVGID_6_" gradientUnits="userSpaceOnUse" x1="96.525" y1="92.5744" x2="82.9331" y2="49.76" gradientTransform="matrix(1 0 0 -1 0 351.2756)">
	<stop  offset="0" style="stop-color:#FFFFFF"/>
	<stop  offset="0.8404" style="stop-color:#E8E7E7"/>
</linearGradient>
<path class="st13" d="M81.3,264.7c-1.8,6.9-2.9,13.9-3.1,21c1.5,0.5,3,0.8,4.7,0.8c-0.1,4.4,0.2,9,0.6,13.3c1.5,0,3.1,0.1,4.6,0.1
	c1,0,2,0,3-0.4c0.3-4.8,1.3-9.6,2.8-14.2c2.7-0.6,5.5-1.4,8.2-2.2c0.4-6.7,0.2-13.4-0.8-20C95.3,261.9,86.9,262.6,81.3,264.7z"/>
<linearGradient id="SVGID_7_" gradientUnits="userSpaceOnUse" x1="46.0842" y1="92.5172" x2="69.4042" y2="46.0133" gradientTransform="matrix(1 0 0 -1 0 351.2756)">
	<stop  offset="4.356780e-02" style="stop-color:#FFFFFF"/>
	<stop  offset="0.2974" style="stop-color:#FBFBFB"/>
	<stop  offset="0.553" style="stop-color:#EFEFEF"/>
	<stop  offset="0.7039" style="stop-color:#E5E5E4"/>
	<stop  offset="0.802" style="stop-color:#DFDFDE"/>
	<stop  offset="1" style="stop-color:#D7D7D7"/>
</linearGradient>
<path class="st14" d="M74.2,265c-2.2,17.6-9.4,34.9-19.9,49.2c-1.8,0.3-3.8,0.2-5.5-0.2c-2.7-18.2-0.6-37.1,5.9-54.3
	C61.2,258.7,69,260.8,74.2,265z"/>
<linearGradient id="SVGID_8_" gradientUnits="userSpaceOnUse" x1="51.9106" y1="93.0505" x2="64.4602" y2="68.0245" gradientTransform="matrix(1 0 0 -1 0 351.2756)">
	<stop  offset="0" style="stop-color:#FFFFFF"/>
	<stop  offset="0.8404" style="stop-color:#E8E7E7"/>
</linearGradient>
<path class="st15" d="M54.7,259.6c-3.5,9.2-5.7,18.9-6.6,28.7c2.5,0.4,5,0.4,7.5,0.1c2.1-6.2,4.8-12.1,8-17.7c3.1,0,6.4,0.7,9.3,1.9
	c0.5-2.5,1-5.1,1.3-7.6C69,260.8,61.2,258.7,54.7,259.6z"/>
<path class="st5" d="M63.5,270.4h-0.3l-0.1,0.2c-3.1,5.7-5.6,11.3-7.6,17.1c-2.4,0.4-4.9,0.3-7.4-0.1c0,0.4-0.1,0.7-0.1,1.1
	c1.3,0.2,2.7,0.4,4.1,0.4c1.3,0,2.6-0.1,3.9-0.3l0.3-0.1l0.1-0.3c2-5.8,4.4-11.4,7.5-17c3-0.4,6.1,0.2,8.9,1.6
	c0.1-0.4,0.2-0.7,0.2-1.1C70,270.4,66.7,269.8,63.5,270.4z"/>
<path class="st5" d="M102,282.3c-2.6,1.2-5.6,1.9-8.4,2.4l-0.3,0.1l-0.1,0.3c-1.3,4.7-1.9,8.6-2.6,13.2l-0.1,0.8
	c-2.1,0.3-4.6,0.4-6.7,0.2c-0.2-3.5-0.4-8.1-0.1-13v-0.6h-0.6c-1.7,0-3.3-0.2-4.9-0.5c0,0.4,0,0.7,0,1.1c1.4,0.3,2.9,0.5,4.4,0.5
	c-0.2,5,0,9.6,0.2,13v0.4l0.4,0.1c0.9,0.1,2,0.2,3,0.2c1.6,0,3.3-0.1,4.7-0.3l0.4-0.1l0.2-1.6c0.7-4.4,1.3-8.2,2.5-12.8
	c2.6-0.5,5.3-1.2,7.8-2.2C102,283.1,102,282.7,102,282.3z"/>
<path class="st9" d="M66.8,262.4c-7,13.3-12.1,27.4-15.1,41.9c-1.1,0.1-2.1,0.1-3.3,0.1C48,289.7,50.2,274.9,55,261
	C58.6,260.6,63.6,260.9,66.8,262.4z"/>
<path class="st9" d="M93.7,314.7c-0.8,0-1.3,0-2.2-0.1c2-13.8,2.8-28.1,2.6-42.1c-4.4-0.7-9-1.3-13.4-2c0.2-1.6,0.5-3.1,1-4.6
	c5.8-1.8,12-2.5,18-1.8C102.1,271.4,101,297.9,93.7,314.7z"/>
<path class="st9" d="M133.2,285.1c1.8-1.9,3.5-4.3,4.1-6.8c1.8-0.7,3.9-1.3,5.7-2c3.1-6.2,5-13.6,5.6-20.5
	c-12.6-1.3-25.2-1.7-37.8-1.3c10.8,1.7,21.9,3.8,32.8,5.5c0.2,4.9-0.9,10.3-3.1,14.6c-1.4,0.8-3.4,1.5-4.8,2.2
	C134.6,279.3,134.2,282.6,133.2,285.1z"/>
<path class="st2" d="M192.8,176.2c-7.9,6-15,12-22.9,18c2.8,14.8,5.3,37,5.8,52.4l29.9-14C203.2,214.2,198.9,195.4,192.8,176.2z"/>
<path class="st2" d="M175.7,246.6c3.6,1.9,8.7,5.5,12.2,7.7c10.9-2.9,23.8-8.3,33.6-12.7c-5.4-3.6-10.7-6.7-15.8-9L175.7,246.6z"/>
<linearGradient id="SVGID_9_" gradientUnits="userSpaceOnUse" x1="207.1314" y1="149.466" x2="206.903" y2="97.8388" gradientTransform="matrix(1 0 0 -1 0 351.2756)">
	<stop  offset="4.356780e-02" style="stop-color:#FFFFFF"/>
	<stop  offset="0.2974" style="stop-color:#FBFBFB"/>
	<stop  offset="0.553" style="stop-color:#EFEFEF"/>
	<stop  offset="0.7039" style="stop-color:#E5E5E4"/>
	<stop  offset="0.802" style="stop-color:#DFDFDE"/>
	<stop  offset="1" style="stop-color:#D7D7D7"/>
</linearGradient>
<path class="st16" d="M192.8,176.2c6,19.2,10.4,38.1,12.8,56.4c5.2,2.3,10.5,5.4,15.8,9c-1-19.1-6.6-39.6-12.4-59.1
	C203.8,178.8,199.1,177.1,192.8,176.2z"/>
<path class="st1" d="M195.6,233.3c1.4-0.9,3-1.3,4.7-1.3c4,4,7.2,8.9,9.3,14c-1.4,5.4-4.6,10.1-9.3,13.1s-10.1,4.7-15.7,5.2
	c-1.9-4.6-3.3-9.8-3.8-14.8c0.1,0,0.1,0.1,0.2,0.1c0.9-0.5,1.6-1.2,2.5-1.6c-0.3-2.7-0.7-5.1-1-7.8
	C186.4,237.4,191.1,235.2,195.6,233.3z"/>
<path class="st11" d="M192.8,176.2c-7.9,6-15,12-22.9,18c1.7,8.9,3.3,20.4,4.3,31.5c3.2-1.7,12.2-6.5,14.1-7.6
	c2-1.1,11.5-6.8,13.4-8C199.4,199,196.4,187.6,192.8,176.2z"/>
<path class="st1" d="M191.5,192.7c0.6,3,0,6.1-1.6,8.6s-4.2,4.3-7.1,4.9c-0.9,0.2-1.8,0.3-2.7,0c-2.5-0.6-2.2-3.1-2.6-5.2
	c-0.5-2.4-1-4.8-1.6-7.1c3.6-3.3,7.8-6.3,12.4-8.2C189.7,188.2,191,189.9,191.5,192.7z"/>
<linearGradient id="SVGID_10_" gradientUnits="userSpaceOnUse" x1="216.5349" y1="123.285" x2="191.8635" y2="193.1874" gradientTransform="matrix(1 0 0 -1 0 351.2756)">
	<stop  offset="0" style="stop-color:#FFFFFF"/>
	<stop  offset="0.8404" style="stop-color:#E8E7E7"/>
</linearGradient>
<path class="st17" d="M192.8,176.2c3.6,11.5,6.6,22.8,8.9,33.9c0.2-0.1,0.4-0.2,0.4-0.2s6.3,2.3,9.2,3.9c2.1,1.2,5.4,3.3,7,4.3
	c-2.4-11.9-5.8-23.9-9.3-35.6C203.8,178.8,199.1,177.1,192.8,176.2z"/>
<path class="st1" d="M189,190.9c-0.2,2.5-1.4,4.9-3.3,6.6c-1.9,1.7-4.3,2.3-6.8,2.2c-5.6-8.7-12.4-16.7-20.2-23.6
	c1.8-2.3,3.5-4.3,6.1-5.7C173.4,175.7,182.4,183.2,189,190.9z"/>
<path class="st18" d="M201.9,210.8c-0.1-0.4-0.2-0.8-0.3-1.2l0,0l-0.2,0.1c-7.7,5-16.9,10.2-27.2,15.5c0,0.4,0.1,0.8,0.1,1.3
	C184.8,221.1,194.1,215.8,201.9,210.8z"/>
<path class="st11" d="M218.2,217.3c-4.2-2.8-12.1-7.2-16.4-7.7h-0.2c0.1,0.4,0.2,0.8,0.3,1.2l0,0c4.5,0.7,13,5.7,16.6,8.1
	C218.4,218.4,218.3,217.8,218.2,217.3z"/>
<g>
	<path class="st2" d="M183.4,247.2c-2.5,0.2-4.8,1.3-6.7,3c-0.3,5.7,0.7,11.5,2.8,16.8c0.9,0,2.6,0.1,2.7,0.1
		c3.4,0.1,6.6-0.3,9.8-1.6c-1.1-5.8-3.4-12.1-5.8-17.5L183.4,247.2z"/>
	<path class="st2" d="M182.9,246.8c3.9-3.4,8.9-5.7,14-6.9c0.5-2.8,0.9-6.1-0.7-8.5l-2.8-1.4c-5.8,1.4-10.8,4.4-14.9,8.7
		c-0.2,2.4,0.4,4.9,1.5,7.2L182.9,246.8z"/>
	<path class="st2" d="M191.9,242.2c-1.1,0.4-2.2,0.9-3.2,1.5s-2,1.4-2.5,2.4c1.8,6.4,4.7,12.4,8.7,17.8l2.3,0.1
		c3.7-1.3,7.1-3.3,9.7-6.2c-2.8-5.5-7.1-11.3-12.4-14.6L191.9,242.2z"/>
</g>
<linearGradient id="SVGID_11_" gradientUnits="userSpaceOnUse" x1="155.8815" y1="123.4975" x2="129.0439" y2="93.6997" gradientTransform="matrix(0.9606 -0.2461 -0.2801 -0.9693 86.3952 386.0301)">
	<stop  offset="4.356780e-02" style="stop-color:#FFFFFF"/>
	<stop  offset="0.2974" style="stop-color:#FBFBFB"/>
	<stop  offset="0.553" style="stop-color:#EFEFEF"/>
	<stop  offset="0.7039" style="stop-color:#E5E5E4"/>
	<stop  offset="0.802" style="stop-color:#DFDFDE"/>
	<stop  offset="1" style="stop-color:#D7D7D7"/>
</linearGradient>
<path class="st19" d="M189.5,265.4c-3.2,1.3-6.5,1.7-10,1.6c-2.2-5.3-3.2-11.2-2.8-16.8c1.9-1.7,4.2-2.8,6.7-3
	C185.8,252.8,188.3,259.4,189.5,265.4z M191.9,242.2c-1.1,0.4-2.2,0.9-3.2,1.5s-2,1.4-2.5,2.4c1.8,6.4,4.7,12.4,8.7,17.8
	c3.8-1.3,7.2-3.4,9.9-6.4C201.8,251.8,197.4,245.7,191.9,242.2z M193.4,230c-5.8,1.4-10.8,4.4-14.9,8.7c-0.2,2.4,0.4,4.9,1.5,7.2
	c4-3.5,9-5.9,14.2-7C194.7,236,195,232.5,193.4,230z"/>
<path class="st18" d="M192.6,215.8l-0.5,0.1c-0.8-3.3-1.4-6.7-1.8-10.1v-0.1l0.1-0.1c1.7-1.5,3.7-3.2,5.8-4.5
	c-1.2-7.6-3.3-15.2-6.3-22.5l0.5-0.2c3,7.4,5.2,15.1,6.4,22.8v0.2l-0.2,0.1c-2.1,1.2-4.1,2.9-5.8,4.5
	C191.2,209.2,191.8,212.5,192.6,215.8z"/>
<path class="st6" d="M183.7,187.3c0.5,2.6,0,5.5-1.2,7.8c-5.6-7.2-12.1-13.9-19.1-19.7c0.8-1.2,1.8-2.1,3-2.8
	C172.9,176.6,178.8,181.8,183.7,187.3z"/>
<path class="st1" d="M165.6,179.6c0.5-0.5,1.2-1.5,1.7-2.4s0.9-1.7,0.9-1.7s-0.6,0.6-1.4,1.3c-0.7,0.7-1.6,1.5-2.1,1.9L165.6,179.6z
	"/>
<path class="st1" d="M169.6,183.2c0.7-0.3,1.7-1.2,2.3-2.1c0.6-0.9,0.9-1.8,0.9-1.8s-0.5,0.7-1.3,1.4s-1.8,1.2-2.4,1.5L169.6,183.2z
	"/>
<path class="st1" d="M173.5,187.6c0.8-0.5,2-1.7,2.8-2.9c0.9-1.2,1.4-2.2,1.4-2.2s-0.7,0.9-1.8,1.9c-1,1-2.3,1.8-3.1,2.3
	L173.5,187.6z"/>
<path class="st1" d="M177.5,191.8c0.7-0.7,1.8-2.1,2.5-3.5s1-2.6,1-2.6s-0.6,1.1-1.5,2.3s-2.1,2.4-2.8,3L177.5,191.8z"/>
<path class="st9" d="M207.8,182.9c6.3,17.8,9.9,36.5,11.4,55.1c-2.3-1.8-5.1-3.5-7.9-4.5c-1.6-14.8-4.4-29.8-8.5-44.2
	c-1.6-1.1-3.3-2-5-2.7c-0.9-2.7-1.8-5.6-2.7-8.3C198.9,179.3,204.2,180.9,207.8,182.9z"/>
<path class="st18" d="M178,234.7c-0.9,0.5-1.8,0.9-2.8,1.2l-0.2-0.5c2.9-1.1,5.9-2.8,8.3-4.8c0.3-3.3,0.1-6.6-0.6-9.4l0.5-0.1
	c0.7,2.9,0.9,6.3,0.6,9.7v0.1l-0.1,0.1C182.1,232.4,180.1,233.7,178,234.7z"/>
<linearGradient id="SVGID_12_" gradientUnits="userSpaceOnUse" x1="149.5051" y1="219.6135" x2="109.8646" y2="98.4899" gradientTransform="matrix(1 0 0 -1 0 351.2756)">
	<stop  offset="4.356780e-02" style="stop-color:#FFFFFF"/>
	<stop  offset="0.2974" style="stop-color:#FBFBFB"/>
	<stop  offset="0.553" style="stop-color:#EFEFEF"/>
	<stop  offset="0.7039" style="stop-color:#E5E5E4"/>
	<stop  offset="0.802" style="stop-color:#DFDFDE"/>
	<stop  offset="1" style="stop-color:#D7D7D7"/>
</linearGradient>
<path class="st20" d="M98.7,129.1L98.7,129.1L98.7,129.1c2.2,45.3,3.4,67.1,1.7,107.4l66.7-0.8c5.3-35,6.8-50.9,6.7-90.7L98.7,129.1
	z"/>
<polygon class="st2" points="157.1,214.3 117.8,212.3 117.4,212.3 105.1,236.4 106.3,236.4 118.1,213.3 156.2,215.2 161.4,235.8 
	162.4,235.8 "/>
<path class="st9" d="M100.7,131l71.4,14.6c0.8,26.8-1.7,58.8-5.4,89.7h-1.4c1.5-28.7,2.3-58.4,0.7-82.8
	c-15.5-5.7-39.8-12.7-65.4-19.9L100.7,131L100.7,131z"/>
<path class="st2" d="M98.7,129.1L98.7,129.1l-36.9,17.5c5.4,38.3,7.8,54,10.8,89.9h27.8C102.2,196.2,100.9,174.4,98.7,129.1z"/>
<path class="st5" d="M92,228.6H78v-0.3c-2.8-28.1-5.7-43.6-10.7-74.8v-0.3l25.1-10.4v0.5c1.8,36.7,1,54.6-0.3,84.9L92,228.6z
	 M78.7,227.8h12.6c1.3-30,2.1-47.6,0.3-83.9L68,153.6C73,184.6,75.9,199.9,78.7,227.8z"/>
<polygon class="st2" points="103.9,134.5 104.5,139.4 120.8,142.6 119.5,137.4 "/>
<polygon class="st21" points="104.7,139.1 104.3,136.2 117.9,138.7 118.7,141.8 "/>
<path class="st2" d="M167.8,151.3c0.4,3-1.3,5.5-3.9,5.5c-2.6,0-5.1-2.5-5.5-5.5s1.3-5.5,3.9-5.5S167.4,148.2,167.8,151.3z"/>
<linearGradient id="SVGID_13_" gradientUnits="userSpaceOnUse" x1="164.8071" y1="207.519" x2="165.7734" y2="193.1866" gradientTransform="matrix(1 0 0 -1 0 351.2756)">
	<stop  offset="4.356780e-02" style="stop-color:#FFFFFF"/>
	<stop  offset="0.2974" style="stop-color:#FBFBFB"/>
	<stop  offset="0.553" style="stop-color:#EFEFEF"/>
	<stop  offset="0.7039" style="stop-color:#E5E5E4"/>
	<stop  offset="0.802" style="stop-color:#DFDFDE"/>
	<stop  offset="1" style="stop-color:#D7D7D7"/>
</linearGradient>
<path class="st22" d="M171,151c-0.3-2-1.6-3.7-3.2-4.3c-0.4-0.2-3.3-1.2-4.3-1.2c-2.6,0-4.4,2.5-3.9,5.5c0.4,3,2.9,5.5,5.5,5.5
	c1,0,3.7-1.1,4.1-1.3C170.5,154.6,171.3,152.9,171,151z"/>
<path class="st9" d="M170.5,151c0.3,2.2-1,4-2.8,4c-1.9,0-3.7-1.8-4-4s1-4,2.8-4C168.4,147.1,170.2,148.8,170.5,151z"/>
<polygon class="st2" points="153.6,140.7 151.2,151.6 128,147.9 124,134.5 123.1,134.3 127.3,148.3 127.4,148.5 151.8,152.5 
	154.3,140.9 "/>
<g>
	
		<linearGradient id="SVGID_14_" gradientUnits="userSpaceOnUse" x1="149.5423" y1="206.6793" x2="122.8172" y2="120.1322" gradientTransform="matrix(1 0 0 -1 0 351.2756)">
		<stop  offset="4.356780e-02" style="stop-color:#FFFFFF"/>
		<stop  offset="0.2974" style="stop-color:#FBFBFB"/>
		<stop  offset="0.553" style="stop-color:#EFEFEF"/>
		<stop  offset="0.7039" style="stop-color:#E5E5E4"/>
		<stop  offset="0.802" style="stop-color:#DFDFDE"/>
		<stop  offset="1" style="stop-color:#D7D7D7"/>
	</linearGradient>
	<path class="st23" d="M169.2,186c0-20.3-14.3-37.6-31.9-38.6s-31.9,14.7-31.9,35.1s14.3,37.6,31.9,38.6
		C155,222,169.2,206.3,169.2,186z"/>
	<path class="st2" d="M138.9,221.5c-0.5,0-1.1,0-1.6,0c-17.8-1-32.3-18.5-32.3-39c0-11.4,4.5-21.8,12.3-28.5
		c5.8-4.9,12.7-7.3,20.1-6.9c17.8,1,32.3,18.5,32.3,39c0,11.4-4.5,21.8-12.3,28.5C152.1,219.1,145.7,221.5,138.9,221.5z
		 M135.8,147.8c-6.6,0-12.7,2.3-17.9,6.8c-7.6,6.5-12,16.7-12,27.9c0,20.1,14.1,37.2,31.5,38.2c7.1,0.4,13.9-1.9,19.4-6.7
		c7.6-6.5,12-16.7,12-27.9c0-20.1-14.1-37.2-31.5-38.2C136.8,147.8,136.3,147.8,135.8,147.8z"/>
	<path class="st2" d="M140.2,213.8c-0.4,0-0.7,0-1.1,0c-13.6-0.7-24.6-14.8-24.6-31.3c0-15.6,10-27.9,22.7-27.9c0.4,0,0.7,0,1.1,0
		c13.6,0.7,24.6,14.8,24.6,31.3c0,7.9-2.5,15.1-7.1,20.4C151.6,211.2,146,213.8,140.2,213.8L140.2,213.8z"/>
	
		<radialGradient id="SVGID_15_" cx="139.1648" cy="181.7333" r="32.4951" gradientTransform="matrix(1.097 0 0 -1 -3.4272 351.2756)" gradientUnits="userSpaceOnUse">
		<stop  offset="5.032370e-03" style="stop-color:#22577E"/>
		<stop  offset="0.2551" style="stop-color:#204F76"/>
		<stop  offset="0.6313" style="stop-color:#1C3A62"/>
		<stop  offset="1" style="stop-color:#162048"/>
	</radialGradient>
	<path class="st24" d="M136.5,155.7c-0.4,0-0.7,0-1.1,0c-3.2,0-6.2,0.8-8.9,2.1c-7.2,4.6-12.1,13.9-12.1,24.7
		c0,16.5,11,30.5,24.6,31.3c0.4,0,0.7,0,1.1,0l0,0c3.1,0,6.1-0.8,8.9-2.2c1.8-1.2,3.5-2.6,5-4.3c4.6-5.3,7.1-12.5,7.1-20.4
		C161.1,170.4,150.1,156.4,136.5,155.7z"/>
	<path class="st9" d="M149.6,195.5c2.4,1.8,5,3.3,7.7,4.7c1.8-4,2.8-8.5,2.8-13.3c0-16-10.6-29.6-23.6-30.3c-0.3,0-0.7,0-1,0
		c-2.9,0-5.7,0.7-8.3,2c-1.2,0.8-2.3,1.7-3.4,2.7C129.4,174.4,137.3,186.6,149.6,195.5z"/>
	<path class="st21" d="M136.2,191.4c0.5,3.3-1.4,6-4.3,6c-2.8,0-5.5-2.7-6-6s1.4-6,4.3-6C133.1,185.3,135.8,188,136.2,191.4z"/>
	<path class="st21" d="M142.2,190.5c-0.6,4.4,1.9,8,5.7,8s7.3-3.6,8-8c0.6-4.4-1.9-8-5.7-8C146.4,182.6,142.8,186.1,142.2,190.5z"/>
	<path class="st9" d="M136.1,150.7c17.2,0.9,31.1,17.8,31.1,37.7c0,6.1-1.3,11.8-3.7,16.8c3.1-5.4,4.9-12,4.9-19.1
		c0-19.8-13.9-36.7-31.1-37.7c-11.9-0.7-22.2,6.5-27.4,17.5C115.5,156.1,125.1,150.1,136.1,150.7z"/>
</g>
<linearGradient id="SVGID_16_" gradientUnits="userSpaceOnUse" x1="80.8366" y1="199.1418" x2="75.2251" y2="166.7481" gradientTransform="matrix(1 0 0 -1 0 351.2756)">
	<stop  offset="0" style="stop-color:#F2F2F2"/>
	<stop  offset="0.4203" style="stop-color:#B5C5C5"/>
	<stop  offset="0.8404" style="stop-color:#759595"/>
</linearGradient>
<path class="st25" d="M82.8,181.4c1.1,0,2.1-0.7,2.8-1.5c0.7-0.9,1.1-1.9,1.3-3c1.6-6,0.6-12.5-2.5-17.9c-3.5-1-7.4-1.2-10.8,0.4
	c-3.3,1.5-5.9,4.9-5.8,8.6C70.2,181.4,79.2,181.7,82.8,181.4z"/>
<path class="st1" d="M69.2,165.1c0.9-1.2,2.7-1.7,4.4-1.7c3.2,0.1,6,2.1,7.5,4.4c1.7,2.7,2.3,6.1,2.1,9.1c0,0.8-0.2,1.6-0.7,2.3
	c-1.9,2.3-5.7,1.1-7.8-0.3c-2.2-1.6-3.8-3.8-4.8-6C68.9,170.9,67.6,167.3,69.2,165.1z"/>
<path class="st9" d="M86.1,167.4c-0.2-2.6-1-5.2-2.3-7.5c-2.6-0.8-5.5-0.9-8.2-0.1c-1.4,0.4-2.8,1.2-3.3,2.6c4.5-0.1,9.1,2,12,5.4
	C85,167.7,85.6,167.8,86.1,167.4z"/>
<linearGradient id="SVGID_17_" gradientUnits="userSpaceOnUse" x1="79.387" y1="110.1065" x2="69.0142" y2="89.786" gradientTransform="matrix(1 0 0 -1 0 351.2756)">
	<stop  offset="4.356780e-02" style="stop-color:#FFFFFF"/>
	<stop  offset="0.2974" style="stop-color:#FBFBFB"/>
	<stop  offset="0.553" style="stop-color:#EFEFEF"/>
	<stop  offset="0.7039" style="stop-color:#E5E5E4"/>
	<stop  offset="0.802" style="stop-color:#DFDFDE"/>
	<stop  offset="1" style="stop-color:#D7D7D7"/>
</linearGradient>
<path class="st26" d="M77.4,244.3L77.4,244.3c-0.6,4.8-1.6,9.1-3.5,13.7c-2.6,0.5-5.6,0.9-8.3,0.6l0,0c0.4,0.7,0.6,1.2,0.9,1.8
	c2.7,0.3,5.5,0.2,8.1-0.3c2.4-4.4,3.6-9.2,3.5-14.2C78.2,245.4,77.7,244.8,77.4,244.3z"/>
<path class="st2" d="M73.9,258c1.9-4.6,2.9-8.9,3.5-13.7c-2.2,0-4.7,0.2-6.9,0.8c-0.8,3.2-4.1,12.4-4.9,13.5
	C68.3,258.9,71.4,258.5,73.9,258z"/>
<path class="st1" d="M45.7,241.9c-1.1,2.1-2.1,4.4-2.8,6.6c1.2,3.6,2.1,7.3,2.9,11c-1.8,1.7-4.5,2.3-6.9,1.6
	c-2.2-4.3-4.6-13.8-4.6-13.8c0.8-2.3,2-4.5,3.6-6.4C40.4,240.8,43.3,241.1,45.7,241.9z"/>
<path class="st2" d="M31,247.7c0.1,6.3,2.6,12.5,6.7,17c1.7,0.5,4.6,0.2,6.3-0.4l0.1-0.1c-1.9-5-3.6-9.1-5.2-16.2
	C36.3,248.2,33.6,248.1,31,247.7z"/>
<linearGradient id="SVGID_18_" gradientUnits="userSpaceOnUse" x1="43.8289" y1="106.5318" x2="35.2416" y2="91.1428" gradientTransform="matrix(1 0 0 -1 0 351.2756)">
	<stop  offset="4.356780e-02" style="stop-color:#FFFFFF"/>
	<stop  offset="0.2974" style="stop-color:#FBFBFB"/>
	<stop  offset="0.553" style="stop-color:#EFEFEF"/>
	<stop  offset="0.7039" style="stop-color:#E5E5E4"/>
	<stop  offset="0.802" style="stop-color:#DFDFDE"/>
	<stop  offset="1" style="stop-color:#D7D7D7"/>
</linearGradient>
<path class="st27" d="M40.2,246.2c-2.5,0.2-5.3,0.4-7.8,0c-0.3,0.3-1.1,1.1-1.4,1.4l0,0c2.6,0.4,5.3,0.5,7.9,0.3
	c1.6,7.1,3.2,11.3,5.2,16.2l1-1.5C43.2,257.8,41.2,251.4,40.2,246.2z"/>
<path class="st1" d="M58.7,240.7c-0.6,2.3-1,4.7-1.2,7.1c2,3.2,3.7,6.7,5.4,10c-1.4,2.1-3.8,3.3-6.3,3.1c-3.1-3.7-7.6-12.4-7.6-12.4
	c0.2-2.5,0.9-4.9,2-7.1C53.3,240.8,56.2,240.4,58.7,240.7z"/>
<path class="st2" d="M45.7,249.6c1.5,6.2,5.4,11.6,10.4,15.1c1.8,0.1,4.5-0.9,6-1.8l0.1-0.2c-3-4.4-5.5-8.1-8.7-14.6
	C51,248.9,48.3,249.4,45.7,249.6z"/>
<linearGradient id="SVGID_19_" gradientUnits="userSpaceOnUse" x1="56.9255" y1="104.0784" x2="51.9942" y2="88.8593" gradientTransform="matrix(1 0 0 -1 0 351.2756)">
	<stop  offset="4.356780e-02" style="stop-color:#FFFFFF"/>
	<stop  offset="0.2974" style="stop-color:#FBFBFB"/>
	<stop  offset="0.553" style="stop-color:#EFEFEF"/>
	<stop  offset="0.7039" style="stop-color:#E5E5E4"/>
	<stop  offset="0.802" style="stop-color:#DFDFDE"/>
	<stop  offset="1" style="stop-color:#D7D7D7"/>
</linearGradient>
<path class="st28" d="M54.4,246.1c-2.4,0.8-5.1,1.6-7.6,1.8c-0.3,0.3-0.8,1.4-1.1,1.7l0,0c2.7-0.2,5.3-0.7,7.8-1.5
	c3.2,6.5,5.7,10.2,8.7,14.6l0.7-1.7C59.9,256.7,56.5,250.9,54.4,246.1z"/>
<path class="st1" d="M69.8,237.4c1.9,2.3,4.8,7.3,5.3,9.8c-0.1,3.4-0.9,6.8-2.4,9.9c-1.9,0.4-4.3,0.5-6.2,0.4
	c-0.5-0.6-1.1-1.6-1.4-2.4c1-2.1,1.8-6.5,1.8-6.5c-0.4-2.5-2-6.6-3.1-8.8C65.4,238.7,67.9,238,69.8,237.4z"/>
<path class="st1" d="M64.4,194.3c4.1-7.2,9.5-14.1,15.7-19.7c0.2-1.7-0.3-3.5-1.3-4.9s-2.4-2.3-4.1-2.7c-5.4,4.1-10,9.3-13.8,15.5
	C60.5,186.7,62.4,190.7,64.4,194.3z"/>
<path class="st2" d="M52.7,172.9c-7.7,1.1-15.4,3.7-22.8,6.2c-2.8,20.6-2.4,41.7,1.3,62.1c10.1,2,20.7,2,30.7-0.2
	c-4.3-22.3-8-45.4-9.1-68C52.8,172.9,52.7,172.9,52.7,172.9z"/>
<path class="st11" d="M59.5,227.5c-3.2-18.1-5.7-36.5-6.6-54.6c-0.1,0-0.2,0-0.2,0c-7.7,1.1-15.4,3.7-22.8,6.2
	c-1,7.5-1.6,15-1.8,22.5l7.1-1.1c0,0,0.3,8.4,1,14s2.1,14.2,2.1,14.2s3.8,0.5,7.9,0.4C50.6,228.8,59.5,227.5,59.5,227.5L59.5,227.5z
	"/>
<linearGradient id="SVGID_20_" gradientUnits="userSpaceOnUse" x1="62.7486" y1="137.1677" x2="60.4704" y2="98.0852" gradientTransform="matrix(1 0 0 -1 0 351.2756)">
	<stop  offset="4.356780e-02" style="stop-color:#FFFFFF"/>
	<stop  offset="0.2974" style="stop-color:#FBFBFB"/>
	<stop  offset="0.553" style="stop-color:#EFEFEF"/>
	<stop  offset="0.7039" style="stop-color:#E5E5E4"/>
	<stop  offset="0.802" style="stop-color:#DFDFDE"/>
	<stop  offset="1" style="stop-color:#D7D7D7"/>
</linearGradient>
<path class="st29" d="M73.7,236.3c-3.2-19.7-7.8-40.9-9.7-60.7c-3.3-0.9-10-2.4-11.1-2.6c1.1,22.6,4.8,45.7,9.1,68
	c0.1,0,0.2,0,0.3-0.1C62.2,240.9,70,238.2,73.7,236.3z"/>
<linearGradient id="SVGID_21_" gradientUnits="userSpaceOnUse" x1="66.8621" y1="121.4138" x2="54.0682" y2="192.3935" gradientTransform="matrix(1 0 0 -1 0 351.2756)">
	<stop  offset="0" style="stop-color:#FFFFFF"/>
	<stop  offset="0.8404" style="stop-color:#E8E7E7"/>
</linearGradient>
<path class="st30" d="M52.9,172.9c0.8,18.1,3.4,36.5,6.6,54.6c0,0,3.8-1,6.4-2c1.6-0.6,4-1.7,5.5-2.5c-2.8-15.8-5.9-32-7.4-47.5
	C60.6,174.6,53.9,173.1,52.9,172.9z"/>
<path class="st11" d="M71.5,223.5c0-0.3-0.1-0.5-0.1-0.8c-4.1,2.2-8.1,3.6-11.9,4.4l0.1,0.7l0,0C63.3,227.1,67.3,225.6,71.5,223.5z"
	/>
<path class="st18" d="M59.4,227.2c-6.5,1.4-14,1.8-20.6,1.1c-1.2-7.2-2.9-17.8-3.2-27.8v-0.4h-0.4c-2.4,0.2-4.7,0.6-7.1,1.2
	c0,0.3,0,0.5,0,0.8c2.2-0.6,4.5-1,6.7-1.2c0.3,10.1,2,20.7,3.2,27.8v0.3h0.3c2.2,0.2,4.6,0.4,6.9,0.4c4.8,0,9.7-0.5,14.2-1.4V227.2
	L59.4,227.2z"/>
<g>
	<path class="st18" d="M51.2,215.5c-0.1-0.5-0.2-1-0.2-1.5c-3.4,0.4-6.7,0.7-10.1,0.9c0.1,0.5,0.1,0.9,0.2,1.4
		C44.4,216.2,47.8,216,51.2,215.5z"/>
	<path class="st18" d="M50.3,209.8c-0.1-0.5-0.1-1-0.2-1.5c-3.3,0.4-6.6,0.7-9.9,1.1c0,0.5,0.1,0.9,0.1,1.4
		C43.7,210.5,47,210.2,50.3,209.8z"/>
	<path class="st18" d="M50.7,212.7c-0.1-0.5-0.1-1-0.2-1.5c-3.3,0.4-6.7,0.7-10,1c0.1,0.5,0.1,1,0.2,1.4
		C44,213.4,47.4,213.1,50.7,212.7z"/>
	<path class="st18" d="M40,203.8c0,0.5,0,1,0,1.5c3.2-0.4,6.4-0.8,9.6-1.1c0-0.5-0.1-1-0.1-1.5C46.4,202.9,43.2,203.3,40,203.8z"/>
	<path class="st18" d="M50,207c-0.1-0.5-0.1-1-0.2-1.5c-3.2,0.3-6.5,0.7-9.7,1.1c0,0.5,0.1,1,0.1,1.4C43.5,207.7,46.7,207.3,50,207z
		"/>
	<path class="st18" d="M42.9,223.2c-0.2,0-0.4,0-0.7,0c0.1,0.7,0.3,1.4,0.4,2c3.4,0,6.8-0.4,10.2-0.8c-0.1-0.7-0.3-1.4-0.4-2
		C49.3,223,46.1,223.2,42.9,223.2z"/>
	<path class="st18" d="M49.4,201.3c-0.1-0.7-0.1-1.4-0.2-2.1c-3.2,0.3-6.6,0.8-9.2,1.4c0,0.6,0,1.3,0,1.9
		C43.1,201.9,46.3,201.6,49.4,201.3z"/>
	<path class="st18" d="M51.7,218.3c-0.1-0.5-0.2-1-0.3-1.5c-3.4,0.5-6.8,0.8-10.1,0.9c0.1,0.5,0.1,0.9,0.2,1.4
		C44.9,219.1,48.3,218.8,51.7,218.3z"/>
	<path class="st18" d="M52.2,221.1c-0.1-0.5-0.2-1-0.3-1.5c-3.4,0.5-6.8,0.8-10.2,0.8c0.1,0.5,0.2,0.9,0.3,1.4
		C45.4,221.9,48.8,221.7,52.2,221.1z"/>
</g>
<path class="st6" d="M66.5,188.4c3.3-5,7.9-10.8,12.5-14.7c-0.2-1.4-1.2-2.6-2.5-3.2c-3.8,2.8-8.1,7-10.8,10.9
	C65.8,181.5,66.2,186.4,66.5,188.4z"/>
<path class="st1" d="M73,171.3c0.4,0.6,1.1,1.7,1.6,2.7c0.5,1.1,0.7,2,0.7,2s0-1-0.2-2.2s-0.8-2.5-1.2-3.1L73,171.3z"/>
<path class="st1" d="M70,174c0.5,0.5,1.4,1.5,2,2.5s1,1.9,1,1.9s-0.1-1-0.5-2.1c-0.4-1.2-1.1-2.4-1.7-3L70,174z"/>
<path class="st1" d="M66.9,177.3c0.6,0.5,1.6,1.5,2.3,2.6c0.7,1,1.2,2,1.2,2s-0.2-1.1-0.7-2.2c-0.5-1.2-1.4-2.5-2-3L66.9,177.3z"/>
<path class="st9" d="M72,235.3c-1.2,0.9-3,1.6-4.5,2c-3.8-16.8-6.8-34.3-9.4-52.4c-1.3-0.7-2.2-1.6-3.5-2.3
	c-0.3-2.8-0.5-5.5-0.6-8.3c2.9,0.2,5.9,0.9,8.6,1.9C65.6,196,68.3,216,72,235.3z"/>
<path class="st18" d="M46.8,237c-1.3,0-2.6-0.1-3.9-0.3h-0.2v-0.2c-0.8-2.8-1.1-6-1.2-7.7H42c0.1,1.6,0.4,4.7,1.1,7.4
	c3.1,0.5,6.2,0.2,8.4-0.1c-0.1-1-0.5-5.1-0.4-7.3h0.5c-0.1,2.4,0.4,7.4,0.4,7.5v0.2h-0.2C50.4,236.8,48.7,237,46.8,237z"/>
<path class="st18" d="M32.2,200.7c-0.4-3.3-0.4-6.7,0.2-10v-0.2l0.2-0.1c3.5-1.6,7.5-2.7,11.4-3.2c-0.5-4.7-0.4-8.8,0.2-12.6
	l0.7,0.1c-0.6,3.8-0.7,8-0.2,12.7v0.4h-0.4c-3.8,0.4-7.8,1.5-11.3,3.1c-0.5,3.2-0.5,6.4-0.1,9.6L32.2,200.7z"/>
<path class="st18" d="M49.1,182.1l-0.1-3.8c-2.7,0.4-5.4,1-7.9,1.9c-0.2,1.1-0.1,2.4-0.1,3.4C43.2,183.1,46.6,182.4,49.1,182.1z"/>
<path class="st21" d="M48.7,181.8l-0.1-2.8c-2,0.3-4,0.8-5.9,1.5c-0.1,0.8-0.1,1.8,0,2.6C44.3,182.6,46.9,182.1,48.7,181.8z"/>
<path class="st18" d="M49.5,231.1c0,1,0,2.1,0.1,3.1c-1.8,0.2-3.8,0.2-5.6,0c-0.3-0.9-0.5-1.9-0.6-2.9
	C45.5,231.4,47.4,231.4,49.5,231.1z"/>
<path class="st21" d="M46.9,233.7c-0.8,0-1.6,0-2.3-0.1c-0.2-0.6-0.3-1.2-0.4-1.9c0.4,0,0.9,0,1.3,0c1.2,0,2.5-0.1,3.7-0.2
	c0,0.7,0,1.4,0.1,2.1C48.5,233.6,47.7,233.7,46.9,233.7z"/>
<path class="st18" d="M30.2,235v-0.5l4.3-0.4c-1.4-7.4-2.2-14.4-2.3-20.9l-3.9,0.3V213l4.4-0.4v0.3c0.1,6.5,0.9,13.7,2.4,21.3
	l0.1,0.3L30.2,235z"/>
<g>
	<polygon class="st8" points="75.2,125.9 70.6,87.8 69.8,87.9 73.8,126.1 	"/>
	<polygon class="st21" points="70.9,78.1 71.5,88.6 69.2,89 67.8,77.7 	"/>
	<polygon class="st8" points="68.8,133 66.2,112.2 65.8,112.3 68,133.1 	"/>
	<polygon class="st21" points="66.4,106.9 66.7,112.6 65.5,112.9 64.7,106.7 	"/>
	<path class="st8" d="M80.5,131l-1.7-5.3c-0.7-1.8-8.1-1.4-8.4,0.2l-0.6,6.5L80.5,131z"/>
	<path class="st8" d="M81.2,118.7l-0.5-2.5c-0.1-0.6-0.9-0.5-0.8,0.1l0.2,2.5L81.2,118.7z"/>
	<path class="st31" d="M89.5,131.4c0,0-1.7-3.9-3.1-4c-1.4-0.2-1.8,3-1.8,3L89.5,131.4z"/>
	<path class="st8" d="M84.1,131.2l-1.6-11.8c-0.1-1-3.7-0.7-3.6,0.4l1.3,10.9L84.1,131.2z"/>
	<polygon class="st8" points="74.2,122.9 74.6,130.8 71.9,131.4 72.3,123.3 	"/>
	
		<linearGradient id="SVGID_22_" gradientUnits="userSpaceOnUse" x1="73.0239" y1="230.8645" x2="76.4359" y2="218.8384" gradientTransform="matrix(1 0 0 -1 0 351.2756)">
		<stop  offset="0" style="stop-color:#F2F2F2"/>
		<stop  offset="0.4203" style="stop-color:#B5C5C5"/>
		<stop  offset="0.8404" style="stop-color:#759595"/>
	</linearGradient>
	<polygon class="st32" points="74.2,122.9 75.4,123.4 75.5,124.6 75,124.5 75.6,131 74.5,131 	"/>
	<polygon class="st33" points="70.4,78.5 70.8,86.5 69.7,86.6 68.5,78.7 	"/>
	<polygon class="st33" points="66,107.3 66.4,111.7 65.8,111.7 65.2,107.3 	"/>
</g>
<linearGradient id="SVGID_23_" gradientUnits="userSpaceOnUse" x1="85.9178" y1="228.0391" x2="66.7305" y2="198.735" gradientTransform="matrix(1 0 0 -1 0 351.2756)">
	<stop  offset="0" style="stop-color:#F2F2F2"/>
	<stop  offset="0.4203" style="stop-color:#B5C5C5"/>
	<stop  offset="0.8404" style="stop-color:#759595"/>
</linearGradient>
<path class="st34" d="M65.9,133.6c-0.3,7,0.4,14,2.1,20.8c1.2,0.5,2.6,0.9,3.8,0.7c2.5-0.4,5.1-1.1,7.6-1.7
	c-0.9-4.9-0.9-10.1-0.4-15l12.5-5.9c-0.4-0.7-1.1-1.8-1.6-2.4c-5.3-0.6-10.5-0.6-15.5,0C71.3,130.8,68.4,131.9,65.9,133.6z"/>
<path class="st8" d="M75.6,152.1c-1.3-7.2-1.8-14.6-1.5-21.9c-3,0.6-5.8,1.7-8.2,3.3c-0.3,7,0.4,14,2.1,20.8
	C70.6,153.9,73.2,153.2,75.6,152.1z"/>
<g>
	<path class="st35" d="M77,152.7c-0.6-0.2-0.8-0.4-1.4-0.6c-2.3,1-5.1,1.7-7.6,2.2c0,0,0,0,0,0.1c1.2,0.5,2.6,0.9,3.8,0.7
		c2.5-0.4,5.1-1.1,7.5-1.6C78.6,153.2,77.8,153,77,152.7z"/>
</g>
<path class="st9" d="M75.1,130.9l2.3,5.6c1.6-0.2,3.5-0.2,5.5-0.1l7.6-3.4l-1-2.1C84.7,130.1,79.9,130,75.1,130.9z"/>
</svg>
