<?xml version="1.0" encoding="utf-8"?>
<!-- Generator: Adobe Illustrator 22.0.0, SVG Export Plug-In . SVG Version: 6.00 Build 0)  -->
<svg version="1.1" id="Layer_1" xmlns="http://www.w3.org/2000/svg" xmlns:xlink="http://www.w3.org/1999/xlink" x="0px" y="0px"
	 viewBox="0 0 245.9 350.1" style="enable-background:new 0 0 245.9 350.1;" xml:space="preserve">
<style type="text/css">
	.st0{fill:#C7C7C7;}
	.st1{fill:#4B6D73;}
	.st2{fill:#C62026;}
	.st3{fill:#EFEFEF;}
	.st4{fill:url(#SVGID_1_);}
	.st5{opacity:0.85;fill:#FFF7CD;enable-background:new    ;}
	.st6{fill:url(#SVGID_2_);}
	.st7{fill:#3C5A5F;}
	.st8{opacity:0.65;fill:#C7C7C7;}
	.st9{fill:#D7D7D7;}
	.st10{fill:url(#SVGID_3_);}
	.st11{fill:#99999A;}
	.st12{fill:#D3D3D3;}
	.st13{fill:url(#SVGID_4_);}
	.st14{fill:#2A3E51;}
	.st15{fill:url(#SVGID_5_);}
	.st16{fill:url(#SVGID_6_);}
	.st17{fill:#477087;}
	.st18{fill:#E2E2E2;}
	.st19{fill:url(#SVGID_7_);}
	.st20{fill:url(#SVGID_8_);}
	.st21{fill:url(#SVGID_9_);}
	.st22{fill:url(#SVGID_10_);}
	.st23{fill:url(#SVGID_11_);}
	.st24{fill:url(#SVGID_12_);}
	.st25{fill:url(#SVGID_13_);}
	.st26{fill:url(#SVGID_14_);}
	.st27{fill:#9D9D9D;}
	.st28{fill:url(#SVGID_15_);}
	.st29{fill:url(#SVGID_16_);}
	.st30{fill:url(#SVGID_17_);}
	.st31{fill:url(#SVGID_18_);}
	.st32{fill:url(#SVGID_19_);}
	.st33{fill:url(#SVGID_20_);}
	.st34{fill:url(#SVGID_21_);}
	.st35{fill:url(#SVGID_22_);}
	.st36{fill:url(#SVGID_23_);}
	.st37{fill:url(#SVGID_24_);}
	.st38{fill:url(#SVGID_25_);}
	.st39{fill:url(#SVGID_26_);}
</style>
<g>
	<polygon class="st0" points="173.3,254.7 62.3,258.6 43.4,57.9 191.1,46.2 	"/>
	<path class="st0" d="M222.2,44.9c-4.8,0-11.5,0.2-19.8,0.5c0-0.5,0.1-0.9,0.1-1.3c0-0.6,0.1-1.1,0.1-1.6c7.9-0.9,12.5-1.4,12.4-1.6
		c0-0.2-4.6,0-12.4,0.6c0-0.4,0-0.7,0-1c0-0.9-0.1-1.3-0.3-1.4c-0.2,0-0.4,0.4-0.6,1.3c-0.1,0.3-0.2,0.7-0.3,1.1
		c-2.5,0.2-5.2,0.4-8.2,0.6c0.2-4.4,0.2-6.9,0-6.9c-0.3,0-0.8,2.5-1.6,7c-0.1,0-0.1,0-0.2,0c-7.3,0.6-15.9,1.3-25.6,2.2
		c-9.6,0.9-20.2,1.8-31.3,2.9c-11.1,1.1-21.6,2.1-31.2,3c-9.6,1-18.2,1.8-25.5,2.6c-14.5,1.5-23.5,2.5-23.4,2.8
		c0,0.3,9.1-0.3,23.6-1.4c7.3-0.6,15.9-1.3,25.6-2.2c9.6-0.9,20.2-1.8,31.3-2.9c11.1-1,21.6-2.1,31.2-3c9.5-0.9,18.1-1.8,25.3-2.6
		c-0.1,0.7-0.2,1.5-0.4,2.3c-7,0.4-14.6,0.8-22.9,1.4c-12.1,0.8-25.5,1.9-39.4,3c-14,1.2-27.3,2.3-39.4,3.4c-12.1,1-23,2-32.1,2.8
		c-4.9,0.4-9.2,0.8-13,1.1c-0.2-1.1-0.3-2.1-0.4-3.1C42.9,49,42.3,46,42,46s-0.3,3.1-0.1,8.6c0,1,0.1,2,0.2,3.1
		c-2.5,0.2-4.7,0.4-6.6,0.6c-1,0.1-2,0.2-2.8,0.3c0-0.1,0-0.2-0.1-0.3c-0.2-1.2-0.5-2.1-0.7-2.7c-0.2-0.6-0.5-1-0.6-0.9
		c-0.2,0-0.2,0.4-0.3,1c0,0.7,0,1.6,0,2.8c0,0.1,0,0.2,0,0.4c-2.2,0.3-3.4,0.5-3.4,0.7s1.2,0.3,3.4,0.3c0.1,1.2,0.1,2.5,0.2,3.9
		c-3,0.3-5.7,0.6-8.1,0.9c-6.2,0.7-10,1.2-10,1.5s3.9,0.2,10.2-0.1c2.4-0.1,5.1-0.3,8.1-0.5c0,0.7,0.1,1.4,0.2,2.1
		c0.3,3.5,0.6,6.7,0.9,9s0.6,3.7,0.9,3.7c0.3,0,0.6-1.4,0.7-3.8c0.1-2.3,0.1-5.6-0.2-9.1c-0.1-0.7-0.1-1.4-0.2-2.1
		c0.2,0,0.4,0,0.6,0c2.6-0.2,5.3-0.4,8.2-0.7c0.2,3.9,0.5,8.4,0.9,13.3c1.3,19.6,3.4,46.7,6.1,76.6c2.7,29.9,5.5,57,7.9,76.5
		c0,0.3,0.1,0.7,0.1,1c-0.6,0.1-1.2,0.1-1.8,0.2c-0.4-3.1-0.8-6.6-1.2-10.6c-1.8-14.8-4.3-35.3-6.8-57.9
		c-1.3-11.3-2.5-22.1-3.5-31.9c-1-9.8-1.9-18.6-2.6-26c-1.4-14.8-2-24-2.4-24c-0.2,0-0.2,2.3-0.1,6.5c0.1,4.2,0.4,10.2,0.8,17.6
		c0.5,7.4,1.2,16.3,2.1,26.1c0.9,9.8,2,20.6,3.3,31.9c2.6,22.6,5.3,43,7.5,57.8c0.6,3.9,1.1,7.5,1.6,10.6c-0.5,0-1,0.1-1.5,0.2
		c-1.8,0.2-3.5,0.4-4.8,0.6c-1.4,0.2-2.5,0.4-3.2,0.6c-0.8,0.2-1.2,0.4-1.1,0.5c0,0.1,0.5,0.2,1.3,0.2s1.9,0,3.3,0
		c1.4,0,3-0.1,4.9-0.2c0.5,0,1-0.1,1.6-0.1c0.3,1.9,0.6,3.6,0.8,5.1c0.7,4.1,1.2,6.4,1.3,6.4c0.2,0,0-2.3-0.4-6.5
		c-0.2-1.5-0.3-3.2-0.5-5.1c0.6,0,1.2-0.1,1.9-0.1c1.1,8.4,2.1,15.3,3,20.2c0.3,1.4,0.5,2.7,0.7,3.8c-1.9,0.2-3.6,0.5-5,0.7
		c-3.5,0.5-5.4,1-5.4,1.2c0,0.3,2,0.3,5.6,0.3c1.5,0,3.3-0.1,5.3-0.1c0,0.1,0.1,0.3,0.1,0.4c0.4,1.4,0.6,2.2,0.8,2.1
		c0.2,0,0.2-0.8,0.1-2.2c0-0.1,0-0.2,0-0.4c1,0,2.1-0.1,3.2-0.1c0.2,1.4,0.4,2.5,0.5,3.3c0.2,1,0.3,1.6,0.5,1.6s0.3-0.6,0.4-1.6
		c0.1-0.8,0.1-2,0.1-3.3c1.3-0.1,2.7-0.1,4.1-0.2c6.4-0.3,13.9-0.7,22.3-1.1c2.9-0.1,5.9-0.3,8.9-0.4c-4.1,0.4-7.8,0.8-11.1,1.3
		c-5.1,0.6-9.2,1.2-12.1,1.7c-2.8,0.5-4.4,0.8-4.4,0.9s1.6,0.1,4.5-0.2c2.9-0.2,7-0.6,12.2-1.1c10.3-0.9,24.4-2.1,40.1-2.9
		c7.8-0.4,15.3-0.7,22.1-0.8c6.8-0.1,12.9-0.1,18.1-0.1c0.5,0,0.9,0,1.4,0c0,0.5,0,0.9,0,1.3c-2-0.1-4.3-0.2-6.8-0.2
		c-3.2-0.1-6.7-0.1-10.4,0s-7.2,0.2-10.4,0.4c-3.2,0.2-6.1,0.5-8.5,0.8s-4.3,0.7-5.6,0.9c-1.3,0.3-2,0.5-2,0.7
		c0,0.1,0.8,0.1,2.1,0.1c1.3-0.1,3.3-0.2,5.7-0.3c2.4-0.1,5.2-0.3,8.4-0.4s6.6-0.2,10.3-0.3c3.7-0.1,7.2-0.1,10.3-0.1
		c2.5,0,4.8-0.1,6.8-0.1c0.1,2.3,0.3,3.5,0.5,3.5s0.4-1.2,0.7-3.6c0.2,0,0.3,0,0.5,0c2.4,0,4.4-0.1,5.7-0.2s2.1-0.2,2.1-0.3
		c0-0.1-0.7-0.3-2.1-0.4c-1.3-0.1-3.3-0.3-5.7-0.4c-0.1,0-0.2,0-0.4,0c0-0.4,0.1-0.9,0.1-1.4c3.8,0.1,7,0.2,9.3,0.2
		c2.9,0.1,4.5,0.1,4.5-0.1c0-0.1-1.6-0.4-4.4-0.7c-2.3-0.2-5.4-0.5-9.2-0.7c0-0.1,0-0.3,0-0.4c4.3-0.2,7.9-0.4,10.5-0.5
		c3.6-0.2,5.5-0.5,5.5-0.8s-2-0.5-5.5-0.7c-2.6-0.2-6.1-0.3-10.3-0.4c0.5-5.7,1.1-13.5,1.9-22.9c0.7-8.2,1.4-17.6,2.3-28
		c0.5,0,1.1,0,1.6,0c5.6,0,10.1-0.4,10.1-1c0-0.5-4.5-1-10.1-1c-0.5,0-1,0-1.4,0c0.2-2.1,0.4-4.2,0.5-6.3
		c1.2-13.6,2.4-28.6,3.8-44.4c1.5-16.8,2.8-32.8,4.1-47.1c0.5,0,1,0,1.6,0c-0.5,6.2-1,12.7-1.5,19.5c-1.4,18.5-2.6,35.2-3.5,47.3
		l-1,14.3c-0.1,1.7-0.2,3-0.3,3.9c0,0.9,0,1.4,0,1.4c0.1,0,0.2-0.4,0.4-1.3c0.2-0.9,0.4-2.2,0.7-3.9c0.5-3.4,1.1-8.3,1.8-14.3
		c1.3-12.1,2.7-28.8,4.1-47.3c0.5-6.8,1-13.4,1.5-19.7c0.6,0,1.2-0.1,1.9-0.1c3.5-0.2,6.7-0.4,9-0.7c2.3-0.3,3.7-0.6,3.7-0.8
		c0-0.3-1.5-0.4-3.8-0.5s-5.5-0.1-9.1,0.1c-0.5,0-1.1,0.1-1.6,0.1c0.1-1,0.1-1.9,0.2-2.9c0.8-0.1,1.5-0.2,2.2-0.3c1.9-0.3,3-0.7,3-1
		s-1.2-0.4-3.1-0.4c-0.6,0-1.2,0-1.9,0c0.6-7.9,1.1-15.1,1.5-21.1l1-14.3l0.3-3.9c0.1-0.9,0.1-1.4,0-1.4s-0.3,0.4-0.5,1.3
		c-0.2,0.9-0.4,2.2-0.7,3.9c-0.5,3.4-1.1,8.3-1.7,14.3c-0.6,6.1-1.3,13.3-2,21.3c-0.5,0-1,0-1.6,0.1c0.8-10,1.6-19.1,2.3-27
		c0.6-7.8,1.1-14.5,1.5-19.8c2.6-0.2,5-0.4,7.3-0.6c-0.4,2.3-0.7,4.8-1.1,7.5c-0.6,4.6-1,8.9-1.1,11.9c-0.2,3.1-0.1,5,0.3,5
		c0.3,0,0.8-1.8,1.4-4.9c0.6-3,1.2-7.2,1.8-11.8c0.4-2.8,0.7-5.5,0.9-7.9c8.4-0.7,15.3-1.2,20.1-1.7c5.1-0.5,7.9-0.8,7.9-1.1
		C230.2,45,227.3,44.9,222.2,44.9z M34,63.5c-0.2,0-0.4,0-0.6,0.1c-0.2-1.3-0.3-2.6-0.5-3.7c0.8,0,1.7,0,2.7,0
		c1.9,0,4.1-0.1,6.5-0.1c0.1,0.9,0.1,1.9,0.2,2.9C39.4,62.9,36.6,63.2,34,63.5z M62.4,254c-0.4-4.9-0.9-11.9-1.6-20.3
		c0.8-0.1,1.7-0.2,2.4-0.2c0,1.1,0.1,2.2,0.2,3.4c0.2,2.4,0.4,5.1,0.7,7.8c0.5,4.9,1.1,9.3,1.6,12.7c-1,0.1-2,0.2-3,0.3
		C62.6,256.7,62.5,255.5,62.4,254z M173.7,255.6c-0.4,0-0.9,0-1.3-0.1c-0.6,0-1.2-0.1-1.8-0.1c0.1,0,0.2,0,0.3,0
		c1,0,1.9-0.1,2.8-0.1C173.7,255.5,173.7,255.5,173.7,255.6z M190.4,97.5c-0.1,0.9-0.2,1.9-0.2,2.8c-0.5,0-1.1,0.1-1.6,0.1
		c0.1-0.9,0.2-1.9,0.2-2.8C189.3,97.6,189.9,97.5,190.4,97.5z M187.9,68.4c-1,8-2,17.3-3.1,27.5c-2,0.2-3.7,0.3-5.1,0.5
		c-1.9,0.3-3,0.6-3,0.9s1.2,0.4,3.1,0.5c1.3,0.1,3,0.1,4.8,0c-0.1,1-0.2,2.1-0.3,3.1c-1.9,0.3-3.1,0.6-3.1,0.9
		c0,0.2,1.1,0.4,2.9,0.4c-1.5,14.3-3,30.1-4.5,46.8c-1.4,15.8-2.5,30.8-3.4,44.4c-0.2,2.3-0.3,4.5-0.4,6.7c-2.7,0.2-4.5,0.5-4.5,0.8
		s1.7,0.6,4.4,0.8c-0.7,10.4-1.2,19.8-1.5,28c-0.4,9.5-0.6,17.3-0.6,23c-0.9,0-1.9,0-2.8-0.1c-6.4-0.1-14-0.1-22.4,0
		s-17.7,0.3-27.4,0.7s-19,0.9-27.4,1.5s-16,1.3-22.3,1.9c-1.3,0.1-2.6,0.3-3.9,0.4c-0.2-3.5-0.6-7.9-1.1-12.7
		c-0.3-2.8-0.6-5.4-0.9-7.8l-0.4-3.5c1.8-0.2,3.3-0.5,4.7-0.7c1.4-0.3,2.5-0.5,3.2-0.8c0.7-0.2,1.1-0.4,1.1-0.6
		c0-0.1-0.5-0.2-1.3-0.2s-1.9,0.1-3.3,0.2c-1.3,0.1-2.9,0.2-4.6,0.3l-0.1-1.1c-0.2-1.8-0.4-3.3-0.5-4.3c-0.2-1-0.3-1.6-0.5-1.6
		s-0.3,0.6-0.4,1.6c-0.1,1-0.2,2.5-0.2,4.3c0,0.4,0,0.7,0,1.1c-0.8,0.1-1.7,0.1-2.6,0.2c0-0.3-0.1-0.6-0.1-1
		c-1.6-19.6-3.9-46.7-6.6-76.6c-2.7-29.9-5.3-57-7.5-76.6c-0.5-4.9-1.1-9.4-1.5-13.3c0.9-0.1,1.8-0.2,2.6-0.2
		c4.7-0.4,9.3-0.9,13.4-1.3c4.1-0.4,7.8-0.8,10.9-1.1c6.2-0.7,10-1.2,10-1.5s-3.9-0.2-10.2,0.1c-3.1,0.2-6.8,0.4-11,0.7
		c-4.1,0.3-8.6,0.7-13.4,1.1c-0.9,0.1-1.8,0.2-2.6,0.2c-0.1-0.9-0.2-1.9-0.4-2.7c3.8-0.1,8.2-0.3,13-0.5c9.2-0.4,20.1-1.1,32.3-1.9
		c12.1-0.9,25.4-1.9,39.4-3.1c14-1.2,27.3-2.3,39.4-3.3c7.9-0.7,15.3-1.3,22-1.8C189.7,54.3,188.9,60.8,187.9,68.4z M200.4,45.5
		c-2.4,0.1-4.9,0.2-7.4,0.3c0.1-0.8,0.1-1.6,0.1-2.4c2.9-0.3,5.6-0.6,8-0.8c-0.1,0.4-0.2,0.8-0.3,1.3s-0.2,1-0.3,1.6
		C200.5,45.5,200.4,45.5,200.4,45.5z"/>
</g>
<g>
	<g>
		<polygon class="st1" points="122.1,101.5 117.4,62.5 116.5,62.6 120.7,101.6 		"/>
		<polygon class="st2" points="117.7,52.6 118.4,63.3 116,63.7 114.5,52.2 		"/>
		<polygon class="st1" points="115.5,108.7 112.9,87.5 112.5,87.5 114.7,108.7 		"/>
		<polygon class="st2" points="113.1,82 113.5,87.9 112.2,88.1 111.3,81.8 		"/>
		<path class="st1" d="M127.5,106.6l-1.8-5.4c-0.7-1.8-8.3-1.4-8.6,0.2l-0.6,6.7L127.5,106.6z"/>
		<path class="st1" d="M128.2,94.1l-0.5-2.5c-0.1-0.6-0.9-0.5-0.8,0.1l0.2,2.6L128.2,94.1z"/>
		<path class="st3" d="M136.8,107c0,0-1.7-3.9-3.2-4.1c-1.4-0.2-1.9,3-1.9,3L136.8,107z"/>
		<path class="st1" d="M131.2,106.8l-1.6-12.1c-0.1-1.1-3.8-0.7-3.6,0.4l1.4,11.1L131.2,106.8z"/>
		<polygon class="st1" points="121.1,98.3 121.5,106.4 118.7,107 119.2,98.7 		"/>
		
			<linearGradient id="SVGID_1_" gradientUnits="userSpaceOnUse" x1="119.8851" y1="255.4512" x2="123.3721" y2="243.1609" gradientTransform="matrix(1 0 0 -1 0 351.2756)">
			<stop  offset="0" style="stop-color:#F2F2F2"/>
			<stop  offset="0.4203" style="stop-color:#B5C5C5"/>
			<stop  offset="0.8404" style="stop-color:#759595"/>
		</linearGradient>
		<polygon class="st4" points="121.1,98.3 122.3,98.8 122.4,100.1 121.9,100 122.5,106.7 121.4,106.7 		"/>
		<polygon class="st5" points="117.2,53 117.6,61.2 116.5,61.3 115.2,53.2 		"/>
		<polygon class="st5" points="112.7,82.4 113.1,86.9 112.5,87 111.9,82.5 		"/>
	</g>
	
		<linearGradient id="SVGID_2_" gradientUnits="userSpaceOnUse" x1="133.0955" y1="252.5395" x2="113.4868" y2="222.5918" gradientTransform="matrix(1 0 0 -1 0 351.2756)">
		<stop  offset="0" style="stop-color:#F2F2F2"/>
		<stop  offset="0.4203" style="stop-color:#B5C5C5"/>
		<stop  offset="0.8404" style="stop-color:#759595"/>
	</linearGradient>
	<path class="st6" d="M112.6,109.3c-0.3,7.2,0.4,14.4,2.1,21.3c1.2,0.5,2.6,1,3.9,0.8c2.5-0.4,5.3-1.1,7.8-1.7
		c-0.9-5-0.9-10.3-0.4-15.4l12.8-6.1c-0.4-0.7-1.2-1.8-1.6-2.4c-5.4-0.6-10.7-0.6-15.9,0C118.1,106.4,115.2,107.6,112.6,109.3z"/>
	<path class="st1" d="M122.5,128.3c-1.3-7.4-1.8-14.9-1.5-22.4c-3.1,0.7-5.9,1.7-8.4,3.4c-0.3,7.1,0.4,14.3,2.1,21.2
		C117.4,130,120.1,129.3,122.5,128.3z"/>
	<g>
		<path class="st7" d="M123.9,128.8c-0.6-0.2-0.9-0.4-1.4-0.6c-2.4,1-5.2,1.8-7.8,2.2v0.1c1.2,0.5,2.6,1,3.9,0.8
			c2.5-0.4,5.2-1.1,7.7-1.7C125.6,129.4,124.7,129.1,123.9,128.8z"/>
	</g>
	<path class="st8" d="M122,106.6l2.3,5.7c1.7-0.2,3.6-0.2,5.6-0.1l7.8-3.5l-1.1-2.2C131.8,105.7,126.9,105.6,122,106.6z"/>
</g>
<path class="st9" d="M193.4,112.4c-4.9,1.9-12.9,6.8-16.7,10.3c0,8.9,1.2,19.3,4.5,27.7c6.7-1.5,13.7-3.9,19.7-6.9
	C199.2,133,196.7,122.6,193.4,112.4z"/>
<linearGradient id="SVGID_3_" gradientUnits="userSpaceOnUse" x1="202.3272" y1="243.1428" x2="203.9698" y2="202.6248" gradientTransform="matrix(1 0 0 -1 0 351.2756)">
	<stop  offset="4.356780e-02" style="stop-color:#FFFFFF"/>
	<stop  offset="0.2974" style="stop-color:#FBFBFB"/>
	<stop  offset="0.553" style="stop-color:#EFEFEF"/>
	<stop  offset="0.7039" style="stop-color:#E5E5E4"/>
	<stop  offset="0.802" style="stop-color:#DFDFDE"/>
	<stop  offset="1" style="stop-color:#D7D7D7"/>
</linearGradient>
<path class="st10" d="M212.8,144.6c0.4-9.8-1.6-20.2-5.7-29.2c-3.5-1.2-13.7-3.1-13.7-3.1h-0.1c3.3,10.2,5.8,20.6,7.4,31.1
	c-0.1,0-0.2,0.1-0.2,0.1c3.9,0.7,8,1,12,1.1C212.7,144.7,212.8,144.7,212.8,144.6z"/>
<path class="st11" d="M200.6,143.6c-5.9,3-12.8,5.3-19.4,6.8c0.2,0.5,0.4,1.1,0.6,1.6c9.6-0.2,22.2-3.1,30.9-7.3
	C208.6,144.6,204.5,144.4,200.6,143.6z"/>
<g>
	<path class="st12" d="M220,161.4c-9.3,3-17.9,6.2-27.1,9.3c-2.5,14.3-7.7,35.2-12.6,49.3l32.2-3.4C216.5,199.2,219,180.8,220,161.4
		z"/>
	<path class="st12" d="M180.3,220c2.7,2.8,6.1,7.7,8.5,10.8c11,0.7,24.7-0.2,35.2-1.1c-3.7-4.9-7.5-9.3-11.5-13L180.3,220z"/>
	
		<linearGradient id="SVGID_4_" gradientUnits="userSpaceOnUse" x1="205.923" y1="185.5518" x2="185.3784" y2="127.6537" gradientTransform="matrix(0.991 -0.1337 -0.1337 -0.991 46.8186 389.3037)">
		<stop  offset="0" style="stop-color:#FFFFFF"/>
		<stop  offset="0.8404" style="stop-color:#E8E7E7"/>
	</linearGradient>
	<path class="st13" d="M220,161.4c-1,19.3-3.5,37.7-7.4,55.1c4,3.7,7.8,8.1,11.5,13c5.6-17.6,7.5-37.9,8.8-57.5
		C229.1,167.2,225.4,164.2,220,161.4z"/>
	<path class="st14" d="M203.1,214.1c1.6-0.4,3.2-0.3,4.8,0.3c2.3,4.8,3.6,10.3,3.8,15.6c-3.2,4.4-7.7,7.7-13,9.1
		c-5.3,1.4-10.9,1.1-16.2-0.1c-0.2-4.8,0.3-9.9,1.5-14.6c0,0.1,0.1,0.1,0.1,0.2c1-0.2,1.9-0.6,2.9-0.7c0.6-2.6,1.1-4.8,1.7-7.4
		C193.2,215,198.3,214.4,203.1,214.1z"/>
	<path class="st9" d="M220,161.4c-9.3,3-17.9,6.2-27.1,9.3c-1.5,8.6-4,19.5-6.7,29.9c3.5-0.6,13.4-2.1,15.5-2.5
		c2.3-0.4,12.9-2.7,15-3.1C218.2,184.1,219.4,172.9,220,161.4z"/>
	<path class="st14" d="M213.2,176c-0.5,2.9-2.1,5.5-4.4,7.3c-2.3,1.7-5.3,2.6-8.2,2.2c-0.9-0.1-1.8-0.3-2.5-0.8
		c-2.1-1.3-0.9-3.5-0.6-5.5c0.4-2.3,0.7-4.6,0.9-7c4.4-1.9,9.3-3.3,14.1-3.6C213,171.4,213.6,173.3,213.2,176z"/>
	
		<linearGradient id="SVGID_5_" gradientUnits="userSpaceOnUse" x1="198.144" y1="143.3121" x2="209.0388" y2="214.9066" gradientTransform="matrix(0.991 -0.1337 -0.1337 -0.991 46.8186 389.3037)">
		<stop  offset="0" style="stop-color:#FFFFFF"/>
		<stop  offset="0.4786" style="stop-color:#EEEEEE"/>
		<stop  offset="1" style="stop-color:#D7D7D7"/>
	</linearGradient>
	<path class="st15" d="M220,161.4c-0.6,11.5-1.7,22.7-3.4,33.5c0.2-0.1,0.4-0.1,0.4-0.1s5,4,7.1,6.4c1.6,1.8,3.9,4.6,5,6
		c1.9-11.5,2.9-23.5,3.6-35.2C229.1,167.2,225.4,164.2,220,161.4z"/>
	<path class="st14" d="M211.4,173.6c-1.1,2.2-3,4-5.3,5c-2.3,0.9-4.7,0.7-7-0.1c-2.2-9.6-5.7-19-10.5-27.6c2.4-1.5,4.7-2.8,7.5-3.3
		C202.3,155,208,164.6,211.4,173.6z"/>
	<path class="st11" d="M216.5,195.6c0.1-0.4,0.1-0.8,0.2-1.2l0,0h-0.2c-8.8,2.1-19,4-30.2,5.7c-0.1,0.4-0.2,0.8-0.3,1.2
		C197.3,199.7,207.6,197.7,216.5,195.6z"/>
	<path class="st9" d="M229.2,206.6c-3-3.8-8.7-10.2-12.4-12l-0.2-0.1c-0.1,0.4-0.1,0.8-0.2,1.2l0,0c3.9,2,10,9.2,12.5,12.5
		C229.1,207.6,229.2,207.1,229.2,206.6z"/>
	<g>
		<path class="st12" d="M187.1,222.9c-2.4-0.6-4.9-0.3-7.2,0.7c-2.2,5.1-3.3,10.6-3.1,16.2c0.8,0.3,2.4,0.9,2.4,0.9
			c3.1,1.1,6.2,1.8,9.5,1.5c0.9-5.6,1-12,0.7-17.6L187.1,222.9z"/>
		<path class="st12" d="M186.8,222.4c4.8-1.8,10.1-2.5,15.2-1.9c1.4-2.4,2.9-5.3,2.2-7.9l-2.1-2.1c-5.8-0.5-11.4,0.7-16.6,3.3
			c-1,2.2-1.4,4.6-1.1,7L186.8,222.4z"/>
		<path class="st12" d="M196.6,221c-1.1,0.1-2.3,0.1-3.4,0.4c-1.1,0.3-2.3,0.6-3.1,1.4c-0.5,6.3,0.1,12.8,1.9,18.8l2.1,0.8
			c3.9,0,7.6-0.8,11-2.7c-0.7-5.9-2.7-12.4-6.4-17.1L196.6,221z"/>
	</g>
	
		<linearGradient id="SVGID_6_" gradientUnits="userSpaceOnUse" x1="183.3718" y1="158.8802" x2="157.4394" y2="130.0876" gradientTransform="matrix(0.991 -0.1337 -0.1337 -0.991 46.8186 389.3037)">
		<stop  offset="0" style="stop-color:#FFFFFF"/>
		<stop  offset="0.8404" style="stop-color:#E8E7E7"/>
	</linearGradient>
	<path class="st16" d="M186.5,241.3c-3.4,0.2-6.5-0.4-9.7-1.7c-0.2-5.5,0.9-11.1,3.1-16.2c2.3-0.9,4.8-1.2,7.2-0.7
		C187.4,228.8,187.4,235.5,186.5,241.3z M196.6,221c-1.1,0.1-2.3,0.1-3.4,0.4c-1.1,0.3-2.3,0.6-3.1,1.4c-0.5,6.3,0.1,12.8,1.9,18.8
		c3.9,0,7.8-0.8,11.2-2.7C202.5,232.8,200.5,225.9,196.6,221z M202.1,210.4c-5.8-0.5-11.4,0.7-16.6,3.3c-1,2.2-1.4,4.6-1.1,7
		c4.9-1.9,10.3-2.5,15.4-1.9C201.3,216.3,202.8,213.2,202.1,210.4z"/>
	<path class="st11" d="M206.2,197.2l-0.5-0.1c0.4-3.3,1-6.5,1.8-9.7v-0.1l0.1-0.1c2.1-0.9,4.5-1.8,6.9-2.3
		c1.5-7.3,2.2-14.8,1.9-22.4h0.5c0.3,7.7-0.4,15.3-1.9,22.7v0.2h-0.2c-2.3,0.5-4.7,1.4-6.8,2.3C207.2,190.8,206.6,194,206.2,197.2z"
		/>
	<path class="st17" d="M207.8,168.7c-0.5,2.5-1.9,5-3.7,6.7c-2.7-8.3-6.3-16.3-10.8-23.8c1.2-0.8,2.3-1.4,3.7-1.6
		C201.5,155.7,205.2,162.2,207.8,168.7z"/>
	<path class="st14" d="M193.9,156.1c0.6-0.3,1.6-1,2.4-1.6c0.8-0.6,1.4-1.3,1.4-1.3s-0.8,0.4-1.7,0.8c-0.9,0.4-2,0.8-2.6,1.1
		L193.9,156.1z"/>
	<path class="st14" d="M196.3,160.7c0.7-0.1,1.9-0.6,2.8-1.2c0.9-0.6,1.4-1.3,1.4-1.3s-0.7,0.5-1.7,0.9c-0.9,0.4-2.1,0.6-2.7,0.6
		L196.3,160.7z"/>
	<path class="st14" d="M198.3,165.8c0.9-0.2,2.4-0.9,3.6-1.7c1.2-0.8,2-1.6,2-1.6s-1,0.6-2.3,1.1c-1.3,0.6-2.8,1-3.6,1.2
		L198.3,165.8z"/>
	<path class="st14" d="M200.6,170.8c0.9-0.4,2.4-1.3,3.5-2.4c1.1-1,1.8-2,1.8-2s-0.9,0.8-2.2,1.6c-1.2,0.8-2.8,1.5-3.6,1.8
		L200.6,170.8z"/>
	<path class="st8" d="M231.4,172.1c-0.3,18.1-3.3,36.1-8.4,53.5c-1.5-2.4-3.5-4.7-5.7-6.5c3.6-13.9,6.1-28.4,7.2-42.7
		c-1.1-1.5-2.3-2.8-3.7-4c0.1-2.7,0.2-5.7,0.3-8.4C224.5,166.1,228.8,169.2,231.4,172.1z"/>
	<path class="st11" d="M186.4,210c-1,0.1-2,0.2-3,0.3v-0.5c3.1-0.1,6.4-0.8,9.3-1.7c1.4-2.9,2.3-5.9,2.7-8.7l0.5,0.1
		c-0.4,2.8-1.3,6-2.8,9v0.1H193C190.9,209.1,188.7,209.7,186.4,210z"/>
</g>
<path class="st11" d="M94.7,175.7c19,6.5,40.9,7,57.9,6.1c7.1-0.8,14.3-3.9,20.8-7c-14-0.8-30.4-1.1-49.3-3.6
	C111.5,172.7,104.9,174.3,94.7,175.7z"/>
<path class="st9" d="M121.1,110.2c-9.9,2.5-20.4,6.1-29.7,10.3c-1.7,17.8-1.1,37.8,3.2,55.1h0.1c10.1-1.4,16.7-3,29-4.5
	C120.1,151.1,119.2,130.5,121.1,110.2z"/>
<path class="st18" d="M91.1,145.4c0.2,1.9,0.4,3.9,0.6,5.8c5.6,2.5,12.1,3.2,18.1,2c4.9-11.1,7.2-23,5.9-35
	C104.1,123.8,89.9,132.7,91.1,145.4z"/>
<linearGradient id="SVGID_7_" gradientUnits="userSpaceOnUse" x1="167.5264" y1="166.2767" x2="143.1608" y2="254.1572" gradientTransform="matrix(1 0 0 -1 0 351.2756)">
	<stop  offset="4.356780e-02" style="stop-color:#FFFFFF"/>
	<stop  offset="0.2974" style="stop-color:#FBFBFB"/>
	<stop  offset="0.553" style="stop-color:#EFEFEF"/>
	<stop  offset="0.7039" style="stop-color:#E5E5E4"/>
	<stop  offset="0.802" style="stop-color:#DFDFDE"/>
	<stop  offset="1" style="stop-color:#D7D7D7"/>
</linearGradient>
<path class="st19" d="M121.2,110.2c-0.1,0-0.1,0-0.2,0c-1.8,20.3-0.9,40.9,2.7,60.9c0.1,0,0.2,0,0.3,0c18.9,2.5,35.3,2.8,49.3,3.6
	c0.1-0.1,0.2-0.1,0.3-0.2c7.5-17,14-36.9,15.6-55.5C189.4,119.2,148.8,109.2,121.2,110.2z"/>
<linearGradient id="SVGID_8_" gradientUnits="userSpaceOnUse" x1="143.131" y1="162.4948" x2="110.0049" y2="162.7686" gradientTransform="matrix(1 0 0 -1 0 351.2756)">
	<stop  offset="0" style="stop-color:#F2F2F2"/>
	<stop  offset="0.4203" style="stop-color:#B5C5C5"/>
	<stop  offset="0.8404" style="stop-color:#759595"/>
</linearGradient>
<path class="st20" d="M138.9,198.9c0.4-6.1,1.8-12.8,3.7-18.5c-10.9-3.2-22.5-4-33.7-2.3c-1.5,6.6-1.8,13.4-0.9,20.1
	C117.9,200.3,129,200.6,138.9,198.9z"/>
<path class="st8" d="M140.4,182.9c-1.2,3.7-2.7,7.6-3.8,11.3c-5.4,0.8-10.8,0.8-16.3,0.4c-0.3-0.9-0.2-1.8,0-2.7c2-0.8,4-1.8,6-2.6
	c-1.9,0-3.8-0.3-5.7-0.3c-0.1,0.1-0.2,0.3-0.3,0.4c-0.2-1.6-0.1-3.2,0.4-4.6c2-0.5,4.4-1.7,6.1-2.7c-1.7-0.1-3.5-0.3-5.3-0.4
	c0.3-0.9,0.6-1.8,0.9-2.7C128.8,179,134.4,180.9,140.4,182.9z"/>
<path class="st9" d="M162.8,144.8c-4,0.4-7.2,0-11.3-0.7c-0.2-2-0.9-6.6-0.9-6.6l13.4,1L162.8,144.8z"/>
<path class="st14" d="M158.5,241.7c-6-8.4-13.5-15.9-21.8-21.9c-2.2,0.7-3.9,1.8-5.5,3.4c7.1,6.9,13.1,15,17.7,23.9
	C153,246.2,156.4,245.1,158.5,241.7z"/>
<g>
	<path class="st9" d="M141.1,153.1l-0.1-0.2l-0.2-0.1c-6.5-1.5-13.2-2.8-19.9-3.7c0,0.3,0,0.5,0.1,0.8c6.5,0.9,13,2.1,19.4,3.6
		c1.7,6.2,2.7,13.1,2.9,19.5c0.3,0,0.5,0,0.8,0.1C143.9,166.5,142.9,159.5,141.1,153.1z"/>
	<path class="st9" d="M171.6,156.2h-0.2l-0.1,0.2c-2.7,6.1-5.8,12-9.2,17.7c0.3,0,0.6,0,0.9,0c3.3-5.6,6.3-11.4,8.9-17.3
		c2.7-0.6,5.7-0.7,8.9-0.4c0.1-0.3,0.2-0.5,0.3-0.8C177.7,155.4,174.4,155.6,171.6,156.2z"/>
</g>
<path class="st2" d="M160.5,143.9c-2.9,0.3-5.3,0-8.3-0.5c-0.1-1.5-0.7-4.8-0.7-4.8l9.9,0.7L160.5,143.9z"/>
<path class="st11" d="M89.7,132.5c-8.6-0.6-17.2,0.1-25.7,1.6c4.1,4.2,8.8,8.6,13.4,12.4c0,0,18.8,2.3,27.3,0.2
	C100.1,141.4,95.1,136.6,89.7,132.5z"/>
<path class="st9" d="M77.5,101.6c-6.5,9.8-11.2,20.9-13.6,32.4l0,0c8.5-1.5,16.9-2.1,25.4-1.6c6.5-10.3,11.6-21.6,15.2-33.2
	C95.4,98.5,86.3,99.4,77.5,101.6z"/>
<linearGradient id="SVGID_9_" gradientUnits="userSpaceOnUse" x1="117.9509" y1="250.5752" x2="91.2584" y2="206.3613" gradientTransform="matrix(1 0 0 -1 0 351.2756)">
	<stop  offset="4.356780e-02" style="stop-color:#FFFFFF"/>
	<stop  offset="0.2974" style="stop-color:#FBFBFB"/>
	<stop  offset="0.553" style="stop-color:#EFEFEF"/>
	<stop  offset="0.7039" style="stop-color:#E5E5E4"/>
	<stop  offset="0.802" style="stop-color:#DFDFDE"/>
	<stop  offset="1" style="stop-color:#D7D7D7"/>
</linearGradient>
<path class="st21" d="M104.8,99.2c-0.1,0-0.2,0-0.3,0c-3.6,11.7-8.7,22.9-15.2,33.2c0.1,0,0.2,0,0.3,0c5.5,4.1,10.4,8.9,14.9,14.1
	c0.1,0,0.2,0,0.2-0.1c6.5-11.5,10.8-24.3,12.8-37.3C114,105.2,104.8,99.2,104.8,99.2z"/>
<g>
	
		<linearGradient id="SVGID_10_" gradientUnits="userSpaceOnUse" x1="73.8651" y1="128.3388" x2="62.5875" y2="106.2457" gradientTransform="matrix(0.9952 -9.770000e-02 -9.770000e-02 -0.9952 33.8735 351.0054)">
		<stop  offset="0" style="stop-color:#FFFFFF"/>
		<stop  offset="0.8404" style="stop-color:#E8E7E7"/>
	</linearGradient>
	<path class="st22" d="M93,219.7L93,219.7c-0.1,5.3-0.7,10-2.3,15.2c-2.7,0.8-6,1.5-9,1.5c0,0,0,0,0,0.1c0.5,0.7,0.8,1.2,1.2,1.9
		c3,0,5.9-0.4,8.8-1.2c2.1-5,2.9-10.3,2.3-15.7C94,220.8,93.3,220.2,93,219.7z"/>
	<path class="st12" d="M90.7,234.9c1.6-5.2,2.2-9.9,2.3-15.2c-2.4,0.3-5.1,0.8-7.4,1.6c-0.5,3.5-3.1,13.9-3.9,15.1
		C84.7,236.4,87.9,235.6,90.7,234.9z"/>
	<path class="st14" d="M58.4,220.4c-1,2.4-1.8,4.9-2.3,7.5c1.7,3.7,3,7.7,4.4,11.6c-1.8,2.1-4.6,3-7.3,2.5
		c-2.8-4.5-6.5-14.4-6.5-14.4c0.6-2.6,1.7-5.1,3.2-7.4C52.6,219.8,55.8,219.8,58.4,220.4z"/>
	<path class="st12" d="M43.1,228.2c0.7,6.9,4.2,13.3,9.1,17.7c1.9,0.4,5-0.3,6.8-1.1l0.1-0.2c-2.6-5.2-4.8-9.5-7.3-17
		C48.9,228.3,46,228.4,43.1,228.2z"/>
	
		<linearGradient id="SVGID_11_" gradientUnits="userSpaceOnUse" x1="35.1841" y1="124.4595" x2="25.8481" y2="107.7287" gradientTransform="matrix(0.9952 -9.770000e-02 -9.770000e-02 -0.9952 33.8735 351.0054)">
		<stop  offset="0" style="stop-color:#FFFFFF"/>
		<stop  offset="0.8404" style="stop-color:#E8E7E7"/>
	</linearGradient>
	<path class="st23" d="M53,225.7c-2.7,0.5-5.7,1-8.5,0.9c-0.3,0.3-1.1,1.4-1.4,1.7l0,0c2.9,0.2,5.8,0,8.6-0.5
		c2.5,7.5,4.7,11.8,7.3,17l0.9-1.7C57.4,237.8,54.6,231.2,53,225.7z"/>
	<path class="st14" d="M72.3,217.7c-0.4,2.6-0.6,5.2-0.5,7.8c2.5,3.2,4.7,6.8,6.9,10.3c-1.3,2.4-3.8,3.9-6.5,4.1
		c-3.7-3.7-9.6-12.6-9.6-12.6c0-2.7,0.5-5.4,1.5-7.9C66.6,218.4,69.7,217.6,72.3,217.7z"/>
	<path class="st12" d="M59.2,228.8c2.3,6.5,7.1,12,12.8,15.2c1.9,0,4.8-1.4,6.3-2.6v-0.2c-3.7-4.4-6.8-8.2-11-14.9
		C64.8,227.5,62.1,228.3,59.2,228.8z"/>
	
		<linearGradient id="SVGID_12_" gradientUnits="userSpaceOnUse" x1="49.2451" y1="121.8593" x2="43.8839" y2="105.3133" gradientTransform="matrix(0.9952 -9.770000e-02 -9.770000e-02 -0.9952 33.8735 351.0054)">
		<stop  offset="0" style="stop-color:#FFFFFF"/>
		<stop  offset="0.8404" style="stop-color:#E8E7E7"/>
	</linearGradient>
	<path class="st24" d="M68.2,224c-2.5,1.1-5.4,2.2-8.1,2.8c-0.3,0.4-0.7,1.6-1,1.9l0,0c2.8-0.5,5.6-1.3,8.3-2.5
		c4.1,6.7,7.2,10.5,11,14.9l0.5-1.9C75.3,234.9,71.1,229,68.2,224z"/>
	<path class="st14" d="M84,212.9c2.3,2.3,5.9,7.4,6.7,10c0.3,3.7-0.3,7.5-1.5,11c-2.1,0.6-4.6,1-6.7,1.1c-0.6-0.6-1.4-1.6-1.7-2.4
		c0.8-2.3,1.3-7.2,1.3-7.2c-0.7-2.6-2.9-6.9-4.3-9.2C79.4,214.8,82,213.8,84,212.9z"/>
	<path class="st14" d="M73.6,167c3.6-8.2,8.8-16.3,14.9-22.9c0-1.9-0.7-3.8-1.9-5.2c-1.2-1.4-2.9-2.3-4.7-2.5
		c-5.4,5-9.8,11.2-13.3,18.2C68.6,159.1,71,163.3,73.6,167z"/>
	<path class="st12" d="M58.7,145c-8.2,2-16.3,5.6-24,9.1c-0.8,22.6,1.9,45.3,8,67.1c11.1,1.1,22.6,0,33.2-3.5
		c-7-23.7-13.5-48.3-17.1-72.7C58.8,145,58.7,145,58.7,145z"/>
	<path class="st9" d="M71.8,203.4c-5.4-19.2-10.1-38.9-12.9-58.4c-0.1,0-0.2,0-0.2,0c-8.2,2-16.3,5.6-24,9.1
		c-0.3,8.2-0.1,16.4,0.5,24.5l7.6-1.9c0,0,1.2,9,2.6,15c1.4,5.9,3.8,15.1,3.8,15.1s4.1,0.1,8.6-0.4
		C62.3,205.8,71.8,203.4,71.8,203.4L71.8,203.4z"/>
	
		<linearGradient id="SVGID_13_" gradientUnits="userSpaceOnUse" x1="54.9021" y1="120.8208" x2="56.0114" y2="157.6111" gradientTransform="matrix(0.9952 -9.770000e-02 -9.770000e-02 -0.9952 33.8735 351.0054)">
		<stop  offset="0" style="stop-color:#FFFFFF"/>
		<stop  offset="0.8404" style="stop-color:#E8E7E7"/>
	</linearGradient>
	<path class="st25" d="M88.1,211.3c-5.6-21-12.8-43.4-17-64.7c-3.7-0.7-11.1-1.5-12.2-1.7c3.5,24.4,10,49,17.1,72.7
		c0.1,0,0.2-0.1,0.3-0.1C76.2,217.6,84.3,213.8,88.1,211.3z"/>
	
		<linearGradient id="SVGID_14_" gradientUnits="userSpaceOnUse" x1="51.3043" y1="203.4384" x2="58.6994" y2="140.5797" gradientTransform="matrix(0.9952 -9.770000e-02 -9.770000e-02 -0.9952 33.8735 351.0054)">
		<stop  offset="0" style="stop-color:#FFFFFF"/>
		<stop  offset="0.4786" style="stop-color:#EEEEEE"/>
		<stop  offset="1" style="stop-color:#D7D7D7"/>
	</linearGradient>
	<path class="st26" d="M58.9,145c2.8,19.5,7.5,39.1,12.9,58.4c0,0,4.1-1.4,6.7-2.8c1.7-0.9,4.1-2.3,5.7-3.3
		c-4.7-16.7-9.8-34-13.1-50.6C67.4,146,60,145.1,58.9,145z"/>
	<path class="st9" d="M84.3,197.8c-0.1-0.3-0.2-0.5-0.2-0.8c-4.2,2.8-8.4,4.8-12.4,6.1l0.2,0.8l0,0
		C75.9,202.6,80.1,200.5,84.3,197.8z"/>
	<path class="st11" d="M71.7,203c-6.9,2.2-14.9,3.4-22.2,3.4c-2.1-7.6-5-18.9-6.4-29.8l-0.1-0.4l-0.4,0.1c-2.6,0.5-5.1,1.1-7.5,2
		c0,0.3,0,0.6,0.1,0.8c2.3-0.9,4.7-1.5,7.2-2c1.4,10.9,4.3,22.2,6.4,29.8l0.1,0.3h0.3c2.4,0,5-0.1,7.5-0.4c5.2-0.5,10.5-1.6,15.2-3
		L71.7,203L71.7,203z"/>
	<g>
		<path class="st27" d="M61.6,191.3c-0.1-0.5-0.3-1.1-0.4-1.6c-3.6,0.8-7.2,1.5-10.8,2.1c0.1,0.5,0.2,1,0.4,1.5
			C54.3,192.8,58,192.1,61.6,191.3z"/>
		<path class="st27" d="M60,185.2c-0.1-0.5-0.3-1.1-0.4-1.6c-3.5,0.7-7,1.5-10.5,2.2c0.1,0.5,0.2,1,0.3,1.5
			C52.9,186.7,56.5,186,60,185.2z"/>
		<path class="st27" d="M60.8,188.2c-0.1-0.5-0.3-1.1-0.4-1.6c-3.5,0.8-7.1,1.5-10.7,2.2c0.1,0.5,0.2,1,0.3,1.5
			C53.6,189.8,57.2,189.1,60.8,188.2z"/>
		<path class="st27" d="M48.2,179.8c0.1,0.5,0.1,1,0.2,1.6c3.4-0.8,6.8-1.6,10.3-2.2c-0.1-0.5-0.2-1.1-0.3-1.6
			C55,178.2,51.6,178.9,48.2,179.8z"/>
		<path class="st27" d="M59.3,182.2c-0.1-0.5-0.2-1.1-0.3-1.6c-3.5,0.7-7,1.4-10.4,2.3c0.1,0.5,0.2,1,0.2,1.5
			C52.4,183.6,55.9,182.9,59.3,182.2z"/>
		<path class="st27" d="M53.4,200.5c-0.2,0-0.5,0-0.7,0.1c0.2,0.7,0.4,1.4,0.7,2.2c3.7-0.4,7.3-1.1,10.9-1.9
			c-0.2-0.7-0.4-1.4-0.7-2.2C60.3,199.5,56.9,200.2,53.4,200.5z"/>
		<path class="st27" d="M58.1,176.1c-0.1-0.8-0.3-1.5-0.4-2.3c-3.4,0.7-7,1.6-9.9,2.5c0.1,0.7,0.1,1.4,0.2,2.1
			C51.4,177.5,54.8,176.7,58.1,176.1z"/>
		<path class="st27" d="M62.4,194.3c-0.2-0.5-0.3-1.1-0.4-1.6c-3.6,0.9-7.2,1.5-10.9,2c0.1,0.5,0.3,1,0.4,1.5
			C55.1,195.8,58.8,195.2,62.4,194.3z"/>
		<path class="st27" d="M63.3,197.2c-0.2-0.5-0.3-1.1-0.5-1.6c-3.6,0.9-7.3,1.6-10.9,2c0.1,0.5,0.3,1,0.4,1.5
			C56,198.8,59.7,198.2,63.3,197.2z"/>
	</g>
	<path class="st17" d="M75.3,160.3c3.1-5.8,7.4-12.5,12-17.2c-0.4-1.5-1.6-2.7-3.1-3.2c-3.8,3.5-8,8.5-10.5,13
		C73.7,152.9,74.7,158.1,75.3,160.3z"/>
	<path class="st14" d="M80.5,141.1c0.5,0.6,1.4,1.7,2,2.8s1,2.1,1,2.1s-0.1-1.1-0.5-2.3c-0.4-1.3-1.1-2.6-1.7-3.3L80.5,141.1z"/>
	<path class="st14" d="M77.5,144.4c0.6,0.5,1.7,1.5,2.4,2.5c0.8,1,1.2,2,1.2,2s-0.2-1.1-0.8-2.3c-0.5-1.2-1.5-2.5-2.2-3L77.5,144.4z
		"/>
	<path class="st14" d="M74.5,148.3c0.7,0.5,1.9,1.5,2.8,2.5s1.5,2,1.5,2s-0.3-1.1-1-2.3s-1.8-2.5-2.5-3.1L74.5,148.3z"/>
	<path class="st8" d="M86.2,210.5c-1.2,1.2-3,2.1-4.6,2.6c-5.9-17.8-11-36.4-15.8-55.7c-1.4-0.6-2.5-1.5-4-2.1c-0.6-3-1.1-5.9-1.5-9
		c3.1-0.1,6.5,0.4,9.5,1.2C75.1,168.6,80.1,190,86.2,210.5z"/>
	<path class="st11" d="M56.3,215.1c-0.5,0-1,0-1.5,0h-0.2l-0.1-0.2c-1.1-3-1.8-6.4-2.1-8.2l0.5-0.1c0.3,1.7,0.9,5.1,2,7.9
		c3.4,0.2,6.7-0.4,9-1c-0.2-1.1-1.1-5.5-1.2-7.9h0.5c0.1,2.6,1.3,8,1.3,8l0.1,0.3l-0.3,0.1C62.4,214.6,59.4,215.1,56.3,215.1z"/>
	<path class="st11" d="M39.4,177.2c-0.8-3.5-1.1-7.2-0.9-10.8v-0.2l0.2-0.1c3.6-2.1,7.8-3.7,12-4.6c-1-5-1.4-9.5-1.1-13.6l0.8,0.1
		c-0.3,4.2,0.1,8.7,1.2,13.8l0.1,0.4l-0.4,0.1c-4.1,0.9-8.3,2.5-11.9,4.5c-0.2,3.5,0.1,7,0.9,10.4L39.4,177.2z"/>
	<path class="st11" d="M55.8,155.3l-0.6-4.1c-2.9,0.7-5.7,1.7-8.4,2.9c-0.1,1.2,0.1,2.6,0.3,3.7C49.4,157.1,53.1,156,55.8,155.3z"/>
	<path class="st2" d="M55.3,155l-0.4-3.1c-2.1,0.5-4.3,1.3-6.2,2.2c-0.1,0.9,0.1,1.9,0.2,2.8C50.6,156.4,53.3,155.5,55.3,155z"/>
	<path class="st11" d="M61.4,208.3c0.1,1.1,0.2,2.2,0.4,3.3c-2,0.5-4,0.6-6.1,0.6c-0.4-1-0.7-2-0.9-3
		C57.1,209.1,59.2,208.8,61.4,208.3z"/>
	<path class="st2" d="M58.9,211.4c-0.8,0.1-1.7,0.1-2.5,0.1c-0.3-0.6-0.5-1.3-0.6-2c0.5,0,1-0.1,1.4-0.1c1.4-0.1,2.7-0.3,4-0.6
		c0.1,0.8,0.2,1.5,0.3,2.2C60.6,211.2,59.7,211.3,58.9,211.4z"/>
	<path class="st11" d="M40.9,214.6l-0.1-0.5l4.6-0.9c-2.3-7.9-3.9-15.4-4.7-22.3l-4.2,0.8l-0.1-0.5l4.7-0.9v0.3
		c0.8,7.1,2.4,14.7,4.8,22.8l0.1,0.3L40.9,214.6z"/>
</g>
<g>
	
		<linearGradient id="SVGID_15_" gradientUnits="userSpaceOnUse" x1="136.403" y1="162.9441" x2="122.167" y2="118.4108" gradientTransform="matrix(1 0 0 -1 0 351.2756)">
		<stop  offset="0" style="stop-color:#FFFFFF"/>
		<stop  offset="0.8404" style="stop-color:#E8E7E7"/>
	</linearGradient>
	<path class="st28" d="M111.4,197.3c1,8.6,2.5,17.1,4.5,25.4c2.9,0.2,6.1,0.4,8.9,0.8c0.5,2.6,1,5.2,1.3,7.9c3.4,0,6.8-0.2,10.1-0.7
		c1.8-1.9,3.3-4.1,4.4-6.6c1.9-0.9,3.9-1.5,5.9-1.9c4.3-7.2,6.6-16.1,6.7-24.4C139.4,197.2,125.4,197,111.4,197.3z"/>
	
		<linearGradient id="SVGID_16_" gradientUnits="userSpaceOnUse" x1="132.655" y1="157.6745" x2="130.3203" y2="122.8896" gradientTransform="matrix(1 0 0 -1 0 351.2756)">
		<stop  offset="4.356780e-02" style="stop-color:#FFFFFF"/>
		<stop  offset="0.2974" style="stop-color:#FBFBFB"/>
		<stop  offset="0.553" style="stop-color:#EFEFEF"/>
		<stop  offset="0.7039" style="stop-color:#E5E5E4"/>
		<stop  offset="0.802" style="stop-color:#DFDFDE"/>
		<stop  offset="1" style="stop-color:#D7D7D7"/>
	</linearGradient>
	<path class="st29" d="M120.1,197.2l2.7,15.6c0,0,5.9,1.5,10,1.1c4.1-0.4,8.3-0.8,8.3-0.8s1.6-3.6,2.2-7.6c0.6-4,1.4-7.9,1.4-7.9
		C136.3,197.2,128.1,197.1,120.1,197.2z"/>
	<path class="st12" d="M115.9,222.7c-2.1-8.4-3.6-16.9-4.5-25.4c-5.7,0.1-11.3,0.3-17,0.5c0.5,7.9,2.5,15.7,5.9,22.9
		c2.9,0.3,6.1,0.6,9.1,0.9c1.9,2.9,3.7,5.8,5,9c3.9,0.5,7.9,0.8,11.8,0.8c-0.3-2.6-0.8-5.3-1.3-7.9
		C122,223.2,118.8,222.9,115.9,222.7z"/>
	<path class="st11" d="M144.3,197.5c-0.8,5.1-1.9,10.2-3.5,15.3c-5.8,1-11.7,0.9-17.6-0.2l-2.6-15.4c-0.3,0-0.5,0-0.8,0l2.7,16.1
		l0.3,0.1c3.3,0.7,6.6,1,9.9,1c2.9,0,5.7-0.2,8.5-0.7h0.2l0.1-0.2c1.6-5.3,2.8-10.5,3.6-15.8C144.8,197.5,144.6,197.5,144.3,197.5z"
		/>
	<path class="st8" d="M135.9,229.6c1.8-1.9,3.5-4.3,4.1-6.8c1.8-0.7,3.9-1.3,5.7-2c3.1-6.2,5.1-13.7,5.6-20.6
		c-12.6-1.3-25.3-1.7-37.9-1.3c10.9,1.7,22,3.8,32.9,5.5c0.2,4.9-0.9,10.3-3.1,14.7c-1.5,0.8-3.4,1.5-4.8,2.2
		C137.3,223.8,136.9,227.1,135.9,229.6z"/>
</g>
<path class="st14" d="M109.9,245.9c0.2-7.9,1.5-16.3,4.2-23.7c-2.4-0.3-5.6-0.8-8.1-0.9c-4.9,7.1-7.9,15.6-9.4,24.1
	C100.7,246.8,105.9,247.6,109.9,245.9z"/>
<path class="st18" d="M130,125.3c0.5,4.9,2.5,9.7,6.1,13c3.3,2.9,7.6,4.3,12,4.7c6,0.5,12.4-0.9,17.2-4.5c4.9-3.6,8.1-9.5,8.1-15.6
	c0-2.8-0.9-5.7-3.1-7.4c-1.5-1.1-3.4-1.5-5.2-1.9c-5.3-1.1-10.5-2.1-15.8-3.2c-4.9-1-11.5-2.6-16.3-0.5
	C129.3,111.6,129.7,121.7,130,125.3z"/>
<g>
	
		<linearGradient id="SVGID_17_" gradientUnits="userSpaceOnUse" x1="179.113" y1="224.9791" x2="139.8727" y2="232.0971" gradientTransform="matrix(1 0 0 -1 0 351.2756)">
		<stop  offset="0" style="stop-color:#F2F2F2"/>
		<stop  offset="0.4203" style="stop-color:#B5C5C5"/>
		<stop  offset="0.8404" style="stop-color:#759595"/>
	</linearGradient>
	<path class="st30" d="M175.3,120.7h1.1c0.7-1.5,1.2-4.9,1.3-6.5c0.8,0.4,1.7,1.2,2.1,1.9c-0.7,6.1-2.5,11.9-5.3,17.4
		c-11,1.5-22.6,0.8-33.3-1.7c-4.8-6-8.3-13.9-10.1-21.4c1.3-1.6,2.8-2.9,4.5-4c2,4.4,4.7,8.8,7.9,12.5c3.8,0.9,7.1,1.3,11,1.2
		c1.3-2.9,2.8-8.1,3-8.8c5.6-0.3,11.1,0.2,16.5,1.9C174.5,115.3,175.3,118.5,175.3,120.7z"/>
	<path class="st8" d="M178.6,116.2c-0.2,1.7-0.6,3.7-1.2,4.9l-0.3,0.7l-2.9-0.1v-1c0-1.8-0.6-4.2-1-6.2l-0.1-0.4
		c-4-1.1-8.2-1.7-12.7-1.7c-0.7,0-1.4,0-2.1,0c-0.5,1.7-1.7,5.8-2.8,8.2l-0.3,0.6h-0.1c0.8,2.3,1.4,4.8,2.3,6.8
		c0.7,1.7,1.4,3.5,2.1,5.2c1.1,0,2.2,0.1,3.4,0.1c3.7,0,7.4-0.2,11-0.7c2.6-5.2,4.2-10.5,4.9-16.1
		C178.7,116.4,178.7,116.3,178.6,116.2z"/>
	<path class="st1" d="M143.6,118.9c-3.2-3.7-5.9-8.1-7.9-12.5c1.1,0.4,2.2,0.9,3.3,1.3c1.3,3.9,3.5,7.5,6.2,10.6
		c2.9,0.3,5.9,0.5,8.8,0.6c1.2-2.7,2.2-5.4,2.8-8.3c5.7-0.5,11.6,0,17,1.9c0.1,0.2,0.1,0.5,0.1,0.7c-5.3-1.6-10.8-2.1-16.4-1.9
		c-0.2,0.7-1.7,5.9-3,8.8C150.7,120.2,147.4,119.8,143.6,118.9z M177.8,114.2h-1.2c-0.1,2.3-0.5,4.4-1.2,6.5h1.1
		C177.2,118.5,177.6,116.4,177.8,114.2z"/>
	
		<linearGradient id="SVGID_18_" gradientUnits="userSpaceOnUse" x1="172.5398" y1="257.1074" x2="145.5279" y2="230.278" gradientTransform="matrix(1 0 0 -1 0 351.2756)">
		<stop  offset="4.356780e-02" style="stop-color:#FFFFFF"/>
		<stop  offset="0.2974" style="stop-color:#FBFBFB"/>
		<stop  offset="0.553" style="stop-color:#EFEFEF"/>
		<stop  offset="0.7039" style="stop-color:#E5E5E4"/>
		<stop  offset="0.802" style="stop-color:#DFDFDE"/>
		<stop  offset="1" style="stop-color:#D7D7D7"/>
	</linearGradient>
	<path class="st31" d="M139,107.7c1.3,3.9,3.5,7.5,6.2,10.6c2.9,0.3,5.9,0.5,8.8,0.6c1.2-2.7,2.2-5.4,2.8-8.3c5.7-0.5,11.6,0,17,1.9
		c0.1,0.2,0.1,0.5,0.1,0.7l0,0c0.5,2.2,1.2,5.3,1.3,7.5l0,0l0,0c0.7-2,1.1-4.1,1.2-6.5h0.3c0.8-6.5,0.6-13.2-0.7-19.6
		c-8.6-2.2-17.7-3.6-27.5-2.3c-3.7,2.1-7.2,4.6-10.6,7.1c-0.4,2.6-0.5,5.2-0.2,7.8C138.3,107.4,138.6,107.6,139,107.7z"/>
	<path class="st8" d="M149,93.1c8.9-0.7,17.6,0,26.3,2.2c1.4,5.6,1.2,11.9,0.4,18.4c-0.5-6-1-12.1-2.3-16
		C167.5,95.6,158.6,94.3,149,93.1z"/>
	<path class="st9" d="M148.7,92.3c-3.7,2.1-7.2,4.6-10.6,7.1c-0.4,2.6-0.5,5.2-0.2,7.8c0.4,0.1,0.7,0.3,1.1,0.4
		c1.3,3.9,3.5,7.5,6.2,10.6c1.3,0.1,2.5,0.2,3.8,0.3C148.2,109.5,148,100.7,148.7,92.3z"/>
	
		<radialGradient id="SVGID_19_" cx="172.1974" cy="258.2959" r="30.0118" gradientTransform="matrix(1 0 0 -1 0 351.2756)" gradientUnits="userSpaceOnUse">
		<stop  offset="5.032370e-03" style="stop-color:#22577E"/>
		<stop  offset="0.2551" style="stop-color:#204F76"/>
		<stop  offset="0.6313" style="stop-color:#1C3A62"/>
		<stop  offset="1" style="stop-color:#162048"/>
	</radialGradient>
	<path class="st32" d="M149,96.1c9.7,1.6,18.9,2.6,27.3,2.9l0.4,7.7c0,0-0.8,2.6-11.3,1.9c-11.2-0.8-16.4-4.7-16.4-4.7V96.1z"/>
	<polygon class="st2" points="161.4,104 153.8,103 154.3,98.9 162.3,100.8 	"/>
	<polygon class="st2" points="167.1,104.6 173.6,104.6 173.6,101.1 166.8,101.9 	"/>
</g>
<path class="st1" d="M133.6,109.6c0.7-0.6,1.5-0.7,1.9-0.2c0.3,0.4,0.1,1.2-0.6,1.8c-0.7,0.6-1.5,0.7-1.9,0.2
	C132.7,110.9,133,110.1,133.6,109.6z"/>
<path class="st1" d="M162.7,121.7c-0.1,3.9-0.8,7.1-1.3,7.1s-0.7-3.2-0.7-7.1c0.1-3.9,0.3-7,0.9-7.1
	C162.2,114.6,162.8,117.8,162.7,121.7z"/>
<path class="st1" d="M167.8,122.7c-0.1,4.3-1.2,7.8-1.7,7.7s-0.4-3.5-0.3-7.7c0.2-4.2,0.3-7.6,0.8-7.7
	C167.2,114.8,168,118.3,167.8,122.7z"/>
<path class="st1" d="M172.1,122c-0.2,3.6-1.1,6.4-1.6,6.3c-0.5-0.1-0.5-2.9-0.4-6.4c0.2-3.4,0.4-6.3,1-6.3
	C171.7,115.6,172.3,118.5,172.1,122z"/>
<path class="st9" d="M100.6,128.1l-0.3-0.3c-0.9-0.8-1.9-1.7-2.8-2.6s-1.9-1.7-2.8-2.6l0.7-0.8c0.9,0.8,1.9,1.7,2.8,2.6
	c0.8,0.8,1.6,1.5,2.4,2.2c6.3-5.5,10.9-12.5,13.5-20.3l1,0.3c-2.7,8.2-7.6,15.5-14.2,21.1L100.6,128.1z"/>
<path class="st11" d="M78.1,123.3l0.4-0.9c1.4-3.1,2.5-5.9,3.3-8.4c-4.2,0.1-7.5,0.6-11.7,1.8l-0.3-1c4.5-1.3,8.1-1.8,12.7-1.9h0.7
	l-0.2,0.7c-0.7,2.5-1.7,5.2-3.1,8.3c5.6-0.7,10.8-0.8,15.3-0.3l-0.1,1.1c-4.6-0.5-10-0.4-15.9,0.4L78.1,123.3z"/>
<path class="st9" d="M212.2,136.1c-1.4-0.6-2.7-1.3-4.1-1.9c-1.4-0.6-2.7-1.3-4.1-1.9l-0.3-0.1v-0.3c-0.8-6-2.1-12.1-3.9-17.9l1-0.3
	c1.8,5.8,3.1,11.8,3.9,17.8c1.3,0.6,2.6,1.2,3.8,1.8c1.4,0.6,2.7,1.3,4.1,1.9L212.2,136.1z"/>
<path class="st1" d="M139,185.5c0,0-0.4-0.1-1.1-0.3c-0.7-0.2-1.8-0.4-3.1-0.7c-2.6-0.5-6.2-1.1-10.2-1.6c-4-0.4-7.7-0.6-10.3-0.6
	c-1.3,0-2.4,0-3.1,0s-1.2,0-1.2,0s0.4-0.1,1.1-0.2c0.7-0.1,1.8-0.3,3.1-0.4c2.7-0.2,6.4-0.3,10.4,0.1c4.1,0.4,7.7,1.3,10.2,2.1
	c1.3,0.4,2.3,0.8,3,1C138.6,185.3,139,185.5,139,185.5z"/>
<path class="st1" d="M136.1,189.3c0,0-5.9,0.6-13.1,0.4c-7.2-0.2-13-1.2-13-1.2s5.9-0.1,13.1,0.1
	C130.3,188.9,136.1,189.3,136.1,189.3z"/>
<path class="st1" d="M136.4,194c0,0-1.4,0.3-3.8,0.5c-2.4,0.3-5.6,0.6-9.3,0.6c-3.6,0-6.9-0.2-9.3-0.5c-2.4-0.2-3.8-0.5-3.8-0.5
	s5.9-0.1,13.1-0.1C130.6,194.1,136.4,194,136.4,194z"/>
<path class="st8" d="M187.6,121.4c-3.2,17.9-8.3,35.2-15.2,51.6c-11.4,0.5-23.1,0.2-34.4-1.2c10.4-0.4,21.1-0.6,31.5-1
	c5.3-13.9,9.8-28.7,13.8-44.4c-0.7-0.3-1.8-0.4-2.5-0.4c0.3-2,0.5-4,0.7-5.9c1.8,0.3,4.1,0.5,5.8,1.2
	C187.1,121.3,187.8,121.4,187.6,121.4z"/>
<linearGradient id="SVGID_20_" gradientUnits="userSpaceOnUse" x1="187.7917" y1="93.5567" x2="141.4335" y2="58.5143" gradientTransform="matrix(1 0 0 -1 0 351.2756)">
	<stop  offset="0" style="stop-color:#FFFFFF"/>
	<stop  offset="0.8404" style="stop-color:#E8E7E7"/>
</linearGradient>
<path class="st33" d="M188.8,302.3c-3.8,1.3-8.1,2.3-12.1,2.7c-11.8,1.1-23.7-0.1-35.1-3.1c-0.7-19,0.2-38,2.9-56.8
	c5.6-3.3,12.2-6.4,18.4-8.4c3.1,1.9,6.5,5,8.8,7.8C171.6,244.6,185.5,273.1,188.8,302.3z"/>
<path class="st12" d="M163.9,298.2c-5.5,0.7-11.5,0.4-16.7-1.4c-1.8-17.4-2.1-34.9-0.9-52.4c0-0.1,0-0.2,0-0.3
	c-0.6,0.3-1.2,0.7-1.8,1c-2.7,18.8-3.7,37.8-2.9,56.8c10.1,2.7,20.5,3.9,30.9,3.4c1.3-7.8,1.4-15.9,1.2-23.8
	C169.4,286.4,166.1,292.1,163.9,298.2z"/>
<linearGradient id="SVGID_21_" gradientUnits="userSpaceOnUse" x1="187.5741" y1="64.5515" x2="170.7829" y2="43.3801" gradientTransform="matrix(1 0 0 -1 0 351.2756)">
	<stop  offset="0" style="stop-color:#F2F2F2"/>
	<stop  offset="0.4203" style="stop-color:#B5C5C5"/>
	<stop  offset="0.8404" style="stop-color:#759595"/>
</linearGradient>
<path class="st34" d="M190.3,302.1c0,0-1,4.3-1.9,6.2c-7.9-0.1-15.6-1.3-23.3-3.2c1.3-7.9,4.7-16.5,8.6-23.5
	C186.8,287.8,190.3,302.1,190.3,302.1z"/>
<linearGradient id="SVGID_22_" gradientUnits="userSpaceOnUse" x1="130.076" y1="90.9342" x2="62.181" y2="52.9714" gradientTransform="matrix(1 0 0 -1 0 351.2756)">
	<stop  offset="0" style="stop-color:#FFFFFF"/>
	<stop  offset="0.8404" style="stop-color:#E8E7E7"/>
</linearGradient>
<path class="st35" d="M116.9,307.6c-9.2,2-16.6,4-28.5,4c-6-1.3-12.3-3.2-18.2-5c3-19.9,8.6-39.4,16.8-57.8c0,0,6-7.4,9.9-9.8
	c6.8,1.8,13.9,4.9,19.7,8.8C117,248.4,118,287.7,116.9,307.6z"/>
<path class="st12" d="M106.3,275.2l-0.6-0.4c-1.7-1.3-6.7-5.2-10.7-6.1c-3.2,1.6-6.8,3.5-9.9,6.1l-0.7-0.8c3.2-2.7,7-4.7,10.3-6.4
	l0.2-0.1h0.2c3.6,0.8,7.7,3.7,10.7,6c3.7-9,5.8-19.4,7.3-27.4l1.1,0.2c-1.5,8.3-3.7,19-7.6,28.3L106.3,275.2z"/>
<path class="st12" d="M85.4,310.9c2.2-8.7,4.8-17.4,8-25.8c-4.6,3.3-8.6,7.2-11.9,11.8c2.8-19.3,7.4-38.4,13.9-56.8
	c-3.8,3-8.4,8.7-8.4,8.7c-8.1,18.4-13.8,37.9-16.8,57.8C75.1,308.2,80.3,309.7,85.4,310.9z"/>
<linearGradient id="SVGID_23_" gradientUnits="userSpaceOnUse" x1="105.4583" y1="60.3717" x2="84.6517" y2="36.2799" gradientTransform="matrix(1 0 0 -1 0 351.2756)">
	<stop  offset="0" style="stop-color:#F2F2F2"/>
	<stop  offset="0.4203" style="stop-color:#B5C5C5"/>
	<stop  offset="0.8404" style="stop-color:#759595"/>
</linearGradient>
<path class="st36" d="M107.2,309.7c-1.7-10.5-6.1-18.2-13.6-25.4c-7.2,6.9-12.9,15-14.2,25.1c3.4,3.7,11.5,5.5,11.5,5.5
	S101.9,313.5,107.2,309.7z"/>
<path class="st8" d="M105.2,101.4c4.1,2.4,7.9,5.4,11.3,8.8c-2.6,10-6.5,20.1-11.1,29.4c3.4-8.4,5.2-17.2,6-26.2
	C109.6,109.8,107,105,105.2,101.4z"/>
<path class="st8" d="M205.5,120.2c3.1,7.2,5.5,14.9,6.5,22.7c-0.3-9.2-1.9-18.6-5.5-26.5c-3.9-1.2-7.9-2.2-12-3
	c3.8,1.7,7.3,4.1,10.8,6.4L205.5,120.2z"/>
<path class="st1" d="M90.5,314.8c-0.4-10.2,0.3-20.5,3-30.4c-7.1,6.8-12.7,14.9-14.1,24.9C82.3,312.6,88.8,314.4,90.5,314.8z"/>
<path class="st1" d="M165.1,305.1c7.7,1.9,15.3,3.1,23.3,3.2c0.1-0.2,0.2-0.4,0.3-0.6c-3.8-9.2-8.9-17.9-15.2-25.6
	C169.7,289.1,166.4,297.4,165.1,305.1z"/>
<path class="st17" d="M108.3,241.4c-1.9-1-3.9-1.8-6-2.4c0.6-5.6,2.3-11.1,5.1-16c1.7,0.4,3.4,1.4,4.4,2.8c-2.1,4.7-3.2,10-3.2,15.1
	C108.6,240.7,108.3,241.7,108.3,241.4z"/>
<path class="st17" d="M154.4,238.3c-1.5,0.2-2.8,0.7-4.1,1.6c-3-4.4-6.3-8.5-9.9-12.4c0.4-0.7,1.1-1.5,1.7-2
	C146.2,229.3,150.9,234.1,154.4,238.3z"/>
<path class="st14" d="M105.1,226.4c0.5,0.2,1.4,0.4,2.2,0.7c0.8,0.3,1.4,0.7,1.4,0.7s-0.5-0.6-1.2-1.2c-0.7-0.6-1.6-1.1-2.2-1.3
	L105.1,226.4z"/>
<path class="st14" d="M103,231.2c0.7,0,2,0.2,3,0.7c1.1,0.5,1.8,1.2,1.8,1.2s-0.5-0.9-1.5-1.6c-1-0.8-2.4-1.3-3.3-1.3V231.2z"/>
<path class="st14" d="M101.9,236.1c0.7,0.1,1.9,0.2,3,0.6c1,0.4,1.8,1,1.8,1s-0.6-0.8-1.6-1.5s-2.3-1.2-3.1-1.2L101.9,236.1z"/>
<path class="st14" d="M145.1,234.3c0.4-0.3,0.9-0.9,1.5-1.4c0.5-0.5,1-0.9,1-0.9s-0.6,0.2-1.3,0.4c-0.7,0.3-1.5,0.7-1.9,1
	L145.1,234.3z"/>
<path class="st14" d="M141.3,230.6c0.8-0.4,2.7-2,2.7-2s-2.4,0.7-3.2,1.1L141.3,230.6z"/>
<path class="st14" d="M147.9,238.2c0.5-0.3,1.4-0.9,2.2-1.4s1.5-0.8,1.5-0.8s-0.8,0.1-1.7,0.3s-2,0.7-2.5,1L147.9,238.2z"/>
<path class="st8" d="M115.8,305.5c-1.8,0.2-3.9,0.4-5.7,0.7c-2.8-10.1-8.6-19.6-16.3-26.8c0.9-12.9,2.4-25.8,4.6-38.5
	c6.2,1.4,12.6,4,17.7,7.7C117.1,266.8,117.2,287.4,115.8,305.5z"/>
<path class="st12" d="M150.8,273.3l-0.1-0.8c-1.7-9.8-2.5-19.8-2.3-29.7h1.1c-0.2,9.6,0.5,19.2,2.1,28.7c5.6-3.9,11.9-7.2,19.3-10.2
	l0.2-0.1l0.2,0.1c3.8,1.6,7.4,4.3,10.3,7.6l-0.8,0.7c-2.7-3.1-6.2-5.6-9.7-7.2c-7.5,3-13.9,6.5-19.6,10.5L150.8,273.3z"/>
<path class="st8" d="M162.8,236.8c-0.1,0-0.1,0-0.2,0.1c5.3,13.7,9.8,27.8,13.2,42.2c3.4,2.9,7,5.9,10.4,8.8
	c-5.1-23.5-14.7-43.3-14.7-43.3C169.3,241.8,166,238.7,162.8,236.8z"/>
<g>
	<path class="st9" d="M155.1,170.8c-5.5,0-9.9-5-9.9-11.1s4.4-11.1,9.9-11.1s9.9,5,9.9,11.1S160.6,170.8,155.1,170.8z"/>
	
		<linearGradient id="SVGID_24_" gradientUnits="userSpaceOnUse" x1="162.1822" y1="201.9424" x2="150.6559" y2="184.314" gradientTransform="matrix(1 0 0 -1 0 351.2756)">
		<stop  offset="4.356780e-02" style="stop-color:#FFFFFF"/>
		<stop  offset="0.2974" style="stop-color:#FBFBFB"/>
		<stop  offset="0.553" style="stop-color:#EFEFEF"/>
		<stop  offset="0.7039" style="stop-color:#E5E5E4"/>
		<stop  offset="0.802" style="stop-color:#DFDFDE"/>
		<stop  offset="1" style="stop-color:#D7D7D7"/>
	</linearGradient>
	<path class="st37" d="M155.6,169.7c-5,0-9.1-4.6-9.1-10.3s4.1-10.3,9.1-10.3s9.1,4.6,9.1,10.3C164.7,165.1,160.6,169.7,155.6,169.7
		z"/>
	<ellipse class="st9" cx="156.7" cy="159.4" rx="6.5" ry="7.6"/>
	
		<radialGradient id="SVGID_25_" cx="160.2688" cy="199.3424" r="15.4127" gradientTransform="matrix(1 0 0 -1 0 351.2756)" gradientUnits="userSpaceOnUse">
		<stop  offset="5.032370e-03" style="stop-color:#22577E"/>
		<stop  offset="0.2551" style="stop-color:#204F76"/>
		<stop  offset="0.6313" style="stop-color:#1C3A62"/>
		<stop  offset="1" style="stop-color:#162048"/>
	</radialGradient>
	<path class="st38" d="M155.6,152.4c-0.8,0-1.5,0.2-2.3,0.5c-1.9,1.3-3.2,3.7-3.2,6.5c0,4.2,2.9,7.6,6.5,7.6c0.8,0,1.5-0.2,2.3-0.5
		c1.9-1.3,3.2-3.7,3.2-6.5C162.1,155.8,159.2,152.4,155.6,152.4z"/>
	
		<linearGradient id="SVGID_26_" gradientUnits="userSpaceOnUse" x1="163.0922" y1="201.0208" x2="153.227" y2="189.2233" gradientTransform="matrix(1 0 0 -1 0 351.2756)">
		<stop  offset="0" style="stop-color:#848174"/>
		<stop  offset="0.7277" style="stop-color:#252420"/>
		<stop  offset="1" style="stop-color:#000000"/>
	</linearGradient>
	<path class="st39" d="M157,160.2c1.6,0.7,3,0.8,4.4,0.6c0-0.3,0-0.5,0-0.8c0-3.9-2.7-7-5.9-7c-0.6,0-1.3,0.1-1.9,0.4
		c-0.4,0.3-0.8,0.7-1.1,1C152.9,156.9,154,158.8,157,160.2z"/>
</g>
</svg>
