<?xml version="1.0" encoding="utf-8"?>
<!-- Generator: Adobe Illustrator 25.0.0, SVG Export Plug-In . SVG Version: 6.00 Build 0)  -->
<svg version="1.1" id="Layer_1" xmlns="http://www.w3.org/2000/svg" xmlns:xlink="http://www.w3.org/1999/xlink" x="0px" y="0px"
	 viewBox="0 0 39 32" style="enable-background:new 0 0 39 32;" xml:space="preserve">
<style type="text/css">
	.st0{fill:#FFFFFF;}
</style>
<path class="st0" d="M19.5,0.7c-8.7,0-15.7,7-15.7,15.7S10.8,32,19.5,32s15.7-7,15.7-15.7S28.2,0.7,19.5,0.7L19.5,0.7z M19.5,5.9
	c1,0,1.7,0.8,1.7,1.7s-0.8,1.7-1.7,1.7c-1,0-1.7-0.8-1.7-1.7C17.8,6.7,18.5,5.9,19.5,5.9C19.5,5.9,19.5,5.9,19.5,5.9z M22.3,25.7
	h-5.6c-1,0-1.7-0.8-1.7-1.7s0.8-1.7,1.7-1.7h1v-7h-1c-1,0-1.7-0.8-1.7-1.7s0.8-1.7,1.7-1.7h3.8c0.4,0,0.7,0.3,0.7,0.7v9.8h1
	c1,0,1.7,0.8,1.7,1.7S23.2,25.7,22.3,25.7z"/>
</svg>
