<?xml version="1.0" encoding="utf-8"?>
<!-- Generator: Adobe Illustrator 25.0.0, SVG Export Plug-In . SVG Version: 6.00 Build 0)  -->
<svg version="1.1" id="Layer_1" xmlns="http://www.w3.org/2000/svg" xmlns:xlink="http://www.w3.org/1999/xlink" x="0px" y="0px"
	 viewBox="0 0 67 75" style="enable-background:new 0 0 67 75;" xml:space="preserve">
<style type="text/css">
	.st0{fill:#FFF200;stroke:#000000;stroke-miterlimit:10;}
	.st1{fill:#C72026;stroke:#000000;stroke-miterlimit:10;}
</style>
<g>
	<g>
		<path class="st0" d="M55.3,16.7c-0.4-1.2-1.5-2-3.1-2.2L49,14.1c-2.5-3.8-6.4-6.5-10.8-7.7l-1.5-3.1C36,1.8,34.8,1,33.6,1
			s-2.4,0.8-3.1,2.3L29,6.4c-4.4,1.1-8.3,3.9-10.8,7.7L15,14.5c-1.6,0.2-2.7,1.1-3.1,2.2c-0.4,1.2,0.1,2.5,1.2,3.6l2.1,2
			c-0.1,0.6-0.1,1.2-0.1,1.8c0,4.4,1.5,8.5,4.3,11.8L19,38.6c-0.3,1.7,0.2,2.7,0.7,3.2c0.5,0.6,1.3,1,2.2,1c0.7,0,1.4-0.2,2.1-0.6
			l2.1-1.1c2.3,1,4.9,1.6,7.5,1.6s5.1-0.6,7.5-1.6l2.1,1.1c0.7,0.4,1.4,0.6,2.1,0.6c0.9,0,1.7-0.4,2.2-1c0.5-0.5,1-1.5,0.7-3.2
			l-0.4-2.5c2.8-3.3,4.3-7.5,4.3-11.8c0-0.6,0-1.2-0.1-1.8l2.1-2C55.2,19.2,55.6,17.9,55.3,16.7z M44.6,13.4
			c-0.6-0.1-1.3-0.4-1.9-0.7c0,0-0.1-0.1-0.1-0.1c-0.2-0.1-0.3-0.2-0.5-0.3c0,0-0.1-0.1-0.1-0.1c-0.2-0.1-0.3-0.2-0.5-0.4
			c0,0-0.1-0.1-0.1-0.1c-0.1-0.1-0.3-0.3-0.4-0.4c0,0-0.1-0.1-0.1-0.1c-0.1-0.1-0.3-0.3-0.4-0.5c0,0,0-0.1-0.1-0.1
			c-0.1-0.1-0.2-0.3-0.2-0.4C41.8,11,43.3,12.1,44.6,13.4L44.6,13.4z M32.2,12.2c0.4-0.7,1.3-1,2-0.7c0.7,0.4,1,1.3,0.7,2l-0.2,0.4
			c-1.5,3-4.3,5.6-7.7,7C26.9,21,26.7,21,26.5,21c-0.6,0-1.1-0.3-1.4-0.9c-0.3-0.8,0-1.6,0.8-2c2.7-1.1,5-3.3,6.2-5.6L32.2,12.2z
			 M27.1,10.2c-0.1,0.1-0.1,0.3-0.2,0.4c0,0,0,0.1-0.1,0.1c-0.1,0.2-0.2,0.3-0.4,0.5c0,0-0.1,0.1-0.1,0.1c-0.1,0.1-0.3,0.3-0.4,0.4
			c0,0-0.1,0.1-0.1,0.1c-0.2,0.1-0.3,0.3-0.5,0.4c0,0-0.1,0.1-0.1,0.1c-0.2,0.1-0.4,0.3-0.6,0.4c0,0,0,0,0,0c-0.7,0.4-1.3,0.7-2,0.7
			l-0.1,0C23.9,12.1,25.4,11,27.1,10.2z M18.6,25.7c1.2,1.2,2,3.6,1.7,5.3l-0.2,0.9c-1.2-2-1.9-4.3-2-6.6L18.6,25.7z M31.9,39.6
			c-0.1,0-0.2,0-0.4,0c-0.1,0-0.2,0-0.4-0.1c-0.2,0-0.4-0.1-0.6-0.1v0c-0.3-0.1-0.6-0.1-0.9-0.2l0.1,0l0.4-0.2l0.6-0.3
			c0.7-0.4,1.7-0.6,2.8-0.6c0.7,0,1.4,0.1,1.9,0.3c0.3,0.1,0.6,0.2,0.8,0.3l1.1,0.6C35.7,39.7,33.8,39.8,31.9,39.6z M47,31.9
			L46.8,31c-0.3-1.7,0.5-4.1,1.7-5.3l0.4-0.4C48.8,27.6,48.2,29.9,47,31.9z"/>
	</g>
	<g>
		<path class="st1" d="M41,42.7c-2.3,0.9-4.9,1.4-7.4,1.4c-1,0-2-0.1-3-0.2v9c0,0.8-0.7,1.5-1.5,1.5c-0.8,0-1.5-0.7-1.5-1.5v-9.7V42
			l-1.5,0.8l-1.4,0.8c-0.8,0.4-1.6,0.7-2.4,0.7v27.3l0,1.5h2.2l9-10.8l9,10.8h2.3V44.2c-0.8-0.1-1.6-0.3-2.4-0.7L41,42.7z"/>
	</g>
</g>
</svg>
