<?xml version="1.0" encoding="utf-8"?>
<!-- Generator: Adobe Illustrator 25.0.0, SVG Export Plug-In . SVG Version: 6.00 Build 0)  -->
<svg version="1.1" id="Layer_1" xmlns="http://www.w3.org/2000/svg" xmlns:xlink="http://www.w3.org/1999/xlink" x="0px" y="0px"
	 viewBox="0 0 39 32" style="enable-background:new 0 0 39 32;" xml:space="preserve">
<style type="text/css">
	.st0{fill:#FFFFFF;}
</style>
<g>
	<g>
		<path class="st0" d="M28.3,19.4c0,5.7-3.6,10.3-8.2,10.7v-3.3h1.6c0.3,0,0.6-0.3,0.6-0.6s-0.3-0.6-0.6-0.6h-1.6v-2h4.6
			c0.3,0,0.6-0.3,0.6-0.6c0-0.3-0.3-0.6-0.6-0.6h-4.6v-2h6.8c0.3,0,0.6-0.3,0.6-0.6s-0.3-0.6-0.6-0.6h-6.8v-2h4.6
			c0.3,0,0.6-0.3,0.6-0.6c0-0.3-0.3-0.6-0.6-0.6h-4.6v-2h1.6c0.3,0,0.6-0.3,0.6-0.6s-0.3-0.6-0.6-0.6h-1.6V8.7
			C24.7,9.1,28.3,13.7,28.3,19.4z"/>
		<path class="st0" d="M18.9,8.7v21.4c-4.6-0.4-8.2-5-8.2-10.7S14.3,9.1,18.9,8.7z"/>
	</g>
	<g>
		<path class="st0" d="M11.8,3.7l2,1.4c-0.3,0.3-0.5,0.6-0.8,0.9l-2.1-1.5c-0.2-0.1-0.2-0.3-0.2-0.5V2.8c0-0.2,0.1-0.3,0.2-0.4
			l1.6-1.6c0.2-0.2,0.6-0.2,0.8,0c0.2,0.2,0.2,0.6,0,0.8c0,0,0,0,0,0L11.8,3V3.7z"/>
		<path class="st0" d="M14.4,6.2L14.4,6.2c0,0.1-0.1,0.1-0.1,0.1L14.4,6.2z"/>
	</g>
	<g>
		<path class="st0" d="M26.5,10.9c-1.7-2.1-4.3-3.3-7-3.4c-2.7,0-5.2,1.3-6.9,3.4c0-1.7,0.6-3.3,1.7-4.5c0,0,0.1-0.1,0.1-0.1v0
			c2.6-2.8,7-3,9.8-0.4c0.1,0.1,0.3,0.3,0.4,0.4v0c0,0,0.1,0.1,0.1,0.1C25.8,7.6,26.5,9.2,26.5,10.9z"/>
		<path class="st0" d="M24.6,6.2l0.1,0.1C24.7,6.3,24.7,6.3,24.6,6.2L24.6,6.2z"/>
		<path class="st0" d="M28.3,2.8V4c0,0.2-0.1,0.4-0.2,0.5L26,6c-0.2-0.3-0.5-0.6-0.8-0.9l2-1.4V3l-1.4-1.4c-0.2-0.2-0.2-0.6,0-0.8
			c0,0,0,0,0,0c0.2-0.2,0.6-0.2,0.8,0l1.6,1.6C28.3,2.5,28.3,2.6,28.3,2.8z"/>
	</g>
	<path class="st0" d="M11.1,13c-0.2,0.3-0.4,0.7-0.5,1.1l-3.3-1.9C7.1,12.1,7,11.9,7,11.7L6.5,7.8c0-0.2,0-0.4,0.2-0.5L8,5.9
		C8.3,5.7,8.6,5.8,8.8,6C9,6.2,9,6.5,8.8,6.8L7.7,7.9l0.4,3.4L11.1,13z"/>
	<path class="st0" d="M32.5,7.8L32,11.7c0,0.2-0.1,0.3-0.3,0.4l-3.3,1.9c-0.1-0.4-0.3-0.7-0.5-1.1l3-1.7l0.4-3.4l-1.2-1.2
		C30,6.5,30,6.2,30.2,5.9c0.2-0.2,0.5-0.2,0.8,0l1.4,1.4C32.5,7.4,32.5,7.6,32.5,7.8z"/>
	<path class="st0" d="M8.1,31c0.2,0.2,0.2,0.6,0,0.8c0,0,0,0,0,0C8,31.9,7.9,32,7.7,32c-0.2,0-0.3-0.1-0.4-0.2l-1.4-1.4
		c-0.1-0.1-0.2-0.3-0.2-0.5L6.3,26c0-0.2,0.1-0.3,0.3-0.4l3.6-2.1c0.1,0.4,0.3,0.7,0.4,1.1l-3.2,1.8l-0.5,3.4L8.1,31z"/>
	<path class="st0" d="M33.1,30.5l-1.4,1.4c-0.1,0.1-0.3,0.2-0.4,0.2c-0.3,0-0.6-0.3-0.6-0.6c0-0.2,0.1-0.3,0.2-0.4l1.2-1.2l-0.4-3.4
		l-3.2-1.8c0.2-0.4,0.3-0.7,0.4-1.1l3.6,2.1c0.2,0.1,0.3,0.3,0.3,0.4l0.5,3.9C33.3,30.2,33.2,30.3,33.1,30.5z"/>
</g>
</svg>
