<?xml version="1.0" encoding="utf-8"?>
<!-- Generator: Adobe Illustrator 25.0.0, SVG Export Plug-In . SVG Version: 6.00 Build 0)  -->
<svg version="1.1" id="Layer_1" xmlns="http://www.w3.org/2000/svg" xmlns:xlink="http://www.w3.org/1999/xlink" x="0px" y="0px"
	 viewBox="0 0 70 70" style="enable-background:new 0 0 70 70;" xml:space="preserve">
<style type="text/css">
	.st0{fill:#FFFFFF;}
</style>
<g>
	<path class="st0" d="M56.5,54.4H20.1c-1.8,0-3.3-1.5-3.3-3.3s1.3-3.1,3.1-3.3l0,0h37.2l4.8-19.4l-44.7-5.5l-1.5-6.4
		c-0.1-0.8-0.8-1.2-1.5-1.2H7.1c-0.9,0-1.5,0.8-1.5,1.5c0,0.9,0.8,1.5,1.5,1.5h5.9l1,4l0,0l5.2,22.2c-3.1,0.4-5.5,3.1-5.5,6.2
		c0,3.6,2.8,6.4,6.4,6.4h36.5c0.9,0,1.5-0.8,1.5-1.5C58.2,55.1,57.5,54.4,56.5,54.4z"/>
	<circle class="st0" cx="27.2" cy="66.1" r="3.8"/>
	<circle class="st0" cx="49.4" cy="66.1" r="3.8"/>
	<path class="st0" d="M57.9,13.9c0.3-0.4,0.1-1-0.1-1.3L41.1,0.1c-0.4-0.3-1-0.1-1.3,0.1L24.6,20.9L50.3,24L57.9,13.9z M33.5,20
		c-0.3,0-0.6-0.1-0.9-0.3c-0.8-0.4-0.9-1.5-0.3-2.2l8.6-11.6c0.4-0.8,1.5-0.9,2.2-0.3C43.9,6,44.1,7,43.5,7.8l-8.6,11.6
		C34.4,19.8,33.9,20,33.5,20z M47.2,17.3c0.4,1,0.3,2.2-0.3,3.1c-1,1.3-3,1.6-4.3,0.6c-1.3-1-1.6-3-0.6-4.3c0.8-0.9,1.8-1.3,2.8-1.2
		c-0.4-1-0.3-2.2,0.3-3.1c1-1.3,3-1.6,4.3-0.6c1.3,1,1.6,3,0.6,4.3C49.4,17,48.4,17.4,47.2,17.3z"/>
</g>
</svg>
