<?xml version="1.0" encoding="utf-8"?>
<!-- Generator: Adobe Illustrator 25.0.0, SVG Export Plug-In . SVG Version: 6.00 Build 0)  -->
<svg version="1.1" id="Layer_1" xmlns="http://www.w3.org/2000/svg" xmlns:xlink="http://www.w3.org/1999/xlink" x="0px" y="0px"
	 viewBox="0 0 90 100" style="enable-background:new 0 0 90 100;" xml:space="preserve">
<style type="text/css">
	.st0{fill:#FFFFFF;}
</style>
<g>
	<path class="st0" d="M63.3,66.6H32c-1.6,0-2.8-1.3-2.8-2.8c0-1.6,1.1-2.7,2.7-2.8l0,0h31.9l4.1-16.6l-38.3-4.7l-1.3-5.5
		c-0.1-0.7-0.7-1-1.3-1h-6.2c-0.8,0-1.3,0.7-1.3,1.3c0,0.8,0.7,1.3,1.3,1.3H26l0.9,3.4l0,0l4.4,19c-2.7,0.4-4.7,2.7-4.7,5.3
		c0,3.1,2.4,5.5,5.5,5.5h31.3c0.8,0,1.3-0.7,1.3-1.3C64.7,67.2,64.1,66.6,63.3,66.6z"/>
	<circle class="st0" cx="38.2" cy="76.7" r="3.3"/>
	<circle class="st0" cx="57.2" cy="76.7" r="3.3"/>
	<path class="st0" d="M64.5,31.9c0.2-0.4,0.1-0.9-0.1-1.1L50,20.1c-0.4-0.2-0.9-0.1-1.1,0.1l-13,17.6L58,40.6L64.5,31.9z M43.6,37.1
		c-0.2,0-0.5-0.1-0.8-0.2c-0.7-0.4-0.8-1.3-0.2-1.9l7.4-10c0.4-0.7,1.3-0.8,1.9-0.2c0.7,0.4,0.8,1.3,0.2,1.9l-7.4,10
		C44.3,37,43.9,37.1,43.6,37.1z M55.3,34.8c0.4,0.9,0.2,1.9-0.2,2.7c-0.9,1.1-2.6,1.4-3.7,0.5c-1.1-0.9-1.4-2.6-0.5-3.7
		c0.7-0.8,1.6-1.1,2.4-1c-0.4-0.9-0.2-1.9,0.2-2.7c0.9-1.1,2.6-1.4,3.7-0.5c1.1,0.8,1.4,2.6,0.5,3.7C57.2,34.6,56.3,34.9,55.3,34.8z
		"/>
</g>
</svg>
