<svg width="21" height="20" viewBox="0 0 21 20" fill="white" xmlns="http://www.w3.org/2000/svg">
  <g clip-path="url(#clip0_1824_6644)">
    <path
      d="M14.9167 4.16666C15.6083 4.16666 16.1667 3.60832 16.1667 2.91666C16.1667 2.08332 14.9167 0.666656 14.9167 0.666656C14.9167 0.666656 13.6667 2.08332 13.6667 2.91666C13.6667 3.60832 14.225 4.16666 14.9167 4.16666ZM10.75 4.16666C11.4417 4.16666 12 3.60832 12 2.91666C12 2.08332 10.75 0.666656 10.75 0.666656C10.75 0.666656 9.5 2.08332 9.5 2.91666C9.5 3.60832 10.0583 4.16666 10.75 4.16666ZM6.58333 4.16666C7.275 4.16666 7.83333 3.60832 7.83333 2.91666C7.83333 2.08332 6.58333 0.666656 6.58333 0.666656C6.58333 0.666656 5.33333 2.08332 5.33333 2.91666C5.33333 3.60832 5.89167 4.16666 6.58333 4.16666ZM16.5167 6.67499C16.35 6.18332 15.8833 5.83332 15.3333 5.83332H6.16667C5.61667 5.83332 5.15833 6.18332 4.98333 6.67499L3.25 11.6667V18.3333C3.25 18.7917 3.625 19.1667 4.08333 19.1667H4.91667C5.375 19.1667 5.75 18.7917 5.75 18.3333V17.5H15.75V18.3333C15.75 18.7917 16.125 19.1667 16.5833 19.1667H17.4167C17.875 19.1667 18.25 18.7917 18.25 18.3333V11.6667L16.5167 6.67499ZM6.45833 7.49999H15.0333L15.9 9.99999H5.59167L6.45833 7.49999ZM16.5833 15.8333H4.91667V11.95L5.01667 11.6667H16.4917L16.5833 11.95V15.8333Z"
      fill="black" />
    <path
      d="M14.9167 4.16666C15.6083 4.16666 16.1667 3.60832 16.1667 2.91666C16.1667 2.08332 14.9167 0.666656 14.9167 0.666656C14.9167 0.666656 13.6667 2.08332 13.6667 2.91666C13.6667 3.60832 14.225 4.16666 14.9167 4.16666ZM10.75 4.16666C11.4417 4.16666 12 3.60832 12 2.91666C12 2.08332 10.75 0.666656 10.75 0.666656C10.75 0.666656 9.5 2.08332 9.5 2.91666C9.5 3.60832 10.0583 4.16666 10.75 4.16666ZM6.58333 4.16666C7.275 4.16666 7.83333 3.60832 7.83333 2.91666C7.83333 2.08332 6.58333 0.666656 6.58333 0.666656C6.58333 0.666656 5.33333 2.08332 5.33333 2.91666C5.33333 3.60832 5.89167 4.16666 6.58333 4.16666ZM16.5167 6.67499C16.35 6.18332 15.8833 5.83332 15.3333 5.83332H6.16667C5.61667 5.83332 5.15833 6.18332 4.98333 6.67499L3.25 11.6667V18.3333C3.25 18.7917 3.625 19.1667 4.08333 19.1667H4.91667C5.375 19.1667 5.75 18.7917 5.75 18.3333V17.5H15.75V18.3333C15.75 18.7917 16.125 19.1667 16.5833 19.1667H17.4167C17.875 19.1667 18.25 18.7917 18.25 18.3333V11.6667L16.5167 6.67499ZM6.45833 7.49999H15.0333L15.9 9.99999H5.59167L6.45833 7.49999ZM16.5833 15.8333H4.91667V11.95L5.01667 11.6667H16.4917L16.5833 11.95V15.8333Z"
      fill="black"/>
    <path
      d="M7 15C7.69036 15 8.25 14.4404 8.25 13.75C8.25 13.0596 7.69036 12.5 7 12.5C6.30964 12.5 5.75 13.0596 5.75 13.75C5.75 14.4404 6.30964 15 7 15Z"
      fill="black" />
    <path
      d="M7 15C7.69036 15 8.25 14.4404 8.25 13.75C8.25 13.0596 7.69036 12.5 7 12.5C6.30964 12.5 5.75 13.0596 5.75 13.75C5.75 14.4404 6.30964 15 7 15Z"
      fill="black"/>
    <path
      d="M14.5 15C15.1904 15 15.75 14.4404 15.75 13.75C15.75 13.0596 15.1904 12.5 14.5 12.5C13.8096 12.5 13.25 13.0596 13.25 13.75C13.25 14.4404 13.8096 15 14.5 15Z"
      fill="black" />
    <path
      d="M14.5 15C15.1904 15 15.75 14.4404 15.75 13.75C15.75 13.0596 15.1904 12.5 14.5 12.5C13.8096 12.5 13.25 13.0596 13.25 13.75C13.25 14.4404 13.8096 15 14.5 15Z"
      fill="black"/>
  </g>
  <defs>
    <clipPath id="clip0_1824_6644">
      <rect width="20" height="20" fill="black" transform="translate(0.75)" />
    </clipPath>
  </defs>
</svg>