<svg viewBox="-25 0 100 50" fill="none" xmlns="http://www.w3.org/2000/svg"><g  ><path d="M38.978 24.831c5.994 0 10.853-2.76 10.853-6.165 0-3.406-4.859-6.166-10.853-6.166s-10.853 2.76-10.853 6.166c0 3.405 4.86 6.165 10.853 6.165z"/><path fill-rule="evenodd" clip-rule="evenodd" d="M39.14 28.378c-7.762 0-10.852-3.253-10.852-5.137v8.072c0 3.406 4.859 6.162 10.853 6.162 6 0 10.859-2.756 10.859-6.163v-7.878c0 1.888-3.094 4.944-10.86 4.944z"/><path fill-rule="evenodd" clip-rule="evenodd" d="M39.14 40.85c-6.943 0-10.852-3.128-10.852-5.013v7.997c0 3.407 4.859 6.166 10.853 6.166C45.14 50 50 47.24 50 43.834v-8.093c0 1.884-3.913 5.109-10.86 5.109z"/><path d="M12.303 12.331c6.795 0 12.303-2.76 12.303-6.165C24.606 2.76 19.098 0 12.303 0 5.508 0 0 2.76 0 6.166 0 9.57 5.508 12.33 12.303 12.33z"/><path fill-rule="evenodd" clip-rule="evenodd" d="M12.694 15.878C3.897 15.878.39 12.625.39 10.741v8.072c0 3.406 5.509 6.162 12.303 6.162 6.8 0 12.306-2.756 12.306-6.163v-7.878c0 1.888-3.51 4.944-12.306 4.944z"/><path fill-rule="evenodd" clip-rule="evenodd" d="M12.694 28.35C4.822 28.35.39 25.222.39 23.337v7.997C.39 34.741 5.9 37.5 12.694 37.5c6.8 0 12.306-2.76 12.306-6.166v-8.093c0 1.884-4.438 5.109-12.306 5.109z"/><path fill-rule="evenodd" clip-rule="evenodd" d="M12.694 40.85C4.822 40.85.39 37.722.39 35.837v7.997C.39 47.241 5.9 50 12.694 50 19.494 50 25 47.24 25 43.834v-8.093c0 1.884-4.438 5.109-12.306 5.109z"/></g></svg>