<?xml version="1.0" encoding="utf-8"?>
<!-- Generator: Adobe Illustrator 25.0.0, SVG Export Plug-In . SVG Version: 6.00 Build 0)  -->
<svg version="1.1" id="Layer_1" xmlns="http://www.w3.org/2000/svg" xmlns:xlink="http://www.w3.org/1999/xlink" x="0px" y="0px"
	 viewBox="0 0 100 100" style="enable-background:new 0 0 100 100;" xml:space="preserve">
<style type="text/css">
	.st0{fill:#C72427;}
	.st1{fill:#FFCE00;}
	.st2{fill:#373F5B;}
</style>
<rect x="5.9" y="89" class="st0" width="88.1" height="6"/>
<rect x="69.5" y="5.2" class="st1" width="6.9" height="23.5"/>
<rect x="23.6" y="4.9" class="st1" width="6.9" height="23.5"/>
<path d="M90.7,15.5H79.1V10c0-3.4-2.8-6.1-6.1-6.1c-3.4,0-6.1,2.8-6.1,6.1v5.3H33.2V10c0-3.4-2.8-6.1-6.1-6.1s-6.1,2.8-6.1,6.1v5.5
	H9.3c-2.6,0-4.8,2.2-4.8,4.8V78v13.5c0,2.6,2.1,4.8,4.8,4.8h81.4c2.6,0,4.8-2.2,4.8-4.8V78V20.3C95.5,17.6,93.3,15.5,90.7,15.5z
	 M69.5,10c0-1.9,1.5-3.4,3.4-3.4c1.9,0,3.4,1.5,3.4,3.4v13.4c0,1.9-1.5,3.4-3.4,3.4c-1.9,0-3.4-1.5-3.4-3.4V10z M23.6,10
	c0-1.9,1.5-3.4,3.4-3.4c1.9,0,3.4,1.5,3.4,3.4v13.4c0,1.9-1.5,3.4-3.4,3.4c-1.9,0-3.4-1.5-3.4-3.4V10z M92.8,91.5
	c0,1.1-0.9,2.1-2.1,2.1H9.3c-1.1,0-2.1-0.9-2.1-2.1V89c0.6,0.3,1.3,0.5,2.1,0.5h81.4c0.8,0,1.5-0.2,2.1-0.5V91.5z M92.8,84.7
	c0,1.1-0.9,2.1-2.1,2.1H9.3c-1.1,0-2.1-0.9-2.1-2.1v-2.5c0.6,0.3,1.3,0.5,2.1,0.5h81.4c0.8,0,1.5-0.2,2.1-0.5V84.7z M92.8,78
	c0,1.1-0.9,2.1-2.1,2.1H9.3c-1.1,0-2.1-0.9-2.1-2.1V20.3c0-1.1,0.9-2.1,2.1-2.1h11.6v5.1c0,3.4,2.8,6.1,6.1,6.1s6.1-2.8,6.1-6.1V18
	h33.6v5.3c0,3.4,2.8,6.1,6.1,6.1c3.4,0,6.1-2.8,6.1-6.1v-5.1h11.6c1.1,0,2.1,0.9,2.1,2.1V78z"/>
<circle class="st2" cx="35.3" cy="65.4" r="3.6"/>
<circle class="st2" cx="59.5" cy="53.2" r="3.6"/>
<rect x="68.7" y="51.8" width="9" height="2.7"/>
<rect x="22.3" y="39.7" width="55.5" height="2.7"/>
<rect x="45.3" y="64" width="32.4" height="2.7"/>
<path d="M59.5,59.1c3.3,0,6-2.7,6-6c0-3.3-2.7-6-6-6c-2.8,0-5.2,2-5.8,4.6H22.3v2.7h31.4C54.3,57.2,56.6,59.1,59.5,59.1z M59.5,49.9
	c1.8,0,3.3,1.5,3.3,3.3s-1.5,3.3-3.3,3.3c-1.8,0-3.3-1.5-3.3-3.3S57.7,49.9,59.5,49.9z"/>
<path d="M35.3,59.4c-2.8,0-5.2,2-5.8,4.6h-7.3v2.7h7.3c0.6,2.6,3,4.6,5.8,4.6c3.3,0,6-2.7,6-6C41.3,62.1,38.6,59.4,35.3,59.4z
	 M35.3,68.6c-1.8,0-3.3-1.5-3.3-3.3c0-1.8,1.5-3.3,3.3-3.3c1.8,0,3.3,1.5,3.3,3.3C38.6,67.2,37.1,68.6,35.3,68.6z"/>
</svg>
