<?xml version="1.0" encoding="utf-8"?>
<!-- Generator: Adobe Illustrator 25.0.0, SVG Export Plug-In . SVG Version: 6.00 Build 0)  -->
<svg version="1.1" id="Layer_1" xmlns="http://www.w3.org/2000/svg" xmlns:xlink="http://www.w3.org/1999/xlink" x="0px" y="0px"
	 viewBox="0 0 39 32" style="enable-background:new 0 0 39 32;" xml:space="preserve">
<style type="text/css">
	.st0{fill:#FFFFFF;}
</style>
<g>
	<path class="st0" d="M14.6,0.8H0.5V27h14.1c1.6,0,3.1,0.8,4.3,2.2V3.6l-0.8-1C17.2,1.4,15.9,0.8,14.6,0.8z M10.7,23.1H4.9
		c-0.4,0-0.7-0.4-0.7-0.8c0-0.5,0.3-0.8,0.7-0.8h5.7c0.4,0,0.7,0.4,0.7,0.8C11.3,22.7,11,23.1,10.7,23.1z M14.9,19.5H4.9
		c-0.4,0-0.7-0.4-0.7-0.8s0.3-0.8,0.7-0.8h9.9c0.4,0,0.7,0.4,0.7,0.8S15.2,19.5,14.9,19.5z M14.9,16H7.5c-0.4,0-0.7-0.4-0.7-0.8
		s0.3-0.8,0.7-0.8h7.4c0.4,0,0.7,0.4,0.7,0.8S15.2,16,14.9,16z M15.5,11.7c0,0.5-0.3,0.8-0.7,0.8H4.7c-0.4,0-0.7-0.4-0.7-0.8v-7
		c0-0.5,0.3-0.8,0.7-0.8h10.1c0.4,0,0.7,0.4,0.7,0.8V11.7z M18.1,30.5l0.7,0.8H2.1L1,28.6h13.6C15.9,28.6,17.2,29.3,18.1,30.5
		L18.1,30.5z M24.5,0.8c-1.3,0-2.6,0.6-3.5,1.8l-0.8,1v25.6c1.2-1.4,2.7-2.2,4.3-2.1h14.1V0.8L24.5,0.8z M24.5,14.5h5.8
		c0.4,0,0.7,0.4,0.7,0.8c0,0.4-0.3,0.8-0.7,0.8h-5.8c-0.4,0-0.7-0.4-0.7-0.8C23.8,14.8,24.1,14.5,24.5,14.5L24.5,14.5z M23.9,11.8
		c0-0.5,0.3-0.8,0.7-0.8h2.6c0.4,0,0.7,0.4,0.7,0.8s-0.3,0.8-0.7,0.8h-2.6C24.2,12.6,23.9,12.2,23.9,11.8
		C23.9,11.8,23.9,11.7,23.9,11.8L23.9,11.8z M32.2,23.2h-7.8c-0.4,0-0.7-0.4-0.7-0.8c0-0.5,0.3-0.8,0.7-0.8h7.8
		c0.4,0,0.7,0.4,0.7,0.8C32.8,22.8,32.6,23.2,32.2,23.2z M34.4,19.6h-7.2c-0.4,0-0.7-0.4-0.7-0.8c0-0.5,0.3-0.8,0.7-0.8h7.2
		c0.4,0,0.7,0.4,0.7,0.8C35,19.3,34.7,19.6,34.4,19.6z M34.5,12.5H30c-0.4,0-0.7-0.4-0.7-0.8c0-0.5,0.3-0.8,0.7-0.8h4.6
		c0.4,0,0.7,0.4,0.7,0.8C35.2,12.2,34.9,12.5,34.5,12.5z M34.6,9h-10C24.3,9,24,8.6,24,8.2c0-0.5,0.3-0.8,0.7-0.8h9.9
		c0.4,0,0.7,0.4,0.7,0.8C35.2,8.6,35,9,34.6,9L34.6,9z M34.6,5.4h-7.4c-0.4,0-0.7-0.4-0.7-0.8c0-0.5,0.3-0.8,0.7-0.8h7.4
		c0.4,0,0.7,0.4,0.7,0.8C35.2,5.1,35,5.4,34.6,5.4L34.6,5.4z M24.5,28.6h13.6L37,31.3H20.4l0.7-0.8C21.9,29.3,23.2,28.6,24.5,28.6z
		 M5.4,5.5h8.8v5.4H5.4V5.5z"/>
</g>
</svg>
