<?xml version="1.0" encoding="utf-8"?>
<!-- Generator: Adobe Illustrator 25.0.0, SVG Export Plug-In . SVG Version: 6.00 Build 0)  -->
<svg version="1.1" id="Layer_1" xmlns="http://www.w3.org/2000/svg" xmlns:xlink="http://www.w3.org/1999/xlink" x="0px" y="0px"
	 viewBox="0 0 39 32" style="enable-background:new 0 0 39 32;" xml:space="preserve">
<style type="text/css">
	.st0{fill:#FFFFFF;}
</style>
<g>
	<path class="st0" d="M34.8,5.2l-4.5-4.5c-0.6-0.6-1.6-0.6-2.2,0L13.5,15.3c-0.2,0.2-0.3,0.5-0.4,0.7l-1.5,6c-0.1,1,0.7,1.9,1.8,1.8
		l6-1.5c0.3-0.1,0.5-0.2,0.7-0.4L34.8,7.4C35.4,6.8,35.4,5.8,34.8,5.2z"/>
	<path class="st0" d="M31.6,15.1L29,17.6C29,17.7,29,17.7,29,17.8v10.8H6.9V6.6h10.8c0.1,0,0.2,0,0.2-0.1l2.5-2.5
		c0.2-0.2,0.1-0.5-0.2-0.5H5.3C4.4,3.4,3.7,4.1,3.7,5v25.2c0,0.9,0.7,1.6,1.6,1.6h25.2c0.9,0,1.6-0.7,1.6-1.6V15.3
		C32.1,15,31.8,14.9,31.6,15.1z"/>
</g>
</svg>
