<svg width="20" height="20" viewBox="0 0 20 20" fill="none" xmlns="http://www.w3.org/2000/svg">
<path d="M11 15.0001H9V13.0001H11V15.0001ZM11 11.0001H9V5.00012H11V11.0001ZM10 20.0001C15.52 20.0001 20 15.5201 20 10.0001C20 4.48012 15.52 0.00012207 10 0.00012207C4.48 0.00012207 0 4.48012 0 10.0001C0 15.5201 4.48 20.0001 10 20.0001ZM10 2.00012C14.41 2.00012 18 5.59012 18 10.0001C18 14.4101 14.41 18.0001 10 18.0001C5.59 18.0001 2 14.4101 2 10.0001C2 5.59012 5.59 2.00012 10 2.00012Z" fill="#8B171F"/>
</svg>
