<?xml version="1.0" encoding="utf-8"?>
<!-- Generator: Adobe Illustrator 25.0.0, SVG Export Plug-In . SVG Version: 6.00 Build 0)  -->
<svg version="1.1" id="Layer_1" xmlns="http://www.w3.org/2000/svg" xmlns:xlink="http://www.w3.org/1999/xlink" x="0px" y="0px"
	 viewBox="0 0 90 80.8" style="enable-background:new 0 0 90 80.8;" xml:space="preserve">
<style type="text/css">
	.st0{fill-rule:evenodd;clip-rule:evenodd;fill:#FFFFFF;}
</style>
<path class="st0" d="M4.8,9.5c-0.5-0.6-0.8-1.2-0.9-2c-0.1-1,0.1-1.9,0.7-2.6C5.2,4.1,6,3.6,6.9,3.5c1-0.1,1.9,0.1,2.6,0.7
	c0.1,0.1,0.3,0.2,0.4,0.3l19.6,20.6c2.5-1,4.5-1.4,6-1.3l0,0l11.6,0.8c1.6,0.3,2.8,1.2,3.5,2.7l9,13.4c0.3,0.4,0.5,1,0.6,1.6
	c0.1,1-0.1,1.8-0.7,2.6c-0.6,0.8-1.4,1.2-2.4,1.3c-1,0.1-1.9-0.1-2.7-0.7c-0.3-0.2-0.6-0.5-0.8-0.8l-8.8-13.1l-4.7-0.3l8.5,14.1
	c1.2,2.2,2,4.2,2.5,6c1.1,3.2,2.6,5.2,4.4,6c2.9,0.6,6.9-1.4,11.9-5.8l0,0c0.1-0.1,0.1-0.1,0.2-0.2c0.8-0.6,1.7-0.8,2.7-0.7
	c1,0.1,1.7,0.6,2.3,1.4c0.6,0.8,0.8,1.7,0.7,2.7c-0.1,0.9-0.5,1.6-1.1,2.2c-7.7,6.8-14.2,9.1-19.8,6.9c-3.6-2.2-6.4-5.1-8.6-8.5
	c-3.3,7-1.6,13.3,5.2,18.9c0.2,0.2,0.3,0.3,0.5,0.5c0.5,0.6,0.7,1.2,0.8,1.9c0,0.2,0,0.5,0,0.7c-0.1,1-0.5,1.8-1.3,2.4
	c-0.7,0.6-1.6,0.9-2.6,0.8c-0.7-0.1-1.4-0.3-1.9-0.8l0,0c-1.2-1-2.4-2.1-3.4-3.2c-0.2-0.2-0.4-0.4-0.6-0.7c-6.3-7.3-7.5-16-3.6-26.2
	L26.6,34.9l-3-5.6L4.8,9.5L4.8,9.5z"/>
<path class="st0" d="M26.3,9.9c1.3-1.7,3-2.6,5.1-2.9c2.1-0.2,4,0.3,5.7,1.6c1.7,1.3,2.6,3,2.9,5.1c0.3,2.1-0.3,4-1.6,5.7
	c-1.3,1.7-3,2.6-5.1,2.9c-2.1,0.2-4-0.3-5.7-1.6c-0.4-0.4-0.8-0.7-1.2-1.1c-0.5-0.6-0.9-1.2-1.2-1.9c-0.3-0.6-0.4-1.3-0.5-2.1
	C24.5,13.5,25,11.6,26.3,9.9z"/>
<path class="st0" d="M66.2,50.4c-4.2,3.7-7.5,5.5-9.9,5.3c-1.2-0.8-2.2-2.3-3-4.6c-0.4-1.4-0.4-2.7,0.1-3.8c1.2,0.9,2.6,1.3,4.1,1.2
	l0,0c1.5-0.2,2.8-0.9,3.7-2.1l0,0c0.9-1.2,1.3-2.6,1.2-4.1c0,0,0,0,0,0c-0.1-0.9-0.4-1.7-0.9-2.4c0,0,0,0,0-0.1l-5.8-8.6
	c1,0.6,2,1.2,2.9,1.8c3.3,2.1,5.9,3.6,7.6,4.7C75.7,43.8,83,49.6,88,54.9l0,0.3c-1.9-0.5-3.9-0.5-5.9-0.1c-2.4,0.5-3.7,1.6-4,3.3
	c-0.3,2.4-0.8,4.2-1.3,5.2c-0.9,1.7-2.2,2.4-4,2.3c-0.3,0-1.2-0.2-2.9-0.6c-1.7-0.4-2.6-0.6-2.9-0.6c-0.6-0.1-1.2-0.1-1.7,0
	c2.6-1.4,5.4-3.3,8.3-5.9c0,0,0,0,0.1,0c1-0.9,1.6-2,1.8-3.3l0,0c0.2-1.6-0.1-2.9-1.1-4.2c-0.9-1.2-2.1-2-3.6-2.1
	c-1.5-0.2-2.9,0.1-4.2,1.1l0,0c0,0,0,0-0.1,0.1C66.4,50.2,66.3,50.3,66.2,50.4z"/>
</svg>
