<svg id="Layer_1" data-name="Layer 1" xmlns="http://www.w3.org/2000/svg" viewBox="0 0 100 100"><defs><style>.cls-1{fill:#c80000;}.cls-2{fill:#0a1028;}</style></defs><path class="cls-1" d="M51.45,33.56V21.47h2.88a.87.87,0,0,0,.87-.87.85.85,0,0,0-.15-.48l-4-6a1.33,1.33,0,0,0-2.14,0l-4,6a.85.85,0,0,0-.15.48.87.87,0,0,0,.87.87h2.88V33.56h-2.1v-10h-.78a3,3,0,0,1-3-3A3,3,0,0,1,43.2,19l4-6a3.37,3.37,0,0,1,5.62,0l4,6a3,3,0,0,1,.49,1.64,3,3,0,0,1-3,3h-.78v10Z"/><path class="cls-2" d="M36.46,88.52v-1a6.06,6.06,0,0,1,6-6h3.94V70.65l-.15,0a17.34,17.34,0,0,1-9-5.17l-.21-.23-.12.29a4.79,4.79,0,0,1-9.24-1.77A4.83,4.83,0,0,1,31.77,59l.54-.08v2.13a2.7,2.7,0,1,0,2.9,2.69,5.53,5.53,0,0,0-2.59-4.66l-.31-.19h0l-8-4.68A8.18,8.18,0,0,1,27.54,39l.18,0V28.57h-.78a3,3,0,0,1-3-3,2.94,2.94,0,0,1,.5-1.65l4-6a3.39,3.39,0,0,1,5.63,0l4,6a2.88,2.88,0,0,1,.5,1.64,3,3,0,0,1-3,3h-.78v5h-2.1V26.47h2.88a.87.87,0,0,0,.87-.87.9.9,0,0,0-.14-.48l-4-6a1.31,1.31,0,0,0-2.13,0l-4,6a.9.9,0,0,0-.14.48.87.87,0,0,0,.87.87h2.88V39.05l.16,0a6,6,0,0,1,2.41,1.12l.32.24v-4H67.29v4l.32-.24A6,6,0,0,1,70,39.08l.16,0V26.47h2.88a.87.87,0,0,0,.87-.87.9.9,0,0,0-.14-.48l-4-6a1.31,1.31,0,0,0-2.13,0l-4,6a.83.83,0,0,0-.15.48.87.87,0,0,0,.87.87h2.88v7.09h-2.1v-5h-.78a3,3,0,0,1-3-3,2.94,2.94,0,0,1,.5-1.65l4-6a3.39,3.39,0,0,1,5.63,0l4,6A2.88,2.88,0,0,1,76,25.6a3,3,0,0,1-3,3h-.78V39l.18,0a8.18,8.18,0,0,1,3.25,15.21l-8,4.68h0l-.31.19a5.53,5.53,0,0,0-2.59,4.66,2.7,2.7,0,1,0,2.9-2.69V58.92l.54.08a4.8,4.8,0,0,1-.74,9.54,4.77,4.77,0,0,1-4.45-3l-.12-.29-.21.23a17.34,17.34,0,0,1-9,5.17l-.15,0V81.42h3.94a6.06,6.06,0,0,1,6,6v1Zm6-5a4,4,0,0,0-3.73,2.63l-.09.27H61.31l-.09-.27a4,4,0,0,0-3.73-2.63Zm6-2.1h2.9V71l-.22,0c-.4,0-.82,0-1.23,0s-.83,0-1.23,0l-.22,0ZM34.81,53.75a15.09,15.09,0,0,0,1.06,5.56A7.84,7.84,0,0,1,37,61.52a15.17,15.17,0,0,0,26.06,0,7.86,7.86,0,0,1,1.09-2.21,15.07,15.07,0,0,0,1.08-5.6V38.56H34.81Zm32.48,0a17.91,17.91,0,0,1-.23,2.71l-.07.42,7.67-4.47a6.09,6.09,0,0,0-3.07-11.35h-.36A4,4,0,0,0,67.29,45a1.45,1.45,0,1,0,2.89,0V44h2.1v1a3.55,3.55,0,0,1-3.55,3.55,3.41,3.41,0,0,1-1.18-.22l-.26-.09ZM28.41,41.06a6.09,6.09,0,0,0-3.07,11.35L33,56.88l-.07-.42a17.91,17.91,0,0,1-.23-2.71V48.24l-.26.09a3.41,3.41,0,0,1-1.18.22A3.55,3.55,0,0,1,27.72,45V44h2.1v1a1.45,1.45,0,1,0,2.89,0,4,4,0,0,0-3.94-3.94Z"/><path class="cls-2" d="M59,50.62a.87.87,0,0,0-.72-.58l-5.17-.75L50.78,44.6a.88.88,0,0,0-.79-.48.86.86,0,0,0-.78.48L46.9,49.28,41.73,50a.87.87,0,0,0-.71.59.88.88,0,0,0,.22.9L45,55.17l-.88,5.15a.85.85,0,0,0,.35.85.9.9,0,0,0,.91.07L50,58.8l4.63,2.43a.93.93,0,0,0,.41.11.88.88,0,0,0,.87-1L55,55.17l3.75-3.65A.88.88,0,0,0,59,50.62ZM46.77,55a.85.85,0,0,0-.26-.77L43.7,51.5,47.58,51a.87.87,0,0,0,.65-.49L50,47l1.74,3.52a.9.9,0,0,0,.66.47l3.87.56-2.78,2.74a.89.89,0,0,0-.26.77l.66,3.87-3.47-1.83a.86.86,0,0,0-.81,0l-3.47,1.83Z"/></svg>