<?xml version="1.0" encoding="utf-8"?>
<!-- Generator: Adobe Illustrator 25.0.0, SVG Export Plug-In . SVG Version: 6.00 Build 0)  -->
<svg version="1.1" id="Layer_1" xmlns="http://www.w3.org/2000/svg" xmlns:xlink="http://www.w3.org/1999/xlink" x="0px" y="0px"
	 viewBox="0 0 1152.4 553.3" style="enable-background:new 0 0 1152.4 553.3;" xml:space="preserve">
<style type="text/css">
	.st0{fill:#FFFFFF;}
	.st1{fill:#C72026;}
</style>
<path class="st0" d="M585,406.6c0.5-6.4,0.7-12.8,0.5-19.2c-0.2-6.2-0.8-12.4-1.7-18.5l-32.3-5.3L540.6,333l21.5-24.7
	c-6.5-10.8-14.2-20.8-23.1-29.8l-29.3,14.7l-20.5-13.9v-80.6h26.5V164h-54.6v128.8c6.6,2.5,12.8,5.7,18.8,9.5l0,0l-0.4-0.3
	c49.9,31.5,64.7,97.5,33.2,147.4c-31.5,49.9-97.5,64.7-147.4,33.2s-64.7-97.5-33.2-147.4c8.4-13.2,19.6-24.5,32.8-32.9h0.1
	c5.2-3.3,10.8-6.2,16.5-8.6V164h-52.3v34.8h22.6v82.7l-0.5,0.3l-21.5,16.5l-30-13c-8.3,9.5-15.5,19.9-21.4,31.1l22.9,23.4l-9.2,31.1
	l-31.9,7.2c-0.6,6.5-0.8,13.1-0.6,19.7c0.2,6,0.8,12,1.6,18l32.3,5.4l10.8,30.6l-21.6,24.6c6.5,10.9,14.2,20.9,23,30l29.3-14.6
	l26.8,18.3l-3,32.6c11.6,4.9,23.7,8.5,36.2,10.7l15.1-29.1l32.5-0.9l16.7,28.2c12.3-2.9,24.2-7.1,35.5-12.7l-4.9-32.4l25.7-19.8
	l30.1,12.9c8.3-9.5,15.5-20,21.4-31.1L544,445l9.1-31.2L585,406.6z"/>
<path class="st1" d="M469.6,403.4c-18-1.6-34-8.5-50.4-14.9c-21.4-8.4-44.7-10.6-67.3-6.4c-7,1.2-13.8,2.9-20.5,5.1
	c0,0.5,0,1.1,0,1.6c0,51.4,41.6,93.2,93.1,93.2c47.2,0,86.9-35.2,92.6-82.1C501.5,403.7,485.5,404.9,469.6,403.4z"/>
<circle class="st1" cx="461.3" cy="353.1" r="17.2"/>
<circle class="st1" cx="405.6" cy="330.5" r="6"/>
<circle class="st1" cx="429.7" cy="272.6" r="8.9"/>
<circle class="st1" cx="417.9" cy="152.1" r="14.6"/>
<circle class="st1" cx="481.1" cy="105.4" r="23.4"/>
<ellipse transform="matrix(0.1602 -0.9871 0.9871 0.1602 310.7868 431.9661)" class="st1" cx="409.3" cy="33.3" rx="33.3" ry="33.3"/>
<path class="st0" d="M24.9,153H6v-11h18.9v-31.9h12.3V142h21.1v11.1H37.2v79.6H24.9V153z"/>
<path class="st0" d="M70.7,110.1h12.3v42.3c2.8-4.3,6.9-7.5,11.7-9.4c5-2,10.4-3,15.8-3c5.9,0,11.7,1.2,17.1,3.6
	c5.4,2.3,10.1,5.9,13.9,10.4c3.7,4.1,6.3,9.1,7.6,14.5c1.2,5.4,1.9,10.9,1.8,16.5v47.7h-12.2v-47.7c0-3.8-0.3-7.6-0.9-11.4
	c-1.5-8.3-7-15.3-14.6-18.9c-4.1-1.9-8.6-2.9-13.2-2.9c-4.3,0-8.6,1.1-12.4,3c-3.9,1.9-7.4,4.6-10,8.1c-2.3,3.1-3.7,6.7-4.1,10.5
	c-0.4,3.8-0.6,7.6-0.6,11.5v47.7H70.7V110.1z"/>
<path class="st0" d="M180.6,191.6c0.1,4.3,1.2,8.4,3.2,12.2c2,3.7,4.6,7.1,7.8,9.9c3.2,2.8,6.8,5.1,10.8,6.7
	c3.9,1.6,8.1,2.5,12.4,2.5c3.4,0,6.7-0.4,10-1.3c3.3-0.9,6.4-2.2,9.3-3.9c2.9-1.7,5.5-3.8,7.8-6.3c2.3-2.4,4.1-5.3,5.5-8.4h12.8
	c-1.6,4.5-3.9,8.8-6.8,12.6c-5.9,7.7-14,13.5-23.2,16.7c-4.5,1.6-9.3,2.4-14.1,2.4c-6.4,0-12.7-1.2-18.6-3.7
	c-5.7-2.3-10.8-5.8-15.1-10.1c-4.3-4.4-7.7-9.5-10.1-15.1c-2.5-5.9-3.8-12.2-3.7-18.6c0-6.4,1.2-12.7,3.6-18.6
	c2.3-5.6,5.7-10.7,10-15c4.3-4.3,9.4-7.7,15-10.1c5.9-2.5,12.2-3.8,18.6-3.7c7,0,13.9,1.5,20.1,4.6c6.3,3.1,11.9,7.5,16.3,13
	c2,2.5,3.7,5.2,5.1,8c1.3,2.6,2.4,5.3,3.1,8.1c0.8,2.8,1.3,5.7,1.7,8.6c0.3,3,0.5,6.1,0.7,9.4L180.6,191.6z M250.3,180.6
	c-0.8-4-2.3-7.8-4.4-11.3c-2.1-3.5-4.8-6.6-7.9-9.2c-3.1-2.6-6.6-4.7-10.4-6.1c-3.8-1.5-7.9-2.3-12-2.2c-4.2,0-8.3,0.7-12.3,2.2
	c-3.8,1.4-7.4,3.4-10.5,6c-3.2,2.5-5.9,5.6-8,9.1c-2.2,3.6-3.7,7.5-4.4,11.6L250.3,180.6z"/>
<polygon class="st0" points="803.2,311.2 800,311.2 800,460 803.2,460 822.1,460 825.3,460 825.3,311.2 822.1,311.2 "/>
<path class="st0" d="M758.8,333.3c-6.2-7.3-13.9-13-22.6-16.8c-8.7-3.8-18.1-5.8-27.6-5.8c-8.8,0-17.5,1.7-25.6,5
	c-5,2-9.6,4.9-13.6,8.6v-59.6H644V460h25.3v-76.8c0-5.8,0.3-11.7,0.9-17.5c0.5-5.3,2.5-10.3,5.6-14.6c3.7-4.9,8.6-8.9,14.1-11.5
	c11.6-5.7,25.1-5.7,36.7-0.1c10.8,5.1,18.5,15.1,20.7,26.8c0.9,5.6,1.4,11.3,1.4,17v76.8h25.3v-76.9c0-8.8-0.9-17.6-2.9-26.2
	C769.1,348.2,764.8,340.1,758.8,333.3z"/>
<path class="st0" d="M1109.3,410.1c-1.9,4.4-4.5,8.5-7.8,12c-3.3,3.6-7.1,6.6-11.3,9.2c-4.2,2.5-8.8,4.4-13.5,5.7
	c-10.8,2.9-21.9,2.6-32.3-1.7c-5.8-2.3-11.1-5.7-15.7-9.8c-4.6-4.1-8.4-9-11.3-14.5c-2.4-4.4-3.8-9.1-4.4-14.1h126.4l-0.1-3.3
	c-0.2-5.2-0.5-10.1-1-14.8c-0.5-4.7-1.4-9.3-2.7-13.8c-1.3-4.5-3-8.9-5.1-13.1c-2.3-4.6-5.1-8.9-8.3-12.9
	c-7.1-8.8-16.1-15.9-26.3-20.9c-10.1-4.9-21.2-7.4-32.5-7.4c-10.3-0.1-20.5,2-29.9,6c-9,3.8-17.2,9.4-24.2,16.2
	c-21.7,22.2-28,55.3-16,84c3.9,9,9.4,17.2,16.3,24.2c6.9,7,15.2,12.5,24.3,16.3c9.5,3.9,19.7,5.9,30,5.9c7.8,0,15.5-1.3,22.8-3.9
	c14.8-5.1,27.8-14.4,37.3-26.8c4.8-6.1,8.5-13,11-20.3l1.4-4.2h-26.3L1109.3,410.1z M1019,360.3c3.1-5,7-9.5,11.5-13.2
	c4.6-3.7,9.8-6.6,15.3-8.7c11.4-4.2,23.8-4.1,35.2,0.1c11.1,4.3,20.4,12.2,26.6,22.3c2.4,3.9,4.2,8.1,5.5,12.5h-99.6
	C1014.7,368.8,1016.6,364.4,1019,360.3z"/>
<polygon class="st0" points="909,424.4 862.8,313.8 835.4,313.8 896.9,460 920.9,460 982.6,313.8 955.2,313.8 "/>
</svg>
