<svg width="21" height="20" viewBox="0 0 21 20" fill="none" xmlns="http://www.w3.org/2000/svg">
    <g clip-path="url(#clip0_1824_6652)">
        <path
            d="M9.41669 11.6667H7.75002C7.75002 7.52499 11.1084 4.16666 15.25 4.16666V5.83332C12.025 5.83332 9.41669 8.44166 9.41669 11.6667ZM15.25 9.16666V7.49999C12.95 7.49999 11.0834 9.36666 11.0834 11.6667H12.75C12.75 10.2833 13.8667 9.16666 15.25 9.16666ZM6.08335 3.33332C6.08335 2.40832 5.34169 1.66666 4.41669 1.66666C3.49169 1.66666 2.75002 2.40832 2.75002 3.33332C2.75002 4.25832 3.49169 4.99999 4.41669 4.99999C5.34169 4.99999 6.08335 4.25832 6.08335 3.33332ZM9.79169 3.74999H8.12502C7.92502 4.93332 6.90835 5.83332 5.66669 5.83332H3.16669C2.47502 5.83332 1.91669 6.39166 1.91669 7.08332V9.16666H6.91669V7.28332C8.46669 6.79166 9.62502 5.42499 9.79169 3.74999ZM16.0834 14.1667C17.0084 14.1667 17.75 13.425 17.75 12.5C17.75 11.575 17.0084 10.8333 16.0834 10.8333C15.1584 10.8333 14.4167 11.575 14.4167 12.5C14.4167 13.425 15.1584 14.1667 16.0834 14.1667ZM17.3334 15H14.8334C13.5917 15 12.575 14.1 12.375 12.9167H10.7084C10.875 14.5917 12.0334 15.9583 13.5834 16.45V18.3333H18.5834V16.25C18.5834 15.5583 18.025 15 17.3334 15Z"
            fill="black" />
        <path
            d="M9.41669 11.6667H7.75002C7.75002 7.52499 11.1084 4.16666 15.25 4.16666V5.83332C12.025 5.83332 9.41669 8.44166 9.41669 11.6667ZM15.25 9.16666V7.49999C12.95 7.49999 11.0834 9.36666 11.0834 11.6667H12.75C12.75 10.2833 13.8667 9.16666 15.25 9.16666ZM6.08335 3.33332C6.08335 2.40832 5.34169 1.66666 4.41669 1.66666C3.49169 1.66666 2.75002 2.40832 2.75002 3.33332C2.75002 4.25832 3.49169 4.99999 4.41669 4.99999C5.34169 4.99999 6.08335 4.25832 6.08335 3.33332ZM9.79169 3.74999H8.12502C7.92502 4.93332 6.90835 5.83332 5.66669 5.83332H3.16669C2.47502 5.83332 1.91669 6.39166 1.91669 7.08332V9.16666H6.91669V7.28332C8.46669 6.79166 9.62502 5.42499 9.79169 3.74999ZM16.0834 14.1667C17.0084 14.1667 17.75 13.425 17.75 12.5C17.75 11.575 17.0084 10.8333 16.0834 10.8333C15.1584 10.8333 14.4167 11.575 14.4167 12.5C14.4167 13.425 15.1584 14.1667 16.0834 14.1667ZM17.3334 15H14.8334C13.5917 15 12.575 14.1 12.375 12.9167H10.7084C10.875 14.5917 12.0334 15.9583 13.5834 16.45V18.3333H18.5834V16.25C18.5834 15.5583 18.025 15 17.3334 15Z"
            fill="black" />
    </g>
    <defs>
        <clipPath id="clip0_1824_6652">
            <rect width="20" height="20" fill="black" transform="translate(0.25)" />
        </clipPath>
    </defs>
</svg>