<?xml version="1.0" encoding="utf-8"?>
<!-- Generator: Adobe Illustrator 25.0.0, SVG Export Plug-In . SVG Version: 6.00 Build 0)  -->
<svg version="1.1" id="Layer_1" xmlns="http://www.w3.org/2000/svg" xmlns:xlink="http://www.w3.org/1999/xlink" x="0px" y="0px"
	 viewBox="0 0 39 32" style="enable-background:new 0 0 39 32;" xml:space="preserve">
<style type="text/css">
	.st0{fill:#FFFFFF;}
</style>
<path class="st0" d="M24.3,29.4h1.4v-6.7h7.1c0.5,0,1,0.4,1,1v5.7h1.4c0.3,0,0.5,0.2,0.5,0.5v1c0,0.3-0.2,0.5-0.5,0.5H3.8
	c-0.3,0-0.5-0.2-0.5-0.5v-1c0-0.3,0.2-0.5,0.5-0.5h1.4v-8.1c0-0.5,0.4-1,1-1h7.1v9.1h1.4V17c0-0.5,0.4-1,1-1h7.6c0.5,0,1,0.4,1,1
	V29.4z M17.3,10.9c-0.9,0.5-1.9-0.2-1.7-1.3L16,7.2l-1.8-1.7c-0.8-0.7-0.4-1.9,0.7-2L17.3,3l1.1-2.2c0.5-0.9,1.7-0.9,2.1,0L21.7,3
	l2.5,0.4c1,0.2,1.4,1.3,0.7,2L23,7.2l0.4,2.5c0.2,1-0.8,1.7-1.7,1.3l-2.2-1.2L17.3,10.9z"/>
</svg>
