<?xml version="1.0" encoding="utf-8"?>
<!-- Generator: Adobe Illustrator 25.0.0, SVG Export Plug-In . SVG Version: 6.00 Build 0)  -->
<svg version="1.1" id="Layer_1" xmlns="http://www.w3.org/2000/svg" xmlns:xlink="http://www.w3.org/1999/xlink" x="0px" y="0px"
	 viewBox="0 0 72 70" style="enable-background:new 0 0 72 70;" xml:space="preserve">
<style type="text/css">
	.st0{fill:#8AC423;}
	.st1{fill:#E0CC0E;}
	.st2{fill:#C72026;}
	.st3{fill:#2284C6;}
</style>
<g>
	
		<rect x="48.1" y="52.3" transform="matrix(-1.425034e-06 -1 1 -1.425034e-06 -5.8094 116.5631)" class="st0" width="14.5" height="17.7"/>
	<ellipse class="st1" cx="36.2" cy="13.4" rx="7" ry="7.6"/>
	
		<rect x="22" y="44.5" transform="matrix(-7.396235e-07 -1 1 -7.396235e-07 -17.4001 89.2979)" class="st2" width="28" height="17.7"/>
	
		<rect x="5.9" y="48.8" transform="matrix(-1.003126e-06 -1 1 -1.003126e-06 -41.4058 73.8513)" class="st3" width="20.6" height="17.7"/>
	<path d="M5.1,65.9V46.7c0-1.2,1-2.1,2.1-2.1h17.1v-6.4c0-1.2,1-2.1,2.1-2.1h19.2c1.2,0,2.1,1,2.1,2.1V51H65c1.2,0,2.1,1,2.1,2.1
		v12.8h3.2c1.2,0,2.1,1,2.1,2.1s-1,2.1-2.1,2.1H1.9c-1.2,0-2.1-1-2.1-2.1s1-2.1,2.1-2.1H5.1z M28.6,40.3v25.7h15V40.3H28.6z
		 M9.4,48.8v17.1h15V48.8H9.4z M47.9,55.2v10.7h15V55.2H47.9z M31.2,24.5c-2.1,1.1-4.3-0.5-3.9-2.8l0.9-5.5l-4-3.9
		c-1.7-1.7-0.8-4.2,1.5-4.5l5.6-0.8l2.5-5c1-2.1,3.7-2.1,4.8,0l2.5,5l5.6,0.8c2.3,0.3,3.2,2.9,1.5,4.5l-4,3.9l0.9,5.5
		c0.4,2.3-1.8,3.9-3.9,2.8l-5-2.6L31.2,24.5z M35.1,17.5c0.6-0.3,1.4-0.3,2,0l3.1,1.6l-0.6-3.4c-0.1-0.7,0.1-1.4,0.6-1.9l2.5-2.4
		l-3.4-0.5c-0.7-0.1-1.3-0.5-1.6-1.2l-1.5-3.1l-1.5,3.1c-0.3,0.6-0.9,1.1-1.6,1.2l-3.4,0.5l2.5,2.4c0.5,0.5,0.7,1.2,0.6,1.9
		l-0.6,3.4L35.1,17.5z"/>
</g>
</svg>
