<?xml version="1.0" encoding="utf-8"?>
<!-- Generator: Adobe Illustrator 25.0.0, SVG Export Plug-In . SVG Version: 6.00 Build 0)  -->
<svg version="1.1" id="Layer_1" xmlns="http://www.w3.org/2000/svg" xmlns:xlink="http://www.w3.org/1999/xlink" x="0px" y="0px"
	 viewBox="0 0 39 32" style="enable-background:new 0 0 39 32;" xml:space="preserve">
<style type="text/css">
	.st0{fill:#FFFFFF;}
</style>
<path class="st0" d="M28.6,17c3.7,0,6.7-3.1,6.7-6.8c0-3.3-2.4-6.1-5.6-6.7V2c0-0.7-0.5-1.2-1.2-1.2H10.6C9.9,0.8,9.4,1.4,9.4,2v1.5
	c-3.2,0.5-5.7,3.3-5.7,6.7c0,3.7,3,6.8,6.8,6.8c1,1.9,2.5,3.5,4.4,4.5v4.2h-2.2c-0.4,0-0.8,0.2-1,0.5l-3.4,3.9
	c-0.2,0.4-0.3,0.8-0.1,1.2C8.5,31.8,8.9,32,9.3,32h20.3c0,0,0,0,0,0c0.7,0,1.2-0.5,1.2-1.2c0-0.3-0.1-0.6-0.3-0.8l-3.3-3.7
	c-0.2-0.3-0.6-0.5-1-0.5h-2.2v-4.2C26,20.6,27.6,19,28.6,17z M29.7,12.5V6c1.8,0.5,3.2,2.2,3.2,4.2c0,2.1-1.5,3.8-3.4,4.3
	C29.6,13.9,29.7,13.2,29.7,12.5z M6.1,10.3c0-2,1.4-3.8,3.3-4.3v6.5c0,0.7,0.1,1.4,0.2,2C7.6,14.1,6.1,12.4,6.1,10.3z M21.7,25.7
	h-4.4v-3.3c0.7,0.2,1.5,0.3,2.2,0.3c0.7,0,1.5-0.1,2.2-0.2V25.7z M20.7,5.6c-0.7,0-1.2-0.5-1.2-1.2s0.5-1.2,1.2-1.2h4.9
	c0.7,0,1.2,0.5,1.2,1.2v6.9c0,0.7-0.5,1.2-1.2,1.2s-1.2-0.5-1.2-1.2V5.6H20.7z"/>
</svg>
