<?xml version="1.0" encoding="utf-8"?>
<!-- Generator: Adobe Illustrator 25.0.0, SVG Export Plug-In . SVG Version: 6.00 Build 0)  -->
<svg version="1.1" id="Layer_1" xmlns="http://www.w3.org/2000/svg" xmlns:xlink="http://www.w3.org/1999/xlink" x="0px" y="0px"
	 viewBox="0 0 100 100" style="enable-background:new 0 0 100 100;" xml:space="preserve">
<style type="text/css">
	.st0{fill:#FFFFFF;}
</style>
<g>
	<path class="st0" d="M89.1,34H71.3c-2.8,0-5.6,1-7.5,3L24,74.8H10.7C4.8,74.8,0,79.4,0,85s4.8,10.2,10.7,10.2h17.8
		c2.8,0,5.6-1,7.5-3l39.6-37.8h13.4c5.9,0,10.7-4.6,10.7-10.2S95,34,89.1,34z"/>
	<ellipse class="st0" cx="39.2" cy="10.2" rx="10.7" ry="10.2"/>
	<path class="st0" d="M49.9,34c0-3.8-3.2-6.8-7.1-6.8h-7.1c-3.9,0-7.1,3-7.1,6.8v27l21.3-20.4V34z"/>
</g>
<path class="st0" d="M99.6,78.5L85.8,65c-0.8-0.8-1.4-1.5-2.4-1.5S81.9,64.1,81,65L67.4,78.5c-0.4,0.8-0.3,1.8,0.1,2.5
	c0.4,0.7,1.3,1.2,2.3,1.2h8.3v12.5c0,2.9,2.4,5.2,5.5,5.2c3.1,0,5.5-2.3,5.5-5.2V82.3h8.3c0.9,0,1.7-0.5,2.3-1.2
	c0.2-0.4,0.4-0.9,0.4-1.4C99.8,79.3,99.7,78.9,99.6,78.5z"/>
</svg>
