<svg width="21" height="20" viewBox="0 0 21 20" fill="none" xmlns="http://www.w3.org/2000/svg">
    <g clip-path="url(#clip0_1824_6636)">
        <path
            d="M1.08334 18.3167C1.08334 18.7833 1.45834 19.1583 1.925 19.1583H12.75C13.2167 19.1583 13.5917 18.7833 13.5917 18.3167V17.5H1.08334V18.3167ZM7.33334 7.49168C4.20834 7.49168 1.08334 9.16668 1.08334 12.5H13.5833C13.5833 9.16668 10.4583 7.49168 7.33334 7.49168ZM3.26667 10.8333C4.19167 9.54168 6.15834 9.15834 7.33334 9.15834C8.50834 9.15834 10.475 9.54168 11.4 10.8333H3.26667ZM1.08334 14.1667H13.5833V15.8333H1.08334V14.1667ZM15.25 4.16668V0.833344H13.5833V4.16668H9.41667L9.60833 5.83334H17.575L16.4083 17.5H15.25V19.1667H16.6833C17.3833 19.1667 17.9583 18.625 18.0417 17.9417L19.4167 4.16668H15.25Z"
            fill="black" />
        <path
            d="M1.08334 18.3167C1.08334 18.7833 1.45834 19.1583 1.925 19.1583H12.75C13.2167 19.1583 13.5917 18.7833 13.5917 18.3167V17.5H1.08334V18.3167ZM7.33334 7.49168C4.20834 7.49168 1.08334 9.16668 1.08334 12.5H13.5833C13.5833 9.16668 10.4583 7.49168 7.33334 7.49168ZM3.26667 10.8333C4.19167 9.54168 6.15834 9.15834 7.33334 9.15834C8.50834 9.15834 10.475 9.54168 11.4 10.8333H3.26667ZM1.08334 14.1667H13.5833V15.8333H1.08334V14.1667ZM15.25 4.16668V0.833344H13.5833V4.16668H9.41667L9.60833 5.83334H17.575L16.4083 17.5H15.25V19.1667H16.6833C17.3833 19.1667 17.9583 18.625 18.0417 17.9417L19.4167 4.16668H15.25Z"
            fill="black" />
    </g>
    <defs>
        <clipPath id="clip0_1824_6636">
            <rect width="20" height="20" fill="black" transform="translate(0.25)" />
        </clipPath>
    </defs>
</svg>