<?xml version="1.0" encoding="utf-8"?>
<!-- Generator: Adobe Illustrator 25.0.0, SVG Export Plug-In . SVG Version: 6.00 Build 0)  -->
<svg version="1.1" id="Layer_1" xmlns="http://www.w3.org/2000/svg" xmlns:xlink="http://www.w3.org/1999/xlink" x="0px" y="0px"
	 viewBox="0 0 58.2 96.1" style="enable-background:new 0 0 58.2 96.1;" xml:space="preserve">
<style type="text/css">
	.st0{fill:#FFF200;}
	.st1{fill:#C72026;}
</style>
<g>
	<g>
		<path class="st0" d="M58,21c-0.5-1.6-2-2.7-4.2-3l-4.2-0.6c-3.4-5.1-8.5-8.7-14.4-10.2l-2-4.1c-1-1.9-2.5-3.1-4.1-3.1
			S25.9,1.1,25,3.1l-2,4.1c-5.9,1.5-11,5.2-14.4,10.2L4.3,18c-2.1,0.3-3.7,1.4-4.2,3c-0.5,1.6,0.1,3.3,1.6,4.9l2.8,2.7
			c-0.1,0.8-0.1,1.6-0.1,2.4c0,5.8,2.1,11.4,5.8,15.8l-0.6,3.3c-0.4,2.2,0.3,3.5,0.9,4.3c0.7,0.9,1.8,1.3,3,1.3
			c0.9,0,1.8-0.3,2.8-0.8l2.8-1.5c3.1,1.4,6.6,2.1,10,2.1s6.9-0.7,10-2.1l2.8,1.5c1,0.5,1.9,0.8,2.8,0.8c1.2,0,2.2-0.5,3-1.3
			c0.6-0.7,1.3-2.1,0.9-4.3L48,46.8c3.7-4.4,5.8-10,5.8-15.8c0-0.8-0.1-1.6-0.1-2.4l2.8-2.7C58,24.4,58.5,22.6,58,21z M43.7,16.6
			c-0.8-0.1-1.7-0.5-2.6-1c-0.1,0-0.1-0.1-0.2-0.1c-0.2-0.1-0.5-0.3-0.7-0.4c-0.1,0-0.1-0.1-0.2-0.1c-0.2-0.2-0.4-0.3-0.6-0.5
			c-0.1,0-0.1-0.1-0.1-0.1c-0.2-0.2-0.4-0.4-0.6-0.6c0,0-0.1-0.1-0.1-0.1c-0.2-0.2-0.3-0.4-0.5-0.6c0,0,0-0.1-0.1-0.1
			c-0.1-0.2-0.2-0.4-0.3-0.5C40.1,13.4,42.1,14.8,43.7,16.6L43.7,16.6z M27.3,14.9c0.5-1,1.7-1.4,2.7-0.9c1,0.5,1.4,1.7,0.9,2.7
			l-0.2,0.5c-2,4-5.8,7.5-10.3,9.3c-0.2,0.1-0.5,0.2-0.8,0.2c-0.8,0-1.5-0.5-1.8-1.2c-0.4-1,0-2.2,1.1-2.6c3.5-1.5,6.7-4.4,8.2-7.4
			L27.3,14.9z M20.4,12.3c-0.1,0.2-0.2,0.4-0.3,0.5c0,0,0,0.1-0.1,0.1c-0.1,0.2-0.3,0.4-0.5,0.6c0,0-0.1,0.1-0.1,0.1
			c-0.2,0.2-0.4,0.4-0.6,0.6c0,0-0.1,0.1-0.1,0.1c-0.2,0.2-0.4,0.3-0.6,0.5C18,15,18,15,17.9,15c-0.3,0.2-0.5,0.4-0.8,0.5
			c0,0,0,0-0.1,0c-0.9,0.5-1.8,0.9-2.6,1l-0.1,0C16.1,14.8,18.2,13.4,20.4,12.3z M9.1,33c1.6,1.6,2.7,4.9,2.3,7.1l-0.2,1.2
			c-1.6-2.7-2.5-5.7-2.7-8.9L9.1,33z M26.9,51.5c-0.2,0-0.3,0-0.5,0c-0.2,0-0.3-0.1-0.5-0.1c-0.3,0-0.5-0.1-0.8-0.1v0
			c-0.4-0.1-0.8-0.2-1.2-0.3l0.1,0l0.6-0.3l0.8-0.4c0.9-0.5,2.3-0.8,3.7-0.8c0.9,0,1.8,0.1,2.6,0.3c0.4,0.1,0.8,0.3,1.1,0.4l1.5,0.8
			C31.9,51.6,29.4,51.8,26.9,51.5z M47,41.3l-0.2-1.2c-0.4-2.2,0.7-5.5,2.3-7.1l0.6-0.6C49.5,35.6,48.6,38.6,47,41.3z"/>
	</g>
	<g>
		<path class="st1" d="M39,55.7c-3.1,1.2-6.5,1.9-9.9,1.9c-1.3,0-2.7-0.1-4-0.3v12c0,1.1-0.9,2-2,2c-1.1,0-2-0.9-2-2V56.4v-1.7l-2,1
			l-1.9,1c-1.1,0.6-2.2,0.9-3.2,1v36.4l0,2H17l12-14.4l12,14.4h3V57.7c-1-0.1-2.1-0.4-3.2-1L39,55.7z"/>
	</g>
</g>
</svg>
