<svg id="Layer_1" data-name="Layer 1" xmlns="http://www.w3.org/2000/svg" viewBox="0 0 100 100"><defs><style>.cls-1{fill:#0a1028;}.cls-2{fill:#29b747;}</style></defs><path class="cls-1" d="M42.39,62.36a.78.78,0,0,0-.64-.53l-4.69-.68L35,56.91a.79.79,0,0,0-.71-.44.82.82,0,0,0-.72.44l-2.09,4.24-4.68.67a.8.8,0,0,0-.45,1.35l3.4,3.31-.81,4.67a.8.8,0,0,0,.32.77.82.82,0,0,0,.83.06l4.2-2.21L38.45,72a.76.76,0,0,0,.37.1.8.8,0,0,0,.47-.15.82.82,0,0,0,.32-.77l-.81-4.67,3.4-3.31A.78.78,0,0,0,42.39,62.36Zm-11.06,4a.74.74,0,0,0-.23-.69l-2.54-2.48,3.51-.5a.82.82,0,0,0,.59-.44L34.24,59l1.57,3.19a.79.79,0,0,0,.59.43l3.52.51L37.4,65.64a.8.8,0,0,0-.24.7l.6,3.5-3.14-1.66a.84.84,0,0,0-.74,0l-3.14,1.66Z"/><path class="cls-1" d="M75,62.36a.81.81,0,0,0-.65-.53l-4.69-.68-2.09-4.24a.79.79,0,0,0-.71-.44.82.82,0,0,0-.72.44l-2.09,4.24-4.68.67a.8.8,0,0,0-.45,1.35l3.4,3.31-.81,4.67a.8.8,0,0,0,.32.77.82.82,0,0,0,.83.06l4.2-2.21L71.06,72a.76.76,0,0,0,.37.1.8.8,0,0,0,.47-.15.82.82,0,0,0,.32-.77l-.81-4.67,3.4-3.31A.8.8,0,0,0,75,62.36Zm-11.07,4a.72.72,0,0,0-.23-.69l-2.54-2.48,3.51-.5a.82.82,0,0,0,.59-.44L66.85,59l1.57,3.19a.79.79,0,0,0,.59.43l3.52.51L70,65.64a.8.8,0,0,0-.24.7l.6,3.5-3.14-1.66a.84.84,0,0,0-.74,0l-3.14,1.66Z"/><path class="cls-1" d="M83.51,53.8c-2.17-4.31-5.44-6.83-9.73-7.49a8.86,8.86,0,0,0-1.38-.11,14.59,14.59,0,0,0-6.68,1.92q-.57.32-1.14.66l-.51.31-.31-.51c-4.62-7.64-5.4-16.22-2.4-26.21l.09-.28.27-.1c.93-.37,1.89-.71,2.85-1a1.18,1.18,0,0,0,.72-.59,1.22,1.22,0,0,0,.09-.92,1.2,1.2,0,0,0-1.16-.86,1.34,1.34,0,0,0-.35.05A38,38,0,0,0,60,20.07c-12.26,5-20.64,14.81-24.89,29.21l-.22.72-.65-.37-.5-.27a12,12,0,0,0-5.28-1.3,10.85,10.85,0,0,0-3.4.55,9.71,9.71,0,0,0-6,5.2A19.72,19.72,0,0,0,17.58,68,18.61,18.61,0,0,0,27.86,80a13.29,13.29,0,0,0,5.89,1.36,18.93,18.93,0,0,0,8.19-2.09,21.73,21.73,0,0,0,7.73-6.08l.51-.67.47.7a19.81,19.81,0,0,0,14.07,8.52,14.06,14.06,0,0,0,2.15.17c4.08,0,8-1.84,11.82-5.47s6.09-7.44,6.7-11.26A19,19,0,0,0,83.51,53.8ZM48.67,70.32c-1.44,2.63-4.06,4.92-7.8,6.81A16.38,16.38,0,0,1,33.77,79a10.79,10.79,0,0,1-4.84-1.13,16,16,0,0,1-9-10.46,17.13,17.13,0,0,1,1.27-12.51,7.32,7.32,0,0,1,4.59-4,8.64,8.64,0,0,1,2.68-.44,9.29,9.29,0,0,1,4.19,1.06A13.11,13.11,0,0,1,34.82,53a1.85,1.85,0,0,0,.25.16,1.56,1.56,0,0,0,.69.17,1.21,1.21,0,0,0,.38-.06,24.74,24.74,0,0,1,2.57-.64,15,15,0,0,1,2.71-.27,7.93,7.93,0,0,1,3.49.71,8.9,8.9,0,0,1,2.8,2l.25.27-.14.35a12.17,12.17,0,0,0-.6,2.23,21.9,21.9,0,0,0,.29,8.45,19.49,19.49,0,0,0,1.18,3.42l.12.27Zm.07-17.63A11.45,11.45,0,0,0,46,50.86a10.24,10.24,0,0,0-4.55-1,17.88,17.88,0,0,0-3.15.3l-1,.18.29-.94C41.22,37.51,47.89,28.93,57.4,24l1.16-.61-.3,1.27c-2,8.5-1.2,16.29,2.29,23.17l.49,1L60,48.65a13.2,13.2,0,0,0-1.39-.07,11.44,11.44,0,0,0-6.79,2.14,10.84,10.84,0,0,0-2.17,1.91l-.4.47ZM83,64.84c-.53,3.28-2.54,6.61-6,9.88s-6.66,4.79-10.13,4.79a10.92,10.92,0,0,1-1.8-.14c-5.67-.85-9.8-3.41-12.65-7.82-.42-.68-.83-1.38-1.22-2.1a17.44,17.44,0,0,1-1.35-3.65,19.54,19.54,0,0,1-.25-7.49,8.89,8.89,0,0,1,.81-2.51l0-.1a7.47,7.47,0,0,1,2.68-3A9,9,0,0,1,58.55,51a12.4,12.4,0,0,1,1.88.15,17.28,17.28,0,0,1,3,.79,1.32,1.32,0,0,0,.34,0h.15a1.28,1.28,0,0,0,.54-.21c.81-.55,1.63-1,2.45-1.5a12.15,12.15,0,0,1,5.52-1.63,5.7,5.7,0,0,1,1,.08c3.52.54,6.11,2.56,7.93,6.17A16.39,16.39,0,0,1,83,64.84Z"/><path class="cls-2" d="M54.15,17.66A9.1,9.1,0,0,0,47,14a13,13,0,0,0-5.72,1.53,22.56,22.56,0,0,0-4.84,3.15l-1.26,1.18a1.24,1.24,0,0,0-.39,1,1.2,1.2,0,0,0,.58.91l1.4.86.17.09a44.73,44.73,0,0,0,5.39,1.84,15.94,15.94,0,0,0,3.05.31,9.22,9.22,0,0,0,9-5.95A1.2,1.2,0,0,0,54.15,17.66ZM51.54,19a6.7,6.7,0,0,1-6.2,3.41h0a13.59,13.59,0,0,1-2.55-.27,38.44,38.44,0,0,1-3.86-1.27l-1-.38.85-.65A19.06,19.06,0,0,1,42.3,17.7a10.32,10.32,0,0,1,4.62-1.27,6.4,6.4,0,0,1,4.51,1.86l.36.33Z"/><path class="cls-1" d="M72.37,86a.91.91,0,0,1-.26-1.78,22.4,22.4,0,0,0,8.83-5.58c3.91-3.68,6.4-7.44,7.41-11.18a.91.91,0,0,1,1.75.47C89,72,86.34,76.06,82.19,80a24.18,24.18,0,0,1-9.55,6A1.26,1.26,0,0,1,72.37,86ZM16.66,51.9a.9.9,0,0,1-.9-.9v-3a.91.91,0,0,1,1.81,0v3A.9.9,0,0,1,16.66,51.9Zm25.87-5.21a1.15,1.15,0,0,1-.26,0,.91.91,0,0,1-.61-1.13,22.36,22.36,0,0,1,1.6-4,.91.91,0,0,1,1.61.83A21.34,21.34,0,0,0,43.4,46,.91.91,0,0,1,42.53,46.69Zm-20-.68h-2.9a.91.91,0,1,1,0-1.81h2.9a.91.91,0,0,1,0,1.81Zm-8.79,0H10.78a.91.91,0,1,1,0-1.81h2.94a.91.91,0,1,1,0,1.81Zm2.94-2.9a.9.9,0,0,1-.9-.9v-3a.91.91,0,0,1,1.81,0v3A.9.9,0,0,1,16.66,43.11Zm30.39-5.3a.9.9,0,0,1-.73-1.43,40,40,0,0,1,5-5.7.91.91,0,0,1,1.28,0,.9.9,0,0,1,0,1.28,38.87,38.87,0,0,0-4.78,5.45A.9.9,0,0,1,47.05,37.81Z"/></svg>