<svg xmlns="http://www.w3.org/2000/svg" xmlns:xlink="http://www.w3.org/1999/xlink" version="1.1" x="0px" y="0px" viewBox="0 0 256 256" enable-background="new 0 0 256 256" xml:space="preserve">
<style type="text/css">
	.iconPath{
        fill:#ffffff;
        stroke: #ffffff;
        stroke-width: 3;
    }
</style>
    <g>
        <path class="iconPath" d="M80,100.5c-14.8,0-26.8,12-26.8,26.8c0,14.8,12,26.8,26.8,26.8c14.8,0,26.8-12,26.8-26.8C106.8,112.5,94.8,100.5,80,100.5 M80,141c-7.6,0-13.8-6.2-13.8-13.8c0-7.6,6.2-13.8,13.8-13.8c7.6,0,13.7,6.2,13.7,13.8C93.7,134.9,87.5,141,80,141"/>
        <path class="iconPath" d="M207.5,125.9h-66.2c-3.6,0-6.5-2.9-6.5-6.5c0-3.6,2.9-6.5,6.5-6.5h66.2c3.6,0,6.5,2.9,6.5,6.5C214,123,211.1,125.9,207.5,125.9"/>
        <path class="iconPath" d="M207.5,153.7h-66.2c-3.6,0-6.5-2.9-6.5-6.5c0-3.6,2.9-6.5,6.5-6.5h66.2c3.6,0,6.5,2.9,6.5,6.5C214,150.8,211.1,153.7,207.5,153.7"/>
        <path class="iconPath" d="M207.5,181.5h-66.2c-3.6,0-6.5-2.9-6.5-6.6s2.9-6.5,6.5-6.5h66.2c3.6,0,6.5,2.9,6.5,6.5C214,178.5,211.1,181.5,207.5,181.5"/>
        <path class="iconPath" d="M108.6,31.8v61.6h43.3v-0.6V31.8H108.6z M138.8,80.3h-17.1V44.8h17.1V80.3z"/>
        <path class="iconPath" d="M227.4,66.1h-62.5v13.1h62.4c3,0,5.6,2.6,5.6,5.6v120.8c0,3-2.6,5.6-5.6,5.6H120.5c0-0.1,0-0.2,0-0.3v-20.3c0-14.4-11.8-26.1-26.1-26.1h-28c-14.4,0-26.1,11.8-26.1,26.1v20.3c0,0.1,0,0.2,0,0.3H28.7c-3,0-5.6-2.6-5.6-5.6V84.8c0-3,2.6-5.6,5.6-5.6h66.8V66.1H28.7C18.4,66.1,10,74.5,10,84.8v120.8c0,10.3,8.4,18.7,18.7,18.7h198.7c10.3,0,18.6-8.4,18.6-18.7V84.8C246,74.5,237.6,66.1,227.4,66.1 M107.5,210.9c0,0.1,0,0.2,0,0.3h-54c0-0.1,0-0.2,0-0.3v-20.3c0-7.2,5.9-13.1,13.1-13.1h28c7.2,0,13.1,5.9,13.1,13.1V210.9z"/>
    </g>
</svg>