<svg id="Layer_1" data-name="Layer 1" xmlns="http://www.w3.org/2000/svg" viewBox="0 0 100 100"><defs><style>.cls-1{fill:#25c9d6;}.cls-2{fill:#0a1028;}</style></defs><path class="cls-1" d="M70,58.62a.87.87,0,0,0-.72-.58l-5.17-.75L61.78,52.6a.88.88,0,0,0-.79-.48.86.86,0,0,0-.78.48L57.9,57.28,52.73,58a.87.87,0,0,0-.71.59.88.88,0,0,0,.22.9L56,63.17l-.88,5.15a.85.85,0,0,0,.35.85.9.9,0,0,0,.91.07L61,66.8l4.63,2.43a.93.93,0,0,0,.41.11.88.88,0,0,0,.87-1L66,63.17l3.75-3.65A.88.88,0,0,0,70,58.62ZM57.77,63a.85.85,0,0,0-.26-.77L54.7,59.5,58.58,59a.87.87,0,0,0,.65-.49L61,55l1.74,3.52a.9.9,0,0,0,.66.47l3.87.56-2.78,2.74a.89.89,0,0,0-.26.77l.66,3.87-3.47-1.83a.86.86,0,0,0-.81,0l-3.47,1.83Z"/><path class="cls-2" d="M47.83,16a1.12,1.12,0,0,0-1,.85,8.54,8.54,0,0,1-4.8,6A1.13,1.13,0,0,0,42,25,8.54,8.54,0,0,1,46.82,31,1.13,1.13,0,0,0,49,31a8.56,8.56,0,0,1,4.8-6,1.14,1.14,0,0,0,0-2.12,8.51,8.51,0,0,1-4.79-6A1.12,1.12,0,0,0,48,16,.24.24,0,0,0,47.83,16Zm.09,4.25a10.36,10.36,0,0,0,3.14,3.69,10.62,10.62,0,0,0-3.14,3.67,10.63,10.63,0,0,0-3.13-3.67A10.13,10.13,0,0,0,47.92,20.21ZM22.21,37.52a1.14,1.14,0,0,0-1,.85,6.06,6.06,0,0,1-3.38,4.33,1.14,1.14,0,0,0,0,2.12,6.1,6.1,0,0,1,3.38,4.33,1.14,1.14,0,0,0,2.2,0,6.12,6.12,0,0,1,3.38-4.33,1.13,1.13,0,0,0,0-2.12,6.1,6.1,0,0,1-3.38-4.33,1.14,1.14,0,0,0-1.07-.86Zm39.14,1.13A22.69,22.69,0,0,0,39.7,54.54H22.77a3.43,3.43,0,0,0-3.41,3.4v2.27a3.33,3.33,0,0,0,.2,1.14h-.2A3.4,3.4,0,0,0,16,64.75V67a3.41,3.41,0,0,0,3.41,3.41h.19a3.23,3.23,0,0,0-.19,1.13v2.27A3.48,3.48,0,0,0,19.55,75h-.19A3.42,3.42,0,0,0,16,78.38v2.27a3.41,3.41,0,0,0,3.41,3.4H46.6A3.4,3.4,0,0,0,50,81,22.7,22.7,0,0,0,80.44,49.08a6,6,0,0,1,2.88-2.56,1.13,1.13,0,0,0,0-2.11,6.93,6.93,0,0,1-3.85-4.9,1.13,1.13,0,0,0-2.19,0,7.86,7.86,0,0,1-2.16,3.8A22.72,22.72,0,0,0,61.35,38.65Zm-39.06,3a8.51,8.51,0,0,0,1.86,2.15,8.25,8.25,0,0,0-1.86,2.16,7.86,7.86,0,0,0-1.86-2.16A8.07,8.07,0,0,0,22.29,41.61Zm50.77,3a1.14,1.14,0,0,0,.36,1.9,6.89,6.89,0,0,1,3.85,4.9,1.14,1.14,0,0,0,2.09.28A20.43,20.43,0,0,1,50,78.33a3.34,3.34,0,0,0-.2-1.09H50A3.35,3.35,0,0,0,52.64,76,17,17,0,0,0,78.38,61.35a17,17,0,0,0-32.63-6.81H42.09a20.41,20.41,0,0,1,31-9.92Zm5.31-1.81a9.12,9.12,0,0,0,2.27,2.65,8.94,8.94,0,0,0-2.27,2.66,8.67,8.67,0,0,0-2.27-2.66A8.86,8.86,0,0,0,78.37,42.81Zm-17,3.79a14.75,14.75,0,1,1-8,27.18V71.56A3.41,3.41,0,0,0,50,68.15h-.19A3.23,3.23,0,0,0,50,67V64.75a3.31,3.31,0,0,0-.19-1.13H50a3.41,3.41,0,0,0,3.4-3.41V57.94a3.4,3.4,0,0,0-3.4-3.4H48.26A14.75,14.75,0,0,1,61.35,46.6ZM22.76,56.81h1.13v4.54H22.76a1.14,1.14,0,0,1-1.14-1.14V57.94A1.11,1.11,0,0,1,22.76,56.81Zm3.4,0h2.28v4.54H26.16Zm4.55,0H33v4.54H30.71Zm4.54,0h2.27v4.54H35.25Zm4.54,0h2.27v4.54H39.79Zm4.54,0H46.6v4.54H44.33Zm4.53,0H50a1.12,1.12,0,0,1,1.13,1.13v2.27A1.13,1.13,0,0,1,50,61.35H48.86Zm-29.5,6.81h1.13v4.53H19.36A1.12,1.12,0,0,1,18.22,67V64.75A1.12,1.12,0,0,1,19.36,63.62Zm3.4,0H25v4.53H22.76Zm4.55,0h2.27v4.53H27.31Zm4.53,0h2.27v4.53H31.84Zm4.54,0h2.27v4.53H36.38Zm4.54,0h2.27v4.53H40.92Zm4.54,0H46.6a1.12,1.12,0,0,1,1.13,1.13V67a1.12,1.12,0,0,1-1.13,1.13H45.46Zm-22.7,6.81h1.13V75H22.76a1.13,1.13,0,0,1-1.14-1.13V71.56A1.14,1.14,0,0,1,22.76,70.43Zm3.4,0h2.28V75H26.16Zm4.55,0H33V75H30.71Zm4.54,0h2.27V75H35.25Zm4.54,0h2.27V75H39.79Zm4.54,0H46.6V75H44.33Zm4.53,0H50a1.12,1.12,0,0,1,1.13,1.13v2.27A1.12,1.12,0,0,1,50,75H48.86Zm-29.5,6.8h1.13v4.55H19.36a1.13,1.13,0,0,1-1.14-1.13V78.38A1.14,1.14,0,0,1,19.36,77.23Zm3.4,0H25v4.55H22.76Zm4.55,0h2.27v4.55H27.31Zm4.53,0h2.27v4.55H31.84Zm4.54,0h2.27v4.55H36.38Zm4.54,0h2.27v4.55H40.92Zm4.54,0H46.6a1.13,1.13,0,0,1,1.13,1.15v2.27a1.13,1.13,0,0,1-1.13,1.13H45.46Z"/></svg>