<?xml version="1.0" encoding="utf-8"?>
<!-- Generator: Adobe Illustrator 25.0.0, SVG Export Plug-In . SVG Version: 6.00 Build 0)  -->
<svg version="1.1" id="Layer_1" xmlns="http://www.w3.org/2000/svg" xmlns:xlink="http://www.w3.org/1999/xlink" x="0px" y="0px"
	 viewBox="0 0 39 32" style="enable-background:new 0 0 39 32;" xml:space="preserve">
<style type="text/css">
	.st0{fill:#FFFFFF;}
	.st1{display:none;fill:#FFFFFF;}
</style>
<g>
	<path class="st0" d="M31.5,9.7h3.3V9.2c0-0.9-0.7-1.6-1.6-1.6s-1.6,0.7-1.6,1.6V9.7z"/>
	<path class="st0" d="M34.7,27.9l-1.5-1.5l-1.5,1.5l0.6,1.1c0.6-0.2,1.3-0.2,1.9,0L34.7,27.9z"/>
	<path class="st0" d="M32.7,30l0.5,0.9l0.5-0.9C33.3,29.9,33,29.9,32.7,30z"/>
	<rect x="31.5" y="10.8" class="st0" width="3.3" height="1.1"/>
	<polygon class="st0" points="31.5,26.4 32.6,25.3 32.6,13 31.5,13 	"/>
	<polygon class="st0" points="34.8,26.4 34.8,13 33.7,13 33.7,25.3 	"/>
	<path class="st1" d="M31,1c-0.3,0-0.6,0.1-0.8,0.2c-0.5,0.3-0.8,0.8-0.8,1.4v1.6h3.3V2.6C32.6,1.7,31.9,1,31,1z"/>
	<path class="st0" d="M6.9,28.3H4.2v1.6c0,0.9,0.7,1.6,1.6,1.6h18.7c-0.4-0.5-0.6-1.1-0.6-1.8v-1.5H6.9z"/>
	<path class="st0" d="M9.1,1C8.2,1,7.5,1.7,7.5,2.6v24.6h17c0.3,0,0.5,0.2,0.5,0.5v2.1c0,0.5,0.2,1,0.6,1.3c0.3,0.3,0.7,0.5,1.1,0.4
		c0.9,0,1.6-0.8,1.6-1.6V2.6c0-0.6,0.2-1.2,0.5-1.6H9.1z M9.1,5.3c-0.3,0-0.5-0.2-0.5-0.5V2.6c0-0.3,0.2-0.5,0.5-0.5h2.2
		c0.3,0,0.5,0.2,0.5,0.5s-0.2,0.5-0.5,0.5H9.7v1.6C9.7,5.1,9.4,5.3,9.1,5.3z M25.5,23.9H10.2c-0.3,0-0.5-0.2-0.5-0.5
		s0.2-0.5,0.5-0.5h15.3c0.3,0,0.5,0.2,0.5,0.5S25.8,23.9,25.5,23.9z M25.5,20.6H10.2c-0.3,0-0.5-0.2-0.5-0.5s0.2-0.5,0.5-0.5h15.3
		c0.3,0,0.5,0.2,0.5,0.5S25.8,20.6,25.5,20.6z M25.5,17.4H10.2c-0.3,0-0.5-0.2-0.5-0.5s0.2-0.5,0.5-0.5h15.3c0.3,0,0.5,0.2,0.5,0.5
		S25.8,17.4,25.5,17.4z M25.5,14.1H10.2c-0.3,0-0.5-0.2-0.5-0.5S9.9,13,10.2,13h15.3c0.3,0,0.5,0.2,0.5,0.5S25.8,14.1,25.5,14.1z
		 M25.5,10.8H10.2c-0.3,0-0.5-0.2-0.5-0.5c0-0.3,0.2-0.5,0.5-0.5h15.3c0.3,0,0.5,0.2,0.5,0.5C26.1,10.6,25.8,10.8,25.5,10.8z
		 M25.5,7.5H12.4c-0.3,0-0.5-0.2-0.5-0.5s0.2-0.5,0.5-0.5h13.1c0.3,0,0.5,0.2,0.5,0.5S25.8,7.5,25.5,7.5z M25.5,4.2H14.6
		C14.3,4.2,14,4,14,3.7s0.2-0.5,0.5-0.5h10.9c0.3,0,0.5,0.2,0.5,0.5S25.8,4.2,25.5,4.2z"/>
</g>
</svg>
