<?xml version="1.0" encoding="utf-8"?>
<!-- Generator: Adobe Illustrator 25.0.0, SVG Export Plug-In . SVG Version: 6.00 Build 0)  -->
<svg version="1.1" id="Layer_1" xmlns="http://www.w3.org/2000/svg" xmlns:xlink="http://www.w3.org/1999/xlink" x="0px" y="0px"
	 viewBox="0 0 39 32" style="enable-background:new 0 0 39 32;" xml:space="preserve">
<style type="text/css">
	.st0{fill-rule:evenodd;clip-rule:evenodd;fill:#FFFFFF;}
</style>
<g>
	<g transform="translate(-561.000000, -145.000000)">
		<g transform="translate(561.000000, 145.000000)">
			<path class="st0" d="M19.4,4.9c-0.2,0.8-0.3,1.6-0.3,2.5c0,2.5,0.9,4.6,2.7,6.4c1.7,1.7,3.7,2.6,6,2.6l1.2,1.2
				c0.3,0.3,0.5,0.6,0.7,1.1c0.2,0.5,0.3,0.9,0.3,1.3v10.8c0,0.3-0.3,0.6-0.6,0.6H13.6c-0.3,0-0.6-0.3-0.6-0.6v-3.2H4.1
				c-0.3,0-0.6-0.3-0.6-0.6V5.5c0-0.3,0.3-0.6,0.6-0.6H19.4z M14.9,29.5h13.2V20h-7c-0.3,0-0.6-0.3-0.6-0.6v-7h-5.7V29.5z M8.1,6.8
				v1.7h9.6V6.8H8.1z M22.9,2.2C24.3,0.8,26.1,0,28.1,0s3.8,0.7,5.2,2.2c1.4,1.4,2.2,3.2,2.2,5.2s-0.7,3.8-2.2,5.2
				c-1.4,1.4-3.2,2.2-5.2,2.2s-3.8-0.7-5.2-2.2s-2.2-3.2-2.2-5.2S21.4,3.6,22.9,2.2z M28.9,8.3V1.7h-1.3V7h-4v1.3H28.9z"/>
		</g>
	</g>
</g>
</svg>
