<?xml version="1.0" encoding="utf-8"?>
<!-- Generator: Adobe Illustrator 25.0.0, SVG Export Plug-In . SVG Version: 6.00 Build 0)  -->
<svg version="1.1" id="Capa_1" xmlns="http://www.w3.org/2000/svg" xmlns:xlink="http://www.w3.org/1999/xlink" x="0px" y="0px"
	 viewBox="0 0 512 512" style="enable-background:new 0 0 512 512;" xml:space="preserve">
<style type="text/css">
	.st0{fill:#373F5B;}
	.st1{fill:#C72427;}
</style>
<g id="Layer_2">
</g>
<rect x="174.9" y="301.6" class="st0" width="81.1" height="15.3"/>
<rect x="427" y="384.7" transform="matrix(0.8978 -0.4404 0.4404 0.8978 -139.9324 238.9065)" class="st0" width="35.6" height="72.5"/>
<rect x="245.1" y="63.1" class="st1" width="73.4" height="22.9"/>
<rect x="51.7" y="403.5" class="st0" width="131.5" height="45.7"/>
<rect x="35.8" y="420.9" class="st0" width="35.6" height="28.7"/>
<rect x="381.2" y="358.6" class="st0" width="16.6" height="16.6"/>
<rect x="170.3" y="293.7" class="st0" width="28" height="15.8"/>
<rect x="235.3" y="291.6" class="st0" width="13.8" height="16.3"/>
<rect x="322.6" y="367.7" class="st0" width="117.1" height="86.8"/>
<rect x="149.3" y="320.4" transform="matrix(0.866 0.5 -0.5 0.866 199.7346 -40.8952)" class="st0" width="53.8" height="63.8"/>
<rect x="166.9" y="309.5" class="st0" width="159.7" height="140.1"/>
<rect x="149.7" y="367.7" class="st0" width="26.5" height="41.7"/>
<rect x="146.8" y="398.8" class="st0" width="5.7" height="12.3"/>
<rect x="58.1" y="401.6" class="st0" width="51.9" height="12.3"/>
<path d="M324.6,179.8c-13.1,1.7-23.2,12.9-23.2,26.4c0,14.7,11.9,26.6,26.6,26.6h17.5c4.1,0,7.5-3.4,7.5-7.5s-3.4-7.5-7.5-7.5H328
	c-6.4,0-11.6-5.2-11.6-11.6s5.2-11.6,11.6-11.6h3.3c4.1,0,7.4-3.3,7.5-7.4c0.2-11.4,9.6-20.6,20.9-20.6c7.2,0,13.7,3.6,17.6,9.6
	c1.2,1.9,3.2,3.1,5.4,3.4c2.2,0.3,4.4-0.4,6-2c2.5-2.3,5.8-3.6,9.2-3.6c7.3,0,13.3,5.9,13.5,13.2c0.1,4.1,3.4,7.3,7.5,7.3h24.7
	c6.4,0,11.6,5.2,11.6,11.6s-5.2,11.6-11.6,11.6h-63.1c-4.1,0-7.5,3.4-7.5,7.5s3.4,7.5,7.5,7.5h63.1c14.7,0,26.6-11.9,26.6-26.6
	s-11.9-26.6-26.6-26.6h-18.4c-3.5-11.8-14.5-20.5-27.3-20.5c-4.5,0-8.9,1.1-12.8,3.1c-6.7-6.7-15.7-10.5-25.4-10.5
	C342.7,151.6,328.2,163.7,324.6,179.8L324.6,179.8z"/>
<path d="M62.6,155.6h13.9c4.1,0,7.5-3.4,7.5-7.5s-3.4-7.5-7.5-7.5H62.6c-6.7,0-12.1-5.4-12.1-12.1s5.4-12.1,12.1-12.1h25.3
	c4.1,0,7.4-3.3,7.5-7.3c0.2-7.5,6.4-13.7,14-13.7c3.5,0,6.9,1.3,9.5,3.8c1.6,1.5,3.8,2.2,6,2c2.2-0.3,4.2-1.5,5.4-3.4
	c4-6.2,10.8-10,18.2-10c11.7,0,21.4,9.5,21.6,21.3c0.1,4.1,3.4,7.4,7.5,7.4h3.4c6.7,0,12.1,5.4,12.1,12.1s-5.4,12.1-12.1,12.1h-69.6
	c-4.1,0-7.5,3.4-7.5,7.5s3.4,7.5,7.5,7.5h69.6c14.9,0,27.1-12.2,27.1-27.1c0-13.8-10.4-25.3-23.8-26.9
	c-3.6-16.4-18.4-28.9-35.8-28.9c-9.9,0-19.2,3.9-26,10.8c-4-2.1-8.5-3.2-13.2-3.2c-13.1,0-24.4,8.9-27.9,21h-19
	c-14.9,0-27.1,12.2-27.1,27.1S47.7,155.6,62.6,155.6L62.6,155.6z"/>
<path d="M504.5,446.3h-13.6L390.7,263.9c-2.2-4-6.4-6.5-11-6.5c-4.6,0-8.8,2.5-11,6.5l-33.7,61.3l-83-151c-0.9-1.6-2.1-2.9-3.5-4
	v-51h76.8c3.8,0,7.3-2.2,9-5.6c1.7-3.4,1.2-7.6-1.1-10.6l-12-15.4l12-15.4c2.3-3,2.8-7.1,1.1-10.6c-1.7-3.4-5.2-5.6-9-5.6h-77.1
	c-0.9-3.1-3.8-5.3-7.2-5.3c-4.1,0-7.5,3.4-7.5,7.5v112c-1.4,1-2.6,2.4-3.5,4l-94.6,172.3l-18.7-34c-2.2-4-6.4-6.5-11-6.5
	s-8.8,2.5-11,6.5L21.4,446.3H7.5c-4.1,0-7.5,3.4-7.5,7.5s3.4,7.5,7.5,7.5h394c4.1,0,7.5-3.4,7.5-7.5s-3.4-7.5-7.5-7.5H285.7
	l41.6-75.7H371c4.8,0,10.5-2.4,13.8-5.7l4.7-4.7l7.7,7.7c3.4,3.4,9.1,5.7,13.8,5.7h22.9l39.9,72.7h-37.3c-4.1,0-7.5,3.4-7.5,7.5
	s3.4,7.5,7.5,7.5h68c4.1,0,7.5-3.4,7.5-7.5S508.6,446.3,504.5,446.3L504.5,446.3z M248.7,71h66.6l-7.1,9.1h-59.5L248.7,71z
	 M248.7,95.1h59.5l7.1,9.1h-66.6L248.7,95.1z M241.2,185.4l61.5,112h-37.8c-0.8,0-2.5-0.7-3-1.2l-11.6-11.6
	c-2.3-2.3-5.4-3.6-8.7-3.6s-6.4,1.3-8.7,3.6l-17,17l-12.7-12.7c-3.3-3.3-8.9-5.6-13.6-5.6h-2.1L241.2,185.4z M105.9,323.7l35.8,65.1
	L127,403.5l-11.2-11.2c-3.4-3.4-9.1-5.7-13.8-5.7H71.3L105.9,323.7z M38.6,446.3l24.5-44.7H102c0.8,0,2.7,0.8,3.2,1.3l12.9,12.9
	c2.4,2.4,5.5,3.7,8.8,3.7c3.3,0,6.5-1.3,8.8-3.7l13.4-13.4l24.1,43.8H38.6z M268.6,446.3h-78.1L144.1,362l35-63.8h10.3
	c0.8,0,2.5,0.7,3,1.2L207,314c2.3,2.3,5.4,3.6,8.7,3.6s6.4-1.3,8.7-3.6l17-17l9.7,9.7c3.3,3.3,8.9,5.6,13.6,5.6h46l15.6,28.4
	L268.6,446.3z M411,358.6c-0.8,0-2.7-0.8-3.2-1.3l-9.4-9.4c-4.9-4.9-12.8-4.9-17.7,0l-6.4,6.4c-0.6,0.6-2.4,1.3-3.2,1.3h-35.5
	l44.2-80.5l45.9,83.5L411,358.6L411,358.6z"/>
</svg>
