<?xml version="1.0" encoding="utf-8"?>
<!-- Generator: Adobe Illustrator 25.0.0, SVG Export Plug-In . SVG Version: 6.00 Build 0)  -->
<!DOCTYPE svg PUBLIC "-//W3C//DTD SVG 1.1//EN" "http://www.w3.org/Graphics/SVG/1.1/DTD/svg11.dtd" [
	<!ENTITY st0 "fill:#C72026;stroke:#000000;stroke-width:2;stroke-miterlimit:10;">
	<!ENTITY st1 "fill:#EDBD5D;stroke:#000000;stroke-width:2;stroke-miterlimit:10;">
]>
<svg version="1.1" id="Layer_1" xmlns="http://www.w3.org/2000/svg" xmlns:xlink="http://www.w3.org/1999/xlink" x="0px" y="0px"
	 viewBox="0 0 56 73" style="enable-background:new 0 0 56 73;" xml:space="preserve">
<g>
	<ellipse style="&st0;" cx="28" cy="24.4" rx="14.5" ry="10"/>
	<ellipse style="&st0;" cx="22.2" cy="38.3" rx="5.8" ry="4.6"/>
	<path style="&st1;" d="M54.3,29.4c-0.2-1.1-0.5-2.2-1-3.2c-0.5-1.1-1.3-2.1-2.3-2.9c-7-5.3-15.7-9.7-20.3-12
		c-2.6-1.3-5.7-1.1-8.2,0.4C14,16.9,9.8,29.6,8.2,35.9c-0.2,0.8,0.1,1.7,0.7,2.3C12,41,17.1,45,24.3,49.6c1.5,0.9,2.3,2.6,2.2,4.3
		c0,0.7,0.1,1.4,0.4,2.1c0.2,0.4,1.1,1.5,2.8,0.7c0.6-0.3,1.3-0.1,1.6,0.5c0,0,0,0.1,0.1,0.1c0.2,0.6-0.1,1.2-0.6,1.5
		c-0.7,0.4-1.4,0.5-2.2,0.6c-1.8,0-3.1-1.2-3.7-2.2c0,0,0,0,0-0.1c-0.5-1-0.7-2.1-0.6-3.2c0.1-0.9-0.4-1.7-1.1-2.2
		c-9.4-6-15.1-10.9-18-13.7c-0.7-0.7-1.8-0.7-2.5,0c-0.2,0.2-0.3,0.3-0.4,0.5C2.1,38.7,2,39,1.9,39.2c-0.8,2.6-0.1,5.5,1.7,7.6
		c6.8,8.1,16.7,12.9,20.8,14.6c2.9,1.3,6.3,0.6,8.5-1.6c1.4-1.4,2.2-3.3,2.3-5.3c0.1-4.5,0.5-8.9,1.3-13.3c0.9-5.5,3.3-9.4,4.9-11
		c1.2-1.4,2.8-2.3,4.6-2.3h0c1.4,0,2.5,0.4,3.3,1.3c1.2,1.3,1.1,3,1.1,3.1c-0.1,0.6-0.6,1.1-1.3,1c-0.6-0.1-1.1-0.6-1-1.2
		c0,0,0-0.9-0.5-1.4c-0.3-0.3-0.9-0.5-1.6-0.5c-0.2,0-0.5,0.1-0.7,0.2c-1.7,0.7-2.1,2.9-0.9,4.4c0.6,0.7,1.2,1.2,2,1.7
		c2.3,1.3,5.2,0.7,6.8-1.5c0-0.1,0.1-0.1,0.1-0.2C54.2,33.1,54.6,31.2,54.3,29.4z M21.9,38.5c-0.4,1.4-1.7,2.4-2.8,2
		c-1.2-0.3-1.8-1.7-1.4-3.2s1.7-2.4,2.8-2C21.7,35.6,22.3,37,21.9,38.5z M32.4,22.5l-7.1,9.3c-0.7,1-2.1,1.1-3,0.4
		c-0.7-0.5-1-1.4-0.8-2.3c0.6-2.3,2.1-7,5.1-11.4c0.6-0.8,1.7-1.1,2.6-0.6l2.7,1.6c0.9,0.5,1.2,1.7,0.7,2.6
		C32.5,22.4,32.4,22.5,32.4,22.5L32.4,22.5z"/>
</g>
</svg>
