<?xml version="1.0" encoding="utf-8"?>
<!-- Generator: Adobe Illustrator 25.0.0, SVG Export Plug-In . SVG Version: 6.00 Build 0)  -->
<svg version="1.1" id="Layer_1" xmlns="http://www.w3.org/2000/svg" xmlns:xlink="http://www.w3.org/1999/xlink" x="0px" y="0px"
	 viewBox="0 0 39 32" style="enable-background:new 0 0 39 32;" xml:space="preserve">
<style type="text/css">
	.st0{fill:#FFFFFF;}
</style>
<path class="st0" d="M35.8,12c-0.1-0.7-0.3-1.3-0.6-2c-0.3-0.7-0.8-1.3-1.4-1.8C29.5,5,24.2,2.3,21.4,0.9c-1.6-0.8-3.5-0.7-5,0.2
	c-5.2,3.1-7.8,10.9-8.8,14.8c-0.1,0.5,0,1,0.4,1.4c1.9,1.7,5,4.2,9.4,7c0.9,0.6,1.4,1.6,1.3,2.6c0,0.4,0.1,0.9,0.2,1.3
	c0.1,0.2,0.6,0.9,1.7,0.4c0.3-0.2,0.8,0,0.9,0.3c0,0,0,0,0,0.1c0.1,0.3,0,0.7-0.4,0.9c-0.4,0.2-0.9,0.3-1.3,0.3
	c-1.1,0-1.9-0.7-2.2-1.4c0,0,0,0,0,0c-0.3-0.6-0.4-1.3-0.4-2c0-0.5-0.2-1.1-0.7-1.4c-5.8-3.7-9.3-6.7-11-8.4c-0.4-0.4-1.1-0.4-1.5,0
	c-0.1,0.1-0.2,0.2-0.2,0.3c-0.1,0.2-0.1,0.3-0.2,0.5c-0.5,1.6,0,3.3,1,4.6c4.1,5,10.2,7.9,12.7,8.9c1.8,0.8,3.8,0.4,5.2-1
	c0.9-0.8,1.4-2,1.4-3.2c0.1-2.7,0.3-5.4,0.8-8.1c0.5-3.4,2-5.7,3-6.7c0.7-0.9,1.7-1.4,2.8-1.4h0c0.9,0,1.5,0.3,2,0.8
	c0.7,0.8,0.7,1.8,0.7,1.9c0,0.4-0.4,0.7-0.8,0.6c-0.4,0-0.7-0.4-0.6-0.7c0,0,0-0.5-0.3-0.9c-0.2-0.2-0.5-0.3-1-0.3
	c-0.1,0-0.3,0-0.4,0.1c-1,0.5-1.3,1.8-0.6,2.7c0.3,0.4,0.8,0.8,1.2,1c1.4,0.8,3.2,0.4,4.1-0.9c0,0,0.1-0.1,0.1-0.1
	C35.7,14.2,36,13.1,35.8,12z M16,17.5c-0.2,0.9-1,1.4-1.7,1.2c-0.7-0.2-1.1-1.1-0.8-1.9c0.2-0.9,1-1.4,1.7-1.2
	C15.8,15.7,16.2,16.6,16,17.5z M22.4,7.8L18,13.5c-0.4,0.6-1.3,0.7-1.9,0.3c-0.4-0.3-0.6-0.9-0.5-1.4c0.4-1.4,1.3-4.3,3.1-6.9
	c0.3-0.5,1-0.7,1.6-0.3l1.7,1c0.6,0.3,0.7,1,0.4,1.6C22.4,7.7,22.4,7.7,22.4,7.8L22.4,7.8z"/>
</svg>
