<?xml version="1.0" encoding="utf-8"?>
<!-- Generator: Adobe Illustrator 25.0.0, SVG Export Plug-In . SVG Version: 6.00 Build 0)  -->
<svg version="1.1" id="Layer_1" xmlns="http://www.w3.org/2000/svg" xmlns:xlink="http://www.w3.org/1999/xlink" x="0px" y="0px"
	 viewBox="0 0 100 100" style="enable-background:new 0 0 100 100;" xml:space="preserve">
<style type="text/css">
	.st0{fill:#FFFFFF;}
</style>
<g>
	<path class="st0" d="M58.8,100H41.3v-8.8C41.2,81,33.7,72.4,23.6,71v8.6L0,61.9l23.6-17.6v8.9c6.3,0.5,12.4,2.5,17.7,5.9V22.3h-9.1
		L50,0l17.8,22.3h-9v13.5c5.3-3.4,11.3-5.5,17.6-5.9v-8.9L100,38.5L76.4,56v-8.5C66.3,49,58.8,57.6,58.8,67.8L58.8,100z"/>
	<path class="st0" d="M70.5,70.7h5.9v5.9h-5.9V70.7z M82.2,70.7H100v5.9H82.2V70.7z M70.5,82.4h5.9v5.9h-5.9V82.4z M82.2,82.4H100
		v5.9H82.2V82.4z M70.5,94.1h5.9v5.9h-5.9V94.1z M82.2,94.1H100v5.9H82.2V94.1z"/>
</g>
</svg>
