<svg width="21" height="20" viewBox="0 0 21 20" fill="black" xmlns="http://www.w3.org/2000/svg">
    <g clip-path="url(#clip0_1824_6648)">
        <path
            d="M4.08333 10.8333C5 10.8333 5.75 10.0833 5.75 9.16667C5.75 8.25 5 7.5 4.08333 7.5C3.16667 7.5 2.41667 8.25 2.41667 9.16667C2.41667 10.0833 3.16667 10.8333 4.08333 10.8333ZM5.025 11.75C4.71667 11.7 4.40833 11.6667 4.08333 11.6667C3.25833 11.6667 2.475 11.8417 1.76667 12.15C1.15 12.4167 0.75 13.0167 0.75 13.6917V15H4.5V13.6583C4.5 12.9667 4.69167 12.3167 5.025 11.75ZM17.4167 10.8333C18.3333 10.8333 19.0833 10.0833 19.0833 9.16667C19.0833 8.25 18.3333 7.5 17.4167 7.5C16.5 7.5 15.75 8.25 15.75 9.16667C15.75 10.0833 16.5 10.8333 17.4167 10.8333ZM20.75 13.6917C20.75 13.0167 20.35 12.4167 19.7333 12.15C19.025 11.8417 18.2417 11.6667 17.4167 11.6667C17.0917 11.6667 16.7833 11.7 16.475 11.75C16.8083 12.3167 17 12.9667 17 13.6583V15H20.75V13.6917ZM14.2833 11.375C13.3083 10.9417 12.1083 10.625 10.75 10.625C9.39167 10.625 8.19167 10.95 7.21667 11.375C6.31667 11.775 5.75 12.675 5.75 13.6583V15H15.75V13.6583C15.75 12.675 15.1833 11.775 14.2833 11.375ZM7.475 13.3333C7.55 13.1417 7.58333 13.0083 8.23333 12.7583C9.04167 12.4417 9.89167 12.2917 10.75 12.2917C11.6083 12.2917 12.4583 12.4417 13.2667 12.7583C13.9083 13.0083 13.9417 13.1417 14.025 13.3333H7.475ZM10.75 6.66667C11.2083 6.66667 11.5833 7.04167 11.5833 7.5C11.5833 7.95833 11.2083 8.33333 10.75 8.33333C10.2917 8.33333 9.91667 7.95833 9.91667 7.5C9.91667 7.04167 10.2917 6.66667 10.75 6.66667ZM10.75 5C9.36667 5 8.25 6.11667 8.25 7.5C8.25 8.88333 9.36667 10 10.75 10C12.1333 10 13.25 8.88333 13.25 7.5C13.25 6.11667 12.1333 5 10.75 5Z"
            fill="black" />
        <path
            d="M4.08333 10.8333C5 10.8333 5.75 10.0833 5.75 9.16667C5.75 8.25 5 7.5 4.08333 7.5C3.16667 7.5 2.41667 8.25 2.41667 9.16667C2.41667 10.0833 3.16667 10.8333 4.08333 10.8333ZM5.025 11.75C4.71667 11.7 4.40833 11.6667 4.08333 11.6667C3.25833 11.6667 2.475 11.8417 1.76667 12.15C1.15 12.4167 0.75 13.0167 0.75 13.6917V15H4.5V13.6583C4.5 12.9667 4.69167 12.3167 5.025 11.75ZM17.4167 10.8333C18.3333 10.8333 19.0833 10.0833 19.0833 9.16667C19.0833 8.25 18.3333 7.5 17.4167 7.5C16.5 7.5 15.75 8.25 15.75 9.16667C15.75 10.0833 16.5 10.8333 17.4167 10.8333ZM20.75 13.6917C20.75 13.0167 20.35 12.4167 19.7333 12.15C19.025 11.8417 18.2417 11.6667 17.4167 11.6667C17.0917 11.6667 16.7833 11.7 16.475 11.75C16.8083 12.3167 17 12.9667 17 13.6583V15H20.75V13.6917ZM14.2833 11.375C13.3083 10.9417 12.1083 10.625 10.75 10.625C9.39167 10.625 8.19167 10.95 7.21667 11.375C6.31667 11.775 5.75 12.675 5.75 13.6583V15H15.75V13.6583C15.75 12.675 15.1833 11.775 14.2833 11.375ZM7.475 13.3333C7.55 13.1417 7.58333 13.0083 8.23333 12.7583C9.04167 12.4417 9.89167 12.2917 10.75 12.2917C11.6083 12.2917 12.4583 12.4417 13.2667 12.7583C13.9083 13.0083 13.9417 13.1417 14.025 13.3333H7.475ZM10.75 6.66667C11.2083 6.66667 11.5833 7.04167 11.5833 7.5C11.5833 7.95833 11.2083 8.33333 10.75 8.33333C10.2917 8.33333 9.91667 7.95833 9.91667 7.5C9.91667 7.04167 10.2917 6.66667 10.75 6.66667ZM10.75 5C9.36667 5 8.25 6.11667 8.25 7.5C8.25 8.88333 9.36667 10 10.75 10C12.1333 10 13.25 8.88333 13.25 7.5C13.25 6.11667 12.1333 5 10.75 5Z"
            fill="black"/>
    </g>
    <defs>
        <clipPath id="clip0_1824_6648">
            <rect width="20" height="20" fill="black" transform="translate(0.75)" />
        </clipPath>
    </defs>
</svg>