<svg width="21" height="20" viewBox="0 0 21 20" fill="black" xmlns="http://www.w3.org/2000/svg">
    <g clip-path="url(#clip0_1824_6640)">
        <path
            d="M10.25 1.66666C5.65 1.66666 1.91666 5.39999 1.91666 9.99999C1.91666 14.6 5.65 18.3333 10.25 18.3333C14.85 18.3333 18.5833 14.6 18.5833 9.99999C18.5833 5.39999 14.85 1.66666 10.25 1.66666ZM4.60833 6.45832C5.33333 7.18332 5.83333 8.11666 6.00833 9.16666H3.64166C3.76666 8.18332 4.10833 7.26666 4.60833 6.45832ZM3.64166 10.8333H6.00833C5.83333 11.8833 5.33333 12.8167 4.60833 13.5417C4.10833 12.7333 3.76666 11.8167 3.64166 10.8333ZM9.41666 16.6083C7.975 16.425 6.675 15.775 5.675 14.825C6.75833 13.7917 7.5 12.4 7.69166 10.8333H9.41666V16.6083ZM9.41666 9.16666H7.69166C7.49166 7.59999 6.75833 6.19999 5.66666 5.16666C6.675 4.21666 7.975 3.57499 9.41666 3.39166V9.16666ZM16.8583 9.16666H14.4917C14.6667 8.11666 15.1667 7.18332 15.8917 6.45832C16.3917 7.26666 16.7333 8.18332 16.8583 9.16666ZM11.0833 3.39166C12.525 3.57499 13.825 4.21666 14.8333 5.16666C13.7417 6.19999 13.0083 7.59999 12.8083 9.16666H11.0833V3.39166ZM11.0833 16.6083V10.8333H12.8083C13.0083 12.4 13.7417 13.7917 14.825 14.825C13.825 15.775 12.525 16.425 11.0833 16.6083ZM15.8917 13.5417C15.1667 12.825 14.675 11.8833 14.4917 10.8333H16.8583C16.7333 11.8167 16.3917 12.7333 15.8917 13.5417Z"
            fill="black" />
        <path
            d="M10.25 1.66666C5.65 1.66666 1.91666 5.39999 1.91666 9.99999C1.91666 14.6 5.65 18.3333 10.25 18.3333C14.85 18.3333 18.5833 14.6 18.5833 9.99999C18.5833 5.39999 14.85 1.66666 10.25 1.66666ZM4.60833 6.45832C5.33333 7.18332 5.83333 8.11666 6.00833 9.16666H3.64166C3.76666 8.18332 4.10833 7.26666 4.60833 6.45832ZM3.64166 10.8333H6.00833C5.83333 11.8833 5.33333 12.8167 4.60833 13.5417C4.10833 12.7333 3.76666 11.8167 3.64166 10.8333ZM9.41666 16.6083C7.975 16.425 6.675 15.775 5.675 14.825C6.75833 13.7917 7.5 12.4 7.69166 10.8333H9.41666V16.6083ZM9.41666 9.16666H7.69166C7.49166 7.59999 6.75833 6.19999 5.66666 5.16666C6.675 4.21666 7.975 3.57499 9.41666 3.39166V9.16666ZM16.8583 9.16666H14.4917C14.6667 8.11666 15.1667 7.18332 15.8917 6.45832C16.3917 7.26666 16.7333 8.18332 16.8583 9.16666ZM11.0833 3.39166C12.525 3.57499 13.825 4.21666 14.8333 5.16666C13.7417 6.19999 13.0083 7.59999 12.8083 9.16666H11.0833V3.39166ZM11.0833 16.6083V10.8333H12.8083C13.0083 12.4 13.7417 13.7917 14.825 14.825C13.825 15.775 12.525 16.425 11.0833 16.6083ZM15.8917 13.5417C15.1667 12.825 14.675 11.8833 14.4917 10.8333H16.8583C16.7333 11.8167 16.3917 12.7333 15.8917 13.5417Z"
            fill="black"/>
    </g>
    <defs>
        <clipPath id="clip0_1824_6640">
            <rect width="20" height="20" fill="black" transform="translate(0.25)" />
        </clipPath>
    </defs>
</svg>