<?xml version="1.0" encoding="utf-8"?>
<!-- Generator: Adobe Illustrator 25.0.0, SVG Export Plug-In . SVG Version: 6.00 Build 0)  -->
<svg version="1.1" id="Layer_1" xmlns="http://www.w3.org/2000/svg" xmlns:xlink="http://www.w3.org/1999/xlink" x="0px" y="0px"
	 viewBox="0 0 100 95.8" style="enable-background:new 0 0 100 95.8;" xml:space="preserve">
<style type="text/css">
	.st0{fill-rule:evenodd;clip-rule:evenodd;fill:#FFFF00;}
	.st1{fill-rule:evenodd;clip-rule:evenodd;fill:#FFFFFF;}
	.st2{fill:none;}
</style>
<g>
	<path class="st0" d="M50.1,79.9L25.5,95c-4.3,2.6-9.5-1.3-8.2-6l6.5-28l-22-19c-3.5-3-1.7-9.1,3.5-9.5l28.5-2.6L44.9,3.6
		c2.2-4.7,8.2-4.7,10.4,0l11.2,26.3L95,32.5c4.7,0.4,6.9,6.5,3,9.5L76.4,61l6.5,28c0.9,4.7-3.9,8.6-8.2,6L50.1,79.9z"/>
</g>
<g>
	<path class="st1" d="M7.5,41.1L7.5,41.1c1.8-0.2,3-1.7,2.9-3.5l0,0c-0.2-1.8-1.7-3-3.5-2.9l0,0c-1.8,0.2-3,1.7-2.9,3.5l0,0
		C4.1,39.9,5.7,41.2,7.5,41.1z"/>
	<line class="st2" x1="35.7" y1="32.3" x2="42.2" y2="25.8"/>
	<line class="st2" x1="42.6" y1="20.5" x2="43" y2="18.6"/>
	<line class="st2" x1="-10.5" y1="19.5" x2="-10.3" y2="19.5"/>
	<path class="st1" d="M26.6,75.5L26.6,75.5c-1.7-0.5-3.5,0.6-4,2.3l-3,11.1c-0.5,1.7,0.6,3.5,2.3,4l0,0c1.7,0.5,3.5-0.6,4-2.3
		l3-11.1C29.4,77.7,28.4,75.9,26.6,75.5z"/>
	<path class="st1" d="M49.7,9L49.7,9c-1.6-0.7-3.6,0-4.3,1.6L35.1,33.4c-0.7,1.6,0,3.6,1.6,4.3l0,0c1.6,0.7,3.6,0,4.3-1.6l10.3-22.8
		C52.1,11.6,51.4,9.7,49.7,9z"/>
	<g>
		<path class="st1" d="M17.3,40.4L31.9,39c1.8-0.2,3-1.7,2.9-3.5c-0.2-1.8-1.7-3-3.5-2.9L16.6,34c-1.8,0.2-3,1.7-2.9,3.5l0,0
			C13.9,39.3,15.5,40.6,17.3,40.4z"/>
		<path class="st1" d="M23.4,39.8l14.7-1.4c1.8-0.2,3-1.7,2.9-3.5c-0.2-1.8-1.7-3-3.5-2.9l-14.7,1.4c-1.8,0.2-3,1.7-2.9,3.5l0,0
			C20.1,38.6,21.7,39.9,23.4,39.8z"/>
	</g>
	<path class="st1" d="M69.2,38.8l14.7,0.8c1.8,0.1,3.3-1.3,3.4-3c0.1-1.8-1.3-3.3-3-3.4l-14.7-0.8c-1.8-0.1-3.3,1.3-3.4,3l0,0
		C66.1,37.2,67.4,38.7,69.2,38.8z"/>
</g>
</svg>
