<?xml version="1.0" encoding="utf-8"?>
<!-- Generator: Adobe Illustrator 25.0.0, SVG Export Plug-In . SVG Version: 6.00 Build 0)  -->
<!DOCTYPE svg PUBLIC "-//W3C//DTD SVG 1.1//EN" "http://www.w3.org/Graphics/SVG/1.1/DTD/svg11.dtd" [
	<!ENTITY st0 "fill-rule:evenodd;clip-rule:evenodd;fill:#FFFF00;stroke:#000000;stroke-width:2;stroke-miterlimit:10;">
	<!ENTITY st1 "fill-rule:evenodd;clip-rule:evenodd;fill:#FFFFFF;">
	<!ENTITY st2 "fill:none;">
]>
<svg version="1.1" id="Layer_1" xmlns="http://www.w3.org/2000/svg" xmlns:xlink="http://www.w3.org/1999/xlink" x="0px" y="0px"
	 viewBox="0 0 56 73" style="enable-background:new 0 0 56 73;" xml:space="preserve">
<g>
	<path style="&st0;" d="M27.9,53.7l-13.2,8.1c-2.3,1.4-5.1-0.7-4.4-3.2l3.5-15.1L1.9,33.3C0,31.7,1,28.4,3.8,28.2l15.3-1.4l6-14.1
		c1.2-2.5,4.4-2.5,5.6,0l6,14.1L52,28.2c2.5,0.2,3.7,3.5,1.6,5.1L42,43.5l3.5,15.1c0.5,2.5-2.1,4.6-4.4,3.2L27.9,53.7z"/>
	<path style="&st1;" d="M5,32.8L5,32.8c1-0.1,1.6-0.9,1.6-1.9l0,0c-0.1-1-0.9-1.6-1.9-1.6l0,0c-1,0.1-1.6,0.9-1.6,1.9l0,0
		C3.1,32.2,4,32.9,5,32.8z"/>
	<line style="&st2;" x1="20.1" y1="28.1" x2="23.6" y2="24.6"/>
	<line style="&st2;" x1="23.8" y1="21.7" x2="24.1" y2="20.7"/>
	<line style="&st2;" x1="-4.7" y1="21.2" x2="-4.6" y2="21.2"/>
	<path style="&st1;" d="M27.7,15.6L27.7,15.6c-0.9-0.4-1.9,0-2.3,0.9l-5.5,12.3c-0.4,0.9,0,1.9,0.9,2.3l0,0c0.9,0.4,1.9,0,2.3-0.9
		l5.5-12.3C29,17,28.6,15.9,27.7,15.6z"/>
	<path style="&st1;" d="M15.2,51.3L15.2,51.3c-0.9-0.3-1.9,0.3-2.2,1.2l-1.6,6c-0.3,0.9,0.3,1.9,1.2,2.2l0,0
		c0.9,0.3,1.9-0.3,2.2-1.2l1.6-6C16.7,52.5,16.2,51.5,15.2,51.3z"/>
	<g>
		<path style="&st1;" d="M10.2,32.4l7.9-0.8c1-0.1,1.6-0.9,1.6-1.9c-0.1-1-0.9-1.6-1.9-1.6L9.9,29c-1,0.1-1.6,0.9-1.6,1.9l0,0
			C8.4,31.8,9.3,32.5,10.2,32.4z"/>
		<path style="&st1;" d="M13.5,32.1l7.9-0.8c1-0.1,1.6-0.9,1.6-1.9c-0.1-1-0.9-1.6-1.9-1.6l-7.9,0.8c-1,0.1-1.6,0.9-1.6,1.9l0,0
			C11.7,31.5,12.6,32.2,13.5,32.1z"/>
	</g>
	<path style="&st1;" d="M38.1,31.6l7.9,0.4c1,0.1,1.8-0.7,1.8-1.6c0.1-1-0.7-1.8-1.6-1.8l-7.9-0.4c-1-0.1-1.8,0.7-1.8,1.6l0,0
		C36.5,30.7,37.2,31.5,38.1,31.6z"/>
</g>
</svg>
