<?xml version="1.0" encoding="utf-8"?>
<!-- Generator: Adobe Illustrator 25.0.0, SVG Export Plug-In . SVG Version: 6.00 Build 0)  -->
<svg version="1.1" id="Layer_1" xmlns="http://www.w3.org/2000/svg" xmlns:xlink="http://www.w3.org/1999/xlink" x="0px" y="0px"
	 viewBox="0 0 67 75" style="enable-background:new 0 0 67 75;" xml:space="preserve">
<style type="text/css">
	.st0{fill:#F9E428;}
	.st1{fill:#C72026;}
</style>
<g>
	<rect x="2.6" y="5.9" class="st0" width="63" height="6.8"/>
	<rect x="26.6" y="1.8" class="st0" width="14" height="6.1"/>
	<circle class="st0" cx="33.1" cy="68" r="4.1"/>
	<rect x="19.6" y="41.5" class="st1" width="4.2" height="4.2"/>
	<path class="st1" d="M33.7,36.9h-0.9c-1.4,0-2.5,1.1-2.5,2.5v6c0,1.4,1.1,2.5,2.5,2.5h0.9c1.4,0,2.5-1.1,2.5-2.5v-6
		C36.2,38,35.1,36.9,33.7,36.9z"/>
	<path class="st1" d="M44.9,31.5H44c-1.4,0-2.5,1.1-2.5,2.5v10.9c0,1.4,1.1,2.5,2.5,2.5h0.9c1.4,0,2.5-1.1,2.5-2.5V34
		C47.4,32.6,46.3,31.5,44.9,31.5z"/>
	<g>
		<path d="M64.9,4.1H42.4L40.9,1c-0.3-0.6-0.8-1-1.5-1H27.1c-0.7,0-1.2,0.4-1.5,1l-1.5,3.2H1.6c-0.9,0-1.7,0.7-1.7,1.7v7.5
			c0,0.9,0.7,1.7,1.7,1.7h2.5v37.2c0,0.9,0.6,1.9,1.5,1.9h26v7.1c-3.1,0.8-5.3,3.5-5.3,6.8c0,3.9,3.1,7,7,7s7-3.1,7-7
			c0-3.2-2.2-6-5.3-6.8v-7.1h26c0.9,0,1.5-1,1.5-1.9V15h2.5c0.9,0,1.7-0.7,1.7-1.7V5.8C66.6,4.9,65.8,4.1,64.9,4.1z M36.9,68
			c0,2-1.6,3.7-3.7,3.7S29.6,70,29.6,68c0-2,1.6-3.7,3.7-3.7S36.9,65.9,36.9,68L36.9,68z M59.1,50.8H7.4V15h51.7V50.8z M63.3,11.6
			h-60V7.5h21.9c0.7,0,1.2-0.4,1.5-1l1.5-3.2h10.2l1.5,3.2c0.3,0.6,0.8,1,1.5,1h21.9V11.6z"/>
		<g>
			<g>
				<g>
					<g>
						<g>
							<path d="M36.1,49h-5.7c-0.9,0-1.7-0.7-1.7-1.7V37.2c0-0.9,0.6-1.6,1.5-1.7c0.1,0,0.1,0,0.2,0h5.7c0.9,0,1.6,0.6,1.7,1.5
								c0,0.1,0,0.1,0,0.2v10.2C37.8,48.3,37,49,36.1,49z M32.1,45.7h2.3v-6.8h-2.3L32.1,45.7z"/>
						</g>
					</g>
					<g>
						<g>
							<path d="M47.3,49h-5.7c-0.9,0-1.7-0.7-1.7-1.7V31.3c0-0.9,0.7-1.7,1.7-1.7h5.7c0.9,0,1.7,0.7,1.7,1.7v16.1
								C48.9,48.3,48.2,49,47.3,49z M43.3,45.7h2.3V33h-2.3L43.3,45.7z"/>
						</g>
					</g>
					<g>
						<g>
							<path d="M24.9,49h-5.7c-0.9,0-1.7-0.7-1.7-1.7v-6.1c0-0.9,0.7-1.7,1.7-1.7h5.7c0.9,0,1.7,0.7,1.7,1.7v6.1
								C26.6,48.3,25.8,49,24.9,49L24.9,49z M20.9,45.7h2.3V43h-2.3V45.7z"/>
						</g>
					</g>
				</g>
			</g>
			<g>
				<g>
					<g>
						<path d="M18.9,31.5c-0.4,0-0.9-0.2-1.2-0.5c-0.6-0.6-0.7-1.6-0.1-2.2c0,0,0.1-0.1,0.1-0.1l8-7.7c0.6-0.6,1.5-0.6,2.2-0.1
							l7.2,5.7l11.1-8.7c0.7-0.6,1.8-0.4,2.3,0.3v0c0.6,0.7,0.5,1.7-0.1,2.2c0,0-0.1,0.1-0.1,0.1L36.2,30c-0.6,0.5-1.5,0.5-2.1,0
							L27,24.4L20.1,31C19.8,31.3,19.4,31.4,18.9,31.5z"/>
					</g>
				</g>
				<g>
					<g>
						<path d="M47,27.9L47,27.9c-1-0.1-1.7-0.9-1.7-1.8l0.4-5.5l-6.1-0.4c-0.9-0.1-1.6-0.9-1.5-1.8c0,0,0,0,0,0
							c0-0.9,0.8-1.5,1.7-1.5c0,0,0.1,0,0.1,0l7.8,0.6c0.4,0,0.9,0.2,1.2,0.5c0.3,0.4,0.4,0.8,0.4,1.2l-0.6,7.2
							C48.6,27.2,47.9,27.9,47,27.9z"/>
					</g>
				</g>
			</g>
		</g>
	</g>
</g>
</svg>
