<svg xmlns="http://www.w3.org/2000/svg" viewBox="0 0 481.604 481.604">
<style type="text/css">
	.st0{fill-rule:evenodd;clip-rule:evenodd;fill:#FFFFFF;}
</style>
    <path class="st0" d="M457.397 432.366h-10.211V198.23h-.008c-12.528 0-24.398-4.085-34.292-10.987-6.642 4.673-14.298 8.139-22.77 9.829a60.845 60.845 0 01-11.744 1.158c-12.734 0-24.588-4.205-34.465-11.155-8.244 5.785-17.9 9.806-28.667 10.885-1.911.175-3.791.27-5.681.27-12.79 0-24.556-4.126-34.338-10.948-9.767 6.847-21.604 10.948-34.418 10.948-12.822 0-24.652-4.093-34.419-10.948-9.782 6.823-21.548 10.948-34.346 10.948-1.89 0-3.771-.094-6.008-.3-10.433-1.04-20.064-4.935-28.427-10.807-9.853 6.927-21.676 11.107-34.378 11.107a61.16 61.16 0 01-11.774-1.165c-8.466-1.683-16.106-5.149-22.747-9.815-9.886 6.895-21.747 10.98-34.284 10.98h-.008v234.136h-10.21c-13.36 0-24.192 10.83-24.192 24.191 0 13.36 10.832 24.191 24.192 24.191h250.203V297.4c0-13.544 10.973-24.525 24.523-24.525h85.998c13.552 0 24.533 10.981 24.533 24.525V480.749h47.938c13.36 0 24.191-10.832 24.191-24.191 0-13.362-10.831-24.192-24.191-24.192zM231.71 244.057v105.676c0 6.339-5.141 11.472-11.472 11.472H92.031c-6.339 0-11.472-5.133-11.472-11.472v-13.322l118.726-103.833h20.955c6.329 0 11.47 5.14 11.47 11.479zm-56.744-11.479l-94.407 82.563v-24.739l66.155-57.824h28.252zm-94.408 11.479c0-6.339 5.133-11.479 11.472-11.479h30.357l-41.829 36.56v-25.081zM1.447 128.18c-5.434 18.201 4.912 37.362 23.121 42.805a34.63 34.63 0 009.861 1.451c14.805 0 28.483-9.655 32.943-24.572l1.801-6.022c1.222 10.957 7.632 20.7 17.201 26.119 3.077 1.746 6.451 3.071 10.115 3.801 2.269.453 4.523.674 6.753.674 16.065 0 30.435-11.329 33.695-27.698l.85-4.228c.832 11.678 7.608 21.891 17.51 27.451 3.999 2.246 8.442 3.809 13.296 4.293 1.159.119 2.309.174 3.452.174 17.464 0 32.428-13.25 34.189-30.998l.253-2.53c.317 12.52 7.371 23.262 17.606 29.022 4.966 2.785 10.599 4.506 16.709 4.506 6.101 0 11.749-1.721 16.709-4.514 10.244-5.761 17.297-16.519 17.606-29.055l.253 2.571c1.77 17.749 16.726 30.998 34.196 30.998 1.136 0 2.286-.055 3.443-.174 4.857-.484 9.308-2.039 13.29-4.285 9.91-5.554 16.678-15.756 17.526-27.428l.833 4.197c3.262 16.369 17.631 27.698 33.696 27.698 2.229 0 4.491-.221 6.76-.674 3.665-.729 7.037-2.054 10.108-3.801 9.56-5.419 15.979-15.162 17.209-26.119l1.793 6.022c4.46 14.925 18.145 24.572 32.952 24.572a34.62 34.62 0 009.861-1.451c18.209-5.443 28.546-24.604 23.121-42.805L450.69 29.536C445.604 12.517 429.95.855 412.193.855H69.41C51.655.855 36 12.517 30.914 29.536L1.447 128.18z"/><path d="M305.744 370.274c-7.37 0-13.345 5.975-13.345 13.345 0 7.379 5.975 13.346 13.345 13.346 7.379 0 13.346-5.967 13.346-13.346 0-7.37-5.967-13.345-13.346-13.345z"/>
</svg>