<svg width="26" height="24" viewBox="0 0 26 24" fill="none" xmlns="http://www.w3.org/2000/svg">
<path d="M23.3616 5.10742H19.6116V2.60742C19.6116 1.21992 18.4991 0.107422 17.1116 0.107422H9.61157C8.22407 0.107422 7.11157 1.21992 7.11157 2.60742V5.10742H3.36157C1.97407 5.10742 0.861572 6.21992 0.861572 7.60742V21.3574C0.861572 22.7449 1.97407 23.8574 3.36157 23.8574H23.3616C24.7491 23.8574 25.8616 22.7449 25.8616 21.3574V7.60742C25.8616 6.21992 24.7491 5.10742 23.3616 5.10742ZM9.61157 2.60742H17.1116V5.10742H9.61157V2.60742ZM23.3616 21.3574H3.36157V18.8574H23.3616V21.3574ZM23.3616 15.1074H3.36157V7.60742H7.11157V10.1074H9.61157V7.60742H17.1116V10.1074H19.6116V7.60742H23.3616V15.1074Z" fill="#C72026"/>
</svg>
