<?xml version="1.0" encoding="utf-8"?>
<!-- Generator: Adobe Illustrator 25.0.0, SVG Export Plug-In . SVG Version: 6.00 Build 0)  -->
<!DOCTYPE svg PUBLIC "-//W3C//DTD SVG 1.1//EN" "http://www.w3.org/Graphics/SVG/1.1/DTD/svg11.dtd" [
	<!ENTITY st0 "fill:#FFD41D;">
	<!ENTITY st1 "fill:#E0E0E0;">
]>
<svg version="1.1" id="Layer_1" xmlns="http://www.w3.org/2000/svg" xmlns:xlink="http://www.w3.org/1999/xlink" x="0px" y="0px"
	 viewBox="0 0 56 73" style="enable-background:new 0 0 56 73;" xml:space="preserve">
<g transform="translate(0,-952.36218)">
	<path style="&st0;" d="M26,1012.5L5.1,995.8c-2.1-1.7-2.4-4.7-0.8-6.8h0c1.7-2.1,4.7-2.4,6.8-0.8l20.9,16.7
		c2.1,1.7,2.4,4.7,0.8,6.8h0C31.1,1013.8,28.1,1014.2,26,1012.5z"/>
	<path style="&st1;" d="M19.3,989.2L41,958.5c1.8-2.6,5.4-3.2,8-1.4h0c2.6,1.8,3.2,5.4,1.4,8l-21.7,30.7c-1.8,2.6-5.4,3.2-8,1.4h0
		C18.1,995.4,17.5,991.8,19.3,989.2z"/>
	<path d="M50.5,952.8c-0.4-0.2-0.9-0.2-1.3,0l-11.5,5c-0.3,0.1-0.6,0.3-0.7,0.6l-19.2,30.7c0,0-0.1,0-0.1-0.1l-5.8-3.4
		c-0.3-0.2-0.8-0.3-1.2-0.2L2,987.2c-0.9,0.2-1.5,1.2-1.3,2.1l2.1,8.1c0.1,0.4,0.3,0.7,0.6,0.9l6.8,5.1l-8,12.6
		c-0.2,0.2-0.2,0.5-0.3,0.8c-0.1,2.5,0.8,5.4,2.8,6.6c2.8,1.6,6.1,1.3,8.7,0.6c0.4-0.1,0.7-0.3,0.9-0.6l7.9-11l4.7,3.6
		c0.4,0.3,0.9,0.4,1.4,0.3l6.8-1.9c0.7-0.2,1.3-0.9,1.2-1.7l-0.3-8c0-0.5-0.3-1-0.7-1.3c-1.5-1.1-2.7-2.1-4.1-3.1l24.2-32.7
		c0.3-0.5,0.4-1.1,0.2-1.6l-4.5-12.4C51.2,953.2,50.8,953,50.5,952.8L50.5,952.8z M48.4,957.9l0.8,8.3l-5.4,0.9l0.3,1.6l4.4-0.8
		l-22.3,29.8c-1.7-0.5-3.3-0.9-5-1.3L48.4,957.9z M46.6,957.6l-26.4,37.5l-0.8-2.3l19-30.3l0.4,1.7l1.6-0.4l-0.8-3.1L46.6,957.6z
		 M11.1,989.1l4.3,2.5l2.3,6.8c0.2,0.5,0.6,1,1.2,1.1c2.9,0.7,5.7,1.3,8.5,2.2c1.8,1.1,3.4,2.4,5,3.6l-4.7,1.7
		c-0.3,0.1-0.5,0.4-0.5,0.8l0,4.1L6.3,996.2l4.3-2c0.3-0.1,0.5-0.4,0.5-0.8L11.1,989.1z M9.4,989.1l0,3.8l-3.8,1.8l-1.2-4.6
		L9.4,989.1z M32.9,1006.9l0.2,4.6l-4.3,1.2l0-4.2L32.9,1006.9z M19,1010l0.6,0.5l-7.5,10.4c-0.3,0.1-0.6,0.1-0.9,0.2L19,1010z"/>
</g>
</svg>
