<svg width="20" height="15" viewBox="0 0 10 10.5" fill="none" xmlns="http://www.w3.org/2000/svg">
    <path
        d="M6.535 0.504883H3.535V1.50488H6.535V0.504883ZM4.535 7.00488H5.535V4.00488H4.535V7.00488ZM8.55 3.69488L9.26 2.98488C9.045 2.72988 8.81 2.48988 8.555 2.27988L7.845 2.98988C7.07 2.36988 6.095 1.99988 5.035 1.99988C2.55 1.99988 0.535 4.01488 0.535 6.49988C0.535 8.98488 2.545 10.9999 5.035 10.9999C7.525 10.9999 9.535 8.98488 9.535 6.49988C9.535 5.44488 9.165 4.46988 8.55 3.69488ZM5.035 10.0049C3.1 10.0049 1.535 8.43988 1.535 6.50488C1.535 4.56988 3.1 3.00488 5.035 3.00488C6.97 3.00488 8.535 4.56988 8.535 6.50488C8.535 8.43988 6.97 10.0049 5.035 10.0049Z"
        fill="white" />
</svg>