<svg id="Layer_1" data-name="Layer 1" xmlns="http://www.w3.org/2000/svg" viewBox="0 0 100 100"><defs><style>.cls-1{fill:#e21bcb;}.cls-2{fill:#fff;}</style></defs><path class="cls-1" d="M67.85,57.77l2.23,1A23.39,23.39,0,0,0,71,56.33l-2.33-.7A19.53,19.53,0,0,1,67.85,57.77Z"/><path class="cls-1" d="M71.86,48.69a21.89,21.89,0,0,0-.3-2.55l-2.4.42a19.68,19.68,0,0,1,.27,2.28Z"/><path class="cls-1" d="M69.17,53.4l2.39.43a21.81,21.81,0,0,0,.3-2.56l-2.43-.14A19,19,0,0,1,69.17,53.4Z"/><path class="cls-1" d="M28.1,50h2.44a19.29,19.29,0,0,1,.13-2.29l-2.42-.28A21.89,21.89,0,0,0,28.1,50Z"/><path class="cls-1" d="M28.7,44.9l2.37.56a20.47,20.47,0,0,1,.66-2.19l-2.28-.84A20.72,20.72,0,0,0,28.7,44.9Z"/><path class="cls-1" d="M30.48,40.07l2.17,1.11a19.59,19.59,0,0,1,1.15-2l-2-1.35A23.41,23.41,0,0,0,30.48,40.07Z"/><path class="cls-2" d="M50,12.29A37.73,37.73,0,0,0,14.44,62.57l.29.81H34.64a17,17,0,1,0,30.72,0H85.27l.29-.81A37.73,37.73,0,0,0,50,12.29ZM76.73,48.78a26.65,26.65,0,0,0-7-16.81l6-6a35.13,35.13,0,0,1,9.48,22.83Zm-53.46,0H14.75A35.13,35.13,0,0,1,24.23,26l6,6A26.65,26.65,0,0,0,23.27,48.78ZM32,30.25l-6-6a35.13,35.13,0,0,1,22.83-9.48v8.52A26.61,26.61,0,0,0,32,30.25Zm19.25-15.5a35.13,35.13,0,0,1,22.83,9.48l-6,6a26.61,26.61,0,0,0-16.81-7ZM14.77,51.22h8.51A26.76,26.76,0,0,0,25.58,61H16.46A35,35,0,0,1,14.77,51.22ZM50,85.28a14.6,14.6,0,1,1,14.6-14.6A14.62,14.62,0,0,1,50,85.28ZM44,54.75c0-.16.06-.33.1-.49l5.53-21a.38.38,0,0,1,.7,0l5.53,21c0,.16.07.33.1.49a16.8,16.8,0,0,0-12,0ZM58.52,56v-.14a8.85,8.85,0,0,0-.28-2.17l-5.54-21a2.79,2.79,0,0,0-5.4,0l-5.54,21a8.85,8.85,0,0,0-.28,2.17V56A17.34,17.34,0,0,0,36,61H28.28a24.33,24.33,0,1,1,43.44,0H64A17.34,17.34,0,0,0,58.52,56Zm15.9,5a26.76,26.76,0,0,0,2.3-9.73h8.51A35,35,0,0,1,83.54,61Z"/><path class="cls-2" d="M75.89,29.79,74,31.28A30.21,30.21,0,0,1,79.3,41.81l2.34-.65A32.5,32.5,0,0,0,75.89,29.79Z"/><path class="cls-2" d="M82.24,43.69l-2.39.46c.15.77.27,1.56.36,2.34l2.42-.28C82.53,45.37,82.4,44.52,82.24,43.69Z"/><path class="cls-2" d="M38.85,19.1l.82,2.29c.73-.27,1.48-.51,2.23-.71l-.64-2.35C40.45,18.56,39.63,18.81,38.85,19.1Z"/><path class="cls-2" d="M34.25,21.17l1.16,2.14q1-.57,2.1-1l-1-2.21C35.75,20.39,35,20.77,34.25,21.17Z"/><path class="cls-2" d="M46.21,17.37c-.84.1-1.68.23-2.49.39l.46,2.39q1.14-.22,2.31-.36Z"/><path class="cls-2" d="M59,68.62a.87.87,0,0,0-.72-.58l-5.17-.75L50.78,62.6a.88.88,0,0,0-.79-.48.86.86,0,0,0-.78.48L46.9,67.28,41.73,68a.87.87,0,0,0-.71.59.88.88,0,0,0,.22.9L45,73.17l-.88,5.15a.85.85,0,0,0,.35.85.9.9,0,0,0,.91.07L50,76.8l4.63,2.43a.93.93,0,0,0,.41.11.88.88,0,0,0,.87-1L55,73.17l3.75-3.65A.88.88,0,0,0,59,68.62ZM46.77,73a.85.85,0,0,0-.26-.77L43.7,69.5,47.58,69a.87.87,0,0,0,.65-.49L50,65l1.74,3.52a.9.9,0,0,0,.66.47l3.87.56-2.78,2.74a.89.89,0,0,0-.26.77l.66,3.87-3.47-1.83a.86.86,0,0,0-.81,0l-3.47,1.83Z"/></svg>