<?xml version="1.0" encoding="utf-8"?>
<!-- Generator: Adobe Illustrator 25.0.0, SVG Export Plug-In . SVG Version: 6.00 Build 0)  -->
<svg version="1.1" id="Layer_1" xmlns="http://www.w3.org/2000/svg" xmlns:xlink="http://www.w3.org/1999/xlink" x="0px" y="0px"
	 viewBox="0 0 100 100" style="enable-background:new 0 0 100 100;" xml:space="preserve">
<style type="text/css">
	.st0{fill:#C72326;}
	.st1{fill:#844204;}
	.st2{fill:#F9E428;}
	.st3{fill:#2BF7DE;}
</style>
<g id="Layer_2_1_">
	<rect x="17" y="31.4" class="st0" width="54.3" height="35.2"/>
	<rect x="11.3" y="31.4" class="st0" width="7.5" height="6.8"/>
	<rect x="14.2" y="37.2" class="st0" width="3.6" height="5.8"/>
	<rect x="8.2" y="61.6" class="st0" width="10.5" height="6.4"/>
	<rect x="11.6" y="56.9" class="st0" width="5.9" height="6.6"/>
	<rect x="70" y="30.6" class="st0" width="15.1" height="8"/>
	<rect x="83.9" y="29.4" class="st0" width="2.6" height="5.8"/>
	<rect x="69.5" y="36.9" class="st0" width="10.5" height="10.5"/>
	<rect x="77.2" y="34.9" class="st0" width="5.4" height="9.3"/>
</g>
<g id="Layer_5">
	<rect x="9.8" y="67.8" class="st1" width="81.4" height="29.8"/>
	<rect x="15.7" y="4.4" class="st1" width="69.8" height="24.7"/>
</g>
<g id="Layer_3">
	<rect x="43.1" y="80.7" class="st2" width="11" height="10.6"/>
	<rect x="46.8" y="73.8" class="st2" width="4.3" height="5.2"/>
	<rect x="45.2" y="20" class="st2" width="7.5" height="16.6"/>
	<rect x="41.2" y="56.7" class="st2" width="19.7" height="10.2"/>
	<rect x="51.1" y="44.4" class="st2" width="10.4" height="9.5"/>
	<rect x="53.8" y="41.7" class="st2" width="10" height="9.3"/>
	<rect x="59.7" y="37.8" class="st2" width="5.4" height="11.7"/>
	<rect x="57.7" y="39" class="st2" width="11.9" height="9.6"/>
	<rect x="10.3" y="4.9" class="st2" width="7.2" height="24.2"/>
	<rect x="29.7" y="3.9" class="st2" width="8.4" height="26"/>
	<rect x="59.7" y="3.9" class="st2" width="8.2" height="26"/>
	<rect x="79.9" y="4.4" class="st2" width="7.7" height="25"/>
	<rect x="62.4" y="69" class="st2" width="8.4" height="27.9"/>
	<rect x="83.4" y="69" class="st2" width="7.9" height="27.9"/>
	<rect x="26.8" y="69" class="st2" width="8.8" height="27.9"/>
	<rect x="5.5" y="69" class="st2" width="8.7" height="27.9"/>
</g>
<g id="Layer_4">
	<rect x="21.9" y="44.2" class="st3" width="7.6" height="20.5"/>
	<rect x="27.9" y="44.2" class="st3" width="10.8" height="9.6"/>
	<rect x="29" y="51.4" class="st3" width="4.9" height="8.8"/>
	<rect x="31.4" y="52.8" class="st3" width="4.6" height="3.3"/>
	<rect x="14.6" y="44.6" class="st3" width="5.7" height="8.8"/>
	<rect x="18.7" y="53.2" class="st3" width="4.2" height="7.1"/>
	<rect x="15.3" y="52.2" class="st3" width="6.3" height="4.8"/>
	<rect x="71.7" y="50.1" class="st3" width="14.8" height="16.6"/>
	<rect x="83.4" y="55.7" class="st3" width="11.1" height="7.7"/>
	<rect x="84.5" y="53" class="st3" width="4.8" height="4.1"/>
	<rect x="82.6" y="60.8" class="st3" width="8.6" height="4.8"/>
	<rect x="72.2" y="47.2" class="st3" width="7.1" height="4"/>
</g>
<g id="Layer_1_1_">
	<path d="M7.3,30.6l6.5,12.9c0,0,0,0,0,0.1L10.6,50c-0.2,0.5-0.2,1.1,0.1,1.6c0,0.1,0.1,0.1,0.1,0.2l0,0l2.2,2.7L4.2,67.3l0,0
		c-0.2,0.3-0.3,0.6-0.3,0.9V97c0,0.9,0.7,1.6,1.6,1.6h86.4c0.9,0,1.6-0.7,1.6-1.6V68.2c0-0.9-0.7-1.6-1.6-1.6h-0.4l4.1-1.7l0,0
		c0.1,0,0.1,0,0.2-0.1c0.5-0.3,0.8-0.8,0.8-1.3l0.2-7.2c0-0.6-0.3-1.2-0.9-1.5l-14.2-7.5l8.4-16.9l0,0c0.1-0.2,0.2-0.5,0.2-0.7V9
		c0-3.5-2.9-6.4-6.4-6.4H13.5C10,2.6,7.1,5.5,7.1,9v20.8C7.1,30.1,7.2,30.2,7.3,30.6L7.3,30.6z M42.3,64.8v-2.8
		c2.8,1,5.8,1.4,8.8,1.3c3,0.1,6-0.4,8.8-1.3v2.8c-0.6,0.6-3.7,1.8-8.8,1.8S42.9,65.4,42.3,64.8z M60.8,47.4c2.2-1.4,4.3-3.1,6-5.1
		c0.2-0.3,0.4-0.6,0.6-0.8l1.5,2.3c-0.1,0.9-2.1,3.5-6.4,6.3s-7.5,3.5-8.3,3.3l-1.5-2.3C55.6,50.3,58.4,49.1,60.8,47.4z M51,48.1
		c0.4-1,2.4-3.5,6.3-6c3.9-2.6,7-3.4,8.1-3.4c-0.4,1-2.4,3.5-6.3,6.1S52.1,48.1,51,48.1z M78.4,49.3l-2.2,2.5l-3.7-1.9l2.9-2.1
		L78.4,49.3z M69.5,69.8v25.6h-6.4V69.8H69.5z M72.7,69.8h8v25.6h-8V69.8z M76.4,66.7l1.4-10.5l7.3,3.8l-7.3,6.6h-1.4V66.7z
		 M79.1,53.3l2.2-2.5l6.3,3.3l-0.8,3.2L79.1,53.3z M74.8,54.6l-1.1,8.1l-2-9.8L74.8,54.6z M71.2,66.7h-8.6c0.3-0.5,0.5-1,0.5-1.6
		v-6.4c0-1.6-1.3-2.7-3.2-3.5c1.6-0.7,3.1-1.5,4.5-2.5c1.2-0.8,2.4-1.7,3.5-2.7c0,0,0,0,0,0.1s0,0.1,0,0.2l0,0L71.2,66.7z
		 M59.7,58.6c-0.9,0.7-3.9,1.6-8.6,1.6s-7.7-0.9-8.6-1.6c0.9-0.7,3.9-1.6,8.6-1.6S58.8,58,59.7,58.6L59.7,58.6z M59.9,69.8v25.6
		H37.5V69.8H59.9z M34.3,95.4h-6.4V69.8h6.4V95.4z M24.7,69.8v25.6h-8V69.8H24.7z M18.8,52.2l2.8,7.7l-6.3-7.7H18.8z M22.2,52.2h8.2
		l-4.1,11.3L22.2,52.2z M33.8,52.2h3.5L31,59.9L33.8,52.2z M33.9,49l-0.8-3.2h3.4l1.6,3.2H33.9z M29.8,45.8l0.8,3.2h-8.7l0.8-3.2
		H29.8z M18.6,49h-4.2l1.6-3.2h3.4L18.6,49z M22.9,66.7H8.5L15,57L22.9,66.7z M7.1,69.8h6.4v25.6H7.1V69.8z M90.3,95.4h-6.4V69.8
		h6.4V95.4z M82.6,66.7l5.5-5l3.1,1.6l-7.9,3.3L82.6,66.7L82.6,66.7z M93.4,60.8l-3.7-1.9l0.8-3.2l3,1.6L93.4,60.8z M76,44.4
		c-0.5-0.3-1.2-0.2-1.7,0.1L70.6,47c1.4-1.8,2-3.6,1.1-5.1l-3.5-5.4c-1.9-3-8-0.5-12.7,2.6c-4.6,3-9.4,7.6-7.4,10.6l2.6,3.9
		C45.2,53.7,39,54.9,39,58.4v6.4c0,0.6,0.2,1.1,0.5,1.6h-10l12.3-15l0,0c0-0.1,0.1-0.1,0.1-0.2c0.3-0.5,0.3-1.1,0.1-1.6l-3.2-6.4
		c-0.3-0.5-0.8-0.9-1.4-0.9H16.9l-5.6-11h31V33c0,3.5,2.9,6.4,6.4,6.4s6.4-2.9,6.4-6.4v-1.6h31l-7.2,14.5L76,44.4z M69.5,28.1V5.8h8
		v22.4H69.5z M66.3,28.1h-6.4V5.8h6.4V28.1z M56.7,28.1h-1.6v-4.8c0-3.5-2.9-6.4-6.4-6.4s-6.4,2.9-6.4,6.4v4.8h-1.6V5.8h16V28.1z
		 M51.9,23.4V33c0,1.8-1.4,3.2-3.2,3.2s-3.2-1.4-3.2-3.2v-9.6c0-1.8,1.4-3.2,3.2-3.2C50.5,20.1,51.9,21.6,51.9,23.4z M37.5,28.1
		h-6.4V5.8h6.4V28.1z M27.9,28.1h-8V5.8h8V28.1z M87.1,9v19.2h-6.4V5.8h3.2C85.7,5.8,87.1,7.3,87.1,9z M10.3,9
		c0-1.8,1.4-3.2,3.2-3.2h3.2v22.4h-6.4V9z"/>
	<rect x="11.9" y="10.6" width="3.2" height="3.2"/>
	<rect x="11.9" y="20.1" width="3.2" height="3.2"/>
	<rect x="32.7" y="10.6" width="3.2" height="3.2"/>
	<rect x="32.7" y="20.1" width="3.2" height="3.2"/>
	<rect x="61.5" y="10.6" width="3.2" height="3.2"/>
	<rect x="61.5" y="20.1" width="3.2" height="3.2"/>
	<rect x="82.3" y="10.6" width="3.2" height="3.2"/>
	<rect x="82.3" y="20.1" width="3.2" height="3.2"/>
	<rect x="47.1" y="26.6" width="3.2" height="6.4"/>
	<rect x="29.5" y="76.2" width="3.2" height="3.2"/>
	<rect x="29.5" y="85.8" width="3.2" height="3.2"/>
	<rect x="64.7" y="76.2" width="3.2" height="3.2"/>
	<rect x="64.7" y="85.8" width="3.2" height="3.2"/>
	<rect x="8.7" y="76.2" width="3.2" height="3.2"/>
	<rect x="8.7" y="85.8" width="3.2" height="3.2"/>
	<rect x="85.5" y="76.2" width="3.2" height="3.2"/>
	<rect x="85.5" y="85.8" width="3.2" height="3.2"/>
	<path d="M42.3,93.8h12.8c0.9,0,1.6-0.7,1.6-1.6V79.4c0-0.9-0.7-1.6-1.6-1.6h-1.6v-1.6c0-2.7-2.1-4.8-4.8-4.8s-4.8,2.1-4.8,4.8v1.6
		h-1.6c-0.9,0-1.6,0.7-1.6,1.6v12.8C40.7,93,41.4,93.8,42.3,93.8z M47.1,76.2c0-0.9,0.7-1.6,1.6-1.6s1.6,0.7,1.6,1.6v1.6h-3.2
		C47.1,77.8,47.1,76.2,47.1,76.2z M43.9,81h9.6v9.6h-9.6V81z"/>
	<rect x="47.1" y="84.2" width="3.2" height="3.2"/>
</g>
</svg>
