<svg xmlns="http://www.w3.org/2000/svg" 
    xmlns:xlink="http://www.w3.org/1999/xlink" viewBox="0 0 294.54 401.1">
    <title>Hero</title>
    <g id="right-arm" class="right-arm-1">
        <path class="right-arm-2" d="M97.49,176.2a111.53,111.53,0,0,0-26.7,1.61c4.3,4.4,9.16,8.88,13.87,12.83,0,0,19.51,2.42,28.29.22A98.41,98.41,0,0,0,97.49,176.2Z"/>
        <path class="right-arm-3" d="M100.18,237.7h0A34.83,34.83,0,0,1,98.61,248a22.74,22.74,0,0,1-6.06,1s0,0,0,0l.83,1.28a19.91,19.91,0,0,0,5.94-.82,21.33,21.33,0,0,0,1.56-10.62C100.82,238.45,100.39,238.06,100.18,237.7Z"/>
        <path class="right-arm-4" d="M98.61,248a34.83,34.83,0,0,0,1.54-10.29,23.66,23.66,0,0,0-5,1.05A77.69,77.69,0,0,1,92.55,249,22.74,22.74,0,0,0,98.61,248Z"/>
        <path class="right-arm-5" d="M76.75,238.23a27.91,27.91,0,0,0-1.55,5.06,80.93,80.93,0,0,1,3,7.82,5.25,5.25,0,0,1-4.92,1.68c-1.9-3-4.39-9.77-4.39-9.77A15.19,15.19,0,0,1,71,238,15.54,15.54,0,0,1,76.75,238.23Z"/>
        <path class="right-arm-4" d="M66.39,243.51a19.3,19.3,0,0,0,6.14,12,9,9,0,0,0,4.58-.74l.06-.11a73.53,73.53,0,0,1-4.94-11.5A23.34,23.34,0,0,1,66.39,243.51Z"/>
        <path class="right-arm-6" d="M73.07,241.77a26.89,26.89,0,0,1-5.72.58c-.23.22-.73.92-1,1.14v0a23.34,23.34,0,0,0,5.84-.37,73.53,73.53,0,0,0,4.94,11.5l.63-1.15A84.21,84.21,0,0,1,73.07,241.77Z"/>
        <path class="right-arm-5" d="M86.2,236.38a27.48,27.48,0,0,0-.36,5.28c1.7,2.19,3.17,4.61,4.64,7a5.24,5.24,0,0,1-4.41,2.75c-2.53-2.5-6.49-8.52-6.49-8.52a15.22,15.22,0,0,1,1-5.34A15.6,15.6,0,0,1,86.2,236.38Z"/>
        <path class="right-arm-4" d="M77.3,243.87A19.29,19.29,0,0,0,86,254.15a9,9,0,0,0,4.29-1.76l0-.12a72.61,72.61,0,0,1-7.42-10.08A23.4,23.4,0,0,1,77.3,243.87Z"/>
        <path class="right-arm-7" d="M83.42,240.66A27,27,0,0,1,78,242.53c-.17.26-.5,1.06-.67,1.32v0a23.4,23.4,0,0,0,5.61-1.68,72.61,72.61,0,0,0,7.42,10.08l.35-1.26A82.55,82.55,0,0,1,83.42,240.66Z"/>
        <path class="right-arm-5" d="M94.11,233.14a23,23,0,0,1,4.56,6.79,18.73,18.73,0,0,1-1,7.42,19.86,19.86,0,0,1-4.54.76,5.87,5.87,0,0,1-1.17-1.63,27.05,27.05,0,0,0,.84-4.88,29.22,29.22,0,0,0-2.94-6.25A19.41,19.41,0,0,1,94.11,233.14Z"/>
        <path class="right-arm-5" d="M87,202a57.76,57.76,0,0,1,10.09-15.51A5.37,5.37,0,0,0,95.82,183a5,5,0,0,0-3.19-1.7,42.91,42.91,0,0,0-9,12.35C83.66,196.69,85.29,199.56,87,202Z"/>
        <path class="right-arm-4" d="M77,187.17c-5.58,1.33-11,3.79-16.22,6.17a148.09,148.09,0,0,0,5.39,45.4,55.61,55.61,0,0,0,22.49-2.39c-4.76-16-9.14-32.68-11.54-49.17Z"/>
        <path class="right-arm-8" d="M85.81,226.66a318.52,318.52,0,0,1-8.74-39.48H77c-5.58,1.33-11,3.79-16.22,6.17a150.32,150.32,0,0,0,.32,16.58l5.14-1.3S67,214.73,68,218.76,70.53,229,70.53,229a40.46,40.46,0,0,0,5.84-.29c3-.39,9.44-2,9.44-2Z"/>
        <path class="right-arm-9" d="M96.83,232.07c-3.77-14.18-8.65-29.36-11.48-43.76-2.48-.45-7.49-1-8.28-1.13,2.4,16.49,6.78,33.14,11.54,49.17l.19-.06S94.29,233.72,96.83,232.07Z"/>
        <path class="right-arm-10" d="M77.07,187.18a318.52,318.52,0,0,0,8.74,39.48,44.16,44.16,0,0,0,4.57-1.9c1.15-.59,2.78-1.57,3.83-2.21-3.21-11.32-6.66-23-8.86-34.24C82.87,187.86,77.86,187.27,77.07,187.18Z"/>
        <path class="right-arm-8" d="M94.3,222.9l-.15-.56a34.91,34.91,0,0,1-8.4,4.11l.15.53h0A35.26,35.26,0,0,0,94.3,222.9Z"/>
        <path class="right-arm-2" d="M85.74,226.45a51.39,51.39,0,0,1-15,2.27,150,150,0,0,1-4.31-20.15l0-.29-.29.05A30.73,30.73,0,0,0,61,209.7c0,.19,0,.38,0,.57a30.31,30.31,0,0,1,4.85-1.34,154.5,154.5,0,0,0,4.35,20.14l0,.2h.21a46.56,46.56,0,0,0,5.09-.24A51.91,51.91,0,0,0,85.9,227l-.15-.53Z"/>
        <path class="right-arm-11" d="M78.89,218.48c-.09-.36-.19-.72-.28-1.08-2.42.55-4.87,1-7.31,1.41l.24,1C74,219.51,76.47,219.05,78.89,218.48Z"/>
        <path class="right-arm-11" d="M77.86,214.38c-.08-.35-.17-.71-.25-1.07q-3.57.74-7.13,1.5c.06.34.12.68.19,1C73.07,215.39,75.48,214.9,77.86,214.38Z"/>
        <path class="right-arm-11" d="M78.36,216.44l-.27-1.09c-2.39.52-4.81,1-7.23,1.46.07.35.14.69.22,1C73.51,217.46,76,217,78.36,216.44Z"/>
        <path class="right-arm-11" d="M69.88,210.73c0,.36.09.71.14,1.06,2.29-.55,4.62-1,7-1.51-.07-.37-.15-.73-.21-1.1C74.45,209.61,72.15,210.13,69.88,210.73Z"/>
        <path class="right-arm-11" d="M77.4,212.34l-.24-1.09c-2.35.47-4.7,1-7,1.53,0,.35.11.7.16,1.05C72.67,213.32,75,212.83,77.4,212.34Z"/>
        <path class="right-arm-11" d="M73.41,224.75l-.48,0c.15.48.3,1,.46,1.46a71.41,71.41,0,0,0,7.39-1.3l-.45-1.47A43,43,0,0,1,73.41,224.75Z"/>
        <path class="right-arm-11" d="M76.58,208.2l-.27-1.54a68.17,68.17,0,0,0-6.66,1.66c0,.47.08.94.13,1.41C72,209.14,74.3,208.63,76.58,208.2Z"/>
        <path class="right-arm-11" d="M79.45,220.51c-.1-.36-.19-.72-.29-1.08a74.05,74.05,0,0,1-7.37,1.37l.27,1A54.75,54.75,0,0,0,79.45,220.51Z"/>
        <path class="right-arm-11" d="M80,222.53c-.1-.36-.2-.71-.31-1.07a54.64,54.64,0,0,1-7.4,1.33l.3,1A43.35,43.35,0,0,0,80,222.53Z"/>
        <path class="right-arm-12" d="M88.18,197.54A53.77,53.77,0,0,1,96.3,185.9a3.14,3.14,0,0,0-2.09-2.17,38,38,0,0,0-7.09,8.78S87.76,196.07,88.18,197.54Z"/>
        <path class="right-arm-5" d="M91.7,184.56a12.14,12.14,0,0,1,1.36,1.89,9.57,9.57,0,0,1,.66,1.44,7.4,7.4,0,0,0-.32-1.58,7.2,7.2,0,0,0-1.14-2.21Z"/>
        <path class="right-arm-5" d="M89.72,186.74a11.12,11.12,0,0,1,1.62,1.69,8.61,8.61,0,0,1,.84,1.35,7,7,0,0,0-.53-1.54,6.65,6.65,0,0,0-1.45-2Z"/>
        <path class="right-arm-5" d="M87.64,189.41a12.26,12.26,0,0,1,1.86,1.7,9.12,9.12,0,0,1,1,1.38,8,8,0,0,0-.7-1.59,7.36,7.36,0,0,0-1.71-2.06Z"/>
        <path class="right-arm-13" d="M95.58,231.48a8.63,8.63,0,0,1-3.12,1.77c-4-12-7.43-24.65-10.67-37.67-1-.41-1.73-1-2.71-1.45-.43-2-.77-4-1-6.06a23.8,23.8,0,0,1,6.4.8C88,203.17,91.46,217.61,95.58,231.48Z"/>
        <path class="right-arm-2" d="M75.34,234.64c-.34,0-.67,0-1,0h-.12l0-.11a31.18,31.18,0,0,1-1.42-5.55l.35-.06a31.07,31.07,0,0,0,1.37,5.37,21.38,21.38,0,0,0,6.11-.66,41.83,41.83,0,0,1-.83-5.32h.36a45.83,45.83,0,0,0,.86,5.43l0,.17-.17,0A22.93,22.93,0,0,1,75.34,234.64Z"/>
        <path class="right-arm-2" d="M63.92,209a25.72,25.72,0,0,1-.6-7.32v-.15l.13-.07a30.62,30.62,0,0,1,8.1-3.14,33.51,33.51,0,0,1-.75-9.22l.54,0a33.37,33.37,0,0,0,.79,9.33l.06.27-.26.06a29.56,29.56,0,0,0-8.08,3.06,25.09,25.09,0,0,0,.6,7Z"/>
        <path class="right-arm-2" d="M75,194.14l-.37-2.78a28.3,28.3,0,0,0-5.65,2,11.2,11.2,0,0,0,.21,2.52C70.69,195.37,73.17,194.6,75,194.14Z"/>
        <path class="right-arm-14" d="M74.66,194l-.28-2.07a21.47,21.47,0,0,0-4.21,1.48,8.43,8.43,0,0,0,.15,1.88C71.46,194.88,73.31,194.31,74.66,194Z"/>
        <path class="right-arm-2" d="M78.76,230c.07.75.17,1.51.3,2.24a17.63,17.63,0,0,1-4.1.43,9.26,9.26,0,0,1-.63-2.06A22,22,0,0,0,78.76,230Z"/>
        <path class="right-arm-14" d="M77.08,232.08a16.42,16.42,0,0,1-1.73.09,10.55,10.55,0,0,1-.42-1.35c.33,0,.66,0,1-.07a22,22,0,0,0,2.68-.43c0,.54.12,1,.2,1.5A15.63,15.63,0,0,1,77.08,232.08Z"/>
        <path class="right-arm-2" d="M64.93,234.25l-.07-.36,3.09-.6a95.15,95.15,0,0,1-3.19-15.12l-2.82.54-.06-.36,3.2-.6,0,.19a93.81,93.81,0,0,0,3.26,15.44l0,.19Z"/>
        <path class="right-arm-8" d="M84.84,144.15a95.66,95.66,0,0,0-14.08,33.63l0,0a112.38,112.38,0,0,1,26.36-1.63,141.76,141.76,0,0,0,15.76-34.49A86.23,86.23,0,0,0,84.84,144.15Z"/>
        <path class="right-arm-15" d="M113.2,141.71l-.29,0a141.76,141.76,0,0,1-15.76,34.49l.34,0A98.41,98.41,0,0,1,113,190.86l.24-.06a112.27,112.27,0,0,0,13.24-38.7C122.78,147.9,113.2,141.71,113.2,141.71Z"/>
        <path class="right-arm-2" d="M85.47,166.67l.42-.92a70.65,70.65,0,0,0,3.37-8.66A43.8,43.8,0,0,0,77.13,159l-.31-1.07A45.16,45.16,0,0,1,90,156h.75l-.21.72a65,65,0,0,1-3.23,8.63,71,71,0,0,1,15.82-.33l-.12,1.11a70.49,70.49,0,0,0-16.54.44Z"/>
    </g>
</svg>