<svg xmlns="http://www.w3.org/2000/svg" 
    xmlns:xlink="http://www.w3.org/1999/xlink" viewBox="0 0 294.54 401.1">
    <title>Hero</title>
    <g id="arrow" class="arrow-1">
        <polygon class="arrow-2" points="76.11 126.43 77.88 123.73 76.49 112.3 73.03 115.74 76.11 126.43"/>
        <polygon class="arrow-2" points="75.64 126.56 72.71 125.22 67.8 114.81 72.56 115.87 75.64 126.56"/>
        <rect class="arrow-6" x="76.82" y="113.51" width="1.1" height="36.54" transform="translate(-33.5 26.61) rotate(-16.09)"/>
        <rect class="arrow-6" x="72.02" y="114.7" width="1.1" height="0.91" transform="translate(-29.08 24.63) rotate(-16.09)"/>
        <path class="arrow-6" d="M72.84,114.07l-1.26-4.36c0-.13-.31-.17-.6-.08s-.5.26-.46.39l1.26,4.35Z"/>
        <path class="arrow-4" d="M83,149.17,71.58,109.71c0-.13-.31-.17-.6-.08l11.45,39.7Z"/>
        <polygon class="arrow-5" points="85.96 123.59 87.72 120.89 86.33 109.46 82.88 112.9 85.96 123.59"/>
        <polygon class="arrow-5" points="85.49 123.72 82.56 122.38 77.64 111.97 82.4 113.03 85.49 123.72"/>
        <rect class="arrow-6" x="86.66" y="110.66" width="1.1" height="36.54" transform="translate(-32.32 29.23) rotate(-16.09)"/>
        <rect class="arrow-6" x="81.87" y="111.86" width="1.1" height="0.91" transform="translate(-27.91 27.25) rotate(-16.09)"/>
        <path class="arrow-6" d="M82.68,111.23l-1.26-4.36c0-.13-.3-.17-.59-.08s-.5.26-.47.39l1.26,4.35Z"/>
        <path class="arrow-7" d="M92.81,146.33,81.42,106.87c0-.13-.3-.17-.59-.08l11.45,39.69Z"/>
        <polygon class="arrow-2" points="95.8 120.75 97.57 118.05 96.18 106.62 92.72 110.06 95.8 120.75"/>
        <polygon class="arrow-2" points="95.33 120.88 92.4 119.54 87.49 109.13 92.25 110.19 95.33 120.88"/>
        <rect class="arrow-6" x="96.51" y="107.82" width="1.1" height="36.54" transform="translate(-31.15 31.85) rotate(-16.09)"/>
        <rect class="arrow-6" x="91.71" y="109.02" width="1.1" height="0.91" transform="translate(-26.73 29.87) rotate(-16.09)"/>
        <path class="arrow-6" d="M92.53,108.39,91.27,104c0-.13-.31-.17-.6-.08s-.5.26-.46.39l1.26,4.35Z"/>
        <path class="arrow-4" d="M102.65,143.49,91.27,104c0-.13-.31-.17-.6-.08l11.45,39.69Z"/>
        <polygon class="arrow-6" points="88.45 132.83 75.37 136.6 79.06 147.22 104.7 142.7 101.53 129.06 88.45 132.83"/>
        <polygon class="arrow-8" points="106.19 149.13 82.12 156.08 83.02 158.67 106.81 151.81 106.19 149.13"/>
        <polygon class="arrow-9" points="80.29 150.79 81.19 153.38 105.55 146.35 104.93 143.68 80.29 150.79"/>
        <polygon class="arrow-10" points="88.45 132.83 75.37 136.6 84.89 164.04 105.55 223.59 113.94 221.17 88.45 132.83"/>
        <polygon class="arrow-2" points="87.48 129.76 70.55 134.64 75.43 144.35 90.44 140.02 105.46 135.69 104.42 124.87 87.48 129.76"/>
        <polygon class="arrow-11" points="70.58 134.7 75.52 144.4 90.92 139.96 87.95 129.69 70.58 134.7"/>
        <path class="arrow-6" d="M87.49,176.2a111.53,111.53,0,0,0-26.7,1.61c4.3,4.4,9.16,8.88,13.87,12.83,0,0,19.51,2.42,28.29.22A98.41,98.41,0,0,0,87.49,176.2Z"/>
        <path class="arrow-3" d="M74.84,144.15a95.66,95.66,0,0,0-14.08,33.63l0,0a112.38,112.38,0,0,1,26.36-1.63,141.76,141.76,0,0,0,15.76-34.49A86.23,86.23,0,0,0,74.84,144.15Z"/>
        <path class="arrow-12" d="M103.2,141.71l-.29,0a141.76,141.76,0,0,1-15.76,34.49l.34,0A98.41,98.41,0,0,1,103,190.86l.24-.06a112.27,112.27,0,0,0,13.24-38.7C112.78,147.9,103.2,141.71,103.2,141.71Z"/>
        <path class="arrow-6" d="M75.47,166.67l.42-.92a70.65,70.65,0,0,0,3.37-8.66A43.8,43.8,0,0,0,67.13,159l-.31-1.07A45.16,45.16,0,0,1,80,156h.75l-.21.72a65,65,0,0,1-3.23,8.63A71,71,0,0,1,93.13,165L93,166.09a70.49,70.49,0,0,0-16.54.44Z"/>
        <path class="arrow-3" d="M129.46,233.76a37.91,37.91,0,0,0-6-9.54,25.63,25.63,0,0,0-3.35,4.41,83.07,83.07,0,0,1,5.13,10.26A24.43,24.43,0,0,0,129.46,233.76Z"/>
        <path class="arrow-2" d="M115.22,224.76a24.71,24.71,0,0,1,8.57,2.34,20.24,20.24,0,0,1,4.43,6.81,21.28,21.28,0,0,1-3.18,3.85,6.32,6.32,0,0,1-2.13-.51,28.69,28.69,0,0,0-2.77-4.6,31.36,31.36,0,0,0-6.85-3A21.91,21.91,0,0,1,115.22,224.76Z"/>
        <path class="arrow-13" d="M123.41,224.26l0,0a37.57,37.57,0,0,1,6,9.48,23.82,23.82,0,0,1-4.22,5.1s0,0,0,0c.59.16,1,.29,1.58.46A22,22,0,0,0,131,234.5a23,23,0,0,0-6.22-9.77C124.46,224.43,123.83,224.4,123.41,224.26Z"/>
        <rect class="arrow-14" x="126.36" y="260.61" width="54.72" height="7.55" transform="translate(-151.81 277.92) rotate(-62.36)"/>
        <rect class="arrow-15" x="145.27" y="274.51" width="2.34" height="7.55" transform="translate(-168.02 278.92) rotate(-62.36)"/>
        <rect class="arrow-15" x="148.18" y="268.96" width="2.34" height="7.55" transform="translate(-161.55 278.52) rotate(-62.36)"/>
        <rect class="arrow-15" x="151.09" y="263.41" width="2.34" height="7.55" transform="translate(-155.07 278.12) rotate(-62.36)"/>
        <rect class="arrow-15" x="153.99" y="257.86" width="2.34" height="7.55" transform="translate(-148.6 277.72) rotate(-62.36)"/>
        <rect class="arrow-15" x="156.9" y="252.31" width="2.34" height="7.55" transform="matrix(0.46, -0.89, 0.89, 0.46, -142.12, 277.32)"/>
        <rect class="arrow-15" x="159.81" y="246.75" width="2.34" height="7.55" transform="translate(-135.64 276.92) rotate(-62.36)"/>
        <rect class="arrow-16" x="124.69" y="261.62" width="54.72" height="3.78" transform="translate(-151.93 275.97) rotate(-62.36)"/>
        <rect class="arrow-17" x="-7.96" y="243.7" width="249.38" height="2.64" transform="translate(-154.48 234.76) rotate(-62.36)"/>
        <rect class="arrow-14" x="104.02" y="238.12" width="27.14" height="10.49" rx="4.16" transform="translate(-152.55 234.64) rotate(-62.36)"/>
        <path class="arrow-18" d="M123.89,231.34l-1-.5a4.16,4.16,0,0,0-5.61,1.75l-8.73,16.68a4.15,4.15,0,0,0,1.75,5.61l1,.51Z"/>
        <path class="arrow-19" d="M180.87,169.6s25.91,51.7-23.21,63.53l.86,7.33s10,11,12.77,12.13,5.22-3.57,2-6.4,5.1-14.24,22.09-15.95c0,0,6.14-12.18,2.29-35.22-2.81-16.76-7.21-27.08-7.21-27.08Z"/>
        <path class="arrow-19" d="M180.87,169.6s25.91,51.7-23.21,63.53l.86,7.33s10,11,12.77,12.13,5.22-3.57,2-6.4,5.1-14.24,22.09-15.95c0,0,6.14-12.18,2.29-35.22-2.81-16.76-7.21-27.08-7.21-27.08Z"/>
        <path class="arrow-14" d="M183.38,111s-16.16,38.55,13.36,57.73c0,0-17.13,1.35-23.54,9.75C173.2,178.49,157.18,148.89,183.38,111Z"/>
        <path class="arrow-14" d="M163.38,235.56s24.06-6.11,27.36-28c0,0,5.1,13.57,1.89,19,0,0-17.3,5.35-20.74,11.06a19.16,19.16,0,0,0-2.66,8.9l-5.55-5.9Z"/>
        <path class="arrow-14" d="M190.07,177.44a2,2,0,1,1-.86-2.74A2,2,0,0,1,190.07,177.44Z"/>
        <path class="arrow-19" d="M190.83,223.8a2.21,2.21,0,1,1-.93-3A2.21,2.21,0,0,1,190.83,223.8Z"/>
        <path class="arrow-19" d="M91.28,340.69s57.25-8.15,39-55.26l6.51-3.47s14.72,2,17.24,3.59,0,6.32-4.12,5.29-8.79,12.31-.52,27.25c0,0-6.51,12-27.64,21.93-15.38,7.25-26.37,9.51-26.37,9.51Z"/>
        <path class="arrow-14" d="M44.55,376.13S67,340.89,99.62,354.23c0,0-8.66-14.85-5.41-24.9C94.21,329.33,60.76,333,44.55,376.13Z"/>
        <path class="arrow-14" d="M135.53,288.75s8.68,23.25-7.41,38.41c0,0,14.07-3.53,16.73-9.29,0,0-5.45-17.26-2.72-23.34a19.23,19.23,0,0,1,5.79-7.26l-8-1.2Z"/>
        <path class="arrow-14" d="M103,343.79a2,2,0,1,0-2.75.85A2,2,0,0,0,103,343.79Z"/>
        <path class="arrow-19" d="M141.5,318a2.21,2.21,0,1,0-3,.93A2.22,2.22,0,0,0,141.5,318Z"/>
        <path class="arrow-15" d="M176.37,171.08s-5.79-10.68-2.4-30c0,0-.54,20.7,8.34,27.09C182.31,168.18,178.28,169.44,176.37,171.08Z"/>
        <path class="arrow-15" d="M89.93,336.15s-12.08,1.33-26,15.12c0,0,16.71-12.24,27-8.58C90.94,342.69,89.68,338.66,89.93,336.15Z"/>
        <path class="arrow-2" d="M106,240.69a29.3,29.3,0,0,0,2.31,5.22,89.26,89.26,0,0,1,7.93,4.3,5.7,5.7,0,0,1-2.83,4.84c-3.68-1.11-10.47-4.87-10.47-4.87a16,16,0,0,1-1.74-5.6A16.84,16.84,0,0,1,106,240.69Z"/>
        <path class="arrow-3" d="M101.23,252.3a20.68,20.68,0,0,0,13.46,5.44,9.75,9.75,0,0,0,3.21-3.83l0-.13a79,79,0,0,1-12.14-5.9A24.78,24.78,0,0,1,101.23,252.3Z"/>
        <path class="arrow-20" d="M105.45,246.17a29,29,0,0,1-4.26,4.52c0,.34.06,1.26,0,1.6h0a24.78,24.78,0,0,0,4.5-4.42,79,79,0,0,0,12.14,5.9l-.29-1.39A87.79,87.79,0,0,1,105.45,246.17Z"/>
        <path class="arrow-2" d="M112.35,232.52a30.38,30.38,0,0,0,3.43,4.56,87.45,87.45,0,0,1,8.7,2.39,5.67,5.67,0,0,1-1.66,5.35c-3.83-.25-11.31-2.37-11.31-2.37a16.37,16.37,0,0,1-3-5A16.78,16.78,0,0,1,112.35,232.52Z"/>
        <path class="arrow-3" d="M110.38,244.9a20.76,20.76,0,0,0,14.34,2.25,9.78,9.78,0,0,0,2.27-4.46l-.06-.13a78.46,78.46,0,0,1-13.17-3A24.9,24.9,0,0,1,110.38,244.9Z"/>
        <path class="arrow-21" d="M113.11,238a28.67,28.67,0,0,1-3.13,5.36c0,.34.34,1.22.38,1.56h0a24.9,24.9,0,0,0,3.38-5.33,78.46,78.46,0,0,0,13.17,3l-.6-1.28A89.38,89.38,0,0,1,113.11,238Z"/>
        <path class="arrow-2" d="M88.8,203.92a62.48,62.48,0,0,1-2.72-19.77,5.79,5.79,0,0,0-3.54-1.93,5.38,5.38,0,0,0-3.8.86,46.11,46.11,0,0,0,1.36,16.43C82.28,202,85.63,203.14,88.8,203.92Z"/>
        <path class="arrow-3" d="M70.09,198.91c-3.61,5-6.3,10.86-8.87,16.48A159.4,159.4,0,0,0,97.64,248.6a59.82,59.82,0,0,0,16.65-17.81c-15.19-9.71-30.51-20.19-44.1-31.95Z"/>
        <path class="arrow-22" d="M105.18,224.87a340.22,340.22,0,0,1-35-26l-.1.07c-3.61,5-6.3,10.86-8.87,16.48a157.1,157.1,0,0,0,12,13.3L76.45,224s5,4.4,8.59,7,9.3,6.51,9.3,6.51a43.82,43.82,0,0,0,4.57-4.37c2.2-2.46,6.27-8.3,6.27-8.3Z"/>
        <path class="arrow-23" d="M118,221.5c-13.09-8.9-27.77-17.83-40.24-27.58-2.34,1.38-6.84,4.44-7.55,4.92,13.59,11.76,28.91,22.24,44.1,31.95l.12-.18S117.07,224.64,118,221.5Z"/>
        <path class="arrow-24" d="M70.19,198.84a340.22,340.22,0,0,0,35,26,51.86,51.86,0,0,0,2.38-4.78c.52-1.29,1.16-3.24,1.56-4.49-10.6-7-21.66-14.08-31.38-21.68C75.4,195.3,70.9,198.36,70.19,198.84Z"/>
        <path class="arrow-22" d="M109.44,215.81l-.52-.35a37.06,37.06,0,0,1-3.94,9.27l.5.33h0A37.41,37.41,0,0,0,109.44,215.81Z"/>
        <path class="arrow-6" d="M105,224.74a55.14,55.14,0,0,1-10.62,12.43,161.46,161.46,0,0,1-17.73-13.39l-.23-.2-.2.24a33.42,33.42,0,0,0-3.18,4.7c.15.14.29.29.44.44a32,32,0,0,1,3-4.52,166.47,166.47,0,0,0,17.75,13.35l.19.13.17-.15a51.9,51.9,0,0,0,4-3.78,56.39,56.39,0,0,0,6.93-8.93l-.5-.33Z"/>
        <path class="arrow-6" d="M93.76,223.08l-1-.68c-1.59,2.15-3.25,4.27-5,6.31l.92.66A78.27,78.27,0,0,0,93.76,223.08Z"/>
        <path class="arrow-6" d="M90,220.47l-1-.7c-1.59,2.08-3.19,4.17-4.76,6.25l.89.71C86.84,224.67,88.45,222.57,90,220.47Z"/>
        <path class="arrow-6" d="M91.89,221.79l-1-.7c-1.59,2.12-3.21,4.23-4.86,6.3l.9.68C88.65,226.05,90.31,223.94,91.89,221.79Z"/>
        <path class="arrow-6" d="M81,223.12l.86.77c1.48-2.07,3-4.12,4.6-6.14l-1-.75C83.88,219,82.37,221,81,223.12Z"/>
        <path class="arrow-6" d="M88.21,219.12l-.95-.71c-1.6,2-3.16,4.11-4.65,6.19l.88.74C85.05,223.26,86.63,221.19,88.21,219.12Z"/>
        <path class="arrow-6" d="M93.71,232.06l-.36.37,1.4.87A75,75,0,0,0,99.87,227l-1.4-.88A47.45,47.45,0,0,1,93.71,232.06Z"/>
        <path class="arrow-6" d="M84.63,216.33l-1.31-1.07c-1.53,2-3.14,4.22-4.26,6.06.36.36.73.7,1.1,1.05C81.57,220.31,83.07,218.29,84.63,216.33Z"/>
        <path class="arrow-6" d="M95.65,224.34l-1-.67a76.54,76.54,0,0,1-5,6.31l.94.65A58.14,58.14,0,0,0,95.65,224.34Z"/>
        <path class="arrow-6" d="M97.56,225.57l-1-.65a59.15,59.15,0,0,1-5.09,6.3c.32.21.63.42,1,.62A46.22,46.22,0,0,0,97.56,225.57Z"/>
        <path class="arrow-5" d="M86.56,199.45A57.78,57.78,0,0,1,85,184.24a3.43,3.43,0,0,0-3.24-.31,41,41,0,0,0,.42,12.17S85.18,198.55,86.56,199.45Z"/>
        <path class="arrow-2" d="M80.27,186.39a13.54,13.54,0,0,1,2.45.58,9.2,9.2,0,0,1,1.54.71,7.59,7.59,0,0,0-1.37-1.07,7.44,7.44,0,0,0-2.49-1Z"/>
        <path class="arrow-2" d="M80.19,189.57a11.82,11.82,0,0,1,2.52.23,8.44,8.44,0,0,1,1.63.51,7.45,7.45,0,0,0-1.5-.89,7,7,0,0,0-2.64-.64Z"/>
        <path class="arrow-2" d="M80.38,193.21a13.56,13.56,0,0,1,2.72.07,10.5,10.5,0,0,1,1.79.42,8.66,8.66,0,0,0-1.69-.8,8.11,8.11,0,0,0-2.85-.49Z"/>
        <path class="arrow-25" d="M116.55,221.9a9.47,9.47,0,0,1-1.3,3.65c-11.75-7-23.45-14.85-35.29-23.18-1.09.35-2.13.36-3.22.72q-2.65-2-5.1-4.23A25.25,25.25,0,0,1,77.42,195C90.41,204.15,103.4,213.51,116.55,221.9Z"/>
        <path class="arrow-6" d="M103.75,237.34a20.61,20.61,0,0,1-2.33,2.11l-.1.08-.11-.06a33.76,33.76,0,0,1-5.08-3.53l.25-.3a34.15,34.15,0,0,0,4.9,3.42,23.26,23.26,0,0,0,4.52-4.85,45.92,45.92,0,0,1-4.43-3.75l.29-.27a48.72,48.72,0,0,0,4.53,3.82l.15.11-.11.16A26.51,26.51,0,0,1,103.75,237.34Z"/>
        <path class="arrow-6" d="M74.86,225.91a27.57,27.57,0,0,1-5.66-5.55l-.1-.13.05-.15a33.15,33.15,0,0,1,4.39-8.26,36.7,36.7,0,0,1-7.12-7l.48-.36a36.32,36.32,0,0,0,7.23,7.06l.24.17-.18.24a32.32,32.32,0,0,0-4.42,8.19,26.8,26.8,0,0,0,5.44,5.3Z"/>
        <path class="arrow-6" d="M73.4,206l-2.26-2a30.59,30.59,0,0,0-3.21,5.61,12.58,12.58,0,0,0,1.95,1.91C70.77,210,72.25,207.65,73.4,206Z"/>
        <path class="arrow-26" d="M73,206.08l-1.7-1.5a23.75,23.75,0,0,0-2.39,4.19,9.35,9.35,0,0,0,1.46,1.42C71.05,209.08,72.16,207.31,73,206.08Z"/>
        <path class="arrow-6" d="M101.8,232.57c.58.56,1.19,1.12,1.82,1.62a19.43,19.43,0,0,1-3,3.24,10.31,10.31,0,0,1-2-1.23A24.47,24.47,0,0,0,101.8,232.57Z"/>
        <path class="arrow-26" d="M101.88,235.45c-.42.44-.87.87-1.34,1.29a9.65,9.65,0,0,1-1.3-.8l.75-.75a24.77,24.77,0,0,0,1.88-2.24c.43.4.83.76,1.23,1.08A17.68,17.68,0,0,1,101.88,235.45Z"/>
        <path class="arrow-6" d="M93.51,245.79l-.32-.25,2.1-2.67A101.39,101.39,0,0,1,82,232.8l-1.92,2.42L79.8,235,82,232.22l.16.15a102.54,102.54,0,0,0,13.54,10.29l.19.11Z"/>
    </g>
</svg>