<svg xmlns="http://www.w3.org/2000/svg" 
    xmlns:xlink="http://www.w3.org/1999/xlink" viewBox="0 0 294.54 401.1">
    <title>Hero</title>
    <g id="axe" class="axe-1">
        <path class="axe-2" d="M76.6,237.91a26.91,26.91,0,0,0-1.54,5A83.39,83.39,0,0,1,78,250.76a5.24,5.24,0,0,1-4.9,1.67c-1.9-3-4.38-9.74-4.38-9.74a14.91,14.91,0,0,1,2.17-5A15.44,15.44,0,0,1,76.6,237.91Z"/>
        <path class="axe-7" d="M154.64,232.91A107.71,107.71,0,0,1,151,248.74a50.41,50.41,0,0,1-18.2-.23l-2.7-15.92h-.84l2.81,16.61.28.06a52.27,52.27,0,0,0,10.23,1,51,51,0,0,0,8.81-.77l.25,0,.07-.24a107.89,107.89,0,0,0,3.76-16.3Z"/>
        <path class="axe-10" d="M146,266.08a16.17,16.17,0,0,0,4.24-7.06c1.88-.72,4-1.32,5.92-2a60,60,0,0,0,5.83-21.3,295.46,295.46,0,0,0-39.24-1.32c11.25,1.77,22.77,3.91,34,5.68a31.53,31.53,0,0,1-3.24,15.2c-1.5.81-3.49,1.51-5,2.32C147.43,260.12,147,263.52,146,266.08Z"/>
        <path class="axe-2" d="M114.11,262.85a20,20,0,0,1,2.32.75,12.88,12.88,0,0,1,1.49.72,9.41,9.41,0,0,0-1.2-1.2,7.77,7.77,0,0,0-2.27-1.33Z"/>
        <path class="axe-2" d="M155.5,271c.36-.3,1-.92,1.54-1.43s1.07-.92,1.07-.92a12.38,12.38,0,0,0-1.36.45,8.1,8.1,0,0,0-1.95,1Z"/>
        <path class="axe-2" d="M151.5,267.15a26.1,26.1,0,0,0,2.78-2.11,25.83,25.83,0,0,0-3.3,1.14Z"/>
        <path class="axe-7" d="M97.29,176.05a111.47,111.47,0,0,0-26.63,1.61c4.29,4.39,9.14,8.85,13.83,12.79,0,0,19.45,2.42,28.2.22A98.22,98.22,0,0,0,97.29,176.05Z"/>
        <path class="axe-11" d="M100,237.38h0a35.3,35.3,0,0,1-1.54,10.26,22.67,22.67,0,0,1-6.05,1,.1.1,0,0,0,0,0c.31.47.51.81.82,1.28a20.06,20.06,0,0,0,5.92-.82,21.23,21.23,0,0,0,1.56-10.59C100.6,238.13,100.18,237.74,100,237.38Z"/>
        <path class="axe-3" d="M98.4,247.64a35.3,35.3,0,0,0,1.54-10.26,23.44,23.44,0,0,0-5,1.05,76,76,0,0,1-2.6,10.22A22.67,22.67,0,0,0,98.4,247.64Z"/>
        <path class="axe-2" d="M93.91,232.83a22.88,22.88,0,0,1,4.55,6.78,18.73,18.73,0,0,1-1,7.39,19.43,19.43,0,0,1-4.53.76,5.82,5.82,0,0,1-1.18-1.63,26.2,26.2,0,0,0,.85-4.86A29.75,29.75,0,0,0,89.66,235,19.7,19.7,0,0,1,93.91,232.83Z"/>
        <path class="axe-2" d="M91.51,184.39a12.14,12.14,0,0,1,1.36,1.89,8.62,8.62,0,0,1,.65,1.43,7.38,7.38,0,0,0-.32-1.57,6.79,6.79,0,0,0-1.14-2.21Z"/>
        <path class="axe-2" d="M89.53,186.57a10.54,10.54,0,0,1,1.62,1.68A8.1,8.1,0,0,1,92,189.6,7.12,7.12,0,0,0,90,186Z"/>
        <path class="axe-5" d="M84.67,144.1a95.36,95.36,0,0,0-14,33.53l0,0A112.24,112.24,0,0,1,96.94,176a140.79,140.79,0,0,0,15.72-34.39A86,86,0,0,0,84.67,144.1Z"/>
        <path class="axe-12" d="M113,141.66l-.29,0A140.79,140.79,0,0,1,96.94,176l.35,0a98.22,98.22,0,0,1,15.4,14.62l.25-.06A111.84,111.84,0,0,0,126.14,152C122.5,147.84,113,141.66,113,141.66Z"/>
        <path class="axe-7" d="M85.3,166.55l.42-.91A72.59,72.59,0,0,0,89.08,157,43.59,43.59,0,0,0,77,158.9l-.31-1.07a45,45,0,0,1,13.15-2h.74l-.2.72a67.71,67.71,0,0,1-3.23,8.6,71.23,71.23,0,0,1,15.78-.32l-.12,1.11a70.15,70.15,0,0,0-16.5.44Z"/>
        <path class="axe-2" d="M86.86,201.82a58,58,0,0,1,10.06-15.48,5.28,5.28,0,0,0-1.3-3.49,5,5,0,0,0-3.18-1.7,42.4,42.4,0,0,0-9,12.31C83.49,196.49,85.12,199.35,86.86,201.82Z"/>
        <path class="axe-5" d="M94.1,222.62l-.15-.55a34.63,34.63,0,0,1-8.37,4.09l.15.53h0A34.54,34.54,0,0,0,94.1,222.62Z"/>
        <path class="axe-36" d="M88,197.34a53.8,53.8,0,0,1,8.09-11.61A3.15,3.15,0,0,0,94,183.56a38,38,0,0,0-7.08,8.76S87.58,195.87,88,197.34Z"/>
        <path class="axe-2" d="M87.46,189.23a12.26,12.26,0,0,1,1.86,1.7,9.72,9.72,0,0,1,1,1.37,7.79,7.79,0,0,0-.7-1.58,7.35,7.35,0,0,0-1.7-2.06Z"/>
        <path class="axe-13" d="M137.11,205s-1.08.51-3.24,3.91-2.6,3.17-2.6,3.36-.12,6.09-.12,6.09l-2,6.54-5.39,4.21-2.49-.3a29.1,29.1,0,0,1-3.95-5.31s2.32,3.37,5.18,2.39A2.41,2.41,0,0,0,124,223a3.26,3.26,0,0,0,2.78-2.52c.6-2.35-.2-3.82-.16-6a11.21,11.21,0,0,1,3.76-7.82,10.37,10.37,0,0,1,5.15-2.67s2.83-.47,3.71.11A3.53,3.53,0,0,0,137.11,205Z"/>
        <path class="axe-13" d="M181.59,250.74s10.25-2,13.17-12.41c0,0,1.52,15-15.31,28.64,0,0-9.14,6.65-18,7.4,0,0,2.08-3.11.5-4.52s-2.88-.79-3.37-.41-1.44,1.46-1.76,4.18l-.18.31a21,21,0,0,0-6.57-1.72,26.32,26.32,0,0,0-4.32.82,8.55,8.55,0,0,1-6.34-1.09.89.89,0,0,0-.31-1.25c-.79-.54-2.38-1.37-5.51-.59a11.2,11.2,0,0,1-7.58-.57c-2.23-.91-6.84-3.6-7.68-3.85s-3.77-2-6.53.77c0,0,.26-4.14-5-3.29a16.93,16.93,0,0,0-5,1.16s2.6-5.43,10.24-6.44c0,0,4.3-.49,4.16-3,0,0,6,6.63,11.3,4.25s27.3-2.57,27.3-2.57l12.69.41,8.6-.51Z"/>
        <path class="axe-37" d="M110.4,243.36l26.28-6.58s5.3-.4,7,1.35l2.39.53-4.42,10.6,1.36,4.65,15.09-.09,5.23-10.1-3.18-5.21-2.66-8s2.4-1.52,3.39.62,1.43-5.65-1.68-6.71c0,0,.14-.2-.18.85s-3.29,1.15-3.29,1.15l-2.4-.53L152.08,222l2-3.31-1.58-6.32-9.76,11.1-.63,2.87-3.2,1.88-.68,1.22L135.36,231l-2.46.6-2.23-.1-23.4,5.85,1.59,6.36Z"/>
        <path class="axe-15" d="M157.53,230.47s1.56,7,4.94,6,3.77-2.55,3.77-2.55,2.61,0,4.63,3c0,0-3.29,3.68-3,7.87,0,0,.34.78.09,1.14s2,2.74,2.72,2.56a4.69,4.69,0,0,1,1.77-.1c.83,0,4.3.33,6.12-1.1s2.25-.71,2.25-.71a5.94,5.94,0,0,0,3.85-.09c1.94-.77,5.45-.3,10.28-8.87,0,0-2.67,28.24-33.27,36,0,0,4-4.06-.27-5.7s-4.68,4.9-4.68,4.9-3.51-2-5.92-2-6.87,2.74-10.79,0c0,0,.68-1.53-2.6-2.26s-4.12,1.18-8.78.36-8.62-4.24-11.12-5a13.16,13.16,0,0,0-5.5-.1s0-3.47-8.37-1.85c0,0,1-2.56,10.29-4.48a3.16,3.16,0,0,0,3.15-2.54s5,2.75,9.18.81,5.37-4.64,4.65-7.24-2-6.85-8.81-3.48c0,0,4.25-10.23,14-7.9,0,0,.27,6.65,4.62,5.43,0,0,.78,2.74,3.59-.25s-.48-5-1.91-4.27c0,0,5.63-2,7.67,3s-5.41,6.64-5.41,6.64l-3.05,1.39,1.34,3,12.61.79,9.62-7.2-4.34-6.5-4-4.81-.49-3.51S157,230.4,157.53,230.47Z"/>
        <path class="axe-38" d="M181.81,250s10.25-2,13.17-12.41c0,0,1.52,15-15.31,28.64,0,0-9.14,6.65-18,7.4,0,0,2.08-3.11.5-4.52s-2.88-.8-3.37-.42-1.44,1.46-1.76,4.19l-.19.31a21,21,0,0,0-6.56-1.72,26.32,26.32,0,0,0-4.32.82,8.55,8.55,0,0,1-6.34-1.09.89.89,0,0,0-.31-1.25c-.79-.54-2.38-1.37-5.51-.59a11.2,11.2,0,0,1-7.58-.57c-2.23-.91-6.84-3.6-7.68-3.85s-3.77-2-6.54.77c0,0,.27-4.14-5-3.29a17,17,0,0,0-5,1.16s2.61-5.43,10.25-6.44c0,0,4.3-.49,4.16-3,0,0,6.05,6.63,11.3,4.25s27.3-2.57,27.3-2.57l12.69.41,8.6-.51Z"/>
        <path class="axe-15" d="M139.43,204.39s-7.75-.39-10.69,5.67-.38,9.74-1.94,11.83-2.35,1.46-2.35,1.46.19,3.24-2.66,3.08a5.43,5.43,0,0,1-4.21-2.67,14.71,14.71,0,0,0,2.57,5.41c1.89,2.34,6.14,5.39,13.93,1.07,0,0-1.09-3.36.14-5s5.15-6.33,7.81-2.1c0,0,1.2,3-2.38,4.23a11.46,11.46,0,0,1-8,4.2,9.85,9.85,0,0,0,7.94-2.55l.06-1s2.89.21,4.16-3.37l.68-1.79,7-8.4,1.93-.8.1,2.23L152.08,222l.58,3.09a3.23,3.23,0,0,0,3.11,1.32s-2.23-.25-2.49-1.67-.07-3.25,2.82-4.1c0,0,.46-2.8,2.2-3.72a10.92,10.92,0,0,0-.09-1.14c-.09-.75-1.09-4,3-4.17s4.2.89,4.2.89,7.25-3.95,11.08,1.17c0,0-.18-4.58-11.08-10.18s-18.53-3.21-23.39-1.71c0,0,6.58-1.06,5,6.1s-8.13,3.26-8.13,3.26l-.76.7a4.8,4.8,0,0,0-4.23-.78,4,4,0,0,1,2.61-2.59A4.54,4.54,0,0,1,139.43,204.39Z"/>
        <path class="axe-39" d="M137.32,205.25s-1.08.52-3.24,3.91a13.06,13.06,0,0,1-2.6,3.37c0,.19-.12,6.08-.12,6.08l-2,6.55-5.39,4.2-2.49-.29a29.57,29.57,0,0,1-4-5.31s2.32,3.36,5.18,2.38a2.41,2.41,0,0,0,1.43-2.9,3.25,3.25,0,0,0,2.78-2.51c.6-2.36-.2-3.83-.16-6a11.23,11.23,0,0,1,3.76-7.82,10.37,10.37,0,0,1,5.15-2.67s2.83-.47,3.71.12A3.56,3.56,0,0,0,137.32,205.25Z"/>
        <path class="axe-40" d="M175,211.55s-2.88-3.74-10-1.6l-4.68-1.7-7.91-2.67-3.11.2s.19-4.64-7.28-4c0,0,7.71-5.58,22.91.95,0,0,8.71,4.09,11.56,10.94Z"/>
        <path class="axe-19" d="M121.53,229.07s4.21-.19,4.87-3.35a3.06,3.06,0,0,0,2.78-1.28,6.1,6.1,0,0,0,1.07-3.47c.16-1.3-1.39-1.3-.57-2.28a2.39,2.39,0,0,0,.07-2.82c-.39-.39.37-.48.71-1.83s.11-1.87,1-2.87a7.74,7.74,0,0,1,2.6-2,2.34,2.34,0,0,0-.52,2.17.84.84,0,0,0,.9.13,4.34,4.34,0,0,1,3.12.57,1.6,1.6,0,0,0,1.61.25s4.76,2.26,8.15-.75l.83-1.05,1.21-.07s-.17-.93-.62-1,.38-.93.52-1.16.29-.26-.05-1.47-.38-1.55-.38-1.55l.33-.09a1.16,1.16,0,0,1,.74-1.44c1.05-.33.54-.3,1.27.33s1.06,1.25,1.29,1,.35-.54.65-.23.16.25.81.25,1.08.21,1.47.21.67.48,1.06.48.95-.69,1.24-1.76c0,0-.16,1.3-.28,2.1s1.25.11,1.54,0,.45.38.86-.44,1.07-1.62,1.37-.7-.48.77-.26,1.55,0,.55.58,1a5,5,0,0,0,2.06,1.13c.86.21.72.55,1,.62a2.49,2.49,0,0,0,.8,0l-.38.8,0,.51s-1.64-1.24-2.54-1a3.79,3.79,0,0,1-1.89.06,1.37,1.37,0,0,0-1.49.24c-.62.61-1.54.42-1.93,1.06s-.49,2.16-.85,2.38-.54.59-.09,1,1.1,1.66,1.35,1.79-.79.43-1,.73a17.73,17.73,0,0,0-1.36,1.8c-.05.3-4.71,1.63-1.88,7.32,0,0-2.39-.86-1.71-4.52a4.81,4.81,0,0,1,.91-2,24.91,24.91,0,0,1-.37-3.64,13.7,13.7,0,0,1-3.59,2.5s-.31,3.42-4.27,5.82a12,12,0,0,0-.63-2.95,14.46,14.46,0,0,1,1-1.16c.24-.2-1.55.39-1.55.39a2.31,2.31,0,0,0-2.21-1.09c-1.57.1-1.91-.11-3.08.28a8.5,8.5,0,0,0-1.94.93,1.65,1.65,0,0,0-1.88,1.19c-.55,1.5-1.95,1.9-1.67,3s.48,1.72.25,2.16.44,2.31-.13,2.55S126.63,233.8,121.53,229.07Z"/>
        <path class="axe-19" d="M156.42,231s-3,3.13,2.83,8.6-.49,11.79-7.14,11.37-4.72-1.63-8.91-1c0,0-.56-.3.61-1s5-1.6,6.25-3.5,2.39-5.54-3.2-7.19c0,0,2.81,4.28.3,6.65s-4.91,2.45-5.67,1.91a5,5,0,0,1-1.25-2.1,5.74,5.74,0,0,1-3.12-2,9,9,0,0,1-1.31-3.89,7.31,7.31,0,0,0-5.9.22l-2.83,1.29s1.54-.24,1.88.16-.33.61.64.61,2,.95,2.45.89,0,.24.34.59.93,1.18,1.12,1.18,2,.21,2,.21l-1.27,1.34s1.9,3.69-.12,6.47a19.94,19.94,0,0,1-8.86,7s1.52,2.33,2.27,2.47.85,0,1.21.34a1.58,1.58,0,0,0,1.09.47c.38,0,.51.1.87.24s.4-.07.95.08.54.71,1.07.9.67.63,1.08-.05.67-.71,1.59-.78.79.06,1.2-.47.35,0,.88-.6.24-.87.75-.9,1.11.69,1.45.77.66-.33,1-.07.29.89.54,1.12a8.67,8.67,0,0,1,1.62,1.18c.93.9.78,1.45,1.94,1.68s1,.39,1.38.23.27.29.83.34.8-.26,1.49-.37.39.29,1.2.15,1,.22,1.45.08.73.42,1.15.44,2.46-3,2.46-3,.32,2.63,1.39,1.49.45-1.49,1.25-1.28.9.19,1-.38.28.36,1.1,0,2.46-2.63,3-3,.49-.66,1.31-.28a34.36,34.36,0,0,0,3,1.83c.84.26.54.52,1,.48s-.46.58.38-.33a6,6,0,0,1,3.41-2.33c2-.58,2.16-.18,3.27-1s4.39-2.19,4.23-3.12-1.16-1.38-.07-1.65,1.85.14,2.32-.7,1.49-1.51,1.84-2.42a6.28,6.28,0,0,0,.33-1.69,7.55,7.55,0,0,1-3.21.13,10.49,10.49,0,0,1-4.3,2.29l-1,2.23-.32-1.77s-3.49.37-5.41-1.21-3.57-2.64-3.2-4.84a19.31,19.31,0,0,1,.68-2.71c.23-1.18.6-.88.55-2s1.71-3.63,1.71-3.63l-2.47-1.75a2,2,0,0,1-1.55,1.93c-1.63.46-3.56,1.48-4.17.37s-.7-.46-1.43-1.05a4,4,0,0,1-1.26-2c-.12-.45,0-1-.24-1.34s-.68-.17-.87-.76A15.32,15.32,0,0,0,156.42,231Z"/>
        <polygon class="axe-41" points="107.39 244.41 107.02 246.42 104.81 246.98 102.39 246.42 100.42 237.65 102.07 236.03 104.28 235.48 105.58 237.15 107.39 244.41"/>
        <path class="axe-21" d="M107.91,244l-.52.46a10.69,10.69,0,0,1-1.81-7.26l.51.32.23.12Z"/>
        <path class="axe-22" d="M109.62,240.26a2.33,2.33,0,0,0-.29,1.62,10.39,10.39,0,0,0,.41,1.64l-1.89.48a11.66,11.66,0,0,1-1.76-6.52l1.65-.41.38-.09S108.45,239.59,109.62,240.26Z"/>
        <path class="axe-22" d="M58.67,248.84s2.23-.31,6.45-6.67l2.19,1.58,3.22.11-.12,1.93.12,4,1.4,3.39L72.8,255l-2.75,1.39-1.58,2.33s-5.14-2.56-7.78-2.53C60.69,256.14,58.34,254,58.67,248.84Z"/>
        <polygon class="axe-23" points="71.71 253.28 69.14 255.38 68.67 254.89 67.04 256.59 64.56 245.04 66.66 246.16 66.69 246.94 70.17 247.1 70.75 250.35 71.71 253.28"/>
        <path class="axe-24" d="M72.88,254.1l-.08.85a11.46,11.46,0,0,1-2.27-11.09l.42.89Z"/>
        <path class="axe-25" d="M71,244.75l.65,0,3.48.09,1.11,0,4.48-1.13,16.74-4,1.77,6.44-.12.08L76.58,252,74,253l-.3,1-.85.09A10.77,10.77,0,0,1,71,244.75Z"/>
        <path class="axe-26" d="M100.42,237.64a5.87,5.87,0,0,1-3.18,1.77A22.78,22.78,0,0,0,99,246.5s2.65-.47,3.85.07c0,0-2.29-4.7-2.09-9Z"/>
        <path class="axe-26" d="M98.52,246.6s-1-.71-1.88-7l-2.74.69a9,9,0,0,0,1.73,6.9l.1.13Z"/>
        <path class="axe-26" d="M95,247.49a10.06,10.06,0,0,1-1.76-7.05l-3.65.92a9,9,0,0,0,1.76,7Z"/>
        <path class="axe-26" d="M90.23,248.67a10.82,10.82,0,0,1-1.58-7.09l-3.92,1a10.38,10.38,0,0,0,1.78,7.15Z"/>
        <path class="axe-26" d="M85.84,249.77a10.91,10.91,0,0,1-1.76-7l-3.61.9a8.25,8.25,0,0,0,1.79,7.15Z"/>
        <path class="axe-26" d="M81.23,251.2s-2.24-3.7-1.66-7.5l-3.35,1A10.51,10.51,0,0,0,78,252Z"/>
        <path class="axe-26" d="M77.22,252.33s-2.64-2.7-2-7.9l-3.64.3A12.56,12.56,0,0,0,73.73,254Z"/>
        <path class="axe-24" d="M68.13,258.15s-5.55-6.58-3.18-14.83c0,0,.12,3.49.69,4s-.69,1.15-.25,2a8.78,8.78,0,0,1,.76,3c.15,1.22,1.24,1.51,1.2,2.22A23.1,23.1,0,0,0,68.13,258.15Z"/>
        <path class="axe-27" d="M69.84,256.1s0-2.31-.38-2.5a8.41,8.41,0,0,1-1.73-1.19c0-.09-1.55-4.45-.87-7.63,0,0-1,3.42,1,8.29A11.55,11.55,0,0,0,69.84,256.1Z"/>
        <path class="axe-28" d="M63.84,256.71l-.41-2s-.09-.83.1-1.07.64-.31.43-1.25-.56-2.23-.56-2.23-.12-.7-.51-.79a.88.88,0,0,1-.53-.57l-.59-2.25"/>
        <path class="axe-28" d="M61,255.72a12.22,12.22,0,0,1-1.5-7.09"/>
        <path class="axe-21" d="M108.88,241.81s-.34-1.28,0-1.4c0,0-.31.09-.68-1.17Z"/>
        <path class="axe-29" d="M106.73,245.86a14.86,14.86,0,0,1-2.4-9.57"/>
        <path class="axe-29" d="M104.67,246.4a14.93,14.93,0,0,1-2.4-9.57"/>
        <path class="axe-42" d="M141.35,235.88s-2.32-1.19-7.89,1.06c0,0,6.32-.12,8.29.53,0,0,4.07-1.4,5.11.86,0,0,4.83,1.41,4,5.36s-6.24,4.25-7.19,4.92a2.36,2.36,0,0,0-1.09,1.63,11.17,11.17,0,0,1,4.23-1.49c2.44-.32,8.47-.62,8.18-5.06s-4.56-7-5.54-6.94,0-.19-1.14-.78A6.74,6.74,0,0,0,141.35,235.88Z"/>
        <path class="axe-43" d="M152,216.32s-1.29,2.21-2.1,2.46-1.17,5.38-4.11,7c0,0-.25,3.36-6.12,3.22,0,0-2.42,3.14-7.94,2.55a15.71,15.71,0,0,0,8-4.2s2,.47,4.2-2.76a10.8,10.8,0,0,0,4.76-6.36,27.58,27.58,0,0,0,3.59-2.5Z"/>
        <path class="axe-44" d="M161.12,231.63s1-4.21-3.84-3.22-6.79,4.78-6.2,6.44,5.94,5.42,5.75,8.05-.61,5.94-10,5.85c0,0-3.39.34-4.23,1.49a49.32,49.32,0,0,1,8,1.07c5.16,1,8.82-.85,10.13-3.38s1.93-4.68-.46-8-5-5.11-4.55-7.37S160,229.19,161.12,231.63Z"/>
        <path class="axe-45" d="M158.94,224s2.31,3.43-1.21,4.32a7.49,7.49,0,0,1-7.63-2.11c-1.48-1.63.57-7,1.2-7.7a6.77,6.77,0,0,0,.9-2.76s.71,3.36.67,3.6-1.52,1.64-1.16,3.5a4,4,0,0,0,4.06,3.56C158.06,226.25,158.78,226,158.94,224Z"/>
        <ellipse class="axe-46" cx="147.98" cy="230.74" rx="7.07" ry="2.34" transform="translate(-51.59 42.83) rotate(-14.05)"/>
        <ellipse class="axe-15" cx="148.12" cy="230.7" rx="6.27" ry="2.34" transform="translate(-51.58 42.86) rotate(-14.05)"/>
        <path class="axe-2" d="M86,236.07a27.26,27.26,0,0,0-.35,5.26c1.69,2.18,3.16,4.59,4.63,6.94A5.29,5.29,0,0,1,85.9,251c-2.53-2.5-6.47-8.51-6.47-8.51a14.93,14.93,0,0,1,1-5.32A15.44,15.44,0,0,1,86,236.07Z"/>
        <path class="axe-47" d="M83.25,240.34a27.42,27.42,0,0,1-5.43,1.86c-.17.25-.5,1.05-.67,1.31v0a22.73,22.73,0,0,0,5.58-1.68,72.54,72.54,0,0,0,7.4,10.06l.35-1.26A82.7,82.7,0,0,1,83.25,240.34Z"/>
        <path class="axe-3" d="M77.16,243.53a19.11,19.11,0,0,0,8.66,10.25A9.11,9.11,0,0,0,90.11,252l0-.12a72.54,72.54,0,0,1-7.4-10.06A22.73,22.73,0,0,1,77.16,243.53Z"/>
        <path class="axe-3" d="M66.27,243.17a19.23,19.23,0,0,0,6.12,12,9,9,0,0,0,4.57-.74l.06-.1a74.24,74.24,0,0,1-4.93-11.48A22.7,22.7,0,0,1,66.27,243.17Z"/>
        <path class="axe-48" d="M72.94,241.44a26.86,26.86,0,0,1-5.71.58c-.23.21-.73.92-1,1.13v0a22.7,22.7,0,0,0,5.82-.37A74.24,74.24,0,0,0,77,254.28l.63-1.15A81.36,81.36,0,0,1,72.94,241.44Z"/>
        <path class="axe-3" d="M76.81,187c-5.57,1.33-11,3.78-16.18,6.16A147.49,147.49,0,0,0,66,238.41,55.48,55.48,0,0,0,88.43,236c-4.75-16-9.12-32.58-11.51-49Z"/>
        <path class="axe-5" d="M85.64,226.38A315.13,315.13,0,0,1,76.92,187h-.11c-5.57,1.33-11,3.78-16.18,6.16A144.73,144.73,0,0,0,61,209.68l5.13-1.3s.82,6.1,1.75,10.11,2.57,10.19,2.57,10.19a40.34,40.34,0,0,0,5.83-.29c3-.4,9.41-2,9.41-2Z"/>
        <path class="axe-49" d="M96.63,231.77c-3.77-14.15-8.63-29.28-11.45-43.64-2.48-.45-7.48-1-8.26-1.13,2.39,16.45,6.76,33.05,11.51,49l.18-.05S94.09,233.41,96.63,231.77Z"/>
        <path class="axe-50" d="M76.92,187a315.13,315.13,0,0,0,8.72,39.38,49.06,49.06,0,0,0,4.55-1.9c1.15-.59,2.78-1.56,3.82-2.2-3.19-11.3-6.63-23-8.83-34.15C82.7,187.68,77.7,187.09,76.92,187Z"/>
        <path class="axe-7" d="M85.57,226.16a51.17,51.17,0,0,1-14.95,2.27,151,151,0,0,1-4.3-20.09l0-.29-.29,0a29.89,29.89,0,0,0-5.07,1.36c0,.19,0,.38,0,.57a30.31,30.31,0,0,1,4.85-1.34,152.59,152.59,0,0,0,4.33,20.09l0,.2h.21a48.81,48.81,0,0,0,5.07-.24,51.57,51.57,0,0,0,10.25-2.05l-.15-.53Z"/>
        <path class="axe-51" d="M78.74,218.21c-.1-.35-.19-.71-.28-1.07-2.42.55-4.86,1-7.29,1.41l.24,1A70.51,70.51,0,0,0,78.74,218.21Z"/>
        <path class="axe-51" d="M77.71,214.13c-.08-.36-.17-.71-.25-1.07l-7.11,1.49c.06.35.12.69.19,1C72.93,215.14,75.33,214.65,77.71,214.13Z"/>
        <path class="axe-51" d="M78.21,216.18l-.27-1.09c-2.39.52-4.8,1-7.21,1.46.07.35.14.69.22,1C73.37,217.2,75.8,216.73,78.21,216.18Z"/>
        <path class="axe-51" d="M69.75,210.49c0,.35.09.71.14,1.06,2.29-.55,4.61-1.05,6.93-1.51l-.21-1.1C74.31,209.37,72,209.89,69.75,210.49Z"/>
        <path class="axe-51" d="M77.25,212.09,77,211c-2.34.46-4.69,1-7,1.52,0,.35.11.7.17,1Z"/>
        <path class="axe-51" d="M73.27,224.46l-.48,0c.15.48.3,1,.46,1.45a71,71,0,0,0,7.37-1.29c-.15-.49-.3-1-.44-1.47A41.77,41.77,0,0,1,73.27,224.46Z"/>
        <path class="axe-51" d="M76.43,208c-.09-.52-.18-1-.26-1.54a68,68,0,0,0-6.65,1.66c0,.47.09.93.13,1.4C71.89,208.9,74.16,208.39,76.43,208Z"/>
        <path class="axe-51" d="M79.3,220.24l-.3-1.07a70.69,70.69,0,0,1-7.34,1.36c.09.34.17.68.26,1A53.06,53.06,0,0,0,79.3,220.24Z"/>
        <path class="axe-51" d="M79.89,222.25c-.11-.35-.21-.71-.31-1.06a54.61,54.61,0,0,1-7.38,1.32c.1.34.19.68.29,1A42.28,42.28,0,0,0,79.89,222.25Z"/>
        <path class="axe-52" d="M95.38,231.18a8.49,8.49,0,0,1-3.11,1.76c-4-12-7.41-24.57-10.65-37.56-1-.41-1.71-1-2.69-1.45-.44-2-.77-4-1-6a23.65,23.65,0,0,1,6.38.8C87.85,203,91.27,217.35,95.38,231.18Z"/>
        <path class="axe-7" d="M75.2,234.33c-.34,0-.68,0-1,0h-.12l0-.11a30.69,30.69,0,0,1-1.42-5.54l.35-.06a31.76,31.76,0,0,0,1.36,5.36,20.92,20.92,0,0,0,6.1-.66,41.73,41.73,0,0,1-.83-5.3H80a45.27,45.27,0,0,0,.86,5.41l0,.17-.17,0A22.82,22.82,0,0,1,75.2,234.33Z"/>
        <path class="axe-7" d="M63.81,208.75a25.59,25.59,0,0,1-.6-7.3v-.15l.13-.07a30.5,30.5,0,0,1,8.07-3.12,33.37,33.37,0,0,1-.74-9.2l.54,0a33.23,33.23,0,0,0,.79,9.31l0,.26-.26.06a29.79,29.79,0,0,0-8.05,3,25.32,25.32,0,0,0,.59,7Z"/>
        <path class="axe-7" d="M74.84,194l-.37-2.78a28.85,28.85,0,0,0-5.64,2,11.16,11.16,0,0,0,.21,2.51C70.56,195.17,73,194.41,74.84,194Z"/>
        <path class="axe-53" d="M74.52,193.77l-.28-2.07a21.38,21.38,0,0,0-4.2,1.48,8.38,8.38,0,0,0,.15,1.87C71.33,194.68,73.17,194.11,74.52,193.77Z"/>
        <path class="axe-7" d="M78.61,229.72c.07.74.16,1.5.3,2.23a18.16,18.16,0,0,1-4.09.43,9.26,9.26,0,0,1-.63-2.06A22.71,22.71,0,0,0,78.61,229.72Z"/>
        <path class="axe-53" d="M76.93,231.78c-.56.05-1.14.08-1.72.09a9.43,9.43,0,0,1-.42-1.34l1-.08a23.73,23.73,0,0,0,2.68-.42c0,.53.12,1,.2,1.49A15.63,15.63,0,0,1,76.93,231.78Z"/>
        <path class="axe-7" d="M64.81,233.94l-.06-.36,3.08-.6a94.53,94.53,0,0,1-3.18-15.07l-2.81.53-.07-.35,3.19-.61,0,.2a95.31,95.31,0,0,0,3.25,15.39l.06.19Z"/>
    </g>
</svg>