<svg xmlns="http://www.w3.org/2000/svg" 
    xmlns:xlink="http://www.w3.org/1999/xlink" viewBox="0 0 294.54 401.1">
    <title>Hero</title>
    <g id="gun" class="gun-1">
        <path class="gun-2" d="M97.49,176.2a111.53,111.53,0,0,0-26.7,1.61c4.3,4.4,9.16,8.88,13.87,12.83,0,0,19.51,2.42,28.29.22A98.41,98.41,0,0,0,97.49,176.2Z"/>
        <path class="gun-3" d="M84.84,144.15a95.66,95.66,0,0,0-14.08,33.63l0,0a112.38,112.38,0,0,1,26.36-1.63,141.76,141.76,0,0,0,15.76-34.49A86.23,86.23,0,0,0,84.84,144.15Z"/>
        <path class="gun-4" d="M113.2,141.71l-.29,0a141.76,141.76,0,0,1-15.76,34.49l.34,0A98.41,98.41,0,0,1,113,190.86l.24-.06a112.27,112.27,0,0,0,13.24-38.7C122.78,147.9,113.2,141.71,113.2,141.71Z"/>
        <path class="gun-2" d="M85.47,166.67l.42-.92a70.65,70.65,0,0,0,3.37-8.66A43.8,43.8,0,0,0,77.13,159l-.31-1.07A45.16,45.16,0,0,1,90,156h.75l-.21.72a65,65,0,0,1-3.23,8.63,71,71,0,0,1,15.82-.33l-.12,1.11a70.49,70.49,0,0,0-16.54.44Z"/>
        <path class="gun-21" d="M137.26,235.09a37.91,37.91,0,0,0-6-9.54,25.57,25.57,0,0,0-3.36,4.41A81.92,81.92,0,0,1,133,240.22,24.48,24.48,0,0,0,137.26,235.09Z"/>
        <path class="gun-5" d="M123,226.1c2.4.14,6.87,1.27,8.57,2.34a20.25,20.25,0,0,1,4.43,6.8,21.71,21.71,0,0,1-3.18,3.85,6.5,6.5,0,0,1-2.13-.5,28.46,28.46,0,0,0-2.77-4.61,32,32,0,0,0-6.85-3A21.07,21.07,0,0,1,123,226.1Z"/>
        <path class="gun-6" d="M131.2,225.59l0,0a37.37,37.37,0,0,1,6,9.47,24.17,24.17,0,0,1-4.23,5.1s0,0,0,0l1.57.46a21.52,21.52,0,0,0,4.27-4.86,23.13,23.13,0,0,0-6.22-9.76C132.26,225.76,131.63,225.74,131.2,225.59Z"/>
        <path class="gun-22" d="M183,253.45l34.73,18.23L215.53,273l-2-1.05-48.58-25.51-22.55-11.84a164.7,164.7,0,0,0-19.84,18l1,1.93-2.18,2.09-12.92-13.85,1.72-2,1.69.89a27.36,27.36,0,0,1,7.68-7.36l-5.6-14.65L97.32,207.8l3.6-1.4,1.32-15.69,46,24.16-5.92,3.21,3.84,12.32L162.44,239,174,230.46l-.44-2.31,21.94,11.52-13.91,8.7Zm-50.06-22.63,1.55-7.17-12.76-5.25-3.39,2.25L124.78,232A20.66,20.66,0,0,1,132.92,230.82Z"/>
        <polygon class="gun-21" points="98.44 198.76 191.55 246.4 178.76 231.8 101.16 191.04 98.44 198.76"/>
        <path class="gun-21" d="M231.28,251.92l-1.14,14.43-1.82,1.29-7.84,5.5-2.77-1.46L183,253.45l-1.43-5.08,13.91-8.7,5.7-3.57Z"/>
        <polygon class="gun-7" points="225.8 263.88 220.01 267.22 218.6 266.44 224.38 263.09 225.8 263.88"/>
        <polygon class="gun-7" points="222.1 261.82 216.33 265.17 214.91 264.38 220.69 261.03 222.1 261.82"/>
        <polygon class="gun-7" points="218.42 259.76 212.63 263.11 211.22 262.33 217.01 258.98 218.42 259.76"/>
        <polygon class="gun-7" points="214.73 257.71 208.95 261.06 207.53 260.27 213.31 256.92 214.73 257.71"/>
        <polygon class="gun-7" points="211.04 255.65 205.25 259 203.84 258.21 209.63 254.87 211.04 255.65"/>
        <polygon class="gun-7" points="207.35 253.6 201.57 256.95 200.16 256.16 205.93 252.81 207.35 253.6"/>
        <polygon class="gun-7" points="203.66 251.54 197.88 254.89 196.47 254.1 202.25 250.75 203.66 251.54"/>
        <polygon class="gun-7" points="199.97 249.49 194.19 252.83 192.78 252.05 198.56 248.7 199.97 249.49"/>
        <polygon class="gun-7" points="196.29 247.43 190.51 250.78 189.09 249.99 194.87 246.64 196.29 247.43"/>
        <polygon class="gun-8" points="205.07 272.64 200.87 277.68 198.44 276.4 203.25 271.68 205.07 272.64"/>
        <polygon class="gun-8" points="200.53 270.25 196.33 275.3 193.91 274.02 198.72 269.3 200.53 270.25"/>
        <polygon class="gun-8" points="196 267.87 191.8 272.92 189.36 271.64 194.18 266.92 196 267.87"/>
        <polygon class="gun-8" points="191.46 265.49 187.26 270.54 184.83 269.26 189.64 264.54 191.46 265.49"/>
        <polygon class="gun-8" points="186.93 263.11 182.73 268.16 180.29 266.88 185.1 262.15 186.93 263.11"/>
        <polygon class="gun-8" points="182.39 260.73 178.19 265.77 175.76 264.5 180.57 259.77 182.39 260.73"/>
        <polygon class="gun-8" points="177.86 258.35 173.66 263.39 171.22 262.11 176.03 257.39 177.86 258.35"/>
        <polygon class="gun-8" points="173.32 255.96 169.12 261.01 166.69 259.73 171.5 255.01 173.32 255.96"/>
        <polygon class="gun-9" points="203.25 271.68 198.44 276.4 196.33 275.3 200.53 270.25 198.72 269.3 193.91 274.02 191.8 272.92 196 267.87 194.18 266.92 189.36 271.64 187.26 270.54 191.46 265.49 189.64 264.54 184.83 269.26 182.73 268.16 186.93 263.11 185.1 262.15 180.29 266.88 178.19 265.77 182.39 260.73 180.57 259.77 175.76 264.5 173.66 263.39 177.86 258.35 176.03 257.39 171.22 262.11 169.12 261.01 173.32 255.96 171.5 255.01 166.69 259.73 164.13 258.39 164.94 246.41 213.52 271.92 203.51 279.06 200.87 277.68 205.07 272.64 203.25 271.68"/>
        <polygon class="gun-10" points="233.26 270.23 229.38 274.11 223.5 271.02 228.32 267.63 233.26 270.23"/>
        <polygon class="gun-21" points="173.52 228.15 173.96 230.46 162.44 238.95 146.16 230.4 142.32 218.08 148.24 214.87 154.39 211.54 172.1 220.84 173.52 228.15"/>
        <polygon class="gun-22" points="102.24 190.72 100.92 206.4 97.32 207.8 81.49 213.98 78.25 207.85 91.68 201.55 94.84 183.18 102.53 187.21 102.24 190.72"/>
        <polygon class="gun-11" points="154.56 212.26 143.53 218.33 169.58 232.54 173.23 230.13 171.73 221.28 154.56 212.26"/>
        <polygon class="gun-12" points="201.04 236.67 190.24 243.81 229.37 265.84 230.84 252.32 201.04 236.67"/>
        <path class="gun-8" d="M146,219.25a.81.81,0,1,1-.34-1.1A.81.81,0,0,1,146,219.25Z"/>
        <path class="gun-8" d="M171.53,230.15a.81.81,0,1,1-.34-1.09A.81.81,0,0,1,171.53,230.15Z"/>
        <path class="gun-8" d="M155.26,214.41a.82.82,0,0,1-1.09.34.81.81,0,0,1,.75-1.44A.82.82,0,0,1,155.26,214.41Z"/>
        <path class="gun-8" d="M148.91,229.44a.8.8,0,0,1-1.09.34.81.81,0,0,1-.34-1.09.81.81,0,1,1,1.43.75Z"/>
        <path class="gun-8" d="M170.8,222.57a.81.81,0,1,1-.34-1.09A.8.8,0,0,1,170.8,222.57Z"/>
        <path class="gun-8" d="M163,236.85a.81.81,0,1,1-.34-1.09A.82.82,0,0,1,163,236.85Z"/>
        <path class="gun-8" d="M185.47,250.43a.81.81,0,0,1-1.43-.75.81.81,0,0,1,1.09-.34A.8.8,0,0,1,185.47,250.43Z"/>
        <path class="gun-8" d="M221.38,270.21a.81.81,0,1,1-.34-1.1A.82.82,0,0,1,221.38,270.21Z"/>
        <path class="gun-8" d="M228.57,265.7a.8.8,0,0,1-1.09.34.81.81,0,1,1,1.09-.34Z"/>
        <path class="gun-8" d="M230.24,253.34a.81.81,0,0,1-1.09.34.81.81,0,1,1,1.09-.34Z"/>
        <path class="gun-8" d="M202.32,238.68a.81.81,0,0,1-1.09.34.81.81,0,1,1,1.09-.34Z"/>
        <polygon class="gun-13" points="227.53 258.64 197.22 242.73 200.1 240.19 228.15 254.92 227.53 258.64"/>
        <path class="gun-5" d="M114.15,240.24a30.32,30.32,0,0,0,2.32,5.21c2.72,1.24,5.33,2.8,7.92,4.3a5.68,5.68,0,0,1-2.82,4.84c-3.68-1.11-10.48-4.87-10.48-4.87a16.4,16.4,0,0,1-1.74-5.59A16.78,16.78,0,0,1,114.15,240.24Z"/>
        <path class="gun-3" d="M109.43,251.85a20.71,20.71,0,0,0,13.46,5.43,9.62,9.62,0,0,0,3.22-3.83l0-.13a79.42,79.42,0,0,1-12.15-5.89A24.78,24.78,0,0,1,109.43,251.85Z"/>
        <path class="gun-14" d="M113.66,245.72a29.36,29.36,0,0,1-4.26,4.51c0,.34.06,1.27,0,1.6v0a24.78,24.78,0,0,0,4.5-4.42,79.42,79.42,0,0,0,12.15,5.89l-.3-1.39A88.73,88.73,0,0,1,113.66,245.72Z"/>
        <path class="gun-5" d="M120.55,232.06a29.46,29.46,0,0,0,3.44,4.56c2.93.58,5.83,1.52,8.69,2.39a5.71,5.71,0,0,1-1.65,5.36c-3.84-.25-11.31-2.38-11.31-2.38a16.14,16.14,0,0,1-3-5.05A17.05,17.05,0,0,1,120.55,232.06Z"/>
        <path class="gun-3" d="M118.59,244.44a20.75,20.75,0,0,0,14.34,2.25,9.86,9.86,0,0,0,2.26-4.46l-.06-.12a79.6,79.6,0,0,1-13.16-3A24.84,24.84,0,0,1,118.59,244.44Z"/>
        <path class="gun-15" d="M121.31,237.51a29.61,29.61,0,0,1-3.12,5.37c0,.33.34,1.22.38,1.55h0a24.84,24.84,0,0,0,3.38-5.32,79.6,79.6,0,0,0,13.16,3l-.6-1.29A87,87,0,0,1,121.31,237.51Z"/>
        <path class="gun-5" d="M97,203.46a62.41,62.41,0,0,1-2.73-19.77,5.74,5.74,0,0,0-3.53-1.93,5.43,5.43,0,0,0-3.8.86,45.87,45.87,0,0,0,1.35,16.43C90.48,201.49,93.83,202.68,97,203.46Z"/>
        <path class="gun-3" d="M78.29,198.46c-3.61,5-6.29,10.85-8.87,16.48a159.44,159.44,0,0,0,36.43,33.21,60,60,0,0,0,16.65-17.82c-15.2-9.7-30.51-20.19-44.1-31.94Z"/>
        <path class="gun-16" d="M113.39,224.41a341.6,341.6,0,0,1-35-26l-.11.07c-3.61,5-6.29,10.85-8.87,16.48a160.42,160.42,0,0,0,12,13.29l3.27-4.69s5,4.4,8.58,7,9.31,6.51,9.31,6.51a43.18,43.18,0,0,0,4.56-4.37c2.2-2.46,6.28-8.3,6.28-8.3Z"/>
        <path class="gun-17" d="M126.18,221c-13.08-8.9-27.77-17.83-40.23-27.58-2.35,1.39-6.85,4.45-7.55,4.93,13.59,11.75,28.9,22.24,44.1,31.94a1.63,1.63,0,0,1,.11-.17S125.27,224.19,126.18,221Z"/>
        <path class="gun-18" d="M78.4,198.39a341.6,341.6,0,0,0,35,26,50.1,50.1,0,0,0,2.37-4.78c.53-1.29,1.17-3.23,1.57-4.49-10.6-7-21.67-14.08-31.38-21.68C83.6,194.85,79.1,197.91,78.4,198.39Z"/>
        <path class="gun-16" d="M117.65,215.35l-.52-.34a37.23,37.23,0,0,1-3.95,9.27l.5.32h0A37.79,37.79,0,0,0,117.65,215.35Z"/>
        <path class="gun-2" d="M113.18,224.29a55.58,55.58,0,0,1-10.62,12.43,162.75,162.75,0,0,1-17.73-13.39l-.24-.21-.19.24a34.07,34.07,0,0,0-3.19,4.7l.44.44a32.87,32.87,0,0,1,3-4.52,165.36,165.36,0,0,0,17.76,13.36l.18.12.17-.15a50.13,50.13,0,0,0,4-3.78,55.37,55.37,0,0,0,6.93-8.93l-.5-.32Z"/>
        <path class="gun-2" d="M102,222.62l-1-.68c-1.59,2.16-3.25,4.27-5,6.31.31.22.61.45.92.66A78.39,78.39,0,0,0,102,222.62Z"/>
        <path class="gun-2" d="M98.24,220l-1-.7-4.76,6.25.89.71C95,224.21,96.66,222.11,98.24,220Z"/>
        <path class="gun-2" d="M100.1,221.33l-1-.7c-1.59,2.12-3.21,4.23-4.87,6.3l.91.69C96.86,225.59,98.51,223.48,100.1,221.33Z"/>
        <path class="gun-2" d="M89.15,222.66l.86.77c1.49-2.06,3-4.12,4.61-6.14l-1-.74C92.09,218.52,90.57,220.57,89.15,222.66Z"/>
        <path class="gun-2" d="M96.42,218.67l-1-.72c-1.59,2-3.15,4.11-4.64,6.2l.87.73Z"/>
        <path class="gun-2" d="M101.92,231.6l-.36.37c.46.29.93.59,1.4.87a79.2,79.2,0,0,0,5.12-6.28l-1.41-.88A46,46,0,0,1,101.92,231.6Z"/>
        <path class="gun-2" d="M92.83,215.87l-1.31-1.07c-1.53,2-3.13,4.23-4.26,6.06.36.36.74.71,1.11,1.06Q90.49,218.82,92.83,215.87Z"/>
        <path class="gun-2" d="M103.86,223.88l-1-.67a78.85,78.85,0,0,1-5,6.32l.94.64A58.14,58.14,0,0,0,103.86,223.88Z"/>
        <path class="gun-2" d="M105.76,225.11l-1-.65a58.25,58.25,0,0,1-5.1,6.3l1,.63A44.86,44.86,0,0,0,105.76,225.11Z"/>
        <path class="gun-9" d="M94.77,199a58.29,58.29,0,0,1-1.6-15.22,3.38,3.38,0,0,0-3.23-.3,40.71,40.71,0,0,0,.42,12.17S93.38,198.09,94.77,199Z"/>
        <path class="gun-5" d="M88.47,185.94a12.62,12.62,0,0,1,2.45.57,10.09,10.09,0,0,1,1.55.71,8.33,8.33,0,0,0-1.37-1.06,7.65,7.65,0,0,0-2.49-1Z"/>
        <path class="gun-5" d="M88.4,189.11a11.82,11.82,0,0,1,2.52.23,8.44,8.44,0,0,1,1.63.51A7.72,7.72,0,0,0,91,189a7.15,7.15,0,0,0-2.63-.64Z"/>
        <path class="gun-5" d="M88.59,192.75a13,13,0,0,1,2.72.08,10.26,10.26,0,0,1,1.79.41,9,9,0,0,0-1.69-.8,8.12,8.12,0,0,0-2.86-.48Z"/>
        <path class="gun-19" d="M124.75,221.44a9.39,9.39,0,0,1-1.29,3.65c-11.76-7-23.45-14.85-35.29-23.18-1.09.36-2.14.37-3.23.72q-2.66-2-5.1-4.22a25.53,25.53,0,0,1,5.79-3.86C98.61,203.69,111.6,213.05,124.75,221.44Z"/>
        <path class="gun-2" d="M112,236.89a19,19,0,0,1-2.33,2.1l-.1.08-.11-.06a34.34,34.34,0,0,1-5.08-3.52l.26-.31a33.59,33.59,0,0,0,4.9,3.42,22.94,22.94,0,0,0,4.51-4.85,44.28,44.28,0,0,1-4.43-3.75l.29-.27a48.43,48.43,0,0,0,4.53,3.82l.16.12-.11.15A25.69,25.69,0,0,1,112,236.89Z"/>
        <path class="gun-2" d="M83.06,225.46a27.87,27.87,0,0,1-5.66-5.56l-.1-.12.06-.15a32.77,32.77,0,0,1,4.38-8.26,36.11,36.11,0,0,1-7.11-7l.47-.35a36.09,36.09,0,0,0,7.24,7l.23.18-.17.23A32.35,32.35,0,0,0,78,219.67,27.37,27.37,0,0,0,83.41,225Z"/>
        <path class="gun-2" d="M81.61,205.54l-2.27-2a30.88,30.88,0,0,0-3.2,5.62,12.92,12.92,0,0,0,1.94,1.9C79,209.56,80.46,207.19,81.61,205.54Z"/>
        <path class="gun-20" d="M81.22,205.62l-1.69-1.5a22.56,22.56,0,0,0-2.39,4.19,9.28,9.28,0,0,0,1.45,1.42C79.26,208.62,80.36,206.85,81.22,205.62Z"/>
        <path class="gun-2" d="M110,232.12c.58.56,1.2,1.11,1.83,1.61a20,20,0,0,1-3,3.25,10.47,10.47,0,0,1-2-1.24A24.33,24.33,0,0,0,110,232.12Z"/>
        <path class="gun-20" d="M110.08,235a18.17,18.17,0,0,1-1.34,1.29,9.55,9.55,0,0,1-1.29-.8c.25-.24.5-.49.74-.75a23.57,23.57,0,0,0,1.89-2.24c.42.4.83.76,1.22,1.09A17.56,17.56,0,0,1,110.08,235Z"/>
        <path class="gun-2" d="M101.71,245.33l-.31-.24,2.09-2.68a103,103,0,0,1-13.26-10.06l-1.92,2.42-.31-.25,2.19-2.75.15.14a101.82,101.82,0,0,0,13.55,10.29l.18.12Z"/>
    </g>
</svg>