<svg xmlns="http://www.w3.org/2000/svg" 
    xmlns:xlink="http://www.w3.org/1999/xlink" viewBox="0 0 294.54 401.1">
    <title>Hero</title>
    <g id="chuck" class="chuck-1">
        <path class="chuck-2" d="M99.89,189.27q.3,3,.58,6a31.52,31.52,0,0,0,18.71,2c5-11.46,7.47-23.78,6.09-36.21C113.41,167,98.65,176.12,99.89,189.27Z"/>
        <path class="chuck-3" d="M143.94,152.27c.7-.57,1.56-.68,1.91-.24s.06,1.25-.64,1.82-1.57.67-1.92.24S143.23,152.84,143.94,152.27Z"/>
        <path class="chuck-4" d="M124.17,149.85a146.61,146.61,0,0,0-24.74,8.59c-1.42,14.81-.88,31.48,2.67,45.93l.09,0c8.45-1.17,13.91-2.47,24.21-3.75A190.43,190.43,0,0,1,124.17,149.85Z"/>
        <path class="chuck-5" d="M97.58,176A111.41,111.41,0,0,0,71,177.6c4.29,4.39,9.13,8.85,13.83,12.79,0,0,19.45,2.42,28.2.22A98.28,98.28,0,0,0,97.58,176Z"/>
        <path class="chuck-4" d="M85,144a95.36,95.36,0,0,0-14,33.53l0,0A111.71,111.71,0,0,1,97.24,176,140.79,140.79,0,0,0,113,141.58,86,86,0,0,0,85,144Z"/>
        <path class="chuck-6" d="M113.24,141.6l-.28,0A140.79,140.79,0,0,1,97.24,176l.34,0A98.28,98.28,0,0,1,113,190.61l.25-.06A111.84,111.84,0,0,0,126.44,152C122.8,147.78,113.24,141.6,113.24,141.6Z"/>
        <path class="chuck-5" d="M85.6,166.49l.41-.91a71.12,71.12,0,0,0,3.37-8.64,43.59,43.59,0,0,0-12.1,1.9L77,157.77a44.91,44.91,0,0,1,13.15-2h.74l-.21.72a66,66,0,0,1-3.22,8.6,70.55,70.55,0,0,1,15.77-.32l-.11,1.1a70.74,70.74,0,0,0-16.5.45Z"/>
        <path class="chuck-7" d="M136.26,150.82l0,0a34.82,34.82,0,0,1,9.55-4.05,22.65,22.65,0,0,1,4,4.63h0c.24-.51.42-.86.66-1.37a19.81,19.81,0,0,0-3.79-4.62,21.4,21.4,0,0,0-9.85,4.2C136.57,149.88,136.46,150.45,136.26,150.82Z"/>
        <path class="chuck-8" d="M145.83,146.79a34.82,34.82,0,0,0-9.55,4.05,24,24,0,0,0,3.5,3.7,74.62,74.62,0,0,1,10.07-3.12A22.65,22.65,0,0,0,145.83,146.79Z"/>
        <path class="chuck-9" d="M135.55,158.35a22.45,22.45,0,0,1,3.4-7.41,18.7,18.7,0,0,1,6.83-3,20,20,0,0,1,3,3.47,6,6,0,0,1-.78,1.85,26.47,26.47,0,0,0-4.59,1.82,29,29,0,0,0-3.77,5.76A19.63,19.63,0,0,1,135.55,158.35Z"/>
        <path class="chuck-9" d="M112.79,180.57a57.69,57.69,0,0,1-18.45-.49A5.32,5.32,0,0,0,92,183a5,5,0,0,0,.22,3.6,42.42,42.42,0,0,0,15.19,1.24C110,186.23,111.6,183.35,112.79,180.57Z"/>
        <path class="chuck-4" d="M126.74,163.53l-.39.42a34,34,0,0,1,7.86,5l.38-.4h0A34.29,34.29,0,0,0,126.74,163.53Z"/>
        <path class="chuck-10" d="M108.38,181.94a53.51,53.51,0,0,1-14.13-.84,3.16,3.16,0,0,0-.76,2.91,37.61,37.61,0,0,0,11.16,1.45S107.34,183.07,108.38,181.94Z"/>
        <path class="chuck-4" d="M134.37,168.78a317.88,317.88,0,0,1-29,28l.05.1c4,4.05,9,7.38,13.71,10.58A149.51,149.51,0,0,0,133,198.55l-3.79-3.69S134,191,137,188.08s7.34-7.51,7.34-7.51a40.33,40.33,0,0,0-3.29-4.82c-1.92-2.38-6.63-7-6.63-7Z"/>
        <path class="chuck-11" d="M133.22,156.6c-10.09,10.59-20.45,22.65-31.22,32.56.91,2.34,3,6.91,3.35,7.63,12.77-10.63,24.65-23,35.79-35.44l-.14-.12S136,157.9,133.22,156.6Z"/>
        <path class="chuck-12" d="M105.35,196.79a317.88,317.88,0,0,0,29-28,47.16,47.16,0,0,0-4-2.89c-1.11-.67-2.78-1.55-3.87-2.11-8,8.63-16.11,17.66-24.5,25.38C102.91,191.5,105,196.07,105.35,196.79Z"/>
        <path class="chuck-13" d="M133.37,158a8.68,8.68,0,0,1,3.13,1.73c-8.14,9.67-17.08,19.16-26.46,28.71.16,1,0,2,.17,3a60.71,60.71,0,0,1-4.62,4,23.44,23.44,0,0,1-2.65-5.86C113.24,179.14,123.73,168.69,133.37,158Z"/>
        <path class="chuck-14" d="M83.35,124.76l.38.27a1.1,1.1,0,0,1,.33,1.48c-.27.42-.48.88-.72,1.31a1.1,1.1,0,0,1-1.42.53l-.43-.18a1.09,1.09,0,0,1-.51-1.51c.27-.5.52-1,.83-1.51A1.09,1.09,0,0,1,83.35,124.76Zm-.32.69a.62.62,0,0,0-.84.22l-.56,1a.58.58,0,0,0,.25.81l.24.11a.63.63,0,0,0,.79-.27l.51-1a.58.58,0,0,0-.18-.8Z"/>
        <path class="chuck-15" d="M81.81,125.24c-.27.44-.5.91-.75,1.36a1.12,1.12,0,0,0,.33,1.45l.14.08a1.11,1.11,0,0,1-.35-1.46c.25-.45.48-.92.75-1.37a1.13,1.13,0,0,1,1.41-.49l-.14-.07A1.11,1.11,0,0,0,81.81,125.24Z"/>
        <g class="chuck-16">
            <path class="chuck-17" d="M82.47,127.67a.61.61,0,0,1-.35,0l-.24-.11a.58.58,0,0,1-.25-.81l.56-1a.7.7,0,0,1,.36-.28.63.63,0,0,0-.48.31l-.56,1a.58.58,0,0,0,.26.81l.23.11A.59.59,0,0,0,82.47,127.67Z"/>
        </g>
        <g class="chuck-16">
            <path class="chuck-17" d="M82.81,124.58a1,1,0,0,1,.54.18l.38.27a1.1,1.1,0,0,1,.33,1.48c-.27.42-.48.88-.72,1.31a1.1,1.1,0,0,1-1.18.6.88.88,0,0,0,.37-.11,2,2,0,0,0,.7-.81c.46-.93.93-1.29.65-2A1.73,1.73,0,0,0,82.81,124.58Z"/>
        </g>
        <path class="chuck-18" d="M83.83,125.11l-.42.64h0a.48.48,0,0,1,.08.16h0s.08-.55.43-.72A.76.76,0,0,0,83.83,125.11Z"/>
        <path class="chuck-18" d="M82,128.4l.31-.71h0l.18,0h0a1.06,1.06,0,0,0-.36.76Z"/>
        <path class="chuck-15" d="M83.5,126a.57.57,0,0,1-.08.42l-.51,1a.63.63,0,0,1-.37.29.67.67,0,0,1-.46,0l.1,0a.76.76,0,0,0,.83-.41l.44-.82a.72.72,0,0,0-.09-.92l-.07-.06A.64.64,0,0,1,83.5,126Z"/>
        <path class="chuck-14" d="M86.85,121l.29.37a1.13,1.13,0,0,1-.1,1.52,11.56,11.56,0,0,0-1.05,1,1.15,1.15,0,0,1-1.52.11l-.37-.29a1.08,1.08,0,0,1-.06-1.59A12.77,12.77,0,0,1,85.26,121,1.08,1.08,0,0,1,86.85,121Zm-.51.57a.59.59,0,0,0-.85,0,9.51,9.51,0,0,0-.84.84.6.6,0,0,0,0,.85l.19.16a.61.61,0,0,0,.84,0,7,7,0,0,1,.77-.77.62.62,0,0,0,0-.84Z"/>
        <path class="chuck-15" d="M85.24,121a10.39,10.39,0,0,0-1.1,1.1,1.08,1.08,0,0,0-.09,1.47l.1.11a1.09,1.09,0,0,1,.08-1.48,12.81,12.81,0,0,1,1.1-1.11,1.09,1.09,0,0,1,1.49-.08l-.11-.11A1.08,1.08,0,0,0,85.24,121Z"/>
        <g class="chuck-16">
            <path class="chuck-17" d="M85.2,123.56a.65.65,0,0,1-.34-.15l-.19-.16a.6.6,0,0,1,0-.85,9.51,9.51,0,0,1,.84-.84.66.66,0,0,1,.41-.18.66.66,0,0,0-.54.17,9.5,9.5,0,0,0-.83.85.59.59,0,0,0,0,.85l.2.17A.65.65,0,0,0,85.2,123.56Z"/>
        </g>
        <g class="chuck-16">
            <path class="chuck-17" d="M86.37,120.68a1.1,1.1,0,0,1,.48.32l.29.37a1.13,1.13,0,0,1-.1,1.52,11.56,11.56,0,0,0-1.05,1,1.15,1.15,0,0,1-1.31.24s.59.17,1.28-.58,1.25-1,1.18-1.73A1.73,1.73,0,0,0,86.37,120.68Z"/>
        </g>
        <path class="chuck-18" d="M87.22,121.47a5.57,5.57,0,0,0-.59.5h0a1.1,1.1,0,0,1,0,.18,1.87,1.87,0,0,1,.16-.27.81.81,0,0,1,.47-.3Z"/>
        <path class="chuck-18" d="M84.58,124.12a6.66,6.66,0,0,1,.49-.59h0a.63.63,0,0,0,.19,0s-.53.21-.57.62A.24.24,0,0,1,84.58,124.12Z"/>
        <path class="chuck-15" d="M86.65,122.2a.62.62,0,0,1-.18.4,7,7,0,0,0-.77.77.61.61,0,0,1-.43.19.67.67,0,0,1-.46-.09l.08,0a.73.73,0,0,0,.92-.16,8.22,8.22,0,0,1,.66-.66.74.74,0,0,0,.15-.92l-.05-.08A.67.67,0,0,1,86.65,122.2Z"/>
        <path class="chuck-19" d="M85,123a.4.4,0,0,1,0,.55,16.79,16.79,0,0,0-1.6,2.14.4.4,0,0,1-.54.13.38.38,0,0,1-.11-.54,15.9,15.9,0,0,1,1.67-2.24A.4.4,0,0,1,85,123Z"/>
        <path class="chuck-15" d="M82.79,125.69a.51.51,0,0,1,0-.36s.34-.58.71-1l.72-.93a20.79,20.79,0,0,0-1.34,2A.63.63,0,0,0,82.79,125.69Z"/>
        <path class="chuck-18" d="M84.81,123.19c.26.26-.6,1-1.15,1.84s-.76.81-.76.81a.4.4,0,0,0,.54-.13,16.79,16.79,0,0,1,1.6-2.14.4.4,0,0,0,0-.55.4.4,0,0,0-.56,0c-.1.11-.2.21-.29.32S84.53,122.91,84.81,123.19Z"/>
        <path class="chuck-19" d="M86.12,121.91s0,0,.19,0a3.14,3.14,0,0,0,.76-.53l.52-.41-.32-.42c-.35.31-.72.6-1,.92a.68.68,0,0,0-.17.3.5.5,0,0,1,.1-.35c0-.06.59-.5,1.09-.9v0c-.36.29-.74.57-1.08.88A.4.4,0,0,0,86.12,121.91Z"/>
        <path class="chuck-15" d="M86.15,121.39a.5.5,0,0,0-.1.35.68.68,0,0,1,.17-.3c.33-.32.7-.61,1-.92l0,0C86.74,120.89,86.18,121.33,86.15,121.39Z"/>
        <path class="chuck-19" d="M87.07,121.35a3.14,3.14,0,0,1-.76.53c-.14.06-.19,0-.19,0a.37.37,0,0,0,.54,0c.33-.3.7-.56,1-.84l-.11-.15Z"/>
        <path class="chuck-18" d="M87.07,121.35a3.14,3.14,0,0,1-.76.53c-.14.06-.19,0-.19,0a.37.37,0,0,0,.54,0c.33-.3.7-.56,1-.84l-.11-.15Z"/>
        <path class="chuck-19" d="M82,127.43c-.24-.19-.43.12-.51.28l0,.09-.38.89h0l.4-.93-.37,1,.5.19C81.94,128.2,82.24,127.61,82,127.43Z"/>
        <path class="chuck-15" d="M81.1,128.69l0,0,.37-1Z"/>
        <path class="chuck-18" d="M81.45,127.8l0-.09A.41.41,0,0,1,81.45,127.8Z"/>
        <path class="chuck-19" d="M82.15,127.21a.37.37,0,0,0-.52.19l-.14.31c.08-.16.27-.47.51-.28s-.06.77-.37,1.47l.17.06.53-1.23A.4.4,0,0,0,82.15,127.21Z"/>
        <path class="chuck-18" d="M82.15,127.21a.37.37,0,0,0-.52.19l-.14.31c.08-.16.27-.47.51-.28s-.06.77-.37,1.47l.17.06.53-1.23A.4.4,0,0,0,82.15,127.21Z"/>
        <path class="chuck-14" d="M91.2,118.29l.2.43a1.12,1.12,0,0,1-.49,1.45c-.44.23-.87.5-1.3.74a1.1,1.1,0,0,1-1.49-.29l-.28-.38a1.1,1.1,0,0,1,.36-1.55c.5-.29,1-.59,1.49-.86A1.09,1.09,0,0,1,91.2,118.29Zm-.63.43a.61.61,0,0,0-.82-.24l-1,.59a.59.59,0,0,0-.2.83l.14.21a.6.6,0,0,0,.81.18l1-.55a.6.6,0,0,0,.26-.79Z"/>
        <path class="chuck-15" d="M89.64,117.91l-1.34.77a1.12,1.12,0,0,0-.47,1.4l.07.14a1.13,1.13,0,0,1,.47-1.42c.44-.26.89-.53,1.34-.77a1.13,1.13,0,0,1,1.46.3l-.08-.13A1.14,1.14,0,0,0,89.64,117.91Z"/>
        <g class="chuck-16">
            <path class="chuck-17" d="M89,120.34a.57.57,0,0,1-.28-.23l-.14-.21a.59.59,0,0,1,.2-.83l1-.59a.57.57,0,0,1,.44,0,.59.59,0,0,0-.56,0l-1,.6a.59.59,0,0,0-.2.83l.14.22A.56.56,0,0,0,89,120.34Z"/>
        </g>
        <g class="chuck-16">
            <path class="chuck-17" d="M90.83,117.86a1,1,0,0,1,.37.43l.2.43a1.12,1.12,0,0,1-.49,1.45c-.44.23-.87.5-1.3.74a1.09,1.09,0,0,1-1.33-.11s.53.34,1.4-.22,1.48-.63,1.6-1.37A1.74,1.74,0,0,0,90.83,117.86Z"/>
        </g>
        <path class="chuck-18" d="M91.45,118.84l-.7.34h0a1,1,0,0,1,0,.18h0a1.07,1.07,0,0,1,.75-.4Z"/>
        <path class="chuck-18" d="M88.2,120.72l.64-.44h0a.6.6,0,0,0,.16.08h0a1.05,1.05,0,0,0-.71.45Z"/>
        <path class="chuck-15" d="M90.71,119.41a.56.56,0,0,1-.28.33l-1,.55a.71.71,0,0,1-.47.07.72.72,0,0,1-.41-.2l.07.07a.75.75,0,0,0,.92.09l.81-.48a.73.73,0,0,0,.4-.83l0-.1A.59.59,0,0,1,90.71,119.41Z"/>
        <path class="chuck-14" d="M96.07,116.69l.1.46a1.12,1.12,0,0,1-.8,1.3c-.49.13-1,.27-1.45.44a1.14,1.14,0,0,1-1.39-.65l-.17-.44a1.08,1.08,0,0,1,.71-1.41c.54-.19,1.08-.34,1.63-.48A1.07,1.07,0,0,1,96.07,116.69Zm-.71.27a.59.59,0,0,0-.74-.41,11.1,11.1,0,0,0-1.12.34.59.59,0,0,0-.4.75l.09.24a.6.6,0,0,0,.75.37,9.93,9.93,0,0,1,1.06-.32.6.6,0,0,0,.42-.72Z"/>
        <path class="chuck-15" d="M94.64,116c-.49.13-1,.27-1.47.44a1.1,1.1,0,0,0-.79,1.24l0,.15a1.08,1.08,0,0,1,.79-1.25c.48-.18,1-.32,1.47-.45a1.11,1.11,0,0,1,1.35.62l0-.15A1.1,1.1,0,0,0,94.64,116Z"/>
        <g class="chuck-16">
            <path class="chuck-17" d="M93.41,118.17a.58.58,0,0,1-.22-.29l-.09-.24a.59.59,0,0,1,.4-.75,11.1,11.1,0,0,1,1.12-.34.65.65,0,0,1,.44,0,.62.62,0,0,0-.55-.1,11.28,11.28,0,0,0-1.13.34.6.6,0,0,0-.39.75l.09.24A.57.57,0,0,0,93.41,118.17Z"/>
        </g>
        <g class="chuck-16">
            <path class="chuck-17" d="M95.8,116.19a.91.91,0,0,1,.27.5l.1.46a1.12,1.12,0,0,1-.8,1.3c-.49.13-1,.27-1.45.44a1.15,1.15,0,0,1-1.27-.43s.43.45,1.41.12,1.6-.29,1.88-1A1.7,1.7,0,0,0,95.8,116.19Z"/>
        </g>
        <path class="chuck-18" d="M96.19,117.28a6.91,6.91,0,0,0-.76.17h0a.49.49,0,0,1-.06.17,1,1,0,0,1,.82-.22A.24.24,0,0,0,96.19,117.28Z"/>
        <path class="chuck-18" d="M92.59,118.36a6.24,6.24,0,0,1,.72-.27h0l.15.11a1,1,0,0,0-.81.26Z"/>
        <path class="chuck-15" d="M95.35,117.67a.62.62,0,0,1-.35.26,9.93,9.93,0,0,0-1.06.32.59.59,0,0,1-.47,0,.66.66,0,0,1-.36-.3l0,.09a.72.72,0,0,0,.88.3c.3-.1.6-.18.91-.26a.76.76,0,0,0,.57-.75v-.1A.72.72,0,0,1,95.35,117.67Z"/>
        <path class="chuck-19" d="M93.51,117.61a.39.39,0,0,1-.24.49,20.86,20.86,0,0,0-2.47,1.06.4.4,0,0,1-.53-.17.38.38,0,0,1,.18-.52,20.77,20.77,0,0,1,2.56-1.1A.39.39,0,0,1,93.51,117.61Z"/>
        <path class="chuck-15" d="M90.25,118.81a.53.53,0,0,1,.18-.31c.06,0,.59-.32,1.14-.54l1.09-.44a24.1,24.1,0,0,0-2.17,1A.61.61,0,0,0,90.25,118.81Z"/>
        <path class="chuck-18" d="M93.25,117.66c.1.36-1,.58-1.92,1s-1.06.3-1.06.3a.4.4,0,0,0,.53.17,20.86,20.86,0,0,1,2.47-1.06.39.39,0,0,0,.24-.49.39.39,0,0,0-.5-.24l-.41.14S93.14,117.28,93.25,117.66Z"/>
        <path class="chuck-19" d="M95,117.16s0,0,.18.07a3.67,3.67,0,0,0,.92-.13l.65-.13-.09-.52c-.45.12-.91.21-1.36.34A.67.67,0,0,0,95,117a.5.5,0,0,1,.25-.27c.06,0,.76-.17,1.38-.3v0c-.46.1-.92.18-1.36.29A.39.39,0,0,0,95,117.16Z"/>
        <path class="chuck-15" d="M95.28,116.71A.5.5,0,0,0,95,117a.67.67,0,0,1,.28-.19c.45-.13.91-.22,1.36-.34v0C96,116.54,95.34,116.68,95.28,116.71Z"/>
        <path class="chuck-19" d="M96.11,117.1a3.67,3.67,0,0,1-.92.13c-.15,0-.18-.07-.18-.07a.39.39,0,0,0,.47.28c.44-.12.88-.19,1.32-.29l0-.18Z"/>
        <path class="chuck-18" d="M96.11,117.1a3.67,3.67,0,0,1-.92.13c-.15,0-.18-.07-.18-.07a.39.39,0,0,0,.47.28c.44-.12.88-.19,1.32-.29l0-.18Z"/>
        <path class="chuck-19" d="M88.67,119.88c-.1-.28-.42-.12-.58,0l-.08.06a8.54,8.54,0,0,0-.78.56v0a6.2,6.2,0,0,1,.58-.42l.25-.17a9.5,9.5,0,0,0-.8.62l.32.42C88.2,120.49,88.78,120.17,88.67,119.88Z"/>
        <path class="chuck-15" d="M87.24,120.49l0,0a9.5,9.5,0,0,1,.8-.62l-.25.17A6.2,6.2,0,0,0,87.24,120.49Z"/>
        <path class="chuck-18" d="M88,119.91l.08-.06Z"/>
        <path class="chuck-19" d="M88.91,119.77a.38.38,0,0,0-.54-.11l-.28.19c.16-.09.48-.25.58,0s-.47.61-1.08,1.06l.11.15c.34-.29.73-.52,1.1-.78A.41.41,0,0,0,88.91,119.77Z"/>
        <path class="chuck-18" d="M88.91,119.77a.38.38,0,0,0-.54-.11l-.28.19c.16-.09.48-.25.58,0s-.47.61-1.08,1.06l.11.15c.34-.29.73-.52,1.1-.78A.41.41,0,0,0,88.91,119.77Z"/>
        <path class="chuck-14" d="M101.17,116.13v.47a1.1,1.1,0,0,1-1,1.11c-.51,0-1,.09-1.52.13a1.1,1.1,0,0,1-1.22-.92l-.07-.46a1.1,1.1,0,0,1,1-1.24c.56,0,1.12-.11,1.68-.14A1.11,1.11,0,0,1,101.17,116.13Zm-.75.13a.6.6,0,0,0-.65-.56l-1.16.1a.58.58,0,0,0-.54.66l0,.25a.61.61,0,0,0,.66.51l1.1-.1a.6.6,0,0,0,.57-.61Z"/>
        <path class="chuck-15" d="M99.91,115.13l-1.52.13a1.12,1.12,0,0,0-1,1v.16a1.13,1.13,0,0,1,1-1.07l1.53-.13a1.13,1.13,0,0,1,1.19.88l0-.15A1.13,1.13,0,0,0,99.91,115.13Z"/>
        <g class="chuck-16">
            <path class="chuck-17" d="M98.26,117a.52.52,0,0,1-.16-.32l0-.25a.58.58,0,0,1,.54-.66l1.16-.1a.6.6,0,0,1,.43.13.62.62,0,0,0-.52-.22l-1.17.11a.59.59,0,0,0-.54.66l0,.25A.58.58,0,0,0,98.26,117Z"/>
        </g>
        <g class="chuck-16">
            <path class="chuck-17" d="M101,115.58a1,1,0,0,1,.17.55v.47a1.1,1.1,0,0,1-1,1.11c-.51,0-1,.09-1.52.13a1.1,1.1,0,0,1-1.15-.68s.32.54,1.36.41,1.63,0,2-.57A1.76,1.76,0,0,0,101,115.58Z"/>
        </g>
        <path class="chuck-18" d="M101.16,116.73l-.77,0h0a.86.86,0,0,1-.1.16h0a1.08,1.08,0,0,1,.85-.06A.5.5,0,0,0,101.16,116.73Z"/>
        <path class="chuck-18" d="M97.41,117.05l.77-.11h0a.49.49,0,0,0,.12.13h0a1.1,1.1,0,0,0-.85.1A.56.56,0,0,1,97.41,117.05Z"/>
        <path class="chuck-15" d="M100.26,116.94a.58.58,0,0,1-.4.18l-1.1.1a.64.64,0,0,1-.45-.14.65.65,0,0,1-.29-.36l0,.09a.75.75,0,0,0,.8.48l.94-.08a.73.73,0,0,0,.71-.6v-.1A.61.61,0,0,1,100.26,116.94Z"/>
        <path class="chuck-14" d="M106.27,116.59l-.09.47a1.13,1.13,0,0,1-1.25.88,15.16,15.16,0,0,0-1.51-.17,1.13,1.13,0,0,1-1-1.15l0-.47a1.09,1.09,0,0,1,1.21-1c.57,0,1.13.11,1.69.2A1.07,1.07,0,0,1,106.27,116.59Zm-.76,0a.59.59,0,0,0-.52-.67,11.43,11.43,0,0,0-1.16-.13.59.59,0,0,0-.66.53l0,.25a.61.61,0,0,0,.54.64c.37,0,.74.07,1.1.12a.6.6,0,0,0,.68-.49Z"/>
        <path class="chuck-15" d="M105.23,115.37c-.5-.08-1-.14-1.51-.17a1.1,1.1,0,0,0-1.22.82l0,.15a1.12,1.12,0,0,1,1.23-.84c.51,0,1,.1,1.52.18a1.09,1.09,0,0,1,1,1.1v-.16A1.1,1.1,0,0,0,105.23,115.37Z"/>
        <g class="chuck-16">
            <path class="chuck-17" d="M103.24,116.91a.57.57,0,0,1-.09-.36l0-.25a.59.59,0,0,1,.66-.53,11.43,11.43,0,0,1,1.16.13.63.63,0,0,1,.39.21.64.64,0,0,0-.47-.31,11.12,11.12,0,0,0-1.16-.13.59.59,0,0,0-.66.53l0,.25A.63.63,0,0,0,103.24,116.91Z"/>
        </g>
        <g class="chuck-16">
            <path class="chuck-17" d="M106.22,116a1,1,0,0,1,0,.57l-.09.47a1.13,1.13,0,0,1-1.25.88,15.16,15.16,0,0,0-1.51-.17,1.15,1.15,0,0,1-1-.9s.21.58,1.26.67,1.58.37,2.12-.16A1.72,1.72,0,0,0,106.22,116Z"/>
        </g>
        <path class="chuck-18" d="M106.15,117.18c-.25-.05-.51-.11-.76-.14h0a.41.41,0,0,1-.12.14,1,1,0,0,1,.84.12A.61.61,0,0,0,106.15,117.18Z"/>
        <path class="chuck-18" d="M102.4,116.75a6.79,6.79,0,0,1,.78,0h0a.51.51,0,0,0,.09.16,1,1,0,0,0-.85-.08S102.41,116.79,102.4,116.75Z"/>
        <path class="chuck-15" d="M105.22,117.21a.58.58,0,0,1-.43.1c-.36,0-.73-.1-1.1-.12a.61.61,0,0,1-.41-.23.63.63,0,0,1-.21-.42v.1a.73.73,0,0,0,.69.63c.32,0,.63.06.94.11a.75.75,0,0,0,.82-.46l0-.09A.65.65,0,0,1,105.22,117.21Z"/>
        <path class="chuck-19" d="M103.55,116.43a.39.39,0,0,1-.42.36,24.11,24.11,0,0,0-2.69,0,.39.39,0,0,1-.41-.38.38.38,0,0,1,.38-.4c.92,0,1.85,0,2.77,0A.39.39,0,0,1,103.55,116.43Z"/>
        <path class="chuck-15" d="M100.09,116.2a.48.48,0,0,1,.29-.2c.06,0,.67,0,1.26,0l1.17,0c-.8,0-1.61,0-2.41.08A.6.6,0,0,0,100.09,116.2Z"/>
        <path class="chuck-18" d="M103.29,116.38c-.05.37-1.16.12-2.17.16s-1.09-.17-1.09-.17a.39.39,0,0,0,.41.38,24.11,24.11,0,0,1,2.69,0,.39.39,0,0,0,.42-.36.39.39,0,0,0-.37-.42c-.14,0-.28,0-.43,0C102.75,116,103.35,116,103.29,116.38Z"/>
        <path class="chuck-19" d="M105.1,116.61s0,.06.15.14a3.65,3.65,0,0,0,.89.24l.66.13.11-.51c-.46-.07-.92-.17-1.38-.22a.63.63,0,0,0-.33.06.48.48,0,0,1,.33-.14c.06,0,.76.13,1.39.26v0c-.45-.09-.9-.2-1.36-.27A.41.41,0,0,0,105.1,116.61Z"/>
        <path class="chuck-15" d="M105.53,116.31a.48.48,0,0,0-.33.14.63.63,0,0,1,.33-.06c.46,0,.92.15,1.38.22v0C106.29,116.44,105.59,116.3,105.53,116.31Z"/>
        <path class="chuck-19" d="M106.14,117a3.65,3.65,0,0,1-.89-.24c-.14-.08-.15-.14-.15-.14a.39.39,0,0,0,.33.44c.45.06.89.17,1.33.25l0-.18Z"/>
        <path class="chuck-18" d="M106.14,117a3.65,3.65,0,0,1-.89-.24c-.14-.08-.15-.14-.15-.14a.39.39,0,0,0,.33.44c.45.06.89.17,1.33.25l0-.18Z"/>
        <path class="chuck-19" d="M98.21,116.5c0-.3-.33-.3-.51-.28l-.1,0c-.32.05-.63.08-.94.15v0c.52-.11,1-.16,1-.16-.33.07-.67.11-1,.2l.09.52C97.52,116.84,98.18,116.81,98.21,116.5Z"/>
        <path class="chuck-15" d="M96.66,116.41v0c.32-.09.66-.13,1-.2C97.66,116.25,97.18,116.3,96.66,116.41Z"/>
        <path class="chuck-18" d="M97.6,116.24l.1,0Z"/>
        <path class="chuck-19" d="M98.47,116.5a.38.38,0,0,0-.44-.33l-.33,0c.18,0,.54,0,.51.28s-.69.34-1.45.47l0,.18c.44-.09.89-.14,1.33-.21A.41.41,0,0,0,98.47,116.5Z"/>
        <path class="chuck-18" d="M98.47,116.5a.38.38,0,0,0-.44-.33l-.33,0c.18,0,.54,0,.51.28s-.69.34-1.45.47l0,.18c.44-.09.89-.14,1.33-.21A.41.41,0,0,0,98.47,116.5Z"/>
        <path class="chuck-14" d="M111.17,118.09l-.18.43a1.11,1.11,0,0,1-1.41.6c-.47-.17-1-.32-1.44-.48a1.11,1.11,0,0,1-.76-1.32l.12-.46a1.09,1.09,0,0,1,1.39-.75c.54.18,1.08.35,1.62.55A1.08,1.08,0,0,1,111.17,118.09Zm-.74-.18a.61.61,0,0,0-.36-.78l-1.12-.36a.58.58,0,0,0-.75.39l-.07.24a.6.6,0,0,0,.4.73l1,.35a.6.6,0,0,0,.76-.33Z"/>
        <path class="chuck-15" d="M110.42,116.67l-1.46-.49a1.13,1.13,0,0,0-1.36.57l-.06.14a1.15,1.15,0,0,1,1.37-.58l1.47.49a1.13,1.13,0,0,1,.74,1.29l0-.15A1.13,1.13,0,0,0,110.42,116.67Z"/>
        <g class="chuck-16">
            <path class="chuck-17" d="M108.15,117.76a.49.49,0,0,1,0-.36l.07-.24a.58.58,0,0,1,.75-.39l1.12.36a.61.61,0,0,1,.33.3A.59.59,0,0,0,110,117l-1.11-.37a.6.6,0,0,0-.76.4l-.07.24A.55.55,0,0,0,108.15,117.76Z"/>
        </g>
        <g class="chuck-16">
            <path class="chuck-17" d="M111.24,117.52a1,1,0,0,1-.07.57l-.18.43a1.11,1.11,0,0,1-1.41.6c-.47-.17-1-.32-1.44-.48a1.1,1.1,0,0,1-.79-1.08s.09.63,1.09.91,1.47.69,2.1.29A1.72,1.72,0,0,0,111.24,117.52Z"/>
        </g>
        <path class="chuck-18" d="M110.93,118.64l-.72-.29h0l-.15.1a1.1,1.1,0,0,1,.8.29Z"/>
        <path class="chuck-18" d="M107.36,117.44l.75.2h0a.64.64,0,0,0,.06.18h0a1.07,1.07,0,0,0-.82-.25A.62.62,0,0,1,107.36,117.44Z"/>
        <path class="chuck-15" d="M110,118.47a.61.61,0,0,1-.44,0l-1-.35a.72.72,0,0,1-.36-.3.67.67,0,0,1-.12-.45v.1a.75.75,0,0,0,.55.75l.89.3a.74.74,0,0,0,.89-.27l0-.08A.6.6,0,0,1,110,118.47Z"/>
        <path class="chuck-14" d="M115.59,120.7l-.29.37a1.14,1.14,0,0,1-1.5.24,12.89,12.89,0,0,0-1.27-.8,1.13,1.13,0,0,1-.43-1.46l.21-.43a1.08,1.08,0,0,1,1.53-.4,17,17,0,0,1,1.46.92A1.08,1.08,0,0,1,115.59,120.7Zm-.66-.38a.58.58,0,0,0-.18-.82c-.33-.21-.65-.45-1-.63a.59.59,0,0,0-.82.2l-.13.23a.6.6,0,0,0,.23.8c.32.17.62.39.93.58a.6.6,0,0,0,.82-.15Z"/>
        <path class="chuck-15" d="M115.21,119.13c-.44-.28-.86-.58-1.32-.82a1.08,1.08,0,0,0-1.45.23l-.09.13a1.11,1.11,0,0,1,1.47-.25c.46.25.88.55,1.31.83a1.1,1.1,0,0,1,.41,1.44l.08-.14A1.1,1.1,0,0,0,115.21,119.13Z"/>
        <g class="chuck-16">
            <path class="chuck-17" d="M112.74,119.65a.54.54,0,0,1,.06-.35l.13-.23a.59.59,0,0,1,.82-.2c.35.18.67.42,1,.63a.68.68,0,0,1,.26.35.64.64,0,0,0-.28-.48c-.33-.22-.66-.44-1-.63a.59.59,0,0,0-.82.21l-.13.22A.58.58,0,0,0,112.74,119.65Z"/>
        </g>
        <g class="chuck-16">
            <path class="chuck-17" d="M115.8,120.17a.91.91,0,0,1-.21.53l-.29.37a1.14,1.14,0,0,1-1.5.24,12.89,12.89,0,0,0-1.27-.8,1.15,1.15,0,0,1-.51-1.24s0,.62.84,1.14,1.26,1,2,.77A1.68,1.68,0,0,0,115.8,120.17Z"/>
        </g>
        <path class="chuck-18" d="M115.22,121.17l-.61-.48h0a.36.36,0,0,1-.17.07,1,1,0,0,1,.29.1.8.8,0,0,1,.4.39Z"/>
        <path class="chuck-18" d="M112.05,119.16c.23.11.46.24.68.37h0a.55.55,0,0,0,0,.18,1.9,1.9,0,0,0-.22-.22.69.69,0,0,0-.52-.21A.56.56,0,0,1,112.05,119.16Z"/>
        <path class="chuck-15" d="M114.38,120.77a.53.53,0,0,1-.42-.09c-.31-.19-.61-.41-.93-.58a.6.6,0,0,1-.28-.38.61.61,0,0,1,0-.46l0,.09a.75.75,0,0,0,.36.86,8.09,8.09,0,0,1,.79.5.75.75,0,0,0,.93-.06l.07-.07A.71.71,0,0,1,114.38,120.77Z"/>
        <path class="chuck-19" d="M113.22,119.36a.39.39,0,0,1-.53.14,21.51,21.51,0,0,0-2.43-1.14.39.39,0,0,1-.23-.5.39.39,0,0,1,.51-.22,20.66,20.66,0,0,1,2.52,1.18A.39.39,0,0,1,113.22,119.36Z"/>
        <path class="chuck-15" d="M110.15,117.72a.48.48,0,0,1,.36-.06,12.34,12.34,0,0,1,1.16.48l1.06.52c-.74-.33-1.48-.66-2.24-.92A.7.7,0,0,0,110.15,117.72Z"/>
        <path class="chuck-18" d="M113,119.2c-.2.31-1.1-.38-2-.75s-.94-.59-.94-.59a.39.39,0,0,0,.23.5,21.51,21.51,0,0,1,2.43,1.14.39.39,0,1,0,.37-.68l-.38-.21S113.23,118.86,113,119.2Z"/>
        <path class="chuck-19" d="M114.54,120.19s0,.06.08.18a3.14,3.14,0,0,0,.68.62l.52.41.34-.4-1.13-.82a.68.68,0,0,0-.33-.09.47.47,0,0,1,.36,0l1.13.87v0l-1.1-.86A.41.41,0,0,0,114.54,120.19Z"/>
        <path class="chuck-15" d="M115.06,120.1a.47.47,0,0,0-.36,0,.68.68,0,0,1,.33.09l1.13.82,0,0Z"/>
        <path class="chuck-19" d="M115.3,121a3.14,3.14,0,0,1-.68-.62c-.09-.12-.08-.18-.08-.18a.38.38,0,0,0,.11.53l1,.82.12-.14Z"/>
        <path class="chuck-18" d="M115.3,121a3.14,3.14,0,0,1-.68-.62c-.09-.12-.08-.18-.08-.18a.38.38,0,0,0,.11.53l1,.82.12-.14Z"/>
        <path class="chuck-19" d="M108.31,117.26c.14-.27-.19-.41-.36-.46l-.1,0c-.31-.08-.61-.17-.93-.22v0c.52.1,1,.24,1,.24-.33-.07-.65-.16-1-.2l-.11.51C107.54,117.3,108.16,117.53,108.31,117.26Z"/>
        <path class="chuck-15" d="M106.92,116.57v0c.34,0,.66.13,1,.2C107.9,116.81,107.44,116.67,106.92,116.57Z"/>
        <path class="chuck-18" d="M107.85,116.77l.1,0Z"/>
        <path class="chuck-19" d="M108.55,117.36a.38.38,0,0,0-.28-.48l-.32-.08c.17,0,.5.19.36.46s-.77,0-1.51-.14l0,.18c.44.08.87.22,1.3.33A.41.41,0,0,0,108.55,117.36Z"/>
        <path class="chuck-18" d="M108.55,117.36a.38.38,0,0,0-.28-.48l-.32-.08c.17,0,.5.19.36.46s-.77,0-1.51-.14l0,.18c.44.08.87.22,1.3.33A.41.41,0,0,0,108.55,117.36Z"/>
        <path class="chuck-14" d="M119.13,124.43l-.39.26a1.14,1.14,0,0,1-1.5-.2,12.88,12.88,0,0,0-1-1.12,1.12,1.12,0,0,1,0-1.51l.32-.35a1.07,1.07,0,0,1,1.59,0,15.93,15.93,0,0,1,1.15,1.3A1.08,1.08,0,0,1,119.13,124.43Zm-.53-.55a.6.6,0,0,0,.07-.85,9.48,9.48,0,0,0-.79-.89.57.57,0,0,0-.84,0l-.18.18a.62.62,0,0,0,0,.84c.24.27.5.52.72.81a.59.59,0,0,0,.82.1Z"/>
        <path class="chuck-15" d="M119.21,122.81a12.79,12.79,0,0,0-1-1.17,1.08,1.08,0,0,0-1.47-.18l-.12.1a1.11,1.11,0,0,1,1.49.16,14.39,14.39,0,0,1,1,1.18,1.09,1.09,0,0,1,0,1.5l.12-.11A1.09,1.09,0,0,0,119.21,122.81Z"/>
        <g class="chuck-16">
            <path class="chuck-17" d="M116.7,122.6a.58.58,0,0,1,.16-.32l.18-.18a.57.57,0,0,1,.84,0,9.48,9.48,0,0,1,.79.89.61.61,0,0,1,.14.42.62.62,0,0,0-.12-.55c-.24-.32-.54-.59-.8-.89a.58.58,0,0,0-.85,0l-.18.18A.6.6,0,0,0,116.7,122.6Z"/>
        </g>
        <g class="chuck-16">
            <path class="chuck-17" d="M119.49,124a1.16,1.16,0,0,1-.36.46l-.39.26a1.14,1.14,0,0,1-1.5-.2,12.88,12.88,0,0,0-1-1.12,1.12,1.12,0,0,1-.16-1.31.76.76,0,0,0,0,.38,1.92,1.92,0,0,0,.52.93c.73.73.87,1.32,1.65,1.28A1.73,1.73,0,0,0,119.49,124Z"/>
        </g>
        <path class="chuck-18" d="M118.63,124.76a5.44,5.44,0,0,0-.45-.62h0a.55.55,0,0,1-.18,0h0s.51.25.53.66Z"/>
        <path class="chuck-18" d="M116.16,122l.57.52h0a1.16,1.16,0,0,0,0,.18.93.93,0,0,0-.15-.27.86.86,0,0,0-.45-.33Z"/>
        <path class="chuck-15" d="M117.94,124.15a.62.62,0,0,1-.37-.22c-.22-.29-.48-.54-.72-.81a.58.58,0,0,1-.16-.45.66.66,0,0,1,.12-.45l-.06.08a.76.76,0,0,0,.09.93,6.89,6.89,0,0,1,.62.7.75.75,0,0,0,.9.22l.09-.05A.74.74,0,0,1,117.94,124.15Z"/>
        <path class="chuck-14" d="M122.23,128.32l-.29.37a1.06,1.06,0,0,1-1.62,0,10.46,10.46,0,0,1-1.18-1.42,1.09,1.09,0,0,1,.27-1.57l.4-.25a1.13,1.13,0,0,1,1.49.31,7.08,7.08,0,0,0,.88,1.06A1.16,1.16,0,0,1,122.23,128.32Zm-.63-.39a.61.61,0,0,0,0-.82,8.6,8.6,0,0,1-.67-.8.6.6,0,0,0-.81-.15l-.21.14a.59.59,0,0,0-.13.85,10.09,10.09,0,0,0,.78.95.6.6,0,0,0,.87,0Z"/>
        <path class="chuck-15" d="M122.1,126.83a6.9,6.9,0,0,1-.8-1,1.14,1.14,0,0,0-1.33-.41l-.15.07a1.17,1.17,0,0,1,1.37.41,6.64,6.64,0,0,0,.82,1,1.19,1.19,0,0,1,.17,1.38l.08-.13A1.15,1.15,0,0,0,122.1,126.83Z"/>
        <g class="chuck-16">
            <path class="chuck-17" d="M119.69,126.59a.49.49,0,0,1,.22-.29l.21-.14a.6.6,0,0,1,.81.15,8.6,8.6,0,0,0,.67.8.61.61,0,0,1,.16.37.57.57,0,0,0-.15-.48c-.23-.26-.44-.52-.65-.81a.6.6,0,0,0-.81-.15l-.21.14A.51.51,0,0,0,119.69,126.59Z"/>
        </g>
        <g class="chuck-16">
            <path class="chuck-17" d="M122.45,127.8a1.19,1.19,0,0,1-.22.52l-.29.37a1.06,1.06,0,0,1-1.62,0,10.46,10.46,0,0,1-1.18-1.42,1.09,1.09,0,0,1,.08-1.41.83.83,0,0,0-.11.38,1.76,1.76,0,0,0,.39,1.11c.73,1,1.18,1.57,1.93,1.42a1.34,1.34,0,0,0,.79-.57A2.08,2.08,0,0,0,122.45,127.8Z"/>
        </g>
        <path class="chuck-18" d="M121.86,128.79c-.22-.17-.42-.34-.63-.53h0a.58.58,0,0,1-.18,0,1.33,1.33,0,0,1,.71.57A.39.39,0,0,0,121.86,128.79Z"/>
        <path class="chuck-18" d="M119.31,125.8l.43.67h0a.51.51,0,0,0-.07.17,1.21,1.21,0,0,0-.45-.76Z"/>
        <path class="chuck-15" d="M121,128.3a.69.69,0,0,1-.44-.2,10.09,10.09,0,0,1-.78-.95.59.59,0,0,1-.11-.49.62.62,0,0,1,.2-.43l-.08.07a.73.73,0,0,0,0,1,10.56,10.56,0,0,0,.68.82.72.72,0,0,0,1,.15l.07-.06A.6.6,0,0,1,121,128.3Z"/>
        <path class="chuck-19" d="M120.26,126.54a.39.39,0,0,1-.55-.11c-.51-.78-1-1.55-1.5-2.26a.37.37,0,0,1,.06-.54.39.39,0,0,1,.55.08c.57.73,1.05,1.55,1.54,2.29A.4.4,0,0,1,120.26,126.54Z"/>
        <path class="chuck-15" d="M118.44,123.58a.51.51,0,0,1,.35.12l.27.34.46.7.62,1c-.45-.63-.89-1.33-1.41-1.94A.6.6,0,0,0,118.44,123.58Z"/>
        <path class="chuck-18" d="M120.14,126.31c-.34.2-.8-.88-1.38-1.69a4,4,0,0,1-.48-.79c0-.15,0-.2,0-.2a.37.37,0,0,0-.06.54c.54.71,1,1.48,1.5,2.26a.39.39,0,0,0,.55.11.4.4,0,0,0,.1-.54l-.23-.35S120.48,126.1,120.14,126.31Z"/>
        <path class="chuck-19" d="M121.25,127.74s0,.05,0,.19a1.84,1.84,0,0,0,.65.69l.55.4.3-.44a8.22,8.22,0,0,1-1.08-.78.6.6,0,0,0-.3-.14.55.55,0,0,1,.35.07,11.48,11.48,0,0,0,1,.82v0a9,9,0,0,1-1-.81A.4.4,0,0,0,121.25,127.74Z"/>
        <path class="chuck-15" d="M121.76,127.73a.55.55,0,0,0-.35-.07.6.6,0,0,1,.3.14,8.22,8.22,0,0,0,1.08.78l0,0A11.48,11.48,0,0,1,121.76,127.73Z"/>
        <path class="chuck-19" d="M121.94,128.62a1.84,1.84,0,0,1-.65-.69c-.07-.14,0-.19,0-.19a.38.38,0,0,0,0,.56,10.1,10.1,0,0,0,1.11.87l.11-.15Z"/>
        <path class="chuck-18" d="M121.94,128.62a1.84,1.84,0,0,1-.65-.69c-.07-.14,0-.19,0-.19a.38.38,0,0,0,0,.56,10.1,10.1,0,0,0,1.11.87l.11-.15Z"/>
        <path class="chuck-19" d="M117.09,122.24c.25-.16,0-.45-.1-.58l-.07-.06-.72-.65v0l.76.69-.79-.66-.34.4C116.38,121.93,116.84,122.39,117.09,122.24Z"/>
        <path class="chuck-15" d="M116.19,121l0,0,.79.66Z"/>
        <path class="chuck-18" d="M116.92,121.6l.07.06Z"/>
        <path class="chuck-19" d="M117.24,122.46a.42.42,0,0,0,0-.57l-.25-.23c.13.13.35.42.1.58s-.71-.31-1.27-.84l-.12.14,1,.9A.38.38,0,0,0,117.24,122.46Z"/>
        <path class="chuck-18" d="M117.24,122.46a.42.42,0,0,0,0-.57l-.25-.23c.13.13.35.42.1.58s-.71-.31-1.27-.84l-.12.14,1,.9A.38.38,0,0,0,117.24,122.46Z"/>
        <path class="chuck-20" d="M79.35,127.64A8.91,8.91,0,0,1,83.56,130l-5.14,12.41L73,140.14Z"/>
        <path class="chuck-21" d="M78.42,142.41,56,192.16a9.25,9.25,0,0,1-5.79-2.84L73,140.14A9.67,9.67,0,0,1,78.42,142.41Z"/>
        <path class="chuck-22" d="M120.65,130.31a8.91,8.91,0,0,1,3.9-2.85l9.15,9.85-4.33,4Z"/>
        <path class="chuck-23" d="M133.7,137.31l35.89,41.1a9.25,9.25,0,0,1-5,4.08L129.37,141.3A9.62,9.62,0,0,1,133.7,137.31Z"/>
        <path class="chuck-9" d="M148.92,170.46a27.44,27.44,0,0,0,5.11-1.33c1.54-2.29,3.36-4.44,5.12-6.58a5.26,5.26,0,0,1,4,3.31,72.08,72.08,0,0,1-6,8.82,15.09,15.09,0,0,1-5.37.75A15.66,15.66,0,0,1,148.92,170.46Z"/>
        <path class="chuck-9" d="M142.43,163.39a27.33,27.33,0,0,0,4.67-2.45c1-2.59,2.27-5.09,3.5-7.57a5.25,5.25,0,0,1,4.63,2.32c-.8,3.46-3.87,10-3.87,10a15.22,15.22,0,0,1-5.05,1.94A15.51,15.51,0,0,1,142.43,163.39Z"/>
        <path class="chuck-24" d="M147.52,163.52a26.7,26.7,0,0,1,4.42,3.66c.31,0,1.16-.13,1.47-.12h0a23,23,0,0,0-4.35-3.89,73.76,73.76,0,0,0,4.71-11.56l-1.26.36A83.89,83.89,0,0,1,147.52,163.52Z"/>
        <path class="chuck-8" d="M153.43,167.05a19.21,19.21,0,0,0,4.21-12.75,9.15,9.15,0,0,0-3.73-2.74l-.12,0a73.76,73.76,0,0,1-4.71,11.56A23,23,0,0,1,153.43,167.05Z"/>
        <path class="chuck-8" d="M158.81,176.51a19.13,19.13,0,0,0,7-11.46,9,9,0,0,0-3-3.51h-.12a73.64,73.64,0,0,1-7.21,10.19A23.33,23.33,0,0,1,158.81,176.51Z"/>
        <path class="chuck-25" d="M153.85,171.74a27.37,27.37,0,0,1,3.48,4.56c.3.09,1.16.14,1.46.23l0,0a23.33,23.33,0,0,0-3.36-4.77,73.64,73.64,0,0,0,7.21-10.19l-1.31.06A82.35,82.35,0,0,1,153.85,171.74Z"/>
        <path class="chuck-8" d="M105.4,196.89c4,4.05,9,7.38,13.71,10.58a147.58,147.58,0,0,0,35.78-28.24,55.53,55.53,0,0,0-13.75-17.88c-11.14,12.41-23,24.81-35.79,35.44Z"/>
        <path class="chuck-5" d="M134.22,169A51.17,51.17,0,0,1,144,180.51a149,149,0,0,1-14.88,14.16l-.23.18.2.22a30.17,30.17,0,0,0,3.8,3.61l.47-.33a29.81,29.81,0,0,1-3.67-3.43,152.21,152.21,0,0,0,14.86-14.19l.14-.15-.11-.18a46.44,46.44,0,0,0-2.85-4.2,51.48,51.48,0,0,0-7.1-7.66l-.38.4Z"/>
        <path class="chuck-26" d="M131,178.93c-.25.27-.51.53-.77.8,1.73,1.77,3.41,3.61,5,5.48l.75-.74A70.67,70.67,0,0,0,131,178.93Z"/>
        <path class="chuck-26" d="M128.07,181.94l-.78.77q2.49,2.65,5,5.29l.78-.71C131.42,185.49,129.75,183.7,128.07,181.94Z"/>
        <path class="chuck-26" d="M129.56,180.44l-.79.8c1.69,1.77,3.37,3.57,5,5.38l.77-.72C133,184,131.28,182.21,129.56,180.44Z"/>
        <path class="chuck-26" d="M129.12,190.63,130,190q-2.51-2.51-4.91-5.13l-.83.76C125.79,187.33,127.43,189,129.12,190.63Z"/>
        <path class="chuck-26" d="M126.57,183.4l-.8.76c1.62,1.76,3.28,3.5,5,5.17.27-.22.53-.46.8-.69Q129,186,126.57,183.4Z"/>
        <path class="chuck-26" d="M139.2,180.32l.29.39c.33-.38.67-.76,1-1.15a71.27,71.27,0,0,0-5-5.61l-1,1.15A43.72,43.72,0,0,1,139.2,180.32Z"/>
        <path class="chuck-26" d="M123.48,186.25l-1.17,1c1.6,1.7,3.38,3.5,4.89,4.8l1.13-.85C126.65,189.63,125,188,123.48,186.25Z"/>
        <path class="chuck-26" d="M132.45,177.39l-.76.81q2.64,2.66,5,5.55c.24-.25.49-.5.73-.76A55,55,0,0,0,132.45,177.39Z"/>
        <path class="chuck-26" d="M133.86,175.84l-.75.82a54.09,54.09,0,0,1,5,5.6l.71-.78A42.81,42.81,0,0,0,133.86,175.84Z"/>
        <path class="chuck-5" d="M146.6,173.53c.18.28.35.58.51.88l0,.1-.07.09a30.35,30.35,0,0,1-4,4.1l-.24-.27a31.35,31.35,0,0,0,3.86-4,21,21,0,0,0-3.75-4.85,41.75,41.75,0,0,1-4.08,3.48l-.2-.31a45.67,45.67,0,0,0,4.16-3.55l.13-.12.12.12A22.59,22.59,0,0,1,146.6,173.53Z"/>
        <path class="chuck-5" d="M130.75,196.6a25.4,25.4,0,0,1-5.91,4.33l-.13.07-.13-.07a30.32,30.32,0,0,1-6.88-5.25,33.76,33.76,0,0,1-7.45,5.44l-.26-.48a33.48,33.48,0,0,0,7.53-5.54l.2-.18.18.19a29.88,29.88,0,0,0,6.81,5.27,25.2,25.2,0,0,0,5.66-4.16Z"/>
        <path class="chuck-5" d="M112.36,194.93l-2.17,1.77a29,29,0,0,0,4.64,3.77,11.77,11.77,0,0,0,2-1.49C115.64,197.94,113.7,196.23,112.36,194.93Z"/>
        <path class="chuck-27" d="M112.38,195.3l-1.62,1.32a21.26,21.26,0,0,0,3.46,2.81,9.17,9.17,0,0,0,1.51-1.11C114.82,197.54,113.37,196.27,112.38,195.3Z"/>
        <path class="chuck-5" d="M140.89,173c.6-.45,1.19-.93,1.75-1.43a18.51,18.51,0,0,1,2.5,3.27,9.47,9.47,0,0,1-1.42,1.61A22.41,22.41,0,0,0,140.89,173Z"/>
        <path class="chuck-27" d="M143.53,173.38c.34.45.66.93,1,1.42a9.32,9.32,0,0,1-.92,1.06c-.19-.27-.38-.53-.58-.79a21.72,21.72,0,0,0-1.76-2.06c.43-.32.82-.64,1.18-.95C142.8,172.47,143.17,172.92,143.53,173.38Z"/>
        <path class="chuck-5" d="M151.7,182.58l-.27.25-2.12-2.32a93.78,93.78,0,0,1-11.19,10.59l1.92,2.12-.27.24-2.18-2.41.15-.12a93,93,0,0,0,11.43-10.81l.13-.14Z"/>
    </g>
</svg>