<svg id="Layer_1" data-name="Layer 1" 
    xmlns="http://www.w3.org/2000/svg" 
    xmlns:xlink="http://www.w3.org/1999/xlink" viewBox="0 0 294.54 401.1">
    <title>Hero</title>
    <g id="pow" class="pow-1">
        <path class="pow-1" d="M97.49,176.2a111.53,111.53,0,0,0-26.7,1.61c4.3,4.4,9.16,8.88,13.87,12.83,0,0,19.51,2.42,28.29.22A98.41,98.41,0,0,0,97.49,176.2Z"/>
        <path class="pow-2" d="M87,202a57.76,57.76,0,0,1,10.09-15.51A5.37,5.37,0,0,0,95.82,183a5,5,0,0,0-3.19-1.7,42.91,42.91,0,0,0-9,12.35C83.66,196.69,85.29,199.56,87,202Z"/>
        <path class="pow-3" d="M88.18,197.54A53.77,53.77,0,0,1,96.3,185.9a3.14,3.14,0,0,0-2.09-2.17,38,38,0,0,0-7.09,8.78S87.76,196.07,88.18,197.54Z"/>
        <path class="pow-2" d="M91.7,184.56a12.14,12.14,0,0,1,1.36,1.89,9.57,9.57,0,0,1,.66,1.44,7.4,7.4,0,0,0-.32-1.58,7.2,7.2,0,0,0-1.14-2.21Z"/>
        <path class="pow-2" d="M89.72,186.74a11.12,11.12,0,0,1,1.62,1.69,8.61,8.61,0,0,1,.84,1.35,7,7,0,0,0-.53-1.54,6.65,6.65,0,0,0-1.45-2Z"/>
        <path class="pow-2" d="M87.64,189.41a12.26,12.26,0,0,1,1.86,1.7,9.12,9.12,0,0,1,1,1.38,8,8,0,0,0-.7-1.59,7.36,7.36,0,0,0-1.71-2.06Z"/>
        <path class="pow-1" d="M78.76,230c.07.75.17,1.51.3,2.24a17.63,17.63,0,0,1-4.1.43,9.26,9.26,0,0,1-.63-2.06A22,22,0,0,0,78.76,230Z"/>
        <path class="pow-4" d="M84.84,144.15a95.66,95.66,0,0,0-14.08,33.63l0,0a112.38,112.38,0,0,1,26.36-1.63,141.76,141.76,0,0,0,15.76-34.49A86.23,86.23,0,0,0,84.84,144.15Z"/>
        <path class="pow-5" d="M113.2,141.71l-.29,0a141.76,141.76,0,0,1-15.76,34.49l.34,0A98.41,98.41,0,0,1,113,190.86l.24-.06a112.27,112.27,0,0,0,13.24-38.7C122.78,147.9,113.2,141.71,113.2,141.71Z"/>
        <path class="pow-1" d="M85.47,166.67l.42-.92a70.65,70.65,0,0,0,3.37-8.66A43.8,43.8,0,0,0,77.13,159l-.31-1.07A45.16,45.16,0,0,1,90,156h.75l-.21.72a65,65,0,0,1-3.23,8.63,71,71,0,0,1,15.82-.33l-.12,1.11a70.49,70.49,0,0,0-16.54.44Z"/>
        <path class="pow-6" d="M112.85,323.09s.06,1-2.46,1.71-4.19,1-5.54.71-.16-2.15-.16-2.15l6.8-2.36,1.14,1.31Z"/>
        <path class="pow-7" d="M111.18,323.62a8.36,8.36,0,0,0-5.25,1.3A7.52,7.52,0,0,0,111.18,323.62Z"/>
        <path class="pow-6" d="M121.86,321.37s.06,1.05-2.51,1.74-4.28,1.05-5.66.73-.15-2.19-.15-2.19l6.93-2.42,1.17,1.34Z"/>
        <path class="pow-6" d="M132,318.6s.06,1-2.18,1.63-3.73,1-4.93.65-.15-2.06-.15-2.06l6-2.24,1,1.26Z"/>
        <path class="pow-8" d="M124.39,320.32l-19.25-87.95,2.41-2L132,318.28S129.57,317.14,124.39,320.32Z"/>
        <path class="pow-9" d="M117.16,305.83,97.91,217.88l2.41-2,24.45,87.93S122.34,302.66,117.16,305.83Z"/>
        <path class="pow-10" d="M104.22,324.93,82.84,237.64l2.74-2,3.92.61s-3.1,3.52.68,3.25,22.66,83.4,22.66,83.4S110.09,321.75,104.22,324.93Z"/>
        <path class="pow-11" d="M113.11,323l-24.75-86.4L91,234.44l3.94.46.81,3.22,25.88,82.45S118.85,319.56,113.11,323Z"/>
        <path class="pow-6" d="M126.37,316s.06,1-2.46,1.71-4.19,1-5.54.71-.15-2.15-.15-2.15l6.79-2.36,1.14,1.31Z"/>
        <path class="pow-12" d="M124.91,316.51a8.41,8.41,0,0,0-5.25,1.29A7.54,7.54,0,0,0,124.91,316.51Z"/>
        <path class="pow-6" d="M135.58,315.21s0,1.05-2.5,1.73-4.24,1-5.61.72-.16-2.17-.16-2.17l6.89-2.4,1.15,1.33Z"/>
        <path class="pow-13" d="M134.1,315.7a8.53,8.53,0,0,0-5.32,1.31A7.62,7.62,0,0,0,134.1,315.7Z"/>
        <path class="pow-14" d="M126.82,317.05l-24.75-86.4,2.66-2.12,3.94.46.8,3.22,25.88,82.45S132.57,313.64,126.82,317.05Z"/>
        <path class="pow-15" d="M117.82,318.13l-24.74-86.4,2.65-2.12,3.94.46.81,3.22,25.87,82.45S123.57,314.73,117.82,318.13Z"/>
        <path class="pow-6" d="M114.6,320.56s.05,1-2.47,1.7-4.18,1-5.54.71-.15-2.14-.15-2.14l6.8-2.37,1.14,1.31Z"/>
        <path class="pow-16" d="M106,322.51l-24-86.6,2.67-2.1,3.94.49s-3,3.61.77,3.23,25.22,82.66,25.22,82.66S111.79,319.15,106,322.51Z"/>
        <path class="pow-17" d="M120.13,255.3l.94,4.59-3-1.67-7-.47-6.28.55s-2.94,1.2-3.37,2-5,1.75-5,1.75a35.54,35.54,0,0,0-5.19,2c-.92.66-1.52,5-1.52,5l.43.9.76.95.32.87s-2.59-.64-3.39-1.51-1.45-5.65-1.45-5.65l1.24-3.4s7.32-8.94,24.62-8.59A13.42,13.42,0,0,1,120.13,255.3Z"/>
        <path class="pow-18" d="M97.32,206.8l-3.83-5a1.65,1.65,0,0,0-1.51-.49c-1,.15,6.16,20.93,6.16,20.93l4.31.36-4.32-13.74A11.29,11.29,0,0,0,97.32,206.8Z"/>
        <polygon class="pow-19" points="101.28 220.34 99.47 218.68 96.62 209.65 100.92 207.56 102.46 207.44 104.23 211.14 105.65 214.27 105.1 217.82 101.28 220.34"/>
        <polygon class="pow-20" points="102.46 207.44 104.18 213.85 102.77 215.63 103.4 213.69 101.72 207.92 102.46 207.44"/>
        <polygon class="pow-21" points="107.85 217.62 104.92 213.9 102.46 207.44 105.06 211.12 107.85 217.62"/>
        <path class="pow-22" d="M102.91,217.62l2-3.72,2.93,3.72-2.21,3.63a2.29,2.29,0,0,1-.65.54c-.33.17-2.54.78-2.54.78l-3-3.89,2.49-1.09Z"/>
        <path class="pow-23" d="M97,210.89l2.78-1.36,1.83,1,1,2.63a2.06,2.06,0,0,1-.2,1.14L101,216.6l-1.72.93Z"/>
        <path class="pow-24" d="M97.89,222.16c.26.3,8.28-.59,10.37,1.15,1.53.8,5.39,5.85,1.83,11.71v-5l-3.5-2.67-8.75-.61S97.63,221.86,97.89,222.16Z"/>
        <path class="pow-25" d="M99,226.31s5.65-2.13,10.57,1.35c0,0,3.09,2.59.48,7.36l-.62-2.81-.24-2.08-2.52-1L99.44,228Z"/>
        <path class="pow-26" d="M110.09,235s3.12-6.07-5-8.07-11.18,6.6-11.18,6.6l6.94-1.8s4-2.68,6.12-2.08a2.34,2.34,0,0,1,1.89,2.44Z"/>
        <path class="pow-27" d="M64.76,208l5.2,23.9-10.71,5.81-.71,2.95-.23-.44-3.23-26.79a6.69,6.69,0,0,1,2.5-1.9C59.08,211,64.76,208,64.76,208Z"/>
        <polygon class="pow-28" points="48.59 149.92 44.58 154.68 45.26 178.88 49.93 183.35 69.28 176.26 62.52 146.86 48.59 149.92"/>
        <path class="pow-28" d="M51.17,164.52,52,165s3.82-1.88,5.42-.63,2.85,5.94,3.37,10.25l.36-3.32-2.6-9.92-3.4-.74Z"/>
        <path class="pow-29" d="M50.5,176.71l-5.24,2.17s-3.39-10-2.57-25l3.67-.76-.83,2,.32,4.41,2.42,3.54Z"/>
        <polygon class="pow-6" points="66.9 146.41 73.63 171.38 73.07 176.43 67.97 177.26 60.68 147.98 63.34 145.31 66.9 146.41"/>
        <polygon class="pow-28" points="67.25 225.41 58.84 178.45 71.46 172.42 84.94 219.55 67.25 225.41"/>
        <polygon class="pow-30" points="58.84 178.45 56.73 175.91 59.75 191.4 61.41 192.25 58.84 178.45"/>
        <polygon class="pow-28" points="61.7 192.66 59.67 190.02 56.94 190.56 58.83 193.71 61.7 192.66"/>
        <polygon class="pow-30" points="61.49 203.08 59.9 193.28 56.93 190.35 58.93 201.44 61.49 203.08"/>
        <polygon class="pow-30" points="49.02 179.83 52.17 201.64 54.28 203.64 58.77 204.49 50.57 179.04 49.02 179.83"/>
        <path class="pow-31" d="M68.13,149.5l0-.79-1.18-2.3-5-.27L60.68,148l.4,1.05a4.72,4.72,0,0,1,3.24-1.45c2,0,2.64.15,3.52,2.18S68.13,149.5,68.13,149.5Z"/>
        <path class="pow-32" d="M67.87,145.78s-.41-2.32-4-2.38a4.49,4.49,0,0,0-4.39,3.36L61,148.48a4.1,4.1,0,0,1,3.29-1.67c2.41-.18,3.71,1.38,3.78,2.32Z"/>
        <polygon class="pow-33" points="60.29 149.23 59.28 145.97 56.6 147.15 57.68 150.84 60.29 149.23"/>
        <polygon class="pow-34" points="61.54 148.58 65.98 166.44 64.34 165.56 62.32 154.98 61.17 150.24 59.87 149.11 59.28 145.97 61.54 148.58"/>
        <polygon class="pow-35" points="58 150.46 59.87 149.11 61.17 150.24 57.85 153.16 58 150.46"/>
        <polygon class="pow-36" points="62.04 168.93 64.75 164.95 61.17 150.24 58.15 152.51 62.04 168.93"/>
        <polygon class="pow-37" points="67.7 170.26 66.21 164.47 65.77 154.96 64.28 150.57 66.62 149.85 74.41 155.42 78.69 166.9 67.7 170.26"/>
        <path class="pow-27" d="M80.84,172.15l1-.56a.88.88,0,0,0,.26-.82,1.7,1.7,0,0,0-.38-.79c-.81-1.06-2.29-3.13-2.29-3.13a3,3,0,0,0-2.63-.48c-1.37.48-3.45,1.37-3.45,1.37Z"/>
        <path class="pow-38" d="M72.89,240.23l-6.07,3.31s-2.49,1.51-4.22,0a23.25,23.25,0,0,0-4.06-2.79s-1.23-2,1.53-3.48l10.79-5.76Z"/>
        <path class="pow-31" d="M70.42,232.94l-10.21,5.29s-1.19,1.14.52,2.42,1.71,1.28,2.81,2,2.32,0,4.75-1.33S72.4,239,72.4,239Z"/>
        <polygon class="pow-39" points="82.53 174.06 77.87 167.8 86.73 194.54 89.34 194.35 82.53 174.06"/>
        <polygon class="pow-40" points="72.42 167.35 81.25 195.49 86.83 195.93 88.99 195.78 77.87 167.8 72.42 167.35"/>
        <polygon class="pow-37" points="69.55 169.24 72.42 167.35 81.25 195.49 76.32 195.28 69.55 169.24"/>
        <polygon class="pow-41" points="88.39 191.52 87.33 191.6 80.19 192.11 76.18 194.72 89.06 193.38 88.39 191.52"/>
        <path class="pow-37" d="M75,258.54l-7.82-34.67s10.3-5,8.35-13.65A85.69,85.69,0,0,0,72,197.84l7.65-4.9,16.08,56.11Z"/>
        <polygon class="pow-42" points="81.62 192.8 79.67 192.94 95.75 249.05 97.57 248.92 81.62 192.8"/>
        <polygon class="pow-40" points="105.11 248.38 97.57 248.92 81.62 192.8 88.74 192.29 105.11 248.38"/>
        <polygon class="pow-39" points="106.78 250.09 105.11 248.38 88.74 192.29 90.87 196.49 106.78 250.09"/>
        <polygon class="pow-39" points="80.3 165.19 78.7 163.06 76.44 157.05 73.3 153.02 68.14 149.5 66.62 149.85 72.01 154 76.82 166.37 82.12 170.77 80.3 165.19"/>
        <polygon class="pow-35" points="65.98 166.44 64.75 164.95 62.04 168.93 63.05 171.11 65.98 166.44"/>
        <path class="pow-37" d="M56.65,143.92,63.5,173l-2.76,1.53s-.2-12.55-5.51-11.18l-4.06,1.13L47.8,148.76Z"/>
        <polygon class="pow-31" points="56.73 175.91 49.99 179.34 53.16 200.59 56.5 201.61 59.16 200.58 57.41 190.88 59.67 190.02 56.73 175.91"/>
        <polygon class="pow-28" points="61.49 203.08 59.16 200.58 56.5 201.61 58.77 204.49 61.49 203.08"/>
        <polygon class="pow-6" points="51.55 176.63 50.5 176.71 48.27 163.11 49.1 163.05 51.55 176.63"/>
        <path class="pow-43" d="M46.36,153.14s-3.53,5.66,1.91,10l.83-.06s-5.58-4.51-1-10Z"/>
        <polygon class="pow-44" points="51.55 176.63 46.35 178.81 45.26 178.88 50.5 176.71 51.55 176.63"/>
        <polygon class="pow-45" points="96.98 210.29 101.72 207.92 102.46 207.44 102.16 207.15 101.04 207.23 96.62 209.65 96.67 210.32 96.98 210.29"/>
        <path class="pow-46" d="M119.12,263.73s2.31-2.32,1.95-3.84-2.8-2.77-5.62-3A52.28,52.28,0,0,0,100.89,259s7.52-1.34,8-.92a2.13,2.13,0,0,1,1,1.92l.27,1.36a7.64,7.64,0,0,1,3.88-2.05c2.09-.25,3.46-.72,4.07,1.39S119.12,263.73,119.12,263.73Z"/>
        <path class="pow-46" d="M90.81,270.88s-1.75-2.31,1.41-3.28l-.34-1.43s-1.84-.85.28-2.64c0,0-2.76.66-2.91,3.11S89.67,269.93,90.81,270.88Z"/>
        <path class="pow-46" d="M100.52,267.89a5.41,5.41,0,0,1,2.64-.94l.47,0-2.07-6.73L93.8,262.9a11.91,11.91,0,0,1,4.46-.37s.55-.18.77,1A44.58,44.58,0,0,0,100.52,267.89Z"/>
        <path class="pow-47" d="M111.19,255.94s-8.44,1.1-11.28,2.15A95.32,95.32,0,0,0,111.19,255.94Z"/>
        <path class="pow-47" d="M120.33,258.06s-1.41-1.58-4.68-1.59A13.34,13.34,0,0,1,120.33,258.06Z"/>
        <path class="pow-48" d="M97.88,259.8s-13.22,4.92-9.58,10.65c0,0-2.34,0-2.47-6.47a11.06,11.06,0,0,1,3.21-4.2c2-1.31,3.69,0,4.92.11A37.9,37.9,0,0,0,97.88,259.8Z"/>
        <path class="pow-49" d="M94,260.45s-6.24,3.07-7.43,8C86.57,268.47,86.78,263.59,94,260.45Z"/>
        <path class="pow-17" d="M129.87,285.25l1,4.89-3.25-1.77-7.61-.5-6.78.59s-3.18,1.29-3.65,2.09-5.44,1.88-5.44,1.88a38.91,38.91,0,0,0-5.61,2.16c-1,.71-1.65,5.33-1.65,5.33l.47,1,.81,1,.35.93s-2.8-.68-3.67-1.61-1.55-6-1.55-6l1.34-3.62s7.92-9.55,26.6-9.19A14.63,14.63,0,0,1,129.87,285.25Z"/>
        <path class="pow-46" d="M128.77,294.23s2.5-2.47,2.11-4.09-3-2.95-6.07-3.18a57.42,57.42,0,0,0-15.74,2.28s8.13-1.44,8.69-1a2.26,2.26,0,0,1,1.13,2.05l.3,1.45a8.28,8.28,0,0,1,4.19-2.19c2.25-.27,3.73-.77,4.4,1.48S128.77,294.23,128.77,294.23Z"/>
        <path class="pow-46" d="M98.17,301.89s-1.89-2.46,1.52-3.5l-.36-1.52s-2-.91.31-2.82c0,0-3,.71-3.15,3.32S96.94,300.88,98.17,301.89Z"/>
        <path class="pow-46" d="M108.66,298.69a5.93,5.93,0,0,1,2.86-1l.51,0-2.24-7.17-8.38,2.89s3.12-.82,4.82-.39c0,0,.6-.19.83,1A45.68,45.68,0,0,0,108.66,298.69Z"/>
        <path class="pow-47" d="M120.21,285.94s-9.13,1.18-12.19,2.3A103.8,103.8,0,0,0,120.21,285.94Z"/>
        <path class="pow-47" d="M130.08,288.19s-1.52-1.69-5.05-1.7A14.53,14.53,0,0,1,130.08,288.19Z"/>
        <path class="pow-48" d="M105.82,290.06s-14.28,5.27-10.36,11.37c0,0-2.53,0-2.66-6.89a11.82,11.82,0,0,1,3.47-4.49c2.12-1.4,4,0,5.31.12A42.29,42.29,0,0,0,105.82,290.06Z"/>
        <path class="pow-49" d="M101.62,290.76s-6.74,3.28-8,8.56C93.59,299.32,93.83,294.12,101.62,290.76Z"/>
        <path class="pow-50" d="M120.15,321.8a8.54,8.54,0,0,0-5.36,1.32A7.7,7.7,0,0,0,120.15,321.8Z"/>
        <path class="pow-51" d="M131.13,318.82a9.36,9.36,0,0,0-5.3,1.5A8.32,8.32,0,0,0,131.13,318.82Z"/>
        <path class="pow-52" d="M113.14,321a8.4,8.4,0,0,0-5.25,1.29A7.49,7.49,0,0,0,113.14,321Z"/>
    </g>
</svg>