<svg xmlns="http://www.w3.org/2000/svg" 
    xmlns:xlink="http://www.w3.org/1999/xlink" viewBox="0 0 294.54 401.1">
    <title>Hero</title>
    <g id="shield" class="shield-1">
        <polygon class="shield-2" points="57.83 194.41 68.77 282.15 103.63 297.82 150.07 274.47 139.5 172.66 57.83 194.41"/>
        <polygon class="shield-3" points="76.14 238.04 77.45 240.66 81.27 274.59 85.83 286.13 84.72 286.24 79.78 274.14 76.14 238.04"/>
        <path class="shield-4" d="M137.91,129.21l2.84,49.55-.69,7.7,3.87,40.67-2.25-1.34L146.42,274l-9.37,23.14-47.19,5.6L91.07,304l47.76-4.9,16.38-23.86c-4.72-47.87-11.8-100.92-13.75-139.51Z"/>
        <path class="shield-3" d="M135.42,173.61l-25.19,4.65q1,32.07,4.88,62.9l4.4,3.21c-.93-20-1.26-39.12-1-59.21l23-4Z"/>
        <polygon class="shield-5" points="63.46 239.76 76.14 238.04 79.78 274.14 93.27 285.38 124.74 282.21 136.81 268.64 132.67 227.54 147.22 226.08 151.9 274.31 136.65 298.05 90.39 303.31 68.77 282.81 63.46 239.76"/>
        <path class="shield-2" d="M75.42,166.61l9.65.46,7.87,42.65,12.64-2.18.66-44.64,10.76-4,.4-25.92h0l-.05,2.31c-13.28,2.58-29.6,6.53-42.45,10l-4.29-1.41h0Z"/>
        <path class="shield-6" d="M117.4,133h0l-.4,25.92-10.76,4-.66,44.64-12.64,2.18-7.87-42.65-9.65-.46-4.81-22.72h0q-8.74,2.43-17.35,5.15l4.57,45.37,22.4-4.13c1.76,18.72,4.27,39.9,8,61.89q16-2,32.26-5.52-3.6-30.84-4.88-62.9l25.19-4.65-2.84-49.62Q127.58,131.09,117.4,133Z"/>
        <polygon class="shield-4" points="74.9 145.31 78.77 166.77 75.42 166.61 70.61 143.89 74.9 145.31"/>
        <polygon class="shield-4" points="85.07 167.07 92.94 209.72 94.78 209.4 87.89 167.66 85.07 167.07"/>
        <polygon class="shield-7" points="95.46 224.11 95.75 225.52 105.16 223.85 105.17 222.38 95.46 224.11"/>
        <polygon class="shield-8" points="97.55 234.31 105.13 232.97 105.14 231.5 97.26 232.9 97.55 234.31"/>
        <polygon class="shield-9" points="96.36 228.5 96.65 229.92 105.15 228.41 105.15 226.94 96.36 228.5"/>
        <polygon class="shield-10" points="93.65 215.31 93.94 216.73 105.19 214.73 105.2 213.27 93.65 215.31"/>
        <polygon class="shield-11" points="94.56 219.71 94.85 221.13 105.18 219.29 105.18 217.82 94.56 219.71"/>
        <polygon class="shield-12" points="138.57 141.16 124.71 147.78 123.57 182.27 124.98 182.01 126.09 148.68 138.66 142.67 138.57 141.16"/>
        <polygon class="shield-13" points="63.43 161.36 54.36 159.98 54.51 161.42 62.37 162.62 71.92 191.81 73.32 191.55 63.43 161.36"/>
        <path class="shield-2" d="M108.74,217.34l-.24,22.53-12.07,2-7-21.39-5.76.58.18,1.39,4.6-.46,7.06,21.46,14.42-2.43.24-22.63,7.38-1.88-.12-1.42Z"/>
        <polygon class="shield-4" points="138.74 277.75 128.85 290.34 94.03 294.67 82.73 284.47 77.53 291.11 78.55 292.08 82.91 286.52 93.56 296.14 129.6 291.66 139.06 279.61 145.78 283.84 146.54 282.66 138.74 277.75"/>
        <polygon class="shield-14" points="64.82 240.34 68.95 281.32 67.76 244.49 74.69 241.81 74.38 238.78 64.82 240.34"/>
        <polygon class="shield-15" points="134.09 228.59 138.07 268.04 126.22 282.58 94.68 286.32 127.54 283.85 140.61 269.45 136.24 231.98 146.58 229.86 146.33 227.35 134.09 228.59"/>
    </g>
</svg>