<svg xmlns="http://www.w3.org/2000/svg" 
    xmlns:xlink="http://www.w3.org/1999/xlink" viewBox="0 0 294.54 401.1">
    <title>Hero</title>
    <g id="sword" class="sword-1">
        <path class="sword-2" d="M97.49,176.2a111.53,111.53,0,0,0-26.7,1.61c4.3,4.4,9.16,8.88,13.87,12.83,0,0,19.51,2.42,28.29.22A98.41,98.41,0,0,0,97.49,176.2Z"/>
        <path class="sword-3" d="M84.84,144.15a95.66,95.66,0,0,0-14.08,33.63l0,0a112.38,112.38,0,0,1,26.36-1.63,141.76,141.76,0,0,0,15.76-34.49A86.23,86.23,0,0,0,84.84,144.15Z"/>
        <path class="sword-4" d="M113.2,141.71l-.29,0a141.76,141.76,0,0,1-15.76,34.49l.34,0A98.41,98.41,0,0,1,113,190.86l.24-.06a112.27,112.27,0,0,0,13.24-38.7C122.78,147.9,113.2,141.71,113.2,141.71Z"/>
        <path class="sword-2" d="M85.47,166.67l.42-.92a70.65,70.65,0,0,0,3.37-8.66A43.8,43.8,0,0,0,77.13,159l-.31-1.07A45.16,45.16,0,0,1,90,156h.75l-.21.72a65,65,0,0,1-3.23,8.63,71,71,0,0,1,15.82-.33l-.12,1.11a70.49,70.49,0,0,0-16.54.44Z"/>
        <path class="sword-3" d="M138.18,234.24a38.09,38.09,0,0,0-6-9.54,26.62,26.62,0,0,0-3.36,4.41,81.92,81.92,0,0,1,5.14,10.26A24.48,24.48,0,0,0,138.18,234.24Z"/>
        <path class="sword-5" d="M123.94,225.25c2.4.14,6.87,1.27,8.57,2.34a20.1,20.1,0,0,1,4.43,6.8,21.28,21.28,0,0,1-3.18,3.85,6.5,6.5,0,0,1-2.13-.5,28.46,28.46,0,0,0-2.77-4.61,31.81,31.81,0,0,0-6.85-3A21.07,21.07,0,0,1,123.94,225.25Z"/>
        <path class="sword-6" d="M132.12,224.74v0a37.62,37.62,0,0,1,6,9.47,23.82,23.82,0,0,1-4.22,5.1v0c.59.16,1,.3,1.58.46a21.73,21.73,0,0,0,4.26-4.86,23,23,0,0,0-6.22-9.76C133.18,224.91,132.55,224.89,132.12,224.74Z"/>
        <path class="sword-21" d="M155.79,219.52l-25-15.19S197.39,92.48,208.57,81.72,224.93,68.6,224.93,68.6s.8,14.65-3.22,24.77S155.79,219.52,155.79,219.52Z"/>
        <path class="sword-7" d="M179,140.19l-6.87-3.83s14.3-23.09,20.08-31.61l6.81,4.8Z"/>
        <path class="sword-21" d="M167.28,158.78l-6.52-3.9s4.5-7.56,6.56-10.71l6.66,3.64Z"/>
        <path class="sword-9" d="M214.34,89.39l9.4-3.77A68.27,68.27,0,0,0,225,72.4L215.3,85.25S214,89.5,214.34,89.39Z"/>
        <path class="sword-10" d="M213.82,90.58l8.91-.59A21.48,21.48,0,0,1,221,94.92l-8.32-2.45Z"/>
        <path class="sword-22" d="M138.75,205.41S202.83,95.33,216,84.22c0,0,1.23,3.43-19,41.92S150.79,213,150.79,213Z"/>
        <path class="sword-11" d="M120.38,263.63s-10-3.86-11.27-5.9,3-3.73,3-3.73a3.72,3.72,0,0,1,.62-3.19l1.16-1.26s13.81-17.27,15.72-27.61c1.39-7.51,5.43-6.09,5.43-6.09l.45-1.13,8.55,3.71-2.19,1.62s2.08,2.74,1.24,4.18-14.82,18.84-16.92,26.65-4.8,7.52-4.8,7.52S123.1,263.93,120.38,263.63Z"/>
        <path class="sword-12" d="M153.67,225.84s3.39-5.92,3-7.26-24.6-15.93-25.65-15.41-4.84,5.85-4.84,5.85S150.32,225.8,153.67,225.84Z"/>
        <path class="sword-11" d="M164.11,237.06s-33.06-23.4-53.35-30.51l2.87-7s43.1,28.76,54.15,31.71Z"/>
        <path class="sword-5" d="M111.36,258.44s4.06.63,1.91-1.54S108.87,257.86,111.36,258.44Z"/>
        <path class="sword-5" d="M113.61,253.52s2.65,1,2.39-.23-2.2-1.91-2.71-1.35S113.29,253.25,113.61,253.52Z"/>
        <path class="sword-5" d="M118.81,248s8.73-12.3,10.76-18.66-1.75.6-5.64,6.74-6.56,9.5-8.11,11.72S116.91,250.71,118.81,248Z"/>
        <path class="sword-5" d="M131.69,222.23s1.26.91,1.64-1.22S129.94,220.2,131.69,222.23Z"/>
        <path class="sword-11" d="M121.38,258.4a16.78,16.78,0,0,0-4.6-2.87,15.76,15.76,0,0,0-4.66-1.53l-.05-.41s5.19,0,8.13,2.2S121.38,258.4,121.38,258.4Z"/>
        <path class="sword-5" d="M138.17,214.87s-6.73-3.61-6.69-4.29,3.68-5.42,3.68-5.42,5.8,3.21,6.3,4Z"/>
        <path class="sword-5" d="M139.9,216.1l3.88-5.77,1.35.88-3.45,6A5.92,5.92,0,0,0,139.9,216.1Z"/>
        <path class="sword-5" d="M143.27,223.33s-10.18-6.26-11.1-6.57c0,0-2,1.46,0,2.38S142.09,222.55,143.27,223.33Z"/>
        <path class="sword-5" d="M124.92,211.86l1.81-3.56L118,202.68l-2.75,5.2S122.14,210.6,124.92,211.86Z"/>
        <path class="sword-5" d="M115.09,240.93a28.89,28.89,0,0,0,2.31,5.21c2.72,1.24,5.34,2.8,7.92,4.3a5.71,5.71,0,0,1-2.82,4.85c-3.68-1.12-10.48-4.88-10.48-4.88a16.34,16.34,0,0,1-1.74-5.59A16.85,16.85,0,0,1,115.09,240.93Z"/>
        <path class="sword-3" d="M110.37,252.54A20.72,20.72,0,0,0,123.82,258a9.72,9.72,0,0,0,3.22-3.84l0-.13a78.43,78.43,0,0,1-12.14-5.89A25.1,25.1,0,0,1,110.37,252.54Z"/>
        <path class="sword-13" d="M114.59,246.41a29,29,0,0,1-4.26,4.52c0,.33.06,1.26,0,1.59l0,0a25.1,25.1,0,0,0,4.5-4.42A78.43,78.43,0,0,0,127,254l-.29-1.38A89.46,89.46,0,0,1,114.59,246.41Z"/>
        <path class="sword-5" d="M121.49,232.76a29.16,29.16,0,0,0,3.43,4.55c2.93.59,5.83,1.52,8.69,2.4a5.7,5.7,0,0,1-1.65,5.35c-3.84-.25-11.31-2.37-11.31-2.37a16.31,16.31,0,0,1-3-5.06A16.74,16.74,0,0,1,121.49,232.76Z"/>
        <path class="sword-3" d="M119.52,245.13a20.7,20.7,0,0,0,14.34,2.25,9.67,9.67,0,0,0,2.26-4.46l-.05-.12a79.47,79.47,0,0,1-13.17-3A24.84,24.84,0,0,1,119.52,245.13Z"/>
        <path class="sword-14" d="M122.25,238.21a30.17,30.17,0,0,1-3.13,5.36c0,.34.34,1.22.38,1.55h0a24.84,24.84,0,0,0,3.38-5.32,79.47,79.47,0,0,0,13.17,3l-.61-1.28A89.56,89.56,0,0,1,122.25,238.21Z"/>
        <path class="sword-5" d="M97.94,204.16a62.2,62.2,0,0,1-2.72-19.77,5.8,5.8,0,0,0-3.54-1.94,5.39,5.39,0,0,0-3.8.87,45.6,45.6,0,0,0,1.36,16.42C91.41,202.18,94.76,203.37,97.94,204.16Z"/>
        <path class="sword-3" d="M79.23,199.15c-3.61,5-6.3,10.85-8.87,16.48a159.19,159.19,0,0,0,36.42,33.21A59.87,59.87,0,0,0,123.43,231c-15.19-9.7-30.51-20.19-44.1-31.94Z"/>
        <path class="sword-15" d="M114.32,225.1a341.6,341.6,0,0,1-35-26l-.1.07c-3.61,5-6.3,10.85-8.87,16.48a160.25,160.25,0,0,0,12,13.3l3.27-4.7s5,4.41,8.59,7,9.3,6.51,9.3,6.51a43.68,43.68,0,0,0,4.56-4.36c2.2-2.47,6.28-8.3,6.28-8.3Z"/>
        <path class="sword-16" d="M127.11,221.74c-13.08-8.91-27.77-17.83-40.23-27.58-2.34,1.38-6.85,4.44-7.55,4.92,13.59,11.75,28.91,22.24,44.1,31.94a1.63,1.63,0,0,0,.11-.17A97.33,97.33,0,0,0,127.11,221.74Z"/>
        <path class="sword-17" d="M79.33,199.08a341.6,341.6,0,0,0,35,26,49.75,49.75,0,0,0,2.38-4.77c.52-1.3,1.16-3.24,1.56-4.5-10.6-7-21.67-14.08-31.38-21.67C84.54,195.54,80,198.6,79.33,199.08Z"/>
        <path class="sword-15" d="M118.58,216l-.52-.34a37.6,37.6,0,0,1-3.94,9.27l.49.33h0A37.62,37.62,0,0,0,118.58,216Z"/>
        <path class="sword-2" d="M114.11,225a55.14,55.14,0,0,1-10.62,12.43A161.46,161.46,0,0,1,85.76,224l-.23-.21-.2.24a33.14,33.14,0,0,0-3.18,4.7l.43.44a33.25,33.25,0,0,1,3-4.52A164.36,164.36,0,0,0,103.35,238l.18.12.18-.14a50.18,50.18,0,0,0,4-3.79,55.74,55.74,0,0,0,6.93-8.92l-.49-.33Z"/>
        <path class="sword-2" d="M102.9,223.31l-1-.68c-1.59,2.16-3.25,4.28-5,6.31l.92.67A80.23,80.23,0,0,0,102.9,223.31Z"/>
        <path class="sword-2" d="M99.17,220.7l-1-.7q-2.4,3.12-4.76,6.26l.88.7C96,224.91,97.59,222.81,99.17,220.7Z"/>
        <path class="sword-2" d="M101,222l-1-.69c-1.59,2.11-3.21,4.22-4.86,6.29l.9.69C97.79,226.28,99.45,224.17,101,222Z"/>
        <path class="sword-2" d="M90.08,223.36l.87.77c1.48-2.07,3-4.12,4.6-6.15l-1-.74C93,219.22,91.51,221.27,90.08,223.36Z"/>
        <path class="sword-2" d="M97.35,219.36l-1-.72c-1.59,2-3.15,4.11-4.64,6.2l.87.73Z"/>
        <path class="sword-2" d="M102.85,232.29l-.36.38,1.4.86a79,79,0,0,0,5.12-6.27l-1.41-.88A46.56,46.56,0,0,1,102.85,232.29Z"/>
        <path class="sword-2" d="M93.77,216.57c-.44-.36-.88-.71-1.32-1.08-1.53,2-3.13,4.23-4.26,6.07l1.11,1.05C90.71,220.55,92.2,218.52,93.77,216.57Z"/>
        <path class="sword-2" d="M104.79,224.57l-1-.66a80.51,80.51,0,0,1-5,6.31l.94.64A57.19,57.19,0,0,0,104.79,224.57Z"/>
        <path class="sword-2" d="M106.7,225.8l-1-.65a59.5,59.5,0,0,1-5.09,6.31l1,.62A45.64,45.64,0,0,0,106.7,225.8Z"/>
        <path class="sword-18" d="M95.7,199.69a57.86,57.86,0,0,1-1.59-15.22,3.42,3.42,0,0,0-3.24-.3,41,41,0,0,0,.42,12.17S94.32,198.78,95.7,199.69Z"/>
        <path class="sword-5" d="M89.41,186.63a12.67,12.67,0,0,1,2.44.58,9.55,9.55,0,0,1,1.55.7A8.33,8.33,0,0,0,92,186.85a7.39,7.39,0,0,0-2.49-1Z"/>
        <path class="sword-5" d="M89.33,189.81a11.12,11.12,0,0,1,2.52.22,9.35,9.35,0,0,1,1.63.51,7.62,7.62,0,0,0-1.51-.88,7.19,7.19,0,0,0-2.63-.65Z"/>
        <path class="sword-5" d="M89.52,193.44a13,13,0,0,1,2.72.08,9.74,9.74,0,0,1,1.79.42,8.69,8.69,0,0,0-1.69-.81,8.31,8.31,0,0,0-2.85-.48Z"/>
        <path class="sword-19" d="M125.68,222.14a9.41,9.41,0,0,1-1.29,3.64c-11.75-7-23.45-14.85-35.29-23.18-1.09.36-2.14.37-3.23.73q-2.64-2-5.09-4.23a25.25,25.25,0,0,1,5.78-3.86C99.54,204.38,112.54,213.74,125.68,222.14Z"/>
        <path class="sword-2" d="M112.88,237.58a20.58,20.58,0,0,1-2.32,2.11l-.11.07-.11-.06a33.64,33.64,0,0,1-5.07-3.52l.25-.31a33.36,33.36,0,0,0,4.9,3.42,22.92,22.92,0,0,0,4.51-4.84,46,46,0,0,1-4.42-3.75l.29-.27a46.82,46.82,0,0,0,4.53,3.81l.15.12-.11.16A26.5,26.5,0,0,1,112.88,237.58Z"/>
        <path class="sword-2" d="M84,226.15a28.08,28.08,0,0,1-5.66-5.55l-.09-.13.05-.15a32.66,32.66,0,0,1,4.39-8.26,36.45,36.45,0,0,1-7.12-7l.47-.35a36.36,36.36,0,0,0,7.24,7l.24.18-.18.24a32.33,32.33,0,0,0-4.43,8.19,27.6,27.6,0,0,0,5.44,5.3Z"/>
        <path class="sword-2" d="M82.54,206.23l-2.27-2a30.8,30.8,0,0,0-3.2,5.61,11.69,11.69,0,0,0,2,1.9C79.91,210.25,81.39,207.88,82.54,206.23Z"/>
        <path class="sword-20" d="M82.15,206.31l-1.69-1.49A22.48,22.48,0,0,0,78.07,209a9.74,9.74,0,0,0,1.45,1.42C80.19,209.31,81.3,207.54,82.15,206.31Z"/>
        <path class="sword-2" d="M110.94,232.81a23.25,23.25,0,0,0,1.82,1.61,19.5,19.5,0,0,1-3,3.25,10.36,10.36,0,0,1-2-1.24A25,25,0,0,0,110.94,232.81Z"/>
        <path class="sword-20" d="M111,235.69c-.42.44-.87.87-1.34,1.28a9,9,0,0,1-1.3-.79l.75-.76a23.35,23.35,0,0,0,1.88-2.23c.43.4.83.75,1.22,1.08C111.86,234.75,111.45,235.23,111,235.69Z"/>
        <path class="sword-2" d="M102.64,246l-.31-.24,2.09-2.67A103,103,0,0,1,91.16,233l-1.92,2.42-.31-.25,2.19-2.75.16.14a100.21,100.21,0,0,0,13.54,10.29l.18.12Z"/>
    </g>
</svg>