<svg xmlns="http://www.w3.org/2000/svg" 
    xmlns:xlink="http://www.w3.org/1999/xlink" viewBox="0 0 294.54 401.1">
    <title>Hero</title>
    <g id="weapon" class="weapon-1">
        <path class="weapon-2" d="M97.49,176.2a111.53,111.53,0,0,0-26.7,1.61c4.3,4.4,9.16,8.88,13.87,12.83,0,0,19.51,2.42,28.29.22A98.41,98.41,0,0,0,97.49,176.2Z"/>
        <path class="weapon-3" d="M100.18,237.7h0A34.83,34.83,0,0,1,98.61,248a22.74,22.74,0,0,1-6.06,1s0,0,0,0l.83,1.28a19.91,19.91,0,0,0,5.94-.82,21.33,21.33,0,0,0,1.56-10.62C100.82,238.45,100.39,238.06,100.18,237.7Z"/>
        <path class="weapon-4" d="M98.61,248a34.83,34.83,0,0,0,1.54-10.29,23.66,23.66,0,0,0-5,1.05A77.69,77.69,0,0,1,92.55,249,22.74,22.74,0,0,0,98.61,248Z"/>
        <path class="weapon-5" d="M94.11,233.14a23,23,0,0,1,4.56,6.79,18.73,18.73,0,0,1-1,7.42,19.86,19.86,0,0,1-4.54.76,5.87,5.87,0,0,1-1.17-1.63,27.05,27.05,0,0,0,.84-4.88,29.22,29.22,0,0,0-2.94-6.25A19.41,19.41,0,0,1,94.11,233.14Z"/>
        <path class="weapon-5" d="M87,202a57.76,57.76,0,0,1,10.09-15.51A5.37,5.37,0,0,0,95.82,183a5,5,0,0,0-3.19-1.7,42.91,42.91,0,0,0-9,12.35C83.66,196.69,85.29,199.56,87,202Z"/>
        <path class="weapon-4" d="M77,187.17c-5.58,1.33-11,3.79-16.22,6.17a148.09,148.09,0,0,0,5.39,45.4,55.61,55.61,0,0,0,22.49-2.39c-4.76-16-9.14-32.68-11.54-49.17Z"/>
        <path class="weapon-6" d="M85.81,226.66a318.52,318.52,0,0,1-8.74-39.48H77c-5.58,1.33-11,3.79-16.22,6.17a150.32,150.32,0,0,0,.32,16.58l5.14-1.3S67,214.73,68,218.76,70.53,229,70.53,229a40.46,40.46,0,0,0,5.84-.29c3-.39,9.44-2,9.44-2Z"/>
        <path class="weapon-7" d="M96.83,232.07c-3.77-14.18-8.65-29.36-11.48-43.76-2.48-.45-7.49-1-8.28-1.13,2.4,16.49,6.78,33.14,11.54,49.17l.19-.06S94.29,233.72,96.83,232.07Z"/>
        <path class="weapon-8" d="M77.07,187.18a318.52,318.52,0,0,0,8.74,39.48,44.16,44.16,0,0,0,4.57-1.9c1.15-.59,2.78-1.57,3.83-2.21-3.21-11.32-6.66-23-8.86-34.24C82.87,187.86,77.86,187.27,77.07,187.18Z"/>
        <path class="weapon-6" d="M94.3,222.9l-.15-.56a34.91,34.91,0,0,1-8.4,4.11l.15.53h0A35.26,35.26,0,0,0,94.3,222.9Z"/>
        <path class="weapon-2" d="M85.74,226.45a51.39,51.39,0,0,1-15,2.27,150,150,0,0,1-4.31-20.15l0-.29-.29.05A30.73,30.73,0,0,0,61,209.7c0,.19,0,.38,0,.57a30.31,30.31,0,0,1,4.85-1.34,154.5,154.5,0,0,0,4.35,20.14l0,.2h.21a46.56,46.56,0,0,0,5.09-.24A51.91,51.91,0,0,0,85.9,227l-.15-.53Z"/>
        <path class="weapon-9" d="M78.89,218.48c-.09-.36-.19-.72-.28-1.08-2.42.55-4.87,1-7.31,1.41l.24,1C74,219.51,76.47,219.05,78.89,218.48Z"/>
        <path class="weapon-9" d="M77.86,214.38c-.08-.35-.17-.71-.25-1.07q-3.57.74-7.13,1.5c.06.34.12.68.19,1C73.07,215.39,75.48,214.9,77.86,214.38Z"/>
        <path class="weapon-9" d="M78.36,216.44l-.27-1.09c-2.39.52-4.81,1-7.23,1.46.07.35.14.69.22,1C73.51,217.46,76,217,78.36,216.44Z"/>
        <path class="weapon-9" d="M69.88,210.73c0,.36.09.71.14,1.06,2.29-.55,4.62-1,7-1.51-.07-.37-.15-.73-.21-1.1C74.45,209.61,72.15,210.13,69.88,210.73Z"/>
        <path class="weapon-9" d="M77.4,212.34l-.24-1.09c-2.35.47-4.7,1-7,1.53,0,.35.11.7.16,1.05C72.67,213.32,75,212.83,77.4,212.34Z"/>
        <path class="weapon-9" d="M73.41,224.75l-.48,0c.15.48.3,1,.46,1.46a71.41,71.41,0,0,0,7.39-1.3l-.45-1.47A43,43,0,0,1,73.41,224.75Z"/>
        <path class="weapon-9" d="M76.58,208.2l-.27-1.54a68.17,68.17,0,0,0-6.66,1.66c0,.47.08.94.13,1.41C72,209.14,74.3,208.63,76.58,208.2Z"/>
        <path class="weapon-9" d="M79.45,220.51c-.1-.36-.19-.72-.29-1.08a74.05,74.05,0,0,1-7.37,1.37l.27,1A54.75,54.75,0,0,0,79.45,220.51Z"/>
        <path class="weapon-9" d="M80,222.53c-.1-.36-.2-.71-.31-1.07a54.64,54.64,0,0,1-7.4,1.33l.3,1A43.35,43.35,0,0,0,80,222.53Z"/>
        <path class="weapon-10" d="M88.18,197.54A53.77,53.77,0,0,1,96.3,185.9a3.14,3.14,0,0,0-2.09-2.17,38,38,0,0,0-7.09,8.78S87.76,196.07,88.18,197.54Z"/>
        <path class="weapon-5" d="M91.7,184.56a12.14,12.14,0,0,1,1.36,1.89,9.57,9.57,0,0,1,.66,1.44,7.4,7.4,0,0,0-.32-1.58,7.2,7.2,0,0,0-1.14-2.21Z"/>
        <path class="weapon-5" d="M89.72,186.74a11.12,11.12,0,0,1,1.62,1.69,8.61,8.61,0,0,1,.84,1.35,7,7,0,0,0-.53-1.54,6.65,6.65,0,0,0-1.45-2Z"/>
        <path class="weapon-5" d="M87.64,189.41a12.26,12.26,0,0,1,1.86,1.7,9.12,9.12,0,0,1,1,1.38,8,8,0,0,0-.7-1.59,7.36,7.36,0,0,0-1.71-2.06Z"/>
        <path class="weapon-11" d="M95.58,231.48a8.63,8.63,0,0,1-3.12,1.77c-4-12-7.43-24.65-10.67-37.67-1-.41-1.73-1-2.71-1.45-.43-2-.77-4-1-6.06a23.8,23.8,0,0,1,6.4.8C88,203.17,91.46,217.61,95.58,231.48Z"/>
        <path class="weapon-2" d="M75.34,234.64c-.34,0-.67,0-1,0h-.12l0-.11a31.18,31.18,0,0,1-1.42-5.55l.35-.06a31.07,31.07,0,0,0,1.37,5.37,21.38,21.38,0,0,0,6.11-.66,41.83,41.83,0,0,1-.83-5.32h.36a45.83,45.83,0,0,0,.86,5.43l0,.17-.17,0A22.93,22.93,0,0,1,75.34,234.64Z"/>
        <path class="weapon-2" d="M63.92,209a25.72,25.72,0,0,1-.6-7.32v-.15l.13-.07a30.62,30.62,0,0,1,8.1-3.14,33.51,33.51,0,0,1-.75-9.22l.54,0a33.37,33.37,0,0,0,.79,9.33l.06.27-.26.06a29.56,29.56,0,0,0-8.08,3.06,25.09,25.09,0,0,0,.6,7Z"/>
        <path class="weapon-2" d="M75,194.14l-.37-2.78a28.3,28.3,0,0,0-5.65,2,11.2,11.2,0,0,0,.21,2.52C70.69,195.37,73.17,194.6,75,194.14Z"/>
        <path class="weapon-12" d="M74.66,194l-.28-2.07a21.47,21.47,0,0,0-4.21,1.48,8.43,8.43,0,0,0,.15,1.88C71.46,194.88,73.31,194.31,74.66,194Z"/>
        <path class="weapon-2" d="M78.76,230c.07.75.17,1.51.3,2.24a17.63,17.63,0,0,1-4.1.43,9.26,9.26,0,0,1-.63-2.06A22,22,0,0,0,78.76,230Z"/>
        <path class="weapon-12" d="M77.08,232.08a16.42,16.42,0,0,1-1.73.09,10.55,10.55,0,0,1-.42-1.35c.33,0,.66,0,1-.07a22,22,0,0,0,2.68-.43c0,.54.12,1,.2,1.5A15.63,15.63,0,0,1,77.08,232.08Z"/>
        <path class="weapon-2" d="M64.93,234.25l-.07-.36,3.09-.6a95.15,95.15,0,0,1-3.19-15.12l-2.82.54-.06-.36,3.2-.6,0,.19a93.81,93.81,0,0,0,3.26,15.44l0,.19Z"/>
        <path class="weapon-6" d="M84.84,144.15a95.66,95.66,0,0,0-14.08,33.63l0,0a112.38,112.38,0,0,1,26.36-1.63,141.76,141.76,0,0,0,15.76-34.49A86.23,86.23,0,0,0,84.84,144.15Z"/>
        <path class="weapon-13" d="M113.2,141.71l-.29,0a141.76,141.76,0,0,1-15.76,34.49l.34,0A98.41,98.41,0,0,1,113,190.86l.24-.06a112.27,112.27,0,0,0,13.24-38.7C122.78,147.9,113.2,141.71,113.2,141.71Z"/>
        <path class="weapon-2" d="M85.47,166.67l.42-.92a70.65,70.65,0,0,0,3.37-8.66A43.8,43.8,0,0,0,77.13,159l-.31-1.07A45.16,45.16,0,0,1,90,156h.75l-.21.72a65,65,0,0,1-3.23,8.63,71,71,0,0,1,15.82-.33l-.12,1.11a70.49,70.49,0,0,0-16.54.44Z"/>
        <path class="weapon-14" d="M170.51,216.82a3.14,3.14,0,0,1,2.65,2,4,4,0,0,1-.18,3.75,11,11,0,0,0,1.86,1.81,12,12,0,0,1-2.81-2.14Z"/>
        <path class="weapon-15" d="M104.52,236.27l66.12-19.5a4.59,4.59,0,0,1,2.2,2.2,4.26,4.26,0,0,1-.36,3.28l-66.11,19.5Z"/>
        <path class="weapon-16" d="M105.18,240.71l66.68-18.87s1.23-2.12-3.19-1.08L104.8,239.31Z"/>
        <path class="weapon-17" d="M106.56,236.11l29.66-8.8A197.64,197.64,0,0,1,106.56,236.11Z"/>
        <path class="weapon-18" d="M138.57,226.81l29.67-8.8A197.54,197.54,0,0,1,138.57,226.81Z"/>
        <path class="weapon-19" d="M106,241.22l65.9-19.38s.53-.35.38-1.54l-66.66,19.52Z"/>
        <path class="weapon-20" d="M68.31,246.55a21,21,0,0,1,8.62-2.69c5.68-.71,26-7.2,26-7.2l2.38,4.72-.52,1.41s-18.54,5.44-25.54,7.91c0,0-4.85,3.2-8.62,2.69a9.3,9.3,0,0,1-2.5-1.37,16.22,16.22,0,0,1-1.17-2.81Z"/>
        <path class="weapon-21" d="M68.53,251.8l0-.06a13.51,13.51,0,0,1-1-2.49l1.22-2.38A21.86,21.86,0,0,1,77,244.31c5.3-.66,22.81-6.18,25.68-7.09l2.12,4.19-.37,1c-2.13.63-18.83,5.55-25.34,7.85l-.1.05s-4.71,3.07-8.25,2.63a10,10,0,0,1-2.2-1.14Z"/>
        <path class="weapon-22" d="M81.07,243.49A50.53,50.53,0,0,0,82.94,249l.44-.14a50.61,50.61,0,0,1-1.87-5.44Zm-2.79.61a33.19,33.19,0,0,0,2,5.76l.44-.15a33.58,33.58,0,0,1-2-5.69Zm1.39-.28a41.93,41.93,0,0,0,1.92,5.59l.44-.14a40,40,0,0,1-1.91-5.55Zm2.79-.67c.53,1.82,1.16,3.61,1.84,5.38l.44-.14c-.68-1.76-1.31-3.55-1.83-5.36Zm1.39-.36c.55,1.78,1.16,3.55,1.81,5.31l.44-.14c-.64-1.75-1.25-3.51-1.8-5.29ZM73.3,245l-.44.12c0,.16.06.32.08.47a23.2,23.2,0,0,0,2.28,6.57l.44-.17a24.28,24.28,0,0,1-2.19-6.1C73.41,245.63,73.35,245.33,73.3,245Zm-1.35.4-.43.15c0,.15,0,.3.07.45a21.82,21.82,0,0,0,2.31,6.59l.45-.13a22,22,0,0,1-2.24-6.17C72.05,246,72,245.73,72,245.43Zm5.49-1.18-.45.06h0c0,.11,0,.21.07.31a32.66,32.66,0,0,0,1.92,5.7h0l.1-.05.33-.11a34,34,0,0,1-1.92-5.66C77.47,244.41,77.46,244.33,77.44,244.25Zm7.81-1.83c.57,1.75,1.17,3.5,1.78,5.25l.44-.14c-.61-1.74-1.21-3.48-1.78-5.24Zm-9.21,2-.45.07c0,.14,0,.27.08.4A29.36,29.36,0,0,0,77.75,251l.41-.23a30.27,30.27,0,0,1-2-5.79Zm-1.82.35c0,.18.06.35.1.53a25.86,25.86,0,0,0,2.18,6.32l.4-.19a24.75,24.75,0,0,1-2.33-6.74Zm18-4.36a43.25,43.25,0,0,1,1.7,5.12l.44-.13a45.11,45.11,0,0,0-1.69-5.12Zm6.7-2a23.66,23.66,0,0,1,1.76,5.12l.43-.12a25.55,25.55,0,0,0-1.75-5.14Zm-1.35.42a26.13,26.13,0,0,1,1.75,5.11l.43-.13A29.43,29.43,0,0,0,98,238.69Zm-1.36.41a30.5,30.5,0,0,1,1.75,5.11l.43-.13a31.72,31.72,0,0,0-1.74-5.11ZM86.63,242c.6,1.74,1.18,3.47,1.77,5.21l.44-.13q-.87-2.61-1.76-5.2Zm13.6-4a21.54,21.54,0,0,1,1.76,5.14l.43-.13a23.71,23.71,0,0,0-1.75-5.15Zm1.79-.56-.44.14a19.45,19.45,0,0,1,1.77,5.16l.43-.13A21.34,21.34,0,0,0,102,237.43Zm-14,4.21c.62,1.72,1.2,3.44,1.75,5.18l.44-.14q-.83-2.6-1.74-5.16Zm1.39-.39c.64,1.69,1.21,3.41,1.73,5.15l.44-.14c-.52-1.73-1.09-3.45-1.73-5.14ZM93.55,240a37.88,37.88,0,0,1,1.69,5.12l.44-.13A37.43,37.43,0,0,0,94,239.9Zm-2.75.81c.65,1.68,1.21,3.4,1.71,5.14l.44-.13c-.5-1.74-1.06-3.46-1.71-5.14Zm4-1.19a36.17,36.17,0,0,1,1.74,5.11l.43-.13a38.4,38.4,0,0,0-1.73-5.11Zm-24.19,6.27-.43.18c0,.16,0,.33.07.49a19.47,19.47,0,0,0,2.23,6.32l.49-.08a19.92,19.92,0,0,1-2.23-6.11C70.7,246.46,70.66,246.19,70.62,245.92Z"/>
        <path class="weapon-23" d="M68.16,246.1A8.33,8.33,0,0,0,66,249.44a10,10,0,0,1,.64,2.58s2.63,1.91,3.71,1.66a44.19,44.19,0,0,1-1.94-5.26Z"/>
        <path class="weapon-24" d="M66.12,252.78a1.93,1.93,0,1,1-1.39-3.6c1-.38,1.8.26,2.18,1.26A1.64,1.64,0,0,1,66.12,252.78Z"/>
        <path class="weapon-25" d="M64.27,252.23a1.69,1.69,0,0,1-.43-.63,1.7,1.7,0,0,1,1-2.2,1.22,1.22,0,0,1,1.33.25,2.42,2.42,0,0,1,.56.87,2.07,2.07,0,0,1,.11,1.25,1.2,1.2,0,0,1-.77.8,1.67,1.67,0,0,1-1.77-.34Z"/>
        <path class="weapon-26" d="M65.61,252.48c-.07.21-.39.3-.7.2s-.52-.35-.45-.56.3-.05.62,0S65.68,252.27,65.61,252.48Z"/>
        <path class="weapon-24" d="M67.91,246a16.22,16.22,0,0,0,2.32,8,.46.46,0,0,0,.78-.48A15.37,15.37,0,0,1,68.83,246a.46.46,0,0,0-.92,0Z"/>
        <path class="weapon-27" d="M70.48,253.9a.1.1,0,0,1,0-.06A15.83,15.83,0,0,1,68.14,246a.2.2,0,0,1,.13-.2.24.24,0,0,1,.27,0,.17.17,0,0,1,.06.14,15.44,15.44,0,0,0,2.22,7.63.2.2,0,0,1-.06.29.21.21,0,0,1-.28,0Z"/>
        <path class="weapon-28" d="M106.76,242a13.51,13.51,0,0,1-1.87-6.12,8.35,8.35,0,0,0-2.16-1.06c-.37.07-.26,5.94,2.74,9A5.89,5.89,0,0,0,106.76,242Z"/>
        <path class="weapon-24" d="M105.71,243.79a14.21,14.21,0,0,1-2.57-9c0-.59-.89-.55-.92,0a15,15,0,0,0,2.7,9.47c.36.47,1.14,0,.79-.49Z"/>
        <path class="weapon-29" d="M102.87,234.62a.2.2,0,0,1,0,.14,14.41,14.41,0,0,0,2.61,9.17.15.15,0,0,1,0,.24.27.27,0,0,1-.35,0l0,0a14.88,14.88,0,0,1-2.66-9.32.23.23,0,0,1,.15-.22.28.28,0,0,1,.27,0Z"/>
        <path class="weapon-30" d="M176.72,205.81a.51.51,0,0,0-.09-.16l-.13-.1L167,200.38a.46.46,0,0,0-.63.61L171,210.1l.07.09.1.09c.07,0,1.62.95,3.82-1.07S176.76,206,176.72,205.81Z"/>
        <path class="weapon-31" d="M175.65,206.4a3.52,3.52,0,0,1,.11,2c1.24-1.49,1-2.45,1-2.57a.51.51,0,0,0-.09-.16l-.13-.1L167,200.38l-.08,0-.06.06S175.16,205.71,175.65,206.4Z"/>
        <path class="weapon-32" d="M171.05,210.19l.1.09c.07,0,1.62.95,3.82-1.07l.24-.23a.12.12,0,0,0-.12,0c-.52.34-1.59.16-3.92-2.06a41.76,41.76,0,0,1-4.74-5.81l-.05,0,4.6,9Z"/>
        <path class="weapon-33" d="M166.56,200.82s6.43,8.69,8.38,7.91c0,0,1.32-.93.31-2C173,204.42,166.56,200.82,166.56,200.82Z"/>
        <path class="weapon-34" d="M168.79,205.17s3.69,4.16,5.17,4.38a4.27,4.27,0,0,1-2.47.48C171.06,209.88,168.79,205.17,168.79,205.17Z"/>
        <path class="weapon-35" d="M176.72,205.81a.51.51,0,0,0-.09-.16l-.13-.1L167,200.38a.46.46,0,0,0-.63.61L171,210.1l.07.09.1.09c.07,0,1.62.95,3.82-1.07S176.76,206,176.72,205.81Z"/>
        <path class="weapon-30" d="M185,207.72a.34.34,0,0,0,.05-.17.5.5,0,0,0,0-.17l-2.8-10.49a.47.47,0,0,0-.43-.34.46.46,0,0,0-.45.31L178,206.5l0,.11a.66.66,0,0,0,0,.14c0,.08.42,1.83,3.4,2S185,207.85,185,207.72Z"/>
        <path class="weapon-36" d="M183.87,207.35c-.08.43-.74,1-1.36,1.45,1.93-.13,2.46-1,2.52-1.08a.34.34,0,0,0,.05-.17.5.5,0,0,0,0-.17l-2.8-10.49,0-.07h-.09S184,206.52,183.87,207.35Z"/>
        <path class="weapon-37" d="M178,206.61a.66.66,0,0,0,0,.14c0,.08.42,1.83,3.4,2l.34,0a.15.15,0,0,0-.11-.07c-.61-.14-1.21-1-1.19-4.27a41.8,41.8,0,0,1,1-7.43v0L178,206.5Z"/>
        <path class="weapon-38" d="M181.68,196.92s-1.9,10.64,0,11.52c0,0,1.58.32,1.65-1.14C183.51,204.09,181.68,196.92,181.68,196.92Z"/>
        <path class="weapon-39" d="M180.05,201.52s-.49,5.54.37,6.77c0,0-1.65-.59-2-1.47C178.19,206.4,180.05,201.52,180.05,201.52Z"/>
        <path class="weapon-40" d="M185,207.72a.34.34,0,0,0,.05-.17.5.5,0,0,0,0-.17l-2.8-10.49a.47.47,0,0,0-.43-.34.46.46,0,0,0-.45.31L178,206.5l0,.11a.66.66,0,0,0,0,.14c0,.08.42,1.83,3.4,2S185,207.85,185,207.72Z"/>
        <path class="weapon-30" d="M182.82,223.8a.66.66,0,0,0,.05.15l.1.11,7.22,5.72a.39.39,0,0,0,.46,0,.4.4,0,0,0,.15-.44l-2.56-8.3,0-.08a.39.39,0,0,0-.08-.1c-.05,0-1.21-1-3.35.34S182.8,223.68,182.82,223.8Z"/>
        <path class="weapon-41" d="M183.8,223.47a3,3,0,0,1,.19-1.68c-1.25,1.07-1.18,1.91-1.17,2a.66.66,0,0,0,.05.15l.1.11,7.22,5.72.06,0,.06,0S184.11,224.12,183.8,223.47Z"/>
        <path class="weapon-42" d="M188.2,221a.39.39,0,0,0-.08-.1c-.05,0-1.21-1-3.35.34l-.23.16a.15.15,0,0,0,.11,0c.48-.21,1.35.1,3,2.3a35,35,0,0,1,3.11,5.55l0,0-2.53-8.19Z"/>
        <path class="weapon-43" d="M190.58,229.46s-4.1-8.21-5.85-7.84c0,0-1.23.59-.54,1.62C185.7,225.51,190.58,229.46,190.58,229.46Z"/>
        <path class="weapon-44" d="M189.35,225.51s-2.47-4-3.68-4.43a3.62,3.62,0,0,1,2.13,0C188.15,221.23,189.35,225.51,189.35,225.51Z"/>
        <path class="weapon-45" d="M182.82,223.8a.66.66,0,0,0,.05.15l.1.11,7.22,5.72a.39.39,0,0,0,.46,0,.4.4,0,0,0,.15-.44l-2.56-8.3,0-.08a.39.39,0,0,0-.08-.1c-.05,0-1.21-1-3.35.34S182.8,223.68,182.82,223.8Z"/>
        <path class="weapon-30" d="M190.76,215.05h.11L191,215l5.18-4.07a.33.33,0,0,0,.09-.36.3.3,0,0,0-.27-.24l-6.11-.31h-.06a.2.2,0,0,0-.08,0s-.92.66-.37,2.72S190.67,215,190.76,215.05Z"/>
        <path class="weapon-46" d="M190.71,214.19c-.26,0-.72-.3-1.11-.63.5,1.28,1.09,1.47,1.16,1.49h.11L191,215l5.18-4.07,0,0v-.06S191.2,214.12,190.71,214.19Z"/>
        <path class="weapon-47" d="M189.79,210a.2.2,0,0,0-.08,0s-.92.66-.37,2.72l.07.23a.11.11,0,0,0,0-.09c0-.43.31-1,2.1-1.69a20.5,20.5,0,0,1,4.33-.89l0,0-6-.3Z"/>
        <path class="weapon-48" d="M196,210.53s-6.32.93-6.38,2.4c0,0,.18,1.14,1,.88C192.43,213.26,196,210.53,196,210.53Z"/>
        <path class="weapon-49" d="M193.08,210.39s-3.18.81-3.67,1.65a3.3,3.3,0,0,1,.35-1.69A17.32,17.32,0,0,1,193.08,210.39Z"/>
        <path class="weapon-50" d="M190.76,215.05h.11L191,215l5.18-4.07a.33.33,0,0,0,.09-.36.3.3,0,0,0-.27-.24l-6.11-.31h-.06a.2.2,0,0,0-.08,0s-.92.66-.37,2.72S190.67,215,190.76,215.05Z"/>
        <path class="weapon-30" d="M172.49,222.38a.36.36,0,0,0-.11.1l-.06.11L170,230.48a.37.37,0,0,0,.14.39.36.36,0,0,0,.42,0l6-4.86.06-.07a.19.19,0,0,0,0-.09c0-.05.45-1.35-1.38-2.67S172.58,222.33,172.49,222.38Z"/>
        <path class="weapon-51" d="M173.08,223.09a2.66,2.66,0,0,1,1.46-.39c-1.29-.69-2-.36-2-.32a.36.36,0,0,0-.11.1l-.06.11L170,230.48v.06l.05,0S172.65,223.56,173.08,223.09Z"/>
        <path class="weapon-52" d="M176.61,225.92a.19.19,0,0,0,0-.09c0-.05.45-1.35-1.38-2.67l-.21-.14a.16.16,0,0,0,0,.09c.33.32.36,1.15-.93,3.22a31.63,31.63,0,0,1-3.58,4.42v0l6-4.8Z"/>
        <path class="weapon-53" d="M170.34,230.7s5.47-6.12,4.58-7.45c0,0-.89-.83-1.52.08C172,225.34,170.34,230.7,170.34,230.7Z"/>
        <path class="weapon-54" d="M173.22,228.38s2.53-3.38,2.47-4.53c0,0,.83,1.05.73,1.77C176.37,226,173.22,228.38,173.22,228.38Z"/>
        <path class="weapon-55" d="M172.49,222.38a.36.36,0,0,0-.11.1l-.06.11L170,230.48a.37.37,0,0,0,.14.39.36.36,0,0,0,.42,0l6-4.86.06-.07a.19.19,0,0,0,0-.09c0-.05.45-1.35-1.38-2.67S172.58,222.33,172.49,222.38Z"/>
        <path class="weapon-30" d="M191.38,220.65a.31.31,0,0,0,.13.06h.12l8.17-1.07a.36.36,0,0,0,.3-.29.36.36,0,0,0-.19-.37L193,215.47l-.07,0h-.11c-.06,0-1.42.14-1.87,2.36S191.29,220.59,191.38,220.65Z"/>
        <path class="weapon-56" d="M191.78,219.82c-.32-.1-.68-.66-1-1.17-.1,1.46.48,1.94.56,2a.31.31,0,0,0,.13.06h.12l8.17-1.07.06,0v-.06S192.38,220,191.78,219.82Z"/>
        <path class="weapon-57" d="M192.92,215.44h-.11c-.06,0-1.42.14-1.87,2.36,0,.09,0,.17,0,.25A.14.14,0,0,0,191,218c.16-.43.9-.8,3.32-.47a31.28,31.28,0,0,1,5.5,1.45h0L193,215.47Z"/>
        <path class="weapon-58" d="M199.84,219.19s-7.82-2.47-8.67-1.12c0,0-.39,1.16.7,1.35C194.27,219.86,199.84,219.19,199.84,219.19Z"/>
        <path class="weapon-59" d="M196.54,217.52s-4.12-.91-5.13-.39c0,0,.61-1.19,1.3-1.39C193.05,215.64,196.54,217.52,196.54,217.52Z"/>
        <path class="weapon-60" d="M191.38,220.65a.31.31,0,0,0,.13.06h.12l8.17-1.07a.36.36,0,0,0,.3-.29.36.36,0,0,0-.19-.37L193,215.47l-.07,0h-.11c-.06,0-1.42.14-1.87,2.36S191.29,220.59,191.38,220.65Z"/>
        <path class="weapon-61" d="M173.37,223.76a11.42,11.42,0,1,1,16.15-.31A11.41,11.41,0,0,1,173.37,223.76Z"/>
        <path class="weapon-62" d="M173.76,223.36a10.86,10.86,0,1,1,15.35-.3A10.85,10.85,0,0,1,173.76,223.36Z"/>
        <path class="weapon-63" d="M174.28,222.82a10.11,10.11,0,1,1,14.29-.28A10.11,10.11,0,0,1,174.28,222.82Z"/>
        <path class="weapon-30" d="M173.64,222.54a9.6,9.6,0,1,1,13.58-.26A9.6,9.6,0,0,1,173.64,222.54Z"/>
        <path class="weapon-64" d="M173.58,222.72a5.71,5.71,0,1,1,7.47-3.05A5.72,5.72,0,0,1,173.58,222.72Z"/>
        <path class="weapon-65" d="M184.49,217a3.41,3.41,0,1,1,4.47-1.82A3.41,3.41,0,0,1,184.49,217Z"/>
        <path class="weapon-66" d="M189.67,216.91c-.19,0-.29-.43-.23-.91s.27-.85.46-.83.29.44.22.92S189.86,216.94,189.67,216.91Z"/>
        <path class="weapon-67" d="M189.16,218.84a.27.27,0,1,1,.37-.39.27.27,0,0,1-.37.39Z"/>
        <path class="weapon-68" d="M185.18,224a.24.24,0,0,1,0-.33.22.22,0,0,1,.32,0,.23.23,0,0,1,0,.32A.24.24,0,0,1,185.18,224Z"/>
        <path class="weapon-69" d="M185.58,209.58c-1.55-1.49-2.19-3.33-1.44-4.1s2.6-.21,4.15,1.28,2.19,3.32,1.44,4.1S187.13,211.06,185.58,209.58Z"/>
        <path class="weapon-30" d="M189.53,210.74a.65.65,0,0,0,.15-.1l.09-.14,4.29-10a.46.46,0,0,0-.12-.53.48.48,0,0,0-.55,0l-8.65,5.47-.08.07a.5.5,0,0,0-.08.12c0,.06-.81,1.69,1.4,3.7S189.39,210.8,189.53,210.74Z"/>
        <path class="weapon-70" d="M188.85,209.73a3.46,3.46,0,0,1-2,.3c1.59,1.09,2.53.76,2.65.71a.65.65,0,0,0,.15-.1l.09-.14,4.29-10s0-.05,0-.07l-.06-.06S189.49,209.18,188.85,209.73Z"/>
        <path class="weapon-71" d="M184.66,205.49a.5.5,0,0,0-.08.12c0,.06-.81,1.69,1.4,3.7l.26.22a.19.19,0,0,0-.05-.12c-.39-.48-.3-1.56,1.71-4.09a41,41,0,0,1,5.36-5.24l0-.05-8.54,5.39Z"/>
        <path class="weapon-72" d="M193.58,200.18s-8.08,7.19-7.12,9.06c0,0,1,1.22,2,.12C190.58,206.94,193.58,200.18,193.58,200.18Z"/>
        <path class="weapon-73" d="M189.46,202.79s-3.82,4.05-3.91,5.55a4.18,4.18,0,0,1-.69-2.42C185,205.47,189.46,202.79,189.46,202.79Z"/>
        <path class="weapon-74" d="M188.89,208.47c-.14-.09.36-.92.93-1.81s1-1.5,1.13-1.41-.2.88-.77,1.77S189,208.56,188.89,208.47Z"/>
        <path class="weapon-75" d="M177.92,222.72a2.91,2.91,0,1,1,4.36-1A3.19,3.19,0,0,1,177.92,222.72Z"/>
        <path class="weapon-30" d="M180.46,222.83s2.17-1,1.8-2.56a3.33,3.33,0,0,0-3.15-2.68,2.91,2.91,0,0,0-2.58,1.2c-1.23,1.82.14,2.09.26,3.24s.69,4.44,1.18,4.59S180.46,222.83,180.46,222.83Z"/>
        <path class="weapon-76" d="M176.53,218.79c-1.23,1.82.14,2.09.26,3.24s.69,4.44,1.18,4.59c.07,0,.17,0,.29-.16.07-1.91.26-6.27.49-7.16.3-1.14,1.83-1.26,1.83-1.26v0a4.21,4.21,0,0,0-1.47-.43A2.91,2.91,0,0,0,176.53,218.79Z"/>
        <path class="weapon-77" d="M180.86,221.47c-.86.81-1.74,3.34-2,4.26.74-1.13,1.64-2.9,1.64-2.9s2.17-1,1.8-2.56a3.44,3.44,0,0,0-.63-1.38A3.28,3.28,0,0,1,180.86,221.47Z"/>
        <path class="weapon-78" d="M177.75,218.11a2.35,2.35,0,0,0-.93,3.23l.91,4.2c0-1.07-.09-2.13-.13-3.19C177.53,220.88,177.15,219.54,177.75,218.11Z"/>
        <path class="weapon-79" d="M181.14,219.12a2,2,0,0,1-.4,2,30.23,30.23,0,0,0-2.12,4.23l.26-4.1S179.34,218.52,181.14,219.12Z"/>
        <path class="weapon-80" d="M180.7,220.93c.11,0-.15.58-.45,1.15s-.52.95-.63.89,0-.56.33-1.12S180.58,220.87,180.7,220.93Z"/>
        <path class="weapon-81" d="M190.45,214.65a2.82,2.82,0,0,0-3.33-2.14c-1.46.45-2.33,2.32-1.83,4.22s2.27,3,3.75,2.22A3.59,3.59,0,0,0,190.45,214.65Z"/>
        <path class="weapon-30" d="M190.25,217.11s-1.14,2.24-2.64,1.73a3.14,3.14,0,0,1-2-3.66,3.06,3.06,0,0,1,1.66-2.34c1.78-.81,1.82.44,2.77.71s3.38,1.15,3.47,1.59S190.25,217.11,190.25,217.11Z"/>
        <path class="weapon-82" d="M187.24,212.84c1.78-.81,1.82.44,2.77.71s3.38,1.15,3.47,1.59c0,.06,0,.14-.14.24a56.28,56.28,0,0,0-6-.36c-1.16.16-1.62,1.77-1.62,1.77h0a4.26,4.26,0,0,1-.1-1.61A3.06,3.06,0,0,1,187.24,212.84Z"/>
        <path class="weapon-83" d="M189,217.4a10.84,10.84,0,0,1,3.77-1.6c-.93.58-2.51,1.31-2.51,1.31s-1.14,2.24-2.64,1.73a2.85,2.85,0,0,1-1.26-.82A3.09,3.09,0,0,0,189,217.4Z"/>
        <path class="weapon-84" d="M186.38,213.88s1.46-1.74,3.05-.41l3.25,1.35-2.5-.51C188.94,214.06,187.82,213.52,186.38,213.88Z"/>
        <path class="weapon-85" d="M186.69,217.5a1.78,1.78,0,0,0,2-.25,23.55,23.55,0,0,1,3.81-1.66l-3.42-.2S186.45,215.52,186.69,217.5Z"/>
        <path class="weapon-86" d="M188.51,217.18c0,.12.56-.1,1.11-.35s.89-.43.85-.54-.48,0-1,.22S188.48,217.06,188.51,217.18Z"/>
        <path class="weapon-87" d="M180.34,207.68a2.83,2.83,0,0,1,2.76,2.85c-.16,1.51-1.82,2.74-3.78,2.62s-3.36-1.64-2.92-3.24A3.61,3.61,0,0,1,180.34,207.68Z"/>
        <path class="weapon-30" d="M178,208.36s-2,1.56-1.18,2.93a3.14,3.14,0,0,0,4,1.27,3.07,3.07,0,0,0,2-2.09c.44-1.9-.79-1.69-1.24-2.57s-1.8-3.1-2.24-3.09S178,208.36,178,208.36Z"/>
        <path class="weapon-88" d="M182.75,210.47c.44-1.9-.79-1.69-1.24-2.57s-1.8-3.1-2.24-3.09c-.07,0-.14.07-.21.18a57.06,57.06,0,0,1,1.53,5.83c.08,1.17-1.41,1.94-1.41,1.94v0a4.33,4.33,0,0,0,1.6-.22A3.07,3.07,0,0,0,182.75,210.47Z"/>
        <path class="weapon-89" d="M177.93,209.66a10.83,10.83,0,0,0,.83-4,28.08,28.08,0,0,0-.79,2.72s-2,1.56-1.18,2.93a3,3,0,0,0,1.05,1.08A3.1,3.1,0,0,1,177.93,209.66Z"/>
        <path class="weapon-90" d="M181.9,211.52s1.41-1.78-.2-3.07l-2-2.93,1,2.36C181.22,209.05,182,210,181.9,211.52Z"/>
        <path class="weapon-91" d="M178.29,211.93a1.79,1.79,0,0,1-.15-2,24.27,24.27,0,0,0,.88-4.06l.87,3.31S180.27,211.77,178.29,211.93Z"/>
        <path class="weapon-92" d="M178.24,210.08c-.13,0,0-.57.13-1.16s.24-1,.36-.94.12.47,0,1S178.37,210.09,178.24,210.08Z"/>
        <path class="weapon-93" d="M193.88,219.4c0-.13.59-.16,1.23-.17s1.09,0,1.09.12-.51.24-1.16.25S193.88,219.52,193.88,219.4Z"/>
        <path class="weapon-94" d="M171.16,213.42c.37-1.81,1.4-3.12,2.31-2.94s1.35,1.8,1,3.61-1.41,3.12-2.31,2.94S170.8,215.23,171.16,213.42Z"/>
        <path class="weapon-30" d="M173.63,211.07l-.15-.07a.38.38,0,0,0-.15,0l-9.69.64a.39.39,0,0,0-.36.31.39.39,0,0,0,.2.42l8,4.45a.19.19,0,0,0,.09,0l.12,0c.07,0,1.68-.06,2.3-2.54S173.73,211.16,173.63,211.07Z"/>
        <path class="weapon-95" d="M173.13,212c.36.13.77.78,1.08,1.38.17-1.64-.49-2.23-.58-2.3l-.15-.07a.38.38,0,0,0-.15,0l-9.69.64-.07,0,0,.07S172.42,211.72,173.13,212Z"/>
        <path class="weapon-96" d="M171.61,216.85l.12,0c.07,0,1.68-.06,2.3-2.54a2.68,2.68,0,0,0,.07-.27.13.13,0,0,0-.08.08c-.21.48-1.1.84-4,.31a39.72,39.72,0,0,1-6.43-2h0l7.93,4.39A.19.19,0,0,0,171.61,216.85Z"/>
        <path class="weapon-97" d="M163.58,212.13s9.13,3.34,10.19,1.87a1.11,1.11,0,0,0-.76-1.57C170.19,211.76,163.58,212.13,163.58,212.13Z"/>
        <path class="weapon-98" d="M167.41,214.25s4.83,1.32,6.05.8c0,0-.78,1.29-1.6,1.48C171.46,216.62,167.41,214.25,167.41,214.25Z"/>
        <path class="weapon-99" d="M171.57,212.35c0,.13-.6.1-1.23.05s-1.09-.1-1.08-.23.54-.19,1.18-.14S171.58,212.23,171.57,212.35Z"/>
        <path class="weapon-100" d="M183,227c-1.46.27-2.75-.11-2.88-.85s.94-1.54,2.39-1.81,2.75.12,2.89.85S184.44,226.71,183,227Z"/>
        <path class="weapon-30" d="M180.49,225.83a.57.57,0,0,0,0,.13l0,.12,3.37,7a.33.33,0,0,0,.34.18.34.34,0,0,0,.26-.28l.92-7.32a.25.25,0,0,0,0-.08l0-.1c0-.05-.54-1.24-2.57-1S180.52,225.73,180.49,225.83Z"/>
        <path class="weapon-101" d="M181.32,225.93a2.58,2.58,0,0,1,.72-1.22c-1.28.36-1.52,1-1.55,1.12a.57.57,0,0,0,0,.13l0,.12,3.37,7,0,0H184S181.33,226.54,181.32,225.93Z"/>
        <path class="weapon-102" d="M185.41,225.62l0-.1c0-.05-.54-1.24-2.57-1l-.23,0s0,0,.08,0c.43,0,1,.56,1.41,2.85a31.42,31.42,0,0,1,.4,5.4l0,0,.91-7.22A.25.25,0,0,0,185.41,225.62Z"/>
        <path class="weapon-103" d="M184.28,233s-.24-7.81-1.65-8.16c0,0-1.1,0-.94,1C182,228.19,184.28,233,184.28,233Z"/>
        <path class="weapon-104" d="M184.72,229.52s-.46-4-1.21-4.75c0,0,1.2.19,1.58.75A25,25,0,0,1,184.72,229.52Z"/>
        <path class="weapon-105" d="M182.06,227c.1,0,.25.42.4.91s.25.84.15.88-.3-.35-.45-.84S182,227,182.06,227Z"/>
        <path class="weapon-5" d="M76.75,238.23a27.91,27.91,0,0,0-1.55,5.06,80.93,80.93,0,0,1,3,7.82,5.25,5.25,0,0,1-4.92,1.68c-1.9-3-4.39-9.77-4.39-9.77A15.19,15.19,0,0,1,71,238,15.54,15.54,0,0,1,76.75,238.23Z"/>
        <path class="weapon-106" d="M73.07,241.77a26.89,26.89,0,0,1-5.72.58c-.23.22-.73.92-1,1.14v0a23.34,23.34,0,0,0,5.84-.37,73.53,73.53,0,0,0,4.94,11.5l.63-1.15A84.21,84.21,0,0,1,73.07,241.77Z"/>
        <path class="weapon-5" d="M86.2,236.38a27.48,27.48,0,0,0-.36,5.28c1.7,2.19,3.17,4.61,4.64,7a5.24,5.24,0,0,1-4.41,2.75c-2.53-2.5-6.49-8.52-6.49-8.52a15.22,15.22,0,0,1,1-5.34A15.6,15.6,0,0,1,86.2,236.38Z"/>
        <path class="weapon-107" d="M83.42,240.66A27,27,0,0,1,78,242.53c-.17.26-.5,1.06-.67,1.32v0a23.4,23.4,0,0,0,5.61-1.68,72.61,72.61,0,0,0,7.42,10.08l.35-1.26A82.55,82.55,0,0,1,83.42,240.66Z"/>
        <path class="weapon-4" d="M77.3,243.87A19.29,19.29,0,0,0,86,254.15a9,9,0,0,0,4.29-1.76l0-.12a72.61,72.61,0,0,1-7.42-10.08A23.4,23.4,0,0,1,77.3,243.87Z"/>
        <path class="weapon-4" d="M66.39,243.51a19.3,19.3,0,0,0,6.14,12,9,9,0,0,0,4.58-.74l.06-.11a73.53,73.53,0,0,1-4.94-11.5A23.34,23.34,0,0,1,66.39,243.51Z"/>
    </g>
</svg>