<svg xmlns="http://www.w3.org/2000/svg" viewBox="0 0 95.47 94" width="100" height="100">
	<g>
		<path d="M73.11,33.21H68.17V29.88a.49.49,0,0,0-.51-.48H24.05a.49.49,0,0,0-.51.48V61.5a3.23,3.23,0,0,0,3.34,3.1h43.5a3.13,3.13,0,0,0,3.24-3V33.68A.49.49,0,0,0,73.11,33.21ZM72.6,61.59a2.22,2.22,0,0,1-4.43,0V60.27a.51.51,0,0,0-1,0v1.32A2.91,2.91,0,0,0,68,63.65H26.88a2.24,2.24,0,0,1-2.31-2.15V30.36H67.15V55.8a.51.51,0,0,0,1,0V34.16H72.6V61.59ZM44.49,35.74H28.14a.5.5,0,0,0-.51.48V47.64a.49.49,0,0,0,.51.47H44.49a.49.49,0,0,0,.52-.47V36.22A.5.5,0,0,0,44.49,35.74ZM44,47.16H28.66V36.7H44Zm2.73-10.94a.5.5,0,0,1,.51-.48H63.57a.5.5,0,0,1,.51.48.49.49,0,0,1-.51.48H47.22A.49.49,0,0,1,46.71,36.22Zm0,3.81a.49.49,0,0,1,.51-.48H63.57a.49.49,0,0,1,.51.48.5.5,0,0,1-.51.48H47.22A.5.5,0,0,1,46.71,40Zm0,3.8a.49.49,0,0,1,.51-.47H63.57a.48.48,0,1,1,0,1H47.22A.49.49,0,0,1,46.71,43.83Zm.51,4.29a.48.48,0,1,1,0-1H63.57a.48.48,0,1,1,0,1ZM45,51.45a.49.49,0,0,1-.52.47H28.14a.48.48,0,1,1,0-1H44.49A.5.5,0,0,1,45,51.45Zm0,3.8a.5.5,0,0,1-.52.48H28.14a.5.5,0,0,1-.51-.48.49.49,0,0,1,.51-.48H44.49A.5.5,0,0,1,45,55.25Zm0,3.8a.5.5,0,0,1-.52.48H28.14a.48.48,0,1,1,0-1H44.49A.5.5,0,0,1,45,59.05Zm19.27-7.6a.49.49,0,0,1-.51.47H47.41a.48.48,0,1,1,0-1H63.77A.49.49,0,0,1,64.28,51.45Zm0,3.8a.5.5,0,0,1-.51.48H47.41a.5.5,0,0,1-.51-.48.49.49,0,0,1,.51-.48H63.77A.49.49,0,0,1,64.28,55.25Zm0,3.8a.5.5,0,0,1-.51.48H47.41a.48.48,0,1,1,0-1H63.77A.5.5,0,0,1,64.28,59.05Z" />
	</g>
</svg>
