<svg xmlns="http://www.w3.org/2000/svg" viewBox="0 0 95.47 94" width="100" height="100">
	<g transform="scale(0.75) translate(15 15)">
		<path d="M51.7,35.7c10.8-3.4,21.6-6.7,32.4-10c0,0.4,0,0.7,0,1.1c0,14.4,0,28.9,0,43.3c0,0.8-0.2,1.2-1,1.4
			C73,74.9,62.9,78.4,52.7,81.8c-0.3,0.1-0.6,0.2-1,0.3C51.7,66.6,51.7,51.2,51.7,35.7z"/>
		<path d="M11.4,25.3c10.8,3.5,21.5,7,32.3,10.5c0,15.4,0,30.7,0,46.2c-0.4-0.1-0.7-0.2-1-0.3c-10.1-3.4-20.2-6.9-30.3-10.3
			c-0.6-0.2-0.9-0.4-0.9-1.1c0-14.7-0.1-29.5-0.2-44.2C11.3,25.9,11.3,25.7,11.4,25.3z"/>
		<path d="M17.7,20.6c3.5-1,7-2.1,10.5-3.1c6.2-1.8,12.3-3.7,18.5-5.5c0.5-0.2,1.2-0.2,1.7-0.1c9.4,2.8,18.7,5.6,28.1,8.5
			c0.2,0.1,0.4,0.2,0.8,0.3c-0.4,0.2-0.7,0.3-0.9,0.4c-9.2,3-18.5,6-27.7,9c-0.6,0.2-1.3,0.2-1.8,0c-9.4-3-18.8-6-28.2-8.9
			c-0.3-0.1-0.6-0.2-0.8-0.3C17.7,20.8,17.7,20.7,17.7,20.6z"/>
	</g>
</svg>