<?xml version="1.0" encoding="utf-8"?>
<!-- Generator: Adobe Illustrator 24.3.0, SVG Export Plug-In . SVG Version: 6.00 Build 0)  -->
<svg version="1.1" id="Layer_1" xmlns="http://www.w3.org/2000/svg" xmlns:xlink="http://www.w3.org/1999/xlink" x="0px" y="0px"
	 viewBox="0 0 100 100" style="enable-background:new 0 0 100 100;" xml:space="preserve">
<style type="text/css">
	.st0{fill:#010101;}
</style>
<g>
	<path class="st0" d="M53,28L48,33.2l-1-1c-1-1-2.5-1-3.5,0c-1,1-1,2.5,0,3.5l2.8,2.8c1,1,2.5,1,3.5,0c0.1-0.1,0.1-0.1,0.2-0.2
		l6.7-7c0.9-1,0.9-2.5-0.1-3.5C55.5,27,54,27,53,28z"/>
	<path class="st0" d="M47.7,66.9h-1.9c-2.8,0-5.1,2.3-5.1,5.1V80c0,2.8,2.3,5.1,5.1,5.1h1.9c2.8,0,5.1-2.3,5.1-5.1v-8.1
		C52.8,69.2,50.5,66.9,47.7,66.9z M47.9,80c0,0.1-0.1,0.1-0.1,0.1h-1.9c-0.1,0-0.1-0.1-0.1-0.1v-8.1c0-0.1,0.1-0.1,0.1-0.1h1.9
		c0.1,0,0.1,0.1,0.1,0.1V80z"/>
	<path class="st0" d="M38.1,67c-1.3-0.4-2.7,0.3-3.1,1.5l-2.1,6.2l-2-6.2c-0.4-1.3-1.8-2-3.1-1.6c-1.3,0.4-2,1.8-1.6,3.1l4.3,13.3
		c0.7,2.2,4,2.3,4.7-0.1l4.4-13.1C40.1,68.9,39.4,67.5,38.1,67z"/>
	<path class="st0" d="M87.2,43.4H70.3l0-21.3c0-0.6-0.2-1.3-0.7-1.7L58,8.8C57.5,8.3,56.9,8,56.2,8H32.1c-1.4,0-2.5,1.1-2.5,2.5v33
		H12.8c-1.4,0-2.5,1.1-2.5,2.5v11.6c0,1.4,1.1,2.5,2.5,2.5h4.4v29.5c0,1.4,1.1,2.5,2.5,2.5s2.5-1.1,2.5-2.5V60h55.8v29.5
		c0,1.4,1.1,2.5,2.5,2.5s2.5-1.1,2.5-2.5V60h4.4c1.4,0,2.5-1.1,2.5-2.5V45.9C89.7,44.5,88.6,43.4,87.2,43.4z M58.7,16.5l3.2,3.2
		h-3.2V16.5z M34.6,12.9h19.2v9.2c0,1.4,1.1,2.5,2.5,2.5l9.2,0v18.9H34.6V12.9z M84.8,55.1c-23.2,0-46.3,0-69.5,0v-6.7
		c23.2,0,46.3,0,69.5,0V55.1z"/>
	<path class="st0" d="M71.4,80.2v-1.7c1.4,0,2.5-1.1,2.5-2.5c0-1.4-1.1-2.5-2.5-2.5v-1.7c1.4,0,2.5-1.1,2.5-2.5
		c0-1.4-1.1-2.5-2.5-2.5h-2.5c-1.4,0-2.5,1.1-2.5,2.5v13.3c0,1.4,1.1,2.5,2.5,2.5h2.5c1.4,0,2.5-1.1,2.5-2.5
		C73.9,81.3,72.9,80.2,71.4,80.2z"/>
	<path class="st0" d="M62.8,66.9h-6.6c-1.4,0-2.5,1.1-2.5,2.5c0,1.4,1.1,2.5,2.5,2.5h0.8v10.8c0,1.4,1.1,2.5,2.5,2.5
		c1.4,0,2.5-1.1,2.5-2.5V71.8h0.8c1.4,0,2.5-1.1,2.5-2.5C65.2,68,64.1,66.9,62.8,66.9z"/>
</g>
</svg>
