<svg xmlns="http://www.w3.org/2000/svg" viewBox="0 0 95.47 94" width="100" height="100">
	<g>
		<path d="M35.79,50.39a.86.86,0,0,0,.64-.26l3.41-3.35.08-.06.07-.08,4.55-4.47V58.64h-.3a.9.9,0,0,0,0,1.79h.3v15.8a.91.91,0,0,0,.92.9H50a.91.91,0,0,0,.92-.9V60.43h.3a.9.9,0,1,0,.07-1.79h-.37V42.17l4.55,4.47.07.08.07.07L59,50.13a.92.92,0,0,0,1.29,0h0a20.24,20.24,0,0,0,0-29h0a.92.92,0,0,0-1.29,0h0l-3.41,3.35-.08.06-.07.08L50.93,29.1V25a3.2,3.2,0,0,0-6.39,0h0V29.1L40,24.63a.75.75,0,0,0-.15-.16l-3.41-3.34a.92.92,0,0,0-1.29,0,20.23,20.23,0,0,0,0,29h0A.91.91,0,0,0,35.79,50.39ZM46.36,72.12V70.57L49.1,72v1.54ZM49.1,70l-2.74-1.43V67l2.74,1.42Zm0-3.58L46.36,65V63.42l2.74,1.43Zm-2.74,7.76,2.27,1.18H46.36ZM49.1,62.82l-2.74-1.43v-1H49.1Zm-2.74-4.18V28.38H49.1V58.64ZM59.67,23.05a18.47,18.47,0,0,1,0,25.17l-2.19-2.16a15.48,15.48,0,0,0,0-20.85Zm-3.49,3.43a13.72,13.72,0,0,1,0,18.31l-5.25-5.16v-8Zm-8.45-2.86A1.36,1.36,0,0,1,49.1,25v1.64H46.36V25a1.37,1.37,0,0,1,1.37-1.34Zm-3.19,16-5.25,5.16a13.72,13.72,0,0,1,0-18.31l5.25,5.16ZM35.81,23.05,38,25.21a15.46,15.46,0,0,0,0,20.85l-2.2,2.16A18.47,18.47,0,0,1,35.81,23.05Z" />
	</g>
</svg>
