<svg xmlns="http://www.w3.org/2000/svg" viewBox="0 0 95.47 94" width="100" height="100">
	<g>
		<path d="M69.32,63.21a.84.84,0,0,0-.31-.55l-3.48-2.37L51.69,46.45l1.11-1.1a.76.76,0,0,0,0-1.11l-1.9-1.9L53,40a5.37,5.37,0,0,0,1.85.64,6.71,6.71,0,0,0,1.1.07,1.6,1.6,0,0,1,1.43.56,1.26,1.26,0,0,0-.48,1,1.73,1.73,0,0,0,.48,1.18l2.76,2.77a2.18,2.18,0,0,0,1.66.71,2,2,0,0,0,1.66-.79l5.61-5.61a2.15,2.15,0,0,0,.72-1.66,2.24,2.24,0,0,0-.72-1.66l-2.76-2.77A1.55,1.55,0,0,0,65.21,34a2,2,0,0,0-1.11.47,1.31,1.31,0,0,1-.63-1.34,3.46,3.46,0,0,0-.16-1.19,5.46,5.46,0,0,0-1.58-3.08L58.89,26a12.86,12.86,0,0,0-4.59-3.4c-4.58-2.13-9.25-1.74-16,1.35a.71.71,0,0,0-.48.87.78.78,0,0,0,.79.63h1c3.48,0,5.3,0,8.46,3.16a3.76,3.76,0,0,1,.18,5.07.68.68,0,0,0-.42.23l-2.5,2.79L30,21.4a3.23,3.23,0,0,0-4.58,0l-2.13,2.13a3.13,3.13,0,0,0-.95,2.29,3.17,3.17,0,0,0,.95,2.3L39,43.77,23.32,61.24a3.31,3.31,0,0,0-.95,2.37,3.13,3.13,0,0,0,.95,2.29L24.42,67a3.27,3.27,0,0,0,2.22.87,3.53,3.53,0,0,0,2.29-.95l15.7-17.58,1.53,1.53a.72.72,0,0,0,.55.24.68.68,0,0,0,.48-.16l1.18-1.19L62.21,63.61l2.37,3.48a.81.81,0,0,0,.55.31l3.8.48H69a1.88,1.88,0,0,0,.64-.16.89.89,0,0,0,.23-.63ZM49.09,27.33c-2.53-2.46-4.43-3.25-6.57-3.48C47,22.42,50.35,22.5,53.67,24a10.83,10.83,0,0,1,4.19,3.08l2.85,2.84a3.76,3.76,0,0,1,1.1,2.22,4.46,4.46,0,0,1,.08,1,2.91,2.91,0,0,0,1,2.45A1.75,1.75,0,0,0,64.1,36a1.34,1.34,0,0,0,1.11-.47L68,38.31a.78.78,0,0,1,0,1.11L62.37,45a.76.76,0,0,1-1.11,0l-2.77-2.76a1.1,1.1,0,0,0,.4-1.11A1.74,1.74,0,0,0,58.41,40,2.89,2.89,0,0,0,56,39a4.55,4.55,0,0,1-1-.08,3.51,3.51,0,0,1-2.21-1.11l-3.4-3.4A5.22,5.22,0,0,0,49.09,27.33ZM24.42,27A1.64,1.64,0,0,1,24,25.82a1.61,1.61,0,0,1,.47-1.18l2.14-2.14A1.75,1.75,0,0,1,27.74,22a1.78,1.78,0,0,1,1.19.47L44.26,37.84l-1.12,1.27-3.09,3.45Zm3.4,38.81a1.58,1.58,0,0,1-1.18.48,1.56,1.56,0,0,1-1.11-.48l-1.11-1a1.57,1.57,0,0,1-.47-1.1,1.71,1.71,0,0,1,.55-1.27L48.42,35.67,51.77,39l-2.34,2.62a1.25,1.25,0,0,0-.19.15L44,47.64a.66.66,0,0,0-.17.24Zm18.89-16.6-1-1,1.57-1.78,2.56-2.86,1.32,1.24Zm4-1.66,13.2,13.36L62.76,62,49.48,48.67Zm15,18.34-1.82-2.69,1.34-1.34,2.61,1.82.32,2.53Z" />
		<path d="M41.1,38.08,27.66,24.64a.78.78,0,1,0-1.1,1.1L40,39.18a.73.73,0,0,0,.56.24.71.71,0,0,0,.55-.24A.75.75,0,0,0,41.1,38.08Z" />
	</g>
</svg>
