<svg xmlns="http://www.w3.org/2000/svg" viewBox="0 0 95.47 94" width="100" height="100">
	<g>
		<path d="M48.36,52.4a12.93,12.93,0,0,1-4.43,7.31,12.14,12.14,0,0,1-7.59,2.41q-7.14,0-10.4-4.47a17.79,17.79,0,0,1-3.26-10.76q0-7,3.83-10.9a13.2,13.2,0,0,1,9.87-3.93,12.14,12.14,0,0,1,7.26,2.16,11.34,11.34,0,0,1,4.22,6.32l-3.77.9a9,9,0,0,0-2.89-4.57,7.69,7.69,0,0,0-4.86-1.52q-4.76,0-7.22,3.12a13.18,13.18,0,0,0-2.46,8.38c0,4,.87,7,2.59,9a8.56,8.56,0,0,0,6.75,3A8.18,8.18,0,0,0,41.55,57a10.09,10.09,0,0,0,3-5.55ZM72.1,53.67H66l-1.71,8.45h-3L63,53.67H56.75L55,62.12H52l1.76-8.45H50.42V50.74h3.93l1.5-7.22H50.42V40.58h6l1.74-8.52h3l-1.71,8.52h6.23l1.75-8.52h2.95l-1.71,8.52H72.1v2.94H68l-1.45,7.22H72.1Zm-7-10.15H58.81l-1.45,7.22h6.21Z" />
	</g>
</svg>
