<svg id="Layer_1" data-name="Layer 1"
    xmlns="http://www.w3.org/2000/svg" viewBox="0 0 95.47 94" width="100" height="100">
    <title>calendar</title>
    <g>
        <path d="M57.13,30.43a3.38,3.38,0,0,0-3.31-2.7.68.68,0,1,0,0,1.35,2,2,0,1,1,0,4.06.68.68,0,1,0,0,1.35,3.38,3.38,0,0,0,3.31-2.71H66v4.74H29.48V31.78H41a.68.68,0,1,0,0-1.35H39.74a2,2,0,1,1,1.91,2.71.68.68,0,1,0,0,1.35,3.38,3.38,0,1,0-3.31-4.06H28.12V66.27H67.35V30.43Zm-8.72,7.44h8.12V46H48.41Zm8.12,17.58H48.41V47.34h8.12ZM38.94,47.34h8.12v8.11H38.94Zm0-9.47h8.12V46H38.94Zm-9.46.68v-.68h8.11V46H29.48Zm0,8.79h8.11v8.11H29.48Zm0,17.58V56.81h8.11v8.11Zm9.46,0V56.81h8.12v8.11Zm9.47,0V56.81h8.12v8.11Zm17.58,0H57.88V56.81H66Zm0-9.47H57.88V47.34H66ZM57.88,46V37.87H66V46Z"/>
        <path d="M45.71,29.08a2,2,0,0,1,0,4.06.68.68,0,1,0,0,1.35,3.38,3.38,0,1,0,0-6.76.68.68,0,1,0,0,1.35Z"/>
        <path d="M49.76,29.08a2,2,0,1,1,0,4.06.68.68,0,0,0,0,1.35,3.38,3.38,0,1,0,0-6.76.68.68,0,0,0,0,1.35Z"/>
        <path d="M49.29,54.58a.66.66,0,0,0,1,0l2.23-2.23,2.23,2.23a.68.68,0,0,0,.95-1L53.42,51.4l2.23-2.23a.68.68,0,0,0-.95-1l-2.23,2.23-2.23-2.23a.68.68,0,1,0-1,1l2.22,2.23-2.22,2.22A.67.67,0,0,0,49.29,54.58Z"/>
    </g>
</svg>