<svg xmlns="http://www.w3.org/2000/svg" viewBox="0 0 95.47 94" width="100" height="100">
	<g transform="scale(0.75) translate(15 15)">
		<path d="M46.1,8.9c7.2,0.3,13.7,4.3,17.8,12.1c0.4,0.7,0.7,0.9,1.5,0.9c12.8,0.4,22.5,11,21.9,23.8c-0.5,9.5-7.3,17.9-16.4,20.4
			c-1.5,0.4-2.7-0.1-3.1-1.5c-0.3-1.2,0.4-2.3,1.9-2.7c8.3-2.6,13.5-9.7,13.2-18.2c-0.3-9.9-9.3-18.1-19.2-17.3
			c-1.8,0.1-2.4-0.2-3-1.9c-2.8-7.3-9.8-11.7-17.7-11.2c-7.3,0.5-13.7,6-15.4,13.3c-0.4,1.5-0.4,3.2-0.4,4.8c0,1.7-0.6,2.5-2.3,2.8
			c-7.6,1.2-12.9,7.8-12.4,15.5C13,57.1,19.2,63,26.8,63.2c1.6,0.1,2.6,0.9,2.5,2.3c0,1.4-1,2.2-2.6,2.1c-9-0.1-17.1-7.2-18.3-16
			C7,42,12.6,33.2,21.7,30.5c0.8-0.2,1.1-0.6,1.2-1.5C23.6,17.7,33.1,8.9,46.1,8.9z"/>
		<path d="M36.9,77.6c0-5,0-9.7,0-14.3c0-0.4,0-0.8,0-1.2c0.1-1.3,0.9-2.2,2.1-2.2c1.2,0,2.2,0.8,2.3,2.2c0,0.7,0,1.3,0,2
			c0,4.4,0,8.8,0,13.4c0.3-0.2,0.5-0.4,0.7-0.6c1.1-1.1,2.2-2.2,3.3-3.2c1-0.9,2.2-0.9,3.1,0c0.9,0.8,0.9,2.1,0,3.1
			c-2.6,2.6-5.2,5.3-7.8,7.8c-0.9,0.9-2.1,0.8-3.1-0.1c-2.6-2.5-5.2-5.1-7.7-7.7c-0.9-0.9-0.9-2.3,0-3.1c0.9-0.9,2.2-0.8,3.1,0.1
			C34.2,74.9,35.5,76.1,36.9,77.6z"/>
		<path d="M59,57.4c0,3.4,0,6.7,0,10.1c0,1.5,0,2.9,0,4.4c0,1.5-0.8,2.4-2.1,2.4c-1.3,0-2.3-0.9-2.3-2.4c0-4.5,0-9.1,0-13.6
			c0-0.3,0-0.6,0-0.8c-0.1-0.1-0.2-0.1-0.3-0.2c-0.9,1-1.8,1.9-2.8,2.9c-0.3,0.3-0.7,0.7-1,1c-1,0.8-2.2,0.8-3,0
			c-0.9-0.8-0.9-2.1-0.1-3.1c0.9-1,1.9-1.9,2.9-2.9c1.6-1.6,3.1-3.1,4.7-4.7c1.3-1.2,2.4-1.3,3.6,0c2.4,2.4,4.9,4.9,7.3,7.3
			c1,1.1,1.1,2.4,0.2,3.3c-0.9,0.9-2.2,0.8-3.3-0.2c-1.2-1.2-2.4-2.4-3.5-3.6C59.2,57.3,59.1,57.3,59,57.4z"/>
		<path d="M36.9,55.8c0-0.4,0-0.8,0-1.2c0.1-1.2,0.9-2.1,2.1-2.1c1.1-0.1,2.2,0.8,2.3,2c0.1,1,0.1,2,0,3c-0.1,1.2-1.1,2-2.3,1.9
			c-1.2-0.1-2-0.9-2.1-2.1C36.9,56.7,36.9,56.3,36.9,55.8z"/>
		<path d="M59,78.8c0,2-0.7,3.1-2.1,3.1c-1.5,0-2.3-1.1-2.3-3.1c0-0.4,0-0.9,0.1-1.3c0.2-1.1,1.2-1.8,2.3-1.8c1.1,0.1,1.9,0.9,2,2.1
			C59,78.1,59,78.4,59,78.8z"/>
	</g>
</svg>