<svg id="Layer_1" data-name="Layer 1"
    xmlns="http://www.w3.org/2000/svg" viewBox="0 0 95.47 94" width="100" height="100">
    <defs>
        <style>.cls-1{fill:#010002}</style>
    </defs>
    <g>
        <circle class="cls-1" cx="47.66" cy="33.86" r="4.83"/>
        <path class="cls-1" d="M64.56 47.14l-4.5-.94a3.68 3.68 0 0 0-3.85 1.63 17 17 0 0 0-2.5-1v-2.7A3.69 3.69 0 0 0 50 40.45h-4.6a3.68 3.68 0 0 0-3.68 3.68v2.69a16.23 16.23 0 0 0-2.49 1 3.69 3.69 0 0 0-3.85-1.64l-4.5.94a3.68 3.68 0 0 0-2.84 4.36l1.13 5.39a3.69 3.69 0 0 0 4.35 2.85l1.42-.3a10.37 10.37 0 0 0 3 2.85 18.08 18.08 0 0 0 9.8 2.73c5.64 0 10.5-2.27 12.74-5.53l1.44.3a3.69 3.69 0 0 0 4.35-2.85l1.13-5.42a3.69 3.69 0 0 0-2.84-4.36zm-16.83 16A16.16 16.16 0 0 1 39 60.75 9.18 9.18 0 0 1 37 59l1.09-.23a3.69 3.69 0 0 0 2.85-4.35l-1-4.86a15.12 15.12 0 0 1 1.87-.83v.88a3.68 3.68 0 0 0 3.68 3.68H50a3.69 3.69 0 0 0 3.67-3.68v-.93a14.77 14.77 0 0 1 1.89.83l-1 4.91a3.69 3.69 0 0 0 2.85 4.35l1.1.23c-2.04 2.46-6.11 4.12-10.78 4.12z"/>
        <circle class="cls-1" cx="63.58" cy="40.21" r="4.83"/>
        <path class="cls-1" d="M32.88 44.93a4.83 4.83 0 1 0-5.71-3.74 4.82 4.82 0 0 0 5.71 3.74z"/>
    </g>
</svg>