<?xml version="1.0" encoding="UTF-8"?>
<svg xmlns="http://www.w3.org/2000/svg"   viewBox="0 0 95 85" version="1.1" fill="#ffffff">
<g id="surface1">
<path style=" stroke:none;fill-rule:nonzero;fill-opacity:1;" d="M 28.773438 66.238281 L 28.378906 62.878906 L 27.855469 62.609375 C 27.675781 62.527344 27.429688 62.371094 27.121094 62.144531 L 23.957031 63.464844 L 21.054688 58.457031 L 23.761719 56.410156 L 23.761719 55.027344 L 21.054688 52.917969 L 23.957031 47.90625 L 27.121094 49.230469 C 27.347656 49.09375 27.554688 48.960938 27.75 48.828125 C 27.945312 48.691406 28.160156 48.589844 28.378906 48.496094 L 28.773438 45.136719 L 34.582031 45.136719 L 34.972656 48.496094 L 35.496094 48.761719 C 35.589844 48.804688 35.695312 48.875 35.824219 48.960938 L 36.230469 49.230469 L 39.394531 47.90625 L 42.296875 52.917969 L 39.585938 54.964844 L 39.585938 56.410156 L 54.03125 48.042969 L 51.0625 53.246094 L 51.847656 53.84375 L 41.429688 59.910156 L 39.394531 63.464844 L 36.230469 62.144531 C 36.003906 62.28125 35.796875 62.414062 35.601562 62.539062 C 35.40625 62.671875 35.191406 62.785156 34.972656 62.878906 L 34.582031 66.238281 Z M 31.675781 51.730469 C 30.574219 51.730469 29.644531 52.121094 28.875 52.886719 C 28.101562 53.660156 27.71875 54.59375 27.71875 55.6875 C 27.71875 56.789062 28.101562 57.71875 28.875 58.492188 C 29.644531 59.261719 30.574219 59.640625 31.675781 59.640625 C 32.777344 59.640625 33.707031 59.25 34.476562 58.492188 C 35.25 57.726562 35.632812 56.789062 35.632812 55.6875 C 35.632812 54.582031 35.238281 53.648438 34.476562 52.886719 C 33.71875 52.121094 32.789062 51.742188 31.675781 51.730469 M 41.957031 37.226562 L 41.566406 33.855469 C 41.472656 33.773438 41.371094 33.710938 41.238281 33.664062 C 41.101562 33.621094 40.988281 33.554688 40.90625 33.464844 L 40.90625 47.972656 L 39.917969 46.261719 L 36.949219 47.507812 L 36.949219 34.0625 L 34.3125 29.449219 L 36.949219 27.40625 L 36.949219 26.015625 L 34.25 23.902344 L 37.148438 18.898438 L 40.320312 20.214844 C 40.535156 20.082031 40.742188 19.945312 40.9375 19.8125 C 41.136719 19.6875 41.339844 19.574219 41.566406 19.496094 L 41.957031 16.125 L 47.757812 16.125 L 48.160156 19.496094 L 48.683594 19.753906 C 48.859375 19.84375 49.105469 20 49.414062 20.214844 L 52.578125 18.898438 L 55.476562 23.902344 L 52.773438 25.945312 L 52.773438 27.335938 L 55.476562 29.449219 L 52.578125 34.453125 L 49.414062 33.136719 C 49.1875 33.269531 48.984375 33.40625 48.789062 33.539062 C 48.589844 33.664062 48.375 33.773438 48.160156 33.855469 L 47.757812 37.226562 Z M 44.863281 22.71875 C 43.757812 22.71875 42.832031 23.101562 42.058594 23.875 C 41.296875 24.644531 40.90625 25.574219 40.90625 26.675781 C 40.90625 27.777344 41.285156 28.707031 42.058594 29.476562 C 42.832031 30.25 43.769531 30.632812 44.863281 30.632812 C 45.953125 30.632812 46.890625 30.25 47.667969 29.476562 C 48.4375 28.71875 48.828125 27.777344 48.816406 26.675781 C 48.816406 25.574219 48.425781 24.636719 47.667969 23.875 C 46.902344 23.113281 45.964844 22.71875 44.863281 22.71875 M 60.421875 66.238281 L 60.027344 62.878906 L 59.503906 62.609375 C 59.324219 62.527344 59.078125 62.371094 58.769531 62.144531 L 55.605469 63.464844 L 52.703125 58.457031 L 55.414062 56.410156 L 55.414062 55.027344 L 52.703125 52.988281 L 55.605469 47.90625 L 58.769531 49.230469 C 58.90625 49.132812 58.996094 49.085938 59.039062 49.0625 L 60.027344 48.570312 L 45.78125 38.542969 L 48.953125 38.542969 L 49.21875 36.171875 L 62.078125 45.136719 L 66.226562 45.136719 L 66.621094 48.496094 L 67.144531 48.761719 C 67.238281 48.804688 67.34375 48.875 67.476562 48.960938 L 67.878906 49.230469 L 71.042969 47.90625 L 73.945312 52.917969 L 71.238281 54.964844 L 71.238281 56.347656 L 73.945312 58.457031 L 71.042969 63.464844 L 67.878906 62.144531 C 67.652344 62.28125 67.445312 62.414062 67.25 62.539062 C 67.054688 62.671875 66.839844 62.785156 66.621094 62.878906 L 66.226562 66.238281 Z M 63.324219 51.730469 C 62.222656 51.730469 61.292969 52.121094 60.523438 52.886719 C 59.75 53.660156 59.367188 54.59375 59.367188 55.6875 C 59.367188 56.789062 59.75 57.71875 60.523438 58.492188 C 61.292969 59.261719 62.222656 59.640625 63.324219 59.640625 C 64.425781 59.640625 65.355469 59.25 66.125 58.492188 C 66.898438 57.726562 67.28125 56.789062 67.28125 55.6875 C 67.28125 54.582031 66.886719 53.648438 66.125 52.886719 C 65.367188 52.121094 64.4375 51.742188 63.324219 51.730469 "/>
</g>
</svg>
