<svg data-name="Layer 1"
    xmlns="http://www.w3.org/2000/svg" viewBox="0 0 95.47 94" width="100" height="100">
    <g>
        <path d="M64.73 29.42h-34a.59.59 0 0 0-.58.59V51.1a.59.59 0 0 0 .58.59h5.87v1.06a3.51 3.51 0 0 0-.36 5.83 5.27 5.27 0 0 0-3.15 4.83V64a.59.59 0 0 0 .58.59H61.8a.59.59 0 0 0 .58-.59v-.58a5.27 5.27 0 0 0-3.15-4.83 3.51 3.51 0 0 0-.36-5.83v-1.07h5.86a.59.59 0 0 0 .58-.59V30a.59.59 0 0 0-.58-.58zM36 55.79a2.34 2.34 0 1 1 2.34 2.34A2.35 2.35 0 0 1 36 55.79zm-1.76 7.62a4.1 4.1 0 1 1 8.2 0zm6.23-4.83a3.49 3.49 0 0 0 .53-5.14h4.15a3.51 3.51 0 0 0 .49 5.14A5.28 5.28 0 0 0 43.05 61a5.33 5.33 0 0 0-2.56-2.42zm4.9-2.79a2.35 2.35 0 1 1 2.35 2.34 2.35 2.35 0 0 1-2.33-2.34zm-1.76 7.62a4.11 4.11 0 1 1 8.21 0zm6.23-4.83a3.51 3.51 0 0 0 .49-5.14h4.17a3.49 3.49 0 0 0 .5 5.14A5.33 5.33 0 0 0 52.42 61a5.28 5.28 0 0 0-2.56-2.42zm11.35 4.83H53a4.1 4.1 0 1 1 8.2 0zm-1.76-7.62a2.34 2.34 0 1 1-2.34-2.35 2.34 2.34 0 0 1 2.36 2.35zm-1.17-8.2h-1.74v1.17h1.18v3.51H37.77v-4.1a.58.58 0 0 0-.58-.58h-1.76v-1.18H60v1.18zm-7.07-8.79a3 3 0 0 1 1.83.64L55 41a.61.61 0 0 0 .45.13.64.64 0 0 0 .4-.24l2.58-3.62 1.4 1-2.87 4a1.77 1.77 0 0 1-1.21.71 1.72 1.72 0 0 1-1.34-.4l-1.61-1.3a.58.58 0 0 0-1 .45v3.51h-3.48V40h-1.17v5.27h-3.52v-3.54a.58.58 0 0 0-1-.45l-1.55 1.32a1.72 1.72 0 0 1-1.34.4 1.77 1.77 0 0 1-1.21-.71l-2.87-4 1.4-1 2.58 3.62a.64.64 0 0 0 .4.24.61.61 0 0 0 .45-.13l2-1.57a3 3 0 0 1 1.83-.64zm-5.8-3.52a2.35 2.35 0 1 1 2.35 2.35 2.35 2.35 0 0 1-2.35-2.35zm18.75 15.24h-5.27v-1.76h1.75a.58.58 0 0 0 .59-.59v-2.34a.58.58 0 0 0-.59-.59H53V43l.63.52a2.92 2.92 0 0 0 4.25-.52l3.22-4.42a.6.6 0 0 0-.12-.82L58.63 36a.53.53 0 0 0-.44-.11.63.63 0 0 0-.39.23l-2.57 3.6-1.48-1.19a4.09 4.09 0 0 0-2.56-.89h-.84a3.52 3.52 0 1 0-5.23 0h-.84a4.09 4.09 0 0 0-2.56.89l-1.48 1.19-2.57-3.6a.65.65 0 0 0-.39-.24.61.61 0 0 0-.44.11l-2.35 1.76a.6.6 0 0 0-.12.82L37.59 43a2.92 2.92 0 0 0 4.24.52l.63-.52v2.26h-7.61a.58.58 0 0 0-.59.59v2.34a.58.58 0 0 0 .59.59h1.75v1.76h-5.27V30.59h32.81z"/>
    </g>
</svg>