<?xml version="1.0" encoding="utf-8"?>
<!-- Generator: Adobe Illustrator 24.1.3, SVG Export Plug-In . SVG Version: 6.00 Build 0)  -->
<svg version="1.1" id="Layer_1" xmlns="http://www.w3.org/2000/svg" xmlns:xlink="http://www.w3.org/1999/xlink" x="0px" y="0px"
	 viewBox="0 0 95.5 94" style="enable-background:new 0 0 95.5 94;" xml:space="preserve" width="100" height="100">
<g id="Outline">
	<path d="M26.6,25.8c-0.1,0.1-0.1,0.2-0.2,0.3c-0.1,0.2-0.1,0.4,0,0.6c0,0.1,0.1,0.2,0.2,0.3c0.3,0.3,0.8,0.3,1.1,0
		c0.3-0.3,0.3-0.8,0-1.1C27.4,25.5,26.9,25.5,26.6,25.8z"/>
	<path d="M29.2,25.7c-0.1,0-0.2,0.1-0.3,0.2c-0.3,0.3-0.3,0.8,0,1.1c0.3,0.3,0.8,0.3,1.1,0c0.2-0.1,0.2-0.4,0.2-0.6
		c0-0.2-0.1-0.4-0.2-0.6C29.8,25.6,29.5,25.5,29.2,25.7z"/>
	<path d="M31.6,25.7c-0.1,0-0.2,0.1-0.3,0.2c-0.3,0.3-0.3,0.8,0,1.1c0.1,0.1,0.2,0.1,0.3,0.2c0.1,0,0.2,0.1,0.3,0.1
		c0.4,0,0.8-0.3,0.8-0.8c0,0,0,0,0,0c0-0.2-0.1-0.4-0.2-0.6C32.2,25.6,31.9,25.5,31.6,25.7z"/>
	<rect x="34.3" y="36.7" width="11.1" height="1.6"/>
	<rect x="34.3" y="41.5" width="11.1" height="1.6"/>
	<rect x="34.3" y="46.2" width="15.1" height="1.6"/>
	<rect x="34.3" y="51" width="10.3" height="1.6"/>
	<rect x="34.3" y="55.7" width="6.3" height="1.6"/>
	<rect x="34.3" y="60.5" width="4.8" height="1.6"/>
	<path d="M68.5,32.7c-0.8,0-1.6,0.3-2.1,0.9l-2.7,2.7V25.6c0-1.3-1.1-2.4-2.4-2.4H26.3c-1.3,0-2.4,1.1-2.4,2.4v42.8
		c0,1.3,1.1,2.4,2.4,2.4h34.9c1.3,0,2.4-1.1,2.4-2.4V45l7-7c1.2-1.2,1.2-3.1,0-4.3C70.1,33.1,69.3,32.7,68.5,32.7z M25.5,25.6
		c0-0.4,0.4-0.8,0.8-0.8h34.9c0.4,0,0.8,0.4,0.8,0.8V28H25.5V25.6z M62,68.4c0,0.4-0.4,0.8-0.8,0.8H26.3c-0.4,0-0.8-0.4-0.8-0.8
		V29.6H62V38l-4.8,4.8v-2.4l-8.4-8.4H30.3v34.9h27V51.3l4.8-4.8V68.4z M43.1,56.9l-2.1,6.4l6.4-2.1l2.3-2.3l6-6v12.4H31.9V33.5h15.9
		v7.9h7.9v2.8L45.4,54.6L43.1,56.9z M45.4,56.8l2,2l-0.9,0.9l-3.1,1l1-3.1L45.4,56.8z M49.3,34.6l5.2,5.2h-5.2V34.6z M48.5,57.8
		l-2-2L65.2,37l2,2L48.5,57.8z M69.5,36.8L68.3,38l-2-2l1.2-1.2c0.6-0.6,1.5-0.6,2,0C70.1,35.3,70.1,36.2,69.5,36.8
		C69.5,36.8,69.5,36.8,69.5,36.8z"/>
</g>
</svg>
