<svg data-name="Layer 1"
    xmlns="http://www.w3.org/2000/svg" viewBox="0 0 95.47 94" width="100" height="100">
    <g>
        <path d="M70.74 59A8.1 8.1 0 0063 53.23a8.21 8.21 0 00-3.17.65L51.94 46l10.5-10.42 2.49-.07a.88.88 0 00.73-.43l3.56-6a.88.88 0 00-.13-1.08L66 24.91a.89.89 0 00-1.07-.13l-6 3.56a.89.89 0 00-.43.73l-.07 2.48L48 42l-7.19-7.19a8 8 0 00-12.41-8.05.88.88 0 00-.24 1.24.86.86 0 00.3.27l4 2.23c.88.5 1.06 2 .35 3.26s-2.08 1.91-3 1.42l-3.7-2a.88.88 0 00-1.3.83A8 8 0 0036 40.88l6.54 6.54-2.83 2.83-.64-.64a1.84 1.84 0 00-2.54 0l-.88.88a1.77 1.77 0 00-.1 2.42L25.17 63.29a1.75 1.75 0 00-.05 2.48l.05.06 3 3a1.74 1.74 0 002.48 0h.06l10.4-10.4a1.77 1.77 0 002.42-.09l.88-.88a1.77 1.77 0 000-2.49l-.64-.65 2.81-2.87 8.53 8.53a8 8 0 0013.67 7 .88.88 0 00-.07-1.24.8.8 0 00-.32-.19l-5-1.32a1.63 1.63 0 01-1-1 3.23 3.23 0 01-.1-2.23c.37-1.38 1.54-2.36 2.53-2.1l4.89 1.32H70a.89.89 0 00.89-.87.83.83 0 00-.15-.35zM59.92 32.53a.86.86 0 00.25-.6l.07-2.35 5-3 2.11 2.11-2.9 5-2.39.09a.89.89 0 00-.6.26L50.73 44.76l-1.52-1.51zm-30.48 35l-3-3 10.43-10.4 1.52 1.51 1.44 1.5zM42.3 57l-1.16-1.16-.45-.45L37 51.67l.88-.88 5.27 5.34zm.16-4L41 51.48l2.83-2.83 1.51 1.52zm22.79 4.22a3.13 3.13 0 00-.8-.1 4.3 4.3 0 00-3.88 3.44 5 5 0 00.17 3.21 3.31 3.31 0 002.2 2l3.27.88a6.28 6.28 0 01-9.33-6.84.85.85 0 00-.24-.81L36.83 39.19a.86.86 0 00-1-.12 6.42 6.42 0 01-2.94.72 6.26 6.26 0 01-5.91-4.14l2 1.12a3.11 3.11 0 001.52.4 4.62 4.62 0 003.83-2.5c1.19-2.14.73-4.68-1-5.66l-2.56-1.45A6.29 6.29 0 0139 34.9a.87.87 0 00.24.82L59 55.56a.88.88 0 001 .16 6.29 6.29 0 018.36 2.37z"/>
    </g>
</svg>