<svg xmlns="http://www.w3.org/2000/svg" viewBox="0 0 95.47 94" width="100" height="100">
	<g>
		<path d="M48.31,58.15c-1.83,0-2.89,1.8-2.89,4s1.08,4,2.87,4,2.88-1.71,2.88-4C51.17,60,50.15,58.15,48.31,58.15Z" />
		<path d="M66.24,33.64A.91.91,0,0,0,66,33L56.38,22h0a1.08,1.08,0,0,0-.2-.16l-.06,0-.19-.08-.06,0-.22,0H32a2,2,0,0,0-2,2V69.68a2,2,0,0,0,2,2H64.29a2,2,0,0,0,2-2V33.75A.41.41,0,0,0,66.24,33.64ZM36.51,68.27a7.77,7.77,0,0,1-3.36-.72l.54-2.23a6.87,6.87,0,0,0,3,.74c1.24,0,1.89-.51,1.89-1.28s-.57-1.17-2-1.68c-2-.69-3.27-1.78-3.27-3.51,0-2,1.7-3.58,4.5-3.58a7.21,7.21,0,0,1,3,.6l-.6,2.17a5.61,5.61,0,0,0-2.48-.56c-1.17,0-1.73.53-1.73,1.14s.67,1.1,2.2,1.68c2.1.77,3.09,1.87,3.09,3.54C41.31,66.58,39.78,68.27,36.51,68.27Zm16.77,1.87a42.73,42.73,0,0,1-4.69-1.68,2.56,2.56,0,0,0-.83-.17c-2.68-.18-5.18-2.16-5.18-6,0-3.56,2.26-6.24,5.8-6.24S54,58.76,54,62c0,2.7-1.25,4.6-2.82,5.31v.07c.91.26,1.94.47,2.87.67Zm9.92-2H55.77V56.21h2.7v9.62H63.2ZM32,54.94V23.63h22.7v10a1,1,0,0,0,1,1h8.65V54.94Z" />
		<path d="M53.45,37.19a.9.9,0,0,0,.08-.36c0-1.58-3.41-2.43-6.62-2.43s-6.61.85-6.61,2.43a1.21,1.21,0,0,0,.07.37v0a1.58,1.58,0,0,0-.22.79v2a1.6,1.6,0,0,0,.26.86l0,0a1.62,1.62,0,0,0-.24.83v1.95a1.64,1.64,0,0,0,.25.84h0a1.67,1.67,0,0,0-.24.83v2c0,1.73,3,3.09,6.77,3.09S53.69,49,53.69,47.3v-2a1.67,1.67,0,0,0-.24-.83h0a1.64,1.64,0,0,0,.25-.84V41.71a1.68,1.68,0,0,0-.24-.84l0,0a1.6,1.6,0,0,0,.26-.86V38a1.64,1.64,0,0,0-.22-.8ZM53,47.3c0,1.12-2.48,2.36-6.05,2.36s-6-1.24-6-2.36V45.46c1.12,1,3.4,1.67,6,1.67s4.94-.65,6.05-1.67Zm0-3.64C53,44.78,50.48,46,46.91,46s-6-1.25-6-2.37V41.83c1.12,1,3.4,1.67,6,1.67s4.94-.66,6.05-1.67ZM53,40c0,1.12-2.48,2.36-6.05,2.36s-6-1.24-6-2.36V38.35c1.09.92,3.61,1.4,6,1.4s5-.48,6.05-1.4Z" />
	</g>
</svg>
