<svg xmlns="http://www.w3.org/2000/svg" viewBox="0 0 95.47 94" width="100" height="100">
	<g>
		<path d="M36.15,49.24h4.49a.75.75,0,1,0,0-1.49H36.9v-1.5h.75a.75.75,0,0,0,0-1.5H36.9v-1.5h.75a.75.75,0,0,0,0-1.5H36.9v-1.5h3.74a.75.75,0,0,0,0-1.5H36.9V37.26h.75a.75.75,0,0,0,0-1.5H36.9v-1.5h.75a.75.75,0,0,0,0-1.5H36.9v-1.5h3.74a.75.75,0,0,0,0-1.5H36.9v-3H47.39V48.49a.75.75,0,0,0,1.5,0V26a.75.75,0,0,0-.75-.75h-12a.74.74,0,0,0-.75.75V48.49A.74.74,0,0,0,36.15,49.24Z" />
		<path d="M25.66,49.24a.75.75,0,0,0,.75-.75V29a2.46,2.46,0,0,1,2.24-2.24h4.5a.75.75,0,0,0,0-1.5h-4.5A3.94,3.94,0,0,0,24.91,29V48.49A.74.74,0,0,0,25.66,49.24Z" />
		<path d="M58.63,34.26a.74.74,0,0,0-.75.75V48.49a.75.75,0,0,0,1.5,0V35A.75.75,0,0,0,58.63,34.26Z" />
		<path d="M54.13,35V48.49a.75.75,0,0,0,1.5,0V35a.75.75,0,0,0-1.5,0Z" />
		<path d="M55.63,68.73h-.75V68a.75.75,0,0,0-1.5,0v.75h-1.5V68a.75.75,0,0,0-1.5,0v.75H48.89V68a.75.75,0,0,0-1.5,0v.75h-1.5V68a.75.75,0,0,0-1.5,0v.75h-1.5V68a.75.75,0,0,0-1.5,0v.75h-1.5V68a.75.75,0,1,0-1.49,0v.75H36.9V68a.75.75,0,0,0-1.5,0v.75H33.9V68a.75.75,0,0,0-1.5,0v.75H30.9V68a.75.75,0,0,0-1.5,0v.75h-.75a.75.75,0,1,0,0,1.49h27a.75.75,0,1,0,0-1.49Z" />
		<path d="M51.13,49.24a.74.74,0,0,0,.75-.75V32.23l3-4.8,2.39,3.83H54.13a.75.75,0,0,0,0,1.5h4.5a.75.75,0,0,0,.63-1.15l-3.75-6a.78.78,0,0,0-1.27,0l-3.74,6a.72.72,0,0,0-.12.4V48.49A.75.75,0,0,0,51.13,49.24Z" />
		<path d="M66.12,25.27H58.63a.75.75,0,1,0,0,1.49h7.49A2.48,2.48,0,0,1,68.37,29V56a2.48,2.48,0,0,1-2.25,2.25H28.65A2.47,2.47,0,0,1,26.41,56V52.24H66.12a.75.75,0,0,0,0-1.5H25.66a.75.75,0,0,0-.75.75V56a3.94,3.94,0,0,0,3.74,3.74H66.12A4,4,0,0,0,69.87,56V29A4,4,0,0,0,66.12,25.27Z" />
		<path d="M45.89,55.24a1.5,1.5,0,1,0,1.5-1.5A1.5,1.5,0,0,0,45.89,55.24Z" />
		<path d="M51.13,65.73a.75.75,0,0,0,.75-.75V62a.75.75,0,0,0-1.5,0v3A.76.76,0,0,0,51.13,65.73Z" />
		<path d="M44.39,65V62a.75.75,0,0,0-1.5,0v3a.75.75,0,0,0,1.5,0Z" />
		<path d="M63.87,65.73h-1.5a3,3,0,0,0-3,3v.74a.74.74,0,0,0,.74.75h6a.75.75,0,0,0,.75-.75v-.74A3,3,0,0,0,63.87,65.73Zm-3,3a1.5,1.5,0,0,1,1.5-1.5h1.5a1.5,1.5,0,0,1,1.5,1.5Z" />
	</g>
</svg>
