<svg xmlns="http://www.w3.org/2000/svg" viewBox="0 0 95.47 94"  width="100" height="100">
	<g>
		<path d="M47.82,44.13a9.31,9.31,0,1,0-9.31-9.3A9.32,9.32,0,0,0,47.82,44.13Zm-4.5-10.3a1.41,1.41,0,0,1,2,0l1.34,1.35,3.68-3.69a1.41,1.41,0,1,1,2,2l-4.68,4.68a1.4,1.4,0,0,1-2,0l-2.34-2.34A1.41,1.41,0,0,1,43.32,33.83Z" />
		<path d="M29.5,39.12A5.48,5.48,0,1,0,24,33.64,5.48,5.48,0,0,0,29.5,39.12Z" />
		<path d="M24.56,47V58.32a4.73,4.73,0,0,0,4.73,4.73h6.16v8.4a1.15,1.15,0,0,0,1.16,1.15h5.46a1.15,1.15,0,0,0,1.16-1.15V59.33a4,4,0,0,0-4-4H34.43V47a4.94,4.94,0,0,0-9.87,0Z" />
		<path d="M66.14,39.12a5.48,5.48,0,1,0-5.48-5.48A5.48,5.48,0,0,0,66.14,39.12Z" />
		<path d="M61.2,47v8.39H56.4a4,4,0,0,0-4,4V71.45a1.15,1.15,0,0,0,1.16,1.15H59a1.14,1.14,0,0,0,1.15-1.15v-8.4h6.17a4.72,4.72,0,0,0,4.72-4.73V47a4.94,4.94,0,0,0-9.87,0Z" />
		<path d="M56,49.84A1.41,1.41,0,1,0,56,47H39.63a1.41,1.41,0,1,0,0,2.81h6.78V71.7a1.41,1.41,0,0,0,2.82,0V49.84Z" />
	</g>
</svg>
