<?xml version="1.0" encoding="UTF-8" standalone="no" ?>
<svg xmlns="http://www.w3.org/2000/svg" viewBox="0 0 95.4 94" width="100" height="100">
    <g>
        <path d="m 31.637374,58.807304 c -1.530234,0 -2.919526,-1.251705 -2.919526,-2.778583 0,-1.526879 1.251704,-2.778585 2.919526,-2.778585 1.664466,0 2.919526,1.251706 2.919526,2.778585 0,1.526878 -1.392647,2.778583 -2.919526,2.778583 z M 67.46701,43.672749 c -0.302022,-2.224881 -1.677892,-4.026933 -3.490011,-5.419581 l -0.704713,-0.557059 -0.570482,0.694646 c -1.107407,1.251704 -1.543657,3.47323 -1.409425,5.134339 0.134224,1.255061 0.536923,2.503411 1.241637,3.476585 -0.570482,0.278529 -1.275196,0.55706 -1.812119,0.832234 -1.275197,0.416115 -2.516834,0.557058 -3.758471,0.557058 H 21.059964 l -0.134231,0.832233 c -0.268462,2.640998 0.134231,5.416226 1.258417,7.919634 l 0.557058,0.973177 v 0.134225 c 3.355778,5.557167 9.329061,8.053867 15.83927,8.053867 12.517049,0 22.785726,-5.41287 27.651605,-17.080907 3.187989,0.140947 6.409533,-0.694646 7.919634,-3.748403 l 0.402692,-0.694642 -0.671155,-0.416116 c -1.81212,-1.107407 -4.295395,-1.251706 -6.375977,-0.694646 z M 49.547158,41.447868 h -5.433003 v 5.41958 h 5.436359 v -5.422935 z m 0,-6.805516 h -5.433003 v 5.412868 h 5.436359 v -5.409513 z m 0,-6.946459 h -5.433003 v 5.412868 h 5.436359 v -5.409513 z m 6.644439,13.751975 h -5.399445 v 5.41958 h 5.416224 v -5.422935 z m -20.134664,0 h -5.399446 v 5.41958 h 5.416225 v -5.422935 z m 6.77867,0 H 37.46636 v 5.41958 h 5.402801 v -5.422935 z m -13.490225,0 H 23.97949 v 5.41958 h 5.436359 V 41.444513 Z M 42.835603,34.642352 H 37.46636 v 5.412868 h 5.402801 v -5.409513 z m -6.812228,0 h -5.369244 v 5.412868 h 5.402802 v -5.409513 z" />
    </g>
</svg>