<svg xmlns="http://www.w3.org/2000/svg" viewBox="0 0 95.47 94" width="100" height="100">
	<g>
		<path d="M55,53.37c.21-.54.45-1.07.62-1.61q1.5-4.63,3-9.28a11.84,11.84,0,0,1,1.53-3.38,6.86,6.86,0,0,1,4.74-2.75,16.08,16.08,0,0,1,2.3-.18c2.29,0,4.58,0,6.87,0l.42,0c-.06.13-.09.23-.14.32-.85,1.52-1.68,3.05-2.56,4.55-1.52,2.62-3,5.24-4.62,7.83a40.59,40.59,0,0,1-3.35,4.78,13.16,13.16,0,0,1-3.11,2.94,5,5,0,0,1-2.75.84c-3.6,0-7.2,0-10.8,0a4,4,0,0,1-2.77-1.13A9.82,9.82,0,0,1,42,52.56a57.7,57.7,0,0,1-2.19-7.84c-.3-1.23-.64-2.46-1-3.69a2.2,2.2,0,0,0-.11-.27l-.25.24a30.51,30.51,0,0,0-3.75,4.57,6,6,0,0,0-.57,1.56C33.54,49.07,33,51,32.31,53a7,7,0,0,1-3.6,4.18,8.09,8.09,0,0,1-3.35.8c-1.73,0-3.46,0-5.19.06-.42,0-.44,0-.33-.43a52,52,0,0,1,2.87-8A37.28,37.28,0,0,1,27.16,42a17.8,17.8,0,0,1,4.28-4.16,6.44,6.44,0,0,1,2.82-1.13,4.41,4.41,0,0,1,.52,0c3.69,0,7.38,0,11.06,0A5,5,0,0,1,50.33,39a14.44,14.44,0,0,1,1.54,3.19,68.48,68.48,0,0,1,1.89,6.91c.32,1.33.68,2.65,1,4,0,.1.07.19.1.29Z" />
	</g>
</svg>
