<svg id="Layer_1" data-name="Layer 1"
    xmlns="http://www.w3.org/2000/svg" viewBox="0 0 95.47 94" width="100" height="100">
    <title>external-link</title>
    <g>
        <path d="M58.51,49.87H57.07a.66.66,0,0,0-.51.21.66.66,0,0,0-.2.51v7.19a3.62,3.62,0,0,1-3.6,3.59H34.08a3.62,3.62,0,0,1-3.59-3.59V39.1a3.6,3.6,0,0,1,3.59-3.59H49.89a.7.7,0,0,0,.52-.21.69.69,0,0,0,.2-.51V33.35a.69.69,0,0,0-.72-.72H34.08a6.49,6.49,0,0,0-6.46,6.47V57.78a6.49,6.49,0,0,0,6.46,6.46H52.76a6.49,6.49,0,0,0,6.47-6.46V50.59a.69.69,0,0,0-.2-.51A.7.7,0,0,0,58.51,49.87Z"/>
        <path d="M67.42,30.18a1.38,1.38,0,0,0-1-.42H54.92a1.43,1.43,0,0,0-1,2.45l4,3.95L43.22,50.79a.72.72,0,0,0-.22.52.7.7,0,0,0,.22.52l2.56,2.56a.71.71,0,0,0,1,0L61.45,39.75l4,4a1.41,1.41,0,0,0,1,.43,1.39,1.39,0,0,0,1-.43,1.35,1.35,0,0,0,.43-1V31.19A1.39,1.39,0,0,0,67.42,30.18Z"/>
    </g>
</svg>