<svg id="Layer_1" data-name="Layer 1"
    xmlns="http://www.w3.org/2000/svg" viewBox="0 0 95.47 94" width="100" height="100">
    <title>food</title>
    <g>
        <path d="M50.25,58.29A11.37,11.37,0,1,0,38.88,46.92h0A11.39,11.39,0,0,0,50.25,58.29Z"/>
        <path d="M50.25,61.34A14.42,14.42,0,1,0,35.83,46.92,14.42,14.42,0,0,0,50.25,61.34Zm0-26.63A12.21,12.21,0,1,1,38,46.92h0A12.23,12.23,0,0,1,50.25,34.69Z"/>
        <path d="M72.69,62.69l-.85-32.36a1.25,1.25,0,0,0-1.25-1.27h0a1.2,1.2,0,0,0-.52.12h0l-.08.05a1.85,1.85,0,0,0-.32.25,12.44,12.44,0,0,0-4.12,8c-.37,6.38,2.72,9,3.78,11.32l-.84,13.89c0,.7,1.4,1.26,2.1,1.26S72.69,63.38,72.69,62.69Z"/>
        <path d="M26,43l2.18,1.09a3.5,3.5,0,0,0,.8.29l-.84,18.93c0,.58,1.41,1.06,2.11,1.06s2.1-.48,2.1-1.06l-.84-19a4.09,4.09,0,0,0,.83-.36l1.61-1a4.58,4.58,0,0,0,2-3.64V30.78a1.26,1.26,0,1,0-2.52,0v7.64h-.7V30.78a1.26,1.26,0,1,0-2.52,0v7.64h-.68V30.78a1.26,1.26,0,0,0-2.52,0v7.64h-.7V31.05a1.25,1.25,0,0,0-1.37-1.15,1.27,1.27,0,0,0-1.16,1.15V39.4A4.26,4.26,0,0,0,26,43Z"/>
    </g>
</svg>