<svg id="Layer_1" data-name="Layer 1"
    xmlns="http://www.w3.org/2000/svg" viewBox="0 0 95.47 94" width="100" height="100">
    <title>fun</title>
    <g>
        <path d="M62.37,27.35a4.66,4.66,0,0,0-9.18,1.58.73.73,0,0,0,0,.36l.49,2.92A20.21,20.21,0,0,1,54,35.59a21.1,21.1,0,0,1-.54,4.75,19.08,19.08,0,0,1-.78,2.54l1.45.56a18.59,18.59,0,0,0,.84-2.75,3.63,3.63,0,0,1,.13-.64h5.56a20.94,20.94,0,0,0,1,3.39l1.45-.56a20.4,20.4,0,0,1-1.32-7.29A21.24,21.24,0,0,1,62,32.21l.49-2.92a.69.69,0,0,0,0-.35A4.72,4.72,0,0,0,62.37,27.35ZM55.83,26a3.12,3.12,0,0,1,4.39.45,3.27,3.27,0,0,1,.61,1.24,3.31,3.31,0,0,1,0,1.33.73.73,0,0,0,0,.36L60.4,32c-.11.61-.18,1.24-.23,1.87H55.41A11.64,11.64,0,0,0,55.19,32l-.44-2.57a.73.73,0,0,0,0-.36,3.47,3.47,0,0,1-.06-.64A3.12,3.12,0,0,1,55.83,26Zm-.54,12.5a21.62,21.62,0,0,0,.19-2.9v-.21h4.68v.21a23.4,23.4,0,0,0,.18,2.9Z"/>
        <path d="M28.85,70.37H37a.77.77,0,0,0,.6-.29,12.49,12.49,0,0,0,1.53-2.46,13.35,13.35,0,0,0,1.54,2.46.79.79,0,0,0,.6.29h8.17V68.82H41.67a14.24,14.24,0,0,1-1.79-3.41,26,26,0,0,1-1.5-9,25.89,25.89,0,0,1,1.51-9.06,14.44,14.44,0,0,1,.79-1.8,19.89,19.89,0,0,0,1.78-4.83,3.63,3.63,0,0,1,.13-.64h5.57a20.57,20.57,0,0,0,1.67,5l1.4-.68a20.54,20.54,0,0,1-1.69-12.16L50,29.32A.69.69,0,0,0,50,29,4.89,4.89,0,0,0,50,27.35a4.67,4.67,0,0,0-9.19,1.58,1.09,1.09,0,0,0,0,.36l.49,2.92a20.2,20.2,0,0,1,.28,3.38A21.14,21.14,0,0,1,41,40.34a18.62,18.62,0,0,1-1.65,4.45,1.77,1.77,0,0,1-.15.31c0-.1-.09-.2-.15-.31a20.51,20.51,0,0,1-1.9-12.58l.49-2.92a.69.69,0,0,0,0-.35,5,5,0,0,0-.08-1.59,4.67,4.67,0,0,0-9.19,1.58,1.09,1.09,0,0,0,0,.36l.49,2.92a21.31,21.31,0,0,1,.28,3.38,21.1,21.1,0,0,1-.54,4.75,18.62,18.62,0,0,1-1.65,4.45,25.67,25.67,0,0,0-2.48,11.59c0,5.59,1.45,10.71,3.87,13.7A.77.77,0,0,0,28.85,70.37Zm14-31.88a23.41,23.41,0,0,0,.19-2.9v-.21h4.69v.21a21.62,21.62,0,0,0,.19,2.9ZM43.39,26a3.11,3.11,0,0,1,4.38.43,3.17,3.17,0,0,1,.62,1.26,3.31,3.31,0,0,1,0,1.33.73.73,0,0,0,0,.36L48,32c-.1.61-.17,1.24-.22,1.87H43A10.62,10.62,0,0,0,42.74,32l-.43-2.57a.73.73,0,0,0,0-.36,4.64,4.64,0,0,1-.07-.64A3.13,3.13,0,0,1,43.39,26Zm-7.93,12.5H30.41a23.41,23.41,0,0,0,.19-2.9v-.21h4.69v.21a21,21,0,0,0,.17,2.86ZM31,26a3.12,3.12,0,0,1,4.39.45A3.27,3.27,0,0,1,36,27.72,3.21,3.21,0,0,1,36,29a1.09,1.09,0,0,0,0,.36L35.54,32c-.1.61-.17,1.24-.22,1.87H30.53A10.62,10.62,0,0,0,30.3,32l-.43-2.57a.73.73,0,0,0,0-.36,4.64,4.64,0,0,1-.07-.64A3.14,3.14,0,0,1,31,26ZM28.24,45.52A19.89,19.89,0,0,0,30,40.69c.05-.21.09-.43.13-.64h5.57a20.35,20.35,0,0,0,1.9,5.46,12.81,12.81,0,0,1,.7,1.56,29.55,29.55,0,0,0,0,18.59,13.5,13.5,0,0,1-1.68,3.16H29.23c-2-2.74-3.29-7.45-3.29-12.44A24.36,24.36,0,0,1,28.24,45.52Z"/>
        <path d="M31,47l-1.38-.72c-.21.41-.41.85-.59,1.3l1.44.58C30.63,47.72,30.81,47.33,31,47Z"/>
        <path d="M29.05,56.38A24.69,24.69,0,0,1,30,49.6l-1.49-.44a26,26,0,0,0-1,7.22,25.58,25.58,0,0,0,1,7.22L30,63.15A23.83,23.83,0,0,1,29.05,56.38Z"/>
        <path d="M43.44,47l-1.38-.72c-.21.41-.41.85-.59,1.3l1.44.58C43.07,47.72,43.25,47.33,43.44,47Z"/>
        <path d="M40.91,49.16a26.32,26.32,0,0,0-1,7.22,25.58,25.58,0,0,0,1,7.22l1.49-.45a23.48,23.48,0,0,1-.91-6.77,24.31,24.31,0,0,1,.91-6.78Z"/>
        <path d="M48.22,48a13.22,13.22,0,0,0,9.59,22.31h.36A13.22,13.22,0,1,0,48.22,48Zm9.6-2.57a11.63,11.63,0,1,1-.32,0Z"/>
        <path d="M55,49.35l-.53-1.46a10.49,10.49,0,0,0-1.69.81l.8,1.33A8.41,8.41,0,0,1,55,49.35Z"/>
        <path d="M49.52,57.38a8.32,8.32,0,0,1,2.61-6.27L51.06,50A9.87,9.87,0,0,0,48,57.42Z"/>
        <path d="M54,54A2.33,2.33,0,1,0,56.3,51.7,2.33,2.33,0,0,0,54,54Zm2.33-.77a.76.76,0,0,1,.78.76h0a.78.78,0,1,1-.82-.76Z"/>
        <path d="M62.48,56.38A2.34,2.34,0,1,0,60.15,54a2.34,2.34,0,0,0,2.33,2.35Zm0-3.11a.76.76,0,0,1,.78.76h0a.78.78,0,1,1-1.56,0,.77.77,0,0,1,.77-.77Z"/>
        <path d="M57,63.37A2.33,2.33,0,1,0,59.37,61,2.33,2.33,0,0,0,57,63.37Zm2.33-.77a.78.78,0,1,1-.78.78h0A.78.78,0,0,1,59.37,62.6Z"/>
    </g>
</svg>