<svg xmlns="http://www.w3.org/2000/svg" viewBox="0 0 95.47 94" width="100" height="100">
	<g>
		<path d="M73.1,45.58C71.73,38.86,68.83,29.88,60,29.65a28.1,28.1,0,0,0-6.25.62,28.06,28.06,0,0,1-5,.57V23.9a1.37,1.37,0,0,0-2.73,0v6.94a35,35,0,0,1-5-.57,32.1,32.1,0,0,0-6.26-.62C26,29.82,23,38.81,21.68,45.58,20.14,53,19.63,58.72,22,62.19A7.49,7.49,0,0,0,27,65.26c5.81,1,11.33-3.52,15.19-12.4H52.58c3.47,8.08,8.31,12.52,13.54,12.52a14.18,14.18,0,0,0,1.59-.12,7.25,7.25,0,0,0,5.07-3.07C75.15,58.72,74.64,53,73.1,45.58ZM70.54,60.71a4.69,4.69,0,0,1-3.3,1.93c-6.37,1.09-10.64-7.16-12.17-10.75a2.72,2.72,0,0,0-2.5-1.65H42.21a2.73,2.73,0,0,0-2.51,1.65c-1.53,3.59-5.8,11.89-12.16,10.75a4.69,4.69,0,0,1-3.3-1.93c-1.94-2.84-1.08-8.7.11-14.56,1.94-9.39,5.18-13.6,10.47-13.72h.4a25.71,25.71,0,0,1,5.24.57,35,35,0,0,0,13.76,0,31.45,31.45,0,0,1,5.64-.57c5.35.12,8.59,4.39,10.47,13.72C71.62,52,72.47,57.87,70.54,60.71Z" />
		<path d="M40.16,41.54H37.43V38.81a.7.7,0,0,0-.68-.68h-2a.7.7,0,0,0-.68.68v2.73H31.28a.68.68,0,0,0-.67.67v2a.69.69,0,0,0,.67.68H34v2.73a.69.69,0,0,0,.68.67h2.05a.67.67,0,0,0,.67-.67V45h2.74a.69.69,0,0,0,.67-.67V42.22A.68.68,0,0,0,40.16,41.54Z" />
		<path d="M58.77,37.73a1.82,1.82,0,1,0,1.82,1.82h0A1.83,1.83,0,0,0,58.77,37.73Z" />
		<path d="M62.4,41.42a1.83,1.83,0,1,0,1.82,1.83h0a1.8,1.8,0,0,0-1.77-1.82Z" />
		<path d="M55.06,41.42a1.83,1.83,0,1,0,1.83,1.83h0A1.84,1.84,0,0,0,55.06,41.42Z" />
		<path d="M58.71,45.12a1.82,1.82,0,1,0,1.82,1.82,1.82,1.82,0,0,0-1.82-1.82Z" />
	</g>
</svg>
