<svg data-name="Layer 1"
    xmlns="http://www.w3.org/2000/svg" viewBox="0 0 95.47 94"
    width="100" height="100">
    <g>
        <path d="M71.62 29.19a2.7 2.7 0 00-2.77-2.63H27a2.71 2.71 0 00-2.78 2.63v25.4a17 17 0 00.86 5.33l1.05 3.17v4a.93.93 0 001.85 0V63a.75.75 0 000-.26l-1.09-3.29a15.48 15.48 0 01-.78-4.81v-6.22a.94.94 0 011.87 0v2.15a.93.93 0 001.85 0v-3.44a.94.94 0 011.87 0v3.44a.93.93 0 001.85 0V46a.93.93 0 011.86 0v4.56a.93.93 0 001.85 0v-10.3a.94.94 0 011.87 0V53a.89.89 0 00.7.85.94.94 0 001-.43L43 49.59a1.06 1.06 0 011.38-.41 1 1 0 01.54 1.11l-1.42 5.55a8.28 8.28 0 01-1.47 3l-2.77 3.59a.82.82 0 00-.18.52v4.1a.93.93 0 001.85 0v-3.8l2.59-3.36a9.81 9.81 0 001.78-3.64l.84-3.25h3.57l.82 3.22a10.13 10.13 0 001.78 3.64l2.6 3.36v3.81a.93.93 0 001.85 0V63a.88.88 0 00-.18-.52l-2.77-3.59a8.3 8.3 0 01-1.48-3l-1.41-5.55a1 1 0 01.54-1.11 1.05 1.05 0 011.37.41L55 53.42a.94.94 0 001 .43.89.89 0 00.7-.85V40.26a.93.93 0 011.86 0v10.31a.93.93 0 001.85 0V46a.94.94 0 011.87 0v4.56a.93.93 0 001.85 0v-3.43a.94.94 0 011.87 0v3.44a.93.93 0 001.85 0v-2.15a.93.93 0 011.86 0v6.18a15.47 15.47 0 01-.71 4.81l-1.09 3.29a.75.75 0 000 .26v4.1a.93.93 0 001.85 0v-4l1.05-3.17a17 17 0 00.86-5.33V48.4zM49.12 50.7l.15.58h-2.68l.15-.58a2.65 2.65 0 00-1-2.75h4.32a2.65 2.65 0 00-.94 2.75zm20.65-4.76a2.83 2.83 0 00-.93-.15 2.9 2.9 0 00-1.18.25 2.86 2.86 0 00-3.8-1.26 2.78 2.78 0 00-2.45-1.4 2.94 2.94 0 00-.94.15v-3.27a2.78 2.78 0 00-5.56 0v9.27l-.45-.77a2.84 2.84 0 00-1.93-1.38.81.81 0 00.06-.31.91.91 0 00-.93-.88h-6.42a.9.9 0 00-.92.88.87.87 0 000 .28 2.94 2.94 0 00-3 1.41l-.44.77v-9.27a2.79 2.79 0 00-5.57 0v3.27a2.83 2.83 0 00-.93-.15 2.8 2.8 0 00-2.38 1.4A2.85 2.85 0 0028.2 46a2.9 2.9 0 00-1.2-.21 2.94 2.94 0 00-.94.15V29.19a.91.91 0 01.93-.88h41.86a.9.9 0 01.92.88z"/>
        <path d="M34.14 36.38h-4a.88.88 0 100 1.75h4a.88.88 0 100-1.75zM43.42 36.38H42a.88.88 0 100 1.75h1.47a.88.88 0 100-1.75zM31.76 41.28h-1.6a.88.88 0 100 1.76h1.6a.88.88 0 100-1.76zM45.89 41.28h-1.72a.88.88 0 100 1.76h1.72a.88.88 0 100-1.76zM33.35 31.47h-3.19a.88.88 0 100 1.75h3.19a.88.88 0 100-1.75zM43.42 31.47h-2.94a.88.88 0 100 1.75h2.94a.88.88 0 100-1.75zM37.62 31.72a1 1 0 00-.65-.25 1 1 0 00-.66.25.88.88 0 00-.27.62.86.86 0 00.27.62 1 1 0 00.66.26.92.92 0 00.65-.26.86.86 0 00.27-.62.88.88 0 00-.27-.62zM49.22 36.38h-2.45a.88.88 0 100 1.75h2.45a.88.88 0 100-1.75zM54.28 36.63a1 1 0 00-.66-.25 1 1 0 00-.65.25.84.84 0 00-.27.62.83.83 0 00.27.62.92.92 0 00.65.26 1 1 0 00.66-.26.86.86 0 00.27-.62.88.88 0 00-.27-.62zM65.73 36.38h-3.48a.88.88 0 100 1.75h3.48a.88.88 0 100-1.75zM52.46 41.28H50.6a.88.88 0 100 1.76h1.86a.88.88 0 100-1.76zM65.55 41.28h-1.72a.88.88 0 100 1.76h1.72a.88.88 0 100-1.76zM50.38 31.47h-2.45a.88.88 0 100 1.75h2.45a.88.88 0 100-1.75zM65.71 31.47h-3.06a.88.88 0 100 1.75h3.06a.88.88 0 100-1.75zM57.88 31.47h-2a.88.88 0 100 1.75h2a.88.88 0 100-1.75z"/>
    </g>
</svg>