<svg data-name="Layer 1"
    xmlns="http://www.w3.org/2000/svg" viewBox="0 0 95.47 94"
    width="100" height="100">
    <g>
        <path d="M34.28 59.29h9.94v1.2a1.22 1.22 0 0 0-.63.41l-1.4 1.75a1.18 1.18 0 0 0 .91 1.91h9.27a1.18 1.18 0 0 0 .91-1.91l-1.4-1.75a1.22 1.22 0 0 0-.63-.41v-1.2h9.94A2.34 2.34 0 0 0 63.53 57V40.56a2.34 2.34 0 0 0-2.34-2.34h-3.26a9.8 9.8 0 0 0 1.42-4.49 1.75 1.75 0 0 0-1.75-1.94h-2.26V30a.59.59 0 0 0-.58-.59h-14a.59.59 0 0 0-.58.59v1.76h-2.31a1.75 1.75 0 0 0-1.75 1.94 9.8 9.8 0 0 0 1.42 4.49h-3.26a2.34 2.34 0 0 0-2.34 2.34V57a2.34 2.34 0 0 0 2.34 2.29zm18.09 4.09H43.1l1.41-1.75H51zm-2.29-2.92h-4.69v-1.17h4.69zm11.11-2.34H34.28A1.17 1.17 0 0 1 33.11 57v-2.39h29.25V57a1.17 1.17 0 0 1-1.17 1.12zm-17.55-6.44v-1.17h8.19v2.93h-8.19zm3.51-6.44h1.17V47h-1.17zm-.59 2.93h2.93a.59.59 0 0 1 .59.59v.58h-4.69v-.58a.59.59 0 0 1 .59-.59zm9.95 5.27H53v-1.17h3.51zm-14 0H39v-1.17h3.51zm19.85-12.88v12.88h-4.68v-1.17a1.17 1.17 0 0 0-1.17-1.17H53v-.59a1.17 1.17 0 0 0-1.17-1.17h-.58v-.58A1.76 1.76 0 0 0 49.49 47v-1.76h.59A5.26 5.26 0 0 0 55.34 40a3.47 3.47 0 0 0 1.42-.54h4.43a1.17 1.17 0 0 1 1.17 1.1zM57.6 33a.6.6 0 0 1 .44.19.58.58 0 0 1 .15.45c-.2 1.78-.83 4.66-2.85 5.13V33zm-16.3-2.38h12.87V40a4.09 4.09 0 0 1-4.09 4.09h-4.69A4.09 4.09 0 0 1 41.3 40zm-3.87 2.53a.6.6 0 0 1 .44-.19h2.26v5.77c-2-.47-2.65-3.35-2.85-5.13a.58.58 0 0 1 .15-.45zm-3.15 6.24h4.43a3.47 3.47 0 0 0 1.42.54 5.26 5.26 0 0 0 5.26 5.26H46V47a1.76 1.76 0 0 0-1.76 1.76v.58h-.58a1.17 1.17 0 0 0-1.17 1.17v.59H39a1.17 1.17 0 0 0-1.17 1.17v1.17h-4.72V40.56a1.17 1.17 0 0 1 1.17-1.17z"/>
        <path d="M43.64 37.64h1.75v3.51a1.18 1.18 0 0 0 1.17 1.17h2.35a1.18 1.18 0 0 0 1.17-1.17v-3.51h1.75a.58.58 0 0 0 .46-1l-4.09-5.21a.6.6 0 0 0-.93 0l-4.09 5.26a.58.58 0 0 0 .46 1zm4.1-4.9l2.89 3.73h-1.14a.58.58 0 0 0-.58.58v4.1h-2.35v-4.1a.58.58 0 0 0-.58-.58h-1.14zM48.91 55.78h-2.35a.59.59 0 0 0 0 1.17h2.35a.59.59 0 0 0 0-1.17zM34.86 42.9h.59a.58.58 0 0 0 .58-.58.59.59 0 0 0-.58-.59h-.59a.59.59 0 0 0-.58.59.58.58 0 0 0 .58.58zM37.79 42.9H39a.58.58 0 0 0 .58-.58.59.59 0 0 0-.58-.59h-1.21a.59.59 0 0 0-.59.59.58.58 0 0 0 .59.58zM34.86 45.24H39a.58.58 0 0 0 .58-.58.59.59 0 0 0-.58-.59h-4.1a.59.59 0 0 0-.58.59.58.58 0 0 0 .54.58zM34.86 47.59H36a.59.59 0 1 0 0-1.18h-1.14a.59.59 0 0 0 0 1.18zM37.79 47a.59.59 0 0 0 .58.59h3.51a.59.59 0 1 0 0-1.18h-3.51a.59.59 0 0 0-.58.59zM60 42.9h.59a.58.58 0 0 0 .58-.58.59.59 0 0 0-.58-.59H60a.59.59 0 0 0-.58.59.58.58 0 0 0 .58.58zM56.51 41.73a.59.59 0 0 0-.58.59.58.58 0 0 0 .58.58h1.17a.58.58 0 0 0 .59-.58.59.59 0 0 0-.59-.59zM60.61 44.07h-4.1a.59.59 0 0 0-.58.59.58.58 0 0 0 .58.58h4.1a.58.58 0 0 0 .58-.58.59.59 0 0 0-.58-.59zM60.61 46.41h-1.17a.59.59 0 0 0 0 1.18h1.17a.59.59 0 0 0 0-1.18zM57.1 46.41h-3.51a.59.59 0 0 0 0 1.18h3.51a.59.59 0 0 0 0-1.18z"/>
    </g>
</svg>