<svg xmlns="http://www.w3.org/2000/svg" viewBox="0 0 95.47 94"
width="100" height="100">
	<g>
		<path d="M48.6,64.74v8.13h7.88a1.22,1.22,0,1,1,0,2.42H38.29a1.22,1.22,0,1,1,0-2.42h7.88V64.74A17.66,17.66,0,0,1,29.38,46.8a1.28,1.28,0,0,1,2.55-.19v.19a15.46,15.46,0,0,0,30.92,0,1.27,1.27,0,1,1,2.54-.19v.19A17.66,17.66,0,0,1,48.6,64.74ZM58.89,28.68V46.74a11.52,11.52,0,1,1-23,0V28.68a11.52,11.52,0,1,1,23,0ZM56.48,46.74v-3H51A.91.91,0,0,1,51,42h5.45v-3H51a.91.91,0,0,1,0-1.82h5.45v-3H51a.91.91,0,0,1,0-1.82h5.45V28.68a9.1,9.1,0,0,0-18.19,0v3.58h5.46a.91.91,0,1,1,0,1.81H38.29v3h5.46a.91.91,0,0,1,0,1.82H38.29v3h5.46a.91.91,0,0,1,0,1.82H38.29v3a9.1,9.1,0,0,0,18.19,0Z" />
	</g>
</svg>
