<svg xmlns="http://www.w3.org/2000/svg" viewBox="0 0 95.47 94" width="100" height="100">
	<g>
		<path d="M65.05,34.17a1,1,0,0,0-.23-.62l-9.2-10.82h0l-.19-.16-.06,0-.18-.08h0a.83.83,0,0,0-.22,0H32.29a1.9,1.9,0,0,0-1.88,1.93V69.62a1.9,1.9,0,0,0,1.88,1.92H63.18a1.9,1.9,0,0,0,1.87-1.92V34.17ZM32.29,24.33H54v9.86a.94.94,0,0,0,.93,1h8.27v20H32.29ZM39.5,67H37.63V63.27h-3.1V67H32.64v-8.8h1.89v3.38h3.1V58.15H39.5Zm7.41-7.13H44.64V67H42.75V59.82H40.52V58.15h6.39ZM55,67l-.13-3.37c0-1.06-.07-2.34-.07-3.62h0c-.26,1.13-.6,2.38-.92,3.41l-1,3.44H51.38l-.89-3.41c-.27-1-.56-2.29-.75-3.44h0c-.05,1.19-.09,2.55-.15,3.65L49.41,67H47.68l.53-8.8h2.5l.82,2.94c.26,1,.51,2.11.7,3.14h0c.23-1,.51-2.18.79-3.15l.88-2.93H56.4l.46,8.8Zm8.48,0H58.3v-8.8h1.89v7.13H63.5V67Z" />
		<polygon points="37.22 44.62 44.39 48.05 44.39 46.42 38.97 43.98 38.97 43.95 44.39 41.5 44.39 39.87 37.22 43.3 37.22 44.62" />
		<polygon points="45.5 48.67 47.01 48.67 50.21 37.52 48.7 37.52 45.5 48.67" />
		<polygon points="51.08 41.5 56.62 43.95 56.62 43.98 51.08 46.42 51.08 48.05 58.25 44.67 58.25 43.25 51.08 39.87 51.08 41.5" />
	</g>
</svg>
