<svg data-name="Layer 1"
    xmlns="http://www.w3.org/2000/svg" viewBox="0 0 95.47 94" width="100" height="100">
    <g>
        <path d="M43.63 26.42A16.57 16.57 0 1060.2 43a16.57 16.57 0 00-16.57-16.58zm0 1.58a15 15 0 0112.24 6.36l-2 2a3.08 3.08 0 00-1.59-.45A3.15 3.15 0 0049.15 39a3.09 3.09 0 00.45 1.6l-5.17 5.2a3.08 3.08 0 00-3.18 0l-3.59-3.59a3.07 3.07 0 00.44-1.59 3.15 3.15 0 00-6.2-.79H29A15 15 0 0143.63 28zm10.26 11a1.58 1.58 0 11-1.58-1.57A1.58 1.58 0 0153.89 39zm-9.47 9.47a1.58 1.58 0 11-1.58-1.58 1.58 1.58 0 011.58 1.62zm-7.89-7.89A1.58 1.58 0 1135 39a1.58 1.58 0 011.53 1.62zM50.91 56.1A15 15 0 0128.64 43a14.29 14.29 0 01.08-1.6h3.18a3.17 3.17 0 003.1 2.38 3.08 3.08 0 001.59-.45l3.59 3.59a3.16 3.16 0 105.42 0l5.16-5.17a3.13 3.13 0 004.7-2.75 3.07 3.07 0 00-.46-1.55l1.72-1.72a15 15 0 01-5.81 20.37z"/>
        <path d="M63.36 31.15a3.15 3.15 0 003-2.36h4.85v-1.58H66.4a3.15 3.15 0 00-6.2.79 3.08 3.08 0 00.45 1.59L59.26 31a19.73 19.73 0 10-4.93 28.57l2.39 2.38L57.83 63l6.35 6.35A4.14 4.14 0 1070 63.54l-6.35-6.35-1.11-1.11-2.36-2.38a19.66 19.66 0 000-21.42l1.58-1.58a3.09 3.09 0 001.6.45zm0-4.73A1.58 1.58 0 1161.78 28a1.57 1.57 0 011.58-1.58zm5.56 38.24a2.56 2.56 0 11-3.58 3.66L59 61.93l3.62-3.62zm-7.47-7.47l-3.62 3.62-2.18-2.18.32-.27.36-.29.51-.44.25-.24c.32-.3.64-.62.94-.94l.24-.25.44-.51.29-.36.27-.32zm-3.06-3.66c-.25.34-.5.68-.78 1a3.22 3.22 0 01-.24.28c-.24.28-.49.56-.75.82l-.34.34c-.26.26-.54.51-.82.75l-.28.25c-.33.27-.67.52-1 .77a18.18 18.18 0 114.22-4.22z"/>
    </g>
</svg>