<svg xmlns="http://www.w3.org/2000/svg" viewBox="0 0 95.47 94" width="100" height="100">
	<g>
		<path d="M40.3,60.16s-2.06,1.19,1.47,1.6A30.9,30.9,0,0,0,53,61.29a20.3,20.3,0,0,0,3,1.45C45.35,67.26,32,62.47,40.3,60.16" />
		<path d="M39,54.25S36.7,56,40.23,56.32a43.41,43.41,0,0,0,14.42-.69A6.34,6.34,0,0,0,56.87,57c-12.77,3.73-27,.29-17.86-2.74" />
		<path d="M49.9,44.23c2.6,3-.69,5.69-.69,5.69s6.61-3.41,3.58-7.69c-2.84-4-5-6,6.76-12.78,0,0-18.48,4.61-9.65,14.78" />
		<path d="M63.87,64.53s1.52,1.25-1.68,2.23c-6.1,1.84-25.38,2.4-30.74.07-1.92-.84,1.69-2,2.82-2.25a7.39,7.39,0,0,1,1.86-.2c-2.14-1.51-13.84,3-5.94,4.24,21.54,3.49,39.26-1.57,33.68-4.09" />
		<path d="M41.3,48.13s-9.81,2.33-3.48,3.17a73.2,73.2,0,0,0,13-.14c4.05-.34,8.13-1.07,8.13-1.07a17.09,17.09,0,0,0-2.47,1.32c-10,2.62-29.2,1.4-23.66-1.28a18.58,18.58,0,0,1,8.5-2" />
		<path d="M58.89,58C69,52.7,64.33,47.64,61.07,48.32a6.9,6.9,0,0,0-1.16.32,1.85,1.85,0,0,1,.86-.67c6.47-2.27,11.44,6.7-2.08,10.26a.93.93,0,0,0,.2-.27" />
		<path d="M52.79,18.42s5.6,5.61-5.32,14.24c-8.76,6.92-2,10.86,0,15.37-5.11-4.62-8.86-8.68-6.34-12.46C44.81,30,55.05,27.33,52.79,18.42" />
		<path d="M42.29,72.22c9.72.62,24.64-.35,25-5,0,0-.68,1.75-8,3.13a79.93,79.93,0,0,1-24.59.38s1.24,1,7.63,1.44" />
	</g>
</svg>
