<svg xmlns="http://www.w3.org/2000/svg" viewBox="0 0 95.47 94" width="100" height="100">
	<g>
		<path d="M67.56,33.63a1,1,0,0,0-.24-.63L57.56,22.08h0a1.56,1.56,0,0,0-.2-.16l-.06,0-.2-.08H57a.91.91,0,0,0-.23,0h-24a2,2,0,0,0-2,1.94v45.7a2,2,0,0,0,2,2H65.58a2,2,0,0,0,2-2V33.74S67.56,33.67,67.56,33.63ZM47,64.05c0,3.42-1.68,4.62-4.37,4.62a7.37,7.37,0,0,1-2-.29l.31-2.19a4.57,4.57,0,0,0,1.42.21c1.17,0,1.9-.51,1.9-2.39V56.45H47v7.6Zm5.32,4.6a8.22,8.22,0,0,1-3.48-.73l.56-2.25a7.16,7.16,0,0,0,3.08.75c1.28,0,1.95-.52,1.95-1.3s-.58-1.18-2.06-1.69c-2-.7-3.37-1.81-3.37-3.55,0-2.06,1.75-3.63,4.65-3.63a7.67,7.67,0,0,1,3.13.61l-.62,2.2a5.77,5.77,0,0,0-2.57-.58c-1.2,0-1.78.54-1.78,1.16s.69,1.11,2.27,1.7c2.17.78,3.19,1.89,3.19,3.58C57.28,66.94,55.7,68.65,52.33,68.65ZM65.58,54.77H32.81V23.69h23v10a1,1,0,0,0,1,1h8.77V54.77Z" />
		<path d="M39.91,33.16a1.45,1.45,0,0,0,1.36,1.52.43.43,0,0,0,0-.86.66.66,0,0,1,0-1.32h0c.08,0,.74,0,.74.59V49.62a1.23,1.23,0,0,0,1.15,1.3H55.7a1.61,1.61,0,0,0,1.51-1.7,1.69,1.69,0,0,0-1.11-1.64h0V32.93A1.23,1.23,0,0,0,55,31.64H41.26A1.45,1.45,0,0,0,39.91,33.16Zm5.25,16.06a1.52,1.52,0,0,0-.25-.85h9.77a.85.85,0,0,1,0,1.68H44.92A1.56,1.56,0,0,0,45.16,49.22Zm-.37-7.94h9v.79h-9Zm0-2.86h9v.79h-9Zm0-2.92h9v.79h-9Z" />
	</g>
</svg>
