<svg data-name="Layer 1"
    xmlns="http://www.w3.org/2000/svg" viewBox="0 0 95.47 94" width="100" height="100">
    <g>
        <path d="M52.92 53.82v-3.94h1.15v-1.15h-6.91v1.15h1.15v3.94a5.84 5.84 0 0 0-1.08.65L43.7 48v-2.73h1.15v-1.15H43.7v-1.73a.58.58 0 0 0-.58-.58h-.57v-1.73a.58.58 0 0 0-.58-.57h-3.46a.58.58 0 0 0-.57.57v1.73h-.58a.57.57 0 0 0-.57.58v1.73h-1.16v1.15h1.16V48l-6.57 12a2.89 2.89 0 0 0-.35 1.38V62a2.88 2.88 0 0 0 2.88 2.88h15a3 3 0 0 0 1.17-.25 6 6 0 0 0 1.71.25 5.76 5.76 0 0 0 2.3-11zm-1.15-3.94V51h-2.31v-1.12zm-2.69 4.88a.57.57 0 0 0 .38-.54v-2h2.31v2a.57.57 0 0 0 .38.54A4.62 4.62 0 0 1 55.07 58a1.7 1.7 0 0 0-1.16.51l-.48.47a.58.58 0 0 1-.41.17h-.2a.58.58 0 0 1-.41-.17l-.47-.47a1.71 1.71 0 0 0-1.22-.51h-.2a1.73 1.73 0 0 0-1.23.51l-.47.47a.58.58 0 0 1-.41.17h-.2a.58.58 0 0 1-.41-.17l-.47-.47a1.72 1.72 0 0 0-1.16-.51 4.59 4.59 0 0 1 2.91-3.24zm-10-14.1h2.32v1.15h-2.31zM37.94 43h4.61v1.15h-4.61zm-.07 5.46a.68.68 0 0 0 .07-.28v-2.91h4.61v2.88a.55.55 0 0 0 .07.28l2.05 3.76a1.75 1.75 0 0 0-1.14.5l-.47.48a.58.58 0 0 1-.41.17h-.2a.58.58 0 0 1-.41-.17l-.48-.48a1.72 1.72 0 0 0-1.22-.5h-.2a1.74 1.74 0 0 0-1.22.5l-.48.48a.54.54 0 0 1-.4.17h-.2a.58.58 0 0 1-.41-.17l-.43-.48a1.73 1.73 0 0 0-1.14-.5zm-5.12 15.25A1.73 1.73 0 0 1 31 62v-.56a1.82 1.82 0 0 1 .21-.83l4-7.25h.54a.58.58 0 0 1 .41.17l.48.48a1.72 1.72 0 0 0 1.22.5H38a1.74 1.74 0 0 0 1.22-.5l.48-.48a.54.54 0 0 1 .4-.17h.2a.58.58 0 0 1 .41.17l.48.48a1.72 1.72 0 0 0 1.22.5h.2a1.74 1.74 0 0 0 1.22-.5l.48-.48a.54.54 0 0 1 .4-.17h.55l1 1.91a5.73 5.73 0 0 0 .83 8.46zm17.87 0A4.61 4.61 0 0 1 46 59.1h.1a.54.54 0 0 1 .4.17l.48.48a1.74 1.74 0 0 0 1.22.5h.2a1.72 1.72 0 0 0 1.22-.5l.48-.48a.58.58 0 0 1 .41-.17h.2a.54.54 0 0 1 .4.17l.48.48a1.74 1.74 0 0 0 1.22.5H53a1.72 1.72 0 0 0 1.22-.5l.48-.48a.58.58 0 0 1 .41-.17h.1a4.62 4.62 0 0 1-4.59 4.61z"/>
        <path d="M33.9 59.1a1.73 1.73 0 1 0 1.73 1.73 1.73 1.73 0 0 0-1.73-1.73zm0 2.31a.58.58 0 1 1 .58-.58.58.58 0 0 1-.58.58zM38.51 58a1.73 1.73 0 1 0 1.73 1.73A1.72 1.72 0 0 0 38.51 58zm0 2.3a.57.57 0 0 1-.57-.57.58.58 0 1 1 1.15 0 .57.57 0 0 1-.58.52zM42.55 55.64a1.73 1.73 0 1 0 1.73 1.73 1.74 1.74 0 0 0-1.73-1.73zm0 2.31a.58.58 0 1 1 0-1.15.58.58 0 0 1 0 1.15zM43.12 61.41h1.16v1.15h-1.16zM42 60.25h1.15v1.16H42zM40.82 61.41H42v1.15h-1.18zM36.21 56.22h1.15v1.15h-1.15zM65 37.2h-8a.58.58 0 0 0-.58.58v2.3a.58.58 0 0 0 .58.58h.57v20.75a3.46 3.46 0 0 0 6.92 0V40.66H65a.58.58 0 0 0 .58-.58v-2.3a.58.58 0 0 0-.58-.58zm-4 26.51a2.31 2.31 0 0 1-2.31-2.3V48.73h4.61v12.68a2.3 2.3 0 0 1-2.3 2.3zm2.3-16.13h-4.62v-6.92h4.61zm1.16-8.07h-6.93v-1.15h6.92z"/>
        <path d="M59.84 60.83H61V62h-1.16zM61 58.53h1.15v1.15H61zM59.84 56.22H61v1.15h-1.16zM61 53.92h1.15v1.15H61zM59.84 51.61H61v1.15h-1.16zM39.09 35.47a.58.58 0 0 1 .58-.57h1.73v3.46h1.15V34.9h5.76v12.68h1.15V34.9h1.73a.58.58 0 0 1 .58.57v12.11h1.15V35.47a1.72 1.72 0 0 0-1.73-1.72h-1.73v-.58a.58.58 0 0 1 .58-.58H57a.58.58 0 0 1 .57.58v2.88h1.15v-2.88A1.73 1.73 0 0 0 57 31.44h-7a1.74 1.74 0 0 0-1.73 1.73v.58h-5.72v-2.89a.58.58 0 0 1 .57-.57h19.6a.57.57 0 0 1 .57.57v5.19h1.16v-5.19a1.73 1.73 0 0 0-1.73-1.72h-19.6a1.72 1.72 0 0 0-1.72 1.72v2.89h-1.73a1.72 1.72 0 0 0-1.73 1.72v2.89h1.15zM33.33 37.78a1.73 1.73 0 1 0 1.73-1.73 1.73 1.73 0 0 0-1.73 1.73zm2.3 0a.58.58 0 1 1-.57-.58.58.58 0 0 1 .57.58zM32.75 34.9a2.88 2.88 0 1 0-2.88-2.9 2.88 2.88 0 0 0 2.88 2.9zm0-4.61A1.73 1.73 0 1 1 31 32a1.73 1.73 0 0 1 1.75-1.71zM32.18 45.27A2.31 2.31 0 1 0 29.87 43a2.3 2.3 0 0 0 2.31 2.27zm0-3.46A1.16 1.16 0 1 1 31 43a1.16 1.16 0 0 1 1.18-1.19z"/>
    </g>
</svg>