<svg id="Layer_1" data-name="Layer 1"
    xmlns="http://www.w3.org/2000/svg" viewBox="0 0 95.47 94" width="100" height="100">
    <g>
        <path d="M70.52,68.78,62.4,54a.75.75,0,0,0-.64-.38H33a.73.73,0,0,0-.66.41L24.94,68.81a.74.74,0,0,0,0,.72.75.75,0,0,0,.63.35H69.87a.74.74,0,0,0,.65-1.1ZM61.89,56.15,58.07,60l-4.86-4.86h8.11ZM36,67.16l9.89-9.89,9.66,9.65L54.07,68.4H37Zm24.28-2.88L64.4,68.4H56.16Zm-3.69,1.6-9.66-9.66L48,55.12h3.08l8.12,8.11ZM46,55.12,35.06,66,34,64.72l3.92-3.92a.75.75,0,0,0,0-1l-4.55-4.54,0-.1ZM30.67,60.64l2-4,3.67,3.67-3.29,3.29ZM30,62.09l5.16,6.31H26.79ZM66.49,68.4,59.11,61l3.52-3.52,6,10.9Z"/>
        <path d="M48.35,53.31l3.3-5a7.4,7.4,0,0,0,1.25-4.13v-.18a5.16,5.16,0,0,0-4.43-5.11V34.46H61a.74.74,0,0,0,.52-1.26l-3.91-3.91,3.91-3.91a.74.74,0,0,0,.16-.8.75.75,0,0,0-.68-.46H47.74a.74.74,0,0,0-.74.74V38.94a5.33,5.33,0,0,0-4.43,5.29,7.4,7.4,0,0,0,1.25,4.13l3.3,5a.74.74,0,0,0,1.23,0Zm.12-27.71H59.24l-3.17,3.17a.73.73,0,0,0,0,1L59.24,33H48.47ZM45.05,47.54a5.91,5.91,0,0,1-1-3.31,3.81,3.81,0,0,1,3.57-3.87h.12a3.69,3.69,0,0,1,3.68,3.69v.18a5.91,5.91,0,0,1-1,3.31l-2.68,4Z"/>
        <path d="M47.74,41.83A2.22,2.22,0,1,0,50,44.05,2.22,2.22,0,0,0,47.74,41.83Zm0,3a.74.74,0,0,1,0-1.48.74.74,0,0,1,0,1.48Z"/>
    </g>
</svg>