<svg data-name="Layer 1"
    xmlns="http://www.w3.org/2000/svg" viewBox="0 0 95.47 94" width="100" height="100">
    <g>
        <path d="M47.74 35.56a.88.88 0 10.88.88.88.88 0 00-.88-.88zM33.13 51.4a.88.88 0 10-.88-.88.88.88 0 00.88.88z"/>
        <path d="M54.78 26.76c-7.93 0-14.43 5.46-14.93 12.34-7.55.38-14.64 5.82-14.64 13.18a12.27 12.27 0 003.43 8.42 5.35 5.35 0 01-1.42 5 .89.89 0 00-.19 1 .88.88 0 00.82.54 9.67 9.67 0 006.72-2.72 20 20 0 006.12 1c7.93 0 14.43-5.46 14.93-12.34a19.59 19.59 0 005.28-.94 9.67 9.67 0 006.72 2.72.88.88 0 00.82-.54.89.89 0 00-.19-1 5.35 5.35 0 01-1.42-5A12.31 12.31 0 0070.26 40c0-7.69-7.64-13.24-15.48-13.24zm-14.09 37a17.76 17.76 0 01-6-1 .9.9 0 00-1 .23 7.9 7.9 0 01-3.95 2.34 7.14 7.14 0 00.54-5.33.87.87 0 00-.22-.37A10.6 10.6 0 0127 52.28c0-6.2 6.28-11.44 13.72-11.44 7 0 13.21 4.89 13.21 11.44-.03 6.31-5.93 11.44-13.24 11.44zm24.72-16.4a.87.87 0 00-.22.37 7.14 7.14 0 00.54 5.24 7.9 7.9 0 01-4-2.34.9.9 0 00-1-.23 17.13 17.13 0 01-5.18 1 12.6 12.6 0 00-4.76-8.78h11.55a.88.88 0 000-1.76H48.16a16.29 16.29 0 00-6.55-1.73c.51-5.92 6.22-10.59 13.17-10.59 7.44 0 13.72 5.24 13.72 11.44a10.6 10.6 0 01-3.09 7.34z"/>
        <path d="M47.74 49.64H36.65a.88.88 0 000 1.76h11.09a.88.88 0 100-1.76zM47.74 54.92H33.13a.88.88 0 000 1.76h14.61a.88.88 0 100-1.76zM62.34 35.56H51.26a.88.88 0 000 1.76h11.08a.88.88 0 000-1.76z"/>
    </g>
</svg>