<svg data-name="Layer 1"
    xmlns="http://www.w3.org/2000/svg" viewBox="0 0 95.47 94" width="100" height="100">
    <g>
        <path d="M53.33 30a1.07 1.07 0 00-1.07-1H40.94a1.07 1.07 0 00-1.07 1v6.8a1.07 1.07 0 001.07 1.07h10.25v3L40.94 51.19l-2.64-2.65a1.08 1.08 0 00-.85-.3 1 1 0 00-.79.45L26.47 63.35a1.07 1.07 0 00.88 1.65h40.77a1.07 1.07 0 001.07-1 1 1 0 00-.24-.67L53.33 41zM42 35.77v-4.66h9.18v4.66zM29.39 62.89L37.69 51l2.49 2.49a1.05 1.05 0 001.51 0L52.12 43l13.94 19.89z"/>
    </g>
</svg>