<svg data-name="Layer 1"
    xmlns="http://www.w3.org/2000/svg" viewBox="0 0 95.47 94" width="100" height="100">
    <g>
        <path d="M64.55 30.18a23.8 23.8 0 00-24.86-5.56l-.53-.91a.94.94 0 00-.8-.46.93.93 0 00-.8.47l-3.67 6.39a.94.94 0 00.8 1.4h7.37a1 1 0 00.81-.47.94.94 0 000-.93l-.31-.55A18.2 18.2 0 1129.55 47a.93.93 0 00-.93-.93h-3.71A.92.92 0 0024 47a23.77 23.77 0 1040.55-16.82zM47.74 68.89a21.92 21.92 0 01-21.88-21h1.85a20 20 0 1013.14-19.74.92.92 0 00-.55.56.89.89 0 00.07.78l.08.14h-4.16L38.36 26l.12.21a.93.93 0 001.14.39 21.91 21.91 0 118.12 42.26z"/>
        <path d="M59.17 35.56a.93.93 0 10-1.31 1.32.9.9 0 00.66.28.94.94 0 00.65-1.59z"/>
        <path d="M56 34.13a.94.94 0 00-.36-1.26 16.28 16.28 0 00-10-1.9 16.16 16.16 0 1016 7.72.93.93 0 10-1.59 1 14.29 14.29 0 11-5.32-5.16.93.93 0 001.27-.4z"/>
        <path d="M48.68 35.89v-.69a.93.93 0 10-1.85 0v.69a.93.93 0 101.85 0zM46.8 58.08v.7a.93.93 0 001.86 0v-.7a.93.93 0 10-1.86 0zM57.91 47a.93.93 0 00.93.93h.69a.93.93 0 000-1.86h-.69a.93.93 0 00-.93.93zM36 46.05a.93.93 0 000 1.85h.7a.93.93 0 100-1.85zM53.31 47a.92.92 0 00-.92-.93h-4.26l-7-7a.93.93 0 10-1.31 1.31l7.23 7.23a.89.89 0 00.65.27h4.65a.92.92 0 00.96-.88z"/>
    </g>
</svg>