<svg xmlns="http://www.w3.org/2000/svg" viewBox="0 0 95.47 94" width="100" height="100">
	<g>
		<path d="M43.68,66a1,1,0,1,0,.94.95A.95.95,0,0,0,43.68,66Z" />
		<path d="M49.37,56.52h-.95V49.88a.94.94,0,0,0-1-1h-1.9a.95.95,0,1,0,0,1.9h1v5.69h-1a.95.95,0,0,0,0,1.9h3.8a1,1,0,0,0,0-1.9Z" />
		<path d="M33.9,62.21a1,1,0,0,0,1-1V57.47a1,1,0,0,0-1-.95H30.1a.95.95,0,0,0,0,1.9H33v1.9H30.1a1,1,0,0,0-1,.94v3.8a1,1,0,0,0,1,1h3.8a1,1,0,1,0,0-1.9H31.05v-1.9Z" />
		<path d="M64.84,58.42H61a1,1,0,0,0,0,1.9h2.85v1.89H61a1,1,0,0,0,0,1.9h2.85V66H61a1,1,0,0,0,0,1.9h3.8a1,1,0,0,0,1-1V59.37A1,1,0,0,0,64.84,58.42Z" />
		<path d="M70.82,54.62H56V45.8a.94.94,0,0,0-.95-.95H39.88a.94.94,0,0,0-1,.95v5H24.12a.94.94,0,0,0-.94.94V71a1,1,0,0,0,.94.95h46.7a1,1,0,0,0,1-.95V55.57A1,1,0,0,0,70.82,54.62ZM38.93,70.09H25.07V52.72H38.93Zm15.18,0H40.83V46.74H54.11Zm15.76,0H56V56.52H69.87Z" />
		<path d="M56.89,30.63a1,1,0,0,0-.76-.65l-5.41-.78L48.3,24a1,1,0,0,0-.87-.55.94.94,0,0,0-.86.55L44.14,29.2l-5.4.78a1,1,0,0,0-.76.65.93.93,0,0,0,.24,1l3.92,3.83-.93,5.68a1,1,0,0,0,.38.93,1,1,0,0,0,1,.07l4.84-2.55,4.85,2.55a1,1,0,0,0,.44.11.95.95,0,0,0,.94-1.11l-.93-5.68,3.92-3.83A1,1,0,0,0,56.89,30.63Zm-5.84,3.78a1,1,0,0,0-.27.84l.7,4.29-3.6-1.89a.94.94,0,0,0-.89,0l-3.6,1.89.7-4.29a1,1,0,0,0-.27-.84l-2.9-2.82,4-.59a.93.93,0,0,0,.72-.54l1.78-3.85,1.79,3.85a.92.92,0,0,0,.72.54l4,.59Z" />
		<path d="M51.27,66h-3.8a1,1,0,0,0,0,1.9h3.8a1,1,0,0,0,0-1.9Z" />
	</g>
</svg>
