<svg xmlns="http://www.w3.org/2000/svg" viewBox="0 0 95.47 94" width="100" height="100">
	<g>
		<path d="M47.51,30.12a4,4,0,1,0-4-4A4,4,0,0,0,47.51,30.12Z" />
		<path d="M41.16,42.42H53.8a1.49,1.49,0,0,0,1.49-1.49V35.42a3.52,3.52,0,0,0-2.43-3.35h0l-2.12-.35a.36.36,0,0,0-.44.22l-2.41,6.6a.43.43,0,0,1-.81,0l-2.41-6.6a.36.36,0,0,0-.33-.23h-.11l-2.12.35a3.56,3.56,0,0,0-2.44,3.38v5.49A1.49,1.49,0,0,0,41.16,42.42Z" />
		<path d="M32,53.23a4,4,0,1,0-4-4A4,4,0,0,0,32,53.23Z" />
		<path d="M37.34,55.17h0l-2.12-.35a.35.35,0,0,0-.44.22l-2.41,6.6a.43.43,0,0,1-.81,0L29.15,55a.35.35,0,0,0-.33-.24l-.11,0-2.12.35a3.56,3.56,0,0,0-2.44,3.37V64a1.49,1.49,0,0,0,1.49,1.49H38.28A1.49,1.49,0,0,0,39.77,64V58.52A3.53,3.53,0,0,0,37.34,55.17Z" />
		<path d="M62.81,53.23a4,4,0,1,0-4-4A4,4,0,0,0,62.81,53.23Z" />
		<path d="M68.19,55.17h0l-2.12-.35a.36.36,0,0,0-.44.22l-2.4,6.6a.44.44,0,0,1-.82,0L60,55a.36.36,0,0,0-.34-.24l-.1,0-2.12.35A3.56,3.56,0,0,0,55,58.54V64a1.49,1.49,0,0,0,1.49,1.49H69.13A1.49,1.49,0,0,0,70.62,64V58.52A3.53,3.53,0,0,0,68.19,55.17Z" />
		<path d="M48.83,43.55H46.19v6L40,55.8a4.57,4.57,0,0,1,.89,2.72v.13L47.51,52l6.41,6.41a4.59,4.59,0,0,1,1-2.74l-6.09-6.09Z" />
		<path d="M48.47,31.69a.58.58,0,0,0-.41-.17H46.91a.55.55,0,0,0-.41.17.53.53,0,0,0-.07.63l.61.93-.29,2.42.57,1.51a.18.18,0,0,0,.33,0l.56-1.51-.29-2.42.62-.93A.55.55,0,0,0,48.47,31.69Z" />
		<path d="M33,54.8a.57.57,0,0,0-.41-.17H31.39a.57.57,0,0,0-.41.17.53.53,0,0,0-.07.63l.61.93-.28,2.42.56,1.51a.18.18,0,0,0,.33,0l.56-1.51-.29-2.42.62-.93A.55.55,0,0,0,33,54.8Z" />
		<path d="M63.79,54.8a.55.55,0,0,0-.41-.17H62.23a.58.58,0,0,0-.41.17.55.55,0,0,0-.07.63l.62.93-.29,2.42.57,1.51a.17.17,0,0,0,.32,0l.57-1.51-.29-2.42.61-.93A.52.52,0,0,0,63.79,54.8Z" />
	</g>
</svg>
