<svg xmlns="http://www.w3.org/2000/svg" viewBox="0 0 95.47 94" width="100" height="100">
	<g>
		<path d="M29.63,46.44H35V70.73a.89.89,0,0,0,.89.89H59.54a.89.89,0,0,0,.89-.89V46.44h5.41a.89.89,0,0,0,0-1.78H58.29V40.85a5.64,5.64,0,0,0-5.63-5.63h-5a5.64,5.64,0,0,0-5.63,5.63v3.81H39V37.93l4.23-4.22a.89.89,0,0,0,0-1.26.9.9,0,0,0-1.26,0l-4.49,4.49h0l-.06.06,0,0,0,0s0,0,0,0l0,0,0,0,0,0s0,0,0,0,0,0,0,0,0,0,0,0,0,0,0,0v.08a.28.28,0,0,0,0,.09h0v7.1H29.63a.89.89,0,1,0,0,1.78Zm29,23.4H36.82V46.44H58.65Zm-14.81-29A3.84,3.84,0,0,1,47.69,37h5a3.85,3.85,0,0,1,3.85,3.84v3.81H43.84V40.85Z" />
		<path d="M50.15,34a5.79,5.79,0,1,0-5.79-5.79A5.8,5.8,0,0,0,50.15,34Zm0-9.8a4,4,0,1,1-4,4A4,4,0,0,1,50.15,24.16Z" />
	</g>
</svg>
