<svg id="Capa_1" enable-background="new 0 0 512 512" height="512" viewBox="0 0 512 512" width="512" 
    xmlns="http://www.w3.org/2000/svg">
    <path d="m324.642 179.8c-13.088 1.665-23.238 12.871-23.238 26.403 0 14.676 11.94 26.616 26.616 26.616h17.48c4.142 0 7.5-3.358 7.5-7.5s-3.358-7.5-7.5-7.5h-17.48c-6.405 0-11.616-5.211-11.616-11.616s5.211-11.616 11.616-11.616h3.275c4.095 0 7.433-3.285 7.499-7.379.183-11.356 9.573-20.595 20.93-20.595 7.156 0 13.746 3.606 17.628 9.645 1.202 1.87 3.171 3.11 5.377 3.387 2.203.278 4.42-.44 6.046-1.955 2.503-2.333 5.764-3.617 9.182-3.617 7.269 0 13.312 5.912 13.471 13.179.089 4.077 3.42 7.336 7.498 7.336h24.723c6.405 0 11.616 5.211 11.616 11.616s-5.211 11.616-11.616 11.616h-63.149c-4.142 0-7.5 3.358-7.5 7.5s3.358 7.5 7.5 7.5h63.149c14.676 0 26.616-11.94 26.616-26.616s-11.94-26.616-26.616-26.616h-18.366c-3.487-11.809-14.504-20.515-27.327-20.515-4.51 0-8.89 1.058-12.831 3.051-6.667-6.68-15.73-10.51-25.4-10.51-17.042-.001-31.502 12.116-35.083 28.186z"/>
    <path d="m62.589 155.638h13.915c4.142 0 7.5-3.358 7.5-7.5s-3.358-7.5-7.5-7.5h-13.915c-6.666 0-12.089-5.423-12.089-12.089s5.423-12.089 12.089-12.089h25.334c4.078 0 7.409-3.259 7.498-7.336.165-7.547 6.441-13.687 13.99-13.687 3.549 0 6.936 1.334 9.536 3.756 1.626 1.516 3.84 2.232 6.046 1.955 2.205-.277 4.174-1.517 5.376-3.387 4.012-6.242 10.823-9.968 18.22-9.968 11.739 0 21.444 9.549 21.633 21.287.066 4.094 3.404 7.379 7.499 7.379h3.356c6.666 0 12.089 5.423 12.089 12.089s-5.423 12.089-12.089 12.089h-69.574c-4.142 0-7.5 3.358-7.5 7.5s3.358 7.5 7.5 7.5h69.574c14.937 0 27.089-12.152 27.089-27.089 0-13.817-10.398-25.251-23.78-26.888-3.603-16.448-18.377-28.867-35.798-28.867-9.906 0-19.187 3.941-25.993 10.811-4.044-2.069-8.547-3.167-13.185-3.167-13.105 0-24.357 8.93-27.864 21.022h-18.957c-14.937 0-27.089 12.152-27.089 27.089s12.152 27.09 27.089 27.09z"/>
    <path d="m504.5 446.317h-13.604l-100.211-182.413c-2.196-3.998-6.394-6.482-10.956-6.482-4.561 0-8.76 2.484-10.956 6.481l-33.669 61.288-82.966-151.023c-.871-1.584-2.059-2.926-3.456-3.975v-50.982h76.753c3.799 0 7.331-2.205 9-5.619 1.668-3.411 1.238-7.553-1.094-10.552l-12.017-15.446 12.018-15.448c2.331-2.998 2.76-7.139 1.092-10.552-1.669-3.413-5.201-5.618-9-5.618h-77.084c-.942-3.065-3.795-5.294-7.169-5.294-4.142 0-7.5 3.358-7.5 7.5v112.011c-1.397 1.048-2.585 2.39-3.456 3.974l-94.649 172.29-18.679-34.002c-2.196-3.998-6.394-6.482-10.956-6.482s-8.76 2.484-10.956 6.481l-73.536 133.863h-13.949c-4.142 0-7.5 3.358-7.5 7.5s3.358 7.5 7.5 7.5h394c4.142 0 7.5-3.358 7.5-7.5s-3.358-7.5-7.5-7.5h-115.823l41.576-75.68h43.747c4.773 0 10.464-2.357 13.839-5.732l4.661-4.661 7.661 7.661c3.375 3.375 9.066 5.732 13.839 5.732h22.854l39.927 72.68h-37.281c-4.142 0-7.5 3.358-7.5 7.5s3.358 7.5 7.5 7.5h68c4.142 0 7.5-3.358 7.5-7.5s-3.358-7.5-7.5-7.5zm-255.817-375.34h66.566l-7.093 9.117h-59.473zm0 24.117h59.473l7.093 9.117h-66.566zm-7.5 90.284 61.521 111.987h-37.779c-.75-.021-2.469-.733-3.009-1.244l-11.606-11.606c-2.332-2.332-5.436-3.616-8.743-3.616s-6.412 1.284-8.743 3.616l-17.04 17.04-12.662-12.662c-3.319-3.319-8.914-5.637-13.608-5.637h-2.101zm-135.24 138.288 35.785 65.139-14.728 14.727-11.161-11.161c-3.375-3.375-9.066-5.732-13.839-5.732h-30.652zm-67.38 122.651 24.545-44.679h38.889c.81.015 2.655.78 3.236 1.339l12.929 12.928c2.357 2.357 5.496 3.655 8.839 3.655s6.482-1.298 8.839-3.655l13.41-13.41 24.074 43.822zm230 0h-78.126l-46.302-84.284 35.036-63.776h10.333c.751.021 2.47.733 3.01 1.243l14.525 14.525c2.331 2.332 5.436 3.616 8.743 3.616s6.412-1.284 8.743-3.616l17.04-17.04 9.742 9.742c3.319 3.319 8.915 5.638 13.609 5.638h46.027l15.603 28.403zm142.44-87.679c-.81-.015-2.655-.78-3.236-1.339l-9.429-9.429c-4.874-4.874-12.804-4.874-17.678 0l-6.426 6.426c-.583.562-2.429 1.327-3.235 1.341h-35.507l44.236-80.523 45.884 83.523h-14.609z"/>
</svg>