<svg data-name="Layer 1"
    xmlns="http://www.w3.org/2000/svg" viewBox="0 0 95.47 94" width="100" height="100">
    <g>
        <path d="M72.42 47c0-3.28-4.09-6.38-10.37-8.3 1.45-6.4.8-11.49-2-13.12a4.33 4.33 0 00-2.29-.58v2.25a2.38 2.38 0 011.15.26c1.37.78 2 3.77 1.5 7.62-.11.94-.3 1.94-.52 3A47.16 47.16 0 0053.5 37a50.69 50.69 0 00-4.18-5c3.28-3.05 6.36-4.72 8.45-4.72V25c-2.77 0-6.39 2-10.06 5.4-3.66-3.4-7.28-5.36-10.05-5.36v2.26c2.08 0 5.17 1.66 8.45 4.69A49.05 49.05 0 0042 37a45.51 45.51 0 00-6.4 1.11c-.23-1-.41-2-.53-2.92-.47-3.85.11-6.83 1.47-7.63a2.26 2.26 0 011.16-.26v-2.24a4.38 4.38 0 00-2.27.57c-2.83 1.63-3.47 6.71-2 13.09-6.26 1.93-10.33 5-10.33 8.29s4.09 6.37 10.37 8.29c-1.45 6.4-.8 11.49 2 13.12a4.34 4.34 0 002.26.57c2.77 0 6.39-2 10.06-5.4C51.44 67 55.06 69 57.83 69a4.38 4.38 0 002.27-.57c2.83-1.63 3.47-6.71 2-13.09 6.25-1.97 10.32-5.07 10.32-8.34zm-13.1-6.72c-.37 1.3-.84 2.64-1.36 4-.41-.81-.84-1.61-1.32-2.42s-1-1.59-1.45-2.35c1.43.2 2.81.49 4.13.78zM54.71 51c-.79 1.36-1.59 2.65-2.43 3.85-1.5.13-3 .2-4.55.2s-3-.07-4.52-.19q-1.26-1.8-2.44-3.83c-.76-1.32-1.46-2.66-2.09-4 .62-1.35 1.33-2.7 2.08-4s1.59-2.65 2.43-3.85c1.5-.13 3-.2 4.54-.2s3 .07 4.53.19Q53.52 41 54.7 43c.76 1.32 1.46 2.66 2.09 4a56.34 56.34 0 01-2.08 4zM58 49.7c.54 1.35 1 2.7 1.39 4-1.32.32-2.71.59-4.15.8.5-.77 1-1.57 1.45-2.38s.86-1.61 1.31-2.42zM47.76 60.44A38.07 38.07 0 0145 57.22c.9 0 1.83.07 2.76.07s1.89 0 2.8-.07a37.86 37.86 0 01-2.8 3.22zm-7.49-5.93c-1.43-.21-2.81-.47-4.13-.79.37-1.3.84-2.64 1.36-4 .41.81.84 1.61 1.32 2.42s.95 1.61 1.45 2.37zm7.43-20.94a38.07 38.07 0 012.8 3.22c-.9 0-1.83-.07-2.77-.07s-1.88 0-2.79.07a37.86 37.86 0 012.76-3.22zm-7.44 5.93c-.5.77-1 1.57-1.45 2.38s-.9 1.61-1.31 2.42c-.54-1.35-1-2.7-1.39-4 1.32-.3 2.71-.59 4.15-.8zm-9.11 12.6c-3.56-1.52-5.87-3.51-5.87-5.09s2.31-3.59 5.87-5.1c.86-.37 1.81-.7 2.79-1A47.64 47.64 0 0036.2 47a46.33 46.33 0 00-2.2 6.12 29.78 29.78 0 01-2.85-1.02zm5.41 14.38c-1.37-.78-2-3.77-1.5-7.62.11-.94.3-1.94.52-3A47.16 47.16 0 0042 57a50.69 50.69 0 004.18 5c-3.28 3-6.36 4.72-8.45 4.72a2.46 2.46 0 01-1.17-.24zm23.88-7.67c.47 3.85-.11 6.84-1.47 7.63a2.26 2.26 0 01-1.16.26c-2.08 0-5.17-1.66-8.45-4.69a49.05 49.05 0 004.15-5 45.51 45.51 0 006.4-1.11 29 29 0 01.53 2.91zm3.87-6.71c-.86.37-1.81.7-2.79 1a47.64 47.64 0 00-2.26-6.1 46.33 46.33 0 002.23-6.09c1 .31 1.95.65 2.83 1 3.56 1.52 5.87 3.51 5.87 5.1s-2.32 3.58-5.88 5.09z"/>
        <circle cx="47.72" cy="47.01" r="4.6"/>
    </g>
</svg>