<svg data-name="Layer 1"
    xmlns="http://www.w3.org/2000/svg" viewBox="0 0 95.47 94" width="100" height="100">
    <g>
        <path d="M71.32 56.05A2.36 2.36 0 0069 54.4h-1V28.82a.8.8 0 00-.8-.8H56V24a.8.8 0 00-.8-.8H24.82a.8.8 0 00-.8.8v41.59a.8.8 0 00.8.8h26.42l-.4 1.24a2.4 2.4 0 003.69 2.68l4.19-3a.8.8 0 011 0l4.2 3a2.4 2.4 0 003.69-2.68L66 62.68a.77.77 0 01.29-.88l4.21-3.06a2.36 2.36 0 00.82-2.69zM66.4 29.62V54.4h-2.55a.69.69 0 01-.25 0 .81.81 0 01-.51-.51l-1.61-4.94a2.4 2.4 0 00-4.56 0L56 51.73V44h6.4a.8.8 0 100-1.6H56v-3.2h6.4a.8.8 0 000-1.6H56v-3.2h6.4a.8.8 0 000-1.6H56v-3.18zM25.62 64.8v-40H54.4v29.6h-5a2.4 2.4 0 00-1.42 4.34l4.21 3.06a.79.79 0 01.29.89l-.68 2.11zm43.89-7.35l-4.2 3a2.38 2.38 0 00-.87 2.68L66 68.12a.79.79 0 01-.29.9.81.81 0 01-.94 0L60.61 66a2.4 2.4 0 00-2.82 0l-4.2 3a.79.79 0 01-1.23-.89L54 63.18a2.38 2.38 0 00-.87-2.68l-4.2-3a.79.79 0 01-.3-.9.81.81 0 01.77-.55h5.2a2.28 2.28 0 001-.21 2.34 2.34 0 001.25-1.42l1.61-4.94a.82.82 0 01.76-.55.81.81 0 01.76.55l1.61 5A2.4 2.4 0 0063.85 56H69a.8.8 0 01.48 1.45z"/>
        <path d="M31.22 31.22h17.59a.8.8 0 000-1.6H31.22a.8.8 0 000 1.6zM31.22 37.61h17.59a.8.8 0 100-1.6H31.22a.8.8 0 000 1.6zM31.22 44h17.59a.8.8 0 100-1.6H31.22a.8.8 0 000 1.6zM49.61 49.6a.8.8 0 00-.8-.8H31.22a.8.8 0 000 1.6h17.59a.8.8 0 00.8-.8z"/>
    </g>
</svg>