<svg data-name="Layer 1"
    xmlns="http://www.w3.org/2000/svg" viewBox="0 0 95.47 94" width="100" height="100">
<g>
	<path d="M71.3,71c-0.7-0.5-1.7-0.4-2.2,0.3c-0.5,0.7-0.4,1.7,0.3,2.2l2.7,2c0.3,0.2,0.6,0.3,1,0.3c0.4,0,0.9-0.2,1.2-0.5l5.1-5.6
		c0.6-0.6,0.5-1.6-0.1-2.2c-0.6-0.6-1.6-0.5-2.2,0.1l-4.1,4.6L71.3,71z"/>
	<path d="M88,62.7c0-0.8-0.6-1.5-1.4-1.5c-3.7-0.3-8.3-2.8-11.7-6.4c-0.3-0.3-0.7-0.5-1.1-0.5c0,0,0,0,0,0c-0.4,0-0.8,0.2-1.1,0.5
		c-1.5,1.6-3.3,3-5.1,4c-3.2-3.5-7.1-6.2-11.7-7.8c0,0-0.1,0-0.1,0c-0.4-0.1-0.7-0.2-1.1-0.4c3.9-3.9,6.5-9,6.5-13.5v-2.5
		c1.8-0.8,3.1-2.6,3.1-4.8c0-2.2-1.4-4.1-3.3-4.8C60.1,17.2,54.6,10.6,47,8.5c-0.2-1.1-1.2-1.9-2.3-1.9H39c-1.1,0-2,0.7-2.3,1.8
		c-3.7,1-7.1,3.1-9.7,6.1c-2.6,3-4.2,6.7-4.6,10.6c-2,0.7-3.3,2.6-3.3,4.8c0,2.1,1.3,4,3.1,4.8v2.5c0,4.6,2.6,9.6,6.5,13.5
		c-0.4,0.1-0.7,0.2-1.1,0.4c-0.1,0-0.1,0-0.2,0.1c-5.1,1.9-9.4,4.9-12.8,9.2c-3.2,4.1-5.5,9.1-6.8,14.9c-0.5,2.1-0.8,4.7,0.6,6.5
		c1.4,1.7,3.9,2,5.9,2h10.2c0.9,0,1.6-0.7,1.6-1.6s-0.7-1.6-1.6-1.6H14.4c-1.9,0-3-0.3-3.5-0.8c-0.4-0.6-0.4-1.8,0-3.8
		c1.6-7.3,5.6-16.3,15.2-20.8c-0.3,5.3,2.6,8.7,4.4,10.9c0.3,0.3,0.7,0.5,1.1,0.6c0.4,0,0.9-0.1,1.2-0.4l8.8-8.6l8.8,8.6
		c0.3,0.3,0.7,0.4,1.1,0.4c0,0,0.1,0,0.1,0c0.4,0,0.8-0.2,1.1-0.6c1.8-2.2,4.7-5.7,4.4-10.9c2.8,1.3,5.2,3.1,7.4,5.3
		c-1.3,0.5-2.5,0.8-3.7,0.9c-0.8,0.1-1.4,0.7-1.4,1.5c-0.1,5.6,0.8,9.6,3.3,14.3c0,0,0.9,1.6,2.2,3.4H38.9c-0.9,0-1.6,0.7-1.6,1.6
		c0,0.9,0.7,1.6,1.6,1.6h28.6c1.9,2.1,4.1,3.9,6.2,3.9c5.1,0,10.9-10.3,10.9-10.4C87.2,72.3,88.1,68.3,88,62.7L88,62.7z M57.7,24.7
		h-8.6c-1.6-4.3-1.9-7.8-2-12.9C52.7,13.8,56.8,18.7,57.7,24.7L57.7,24.7z M39.8,9.7h4.1c0,6.1,0.2,10.2,1.8,15H38
		C39.7,19.9,39.8,15.8,39.8,9.7z M36.7,11.6c-0.1,5.2-0.4,8.8-2,13h-9C26.6,18.7,30.9,13.5,36.7,11.6L36.7,11.6z M24.3,27.8h10.5
		c0.1,0.1,0.2,0.1,0.3,0h24c1.1,0,2,0.9,2,2c0,1.1-0.9,2.1-2,2.1H24.3c-1.1,0-2.1-0.9-2.1-2.1C22.3,28.7,23.2,27.8,24.3,27.8z
		 M25.4,37.1v-2H58v2c0,6-5.8,13.4-12.4,15.8c-2.9,1.1-4.9,1.1-7.8,0C31.2,50.4,25.4,43,25.4,37.1L25.4,37.1z M31.9,62.6
		c-1.6-2.1-3.2-4.9-2.4-8.9c0.7-0.2,1.4-0.4,2.1-0.6c1.6,1.2,3.3,2.1,5,2.8c0.6,0.2,1.1,0.4,1.7,0.5L31.9,62.6z M51.5,62.6l-6.4-6.2
		c0.5-0.1,1.1-0.3,1.6-0.5c1.8-0.7,3.5-1.6,5.1-2.8c0.7,0.2,1.4,0.4,2.1,0.6C54.7,57.7,53.1,60.5,51.5,62.6L51.5,62.6z M81.9,75.5
		c-1.9,3.5-6.2,8.8-8.2,8.8s-6.3-5.3-8.2-8.8c-2.1-3.8-2.9-7.1-3-11.4c1.7-0.3,3.4-1,5.2-1.8c0.1,0,0.1-0.1,0.2-0.1
		c2-1,4-2.4,5.8-4.1c3.3,3.1,7.4,5.3,11.1,6C84.8,68.4,83.9,71.6,81.9,75.5L81.9,75.5z"/>
	<path d="M31.8,80.4c-0.9,0-1.6,0.7-1.6,1.6s0.7,1.6,1.6,1.6h0c0.9,0,1.6-0.7,1.6-1.6S32.6,80.4,31.8,80.4z"/>
</g>
</svg>
