<svg data-name="Layer 1"
    xmlns="http://www.w3.org/2000/svg" viewBox="0 0 95.47 94" width="100" height="100">
    <g>
        <path d="M32.31 36.2a5.4 5.4 0 005.33-4.63h30.15a.77.77 0 100-1.54H37.64a5.4 5.4 0 10-5.33 6.17zm0-9.26a3.86 3.86 0 11-3.86 3.86 3.86 3.86 0 013.86-3.86zM63.16 57.8a5.4 5.4 0 00-5.33 4.63H27.68a.77.77 0 100 1.54h30.15a5.4 5.4 0 105.33-6.17zm0 9.26A3.86 3.86 0 1167 63.2a3.86 3.86 0 01-3.84 3.86zM67.79 46.23H53.42a5.56 5.56 0 00-11.05 0H27.68a.77.77 0 100 1.54h14.74a5.55 5.55 0 0010.95 0h14.42a.77.77 0 100-1.54zm-19.9 4.63a4 4 0 114-4 4 4 0 01-4 4z"/>
    </g>
</svg>