<svg data-name="Layer 1"
    xmlns="http://www.w3.org/2000/svg" viewBox="0 0 95.47 94" width="100" height="100">
    <g>
        <path d="M51.51 68.45H44v-3.77A8.81 8.81 0 0 0 36.42 56v3.67l-10.14-7.56 10.14-7.53v3.81A16.32 16.32 0 0 1 44 50.93V35.1h-3.91l7.64-9.55 7.65 9.55h-3.87v5.78a16.22 16.22 0 0 1 7.54-2.55v-3.8l10.14 7.53-10.14 7.52v-3.66a8.81 8.81 0 0 0-7.54 8.71z"/>
        <path d="M56.53 55.88h2.52v2.52h-2.52zM61.56 55.88h7.63v2.52h-7.63zM56.53 60.91h2.52v2.52h-2.52zM61.56 60.91h7.63v2.52h-7.63zM56.53 65.94h2.52v2.51h-2.52zM61.56 65.94h7.63v2.51h-7.63z"/>
    </g>
</svg>