<svg xmlns="http://www.w3.org/2000/svg" viewBox="0 0 95.47 94" width="100" height="100">
	<g>
		<path d="M68.39,25.07A22.94,22.94,0,0,1,65.63,30a25.94,25.94,0,1,0-36.2,37.17l1,.85A25.9,25.9,0,0,0,72.93,50C73.64,43.38,71.7,35,68.39,25.07ZM33.11,67.29a2.19,2.19,0,0,1-1.72.82,2.22,2.22,0,0,1,0-4.44,2.2,2.2,0,0,1,1.39.49A2.23,2.23,0,0,1,33.11,67.29Zm35.18-7.77c-6.4,8.53-20.06,5.65-28.82,6.06,0,0-1.56.1-3.12.35l1.35-.53c6.15-2.15,9-2.56,12.79-4.48,7-3.58,14-11.42,15.44-19.58-2.68,7.85-10.8,14.59-18.2,17.33A124,124,0,0,1,33.5,62.36l-.37-.2c-6.23-3-6.42-16.55,4.91-20.91,5-1.91,9.71-.86,15.07-2.14,5.72-1.36,12.34-5.66,15-11.26C71.16,36.81,74.79,50.85,68.29,59.52Z" />
	</g>
</svg>
