<svg id="Layer_1" data-name="Layer 1"
    xmlns="http://www.w3.org/2000/svg" viewBox="0 0 95.47 94" width="100" height="100">
    <title>success</title>
    <g>
        <path d="M25,67.1l.6,1.35,21.57-8.94L51,60l1.35,4.13-1.8,1.73A2.16,2.16,0,0,0,50,68.3l.75,1.88L63.21,65.3l-.67-1.81a2.13,2.13,0,0,0-2.11-1.42H58L56.6,58.83l3.31-1.65A2.25,2.25,0,0,0,61,54.4L56.75,42.9a2.32,2.32,0,0,0-2.93-1.35.07.07,0,0,0-.07.08L50.59,43l-.45-1.13,1.73-2A8.86,8.86,0,0,0,54.05,35l2.18-2.63a4,4,0,0,0-.53-5.56,6.7,6.7,0,0,0-.9-.6A3.75,3.75,0,0,0,52.24,26L52,25.32A2.18,2.18,0,0,0,49.16,24L33.31,29.68A2.19,2.19,0,0,0,32,32.53v.08l.37,1a4.17,4.17,0,0,0-2.18,5.11,4.29,4.29,0,0,0,3.46,2.78l3.53.37A9.83,9.83,0,0,0,42,43.73L44.5,44,45,45.08a2.26,2.26,0,0,0-1.05,1.51l-.52,2.55L25,56.58,25.57,58,36.09,53.8l2.55,7.66Zm36-3.16.16.45-9.62,3.84-.23-.45a1.08,1.08,0,0,1,.15-.83l2.56-2.4,3.23-1.06h3A.75.75,0,0,1,61,63.94Zm-4.73-1.8-2.7.9-1-2.85a1.66,1.66,0,0,0,1.2-.23l1.28-.6Zm-2-19.39a.75.75,0,0,1,1,.38l.6,1.58-3.68,1.2.45,1.43,3.68-1.2.9,2.4-3.53,1.2.45,1.43L57.73,50l.9,2.4L55.17,53.5l.46,1.43,3.53-1.21.37,1a.66.66,0,0,1-.37.9l-5.94,2.93a.9.9,0,0,1-.45.08L47.66,58l-2.78-8.34.53-2.78a.78.78,0,0,1,.45-.53ZM54.2,27.58a2.48,2.48,0,0,1,1.27,3.23,2.64,2.64,0,0,1-.37.6l-.9,1.12a12,12,0,0,0-.45-2.17l-1-2.93A3,3,0,0,1,54.2,27.58ZM31.65,38.32a2.59,2.59,0,0,1,1.28-3.23l1,2.55a10.92,10.92,0,0,0,1.51,2.56l-1.58-.15A2.54,2.54,0,0,1,31.65,38.32Zm10.67,4a8.21,8.21,0,0,1-6.91-5.18l-1.95-5a.75.75,0,0,1,.37-1l15.86-5.71a.88.88,0,0,1,.6,0,.83.83,0,0,1,.38.45l1.65,5a8.27,8.27,0,0,1-1.58,8l-2.33,2.7.68,1.81-2.71,1.12-.75-1.88Zm-4.8,10.9,1.72-.68,1.88,5.71,1.43-.45L40.6,51.92l3-1.2,2.56,7.59-6.09,2.55Z"/>
        <path d="M62.16,37v.75h1.5V37a3.72,3.72,0,0,1,3.76-3.76v-1.5A3.72,3.72,0,0,1,63.66,28V27.2h-1.5V28a3.72,3.72,0,0,1-3.75,3.76v1.5A3.72,3.72,0,0,1,62.16,37Zm.75-6.31a5.2,5.2,0,0,0,1.81,1.8,5.2,5.2,0,0,0-1.81,1.8,5.17,5.17,0,0,0-1.8-1.8A5.17,5.17,0,0,0,62.91,30.66Z"/>
        <path d="M29.1,52v.75h1.5V52a3.72,3.72,0,0,1,3.76-3.76v-1.5A3.73,3.73,0,0,1,30.6,43v-.75H29.1V43a3.72,3.72,0,0,1-3.76,3.76v1.5A3.72,3.72,0,0,1,29.1,52Zm.75-6.32a5.12,5.12,0,0,0,1.8,1.81,5.17,5.17,0,0,0-1.8,1.8,5.17,5.17,0,0,0-1.8-1.8A5.12,5.12,0,0,0,29.85,45.68Z"/>
        <path d="M66.67,43v-.75h-1.5V43a3.73,3.73,0,0,1-3.76,3.76v1.5A3.72,3.72,0,0,1,65.17,52v.75h1.5V52a3.72,3.72,0,0,1,3.76-3.76v-1.5A3.72,3.72,0,0,1,66.67,43Zm-.75,6.31a5.17,5.17,0,0,0-1.8-1.8,5.12,5.12,0,0,0,1.8-1.81,5.12,5.12,0,0,0,1.8,1.81A5.17,5.17,0,0,0,65.92,49.29Z"/>
        <path d="M47.36,37.19l1,1.06c4.13-4.14.3-10.45.08-10.67l-1.28.82C47.28,28.4,50.67,33.89,47.36,37.19Z"/>
    </g>
</svg>