<svg xmlns="http://www.w3.org/2000/svg" viewBox="0 0 95.47 94" width="100" height="100">
	<g>
		<path d="M74.74,38.26l-25.8-8.87c-1.61-.58-1.27-.59-2.86,0l-25.95,8.8c-1.6.57-1.59,1.51,0,2.09l6.17,2.09C23.59,45,23.41,47.76,23.37,51a2.82,2.82,0,0,0-.25,5.15c-.44,3.24-1.69,6.95-5.37,11.34a12.4,12.4,0,0,0,4.17,2.34c5.15-2.21,4.52-8.07,4.12-13.91a2.82,2.82,0,0,0-.16-4.67c.09-3.12.77-5.92,3.11-7.73,0,0,.07-.09.17-.13l17.73-7.17a1.28,1.28,0,0,1,1.67.71l0,.06a1.29,1.29,0,0,1-.72,1.67l-15,6L46.3,49.15c1.6.58,1.27.58,2.86,0l25.61-8.79C76.36,39.78,76.35,38.84,74.74,38.26ZM46.26,52.55,30,47.05v4.14a4.18,4.18,0,0,1,1.32,3.13,4.41,4.41,0,0,1-1,2.88,2.26,2.26,0,0,0,1.12,1.49c9.45,5.22,22.51,5.17,33-.53a3.28,3.28,0,0,0,1.38-2.23V46.82L49.13,52.56C47.54,53.14,47.86,53.13,46.26,52.55Z" />
	</g>
</svg>
