<svg data-name="Layer 1"
    xmlns="http://www.w3.org/2000/svg" viewBox="0 0 95.47 94" width="100" height="100">
    <g>
        <path d="M66.9 39.6V37c0-2.19.42-1.85-1.9-2.63h-.19c-3.76-.67-7.48-.79-11.1.66a8.64 8.64 0 00-5.07 5 7.9 7.9 0 002.15 8.61 28.87 28.87 0 006.51 4.06 25.2 25.2 0 014.85 2.92 4.83 4.83 0 011.32 5.79c-.8 1.89-2.56 2.39-4.35 2.68a13.16 13.16 0 01-4.92-.21 14.32 14.32 0 01-5.43-2.24c-.13-.09-.35-.19-.45-.13s-.16.29-.16.44v3.41a.94.94 0 00.62 1 19.78 19.78 0 007.33 1.59 16.08 16.08 0 006.58-1 8.2 8.2 0 003.11-13.6 25 25 0 00-6.8-4.51 21 21 0 01-4.86-2.91 4.48 4.48 0 01-1.56-4.33c.35-2 1.78-2.94 3.53-3.55a11.73 11.73 0 014.25-.41 12 12 0 015.77 1.63 7.06 7.06 0 00.77.33zm-24.27 7.59V32.06c0-1.65 0-1.65 1.65-1.65h8.3c.76 0 .86-.11.87-.87v-2.37c0-1.09 0-1.09-1.09-1.09H28.2c-.89 0-.94.05-.94.91v2.49c0 .86.07.93.94.93H37c1 0 1 0 1 1V62.9c0 .91 0 .94.9.94h2.87c.9 0 .9 0 .9-.92z"/>
    </g>
</svg>