<svg xmlns="http://www.w3.org/2000/svg" viewBox="0 0 95.47 94" width="100" height="100">
	<g>
		<path d="M55.51,44.73,43.85,38.34a2.15,2.15,0,0,0-3.17,1.88V52.88a2.11,2.11,0,0,0,1,1.83,2.12,2.12,0,0,0,2.12,0L55.5,48.49a2.13,2.13,0,0,0,0-3.76ZM43.77,51.28V41.83l8.72,4.77Z" />
		<path d="M73.39,36.53v0c0-.43-.49-4.21-2.33-6.13a8.58,8.58,0,0,0-5.69-2.67l-.26,0H65c-7-.51-17.52-.57-17.62-.58h0c-.11,0-10.65.07-17.69.58H29.6l-.25,0a8.37,8.37,0,0,0-5.66,2.75c-1.75,1.9-2.25,5.6-2.3,6v.05c0,.18-.39,4.39-.39,8.61v4c0,4.23.37,8.44.39,8.62v0c.05.42.49,4.13,2.32,6.05a8.72,8.72,0,0,0,5.88,2.63l.53.07.12,0c4,.38,16.66.57,17.2.58h0c.11,0,10.64-.07,17.62-.58h.1l.29,0a8.18,8.18,0,0,0,5.61-2.68c1.75-1.91,2.26-5.61,2.31-6v0c0-.18.39-4.39.39-8.62v-4C73.78,40.92,73.41,36.71,73.39,36.53Zm-2.7,12.56c0,3.92-.34,7.94-.38,8.31-.13,1-.66,3.36-1.51,4.29a5.1,5.1,0,0,1-3.65,1.69l-.33,0c-6.75.49-16.9.56-17.36.57s-13-.2-16.88-.57l-.65-.08A5.75,5.75,0,0,1,26,61.69l0,0c-.84-.88-1.36-3.06-1.49-4.25,0-.27-.38-4.35-.38-8.32v-4c0-3.9.35-7.93.38-8.3A9.53,9.53,0,0,1,26,32.55a5.34,5.34,0,0,1,3.72-1.77l.26,0c6.84-.49,17.06-.56,17.43-.56s10.57.07,17.36.56l.27,0a5.51,5.51,0,0,1,3.79,1.71l0,0c.83.87,1.35,3.1,1.48,4.3,0,.26.38,4.35.38,8.32Z" />
	</g>
</svg>
