<svg data-name="Layer 1"
    xmlns="http://www.w3.org/2000/svg" viewBox="0 0 95.47 94" width="100" height="100">
    <g>
        <path d="M49.93 24.43a22.76 22.76 0 0120.35 19.78 36.59 36.59 0 010 5.54 23.28 23.28 0 01-5 11.69 22.89 22.89 0 01-14.41 8 28.36 28.36 0 01-6.11 0A22.54 22.54 0 0132 63.26a21.55 21.55 0 01-4.51-6.17 22.67 22.67 0 0117.08-32.54 32 32 0 015.36-.12zm.07 2.75a53.06 53.06 0 013.13 8.49L53.5 37h7.95a16.84 16.84 0 00-1.24-2.27 27.69 27.69 0 00-7.83-8 2.82 2.82 0 00-1.69-.73c-.41-.07-.88-.12-1-.13h-.28zM44.93 26c-.94.13-1.16.25-2.75 1.41a26.89 26.89 0 00-7.64 8.72l-.49.91h8l.39-1.42a52.48 52.48 0 013.39-9c.4-.9.47-.86-.9-.62zm2 1.66a47.65 47.65 0 00-2.31 5.65c-.41 1.23-1.06 3.47-1.06 3.65s1.91.07 4.25.07c2.7 0 4.25 0 4.25-.08 0-.22-1-3.54-1.4-4.61C49.7 29.78 48 26 47.76 26a10.76 10.76 0 00-.88 1.62zm9.34.26a28.8 28.8 0 016.21 7.91L63 37h1.7a9.7 9.7 0 001.71-.08 10.53 10.53 0 00-.54-.94 21.53 21.53 0 00-9.46-8.34l-.89-.39a6 6 0 00.7.63zm-18 .17a24.24 24.24 0 00-3.79 2.43 23.9 23.9 0 00-4 4.26 19 19 0 00-1.36 2.2 12.9 12.9 0 001.71.06h1.71l.35-.73a28.35 28.35 0 016.46-8.39c.63-.56.67-.62.4-.52s-.88.33-1.53.65zm-10 10.7A23.3 23.3 0 0026.71 44a27.26 27.26 0 000 6 23.59 23.59 0 001.46 5.23l.15.32h19.42c15 0 19.43 0 19.49-.09a20.25 20.25 0 001-2.73A18.45 18.45 0 0069 47a18.13 18.13 0 00-.76-5.74 18.76 18.76 0 00-1-2.73c-.07-.09-4.3-.12-19.48-.12h-19.4zm34.3 19.43a26.19 26.19 0 01-5.17 6.92c-.87.86-1.55 1.57-1.52 1.57A29.18 29.18 0 0059 65a21.8 21.8 0 007-7 8.92 8.92 0 00.52-.92 9.24 9.24 0 00-1.74-.08h-1.69zm-9-.31A40 40 0 0152 62.56a52.56 52.56 0 01-2.46 5.15c-.33.55-.4.53 1.09.33a2.81 2.81 0 001.82-.7 28 28 0 007.4-7.45 25.44 25.44 0 001.64-2.82S59.75 57 57.61 57h-3.88zm-10.33-.81s.18.7.4 1.46a39 39 0 002.67 6.75 23.92 23.92 0 001.45 2.6 39.2 39.2 0 002-3.59 42.71 42.71 0 002.52-7l.02-.32h-4.53c-2.77 0-4.53.05-4.53.1zm-8.76.82a27.57 27.57 0 008.6 9.42 2.76 2.76 0 001.81.7c1.49.2 1.42.22 1.1-.33-.51-.87-1.67-3.23-2.17-4.41A48.91 48.91 0 0142 57.87l-.2-.86H34zm-5.38-.78a22.23 22.23 0 001.69 2.62 27.57 27.57 0 003.55 3.69 22.75 22.75 0 004 2.57c.71.36 1.31.65 1.36.65s-.63-.67-1.5-1.57a26.25 26.25 0 01-5.2-6.92L32.43 57h-1.69c-1.43 0-1.68 0-1.64.14z"/>
        <path d="M65.64 43.12c0 .07-.6 1.87-1.27 4L63.15 51h-2.07l-.3-1.18c-.16-.64-.47-1.79-.66-2.54l-.37-1.37-.14.48c-.08.27-.39 1.42-.7 2.56L58.37 51h-2l-1.27-4c-.7-2.17-1.27-4-1.27-4h2l.74 2.58c.72 2.45.75 2.56.85 2.28s.37-1.33.67-2.59L58.7 43h2.06l.59 2.27c.33 1.26.64 2.43.69 2.6s.12.21.69-1.77c.33-1.14.67-2.31.75-2.6l.15-.5h1c.8 0 1.03.05 1.01.12zM53.67 43.12l-1.26 4L51.18 51h-2l-.66-2.52a16.65 16.65 0 00-.72-2.41c0 .09-1.32 4.78-1.32 4.89a7.23 7.23 0 01-1 0h-1l-1.27-4-1.26-4h2l.75 2.59c.75 2.56.75 2.58.85 2.24s.36-1.37.67-2.6l.52-2.19h2.06l.65 2.52c.37 1.39.69 2.53.71 2.53s.32-.94.65-2.08l.72-2.53.14-.44h1c.81 0 1.04.05 1 .12zM41.71 43.13c0 .07-.59 1.86-1.27 4L39.22 51h-2l-.67-2.51a18.67 18.67 0 00-.71-2.42c0 .06-.35 1.19-.7 2.52L34.45 51h-2l-1.27-4c-.7-2.16-1.26-4-1.26-4h2.05l.74 2.56A10.79 10.79 0 0033.5 48c0-.09.34-1.25.67-2.57l.61-2.43h2l.66 2.52c.36 1.39.68 2.53.71 2.53s.37-1.13.76-2.51l.71-2.5h1c.95-.04 1.13-.04 1.09.09z"/>
    </g>
</svg>