<svg xmlns="http://www.w3.org/2000/svg" viewBox="0 0 95.47 94" width="100" height="100">
	<g>
		<path d="M27.84,69.71V64.45a4.32,4.32,0,0,1,3-4.11l.13,0a15,15,0,0,0,3-1.12c.29-.14.56-.26.85-.37,2.6-1,4.21-2,4.64-2.81l0-.08,0-.13,0-3.06-.08-.09a14.21,14.21,0,0,1-3-8.29c0-.21,0-.43,0-.64l0-.34-.33,0c-1.11-.14-2.14-.29-3.06-.47a20.73,20.73,0,0,1-4.39-1.23c-1.37-.61-2.06-1.36-2.06-2.23s.7-1.61,2.06-2.22A20.43,20.43,0,0,1,33.07,36a60.85,60.85,0,0,1,6.17-.79l.27,0,.06-.26c.38-1.67,1-4.2,1.8-6.75,2.19-7,4.47-10.42,7-10.42,1.17,0,2,1.45,2.75,3.63a68.81,68.81,0,0,1,2,6.83c.63,2.53,1.18,5,1.53,6.7l.05.27.27,0a61.43,61.43,0,0,1,6.2.79,21.09,21.09,0,0,1,4.39,1.23c1.36.61,2.06,1.36,2.06,2.23s-.7,1.61-2.06,2.22a20.15,20.15,0,0,1-4.39,1.23c-.93.18-2,.33-3.06.47l-.33,0v.33c0,.21,0,.43,0,.65a14.13,14.13,0,0,1-3,8.28l-.07.1,0,3.13,0,.07c.43.86,1.9,1.78,4.26,2.71l.36.15.19-.55c2.5-7.21,4.1-11.24,4.88-12.3a3.75,3.75,0,0,1,3-1.26,6.23,6.23,0,0,1,1.3.13c1.91.39,3.3,1.49,3.62,2.86.44,1.8-1,3.37-2.27,4.37a2.32,2.32,0,0,1-1.43.52h0a2.33,2.33,0,0,1-1.22-.37,2.61,2.61,0,0,1-1.18-2.72.87.87,0,0,1,.84-.68l.2,0a.87.87,0,0,1,.65,1h0a.9.9,0,0,0,.41.89l.09.06.21,0a.61.61,0,0,0,.36-.15c.72-.56,1.89-1.65,1.66-2.61-.18-.8-1.28-1.36-2.28-1.57a5.11,5.11,0,0,0-1-.1,2.06,2.06,0,0,0-1.66.57c-.84,1.12-3.06,7.26-4.77,12.21l-.12.32.32.13a15.32,15.32,0,0,0,2,.66l.14,0a4.33,4.33,0,0,1,3,4.11v5.26ZM45.26,51.46c-3.06.5-3.45,2.35-3.45,3.91a25.72,25.72,0,0,0,1.74,7.87C44.65,66.1,46,67.92,47,68h.13c1.05-.07,2.38-1.89,3.48-4.75a25.48,25.48,0,0,0,1.74-7.87c0-1.56-.39-3.41-3.45-3.91l-.22.68a.87.87,0,0,1,.38,1.16.86.86,0,0,1-.77.47H45.86a.86.86,0,0,1-.38-1.63Zm15,10c-.71,2.08-1.4,4.14-2,6l-.16.48h6.54V64.45A2.63,2.63,0,0,0,62.86,62a16.51,16.51,0,0,1-2.13-.69l-.36-.14Zm-6.48-3.17a32,32,0,0,1-1.53,5.52,17.29,17.29,0,0,1-1.79,3.56l-.39.57h6.21l.08-.25c.44-1.3,1.31-4,2.34-7l.1-.33-.32-.13a15.62,15.62,0,0,1-4.11-2.18l-.48-.39Zm-14-.21a16.09,16.09,0,0,1-4.44,2.29l-.67.3A16.73,16.73,0,0,1,31.42,62a2.64,2.64,0,0,0-1.86,2.49V68H44.12l-.39-.57a17.65,17.65,0,0,1-1.79-3.57,31.58,31.58,0,0,1-1.53-5.5l-.12-.61ZM38.15,44v.41a12.36,12.36,0,0,0,2.62,7.2l.27.36.29-.34a4.9,4.9,0,0,1,.94-.82A8.52,8.52,0,0,1,47.1,49.6a8.5,8.5,0,0,1,4.82,1.16,4.9,4.9,0,0,1,.94.82l.3.34.27-.36A12.42,12.42,0,0,0,56,44.36v-.79l-.39,0c-2.68.24-5.56.37-8.54.37s-5.87-.13-8.55-.37l-.38,0Zm.47-7c-1.58.15-3,.33-4.38.55-3.57.59-5,1.26-5.52,1.61l-.47.3.47.31c.53.35,2,1,5.53,1.61a81.6,81.6,0,0,0,12.84.91,81.6,81.6,0,0,0,12.84-.91c3.58-.59,5-1.26,5.53-1.61l.47-.31-.47-.3c-.53-.35-1.95-1-5.53-1.61-1.33-.22-2.82-.41-4.43-.55L55,36.9l.29,1.49-.2.3c-.71,1-3.63,1.6-8,1.6-6.21,0-7.7-1.11-8-1.58l-.22-.3.28-1.5ZM48,19.51c-.48.17-1.28.76-2.3,2.56A36,36,0,0,0,43,28.65c-1.11,3.52-1.89,7.06-2.26,8.85l-.07.31.31.1a19.78,19.78,0,0,0,6.1.65,20,20,0,0,0,6-.64l.31-.1-.22-1.06-.34.05-.72.08c-.4,0-.77.07-1.1.07a3.27,3.27,0,0,1-2.18-.58.87.87,0,0,1-.09-1.22h0a.86.86,0,0,1,1.19-.1,1.9,1.9,0,0,0,1,.18,14.13,14.13,0,0,0,1.46-.11l.39-.06-.08-.38c-.32-1.53-.74-3.39-1.2-5.28-1.7-7-2.75-9.12-3.23-9.77l-.16-.22Z" />
	</g>
</svg>
