<svg version="1.1" xmlns="http://www.w3.org/2000/svg" xmlns:xlink="http://www.w3.org/1999/xlink" viewBox="0 0 20 20">
	<g>
		<path d="M24 0L24 24L0 24L0 0L24 0Z" fill="none">
		</path>
		<path d="M12.66 0.36L13.89 0.79L15.05 1.37L16.11 2.08L17.07 2.93L17.92 3.89L18.63 4.95L19.21 6.11L19.64 7.34L19.91 8.64L20 10L19.91 11.36L19.64 12.66L19.21 13.89L18.63 15.05L17.92 16.11L17.07 17.07L16.11 17.92L15.05 18.63L13.89 19.21L12.66 19.64L11.36 19.91L10 20L8.64 19.91L7.34 19.64L6.11 19.21L4.95 18.63L3.89 17.92L2.93 17.07L2.08 16.11L1.37 15.05L0.79 13.89L0.36 12.66L0.09 11.36L0 10L0.09 8.64L0.36 7.34L0.79 6.11L1.37 4.95L2.08 3.89L2.93 2.93L3.89 2.08L4.95 1.37L6.11 0.79L7.34 0.36L8.64 0.09L10 0L11.36 0.09L12.66 0.36ZM7.03 11.41L5.55 12.04L4.44 12.9L4 13.98L4.88 15.06L5.95 15.95L7.18 16.63L8.54 17.05L10 17.2L11.46 17.05L12.82 16.63L14.05 15.95L15.12 15.06L16 13.98L15.56 12.9L14.45 12.04L12.96 11.41L11.39 11.03L10 10.9L8.61 11.03L7.03 11.41ZM7.88 3.88L7.24 4.83L7 6L7.24 7.17L7.88 8.12L8.83 8.76L10 9L11.17 8.76L12.12 8.12L12.76 7.17L13 6L12.76 4.83L12.12 3.88L11.17 3.24L10 3L8.83 3.24L7.88 3.88Z">
		</path>
	</g>
    </svg>