<svg xmlns="http://www.w3.org/2000/svg" 
    xmlns:xlink="http://www.w3.org/1999/xlink" viewBox="0 0 245.89 350.07">
    <defs>
        <style>
            .antenna-1{isolation:isolate;}
            .antenna-2{fill:#4b6d73;}
            .antenna-3{fill:#c62026;}
            .antenna-4{fill:#efefef;}
            .antenna-5{fill:url(#_2);}
            .antenna-6{fill:#fff7cd;opacity:0.85;}
            .antenna-6,.antenna-9{mix-blend-mode:screen;}
            .antenna-7{fill:url(#_2-2);}
            .antenna-8{fill:#3c5a5f;}
            .antenna-9{fill:url(#_40);}
        </style>
        <linearGradient id="_2" x1="71.13" y1="98.03" x2="74.54" y2="110.06" gradientUnits="userSpaceOnUse">
            <stop offset="0" stop-color="#f2f2f2"/>
            <stop offset="0.42" stop-color="#b5c5c5"/>
            <stop offset="0.84" stop-color="#759595"/>
        </linearGradient>
        <linearGradient id="_2-2" x1="84.06" y1="100.87" x2="64.87" y2="130.18" xlink:href="#_2"/>
        <linearGradient id="_40" x1="86" y1="102.84" x2="75.62" y2="116.7" gradientUnits="userSpaceOnUse">
            <stop offset="0.17" stop-color="#bdb48e"/>
            <stop offset="0.26" stop-color="#b3ab87"/>
            <stop offset="0.41" stop-color="#999273"/>
            <stop offset="0.6" stop-color="#6e6953"/>
            <stop offset="0.82" stop-color="#333126"/>
            <stop offset="1"/>
        </linearGradient>
    </defs>
    <title>Smalls</title>
        <g id="antenna" class="antenna-1">
            <polygon class="antenna-2" points="73.35 103.54 68.68 65.44 67.87 65.53 71.93 103.69 73.35 103.54"/>
            <polygon class="antenna-3" points="68.97 55.71 69.65 66.19 67.32 66.59 65.86 55.37 68.97 55.71"/>
            <polygon class="antenna-2" points="66.87 110.59 64.32 89.85 63.88 89.89 66.09 110.67 66.87 110.59"/>
            <polygon class="antenna-3" points="64.48 84.51 64.85 90.26 63.58 90.47 62.78 84.32 64.48 84.51"/>
            <path class="antenna-2" d="M78.61,108.61l-1.72-5.29c-.73-1.79-8.09-1.35-8.4.2L67.88,110Z"/>
            <path class="antenna-2" d="M79.26,96.37l-.47-2.49A.4.4,0,1,0,78,94l.22,2.51Z"/>
            <path class="antenna-4" d="M87.66,109s-1.7-3.85-3.11-4-1.85,3-1.85,3Z"/>
            <path class="antenna-2" d="M82.16,108.81,80.56,97c-.15-1-3.71-.67-3.56.38l1.34,10.89Z"/>
            <polygon class="antenna-2" points="72.31 100.47 72.7 108.37 69.97 109 70.43 100.88 72.31 100.47"/>
            <polygon class="antenna-5" points="72.31 100.47 73.47 100.98 73.64 102.17 73.09 102.16 73.72 108.63 72.64 108.63 72.31 100.47"/>
            <polygon class="antenna-6" points="68.48 56.16 68.86 64.15 67.84 64.26 66.58 56.36 68.48 56.16"/>
            <polygon class="antenna-6" points="64.11 84.88 64.47 89.3 63.94 89.35 63.34 84.96 64.11 84.88"/>
            <path class="antenna-7" d="M64,111.18A71.45,71.45,0,0,0,66.11,132a7.39,7.39,0,0,0,3.85.75c2.49-.36,5.14-1.07,7.59-1.66a53,53,0,0,1-.37-15l12.52-5.93c-.39-.66-1.15-1.77-1.61-2.37a69.42,69.42,0,0,0-15.52,0A24.21,24.21,0,0,0,64,111.18Z"/>
            <path class="antenna-2" d="M73.69,129.76a99.72,99.72,0,0,1-1.46-21.89A24.08,24.08,0,0,0,64,111.18,71.9,71.9,0,0,0,66.09,132,35.32,35.32,0,0,0,73.69,129.76Z"/>
            <path class="antenna-8" d="M75.1,130.32c-.55-.19-.85-.38-1.41-.56a37.49,37.49,0,0,1-7.6,2.19s0,.05,0,.08a7.39,7.39,0,0,0,3.85.75c2.47-.36,5.11-1.06,7.54-1.65Z"/>
            <path class="antenna-9" d="M73.22,108.55l2.29,5.62a46.28,46.28,0,0,1,5.52-.12l7.63-3.4-1-2.1A38.27,38.27,0,0,0,73.22,108.55Z"/>
        </g>
</svg>