<svg id="Layer_1" data-name="Layer 1" 
    xmlns="http://www.w3.org/2000/svg" viewBox="0 0 245.89 350.07">
    <defs>
        <style>
            .hair-1{fill:#8217ce;}
            .hair-2{fill:#bc43d1;}
        </style>
    </defs>
    <title>small</title>
    <g id="hair">
        <path class="hair-1" d="M117.78,111.26l8.93,1.64s7.08,5.13,7.25,18.22a24.93,24.93,0,0,1,6.7.86s2.52-9.46,5.36-12.31c0,0,3.52-1.34,4.72,2s.65,3.9.65,3.9l2.7-5.12a12.92,12.92,0,0,0-5.23-3.58l2.36-2.51s.24-.89,2.6-.67,10.6.62,13.54,2.53L163,107s.09-.35-2.2-.93l-9.16-2.26s5.16-2.57,6.94-2.86c0,0-6.25-2.51-11.91-.48a12.35,12.35,0,0,1,7.91-4.82s-5.88-2.92-10-3.63a3.86,3.86,0,0,0-2.42.07c-1.33.47-7.12,2.6-7.12,2.6a3.52,3.52,0,0,1,1-2.94s-9.74,3.1-10.28,6l-.8,4.33-1.39-1.62-2.23,2a3.58,3.58,0,0,0-.38,2,10.51,10.51,0,0,1,.09,2.52l-1.43-.22Z"/>
        <path class="hair-2" d="M127.55,97.37,126,101.66S127,100.83,127.55,97.37Z"/>
        <path class="hair-2" d="M130.45,97.1s-3.54,5.11-4.36,9.93C126.09,107,130.32,100.16,130.45,97.1Z"/>
        <path class="hair-2" d="M128.29,108.51l4.15-9.31a2.69,2.69,0,0,1,1.05-1.1c.67-.33,1.83-.82,1.83-.82s.72-.61-1.15,2.06S128.29,108.51,128.29,108.51Z"/>
        <path class="hair-2" d="M130.07,111.18l4-8.24a3.66,3.66,0,0,1,1.5-1.6c1.14-.68,5.18-2.74,5.18-2.74s.1,0-.79,1.05S130.07,111.18,130.07,111.18Z"/>
        <path class="hair-2" d="M140,104.16s-4.5,2.27-6.51,5.26c0,0,2.28-1.84,3-1.77,0,0-3.3,3.67-3.52,5.14,0,0,5.95-3.36,9.11-3.09,0,0-7.32,3.47-7.8,6.87,0,0,4.77-2.55,7.21-2.85,0,0-6.2,6.91-7.72,12.59l1,4.81s2.82-9.54,5-11,7.42-1.6,9.66-.55,2.62,5.35,2.62,5.35,1-5.29-.65-6.83-5.72-2.45-5.72-2.45,4.74-4.51,7.07-4.39,11.78,1.53,14.72,4.92l-4.06-8.52s-.09-1.13-2.49-1.54l-9.94-2.56a5.49,5.49,0,0,0-4.12.37c-2.47,1.07-5.26,2.19-5.26,2.19s3.85-4.49,17.25-5.19c0,0-11.06-.65-19.35,4.21Z"/>
    </g>
</svg>