<svg id="Layer_1" data-name="Layer 1" 
    xmlns="http://www.w3.org/2000/svg" 
    xmlns:xlink="http://www.w3.org/1999/xlink" viewBox="0 0 294.54 401.1">
    <title>Hero</title>
    <g id="cat">
        <path class="cat-1" d="M256.65,309.52s13-9.22,6.06-13.7-9,1.57-8,3.12-.66,2.68-1.11,1.8-2.63-6.8,2.72-7.63,9.09,1.86,10.23,4.51-1.9,9.17-9.37,14.28Z"/>
        <path class="cat-2" d="M227.68,316.25a2.88,2.88,0,0,0-1.61-1.32,2.72,2.72,0,0,0-2,.22,32.29,32.29,0,0,1-2.49,8.41,6,6,0,0,0,2.23.77A30,30,0,0,0,227.68,316.25Z"/>
        <path class="cat-3" d="M223.72,321.86l.51.19s-.19-.16-.43-.33l-.3-.19c.18-.42.36-.84.53-1.26a1.86,1.86,0,0,1,.41.08,2.38,2.38,0,0,1,.5.21,2.27,2.27,0,0,0-.44-.36,2.12,2.12,0,0,0-.37-.18c.17-.42.32-.84.48-1.27a5.62,5.62,0,0,1,.55.15,6.48,6.48,0,0,1,.67.28,4,4,0,0,0-.6-.42,3.82,3.82,0,0,0-.54-.26c.14-.4.27-.81.4-1.22a5.25,5.25,0,0,1,.59.28,4.5,4.5,0,0,1,.65.41,4.18,4.18,0,0,0-.57-.55,3.83,3.83,0,0,0-.59-.4c.16-.55.31-1.1.45-1.66a3.71,3.71,0,0,1,1.21,1.88,22.44,22.44,0,0,1-2.76,5.79,2.58,2.58,0,0,1-1.1-.38c.15-.3.29-.59.42-.89Z"/>
        <path class="cat-4" d="M223.49,323.32s-5.45-2.19-6.25,3c0,0,.39,2.73,5.07,2.21S225.63,324.05,223.49,323.32Z"/>
        <path class="cat-5" d="M218.54,327.5q.24.18.48.33l.06-.09a6.09,6.09,0,0,1-1.39-1.19,5.83,5.83,0,0,1,.46-1.77l-.1,0a5.86,5.86,0,0,0-.47,1.83v0l0,0A6.18,6.18,0,0,0,218.54,327.5Z"/>
        <path class="cat-4" d="M245.38,306.38s12-1.41,11.8,5.52-2.06,11.66-15.15,10.88-7.55-10.55-7.55-10.55S240.69,306.85,245.38,306.38Z"/>
        <path class="cat-6" d="M243.15,309.55s2.3,5.6-6.69,11.95l-1.1-.45,7-11.41Z"/>
        <path class="cat-4" d="M219.71,305.45s-2.43,3.88,3.68,9.35,11.15,8.91,15.25,4.45,8-12-.38-15.85A37,37,0,0,1,219.71,305.45Z"/>
        <path class="cat-2" d="M232,317.06a3.3,3.3,0,0,0-1.41-2,3.23,3.23,0,0,0-2.41-.43,1.68,1.68,0,0,0-.7.3c-.57.45-.19,1.06-.06,1.63s.29,1.35.4,2a12.64,12.64,0,0,0,4.13.68A5.58,5.58,0,0,0,232,317.06Z"/>
        <path class="cat-2" d="M231.53,317.83a2.88,2.88,0,0,0-1.61-1.32,2.72,2.72,0,0,0-2,.22,32.29,32.29,0,0,1-2.49,8.41,6,6,0,0,0,2.23.77A30,30,0,0,0,231.53,317.83Z"/>
        <path class="cat-3" d="M227.58,323.44l.5.19s-.19-.16-.43-.33l-.3-.19.54-1.26a1.89,1.89,0,0,1,.4.08,2.38,2.38,0,0,1,.5.21,2.27,2.27,0,0,0-.44-.36,2.12,2.12,0,0,0-.37-.18c.17-.42.33-.84.48-1.27a5.62,5.62,0,0,1,.55.15,5.49,5.49,0,0,1,.67.28,4,4,0,0,0-.6-.42,3.82,3.82,0,0,0-.54-.26c.14-.4.27-.81.4-1.22a5.25,5.25,0,0,1,.59.28,4.5,4.5,0,0,1,.65.41,4.18,4.18,0,0,0-.57-.55,3.83,3.83,0,0,0-.59-.4c.16-.55.31-1.1.45-1.66a3.71,3.71,0,0,1,1.21,1.88,22.11,22.11,0,0,1-2.76,5.79,2.58,2.58,0,0,1-1.1-.38c.15-.3.29-.59.43-.89Z"/>
        <path class="cat-4" d="M226.94,325.22s-5.9-2.38-6.77,3.23c0,0,.42,3,5.5,2.4S229.26,326,226.94,325.22Z"/>
        <path class="cat-7" d="M241.79,314.86a27.11,27.11,0,0,1-4.76-2.72l-3,4.21a5.29,5.29,0,0,0-6.17-3.82l6.44-3.18a19.15,19.15,0,0,1-3-3.22"/>
        <path class="cat-8" d="M221.58,329.76l.52.35.07-.1a6.93,6.93,0,0,1-1.52-1.28,6.3,6.3,0,0,1,.51-1.92l-.11-.05a6.86,6.86,0,0,0-.52,2v0l0,0A7.33,7.33,0,0,0,221.58,329.76Z"/>
        <path class="cat-9" d="M254.3,319.06a2.62,2.62,0,0,0-1.91,0,2.49,2.49,0,0,0-1.32,1.31,29.63,29.63,0,0,1,3,7.48,5.46,5.46,0,0,0,2-.72A27.48,27.48,0,0,0,254.3,319.06Z"/>
        <path class="cat-4" d="M254.07,324.23s-6.21-2.5-7.13,3.39c0,0,.45,3.12,5.79,2.53S256.51,325.06,254.07,324.23Z"/>
        <path class="cat-10" d="M252.59,330.08h.65s2.52-2.86-1-5.56l-.72.48Z"/>
        <path class="cat-2" d="M254.33,320.41a2.62,2.62,0,0,0-.29-1.94,2.55,2.55,0,0,0-1.55-1.16,1.4,1.4,0,0,0-.61,0c-.57.12-.52.69-.62,1.14s-.27,1.06-.44,1.59a10,10,0,0,0,2.7,1.95A4.47,4.47,0,0,0,254.33,320.41Z"/>
        <path class="cat-2" d="M254.19,319.15a2.18,2.18,0,0,0-1.69-.22,3.48,3.48,0,0,0-1.68,1.07,24.22,24.22,0,0,1-.16,7.19,6.2,6.2,0,0,0,2.11-.45A25.89,25.89,0,0,0,254.19,319.15Z"/>
        <path class="cat-3" d="M252.24,325.43l.48-.09s-.2,0-.45,0H252c.07-.39.12-.78.17-1.16l.36-.12a2.65,2.65,0,0,1,.49-.08,1.77,1.77,0,0,0-.46-.06,2.46,2.46,0,0,0-.37,0c0-.38.08-.75.11-1.13a5,5,0,0,1,.52-.14,6,6,0,0,1,.64-.11,3.93,3.93,0,0,0-.62,0,4.6,4.6,0,0,0-.52.06c0-.35,0-.71.05-1.06.19,0,.39-.06.57-.07a3.5,3.5,0,0,1,.67,0,2.94,2.94,0,0,0-.62-.14,3.09,3.09,0,0,0-.61,0c0-.48,0-.94,0-1.41a2.18,2.18,0,0,1,1.49.82,19.25,19.25,0,0,1-1,5.41,2.41,2.41,0,0,1-1,.23l.15-.84Z"/>
        <path class="cat-4" d="M251.62,325.1s-6.22-2.5-7.13,3.39c0,0,.44,3.12,5.79,2.53S254.06,325.93,251.62,325.1Z"/>
        <path class="cat-8" d="M245.88,329.87a6,6,0,0,0,.52.36l.06-.1a6.66,6.66,0,0,1-1.51-1.29,6.45,6.45,0,0,1,.5-1.92l-.1,0a6.78,6.78,0,0,0-.52,2v0h0A7.38,7.38,0,0,0,245.88,329.87Z"/>
        <path class="cat-11" d="M238.11,303.17l.2.95s-1.83,2.59-9,2.63-9.65-1.7-9.65-1.7l-.39-1.39Z"/>
        <path class="cat-12" d="M225.83,284s.35-14.29,3.62-12.58,3.66,10.21,5.47,13.45C234.92,284.86,229.6,279,225.83,284Z"/>
        <path class="cat-4" d="M226.16,284.86s.4-13.42,3.31-12.27,3.2,9.06,4.79,11.84C234.26,284.43,229.55,279.69,226.16,284.86Z"/>
        <path class="cat-4" d="M219.3,285.85s1.56-3.63,12.81-4.12,11.57,12.31,8.7,18.16-12.45,7.7-20.64,5.42-8.83-9.32-5.49-12.14A16.67,16.67,0,0,0,219.3,285.85Z"/>
        <path class="cat-13" d="M219.34,285.85s-2.47,2.22-3.82,7.24c0,0-.31,4.1,7.67,7s10.17-1.53,10.24-2a3,3,0,0,0-2.67-3.5C227.82,294,221,291.8,219.34,285.85Z"/>
        <path class="cat-14" d="M233,288.75s15.17-11.5,16.11-6.68-7.59,12.3-9.46,16.87C239.64,298.94,241.3,288.55,233,288.75Z"/>
        <path class="cat-15" d="M233.29,289.46s12.37-9.21,13.13-5.35-6.18,9.85-7.71,13.51C238.71,297.62,240.07,289.3,233.29,289.46Z"/>
        <ellipse class="cat-16" cx="223.24" cy="295.4" rx="1.36" ry="0.9" transform="translate(-136.37 383.61) rotate(-66.7)"/>
        <path class="cat-17" d="M216.88,289.6l-.46.93a1.34,1.34,0,0,0,1.23-.88,1.46,1.46,0,0,0,0-1.44A6.64,6.64,0,0,0,216.88,289.6Z"/>
        <path class="cat-18" d="M214.84,295.82l.83.94a.73.73,0,0,1,0,.43c-.07.31-.22.44-.44.38s-.38-.32-.51-.15-.63.2-.63.2a.39.39,0,0,1-.1-.37c.07-.22.25-.38.28-.57a1.5,1.5,0,0,0-.06-.5S214.31,295.93,214.84,295.82Z"/>
    </g>
</svg>