<svg xmlns="http://www.w3.org/2000/svg" 
    xmlns:xlink="http://www.w3.org/1999/xlink" viewBox="0 0 294.54 401.1">
    <title>Hero</title>
    <g id="pet" class="pet-1">
        <path class="pet-2" d="M193.13,28.49c4.4,4.19-1.6,17.64-13.39,30s-24.93,19-29.33,14.86c-3.3-3.13-.77-11.45,5.65-20.63a80.52,80.52,0,0,1,7.74-9.4C175.59,31,188.72,24.3,193.13,28.49Z"/>
        <path class="pet-3" d="M168.77,54.56l-12.71-1.8s7.51-10.84,17.77-18.38l1.58,14.18Z"/>
        <path class="pet-4" d="M174.93,48.79l11.49,1.9s-7.15,10-16.68,16.72l-1-13.22Z"/>
        <path class="pet-5" d="M154.2,60.47s6.34-16.95,30.08-29.33C184.28,31.14,163.8,41.85,154.2,60.47Z"/>
        <path class="pet-6" d="M156.68,58.85s5.58-14.9,26.44-25.77C183.12,33.08,165.11,42.49,156.68,58.85Z"/>
        <path class="pet-7" d="M159,57.27S163.78,44.4,181.79,35C181.79,35,166.24,43.14,159,57.27Z"/>
        <path class="pet-8" d="M160.85,56.14s4.28-11.45,20.32-19.81C181.17,36.33,167.33,43.56,160.85,56.14Z"/>
        <path class="pet-9" d="M267.3,75.58c-4.13,4.45-17.65-1.37-30.2-13s-19.36-24.69-15.23-29.14c3.09-3.33,11.44-.91,20.7,5.39a81.49,81.49,0,0,1,9.5,7.62C264.62,58.08,271.44,71.13,267.3,75.58Z"/>
        <path class="pet-10" d="M240.94,51.55l1.63-12.73s10.94,7.37,18.6,17.54L247,58.11Z"/>
        <path class="pet-11" d="M246.78,57.64,245,69.15s-10.06-7-16.93-16.46l13.21-1.17Z"/>
        <path class="pet-12" d="M234.84,37.06s17,6.13,29.7,29.71C264.54,66.77,253.58,46.42,234.84,37.06Z"/>
        <path class="pet-13" d="M236.49,39.52s15,5.39,26.1,26.11C262.59,65.63,253,47.75,236.49,39.52Z"/>
        <path class="pet-14" d="M238.1,41.78S251,46.43,260.65,64.33C260.65,64.33,252.32,48.89,238.1,41.78Z"/>
        <path class="pet-15" d="M239.26,43.65s11.5,4.14,20.06,20.07C259.32,63.72,251.91,50,239.26,43.65Z"/>
        <path class="pet-16" d="M192.12,80.69a4.74,4.74,0,0,0,3.17-1.07,4.43,4.43,0,0,0,1.49-2.88,48.33,48.33,0,0,1-9-10.32,10,10,0,0,0-3,2.35A45,45,0,0,0,192.12,80.69Z"/>
        <path class="pet-17" d="M190.91,78.13a5.88,5.88,0,0,0,3.57-.06,54,54,0,0,1-7.35-9.6,4.2,4.2,0,0,0-1.48,1.16A33.31,33.31,0,0,0,190.91,78.13Z"/>
        <path class="pet-16" d="M190.14,71.68a3.31,3.31,0,0,1-1.11.87,3.55,3.55,0,0,1-.86.29,3.94,3.94,0,0,0,.72-.5,5.67,5.67,0,0,0,.85-1Z"/>
        <path class="pet-16" d="M191.79,73.65a5.78,5.78,0,0,1-1.48,1.07,7,7,0,0,1-1.1.47,8,8,0,0,0,1-.67,12.8,12.8,0,0,0,1.27-1.22Z"/>
        <circle class="pet-18" cx="207.04" cy="84.61" r="15.8"/>
        <path class="pet-19" d="M214.08,70.46c-.1,0-5,.57-5.78,6.87a48.7,48.7,0,0,0-.59,8.27,1.06,1.06,0,0,1-.75,1.22c-.85.32-1.69.57-1.69.57l.45,1.77-.08.29,2.53-.76a2.22,2.22,0,0,0,1.67-2.35,51.74,51.74,0,0,1,.44-8.81c.48-2.57.68-4.63,4.19-6.4l.48-.2A5.77,5.77,0,0,0,214.08,70.46Z"/>
        <path class="pet-20" d="M198.83,71.11A9.82,9.82,0,0,0,194,79.78c-.16,6.28-.36,6.68,0,7.32s1.22,1.05,2.87,1.56l.2.09.78-2a5.5,5.5,0,0,1-2.18-.86c-.54-.56-.23-7,0-7.85A11.92,11.92,0,0,1,198.83,71.11Z"/>
        <circle class="pet-21" cx="201.23" cy="89.16" r="4.49"/>
        <circle class="pet-22" cx="201.4" cy="89.38" r="4.1"/>
        <path class="pet-23" d="M202.33,90.1a4.76,4.76,0,0,0,2.87.38,4.58,4.58,0,0,0,0-.53c0-2.49-1.72-4.52-3.83-4.52a3.32,3.32,0,0,0-1.24.26,4.65,4.65,0,0,0-.73.67A4.53,4.53,0,0,0,202.33,90.1Z"/>
        <circle class="pet-21" cx="205.23" cy="83.37" r="1.1"/>
        <circle class="pet-24" cx="205.27" cy="83.43" r="1"/>
        <path class="pet-25" d="M205.5,83.6a1.18,1.18,0,0,0,.7.1.62.62,0,0,0,0-.13,1,1,0,0,0-.94-1.11.8.8,0,0,0-.3.06,1,1,0,0,0-.18.17A1.11,1.11,0,0,0,205.5,83.6Z"/>
        <circle class="pet-21" cx="197.6" cy="83.43" r="1.1"/>
        <circle class="pet-26" cx="197.65" cy="83.48" r="1"/>
        <path class="pet-27" d="M197.88,83.66a1.15,1.15,0,0,0,.7.09v-.13a1,1,0,0,0-.93-1.1.89.89,0,0,0-.31.06,1.29,1.29,0,0,0-.17.16A1.09,1.09,0,0,0,197.88,83.66Z"/>
        <circle class="pet-21" cx="201.4" cy="83.14" r="1.1"/>
        <circle class="pet-28" cx="201.45" cy="83.2" r="1"/>
        <path class="pet-29" d="M201.67,83.37a1.2,1.2,0,0,0,.71.1v-.13a1,1,0,0,0-.93-1.11.73.73,0,0,0-.31.07,1.29,1.29,0,0,0-.18.16A1.13,1.13,0,0,0,201.67,83.37Z"/>
        <path class="pet-16" d="M219.33,81.3a5.39,5.39,0,0,1-3.84-.93,5.47,5.47,0,0,1-2.14-3.32,2.74,2.74,0,0,1,0-1.21c.3-1.11,1.43-.9,2.35-1,1.07-.15,2.14-.34,3.2-.58,1.45,1.7,3.09,4.61,2.77,5.73S220.61,81.11,219.33,81.3Z"/>
        <path class="pet-16" d="M220.16,80.18a4.76,4.76,0,0,1-2.93-1.62,4.46,4.46,0,0,1-.94-3.1A48.45,48.45,0,0,0,227,66.93a10,10,0,0,1,2.52,2.86A44.93,44.93,0,0,1,220.16,80.18Z"/>
        <path class="pet-30" d="M182.7,55.37s-9.8,1.42-9.54,9.71Z"/>
        <path class="pet-17" d="M221.81,77.89a6,6,0,0,1-3.5-.71,54.82,54.82,0,0,0,9-8.11,4.1,4.1,0,0,1,1.24,1.41A33.54,33.54,0,0,1,221.81,77.89Z"/>
        <path class="pet-16" d="M223.74,71.68a3.18,3.18,0,0,0,.93,1.06,3.61,3.61,0,0,0,.79.44,4,4,0,0,1-.61-.62,5.68,5.68,0,0,1-.67-1.1Z"/>
        <path class="pet-16" d="M221.75,73.32A6.15,6.15,0,0,0,223,74.64a6.75,6.75,0,0,0,1,.66,7.85,7.85,0,0,1-.82-.84,10.67,10.67,0,0,1-1-1.42Z"/>
        <path class="pet-30" d="M240.61,65.74s-1.41-9.81-9.69-9.56Z"/>
        <path class="pet-16" d="M219.86,75a6.72,6.72,0,0,0,2.71,1.73,8.47,8.47,0,0,1-1-.72,11.61,11.61,0,0,1-1.32-1.33Z"/>
        <path class="pet-31" d="M180.07,57.83a4.3,4.3,0,0,1-1.82,1.23,5.54,5.54,0,0,1-2.36.32,13,13,0,0,0-3.29-5,12.36,12.36,0,0,1,2.58-1A15.32,15.32,0,0,1,180.07,57.83Z"/>
        <polygon class="pet-32" points="168.95 54.53 175.59 48.54 175.34 53.39 173.42 55.12 168.95 54.53"/>
        <path class="pet-33" d="M173.16,65s.9-7.86,11.43-10l4.75,10.57-5.79,4.82Z"/>
        <path class="pet-34" d="M184.57,69.62l-.18.09a30.78,30.78,0,0,1-1.59-3.45l0-.05,0,0a16.22,16.22,0,0,1,1.63-2.25,36,36,0,0,0-4.37-7.44l.16-.13a36.16,36.16,0,0,1,4.43,7.55l0,.06-.05.05A15.48,15.48,0,0,0,183,66.24,30.37,30.37,0,0,0,184.57,69.62Z"/>
        <path class="pet-35" d="M237.81,62.75a4.15,4.15,0,0,1-1.26-1.8,5.52,5.52,0,0,1-.35-2.36,12.91,12.91,0,0,0,4.93-3.34,12.1,12.1,0,0,1,1.06,2.56A15.38,15.38,0,0,1,237.81,62.75Z"/>
        <polygon class="pet-36" points="240.96 51.59 247.04 58.16 242.18 57.97 240.42 56.07 240.96 51.59"/>
        <path class="pet-37" d="M231,55.89s7.86.9,10,11.43l-10.56,4.75-4.82-5.79Z"/>
        <path class="pet-34" d="M226.36,67.3l-.1-.18a31.77,31.77,0,0,1,3.46-1.59l0,0,.05,0a16.84,16.84,0,0,1,2.25,1.63,36.28,36.28,0,0,0,7.44-4.37l.12.16a35.84,35.84,0,0,1-7.54,4.43l-.06,0-.05,0a15.48,15.48,0,0,0-2.23-1.63A30.37,30.37,0,0,0,226.36,67.3Z"/>
        <path class="pet-38" d="M210.32,205.78a1.32,1.32,0,0,0-.6-1.84,1.52,1.52,0,0,0-1.86.88,1.33,1.33,0,0,0,.6,1.84A1.53,1.53,0,0,0,210.32,205.78Z"/>
    </g>
</svg>