<svg id="Layer_1" data-name="Layer 1" xmlns="http://www.w3.org/2000/svg" viewBox="0 0 95.47 94" width="100" height="100"><defs><style>.cls-1{fill:#32333d;}</style></defs><title>COG</title><path class="cls-1" d="M39.06,94l-.72-.14a47.94,47.94,0,0,1-10.5-3.42l-.66-.31,1.14-9.46L21.76,75.9l-8.58,4-.08-.09-.5-.44a48.44,48.44,0,0,1-6.49-9l-.36-.64,6.5-7L9.76,55.1.42,53.28l-.1-.79A51.58,51.58,0,0,1,0,47.22c0-.5,0-1,0-1.49,0-1.4.14-2.82.29-4.21l.09-.75.18,0,.56-.15,8.6-1.68,2.49-7.71-6.5-7,.36-.64a47.17,47.17,0,0,1,6.51-8.93l.49-.53.26.11.51.17,7.9,3.69,6.54-4.77L27.15,3.88l.66-.3A47.52,47.52,0,0,1,38.32.15L39,0l4.63,8.34h8.12L56.41,0l.72.14a48.12,48.12,0,0,1,10.5,3.42l.66.31-1.14,9.47,6.56,4.76,8.54-4,0,0h0l.57.5a48.91,48.91,0,0,1,6.49,9l.36.64-6.5,7,2.49,7.69L95,40.72l.14.79c.19,1.74.3,3.52.32,5.27h0c0,.5,0,1,0,1.48,0,1.4-.14,2.82-.29,4.21l-.09.75-.19,0-.55.15-8.61,1.68L83.24,62.8l6.5,7-.36.64a46.85,46.85,0,0,1-6.51,8.93l-.49.54-.3-.14-.47-.15-7.9-3.69-6.54,4.77,1.15,9.46-.67.31a47.94,47.94,0,0,1-10.5,3.42l-.72.15L51.8,85.66H43.67Zm-9.72-5.08A45.64,45.64,0,0,0,38,91.75l4.47-8.09H53l4.48,8.08a45.73,45.73,0,0,0,8.69-2.83L65,79.73l8.45-6.15,8.36,3.9a45,45,0,0,0,5.42-7.43L81,63.3l3.2-9.94,9.06-1.77c.11-1.12.18-2.26.21-3.38,0-.47,0-.94,0-1.41,0-1.46-.1-2.94-.24-4.39l-9.06-1.77L81,30.71,87.26,24a46.33,46.33,0,0,0-5.38-7.42h0l0,0-8.37,3.91L65,14.26l1.1-9.18a45.84,45.84,0,0,0-8.68-2.82L53,10.34H42.49L38,2.26a46,46,0,0,0-8.69,2.83l1.12,9.18L22,20.42l-8.36-3.9A44.92,44.92,0,0,0,8.19,24l6.3,6.75-3.2,9.94L2.23,42.43Q2.07,44.11,2,45.79c0,.47,0,.94,0,1.42,0,1.43.09,2.88.23,4.32h0v.06l9.06,1.77,3.21,9.93-6.3,6.76a45.73,45.73,0,0,0,5.38,7.42h0l0,0L22,73.58l8.46,6.16Z"/></svg>