<svg id="Layer_1" data-name="Layer 1" xmlns="http://www.w3.org/2000/svg" viewBox="0 0 595.28 841.89" width="100" height="100"><defs><style>.cls-1{fill:#32333d;}</style></defs><title>COG</title><path class="cls-1" d="M467.22,215.91a175.37,175.37,0,0,0-1.1-18h-.07c0-.07,0-.14,0-.21L434,191.41,424,160.66l22.33-24A165,165,0,0,0,424.16,106l-.25.12-.08-.09-29.45,13.76-26.2-19.06,3.92-32.54a163.27,163.27,0,0,0-35.87-11.69L320.36,85.23H287.9L272,56.56a163.71,163.71,0,0,0-35.9,11.7l4,32.53-26.16,19L184.45,106.1l-.15.17-.21-.1a162,162,0,0,0-22.24,30.51l22.34,23.94-9.93,30.79-32,6.27c0,.07,0,.13,0,.19h-.08c-.53,4.8-.87,9.61-1,14.44,0,1.67-.07,3.35-.07,5a175.36,175.36,0,0,0,1.09,18h.07a1.5,1.5,0,0,1,0,.2l32.07,6.25,9.94,30.74-22.33,24a165.34,165.34,0,0,0,22.2,30.63l.25-.11a.3.3,0,0,0,.08.08l29.44-13.75,26.2,19.06L236.17,365A162.89,162.89,0,0,0,272,376.71L287.91,348h32.46L336.3,376.7A163.66,163.66,0,0,0,372.19,365l-4-32.52,26.16-19.05,29.43,13.73L424,327l.21.1a161.79,161.79,0,0,0,22.24-30.52l-22.33-23.94L434,241.84l32-6.27a1.1,1.1,0,0,0,0-.18l.08,0c.54-4.79.87-9.61,1-14.43C467.19,219.26,467.22,217.59,467.22,215.91ZM244.44,305.2c-1.64-1.1-3.24-2.25-4.8-3.42a106.82,106.82,0,0,1,124.2-173.73,108.34,108.34,0,0,1,13.27,10.54h0A106.82,106.82,0,0,1,244.44,305.2Z"/><path class="cls-1" d="M178.71,780.35l-.36-.07a163.64,163.64,0,0,1-36-11.72l-.34-.15L146,735.8l-25.72-18.72L90.74,730.87l-.09-.09-.25.12-.24-.27A165.74,165.74,0,0,1,67.89,699.9l-.18-.32,22.39-24-9.76-30.19L48.2,639.1l0-.2-.12-.38A176.33,176.33,0,0,1,47,620.43c0-1.64,0-3.34.07-5,.12-4.82.46-9.69,1-14.47l0-.37.08,0,0-.18,32.1-6.28L90,563.82l-22.38-24,.18-.31a163,163,0,0,1,22.3-30.62l.25-.26.21.1.15-.17,29.5,13.76,25.68-18.7L142,471l.34-.15a164,164,0,0,1,36-11.75l.36-.07,15.95,28.72,31.88,0,15.9-28.75.36.07a163.89,163.89,0,0,1,36,11.72l.33.15-3.93,32.61,25.73,18.72,29.5-13.79.09.09.25-.12.24.27a165.28,165.28,0,0,1,22.27,30.73l.18.32-22.38,24,9.75,30.18,32.14,6.26,0,.2.11.38a179.4,179.4,0,0,1,1.1,18.09h0c0,1.63,0,3.33-.08,5-.12,4.82-.46,9.69-1,14.47l-.05.37h-.07l0,.19-32.1,6.28-9.75,30.24,22.39,24-.18.31A162.83,162.83,0,0,1,331,730.51l-.25.26-.21-.1-.15.17-29.5-13.76-25.68,18.7,4,32.59-.33.15a164.22,164.22,0,0,1-36,11.75l-.35.07-16-28.72-31.87,0ZM143.12,767.8a163.3,163.3,0,0,0,35.07,11.43L194,750.6l33.05,0L243,779.21a163.58,163.58,0,0,0,35.1-11.44l-3.95-32.46,26.63-19.39.27.13,29.1,13.57.15-.16.21.1a161.68,161.68,0,0,0,21.75-29.84l-22.29-23.88.09-.28,10-31.07,32-6.26,0-.18.08,0c.51-4.64.83-9.35.95-14,.05-1.72.08-3.41.08-5-.06-5.87-.41-11.8-1.05-17.63l-.07-.2-32-6.24-10.12-31.31,22.28-23.93a164.68,164.68,0,0,0-21.71-29.95l-.25.12-.08-.09-29.38,13.72-26.67-19.4L278,471.61a163.3,163.3,0,0,0-35.07-11.43l-15.84,28.63-33.05,0L178.13,460.2A163.58,163.58,0,0,0,143,471.64L147,504.1l-26.63,19.39L91,509.79l-.14.16-.22-.1a161.63,161.63,0,0,0-21.74,29.84l22.28,23.88L81.05,594.92l-32,6.26,0,.19H49c-.51,4.64-.83,9.36-1,14,0,1.7-.08,3.39-.07,5A176.09,176.09,0,0,0,49,638.05l.06.2,32,6.24L91.23,675.8,68.94,699.73a164.68,164.68,0,0,0,21.71,29.95l.25-.11.08.08,29.38-13.72L147,735.33Z"/><path class="cls-1" d="M504.82,548.18l-.09,0a47.28,47.28,0,0,1-10.31-3.36l-.08,0,1.12-9.34L488.08,530l-8.46,4,0,0-.07,0-.07-.07a47.42,47.42,0,0,1-6.37-8.8l0-.08.06-.06,6.35-6.82-2.8-8.67-9.21-1.8v-.06l0-.09a49.84,49.84,0,0,1-.32-5.18c0-.47,0-.94,0-1.45,0-1.38.13-2.77.29-4.15v-.09h0v-.06l9.19-1.8,2.81-8.68L473,479.27l.05-.08a46.66,46.66,0,0,1,6.39-8.77l.06-.07.06,0,0-.05,8.45,3.95,7.38-5.37-1.14-9.34.09,0a46.94,46.94,0,0,1,10.31-3.36l.09,0,0,.08,4.53,8.15h9.16l4.55-8.24.09,0a47.28,47.28,0,0,1,10.31,3.36l.08,0-1.12,9.34,7.39,5.37,8.45-3.95,0,0,.08,0,.06.06a48.14,48.14,0,0,1,6.38,8.81l0,.08-.06.06-6.35,6.82,2.8,8.67,9.2,1.8,0,.15c.19,1.71.29,3.46.31,5.18h0c0,.49,0,1,0,1.45,0,1.38-.13,2.77-.29,4.14v.09h0v.05l-9.19,1.8-2.8,8.69,6.41,6.87,0,.08a46.66,46.66,0,0,1-6.39,8.77l-.06.06-.06,0,0,0-.08,0L539.83,530l-7.38,5.37,1.14,9.34-.09,0a47.28,47.28,0,0,1-10.31,3.36l-.09,0,0-.08-4.53-8.15h-9.16Zm-10.21-3.57a46.42,46.42,0,0,0,10.08,3.28l4.54-8.2h9.45l0,.07,4.52,8.13a47.08,47.08,0,0,0,10.09-3.29l-1.13-9.3.06,0,7.55-5.5.07,0,8.35,3.9,0,0,.06,0a46.23,46.23,0,0,0,6.25-8.57l-6.39-6.85,2.89-9,.08,0,9.09-1.78v-.05h0c.15-1.34.24-2.69.28-4,0-.46,0-.95,0-1.44,0-1.69-.12-3.4-.3-5.07l0-.05L551.06,495l0-.07-2.87-8.88,0,0,6.34-6.81a47.14,47.14,0,0,0-6.24-8.61l-.06,0,0,0-8.42,3.93-.06,0L532.17,469l1.12-9.3a47,47,0,0,0-10.08-3.29l-4.54,8.21h-9.45l0-.06-4.52-8.13a46.9,46.9,0,0,0-10.09,3.29l1.14,9.3-.06,0-7.56,5.5-.07,0-8.35-3.89,0,.05-.06,0a46.56,46.56,0,0,0-6.25,8.57l6.39,6.85-2.89,9-.07,0-9.12,1.79c-.15,1.35-.24,2.72-.28,4.08,0,.5,0,1,0,1.44,0,1.68.12,3.38.3,5.06l0,.06,9.18,1.79,0,.07,2.87,8.88-.05,0-6.34,6.81a47,47,0,0,0,6.24,8.61l.07,0,0,0,8.42-3.94.06,0,7.57,5.5Z"/><path class="cls-1" d="M505,666.79l-.36-.07a46.88,46.88,0,0,1-10.38-3.39l-.34-.15,1.14-9.39-7-5.12-8.48,4,0,0h0l-.32-.24a47.43,47.43,0,0,1-6.43-8.87l-.18-.32,6.45-6.92L476.36,628l-9.26-1.8-.07-.43a50.43,50.43,0,0,1-.31-5.22c0-.49,0-1,0-1.46,0-1.39.13-2.79.29-4.17l0-.38h.06l.32-.11,8.9-1.74,2.66-8.26-6.45-6.91.18-.32a47,47,0,0,1,6.44-8.84l.25-.27.06,0h0l.37.11L488,592l7-5.11-1.14-9.4.33-.15A48.21,48.21,0,0,1,504.63,574l.36-.07,4.6,8.27h8.71l4.59-8.28.36.07a47.46,47.46,0,0,1,10.39,3.38l.33.15-1.13,9.4,7,5.12,8.51-4,0,0,.3.23a47.23,47.23,0,0,1,6.43,8.87l.18.32-6.45,6.92,2.67,8.25,9.25,1.8.08.43a50.59,50.59,0,0,1,.31,5.22h0c0,.48,0,1,0,1.46,0,1.38-.13,2.79-.28,4.17l-.07.37-.36.12L551.56,628l-2.67,8.27,6.45,6.91-.18.32a47,47,0,0,1-6.44,8.84l-.25.26-.05,0h0l-.38-.11-8.17-3.81-7,5.11,1.14,9.39-.33.15a47.13,47.13,0,0,1-10.39,3.39l-.36.08-4.6-8.28H509.6Zm-10-4.21a47.33,47.33,0,0,0,9.48,3.09l4.52-8.16h9.89l4.52,8.15a47.22,47.22,0,0,0,9.49-3.09l-1.12-9.25,8-5.81,8.44,3.93a46.25,46.25,0,0,0,5.91-8.11l-6.35-6.8,3-9.38,9.14-1.79c.13-1.25.21-2.53.24-3.78,0-.48,0-1,0-1.43,0-1.6-.1-3.22-.27-4.81l-9.14-1.78-3-9.37,6.35-6.82a47.12,47.12,0,0,0-5.89-8.12l-8.44,3.94-8-5.81,1.12-9.25a46.5,46.5,0,0,0-9.48-3.09l-4.52,8.16H509l-4.52-8.14a46,46,0,0,0-9.49,3.09l1.13,9.25-8,5.8-8.43-3.93a46.54,46.54,0,0,0-5.92,8.11l6.35,6.81-3,9.38-9.14,1.8c-.13,1.25-.21,2.52-.24,3.77,0,.48,0,1,0,1.43a47.29,47.29,0,0,0,.27,4.76v0l9.13,1.78,3,9.37-6.35,6.82a47,47,0,0,0,5.87,8.09h0l0,0,8.43-3.94,8,5.8Z"/><path class="cls-1" d="M505.27,784.25l-.71-.14a47.77,47.77,0,0,1-10.5-3.42l-.67-.31,1.14-9.46L488,766.15l-8.58,4-.08-.1-.5-.44a48.62,48.62,0,0,1-6.5-9L472,760l6.49-7L476,745.35l-9.34-1.82-.1-.79a48.87,48.87,0,0,1-.32-5.27c0-.5,0-1,0-1.48,0-1.41.13-2.83.29-4.22l.08-.75.19,0,.56-.15,8.6-1.68,2.49-7.71-6.5-7,.35-.64a48.39,48.39,0,0,1,6.51-8.93l.49-.53.26.12.52.16,7.9,3.69,6.54-4.77-1.15-9.46.66-.3a47.35,47.35,0,0,1,10.51-3.43l.71-.15,4.64,8.34H518l4.62-8.35.72.15a47.31,47.31,0,0,1,10.49,3.41l.67.31-1.14,9.47,6.55,4.77,8.54-4,0,0h0l.56.51a48.55,48.55,0,0,1,6.5,9l.36.64-6.5,7,2.48,7.7,9.31,1.81.14.79a51.76,51.76,0,0,1,.31,5.28h0c0,.5,0,1,0,1.48,0,1.4-.13,2.82-.29,4.21l-.08.75-.19,0-.56.15-8.6,1.69-2.48,7.7,6.5,7-.36.64a47.73,47.73,0,0,1-6.51,8.93l-.5.54-.29-.14-.47-.15-7.9-3.68-6.55,4.76,1.15,9.46-.66.31a48,48,0,0,1-10.51,3.42l-.71.15L518,775.91h-8.12Zm-9.71-5.08a45.64,45.64,0,0,0,8.68,2.83l4.47-8.09h10.48l4.49,8.08a45.73,45.73,0,0,0,8.69-2.83L531.25,770l8.45-6.16,8.37,3.91a45.52,45.52,0,0,0,5.42-7.44l-6.3-6.75,3.21-9.94,9.06-1.77c.11-1.12.17-2.26.2-3.38,0-.47,0-.94,0-1.41,0-1.46-.09-2.94-.23-4.39l-9.07-1.77L547.17,721l6.3-6.76a46.55,46.55,0,0,0-5.37-7.42h0l0,0-8.37,3.91-8.46-6.16,1.11-9.18a46.8,46.8,0,0,0-8.68-2.82l-4.48,8.09H508.71l-4.49-8.08a45.73,45.73,0,0,0-8.69,2.83l1.12,9.18-8.45,6.15-8.37-3.9a45.44,45.44,0,0,0-5.42,7.43l6.3,6.75-3.21,9.94-9.06,1.79c-.1,1.12-.17,2.24-.2,3.36,0,.48,0,1,0,1.42,0,1.43.09,2.89.23,4.32h0v.07l9.06,1.76,3.21,9.93-6.3,6.76a45.67,45.67,0,0,0,5.37,7.42h0l0,0,8.37-3.9,8.46,6.15Z"/></svg>