<svg width="1440" height="1024" viewBox="0 0 1440 1024" fill="none" xmlns="http://www.w3.org/2000/svg">
<rect width="1440" height="1746" fill="#EEEEEE"/>
<g style="mix-blend-mode:hard-light" opacity="0.08">
<path d="M937.475 1437.14C940.743 1433.89 944.007 1430.61 947.183 1427.24C950.363 1423.92 953.518 1420.54 956.606 1417.1C959.695 1413.66 962.74 1410.18 965.722 1406.69C968.723 1403.18 971.658 1399.61 974.55 1396C977.347 1392.5 980.101 1388.97 982.81 1385.39C985.498 1381.8 988.142 1378.17 990.723 1374.53C993.324 1370.86 995.861 1367.18 998.332 1363.44C1000.8 1359.71 1003.23 1355.93 1005.6 1352.14L944.808 1279.9L978.071 1192.4L1071.52 1178.55C1073.01 1169.57 1074.25 1160.56 1075.22 1151.51C1076.17 1142.49 1076.89 1133.42 1077.33 1124.34C1077.79 1115.27 1077.97 1106.17 1077.9 1097.06C1077.82 1088 1077.48 1078.89 1076.87 1069.83L985.1 1047.24L966.303 978.394L1117.44 801.435L1175.52 851.037L1240.64 774.79L1120.91 672.532L879.311 955.407C881.709 959.885 884.006 964.392 886.166 968.972C888.345 973.529 890.408 978.178 892.349 982.836C894.293 987.535 896.137 992.262 897.84 997.021C899.565 1001.8 901.15 1006.61 902.634 1011.45L902.156 1010.05C942.584 1141.05 891.66 1283.09 777.18 1358.61C662.682 1434.16 512.139 1425.07 407.716 1336.3C303.293 1247.54 270.101 1100.42 326.235 975.255C382.392 850.105 514.36 776.981 650.166 795.817L650.495 796.098C654.945 796.708 659.363 797.444 663.766 798.242C668.169 799.04 672.582 799.96 676.938 800.946C681.316 801.951 685.66 803.04 689.992 804.233C694.304 805.448 698.601 806.725 702.864 808.087L946.132 523.258L831.318 425.197L766.14 501.511L815.703 543.842L660.609 725.434L658.921 725.322L580.751 721.15L539.203 636.291C530.217 637.616 521.249 639.186 512.363 641.016C503.458 642.867 494.613 644.96 485.831 647.334C477.046 649.668 468.346 652.302 459.724 655.155C451.102 658.008 442.544 661.142 434.104 664.493L440.411 758.715L361.869 809.713L278.306 765.651C274.901 768.971 271.58 772.326 268.285 775.74C264.989 779.154 261.738 782.606 258.534 786.136C255.348 789.643 252.206 793.189 249.13 796.79C246.035 800.414 243.003 804.053 240.037 807.748C237.336 811.177 234.676 814.602 232.082 818.083C229.448 821.568 226.898 825.087 224.369 828.625C221.841 832.162 219.379 835.756 216.938 839.369C214.517 842.96 212.12 846.61 209.786 850.275L270.428 922.73L236.874 1010.18L143.233 1023.63C141.726 1032.64 140.467 1041.66 139.477 1050.73C138.447 1059.8 137.726 1068.91 137.249 1078C136.776 1087.12 136.547 1096.23 136.606 1105.36C136.665 1114.49 136.968 1123.6 137.537 1132.7L229.369 1155.53L253.683 1245.96L185.881 1312.01C189.937 1320.15 194.208 1328.16 198.717 1336.08C203.224 1343.95 207.968 1351.73 212.924 1359.34C217.881 1366.96 223.054 1374.45 228.458 1381.76C233.843 1389.1 239.46 1396.25 245.248 1403.24L332.909 1367.51L405.793 1426.34L389.585 1519.61C397.653 1523.8 405.845 1527.76 414.162 1531.48C422.457 1535.19 430.878 1538.65 439.382 1541.89C447.886 1545.13 456.494 1548.11 465.164 1550.85C473.855 1553.6 482.587 1556.08 491.422 1558.31L541.507 1478.03L635.106 1482.62L676.926 1567.29C685.935 1565.99 694.9 1564.38 703.804 1562.53C712.731 1560.69 721.595 1558.58 730.377 1556.2C739.181 1553.85 747.903 1551.23 756.543 1548.36C765.184 1545.48 773.743 1542.35 782.201 1538.98L775.44 1444.71L853.906 1393.27L937.475 1437.14Z" fill="#32323C"/>
<path d="M690.716 1214.34C654.192 1176.94 631.988 1131.69 607.782 1086.81C600.032 1072.24 591.255 1058.2 581.527 1044.83C571.82 1031.48 561.182 1018.82 549.683 1006.94C538.184 995.068 525.889 984.034 512.824 973.903C499.777 963.749 486.045 954.532 471.716 946.327C467.306 943.741 462.863 941.239 458.382 938.781C453.904 936.365 449.369 934.014 444.797 931.707C440.247 929.419 435.641 927.197 431 925.06C426.378 922.901 421.703 920.849 417.012 918.859C416.017 920.025 415.002 921.213 414.006 922.379C369.334 974.594 346.305 1041.91 349.62 1110.52C352.917 1179.17 382.315 1243.92 431.791 1291.58C481.227 1339.25 547.052 1366.21 615.763 1366.94C684.433 1367.68 750.856 1342.15 801.366 1295.56C791.091 1290.4 781.048 1284.79 771.262 1278.8C761.454 1272.78 751.903 1266.37 742.649 1259.57C733.394 1252.77 724.397 1245.58 715.741 1238.03C707.085 1230.49 698.73 1222.59 690.716 1214.34Z" fill="#C72026"/>
<path d="M734.129 1125.63C713.26 1107.8 710.8 1076.51 728.626 1055.64C746.452 1034.77 777.742 1032.3 798.611 1050.13C819.48 1067.95 821.941 1099.24 804.114 1120.11C786.288 1140.98 754.998 1143.45 734.129 1125.63Z" fill="#C72026"/>
<path d="M675.434 946.761C668.075 940.476 667.008 929.715 673.042 922.65C679.076 915.585 689.872 914.956 697.231 921.24C704.589 927.525 705.657 938.286 699.622 945.352C693.588 952.417 682.792 953.046 675.434 946.761Z" fill="#C72026"/>
<path d="M831.221 872.004C820.34 862.711 819.059 846.415 828.354 835.533C837.648 824.65 853.944 823.366 864.825 832.66C875.706 841.953 876.987 858.249 867.692 869.131C858.398 880.014 842.102 881.298 831.221 872.004Z" fill="#C72026"/>
<path d="M1020.42 597.738C1002.78 582.673 1000.7 556.235 1015.77 538.594C1030.83 520.954 1057.27 518.871 1074.91 533.935C1092.55 549 1094.63 575.438 1079.56 593.079C1064.49 610.719 1038.05 612.802 1020.42 597.738Z" fill="#C72026"/>
<path d="M1230.01 633.298C1201.5 608.95 1198.14 566.195 1222.49 537.683C1246.84 509.171 1289.59 505.803 1318.1 530.151C1346.61 554.499 1349.97 597.254 1325.62 625.766C1301.27 654.278 1258.51 657.646 1230.01 633.298Z" fill="#C72026"/>
<path d="M1188.37 362.338C1147.79 327.684 1143.01 266.891 1177.67 226.309C1212.33 185.727 1273.13 180.938 1313.7 215.593C1354.28 250.248 1359.06 311.041 1324.4 351.623C1289.74 392.204 1228.94 396.993 1188.37 362.338Z" fill="#C72026"/>
</g>
</svg>
