<svg id="Layer_1" data-name="Layer 1" xmlns="http://www.w3.org/2000/svg" viewBox="0 0 1417.32 1417.32">
	<defs>
		<style>
			.cls-1{fill:#32323c;}
			<!-- .cls-1{fill:#ffffff;} -->
			.cls-2{fill:#c72026;}
		</style>
	</defs>
	<title>
		HIVE-Artwork
	</title>
	<path class="cls-1" d="M721,838.57a167.38,167.38,0,0,0,.51-19.17,154.82,154.82,0,0,0-1.69-18.53l-32.28-5.35L676.61,765l21.51-24.66a163.4,163.4,0,0,0-23.06-29.83l-29.27,14.69-20.45-13.9V630.72h26.47V596H597.24V724.81A106.92,106.92,0,0,1,616,734.32h0l-.44-.26a106.82,106.82,0,1,1-114.63.26h.15a107.23,107.23,0,0,1,16.5-8.62V596H465.25v34.75h22.59v82.69l-.47.35-21.54,16.48-30.05-13a161.79,161.79,0,0,0-21.35,31.06l22.87,23.39-9.22,31.09L396.14,810a164.42,164.42,0,0,0-.61,19.69,176.61,176.61,0,0,0,1.6,18l32.29,5.44,10.84,30.57-21.65,24.6a165.11,165.11,0,0,0,23.05,30L471,923.66,497.76,942l-3,32.64a163.34,163.34,0,0,0,36.18,10.67L546,956.19l32.45-.9,16.72,28.2a163.77,163.77,0,0,0,35.55-12.71l-4.87-32.4,25.7-19.84,30.08,12.89A162.23,162.23,0,0,0,703,900.3L680,877l9.1-31.19Z" />
	<path class="cls-2" d="M605.6,835.42c-18-1.63-34-8.54-50.44-14.9a122,122,0,0,0-67.32-6.38,163.5,163.5,0,0,0-20.55,5.06c0,.53,0,1.07,0,1.6a93.15,93.15,0,0,0,185.64,11.13A143,143,0,0,1,605.6,835.42Z" />
	<circle class="cls-2" cx="597.32" cy="785.13" r="17.2" />
	<circle class="cls-2" cx="541.55" cy="762.52" r="5.96" />
	<circle class="cls-2" cx="565.67" cy="704.63" r="8.93" />
	<circle class="cls-2" cx="553.88" cy="584.12" r="14.63" />
	<circle class="cls-2" cx="617.07" cy="537.38" r="23.37" />
	<circle class="cls-2" cx="545.23" cy="465.36" r="33.34" />
</svg>
