<svg xmlns="http://www.w3.org/2000/svg" viewBox="0 0 1200 600" width="1200" height="600">
	<style>
		tspan { white-space:pre }
		.shp0 { fill: #32323c } 
		.shp1 { fill: #c72026 } 
	</style>
	<path id="Layer" class="shp0" d="M612 429.57C612.13 427.98 612.25 426.38 612.33 424.78C612.42 423.19 612.49 421.59 612.53 419.99C612.57 418.39 612.59 416.79 612.59 415.2C612.59 413.6 612.56 412 612.51 410.4C612.46 408.85 612.39 407.3 612.3 405.75C612.2 404.2 612.08 402.65 611.94 401.11C611.8 399.56 611.64 398.02 611.45 396.48C611.26 394.94 611.05 393.4 610.82 391.87L578.54 386.52L567.61 356L589.12 331.34C587.49 328.64 585.79 325.99 584.01 323.39C582.23 320.8 580.38 318.25 578.45 315.76C576.53 313.27 574.53 310.83 572.46 308.45C570.4 306.08 568.26 303.76 566.06 301.51L536.79 316.2L516.34 302.3L516.34 221.72L542.81 221.72L542.81 187L488.24 187L488.24 315.81C489.88 316.45 491.5 317.12 493.1 317.84C494.7 318.55 496.29 319.31 497.85 320.1C499.42 320.9 500.97 321.73 502.49 322.6C504.02 323.47 505.52 324.38 507 325.32L507 325.32L506.56 325.06C546.7 350.46 565.25 399.31 552.08 444.94C538.91 490.58 497.19 522.04 449.69 522.15C402.19 522.26 360.33 490.99 346.95 445.41C333.58 399.83 351.9 350.9 391.93 325.32L392.08 325.32C393.39 324.48 394.72 323.68 396.06 322.9C397.4 322.12 398.77 321.37 400.14 320.65C401.52 319.93 402.91 319.24 404.32 318.58C405.73 317.93 407.15 317.3 408.58 316.7L408.58 187L356.25 187L356.25 221.75L378.84 221.75L378.84 304.44L378.37 304.79L356.83 321.27L326.78 308.27C324.71 310.64 322.7 313.07 320.77 315.55C318.84 318.04 316.98 320.58 315.2 323.18C313.41 325.77 311.71 328.42 310.08 331.11C308.45 333.8 306.9 336.55 305.43 339.33L328.3 362.72L319.08 393.81L287.14 401C286.99 402.64 286.87 404.27 286.77 405.91C286.67 407.55 286.59 409.19 286.54 410.84C286.49 412.48 286.46 414.12 286.46 415.76C286.46 417.41 286.48 419.05 286.53 420.69C286.59 422.2 286.66 423.7 286.76 425.2C286.85 426.71 286.97 428.21 287.1 429.71C287.23 431.21 287.39 432.71 287.56 434.21C287.73 435.7 287.92 437.2 288.13 438.69L320.42 444.13L331.26 474.7L309.61 499.3C311.24 502.01 312.94 504.67 314.72 507.28C316.49 509.9 318.35 512.46 320.27 514.96C322.2 517.47 324.19 519.92 326.26 522.31C328.33 524.7 330.46 527.03 332.66 529.3L362 514.66L388.76 533L385.76 565.64C388.66 566.87 391.59 568.02 394.56 569.09C397.52 570.15 400.52 571.13 403.54 572.02C406.56 572.91 409.61 573.72 412.68 574.43C415.75 575.15 418.84 575.77 421.94 576.31L437 547.19L469.45 546.29L486.17 574.49C489.24 573.78 492.29 572.98 495.32 572.09C498.34 571.2 501.34 570.22 504.31 569.16C507.28 568.1 510.22 566.95 513.12 565.72C516.03 564.49 518.89 563.18 521.72 561.78L516.85 529.38L542.55 509.54L572.63 522.43C574.71 520.06 576.71 517.62 578.64 515.13C580.58 512.64 582.44 510.09 584.22 507.49C586.01 504.89 587.72 502.24 589.35 499.54C590.98 496.84 592.53 494.09 594 491.3L571 468L580.1 436.81L612 429.57Z" />
	<path id="Layer" class="shp1" d="M496.6 426.42C478.6 424.79 462.6 417.88 446.16 411.52C440.85 409.43 435.39 407.71 429.83 406.38C424.28 405.05 418.64 404.11 412.95 403.57C407.26 403.03 401.55 402.89 395.84 403.16C390.13 403.42 384.45 404.08 378.84 405.14C377.1 405.45 375.37 405.79 373.64 406.15C371.92 406.52 370.2 406.92 368.48 407.34C366.77 407.76 365.06 408.21 363.36 408.69C361.66 409.16 359.97 409.67 358.29 410.2C358.29 410.73 358.29 411.27 358.29 411.8C358.27 435.55 367.33 458.41 383.61 475.7C399.89 493 422.16 503.42 445.87 504.84C469.57 506.27 492.93 498.58 511.16 483.35C529.38 468.13 541.11 446.51 543.93 422.93C540.07 423.88 536.17 424.66 532.25 425.28C528.32 425.9 524.37 426.36 520.41 426.65C516.45 426.94 512.47 427.07 508.5 427.03C504.53 426.99 500.56 426.79 496.6 426.42L496.6 426.42Z" />
	<path id="Layer" class="shp1" d="M488.32 393.33C478.81 393.33 471.12 385.64 471.12 376.13C471.12 366.62 478.81 358.93 488.32 358.93C497.83 358.93 505.52 366.62 505.52 376.13C505.52 385.64 497.83 393.33 488.32 393.33Z" />
	<path id="Layer" class="shp1" d="M432.55 359.48C429.25 359.48 426.59 356.82 426.59 353.52C426.59 350.22 429.25 347.56 432.55 347.56C435.85 347.56 438.51 350.22 438.51 353.52C438.51 356.82 435.85 359.48 432.55 359.48Z" />
	<path id="Layer" class="shp1" d="M456.67 304.56C451.73 304.56 447.74 300.57 447.74 295.63C447.74 290.69 451.73 286.7 456.67 286.7C461.61 286.7 465.6 290.69 465.6 295.63C465.6 300.57 461.61 304.56 456.67 304.56Z" />
	<path id="Layer" class="shp1" d="M444.88 189.75C436.79 189.75 430.25 183.21 430.25 175.12C430.25 167.03 436.79 160.49 444.88 160.49C452.97 160.49 459.51 167.03 459.51 175.12C459.51 183.21 452.97 189.75 444.88 189.75Z" />
	<path id="Layer" class="shp1" d="M508.07 151.75C495.15 151.75 484.7 141.3 484.7 128.38C484.7 115.46 495.15 105.01 508.07 105.01C520.99 105.01 531.44 115.46 531.44 128.38C531.44 141.3 520.99 151.75 508.07 151.75Z" />
	<path id="Layer" class="shp1" d="M436.23 89.7C417.79 89.7 402.89 74.8 402.89 56.36C402.89 37.92 417.79 23.02 436.23 23.02C454.67 23.02 469.57 37.92 469.57 56.36C469.57 74.8 454.67 89.7 436.23 89.7Z" />
	<path id="Layer" class="shp0" d="M51.89 176.05L33 176.05L33 165L51.9 165L51.9 133.12L64.17 133.12L64.17 165L85.22 165L85.22 176.1L64.16 176.1L64.16 255.66L51.89 255.66L51.89 176.05Z" />
	<path id="Layer" class="shp0" d="M97.64 133.12L109.9 133.12L109.9 175.39C110.6 174.33 111.38 173.33 112.24 172.39C113.1 171.45 114.02 170.58 115.01 169.78C116 168.99 117.05 168.27 118.16 167.64C119.26 167 120.4 166.46 121.59 166C122.84 165.5 124.12 165.05 125.42 164.67C126.72 164.29 128.03 163.98 129.36 163.72C130.69 163.47 132.03 163.29 133.37 163.17C134.72 163.04 136.07 162.99 137.42 163C138.88 163 140.35 163.07 141.8 163.22C143.26 163.36 144.71 163.59 146.14 163.89C147.57 164.19 148.99 164.56 150.39 165.01C151.78 165.45 153.15 165.97 154.49 166.56C155.83 167.14 157.13 167.8 158.39 168.54C159.65 169.27 160.87 170.07 162.04 170.94C163.21 171.82 164.33 172.75 165.4 173.75C166.46 174.75 167.47 175.81 168.41 176.92C169.32 177.95 170.16 179.04 170.94 180.17C171.72 181.3 172.43 182.48 173.07 183.7C173.71 184.92 174.28 186.17 174.77 187.46C175.26 188.74 175.67 190.06 176 191.39C176.31 192.74 176.58 194.1 176.81 195.47C177.04 196.83 177.24 198.2 177.39 199.58C177.54 200.96 177.65 202.34 177.72 203.72C177.8 205.11 177.83 206.49 177.82 207.88L177.82 255.61L165.59 255.61L165.59 207.88C165.59 206.93 165.58 205.98 165.54 205.03C165.51 204.08 165.45 203.13 165.37 202.18C165.3 201.23 165.2 200.29 165.09 199.34C164.97 198.4 164.84 197.46 164.68 196.52C164.3 194.49 163.68 192.51 162.84 190.62C161.99 188.73 160.93 186.95 159.67 185.32C158.4 183.68 156.95 182.2 155.34 180.91C153.73 179.61 151.97 178.51 150.1 177.63C149.07 177.15 148.02 176.73 146.95 176.36C145.87 176 144.78 175.69 143.67 175.45C142.56 175.21 141.44 175.03 140.32 174.9C139.19 174.78 138.05 174.73 136.92 174.73C135.84 174.74 134.77 174.81 133.7 174.94C132.64 175.07 131.58 175.26 130.53 175.51C129.49 175.77 128.46 176.08 127.45 176.45C126.44 176.82 125.45 177.25 124.49 177.73C123.51 178.19 122.56 178.71 121.64 179.29C120.72 179.86 119.84 180.5 118.99 181.18C118.15 181.86 117.35 182.6 116.6 183.38C115.85 184.16 115.14 184.98 114.49 185.85C113.93 186.62 113.41 187.42 112.96 188.26C112.5 189.09 112.1 189.95 111.75 190.84C111.41 191.73 111.13 192.64 110.91 193.57C110.69 194.49 110.53 195.43 110.43 196.38C110.05 200.19 109.86 204.03 109.85 207.9L109.85 255.63L97.64 255.63L97.64 133.12Z" />
	<path id="Layer" fill-rule="evenodd" class="shp0" d="M207.53 214.67C207.55 215.73 207.64 216.79 207.79 217.84C207.93 218.89 208.14 219.93 208.42 220.96C208.69 221.98 209.02 222.99 209.41 223.98C209.8 224.97 210.25 225.93 210.76 226.86C211.26 227.79 211.79 228.71 212.37 229.59C212.95 230.48 213.56 231.34 214.22 232.17C214.87 233.01 215.56 233.81 216.28 234.58C217 235.35 217.76 236.09 218.55 236.8C219.34 237.51 220.17 238.18 221.02 238.82C221.87 239.46 222.74 240.06 223.65 240.62C224.55 241.18 225.47 241.7 226.42 242.19C227.37 242.67 228.34 243.11 229.32 243.51C230.3 243.92 231.29 244.28 232.3 244.59C233.31 244.9 234.34 245.16 235.37 245.36C236.41 245.57 237.45 245.73 238.51 245.84C239.56 245.94 240.61 246 241.67 246C242.51 246 243.35 245.97 244.18 245.91C245.02 245.86 245.86 245.77 246.69 245.66C247.52 245.55 248.35 245.42 249.17 245.25C249.99 245.09 250.81 244.9 251.62 244.68C252.43 244.46 253.24 244.22 254.04 243.95C254.83 243.67 255.62 243.38 256.39 243.05C257.17 242.72 257.93 242.37 258.69 241.99C259.44 241.61 260.18 241.21 260.9 240.78C261.62 240.35 262.32 239.9 263.01 239.42C263.7 238.94 264.37 238.43 265.02 237.91C265.67 237.38 266.3 236.83 266.92 236.26C267.53 235.69 268.12 235.09 268.69 234.48C269.26 233.87 269.81 233.23 270.33 232.58C270.84 231.92 271.33 231.24 271.79 230.53C272.25 229.83 272.68 229.11 273.07 228.37C273.47 227.64 273.83 226.88 274.16 226.11L286.92 226.11C286.53 227.24 286.1 228.36 285.62 229.46C285.14 230.56 284.61 231.63 284.04 232.69C283.48 233.74 282.86 234.78 282.21 235.78C281.56 236.78 280.86 237.76 280.13 238.71C278.66 240.63 277.05 242.43 275.31 244.11C273.57 245.79 271.72 247.34 269.75 248.75C267.79 250.16 265.73 251.42 263.58 252.53C261.43 253.64 259.21 254.59 256.92 255.37C255.79 255.76 254.64 256.11 253.49 256.41C252.33 256.71 251.16 256.96 249.98 257.16C248.8 257.36 247.61 257.51 246.42 257.61C245.22 257.72 244.03 257.77 242.83 257.77C241.24 257.78 239.64 257.71 238.06 257.56C236.47 257.42 234.89 257.19 233.33 256.88C231.76 256.58 230.21 256.19 228.69 255.73C227.16 255.27 225.66 254.73 224.19 254.12C222.78 253.54 221.4 252.89 220.06 252.17C218.71 251.45 217.4 250.67 216.14 249.82C214.87 248.97 213.65 248.06 212.47 247.08C211.3 246.11 210.17 245.08 209.1 244C208.03 242.92 207.02 241.78 206.06 240.6C205.1 239.42 204.19 238.2 203.35 236.94C202.5 235.67 201.71 234.37 200.99 233.03C200.26 231.7 199.6 230.33 199 228.93C198.37 227.47 197.82 225.98 197.35 224.46C196.88 222.94 196.49 221.4 196.17 219.84C195.86 218.28 195.63 216.71 195.48 215.12C195.33 213.54 195.26 211.95 195.27 210.36C195.26 208.77 195.33 207.19 195.47 205.61C195.62 204.02 195.85 202.45 196.15 200.9C196.46 199.34 196.85 197.8 197.31 196.28C197.77 194.76 198.31 193.26 198.92 191.8C199.5 190.4 200.15 189.04 200.86 187.7C201.57 186.37 202.35 185.07 203.19 183.81C204.03 182.55 204.93 181.34 205.88 180.17C206.84 179 207.85 177.87 208.92 176.8C210 175.73 211.12 174.71 212.29 173.75C213.46 172.79 214.68 171.88 215.94 171.03C217.2 170.18 218.49 169.4 219.83 168.67C221.16 167.95 222.52 167.28 223.92 166.69C225.38 166.07 226.88 165.52 228.4 165.05C229.92 164.58 231.46 164.19 233.02 163.88C234.58 163.57 236.15 163.34 237.74 163.2C239.32 163.05 240.91 162.98 242.5 163C244.24 162.99 245.97 163.08 247.7 163.26C249.42 163.45 251.14 163.74 252.83 164.12C254.53 164.5 256.2 164.98 257.83 165.56C259.47 166.13 261.08 166.8 262.64 167.56C264.21 168.33 265.75 169.19 267.23 170.13C268.71 171.06 270.14 172.08 271.51 173.17C272.88 174.27 274.19 175.43 275.44 176.66C276.69 177.9 277.86 179.2 278.97 180.56C279.47 181.18 279.94 181.81 280.41 182.46C280.87 183.1 281.31 183.76 281.74 184.43C282.17 185.09 282.58 185.77 282.97 186.46C283.37 187.15 283.74 187.85 284.1 188.56C284.43 189.21 284.74 189.87 285.03 190.53C285.33 191.19 285.61 191.87 285.87 192.54C286.13 193.22 286.38 193.91 286.61 194.6C286.84 195.28 287.05 195.98 287.25 196.68C287.45 197.39 287.63 198.09 287.8 198.81C287.97 199.52 288.12 200.24 288.26 200.96C288.4 201.67 288.52 202.4 288.63 203.12C288.74 203.85 288.83 204.57 288.91 205.3C289.24 208.28 289.46 211.43 289.57 214.74L207.53 214.67ZM277.31 203.57C277.11 202.58 276.88 201.59 276.59 200.62C276.31 199.64 275.98 198.68 275.62 197.74C275.25 196.8 274.84 195.87 274.39 194.96C273.94 194.05 273.45 193.16 272.92 192.3C272.39 191.43 271.83 190.59 271.24 189.77C270.65 188.94 270.02 188.15 269.36 187.38C268.7 186.61 268.01 185.86 267.29 185.15C266.57 184.44 265.82 183.75 265.04 183.1C264.27 182.45 263.47 181.84 262.65 181.26C261.83 180.68 260.98 180.13 260.11 179.62C259.24 179.11 258.36 178.64 257.45 178.2C256.54 177.76 255.62 177.36 254.68 177C253.73 176.63 252.76 176.3 251.77 176.02C250.79 175.73 249.79 175.5 248.79 175.31C247.78 175.12 246.77 174.98 245.75 174.89C244.73 174.8 243.7 174.76 242.68 174.76C241.64 174.75 240.59 174.8 239.55 174.88C238.51 174.97 237.48 175.11 236.45 175.29C235.42 175.47 234.4 175.69 233.39 175.96C232.39 176.23 231.39 176.55 230.41 176.91C229.46 177.26 228.52 177.65 227.6 178.08C226.69 178.51 225.79 178.98 224.9 179.48C224.02 179.98 223.16 180.52 222.33 181.09C221.49 181.67 220.68 182.27 219.89 182.91C219.1 183.55 218.33 184.22 217.6 184.92C216.86 185.62 216.16 186.36 215.49 187.12C214.82 187.88 214.18 188.68 213.58 189.5C212.98 190.32 212.42 191.16 211.89 192.03C211.35 192.92 210.85 193.83 210.39 194.76C209.94 195.7 209.52 196.65 209.16 197.63C208.79 198.6 208.47 199.59 208.19 200.59C207.91 201.59 207.68 202.61 207.5 203.63L277.31 203.57Z" />
	<path id="Layer" class="shp0" d="M830.14 334.23L826.93 334.23L826.93 483.06L830.14 483.06L849.06 483.06L852.27 483.06L852.27 334.23L849.06 334.23L830.14 334.23L830.14 334.23Z" />
	<path id="Layer" class="shp0" d="M785.81 356.32C784.27 354.51 782.64 352.8 780.91 351.18C779.18 349.55 777.35 348.03 775.45 346.62C773.55 345.2 771.57 343.9 769.52 342.71C767.47 341.52 765.35 340.44 763.18 339.49C761.01 338.54 758.79 337.7 756.54 336.97C754.28 336.25 751.99 335.65 749.67 335.16C747.35 334.68 745 334.31 742.65 334.07C740.29 333.83 737.92 333.71 735.55 333.72C733.36 333.72 731.17 333.82 728.99 334.03C726.81 334.24 724.65 334.55 722.5 334.97C720.35 335.39 718.22 335.92 716.12 336.54C714.02 337.17 711.96 337.89 709.93 338.72C708.68 339.22 707.45 339.77 706.24 340.39C705.04 341 703.87 341.67 702.73 342.39C701.59 343.11 700.48 343.89 699.41 344.71C698.35 345.54 697.32 346.41 696.33 347.33L696.33 287.7L671 287.7L671 483.06L696.35 483.06L696.35 406.22C696.35 404.76 696.37 403.31 696.4 401.85C696.44 400.39 696.49 398.94 696.57 397.48C696.64 396.03 696.73 394.58 696.84 393.12C696.95 391.67 697.08 390.22 697.23 388.77C697.36 387.45 697.59 386.15 697.9 384.86C698.2 383.57 698.6 382.31 699.07 381.07C699.55 379.84 700.11 378.64 700.74 377.48C701.38 376.31 702.09 375.2 702.87 374.13C703.79 372.9 704.79 371.73 705.85 370.62C706.92 369.51 708.05 368.47 709.24 367.5C710.43 366.53 711.67 365.63 712.97 364.81C714.27 363.98 715.61 363.24 717 362.58C719.85 361.19 722.85 360.12 725.94 359.4C729.02 358.68 732.19 358.31 735.36 358.3C738.53 358.29 741.69 358.64 744.79 359.34C747.88 360.04 750.88 361.09 753.74 362.47C756.39 363.72 758.88 365.28 761.16 367.12C763.44 368.96 765.5 371.05 767.29 373.37C769.08 375.69 770.6 378.21 771.8 380.88C773 383.56 773.88 386.36 774.42 389.24C774.65 390.64 774.85 392.05 775.03 393.46C775.2 394.88 775.34 396.29 775.46 397.71C775.57 399.13 775.65 400.55 775.71 401.97C775.76 403.39 775.79 404.82 775.78 406.24L775.78 483.08L801.13 483.08L801.13 406.22C801.14 404.02 801.09 401.82 800.97 399.62C800.86 397.43 800.68 395.23 800.44 393.05C800.19 390.86 799.89 388.68 799.52 386.51C799.15 384.34 798.72 382.18 798.23 380.04C797.69 377.85 797.01 375.7 796.21 373.6C795.41 371.49 794.49 369.43 793.44 367.44C792.39 365.44 791.23 363.51 789.96 361.65C788.68 359.79 787.3 358.01 785.81 356.32Z" />
	<path id="Layer" fill-rule="evenodd" class="shp0" d="M1137.16 431.13L1163.45 431.13L1162 435.38C1161.37 437.21 1160.67 439.02 1159.89 440.79C1159.11 442.56 1158.26 444.3 1157.34 446.01C1156.42 447.71 1155.43 449.38 1154.37 451C1153.31 452.62 1152.19 454.2 1151 455.73C1148.64 458.81 1146.05 461.72 1143.26 464.42C1140.47 467.12 1137.49 469.62 1134.33 471.89C1131.18 474.15 1127.86 476.19 1124.41 477.97C1120.96 479.75 1117.38 481.28 1113.71 482.54C1111.88 483.18 1110.03 483.74 1108.16 484.22C1106.28 484.7 1104.39 485.11 1102.48 485.43C1100.57 485.76 1098.65 486 1096.73 486.17C1094.8 486.33 1092.86 486.42 1090.93 486.42C1088.37 486.44 1085.8 486.32 1083.25 486.08C1080.69 485.84 1078.15 485.48 1075.64 484.98C1073.12 484.49 1070.63 483.87 1068.17 483.13C1065.72 482.39 1063.3 481.53 1060.93 480.55C1058.66 479.61 1056.44 478.56 1054.27 477.4C1052.11 476.25 1050 474.98 1047.96 473.61C1045.92 472.24 1043.95 470.78 1042.06 469.21C1040.16 467.65 1038.35 465.99 1036.62 464.25C1034.9 462.5 1033.27 460.68 1031.73 458.78C1030.18 456.88 1028.72 454.92 1027.36 452.88C1026 450.85 1024.73 448.75 1023.56 446.6C1022.39 444.45 1021.32 442.25 1020.36 440C1017.43 433.03 1015.54 425.66 1014.75 418.14C1013.96 410.62 1014.28 403.02 1015.7 395.59C1017.11 388.16 1019.61 380.98 1023.11 374.27C1026.61 367.56 1031.07 361.41 1036.36 356C1038.09 354.28 1039.91 352.64 1041.8 351.1C1043.69 349.55 1045.65 348.09 1047.67 346.73C1049.7 345.37 1051.79 344.1 1053.94 342.93C1056.08 341.77 1058.28 340.71 1060.53 339.75C1062.89 338.75 1065.29 337.86 1067.74 337.1C1070.18 336.35 1072.67 335.71 1075.18 335.21C1077.69 334.71 1080.22 334.33 1082.77 334.09C1085.32 333.84 1087.88 333.73 1090.44 333.75C1093.24 333.74 1096.04 333.88 1098.82 334.18C1101.6 334.49 1104.37 334.95 1107.1 335.57C1109.83 336.19 1112.52 336.96 1115.16 337.89C1117.8 338.81 1120.39 339.89 1122.91 341.11C1125.44 342.35 1127.9 343.73 1130.28 345.24C1132.67 346.75 1134.97 348.39 1137.17 350.14C1139.38 351.9 1141.49 353.77 1143.49 355.76C1145.5 357.74 1147.39 359.83 1149.17 362.02C1149.97 363.02 1150.75 364.04 1151.49 365.08C1152.24 366.11 1152.97 367.17 1153.66 368.25C1154.35 369.32 1155.02 370.42 1155.66 371.52C1156.3 372.63 1156.91 373.76 1157.49 374.9C1158.01 375.95 1158.51 377.01 1158.99 378.08C1159.46 379.15 1159.91 380.24 1160.34 381.33C1160.76 382.42 1161.16 383.53 1161.53 384.64C1161.9 385.75 1162.24 386.87 1162.56 388C1162.87 389.13 1163.17 390.27 1163.43 391.41C1163.7 392.55 1163.95 393.69 1164.17 394.85C1164.39 396 1164.59 397.15 1164.76 398.31C1164.94 399.47 1165.09 400.63 1165.22 401.8C1165.7 406.48 1166.05 411.47 1166.22 416.62L1166.33 419.94L1039.89 419.94C1040.02 421.17 1040.22 422.39 1040.47 423.6C1040.72 424.81 1041.03 426 1041.4 427.18C1041.77 428.36 1042.19 429.52 1042.67 430.66C1043.15 431.8 1043.68 432.91 1044.27 434C1044.99 435.36 1045.78 436.68 1046.62 437.97C1047.46 439.26 1048.35 440.51 1049.3 441.73C1050.25 442.94 1051.25 444.11 1052.3 445.23C1053.36 446.35 1054.45 447.43 1055.6 448.46C1056.76 449.49 1057.96 450.47 1059.2 451.4C1060.44 452.33 1061.72 453.2 1063.03 454.02C1064.35 454.84 1065.7 455.6 1067.08 456.31C1068.46 457.01 1069.87 457.66 1071.3 458.24C1081.74 462.52 1092.81 462.78 1103.64 459.89C1104.82 459.58 1106 459.22 1107.15 458.83C1108.31 458.44 1109.46 458 1110.59 457.53C1111.72 457.06 1112.83 456.54 1113.92 455.99C1115.01 455.44 1116.09 454.85 1117.14 454.23C1118.18 453.6 1119.2 452.94 1120.2 452.25C1121.2 451.55 1122.17 450.82 1123.12 450.05C1124.06 449.29 1124.98 448.49 1125.87 447.66C1126.76 446.83 1127.62 445.97 1128.45 445.08C1129.27 444.2 1130.05 443.29 1130.79 442.35C1131.53 441.4 1132.23 440.42 1132.89 439.42C1133.54 438.41 1134.15 437.38 1134.72 436.32C1135.29 435.27 1135.81 434.18 1136.28 433.08L1137.16 431.13ZM1044.27 386.44C1043.73 387.5 1043.23 388.57 1042.77 389.65C1042.31 390.74 1041.88 391.85 1041.5 392.97C1041.12 394.08 1040.78 395.22 1040.48 396.36L1140.05 396.36C1139.74 395.26 1139.4 394.18 1139.01 393.1C1138.63 392.03 1138.21 390.97 1137.75 389.92C1137.3 388.88 1136.8 387.85 1136.28 386.84C1135.75 385.83 1135.19 384.83 1134.59 383.86C1133.07 381.34 1131.34 378.94 1129.43 376.71C1127.52 374.47 1125.42 372.39 1123.17 370.49C1120.91 368.6 1118.51 366.89 1115.97 365.39C1113.44 363.89 1110.79 362.6 1108.04 361.53C1105.24 360.48 1102.34 359.68 1099.4 359.14C1096.45 358.6 1093.46 358.32 1090.47 358.31C1087.48 358.3 1084.49 358.56 1081.54 359.08C1078.59 359.6 1075.69 360.38 1072.88 361.42C1071.5 361.93 1070.13 362.5 1068.79 363.12C1067.46 363.74 1066.14 364.42 1064.86 365.15C1063.58 365.87 1062.32 366.65 1061.1 367.48C1059.88 368.31 1058.69 369.19 1057.54 370.11C1056.4 371.04 1055.3 372.01 1054.24 373.03C1053.18 374.06 1052.16 375.12 1051.2 376.23C1050.23 377.34 1049.31 378.49 1048.45 379.68C1047.58 380.87 1046.76 382.09 1046 383.35C1045.39 384.36 1044.81 385.39 1044.27 386.44Z" />
	<path id="Layer" class="shp0" d="M935.99 447.47L889.81 336.79L862.38 336.79L923.88 483.06L947.83 483.06L1009.6 336.79L982.17 336.79L935.99 447.47L935.99 447.47Z" />
</svg>