<?xml version="1.0" encoding="utf-8"?>
<!-- Generator: Adobe Illustrator 25.0.0, SVG Export Plug-In . SVG Version: 6.00 Build 0)  -->
<svg version="1.1" id="Layer_1" xmlns="http://www.w3.org/2000/svg" xmlns:xlink="http://www.w3.org/1999/xlink" x="0px" y="0px"
	 viewBox="0 0 100 100" style="enable-background:new 0 0 100 100;" xml:space="preserve">
<style type="text/css">
	.st0{fill:#32323C;}
	.st1{fill:#C72026;}
</style>
<path class="st0" d="M77.4,73.8c0.1-1.1,0.1-2.3,0.1-3.4c0-1.1-0.1-2.2-0.3-3.3l-5.8-1l-2-5.5l3.8-4.4c-1.2-1.9-2.5-3.7-4.1-5.3
	l-5.2,2.6l-3.7-2.5V36.6H65v-6.2h-9.8v23c1.2,0.5,2.3,1,3.4,1.7l0,0l-0.1,0c8.9,5.6,11.6,17.4,5.9,26.4c-5.6,8.9-17.4,11.6-26.4,5.9
	c-8.9-5.6-11.6-17.4-5.9-26.4c1.5-2.4,3.5-4.4,5.9-5.9h0c0.9-0.6,1.9-1.1,3-1.5V30.4h-9.4v6.2h4v14.8l-0.1,0.1l-3.9,2.9l-5.4-2.3
	c-1.5,1.7-2.8,3.6-3.8,5.6l4.1,4.2L25,67.4l-5.7,1.3c-0.1,1.2-0.1,2.3-0.1,3.5c0,1.1,0.1,2.2,0.3,3.2l5.8,1l1.9,5.5l-3.9,4.4
	c1.2,1.9,2.5,3.7,4.1,5.4l5.2-2.6l4.8,3.3l-0.5,5.8c2.1,0.9,4.2,1.5,6.5,1.9l2.7-5.2l5.8-0.2l3,5c2.2-0.5,4.3-1.3,6.4-2.3l-0.9-5.8
	l4.6-3.5l5.4,2.3c1.5-1.7,2.8-3.6,3.8-5.6L70,80.7l1.6-5.6L77.4,73.8z"/>
<path class="st1" d="M56.4,73.9c-3.2-0.3-6.1-1.5-9-2.7c-3.8-1.5-8-1.9-12-1.1c-1.2,0.2-2.5,0.5-3.7,0.9c0,0.1,0,0.2,0,0.3
	c0,9.2,7.4,16.7,16.6,16.7c8.4,0,15.5-6.3,16.6-14.7C62.1,74,59.3,74.2,56.4,73.9z"/>
<circle class="st1" cx="55" cy="64.9" r="3.1"/>
<circle class="st1" cx="45" cy="60.9" r="1.1"/>
<circle class="st1" cx="49.3" cy="50.5" r="1.6"/>
<circle class="st1" cx="47.2" cy="29" r="2.6"/>
<circle class="st1" cx="58.5" cy="20.6" r="4.2"/>
<circle class="st1" cx="45.6" cy="7.8" r="6"/>
</svg>
