<svg xmlns="http://www.w3.org/2000/svg" xmlns:xlink="http://www.w3.org/1999/xlink" viewBox="0 0 245.89 350.07">
	<defs>
		<style>
			.axe-1,.axe-11,.axe-6{isolation:isolate;}
			.axe-2{fill:#d7d7d7;}
			.axe-3{fill:#2a3e51;}
			.axe-4{fill:url(#_4);}
			.axe-5{fill:#e1e1e1;}
			.axe-11,.axe-6{fill:#fff;}
			.axe-6{opacity:0.27;}
			.axe-7{fill:#999696;}
			.axe-8{fill:#f3f1f1;}
			.axe-9{fill:#bbbaba;}
			.axe-10{fill:#2d353a;}
			.axe-11{opacity:0.39;}
			.axe-12{fill:#13181d;}
			.axe-13{fill:#c62026;}
			.axe-14{fill:url(#_4-2);}
			.axe-15{fill:url(#_4-3);}
			.axe-16{fill:url(#_2);}
			.axe-17,.axe-23{mix-blend-mode:screen;}
			.axe-17{fill:url(#_40);}
			.axe-18{fill:#d3d3d3;}
			.axe-19{fill:url(#_4-4);}
			.axe-20{fill:url(#_3);}
			.axe-21{fill:#99999a;}
			.axe-22{fill:#477087;}
			.axe-23{fill:url(#_40-2);}
		</style>
		<linearGradient id="_4" x1="75.66" y1="218.12" x2="65.28" y2="238.44" gradientUnits="userSpaceOnUse">
			<stop offset="0.04" stop-color="#fff" />
			<stop offset="0.3" stop-color="#fbfbfb" />
			<stop offset="0.55" stop-color="#efefef" />
			<stop offset="0.7" stop-color="#e5e5e4" />
			<stop offset="0.8" stop-color="#dfdfde" />
			<stop offset="1" stop-color="#d7d7d7" />
		</linearGradient>
		<linearGradient id="_4-2" x1="42.24" y1="222.54" x2="33.65" y2="237.93" xlink:href="#_4" />
		<linearGradient id="_4-3" x1="55.29" y1="224.98" x2="50.36" y2="240.2" xlink:href="#_4" />
		<linearGradient id="_2" x1="79.02" y1="129.76" x2="73.41" y2="162.16" gradientUnits="userSpaceOnUse">
			<stop offset="0" stop-color="#f2f2f2" />
			<stop offset="0.42" stop-color="#b5c5c5" />
			<stop offset="0.84" stop-color="#759595" />
		</linearGradient>
		<linearGradient id="_40" x1="74.09" y1="134.03" x2="81.24" y2="149.72" gradientUnits="userSpaceOnUse">
			<stop offset="0.17" stop-color="#bdb48e" />
			<stop offset="0.26" stop-color="#b3ab87" />
			<stop offset="0.41" stop-color="#999273" />
			<stop offset="0.6" stop-color="#6e6953" />
			<stop offset="0.82" stop-color="#333126" />
			<stop offset="1" />
		</linearGradient>
		<linearGradient id="_4-4" x1="60.83" y1="191.72" x2="58.55" y2="230.81" xlink:href="#_4" />
		<linearGradient id="_3" x1="64.93" y1="207.49" x2="52.14" y2="136.51" gradientUnits="userSpaceOnUse">
			<stop offset="0" stop-color="#fff" />
			<stop offset="0.84" stop-color="#e8e7e7" />
		</linearGradient>
		<linearGradient id="_40-2" x1="63.03" y1="140.2" x2="59.2" y2="228.46" xlink:href="#_40" />
	</defs>
	<title>
		Beginner
	</title>
	<g id="axe" class="axe-1">
		<path class="axe-2" d="M70.23,235a47.54,47.54,0,0,0,3.48-13.8,31.67,31.67,0,0,0-6.94.76c-.81,3.18-4.16,12.49-4.92,13.6A30.83,30.83,0,0,0,70.23,235Z" />
		<path class="axe-3" d="M66.1,214.2c2,2.32,4.79,7.39,5.29,9.87A25.49,25.49,0,0,1,69,234a27,27,0,0,1-6.28.43,7.91,7.91,0,0,1-1.39-2.38,36.08,36.08,0,0,0,1.81-6.53,40.35,40.35,0,0,0-3.17-8.9A27.11,27.11,0,0,1,66.1,214.2Z" />
		<path class="axe-4" d="M73.66,221.25h0A47.55,47.55,0,0,1,70.17,235a30.49,30.49,0,0,1-8.33.56s0,0,0,0c.36.69.59,1.17.95,1.85a27.44,27.44,0,0,0,8.14-.32,29.08,29.08,0,0,0,3.53-14.16C74.42,222.36,73.9,221.76,73.66,221.25Z" />
		<path class="axe-5" d="M133.47,218.41s-6.74,6.45-16,4.9-6.41-18.74-6.41-18.74c-3.53-1-7.85-.22-10.73.59s-7,2.26-9.53,5c0,0,11.22,13.35,4,19.4s-16.28,3.93-16.28,3.93,4.85,29.85,35.23,20.95C144.42,246.57,133.47,218.41,133.47,218.41ZM101.75,235.2a6.55,6.55,0,1,1,8,4.59A6.57,6.57,0,0,1,101.75,235.2Z" />
		<path class="axe-6" d="M110.6,209.59,87.43,250.2a21.85,21.85,0,0,0,11.38,5.5L107.75,240a6.55,6.55,0,1,1,5.8-10.15l3.75-6.58C111.41,222.21,110.52,214.76,110.6,209.59Zm10,14L102.1,256a35.37,35.37,0,0,0,10.21-1.23l20.38-35.73A20.65,20.65,0,0,1,120.63,223.55Z" />
		<path class="axe-7" d="M113.71,254.43c-30.39,8.89-35.23-21-35.23-21a13.28,13.28,0,0,0,1.92.28c.13.55.28,1.18.49,1.88,1.09,3.76,4.2,11.87,11.57,16,5.53,3.09,12.52,3.43,20.74,1l.08,0c8.32-2.1,14.14-6,17.33-11.44,4.23-7.29,2.8-15.84,1.83-19.63-.16-.5-.34-1.15-.52-1.9a14.7,14.7,0,0,0,1.51-1.21S144.42,246.57,113.71,254.43Z" />
		<path class="axe-8" d="M134.35,221.47c-8.25,4.32-28.8,12.63-25.4-17.28a9.38,9.38,0,0,1,2.06.39s-2.87,17.2,6.41,18.74,16-4.89,16-4.89A28.13,28.13,0,0,1,134.35,221.47Z" />
		<path class="axe-5" d="M115.11,219a5.2,5.2,0,0,0,3.65-6.4h0a5.19,5.19,0,0,0-6.4-3.65l-30.23,8.27,2.74,10.05Z" />
		<path class="axe-9" d="M115.09,219,84.86,227.3,84,224.07l30.23-8.26A5.25,5.25,0,0,0,118,211.1a5,5,0,0,1,.73,1.54A5.21,5.21,0,0,1,115.09,219Z" />
		<path class="axe-8" d="M112.53,209.67,82.3,217.94l-.19-.69L112.35,209a5.21,5.21,0,0,1,6.4,3.66c0,.12,0,.22.07.34A5.22,5.22,0,0,0,112.53,209.67Z" />
		<path class="axe-10" d="M43.5,238.59l41.84-11.42-2.74-10L40.78,228.55a5.21,5.21,0,0,0-3.66,6.4h0A5.16,5.16,0,0,0,43.5,238.59Z" />
		<path class="axe-11" d="M37.21,235.28c0-.12-.08-.22-.11-.34a5.19,5.19,0,0,1,3.65-6.4L82.57,217.1l.19.69L40.94,229.23A5.2,5.2,0,0,0,37.21,235.28Z" />
		<path class="axe-12" d="M85.33,227.2,43.51,238.63a5.24,5.24,0,0,1-6.59-5.29,5.23,5.23,0,0,0,5.73,2.14l41.82-11.43Z" />
		<path class="axe-13" d="M72.34,232.7h0a2,2,0,0,1-2.46-1.41l-2.77-10.13a2,2,0,0,1,1.4-2.47h0A2,2,0,0,1,71,220.1l2.77,10.13A2,2,0,0,1,72.34,232.7Z" />
		<path class="axe-8" d="M114,213.21l-27,7.38a1.11,1.11,0,0,1-1.34-.76h0a1.12,1.12,0,0,1,.77-1.34l27-7.38a1.11,1.11,0,0,1,1.34.76h0A1.12,1.12,0,0,1,114,213.21Z" />
		<path class="axe-7" d="M110.1,240.92a6.57,6.57,0,0,1-8-4.59,4,4,0,0,1-.13-.55,6.55,6.55,0,0,0,12.59-3.44c0,.16.12.34.17.54A6.51,6.51,0,0,1,110.1,240.92Z" />
		<path class="axe-3" d="M44.07,219.72a37.37,37.37,0,0,0-2.76,6.64c1.24,3.57,2.07,7.31,2.95,11A7.18,7.18,0,0,1,37.38,239c-2.17-4.33-4.64-13.81-4.64-13.81a20.74,20.74,0,0,1,3.6-6.44A21.22,21.22,0,0,1,44.07,219.72Z" />
		<path class="axe-2" d="M29.36,225.49a26.1,26.1,0,0,0,6.71,17,12.3,12.3,0,0,0,6.3-.39l.09-.14a99.71,99.71,0,0,1-5.16-16.22A31.05,31.05,0,0,1,29.36,225.49Z" />
		<path class="axe-14" d="M38.63,224a38,38,0,0,1-7.83,0c-.34.25-1.1,1.14-1.44,1.4v0a31.05,31.05,0,0,0,7.94.27A99.71,99.71,0,0,0,42.46,242l1-1.47A113.1,113.1,0,0,1,38.63,224Z" />
		<path class="axe-3" d="M57.1,218.48a37.78,37.78,0,0,0-1.19,7.09,110.78,110.78,0,0,1,5.36,10,7.16,7.16,0,0,1-6.33,3.13c-3.1-3.72-7.64-12.39-7.64-12.39a20.48,20.48,0,0,1,2-7.1A21.26,21.26,0,0,1,57.1,218.48Z" />
		<path class="axe-2" d="M44.08,227.42a26.08,26.08,0,0,0,10.39,15.07,12.29,12.29,0,0,0,6-1.81l.06-.15a100.11,100.11,0,0,1-8.69-14.64A31,31,0,0,1,44.08,227.42Z" />
		<path class="axe-15" d="M52.78,223.9a36.56,36.56,0,0,1-7.62,1.8c-.28.33-.82,1.37-1.09,1.7v0a31,31,0,0,0,7.8-1.53,100.11,100.11,0,0,0,8.69,14.64l.65-1.67A112.3,112.3,0,0,1,52.78,223.9Z" />
		<path class="axe-16" d="M80.94,159a3.72,3.72,0,0,0,2.82-1.53,8.47,8.47,0,0,0,1.34-3,23.83,23.83,0,0,0-2.49-17.87,15.6,15.6,0,0,0-10.78.37c-3.34,1.53-5.93,4.94-5.84,8.61C68.26,159,77.27,159.3,80.94,159Z" />
		<path class="axe-3" d="M67.33,142.75a5.32,5.32,0,0,1,4.4-1.68,9.57,9.57,0,0,1,7.52,4.43,15.67,15.67,0,0,1,2.09,9.14,3.9,3.9,0,0,1-.69,2.31c-1.88,2.31-5.75,1.13-7.76-.31a15.83,15.83,0,0,1-4.84-5.95C67,148.52,65.72,144.91,67.33,142.75Z" />
		<path class="axe-17" d="M84.24,145.06A19.89,19.89,0,0,0,82,137.52a14.33,14.33,0,0,0-8.18-.13,4.84,4.84,0,0,0-3.34,2.6,15.74,15.74,0,0,1,12,5.4A4.87,4.87,0,0,0,84.24,145.06Z" />
		<path class="axe-3" d="M62.51,172A78.82,78.82,0,0,1,78.22,152.3a7.24,7.24,0,0,0-1.3-4.92,6.8,6.8,0,0,0-4.09-2.72A57.94,57.94,0,0,0,59,160.16C58.65,164.27,60.47,168.37,62.51,172Z" />
		<path class="axe-2" d="M50.84,150.49c-7.72,1.07-15.38,3.67-22.76,6.2a200.74,200.74,0,0,0,1.26,62.13,75.43,75.43,0,0,0,30.74-.24c-4.32-22.32-8-45.43-9.08-68.05Z" />
		<path class="axe-18" d="M57.58,205.11C54.39,187,51.84,168.63,51,150.53l-.16,0c-7.72,1.07-15.38,3.67-22.76,6.2a198.89,198.89,0,0,0-1.77,22.48l7.13-1.09s.3,8.39,1,14,2.12,14.16,2.12,14.16a54.54,54.54,0,0,0,7.95.38c4.17-.13,13-1.47,13-1.47Z" />
		<path class="axe-19" d="M71.77,213.88C68.55,194.19,64,173,62.05,153.16c-3.3-.94-10-2.4-11-2.63,1,22.62,4.76,45.73,9.08,68.05l.26-.05S68.11,215.78,71.77,213.88Z" />
		<path class="axe-20" d="M51,150.53c.84,18.1,3.39,36.51,6.58,54.58a64.6,64.6,0,0,0,6.43-2c1.64-.64,4-1.74,5.47-2.47-2.82-15.75-5.94-32-7.43-47.5C58.75,152.22,52.05,150.76,51,150.53Z" />
		<path class="axe-18" d="M69.57,201.14c0-.26-.1-.52-.14-.77a46.75,46.75,0,0,1-11.9,4.43l.13.74h0A47.76,47.76,0,0,0,69.57,201.14Z" />
		<path class="axe-21" d="M57.52,204.81a70.08,70.08,0,0,1-20.59,1.08,204.78,204.78,0,0,1-3.15-27.83v-.4l-.39,0a43.34,43.34,0,0,0-7.06,1.17c0,.26,0,.52,0,.78A41.69,41.69,0,0,1,33,178.47a209.87,209.87,0,0,0,3.2,27.83l0,.28.28,0a67.76,67.76,0,0,0,6.92.35,70,70,0,0,0,14.17-1.42l-.13-.74Z" />
		<path class="axe-21" d="M49.31,193.11l-.24-1.49c-3.35.42-6.73.74-10.08.94.07.47.12.94.19,1.42A101.27,101.27,0,0,0,49.31,193.11Z" />
		<path class="axe-21" d="M48.46,187.44c-.07-.5-.14-1-.2-1.49-3.29.35-6.58.71-9.85,1.08l.12,1.42C41.84,188.16,45.16,187.82,48.46,187.44Z" />
		<path class="axe-21" d="M48.86,190.28c-.07-.5-.15-1-.22-1.51-3.31.39-6.65.74-10,1,.05.48.11,1,.16,1.43C42.16,191,45.52,190.7,48.86,190.28Z" />
		<path class="axe-21" d="M38.14,181.43c0,.49,0,1,0,1.46,3.17-.44,6.39-.81,9.61-1.12l-.15-1.52C44.47,180.52,41.29,180.92,38.14,181.43Z" />
		<path class="axe-21" d="M48.1,184.61c-.06-.5-.12-1-.17-1.5-3.25.32-6.5.69-9.7,1.13,0,.48.06,1,.09,1.44C41.57,185.31,44.84,185,48.1,184.61Z" />
		<path class="axe-21" d="M41.05,200.86H40.4c.14.67.27,1.35.42,2A96.63,96.63,0,0,0,51,202.12c-.15-.68-.28-1.36-.42-2.05A58.57,58.57,0,0,1,41.05,200.86Z" />
		<path class="axe-21" d="M47.54,178.91c0-.71-.11-1.42-.15-2.13-3.16.34-6.59.8-9.24,1.36,0,.65,0,1.29,0,1.93C41.25,179.57,44.4,179.18,47.54,178.91Z" />
		<path class="axe-21" d="M49.8,195.93c-.09-.49-.18-1-.26-1.49a101.43,101.43,0,0,1-10.15.88c.08.47.15.94.23,1.41A71,71,0,0,0,49.8,195.93Z" />
		<path class="axe-21" d="M50.33,198.75c-.1-.5-.19-1-.28-1.49a75.67,75.67,0,0,1-10.19.82c.09.47.17.94.26,1.41A58.27,58.27,0,0,0,50.33,198.75Z" />
		<path class="axe-22" d="M64.65,166a73.26,73.26,0,0,1,12.53-14.66,4.26,4.26,0,0,0-2.53-3.22,51.43,51.43,0,0,0-10.76,10.94S64.28,164,64.65,166Z" />
		<path class="axe-3" d="M71.13,148.93a17.17,17.17,0,0,1,1.6,2.74,12.68,12.68,0,0,1,.7,2,9.92,9.92,0,0,0-.23-2.18A9.36,9.36,0,0,0,72,148.37Z" />
		<path class="axe-3" d="M68.16,151.62a14.4,14.4,0,0,1,2,2.5,11.34,11.34,0,0,1,1,1.93,9.6,9.6,0,0,0-.5-2.14,9,9,0,0,0-1.7-3Z" />
		<path class="axe-3" d="M65,155a16.9,16.9,0,0,1,2.29,2.55,13,13,0,0,1,1.17,2,10.45,10.45,0,0,0-.73-2.24,10.16,10.16,0,0,0-2-3Z" />
		<path class="axe-23" d="M70.16,212.92a11.81,11.81,0,0,1-4.46,2c-3.81-16.81-6.78-34.33-9.44-52.38-1.27-.69-2.19-1.64-3.46-2.32q-.48-4.15-.56-8.33a32.23,32.23,0,0,1,8.55,1.93C63.7,173.61,66.42,193.62,70.16,212.92Z" />
		<path class="axe-21" d="M44.93,214.63a25.44,25.44,0,0,1-3.94-.3l-.16,0,0-.15a43.33,43.33,0,0,1-1.18-7.7l.5,0a43.36,43.36,0,0,0,1.12,7.45,29.46,29.46,0,0,0,8.36-.08,56.34,56.34,0,0,1-.42-7.3l.5,0A59.17,59.17,0,0,0,50.1,214l0,.24-.24,0A33.62,33.62,0,0,1,44.93,214.63Z" />
		<path class="axe-21" d="M30.3,178.29a35.2,35.2,0,0,1,.16-10l0-.2.18-.09A41.67,41.67,0,0,1,42,164.85a45.34,45.34,0,0,1,.22-12.57l.73.12a45.52,45.52,0,0,0-.16,12.74l0,.37-.37,0a40.81,40.81,0,0,0-11.33,3.07,34.16,34.16,0,0,0-.12,9.58Z" />
		<path class="axe-21" d="M47.25,159.67l-.14-3.81a38.57,38.57,0,0,0-7.91,1.94,15.82,15.82,0,0,0-.05,3.44C41.29,160.76,44.74,160.06,47.25,159.67Z" />
		<path class="axe-21" d="M47.6,208.7c0,1,0,2.06.11,3.07a24.48,24.48,0,0,1-5.61,0,13.41,13.41,0,0,1-.58-2.87A30.14,30.14,0,0,0,47.6,208.7Z" />
		<path class="axe-21" d="M28.32,212.59l-.05-.49,4.26-.41a128.59,128.59,0,0,1-2.3-20.86l-3.88.34-.05-.49,4.42-.4v.27a128.42,128.42,0,0,0,2.36,21.32l.05.27Z" />
	</g>
</svg>
