<svg xmlns="http://www.w3.org/2000/svg" xmlns:xlink="http://www.w3.org/1999/xlink" viewBox="0 0 245.89 350.07">
	<defs>
		<style>
			.drill-1{isolation:isolate;}
			.drill-2{fill:#2a3e51;}
			.drill-3{fill:#477087;}
			.drill-4{fill:url(#drill-gradient);}
			.drill-5{fill:#99999a;}
			.drill-6{fill:url(#_4);}
			.drill-7{fill:url(#_4-2);}
			.drill-8{fill:url(#_4-3);}
			.drill-9{fill:url(#_4-4);}
			.drill-10{fill:url(#_2);}
			.drill-11,.drill-16{mix-blend-mode:screen;}
			.drill-11{fill:url(#_40);}
			.drill-12{fill:#d7d7d7;}
			.drill-13{fill:#d3d3d3;}
			.drill-14{fill:url(#_4-5);}
			.drill-15{fill:url(#_3);}
			.drill-16{fill:url(#_40-2);}
			.drill-17{fill:#c62026;}
		</style>
		<linearGradient id="drill-gradient" x1="-92.33" y1="1165.17" x2="-130.3" y2="1229.77" gradientTransform="translate(-531.01 -770.59) rotate(-37.17)" gradientUnits="userSpaceOnUse">
			<stop offset="0.16" stop-color="#fff" />
			<stop offset="0.35" stop-color="#fbfbfb" />
			<stop offset="0.54" stop-color="#f0f0ef" />
			<stop offset="0.63" stop-color="#e7e7e6" />
			<stop offset="0.74" stop-color="#d4d4d4" />
			<stop offset="0.98" stop-color="#a2a4a5" />
			<stop offset="1" stop-color="#9d9fa0" />
		</linearGradient>
		<linearGradient id="_4" x1="-125.56" y1="1192.53" x2="-63.63" y2="1192.53" gradientTransform="translate(-531.01 -770.59) rotate(-37.17)" gradientUnits="userSpaceOnUse">
			<stop offset="0.04" stop-color="#fff" />
			<stop offset="0.3" stop-color="#fbfbfb" />
			<stop offset="0.55" stop-color="#efefef" />
			<stop offset="0.7" stop-color="#e5e5e4" />
			<stop offset="0.8" stop-color="#dfdfde" />
			<stop offset="1" stop-color="#d7d7d7" />
		</linearGradient>
		<linearGradient id="_4-2" x1="-120.62" y1="1205.24" x2="-73.34" y2="1205.24" xlink:href="#_4" />
		<linearGradient id="_4-3" x1="-116.53" y1="1214.89" x2="-80.8" y2="1214.89" xlink:href="#_4" />
		<linearGradient id="_4-4" x1="-112.6" y1="1224.66" x2="-88.27" y2="1224.66" xlink:href="#_4" />
		<linearGradient id="_2" x1="-115.28" y1="966.97" x2="-120.89" y2="999.36" gradientTransform="translate(-317.97 -759.94) rotate(-30.4)" gradientUnits="userSpaceOnUse">
			<stop offset="0" stop-color="#f2f2f2" />
			<stop offset="0.42" stop-color="#b5c5c5" />
			<stop offset="0.84" stop-color="#759595" />
		</linearGradient>
		<linearGradient id="_40" x1="-120.21" y1="971.24" x2="-113.07" y2="986.92" gradientTransform="translate(-317.97 -759.94) rotate(-30.4)" gradientUnits="userSpaceOnUse">
			<stop offset="0.17" stop-color="#bdb48e" />
			<stop offset="0.26" stop-color="#b3ab87" />
			<stop offset="0.41" stop-color="#999273" />
			<stop offset="0.6" stop-color="#6e6953" />
			<stop offset="0.82" stop-color="#333126" />
			<stop offset="1" />
		</linearGradient>
		<linearGradient id="_4-5" x1="-133.48" y1="1028.93" x2="-135.76" y2="1068.01" gradientTransform="translate(-317.97 -759.94) rotate(-30.4)" xlink:href="#_4" />
		<linearGradient id="_3" x1="-129.38" y1="1044.69" x2="-142.17" y2="973.71" gradientTransform="translate(-317.97 -759.94) rotate(-30.4)" gradientUnits="userSpaceOnUse">
			<stop offset="0" stop-color="#fff" />
			<stop offset="0.84" stop-color="#e8e7e7" />
		</linearGradient>
		<linearGradient id="_40-2" x1="-131.28" y1="977.41" x2="-135.11" y2="1065.67" xlink:href="#_40" />
	</defs>
	<title>
		Beginner
	</title>
	<g id="drill" class="drill-1">
		<path class="drill-2" d="M105.87,224.65A66.58,66.58,0,0,1,97.78,233a45.74,45.74,0,0,1-8.31,5.86c1-5.69.16-10-2.38-12.66,3.48-3.27,6.63-6.17,10.2-9C101.87,217.81,105.13,220.49,105.87,224.65Z" />
		<path class="drill-3" d="M103.35,223.89a58.58,58.58,0,0,1-6.95,8.45c-.18-4.19-1.57-7.35-4.14-9.42a66,66,0,0,1,5-4.42A6.83,6.83,0,0,1,103.35,223.89Z" />
		<path class="drill-2" d="M91.39,225.86c.82-.73,2.27-2.1,3.46-3.29S97,220.39,97,220.39l-2.31,2.06c-1.26,1.11-2.71,2.35-3.49,3.05Z" />
		<path class="drill-2" d="M92.59,227.36A48.91,48.91,0,0,0,96.37,224c1.28-1.24,2.19-2.26,2.19-2.26s-1.06,1-2.33,2.11-2.68,2.2-3.44,2.78Z" />
		<path class="drill-2" d="M93.15,229.65c1.14-.93,3.21-2.77,4.88-4.38s3-3,3-3-1.42,1.33-3.12,2.81-3.65,3.1-4.72,4Z" />
		<path class="drill-2" d="M94,231.67c1.21-1.06,3.36-3.1,5-4.84s2.94-3.16,2.94-3.16-1.42,1.45-3.18,3.11-3.83,3.49-5,4.48Z" />
		<polygon class="drill-4" points="138.43 284.5 130.15 210.02 73.07 254.59 138.43 284.5" />
		<path class="drill-5" d="M73.07,254.59s-2.38-1.69,5.64-9.8,22.44-20.14,41.93-31.79c0,0,8.5-4.79,9.51-3S115,226.46,101.71,236.55,76.36,255,73.07,254.59Z" />
		<path class="drill-6" d="M134.69,212.66l-1.09-1.43s.32,10.24-18.27,32.06c0,0-2,1.49-21.45,18,0,0,15-4.83,32.66-31C126.54,230.29,133.05,220,134.69,212.66Z" />
		<path class="drill-5" d="M133.69,212.08s-2.31,16.1-23.92,37.82c0,0-14.64,14.41-24.08,14.58,0,0-2.06-1-.52-4.57l3.31,1S106,256.08,124.08,228c0,0,7-9.9,6.47-14.48l3-2.31Z" />
		<path class="drill-7" d="M135.61,229.94l-.83-1.09s.24,7.82-14,24.48c0,0-1.53,1.14-16.38,13.77,0,0,11.46-3.68,24.93-23.69C129.38,243.41,134.36,235.52,135.61,229.94Z" />
		<path class="drill-5" d="M134.85,229.5s-1.77,12.3-18.27,28.88c0,0-11.18,11-18.38,11.13,0,0-1.57-.78-.4-3.49l2.53.75s13.37-3.68,27.17-25.1c0,0,5.34-7.56,4.95-11l2.33-1.77Z" />
		<path class="drill-8" d="M136.26,243.16l-.62-.83s.18,5.91-10.55,18.5c0,0-1.15.86-12.37,10.41,0,0,8.66-2.79,18.84-17.91C131.56,253.33,135.32,247.37,136.26,243.16Z" />
		<path class="drill-5" d="M135.69,242.82s-1.34,9.29-13.81,21.82c0,0-8.44,8.32-13.89,8.42,0,0-1.18-.59-.3-2.64l1.92.56s10.09-2.77,20.53-19c0,0,4-5.71,3.74-8.35l1.76-1.34Z" />
		<path class="drill-9" d="M137,256.45l-.42-.56s.12,4-7.18,12.6c0,0-.78.59-8.43,7.09,0,0,5.9-1.9,12.83-12.2A28.66,28.66,0,0,0,137,256.45Z" />
		<path class="drill-5" d="M136.58,256.23s-.91,6.32-9.4,14.86c0,0-5.75,5.66-9.46,5.72,0,0-.8-.39-.2-1.79l1.3.38s6.88-1.89,14-12.91c0,0,2.75-3.89,2.55-5.69l1.2-.91Z" />
		<path class="drill-2" d="M113.76,217.76S116,220,101,231.51s-17.76,9.93-17.76,9.93-.42-1.28,1.7-3.33S109,219.86,109,219.86,112.39,217.41,113.76,217.76Z" />
		<path class="drill-10" d="M88.3,156.72A3.72,3.72,0,0,0,90,154a8.51,8.51,0,0,0-.37-3.28A23.8,23.8,0,0,0,78.4,136.54a15.58,15.58,0,0,0-9.11,5.77c-2.1,3-2.62,7.27-.68,10.39C77.37,163.14,85.27,158.81,88.3,156.72Z" />
		<path class="drill-2" d="M68.32,149.57a5.35,5.35,0,0,1,3-3.67,9.54,9.54,0,0,1,8.72,0,15.71,15.71,0,0,1,6.44,6.83,3.82,3.82,0,0,1,.56,2.34c-.44,2.94-4.38,3.88-6.84,3.66A15.86,15.86,0,0,1,73,156.05C71,154.72,68,152.25,68.32,149.57Z" />
		<path class="drill-11" d="M84.08,143a19.82,19.82,0,0,0-5.76-5.37,14.3,14.3,0,0,0-7.12,4,4.81,4.81,0,0,0-1.56,3.93,15.7,15.7,0,0,1,13.08-1.42C83.19,143.78,83.79,143.55,84.08,143Z" />
		<path class="drill-2" d="M79,177.19a78.66,78.66,0,0,1,3.6-24.9,7.31,7.31,0,0,0-3.61-3.58,6.8,6.8,0,0,0-4.9-.28,57.82,57.82,0,0,0-4.1,20.38C71.73,172.52,75.37,175.13,79,177.19Z" />
		<path class="drill-12" d="M58,164.59c-6.12,4.83-11.41,10.95-16.5,16.87A201.27,201.27,0,0,0,74,234.41a75.45,75.45,0,0,0,26.4-15.77c-15-17.06-29.91-35.11-42.27-54.1Z" />
		<path class="drill-13" d="M91.47,208.29a431.36,431.36,0,0,1-33.3-43.75l-.15.05c-6.12,4.83-11.41,10.95-16.5,16.87a200.61,200.61,0,0,0,9.85,20.28L57,197.2s4.51,7.07,8,11.51,9,11.14,9,11.14a54.35,54.35,0,0,0,7-3.7c3.53-2.21,10.51-7.86,10.51-7.86Z" />
		<path class="drill-14" d="M108.14,208.68c-12.73-15.36-27.41-31.3-39.1-47.47-3.32.86-9.84,3-10.87,3.33,12.36,19,27.25,37,42.27,54.1l.19-.17A123.2,123.2,0,0,0,108.14,208.68Z" />
		<path class="drill-15" d="M58.17,164.54a431.36,431.36,0,0,0,33.3,43.75,66.19,66.19,0,0,0,4.55-5c1.08-1.38,2.54-3.51,3.46-4.9C89.08,186.28,78.15,173.81,69,161.21,65.72,162.07,59.2,164.21,58.17,164.54Z" />
		<path class="drill-13" d="M99.8,198.8l-.51-.6a47.05,47.05,0,0,1-8,9.85l.49.57h0A47.62,47.62,0,0,0,99.8,198.8Z" />
		<path class="drill-5" d="M91.26,208.06a69.78,69.78,0,0,1-17.21,11.35A204.44,204.44,0,0,1,57.25,197l-.21-.34-.32.23a41.49,41.49,0,0,0-5.5,4.58c.13.23.25.46.38.68a41.59,41.59,0,0,1,5.23-4.42,207.77,207.77,0,0,0,16.83,22.38l.19.22.25-.12A66.79,66.79,0,0,0,80.25,217a70.74,70.74,0,0,0,11.51-8.4l-.49-.57Z" />
		<path class="drill-5" d="M78.26,202.13l-1-1.17c-2.68,2.06-5.43,4-8.22,5.91L70,208A99.22,99.22,0,0,0,78.26,202.13Z" />
		<path class="drill-5" d="M74.66,197.66l-.93-1.18-8,5.91.83,1.17C69.32,201.64,72,199.66,74.66,197.66Z" />
		<path class="drill-5" d="M76.44,199.91c-.32-.39-.63-.79-1-1.19-2.66,2-5.37,4-8.09,5.93l.86,1.15C71,203.94,73.78,202,76.44,199.91Z" />
		<path class="drill-5" d="M62.72,197.7c.25.42.52.83.78,1.24,2.51-2,5.1-3.94,7.72-5.83l-.9-1.24Q66.42,194.65,62.72,197.7Z" />
		<path class="drill-5" d="M72.92,195.4,72,194.2c-2.64,1.91-5.25,3.88-7.79,5.88.26.4.54.8.8,1.2Q69,198.33,72.92,195.4Z" />
		<path class="drill-5" d="M75.06,213l-.57.32c.47.52.93,1,1.4,1.54A94.87,94.87,0,0,0,84.28,209l-1.39-1.56A58.38,58.38,0,0,1,75.06,213Z" />
		<path class="drill-5" d="M69.55,190.77,68.34,189c-2.55,1.89-5.28,4-7.28,5.85.32.57.65,1.11,1,1.67C64.46,194.52,67,192.59,69.55,190.77Z" />
		<path class="drill-5" d="M80.11,204.31l-1-1.15A98.13,98.13,0,0,1,70.82,209c.31.37.61.75.91,1.12A73.49,73.49,0,0,0,80.11,204.31Z" />
		<path class="drill-5" d="M82,206.47l-1-1.14a75.27,75.27,0,0,1-8.37,5.86c.31.36.62.73.94,1.09A57.81,57.81,0,0,0,82,206.47Z" />
		<path class="drill-3" d="M77.79,171a73.27,73.27,0,0,1,3.39-19,4.31,4.31,0,0,0-3.82-1.5,51.87,51.87,0,0,0-3.74,14.89S76.43,169.42,77.79,171Z" />
		<path class="drill-2" d="M74.73,153a16.32,16.32,0,0,1,2.76,1.55,11.66,11.66,0,0,1,1.63,1.4,10.24,10.24,0,0,0-1.29-1.77,9,9,0,0,0-2.67-2.08Z" />
		<path class="drill-2" d="M73.53,156.8a15.49,15.49,0,0,1,3,1.15,11.1,11.1,0,0,1,1.8,1.19,9.38,9.38,0,0,0-1.52-1.6,9.07,9.07,0,0,0-3-1.7Z" />
		<path class="drill-2" d="M72.49,161.27a17.08,17.08,0,0,1,3.27,1,13.45,13.45,0,0,1,2,1.13A11.2,11.2,0,0,0,76,161.88a10.16,10.16,0,0,0-3.29-1.58Z" />
		<path class="drill-16" d="M106.27,208.66a11.73,11.73,0,0,1-2.84,4c-11.8-12.57-23.22-26.18-34.65-40.41-1.44.05-2.72-.3-4.16-.25-1.68-2.22-3.25-4.53-4.7-6.9a32.22,32.22,0,0,1,8.36-2.66C80.81,178,93.28,193.9,106.27,208.66Z" />
		<path class="drill-5" d="M85.37,222.9a24.9,24.9,0,0,1-3.55,1.74l-.15.06-.12-.12a42.52,42.52,0,0,1-4.92-6l.41-.28a43.16,43.16,0,0,0,4.75,5.85A29.14,29.14,0,0,0,89,219.82a57,57,0,0,1-4-6.09l.44-.22a61.77,61.77,0,0,0,4.15,6.2l.15.19-.19.16A33.52,33.52,0,0,1,85.37,222.9Z" />
		<path class="drill-5" d="M54.37,199a35.09,35.09,0,0,1-4.92-8.7l-.07-.19.12-.16a41.16,41.16,0,0,1,8.2-8.48,45.66,45.66,0,0,1-6.18-11l.7-.26a45.45,45.45,0,0,0,6.3,11.07l.22.3-.3.22a40.8,40.8,0,0,0-8.22,8.38A34.63,34.63,0,0,0,55,198.5Z" />
		<path class="drill-5" d="M59.57,174.33l-2-3.22a39.14,39.14,0,0,0-5.84,5.67,15.44,15.44,0,0,0,1.69,3C55,178.28,57.6,175.93,59.57,174.33Z" />
		<path class="drill-17" d="M59.07,174.29l-1.53-2.4a28.53,28.53,0,0,0-4.35,4.23,11.41,11.41,0,0,0,1.26,2.23C55.64,177.24,57.6,175.48,59.07,174.29Z" />
		<path class="drill-5" d="M84.68,216.44c.5.88,1.06,1.77,1.64,2.59a24.16,24.16,0,0,1-4.82,2.87,13.45,13.45,0,0,1-2-2.18A30.59,30.59,0,0,0,84.68,216.44Z" />
		<path class="drill-17" d="M83.77,220c-.66.39-1.36.76-2.07,1.09a11.48,11.48,0,0,1-1.29-1.41c.39-.22.78-.43,1.16-.66a29.27,29.27,0,0,0,3.07-2.05c.37.63.74,1.21,1.1,1.74A23.07,23.07,0,0,1,83.77,220Z" />
		<path class="drill-5" d="M70,229.55l-.3-.4,3.47-2.51a129.08,129.08,0,0,1-12.54-16.83l-3.17,2.26-.29-.4,3.61-2.58.13.23a129,129,0,0,0,12.82,17.2l.18.2Z" />
	</g>
</svg>
