<svg xmlns="http://www.w3.org/2000/svg" xmlns:xlink="http://www.w3.org/1999/xlink" viewBox="0 0 245.89 350.07">
	<defs>
		<style>
			.right-hand-1{isolation:isolate;}
			.right-hand-2{fill:url(#_2);}
			.right-hand-3{fill:#2a3e51;}
			.right-hand-14,.right-hand-4{mix-blend-mode:screen;}
			.right-hand-4{fill:url(#_40);}
			.right-hand-5{fill:url(#_4);}
			.right-hand-6{fill:#d7d7d7;}
			.right-hand-7{fill:url(#_4-2);}
			.right-hand-8{fill:url(#_4-3);}
			.right-hand-9{fill:#d3d3d3;}
			.right-hand-10{fill:url(#_4-4);}
			.right-hand-11{fill:url(#_3);}
			.right-hand-12{fill:#99999a;}
			.right-hand-13{fill:#477087;}
			.right-hand-14{fill:url(#_40-2);}
			.right-hand-15{fill:#c62026;}
		</style>
		<linearGradient id="_2" x1="79.16" y1="130.22" x2="73.57" y2="162.53" gradientUnits="userSpaceOnUse">
			<stop offset="0" stop-color="#f2f2f2" />
			<stop offset="0.42" stop-color="#b5c5c5" />
			<stop offset="0.84" stop-color="#759595" />
		</linearGradient>
		<linearGradient id="_40" x1="74.25" y1="134.48" x2="81.37" y2="150.12" gradientUnits="userSpaceOnUse">
			<stop offset="0.17" stop-color="#bdb48e" />
			<stop offset="0.26" stop-color="#b3ab87" />
			<stop offset="0.41" stop-color="#999273" />
			<stop offset="0.6" stop-color="#6e6953" />
			<stop offset="0.82" stop-color="#333126" />
			<stop offset="1" />
		</linearGradient>
		<linearGradient id="_4" x1="77.69" y1="219.02" x2="67.34" y2="239.28" gradientUnits="userSpaceOnUse">
			<stop offset="0.04" stop-color="#fff" />
			<stop offset="0.3" stop-color="#fbfbfb" />
			<stop offset="0.55" stop-color="#efefef" />
			<stop offset="0.7" stop-color="#e5e5e4" />
			<stop offset="0.8" stop-color="#dfdfde" />
			<stop offset="1" stop-color="#d7d7d7" />
		</linearGradient>
		<linearGradient id="_4-2" x1="42.19" y1="222.57" x2="33.63" y2="237.91" xlink:href="#_4" />
		<linearGradient id="_4-3" x1="55.2" y1="225" x2="50.28" y2="240.17" xlink:href="#_4" />
		<linearGradient id="_4-4" x1="61.02" y1="192.01" x2="58.75" y2="230.98" xlink:href="#_4" />
		<linearGradient id="_3" x1="65.11" y1="207.73" x2="52.35" y2="136.95" gradientUnits="userSpaceOnUse">
			<stop offset="0" stop-color="#fff" />
			<stop offset="0.84" stop-color="#e8e7e7" />
		</linearGradient>
		<linearGradient id="_40-2" x1="63.21" y1="140.63" x2="59.4" y2="228.64" xlink:href="#_40" />
	</defs>
	<g id="right-hand" class="right-hand-1">
		<path class="right-hand-2" d="M81.08,159.41a3.68,3.68,0,0,0,2.8-1.53,8.35,8.35,0,0,0,1.34-3,23.74,23.74,0,0,0-2.48-17.82,15.52,15.52,0,0,0-10.75.37c-3.33,1.53-5.92,4.92-5.83,8.59C68.43,159.41,77.41,159.67,81.08,159.41Z" />
		<path class="right-hand-3" d="M67.5,143.17a5.31,5.31,0,0,1,4.39-1.67,9.52,9.52,0,0,1,7.49,4.41A15.61,15.61,0,0,1,81.47,155a3.8,3.8,0,0,1-.69,2.3c-1.87,2.31-5.73,1.13-7.73-.3a15.85,15.85,0,0,1-4.83-5.94C67.16,148.93,65.89,145.33,67.5,143.17Z" />
		<path class="right-hand-4" d="M84.37,145.48A20,20,0,0,0,82.12,138a14.34,14.34,0,0,0-8.16-.12,4.78,4.78,0,0,0-3.32,2.6,15.65,15.65,0,0,1,12,5.37A4.92,4.92,0,0,0,84.37,145.48Z" />
		<path class="right-hand-5" d="M75.69,222.14h0a47.29,47.29,0,0,1-3.45,13.67,30.67,30.67,0,0,1-8.3.56l0,0c.36.68.59,1.16.94,1.84a27,27,0,0,0,8.12-.32,28.92,28.92,0,0,0,3.52-14.12C76.46,223.25,75.94,222.66,75.69,222.14Z" />
		<path class="right-hand-6" d="M72.21,235.82a47.29,47.29,0,0,0,3.45-13.67,31.73,31.73,0,0,0-6.88.75c-.8,3.15-4.12,12.37-4.87,13.48A30.67,30.67,0,0,0,72.21,235.82Z" />
		<path class="right-hand-3" d="M44,219.76a37.3,37.3,0,0,0-2.76,6.62c1.24,3.55,2.07,7.29,3,11a7.17,7.17,0,0,1-6.86,1.61c-2.17-4.31-4.63-13.77-4.63-13.77a20.42,20.42,0,0,1,3.59-6.42A20.93,20.93,0,0,1,44,219.76Z" />
		<path class="right-hand-6" d="M29.35,225.5a26,26,0,0,0,6.69,17,12.23,12.23,0,0,0,6.28-.39l.09-.13a99.91,99.91,0,0,1-5.14-16.18A30.89,30.89,0,0,1,29.35,225.5Z" />
		<path class="right-hand-7" d="M38.59,224.05a37.66,37.66,0,0,1-7.8,0c-.34.25-1.11,1.14-1.44,1.4v0a30.89,30.89,0,0,0,7.92.28A99.91,99.91,0,0,0,42.41,242l1-1.48A112.07,112.07,0,0,1,38.59,224.05Z" />
		<path class="right-hand-3" d="M57,218.52a36.77,36.77,0,0,0-1.18,7.07c2,3.18,3.66,6.63,5.34,10a7.13,7.13,0,0,1-6.31,3.12c-3.09-3.71-7.63-12.36-7.63-12.36a20.4,20.4,0,0,1,2.05-7.07A20.89,20.89,0,0,1,57,218.52Z" />
		<path class="right-hand-6" d="M44,227.44a26.08,26.08,0,0,0,10.36,15,12.21,12.21,0,0,0,6-1.8l.06-.16a99.39,99.39,0,0,1-8.67-14.59A31.65,31.65,0,0,1,44,227.44Z" />
		<path class="right-hand-8" d="M52.7,223.93a37,37,0,0,1-7.6,1.79c-.27.33-.81,1.37-1.09,1.69v0a31.65,31.65,0,0,0,7.78-1.53,99.39,99.39,0,0,0,8.67,14.59l.65-1.66A111.61,111.61,0,0,1,52.7,223.93Z" />
		<path class="right-hand-3" d="M68.11,215.19c1.94,2.29,4.75,7.32,5.25,9.77A25.38,25.38,0,0,1,71,234.83a27,27,0,0,1-6.23.43,8.33,8.33,0,0,1-1.37-2.36,35.7,35.7,0,0,0,1.79-6.47,39.3,39.3,0,0,0-3.14-8.82A26.75,26.75,0,0,1,68.11,215.19Z" />
		<path class="right-hand-3" d="M62.7,172.29a78.34,78.34,0,0,1,15.66-19.6,7.26,7.26,0,0,0-1.29-4.9A6.8,6.8,0,0,0,73,145.08a57.46,57.46,0,0,0-13.8,15.46C58.85,164.63,60.66,168.72,62.7,172.29Z" />
		<path class="right-hand-6" d="M51.06,150.9c-7.7,1.06-15.34,3.65-22.7,6.18A200.51,200.51,0,0,0,29.61,219a75.39,75.39,0,0,0,30.66-.24c-4.3-22.26-8-45.3-9.05-67.86Z" />
		<path class="right-hand-9" d="M57.78,205.36c-3.19-18-5.73-36.38-6.56-54.43l-.16,0c-7.7,1.06-15.34,3.65-22.7,6.18a200.19,200.19,0,0,0-1.77,22.41l7.11-1.08s.31,8.36,1,13.91,2.12,14.12,2.12,14.12a54.14,54.14,0,0,0,7.93.38c4.15-.12,13-1.46,13-1.46Z" />
		<path class="right-hand-10" d="M71.93,214.11c-3.21-19.64-7.79-40.76-9.69-60.56-3.29-.94-10-2.39-11-2.62,1,22.56,4.75,45.6,9.05,67.86l.26,0S68.28,216,71.93,214.11Z" />
		<path class="right-hand-11" d="M51.22,150.93c.83,18,3.37,36.41,6.56,54.43a66.68,66.68,0,0,0,6.41-2c1.64-.64,4-1.74,5.46-2.47-2.82-15.7-5.93-31.94-7.41-47.37C59,152.61,52.26,151.16,51.22,150.93Z" />
		<path class="right-hand-9" d="M69.73,201.4c0-.26-.09-.52-.14-.77a46.84,46.84,0,0,1-11.86,4.42l.13.74h0A47.32,47.32,0,0,0,69.73,201.4Z" />
		<path class="right-hand-12" d="M57.71,205.06a69.59,69.59,0,0,1-20.52,1.08A205.43,205.43,0,0,1,34,178.38V178l-.39,0a41.06,41.06,0,0,0-7,1.17c0,.26,0,.51,0,.77a40.49,40.49,0,0,1,6.73-1.16,208.51,208.51,0,0,0,3.19,27.74l0,.28.28,0a64.45,64.45,0,0,0,6.89.35,70.42,70.42,0,0,0,14.14-1.41l-.13-.74Z" />
		<path class="right-hand-12" d="M49.53,193.39l-.24-1.49c-3.34.43-6.71.74-10,.94.07.47.12.94.19,1.42A97.82,97.82,0,0,0,49.53,193.39Z" />
		<path class="right-hand-12" d="M48.68,187.74c-.07-.5-.13-1-.2-1.49-3.27.35-6.55.71-9.82,1.08l.12,1.42C42.08,188.46,45.39,188.12,48.68,187.74Z" />
		<path class="right-hand-12" d="M49.08,190.57c-.07-.5-.15-1-.22-1.5-3.3.38-6.63.73-10,1,.05.48.11.95.16,1.43C42.4,191.31,45.75,191,49.08,190.57Z" />
		<path class="right-hand-12" d="M38.39,181.75c0,.48,0,1,0,1.45,3.17-.44,6.37-.81,9.58-1.12-.05-.5-.1-1-.14-1.51C44.71,180.84,41.53,181.24,38.39,181.75Z" />
		<path class="right-hand-12" d="M48.33,184.92l-.18-1.5c-3.24.32-6.47.69-9.67,1.13l.09,1.43C41.81,185.62,45.07,185.26,48.33,184.92Z" />
		<path class="right-hand-12" d="M41.3,201.13h-.66c.14.67.28,1.35.43,2a95.86,95.86,0,0,0,10.15-.76c-.14-.68-.28-1.36-.41-2A59.43,59.43,0,0,1,41.3,201.13Z" />
		<path class="right-hand-12" d="M47.77,179.23c-.06-.71-.11-1.42-.16-2.13-3.15.34-6.56.8-9.21,1.37,0,.64,0,1.28,0,1.92C41.5,179.89,44.64,179.5,47.77,179.23Z" />
		<path class="right-hand-12" d="M50,196.21c-.09-.5-.18-1-.26-1.49a98,98,0,0,1-10.12.87c.08.47.14.95.22,1.42A73.61,73.61,0,0,0,50,196.21Z" />
		<path class="right-hand-12" d="M50.54,199l-.27-1.48a75.36,75.36,0,0,1-10.16.82c.08.47.17.94.26,1.41A57.76,57.76,0,0,0,50.54,199Z" />
		<path class="right-hand-13" d="M64.83,166.38a73.11,73.11,0,0,1,12.49-14.62,4.26,4.26,0,0,0-2.52-3.22,51.91,51.91,0,0,0-10.73,10.92S64.46,164.33,64.83,166.38Z" />
		<path class="right-hand-3" d="M71.29,149.34a15.94,15.94,0,0,1,1.59,2.73,11.65,11.65,0,0,1,.7,2,10.18,10.18,0,0,0-.22-2.17,9.42,9.42,0,0,0-1.24-3.14Z" />
		<path class="right-hand-3" d="M68.33,152a15.19,15.19,0,0,1,2,2.49,10.51,10.51,0,0,1,1,1.93,9.6,9.6,0,0,0-.5-2.14,8.91,8.91,0,0,0-1.69-3Z" />
		<path class="right-hand-3" d="M65.18,155.34a16.9,16.9,0,0,1,2.28,2.55,12.7,12.7,0,0,1,1.17,2,11.17,11.17,0,0,0-.73-2.24,10.22,10.22,0,0,0-2-3Z" />
		<path class="right-hand-14" d="M70.32,213.15a11.71,11.71,0,0,1-4.44,2c-3.8-16.76-6.76-34.23-9.42-52.23-1.26-.69-2.18-1.63-3.45-2.32q-.48-4.14-.56-8.31A31.72,31.72,0,0,1,61,154.2C63.88,174,66.6,193.9,70.32,213.15Z" />
		<path class="right-hand-12" d="M45.16,214.85a24.23,24.23,0,0,1-3.93-.3l-.16,0,0-.16a43.17,43.17,0,0,1-1.19-7.68l.5,0a43.25,43.25,0,0,0,1.13,7.42A28.88,28.88,0,0,0,49.8,214a55.88,55.88,0,0,1-.42-7.28l.5,0a59,59,0,0,0,.44,7.44l0,.24-.24,0A33.59,33.59,0,0,1,45.16,214.85Z" />
		<path class="right-hand-12" d="M30.58,178.61a34.63,34.63,0,0,1,.16-10l0-.2.18-.08a41.1,41.1,0,0,1,11.33-3.15,46,46,0,0,1,.22-12.55l.73.13a45.59,45.59,0,0,0-.17,12.7l0,.37-.37,0A40.59,40.59,0,0,0,31.44,169a34,34,0,0,0-.12,9.55Z" />
		<path class="right-hand-12" d="M47.48,160.05l-.14-3.8a39,39,0,0,0-7.89,1.93,15.73,15.73,0,0,0-.05,3.43C41.53,161.13,45,160.43,47.48,160.05Z" />
		<path class="right-hand-15" d="M47.07,159.76,47,156.93a29.19,29.19,0,0,0-5.88,1.44,12.16,12.16,0,0,0,0,2.56C42.63,160.57,45.2,160.05,47.07,159.76Z" />
		<path class="right-hand-12" d="M47.83,208.94c0,1,0,2.06.1,3.06a24.3,24.3,0,0,1-5.59,0,12.72,12.72,0,0,1-.57-2.86A30.72,30.72,0,0,0,47.83,208.94Z" />
		<path class="right-hand-15" d="M45.27,211.51c-.76,0-1.55,0-2.33-.11a12,12,0,0,1-.39-1.87c.44,0,.89,0,1.33,0a32,32,0,0,0,3.67-.22c0,.73,0,1.41.07,2A22.54,22.54,0,0,1,45.27,211.51Z" />
		<path class="right-hand-12" d="M28.6,212.82l-.05-.49,4.25-.41a128.9,128.9,0,0,1-2.3-20.8l-3.87.34,0-.49,4.4-.4v.27a129.71,129.71,0,0,0,2.35,21.26l0,.27Z" />
	</g>
</svg>
