<svg xmlns="http://www.w3.org/2000/svg" xmlns:xlink="http://www.w3.org/1999/xlink" viewBox="0 0 245.89 350.07">
	<defs>
		<style>
			.slicer-1{isolation:isolate;}
			.slicer-2{fill:#2a3e51;}
			.slicer-3{fill:#989898;}
			.slicer-4{fill:url(#slicer-gradient);}
			.slicer-5{fill:#99999a;}
			.slicer-6{fill:#fff;}
			.slicer-7{fill:#d3d3d3;}
			.slicer-8{fill:url(#_2);}
			.slicer-14,.slicer-9{mix-blend-mode:screen;}
			.slicer-9{fill:url(#_40);}
			.slicer-10{fill:#d7d7d7;}
			.slicer-11{fill:url(#_4);}
			.slicer-12{fill:url(#_3);}
			.slicer-13{fill:#477087;}
			.slicer-14{fill:url(#_40-2);}
		</style>
		<linearGradient id="slicer-gradient" x1="-5.06" y1="276.56" x2="33.4" y2="322.38" gradientTransform="matrix(1.07, -0.11, 0.1, 0.91, 13.14, -15.97)" gradientUnits="userSpaceOnUse">
			<stop offset="0" stop-color="#a7a9aa" />
			<stop offset="0.01" stop-color="#a8aaab" />
			<stop offset="0.32" stop-color="#d8d8d8" />
			<stop offset="0.63" stop-color="#cdcecf" />
			<stop offset="1" stop-color="#c5c7c9" />
		</linearGradient>
		<linearGradient id="_2" x1="79.02" y1="129.76" x2="73.41" y2="162.16" gradientUnits="userSpaceOnUse">
			<stop offset="0" stop-color="#f2f2f2" />
			<stop offset="0.42" stop-color="#b5c5c5" />
			<stop offset="0.84" stop-color="#759595" />
		</linearGradient>
		<linearGradient id="_40" x1="74.09" y1="134.03" x2="81.24" y2="149.72" gradientUnits="userSpaceOnUse">
			<stop offset="0.17" stop-color="#bdb48e" />
			<stop offset="0.26" stop-color="#b3ab87" />
			<stop offset="0.41" stop-color="#999273" />
			<stop offset="0.6" stop-color="#6e6953" />
			<stop offset="0.82" stop-color="#333126" />
			<stop offset="1" />
		</linearGradient>
		<linearGradient id="_4" x1="60.83" y1="191.72" x2="58.55" y2="230.81" gradientUnits="userSpaceOnUse">
			<stop offset="0.04" stop-color="#fff" />
			<stop offset="0.3" stop-color="#fbfbfb" />
			<stop offset="0.55" stop-color="#efefef" />
			<stop offset="0.7" stop-color="#e5e5e4" />
			<stop offset="0.8" stop-color="#dfdfde" />
			<stop offset="1" stop-color="#d7d7d7" />
		</linearGradient>
		<linearGradient id="_3" x1="64.93" y1="207.49" x2="52.14" y2="136.51" gradientUnits="userSpaceOnUse">
			<stop offset="0" stop-color="#fff" />
			<stop offset="0.84" stop-color="#e8e7e7" />
		</linearGradient>
		<linearGradient id="_40-2" x1="63.03" y1="140.2" x2="59.2" y2="228.46" xlink:href="#_40" />
	</defs>
	<title>
		Beginner
	</title>
	<g id="slicer" class="slicer-1">
		<path class="slicer-2" d="M62.41,245.52a125.05,125.05,0,0,1-5.23-40.65A9.49,9.49,0,0,0,50,202.15a12.84,12.84,0,0,0-7.82,3.3,95.05,95.05,0,0,0,2.49,34.14C49.05,243.89,55.91,245.1,62.41,245.52Z" />
		<path class="slicer-3" d="M32.53,236.92a27.11,27.11,0,0,0-4.77,14.65l-2.07.81L21,250.75l2.29,4.42,4.77,1.19a23.73,23.73,0,0,0,6.74,14.55l-.71,1.94L30,275l4.1,1.86,4.21-2.56s6.63,5.66,15.44,5l1.31,2.91-1.59,4.66,4.1-2,1.94-6.05A23.11,23.11,0,0,0,72,271.93l3.2,1.28,2,4.53,1.64-4.15-3.3-6.18s3.83-4.64,4.2-13.75l2.56-.86L87,254.52l-2-4.28-5.41-1.72A22.12,22.12,0,0,0,73,234.46l.83-2.37,4.61-1.93-4.32-1.66-5,2.64a24.14,24.14,0,0,0-17.86-5c-10.46,1.43-15.36,6.94-15.36,6.94l-3.24-1.61-1.85-4.21-1.61,4.41Z" />
		<path class="slicer-4" d="M52.59,226.85s10.81.79,16.2,5.76l4.88-3,2.65,1-2.84.41L72,235.1s5.13,3.53,6.83,14.54L84.34,251l.38,1.62-2.09-.93-3.41,1.5s.77,7-4.71,14.05l3.41,6-.84,1.91L76,272.45l-3.26-1.82-2,.65s-4,5.55-12.77,6.82l-1.09,6-2.18,1.31,1.37-3.76-1.48-3.58a18.62,18.62,0,0,1-15.85-5.12l-4.27,2.68-1.69-1.14,1.9-.83,1.55-3.09s-4.19-.4-7.45-14.13l-.08-.71-5-1.81L23,252.37l2.47,1,3.08-.7S27,230.13,52.59,226.85Z" />
		<path class="slicer-5" d="M60.67,223.72l1.07,10.22,3.67,4.2L67,253.56s1.25,10.8-11.83,12L50.85,224l8.59-.9Z" />
		<path class="slicer-6" d="M38.77,225.25l3.07,29.33s.5,12.32,13.36,11S66.29,252,65.9,249.86s-1.15-11.4-1.15-11.4l-4.15-4.31-1.16-11.07Z" />
		<ellipse class="slicer-2" cx="54.13" cy="255.71" rx="4.04" ry="4.13" transform="translate(-26.33 7.02) rotate(-5.98)" />
		<ellipse class="slicer-6" cx="53.8" cy="255.62" rx="3.88" ry="3.96" transform="translate(-26.32 6.99) rotate(-5.98)" />
		<rect class="slicer-7" x="41.66" y="224.97" width="0.44" height="18.77" transform="translate(-24.17 5.63) rotate(-5.98)" />
		<rect class="slicer-7" x="42.91" y="224.73" width="2.65" height="18.77" transform="translate(-24.13 5.88) rotate(-5.98)" />
		<path class="slicer-8" d="M80.94,159a3.72,3.72,0,0,0,2.82-1.53,8.47,8.47,0,0,0,1.34-3,23.83,23.83,0,0,0-2.49-17.87,15.6,15.6,0,0,0-10.78.37c-3.34,1.53-5.93,4.94-5.84,8.61C68.26,159,77.27,159.3,80.94,159Z" />
		<path class="slicer-2" d="M67.33,142.75a5.32,5.32,0,0,1,4.4-1.68,9.57,9.57,0,0,1,7.52,4.43,15.67,15.67,0,0,1,2.09,9.14,3.9,3.9,0,0,1-.69,2.31c-1.88,2.31-5.75,1.13-7.76-.31a15.83,15.83,0,0,1-4.84-5.95C67,148.52,65.72,144.91,67.33,142.75Z" />
		<path class="slicer-9" d="M84.24,145.06A19.89,19.89,0,0,0,82,137.52a14.33,14.33,0,0,0-8.18-.13,4.84,4.84,0,0,0-3.34,2.6,15.74,15.74,0,0,1,12,5.4A4.87,4.87,0,0,0,84.24,145.06Z" />
		<path class="slicer-2" d="M62.51,172A78.82,78.82,0,0,1,78.22,152.3a7.24,7.24,0,0,0-1.3-4.92,6.8,6.8,0,0,0-4.09-2.72A57.94,57.94,0,0,0,59,160.16C58.65,164.27,60.47,168.37,62.51,172Z" />
		<path class="slicer-10" d="M50.84,150.49c-7.72,1.07-15.38,3.67-22.76,6.2a200.74,200.74,0,0,0,1.26,62.13,75.43,75.43,0,0,0,30.74-.24c-4.32-22.32-8-45.43-9.08-68.05Z" />
		<path class="slicer-7" d="M57.58,205.11C54.39,187,51.84,168.63,51,150.53l-.16,0c-7.72,1.07-15.38,3.67-22.76,6.2a198.89,198.89,0,0,0-1.77,22.48l7.13-1.09s.3,8.39,1,14,2.12,14.16,2.12,14.16a54.54,54.54,0,0,0,7.95.38c4.17-.13,13-1.47,13-1.47Z" />
		<path class="slicer-11" d="M71.77,213.88C68.55,194.19,64,173,62.05,153.16c-3.3-.94-10-2.4-11-2.63,1,22.62,4.76,45.73,9.08,68.05l.26-.05S68.11,215.78,71.77,213.88Z" />
		<path class="slicer-12" d="M51,150.53c.84,18.1,3.39,36.51,6.58,54.58a64.6,64.6,0,0,0,6.43-2c1.64-.64,4-1.74,5.47-2.47-2.82-15.75-5.94-32-7.43-47.5C58.75,152.22,52.05,150.76,51,150.53Z" />
		<path class="slicer-7" d="M69.57,201.14c0-.26-.1-.52-.14-.77a46.75,46.75,0,0,1-11.9,4.43l.13.74h0A47.76,47.76,0,0,0,69.57,201.14Z" />
		<path class="slicer-5" d="M57.52,204.81a70.08,70.08,0,0,1-20.59,1.08,204.78,204.78,0,0,1-3.15-27.83v-.4l-.39,0a43.34,43.34,0,0,0-7.06,1.17c0,.26,0,.52,0,.78A41.69,41.69,0,0,1,33,178.47a209.87,209.87,0,0,0,3.2,27.83l0,.28.28,0a67.76,67.76,0,0,0,6.92.35,70,70,0,0,0,14.17-1.42l-.13-.74Z" />
		<path class="slicer-5" d="M49.31,193.11l-.24-1.49c-3.35.42-6.73.74-10.08.94.07.47.12.94.19,1.42A101.27,101.27,0,0,0,49.31,193.11Z" />
		<path class="slicer-5" d="M48.46,187.44c-.07-.5-.14-1-.2-1.49-3.29.35-6.58.71-9.85,1.08l.12,1.42C41.84,188.16,45.16,187.82,48.46,187.44Z" />
		<path class="slicer-5" d="M48.86,190.28c-.07-.5-.15-1-.22-1.51-3.31.39-6.65.74-10,1,.05.48.11,1,.16,1.43C42.16,191,45.52,190.7,48.86,190.28Z" />
		<path class="slicer-5" d="M38.14,181.43c0,.49,0,1,0,1.46,3.17-.44,6.39-.81,9.61-1.12l-.15-1.52C44.47,180.52,41.29,180.92,38.14,181.43Z" />
		<path class="slicer-5" d="M48.1,184.61c-.06-.5-.12-1-.17-1.5-3.25.32-6.5.69-9.7,1.13,0,.48.06,1,.09,1.44C41.57,185.31,44.84,185,48.1,184.61Z" />
		<path class="slicer-5" d="M41.05,200.86H40.4c.14.67.27,1.35.42,2A96.63,96.63,0,0,0,51,202.12c-.15-.68-.28-1.36-.42-2.05A58.57,58.57,0,0,1,41.05,200.86Z" />
		<path class="slicer-5" d="M47.54,178.91c0-.71-.11-1.42-.15-2.13-3.16.34-6.59.8-9.24,1.36,0,.65,0,1.29,0,1.93C41.25,179.57,44.4,179.18,47.54,178.91Z" />
		<path class="slicer-5" d="M49.8,195.93c-.09-.49-.18-1-.26-1.49a101.43,101.43,0,0,1-10.15.88c.08.47.15.94.23,1.41A71,71,0,0,0,49.8,195.93Z" />
		<path class="slicer-5" d="M50.33,198.75c-.1-.5-.19-1-.28-1.49a75.67,75.67,0,0,1-10.19.82c.09.47.17.94.26,1.41A58.27,58.27,0,0,0,50.33,198.75Z" />
		<path class="slicer-13" d="M64.65,166a73.26,73.26,0,0,1,12.53-14.66,4.26,4.26,0,0,0-2.53-3.22,51.43,51.43,0,0,0-10.76,10.94S64.28,164,64.65,166Z" />
		<path class="slicer-2" d="M71.13,148.93a17.17,17.17,0,0,1,1.6,2.74,12.68,12.68,0,0,1,.7,2,9.92,9.92,0,0,0-.23-2.18A9.36,9.36,0,0,0,72,148.37Z" />
		<path class="slicer-2" d="M68.16,151.62a14.4,14.4,0,0,1,2,2.5,11.34,11.34,0,0,1,1,1.93,9.6,9.6,0,0,0-.5-2.14,9,9,0,0,0-1.7-3Z" />
		<path class="slicer-2" d="M65,155a16.9,16.9,0,0,1,2.29,2.55,13,13,0,0,1,1.17,2,10.45,10.45,0,0,0-.73-2.24,10.16,10.16,0,0,0-2-3Z" />
		<path class="slicer-14" d="M70.16,212.92a11.81,11.81,0,0,1-4.46,2c-3.81-16.81-6.78-34.33-9.44-52.38-1.27-.69-2.19-1.64-3.46-2.32q-.48-4.15-.56-8.33a32.23,32.23,0,0,1,8.55,1.93C63.7,173.61,66.42,193.62,70.16,212.92Z" />
		<path class="slicer-5" d="M44.93,214.63a25.44,25.44,0,0,1-3.94-.3l-.16,0,0-.15a43.33,43.33,0,0,1-1.18-7.7l.5,0a43.36,43.36,0,0,0,1.12,7.45,29.46,29.46,0,0,0,8.36-.08,56.34,56.34,0,0,1-.42-7.3l.5,0A59.17,59.17,0,0,0,50.1,214l0,.24-.24,0A33.62,33.62,0,0,1,44.93,214.63Z" />
		<path class="slicer-5" d="M30.3,178.29a35.2,35.2,0,0,1,.16-10l0-.2.18-.09A41.67,41.67,0,0,1,42,164.85a45.34,45.34,0,0,1,.22-12.57l.73.12a45.52,45.52,0,0,0-.16,12.74l0,.37-.37,0a40.81,40.81,0,0,0-11.33,3.07,34.16,34.16,0,0,0-.12,9.58Z" />
		<path class="slicer-5" d="M47.25,159.67l-.14-3.81a38.57,38.57,0,0,0-7.91,1.94,15.82,15.82,0,0,0-.05,3.44C41.29,160.76,44.74,160.06,47.25,159.67Z" />
		<path class="slicer-5" d="M47.6,208.7c0,1,0,2.06.11,3.07a24.48,24.48,0,0,1-5.61,0,13.41,13.41,0,0,1-.58-2.87A30.14,30.14,0,0,0,47.6,208.7Z" />
		<path class="slicer-5" d="M28.32,212.59l-.05-.49,4.26-.41a128.59,128.59,0,0,1-2.3-20.86l-3.88.34-.05-.49,4.42-.4v.27a128.42,128.42,0,0,0,2.36,21.32l.05.27Z" />
	</g>
</svg>
