<svg xmlns="http://www.w3.org/2000/svg" 
    xmlns:xlink="http://www.w3.org/1999/xlink" viewBox="0 0 245.89 350.07">
    <defs>
        <style>
        .body-1{isolation:isolate;}
        .body-2{fill:#2a3e51;}
        .body-3{fill:#d7d7d7;}
        .body-4{fill:url(#_4);}
        .body-5{fill:url(#_3);}
        .body-6{fill:#aeaeaf;}
        .body-7{fill:#477087;}
        .body-8{fill:url(#_2);}
        .body-9{fill:#4b6d73;}
        .body-10,.body-17,.body-18,.body-19,.body-21,.body-24,.body-27{mix-blend-mode:screen;}
        .body-10{fill:url(#_40);}
        .body-11{fill:url(#_4-2);}
        .body-12{fill:#d3d3d3;}
        .body-13{fill:url(#_4-3);}
        .body-14{fill:url(#_3-2);}
        .body-15{fill:url(#_4-4);}
        .body-16{fill:url(#_3-3);}
        .body-17{fill:url(#_171);}
        .body-18{fill:url(#_171-2);}
        .body-19{fill:url(#_40-2);}
        .body-20{fill:url(#_4-5);}
        .body-21{fill:url(#_171-3);}
        .body-22{fill:url(#_4-6);}
        .body-23{fill:url(#_160);}
        .body-24{fill:url(#_166);}
        .body-25{fill:url(#_4-7);}
        .body-26{fill:url(#_4-8);}
        .body-27{fill:url(#_171-4);}</style>
        <linearGradient id="_4" x1="183.52" y1="236.38" x2="195.93" y2="293.38" gradientUnits="userSpaceOnUse">
            <stop offset="0.04" stop-color="#fff"/>
            <stop offset="0.3" stop-color="#fbfbfb"/>
            <stop offset="0.55" stop-color="#efefef"/>
            <stop offset="0.7" stop-color="#e5e5e4"/>
            <stop offset="0.8" stop-color="#dfdfde"/>
            <stop offset="1" stop-color="#d7d7d7"/>
        </linearGradient>
        <linearGradient id="_3" x1="183.91" y1="238.22" x2="189.47" y2="263.76" gradientUnits="userSpaceOnUse">
            <stop offset="0" stop-color="#fff"/>
            <stop offset="0.84" stop-color="#e8e7e7"/>
        </linearGradient>
        <linearGradient id="_2" x1="139.97" y1="221.18" x2="104.24" y2="222.27" gradientUnits="userSpaceOnUse">
            <stop offset="0" stop-color="#f2f2f2"/>
            <stop offset="0.42" stop-color="#b5c5c5"/>
            <stop offset="0.84" stop-color="#759595"/>
        </linearGradient>
        <linearGradient id="_40" x1="131.59" y1="212.19" x2="125.45" y2="231.82" gradientUnits="userSpaceOnUse">
            <stop offset="0.17" stop-color="#bdb48e"/>
            <stop offset="0.26" stop-color="#b3ab87"/>
            <stop offset="0.41" stop-color="#999273"/>
            <stop offset="0.6" stop-color="#6e6953"/>
            <stop offset="0.82" stop-color="#333126"/>
            <stop offset="1"/>
        </linearGradient>
        <linearGradient id="_4-2" x1="131.83" y1="221.6" x2="117.65" y2="265.97" xlink:href="#_4"/>
        <linearGradient id="_4-3" x1="96.42" y1="235.65" x2="77.33" y2="295.79" xlink:href="#_4"/>
        <linearGradient id="_3-2" x1="94.59" y1="236.3" x2="81" y2="279.12" xlink:href="#_3"/>
        <linearGradient id="_4-4" x1="44.17" y1="236.39" x2="67.49" y2="282.89" xlink:href="#_4"/>
        <linearGradient id="_3-3" x1="50" y1="235.86" x2="62.55" y2="260.88" xlink:href="#_3"/>
        <linearGradient id="_171" x1="55.15" y1="231.38" x2="56.1" y2="278.43" gradientUnits="userSpaceOnUse">
            <stop offset="0" stop-color="#c3bea9"/>
            <stop offset="0.5" stop-color="#636156"/>
            <stop offset="1"/>
        </linearGradient>
        <linearGradient id="_171-2" x1="87.84" y1="235.21" x2="92.57" y2="292.12" xlink:href="#_171"/>
        <linearGradient id="_40-2" x1="145.69" y1="219.18" x2="118.42" y2="250.64" xlink:href="#_40"/>
        <linearGradient id="_4-5" x1="147.61" y1="109.28" x2="107.97" y2="230.4" xlink:href="#_4"/>
        <linearGradient id="_171-3" x1="154.1" y1="110.14" x2="122.86" y2="181.1" xlink:href="#_171"/>
        <linearGradient id="_4-6" x1="147.71" y1="122.23" x2="120.99" y2="208.78" gradientTransform="translate(27.28 -19.37) rotate(9.09)" xlink:href="#_4"/>
        <radialGradient id="_160" cx="-237.68" cy="147.16" r="32.5" gradientTransform="translate(408.08) scale(1.1 1)" gradientUnits="userSpaceOnUse">
            <stop offset="0.01" stop-color="#22577e"/>
            <stop offset="0.25" stop-color="#204f77"/>
            <stop offset="0.63" stop-color="#1c3b62"/>
            <stop offset="1" stop-color="#162048"/>
        </radialGradient>
        <linearGradient id="_166" x1="153.04" y1="134.66" x2="132.82" y2="167.95" gradientUnits="userSpaceOnUse">
            <stop offset="0" stop-color="#848174"/>
            <stop offset="0.73" stop-color="#252420"/>
            <stop offset="1"/>
        </linearGradient>
        <linearGradient id="_4-7" x1="123.98" y1="168.97" x2="134.42" y2="168.97" xlink:href="#_4"/>
        <linearGradient id="_4-8" x1="140.19" y1="168.15" x2="154.06" y2="168.15" xlink:href="#_4"/>
        <linearGradient id="_171-4" x1="149.98" y1="122.69" x2="127.15" y2="184.68" xlink:href="#_171"/>
    </defs>
    <title>
		Apprentice
    </title>
    <g id="body" class="body-1">
        <path class="body-2" d="M160.39,248.16a10.38,10.38,0,0,0-6.18-2.34A48.94,48.94,0,0,0,137.64,252a129.53,129.53,0,0,1,5.66,13.46,102.37,102.37,0,0,1-9.24,6.43,61.89,61.89,0,0,1-6.2-14.66,5.43,5.43,0,0,0-4.31.94,63.68,63.68,0,0,0,8,22.5,67,67,0,0,0,14.11-7.95,128.09,128.09,0,0,1,4.17,19.85,22.83,22.83,0,0,0,13.36,1.16C167.5,282.29,166.2,257.11,160.39,248.16Z"/>
        <path class="body-3" d="M179.62,240.72a37.69,37.69,0,0,0-16.52,5.55q9,23.07,15.74,46.91a66.84,66.84,0,0,0,12.64.49h0A128.48,128.48,0,0,0,179.62,240.72Z"/>
        <path class="body-2" d="M176.73,243.5a39.15,39.15,0,0,0-11.82,4.38,257.29,257.29,0,0,1,10.46,26.8l10.91-.45C183.46,262.82,180.4,252.22,176.73,243.5Z"/>
        <path class="body-4" d="M194.56,267.63c-.68-8.52-3-17.29-7.69-24.46-2.59-1.79-7.09-2.47-7.09-2.47l-.16,0a128.48,128.48,0,0,1,11.89,53,16,16,0,0,0,2.27-.45C194.51,284.71,195.25,276.15,194.56,267.63Z"/>
        <path class="body-5" d="M193.93,262.52a50.19,50.19,0,0,0-7.06-19.35c-2.59-1.79-7.09-2.47-7.09-2.47l-.16,0a134.44,134.44,0,0,1,7.67,21.38C189.48,262.22,191.73,262.39,193.93,262.52Z"/>
        <path class="body-2" d="M177.31,261a33.71,33.71,0,0,0-2-5.15,47.82,47.82,0,0,0-5.84,1.63c-3.43,5.82-13.62,15.89-18.77,19.34-7.59-2.73-12.94-10.14-18.13-15.44-.54.55-1,.9-1.54,1.45,5.38,6.71,11.59,15.67,20.18,18.6C156.82,279.08,172.34,268.2,177.31,261Z"/>
        <polygon class="body-6" points="187.01 261.36 193.86 261.98 194.03 262.99 187.53 262.99 187.01 261.36"/>
        <path class="body-7" d="M175.83,262.87l-1.64-5.26a191.66,191.66,0,0,1-20.55,19.66l1.18,2.26C161.09,275.89,170.9,268.66,175.83,262.87Z"/>
        <path class="body-8" d="M140.76,209.9a137.3,137.3,0,0,0-4.83,24.54,133.3,133.3,0,0,1-28.38-.15,130.59,130.59,0,0,1-5.84-24C114.26,207.16,127.91,208.48,140.76,209.9Z"/>
        <path class="body-9" d="M134.83,217.54l-4.2-.07c-2.59,0-6.15,0-10.08.12s-7.48.36-10.06.56l-4.18.36s1.55-.41,4.11-.89a70.77,70.77,0,0,1,10.1-1.1,71.5,71.5,0,0,1,10.14.41C133.25,217.23,134.83,217.54,134.83,217.54Z"/>
        <path class="body-9" d="M133.06,224.61s-1.38.28-3.64.57a69,69,0,0,1-8.85.56,67.16,67.16,0,0,1-8.85-.64c-2.25-.31-3.63-.6-3.63-.6l3.67.07c2.26.05,5.38.08,8.81.1s6.56,0,8.82,0Z"/>
        <path class="body-10" d="M137.14,215.48a111.07,111.07,0,0,0-2.68,15.81c-3.91-.1-7.65-.24-11.56-.34a42.44,42.44,0,0,1-1.24-15.3,56.93,56.93,0,0,1,15.26-.18C136.83,215.51,137.23,215.44,137.14,215.48Z"/>
        <path class="body-11" d="M106.87,230.54a194.18,194.18,0,0,0,4.52,25.33c2.91.2,6.06.43,8.9.82.52,2.57,1,5.22,1.31,7.85a79,79,0,0,0,10.09-.65,22.35,22.35,0,0,0,4.37-6.55,23.61,23.61,0,0,1,5.86-1.91,50,50,0,0,0,6.7-24.35Q127.82,230.09,106.87,230.54Z"/>
        <path class="body-3" d="M111.39,255.87a194.18,194.18,0,0,1-4.52-25.33q-8.48.17-17,.54a62.91,62.91,0,0,0,5.88,22.8l9,.88a54.71,54.71,0,0,1,5,9,85.86,85.86,0,0,0,11.77.78c-.34-2.63-.79-5.28-1.31-7.85C117.45,256.3,114.3,256.07,111.39,255.87Z"/>
        <path class="body-12" d="M139.67,230.74A102.47,102.47,0,0,1,136.16,246a48.48,48.48,0,0,1-17.52-.23L116,230.43h-.81l2.71,16,.27.06a50.62,50.62,0,0,0,9.85,1,49.13,49.13,0,0,0,8.48-.74l.24,0,.08-.24a103.14,103.14,0,0,0,3.61-15.69C140.2,230.76,139.94,230.74,139.67,230.74Z"/>
        <path class="body-2" d="M87,264.81a104.92,104.92,0,0,0,17.85-10.05l3.27.32c-4.45,5.07-10.59,11.52-15.25,15Z"/>
        <path class="body-2" d="M117.36,256.38a118.8,118.8,0,0,1-12.16,25,46.42,46.42,0,0,1-8.61-5.67,23.52,23.52,0,0,1,1.88-9,30.76,30.76,0,0,0,5.19,4.18c3.66-3.62,7.08-10.34,9.48-14.9A39.38,39.38,0,0,1,117.36,256.38Z"/>
        <path class="body-2" d="M78.86,262.16c-2.64-4.49-5.56-8.38-8.21-12.86-.86,3.3-1.62,6.17-2.47,9.48q4.62,5.14,9.26,10.28A37.91,37.91,0,0,0,78.86,262.16Z"/>
        <path class="body-13" d="M99.28,240.85c2.69,17.92-.09,36.56-6.88,53.37a35.49,35.49,0,0,1-12-.05,93.9,93.9,0,0,1-1-51.89C85,240.27,93.44,239.53,99.28,240.85Z"/>
        <path class="body-14" d="M79.41,242.28a92.94,92.94,0,0,0-3.11,21,12.07,12.07,0,0,0,4.65.78,126.53,126.53,0,0,0,.57,13.34c1.54,0,3.07.1,4.61.13a6.88,6.88,0,0,0,3-.37A53.59,53.59,0,0,1,91.9,263c2.73-.61,5.5-1.39,8.19-2.22a94.59,94.59,0,0,0-.81-20C93.44,239.53,85,240.27,79.41,242.28Z"/>
        <path class="body-15" d="M72.28,242.57a106.21,106.21,0,0,1-19.9,49.21,14.76,14.76,0,0,1-5.54-.2,109.24,109.24,0,0,1,5.94-54.34A27.15,27.15,0,0,1,72.28,242.57Z"/>
        <path class="body-16" d="M52.78,237.24A108.52,108.52,0,0,0,46.18,266a28.46,28.46,0,0,0,7.49.08,105.28,105.28,0,0,1,8-17.74A25.48,25.48,0,0,1,71,250.22c.52-2.54.95-5.09,1.27-7.65A27.15,27.15,0,0,0,52.78,237.24Z"/>
        <path class="body-6" d="M61.62,248l-.26.05-.12.23a105.11,105.11,0,0,0-7.62,17.13,23.42,23.42,0,0,1-7.38-.1c0,.36-.07.71-.1,1.06a24.19,24.19,0,0,0,8,0l.32-.05.1-.31a104.46,104.46,0,0,1,7.53-17,14.59,14.59,0,0,1,8.87,1.65c.07-.36.16-.72.23-1.08A15.66,15.66,0,0,0,61.62,248Z"/>
        <path class="body-6" d="M100.14,259.89a40.81,40.81,0,0,1-8.41,2.43l-.32.07-.09.31a105.06,105.06,0,0,0-2.62,13.2l-.13.84a31.57,31.57,0,0,1-6.65.17,116.89,116.89,0,0,1-.11-13l0-.57h-.57a20.87,20.87,0,0,1-5-.55c0,.36,0,.73,0,1.09a21.8,21.8,0,0,0,4.43.52,120,120,0,0,0,.17,13.05l0,.45.44.05a26.35,26.35,0,0,0,3,.16,32.39,32.39,0,0,0,4.73-.34l.39-.06.25-1.62a103,103,0,0,1,2.51-12.76,43.21,43.21,0,0,0,7.81-2.22Z"/>
        <path class="body-17" d="M64.94,240a157,157,0,0,0-15.1,41.89c-1.14.08-2.13.05-3.27.13a122.41,122.41,0,0,1,6.54-43.41C56.67,238.22,61.7,238.51,64.94,240Z"/>
        <path class="body-18" d="M91.84,292.27c-.85,0-1.31,0-2.16,0a260.83,260.83,0,0,0,2.62-42.07c-4.39-.72-9-1.31-13.36-2a23.8,23.8,0,0,1,1-4.64,44.5,44.5,0,0,1,18-1.8C100.2,249,99.11,275.54,91.84,292.27Z"/>
        <path class="body-19" d="M131.31,262.68a15.35,15.35,0,0,0,4.08-6.79c1.82-.69,3.9-1.28,5.71-2a57.85,57.85,0,0,0,5.61-20.51,282.13,282.13,0,0,0-37.79-1.27c10.83,1.7,21.93,3.76,32.76,5.47a30.47,30.47,0,0,1-3.12,14.64c-1.45.78-3.37,1.45-4.82,2.23C132.72,257,132.34,260.22,131.31,262.68Z"/>
        <path class="body-20" d="M96.84,106.74h0c2.16,45.31,3.43,67.09,1.68,107.38l66.65-.8c5.25-34.95,6.81-50.94,6.67-90.74Z"/>
        <polygon class="body-3" points="155.19 191.95 115.91 189.92 115.55 189.9 103.25 214.05 104.38 214.05 116.22 190.88 154.36 192.86 159.49 213.4 160.56 213.4 155.19 191.95"/>
        <path class="body-21" d="M98.8,108.59l71.45,14.55c.77,26.8-1.69,58.83-5.37,89.69H163.5c1.54-28.71,2.29-58.37.71-82.76-15.49-5.73-39.81-12.71-65.41-19.88Z"/>
        <path class="body-3" d="M96.84,106.74h0L60,124.19c5.41,38.25,7.77,54,10.78,89.93H98.52C100.27,173.83,99,152.05,96.84,106.74Z"/>
        <path class="body-6" d="M90.13,206.17H76.07l0-.32c-2.8-28.15-5.73-43.58-10.72-74.76l0-.27,25.14-10.38,0,.52c1.82,36.69,1,54.59-.29,84.87Zm-13.35-.71h12.6c1.3-30,2.08-47.63.3-83.94l-23.56,9.73C71.07,162.23,74,177.47,76.78,205.46Z"/>
        <polygon class="body-3" points="151.69 118.33 149.3 129.25 126.09 125.49 122.07 112.07 121.22 111.89 125.41 125.89 125.47 126.11 149.91 130.07 152.45 118.48 151.69 118.33"/>
        <ellipse class="body-22" cx="135.48" cy="161.85" rx="31.74" ry="36.98" transform="translate(-23.87 23.44) rotate(-9.09)"/>
        <path class="body-3" d="M137.06,199.09c-.54,0-1.07,0-1.61,0-17.8-1-32.28-18.46-32.28-39,0-11.43,4.47-21.82,12.25-28.5a28,28,0,0,1,20.08-6.94c17.8,1,32.29,18.47,32.29,39,0,11.43-4.47,21.82-12.26,28.5A28,28,0,0,1,137.06,199.09Zm-3.16-73.72A27.17,27.17,0,0,0,116,132.14c-7.62,6.54-12,16.72-12,27.94,0,20.1,14.12,37.23,31.48,38.19A27.13,27.13,0,0,0,155,191.55c7.62-6.54,12-16.72,12-27.94,0-20.1-14.13-37.23-31.49-38.19C134.93,125.39,134.42,125.37,133.9,125.37Z"/>
        <path class="body-3" d="M138.28,191.44c-.37,0-.73,0-1.1,0-13.57-.75-24.61-14.78-24.61-31.26,0-15.65,10-27.9,22.71-27.9.37,0,.73,0,1.1,0C150,133,161,147.06,161,163.55a31,31,0,0,1-7.11,20.37,20.61,20.61,0,0,1-15.6,7.52Z"/>
        <path class="body-23" d="M134.64,133.28c-.36,0-.73,0-1.09,0a19.42,19.42,0,0,0-8.9,2.15c-7.24,4.61-12.08,13.85-12.08,24.75,0,16.48,11,30.51,24.61,31.26.37,0,.73,0,1.1,0h0a19.42,19.42,0,0,0,8.88-2.18,23.56,23.56,0,0,0,5-4.34,31,31,0,0,0,7.11-20.37C159.25,148.06,148.21,134,134.64,133.28Z"/>
        <path class="body-24" d="M147.73,173.12a66,66,0,0,0,7.67,4.74,32.19,32.19,0,0,0,2.77-13.31c0-16-10.58-29.57-23.59-30.29l-1,0a18.23,18.23,0,0,0-8.33,2,21,21,0,0,0-3.39,2.73C127.53,152,135.46,164.23,147.73,173.12Z"/>
        <path class="body-25" d="M134.34,169c.48,3.32-1.43,6-4.28,6s-5.53-2.69-6-6,1.44-6,4.28-6S133.87,165.65,134.34,169Z"/>
        <path class="body-26" d="M140.29,168.15c-.63,4.4,1.91,8,5.69,8s7.34-3.58,8-8-1.91-8-5.69-8S140.93,163.74,140.29,168.15Z"/>
        <path class="body-27" d="M134.22,128.29c17.19,1,31.13,17.81,31.13,37.65a38.93,38.93,0,0,1-3.68,16.75,38.37,38.37,0,0,0,4.93-19.12c0-19.85-13.93-36.71-31.12-37.66-11.88-.66-22.2,6.46-27.45,17.47C113.57,133.74,123.23,127.68,134.22,128.29Z"/>
    </g>
</svg>