<svg xmlns="http://www.w3.org/2000/svg" xmlns:xlink="http://www.w3.org/1999/xlink" viewBox="0 0 543.42 656.85"><defs><style>.cls-1{isolation:isolate;}.cls-2{fill:#2b3e51;}.cls-3{fill:#d7d7d7;}.cls-4{fill:url(#_ÂÁ_Ï_ÌÌ_È_ËÂÌÚ_4);}.cls-5{fill:url(#_ÂÁ_Ï_ÌÌ_È_ËÂÌÚ_3);}.cls-6{fill:#d3d3d3;}.cls-7{fill:url(#_ÂÁ_Ï_ÌÌ_È_ËÂÌÚ_5);}.cls-8{fill:url(#_ÂÁ_Ï_ÌÌ_È_ËÂÌÚ_3-2);}.cls-9{fill:url(#_ÂÁ_Ï_ÌÌ_È_ËÂÌÚ_3-3);}.cls-10{fill:url(#_ÂÁ_Ï_ÌÌ_È_ËÂÌÚ_3-4);}.cls-11{fill:url(#_ÂÁ_Ï_ÌÌ_È_ËÂÌÚ_3-5);}.cls-12{fill:#99999a;}.cls-13{fill:url(#_ÂÁ_Ï_ÌÌ_È_ËÂÌÚ_3-6);}.cls-14,.cls-15,.cls-16,.cls-17{mix-blend-mode:screen;}.cls-14{fill:url(#_ÂÁ_Ï_ÌÌ_È_ËÂÌÚ_40);}.cls-15{fill:url(#_ÂÁ_Ï_ÌÌ_È_ËÂÌÚ_40-2);}.cls-16{fill:url(#_ÂÁ_Ï_ÌÌ_È_ËÂÌÚ_40-3);}.cls-17{fill:url(#_ÂÁ_Ï_ÌÌ_È_ËÂÌÚ_40-4);}</style><linearGradient id="_ÂÁ_Ï_ÌÌ_È_ËÂÌÚ_4" x1="243.65" y1="226.52" x2="222.07" y2="277.81" gradientUnits="userSpaceOnUse"><stop offset="0.04" stop-color="#fff"/><stop offset="0.3" stop-color="#fbfbfb"/><stop offset="0.55" stop-color="#efefef"/><stop offset="0.7" stop-color="#e5e5e4"/><stop offset="0.8" stop-color="#dfdfde"/><stop offset="1" stop-color="#d7d7d7"/></linearGradient><linearGradient id="_ÂÁ_Ï_ÌÌ_È_ËÂÌÚ_3" x1="226.69" y1="299.65" x2="190.63" y2="335.42" gradientUnits="userSpaceOnUse"><stop offset="0" stop-color="#fff"/><stop offset="0.84" stop-color="#e9e8e7"/></linearGradient><linearGradient id="_ÂÁ_Ï_ÌÌ_È_ËÂÌÚ_5" x1="203.09" y1="279.48" x2="192.01" y2="336.54" gradientUnits="userSpaceOnUse"><stop offset="0" stop-color="#fff"/><stop offset="0.48" stop-color="#eee"/><stop offset="1" stop-color="#d7d7d7"/></linearGradient><linearGradient id="_ÂÁ_Ï_ÌÌ_È_ËÂÌÚ_3-2" x1="192.6" y1="405.75" x2="200.76" y2="405.75" xlink:href="#_ÂÁ_Ï_ÌÌ_È_ËÂÌÚ_3"/><linearGradient id="_ÂÁ_Ï_ÌÌ_È_ËÂÌÚ_3-3" x1="205.51" y1="403.58" x2="216.76" y2="403.58" xlink:href="#_ÂÁ_Ï_ÌÌ_È_ËÂÌÚ_3"/><linearGradient id="_ÂÁ_Ï_ÌÌ_È_ËÂÌÚ_3-4" x1="234.2" y1="362.69" x2="215.46" y2="375.04" xlink:href="#_ÂÁ_Ï_ÌÌ_È_ËÂÌÚ_3"/><linearGradient id="_ÂÁ_Ï_ÌÌ_È_ËÂÌÚ_3-5" x1="245.38" y1="379.65" x2="226.64" y2="392" xlink:href="#_ÂÁ_Ï_ÌÌ_È_ËÂÌÚ_3"/><linearGradient id="_ÂÁ_Ï_ÌÌ_È_ËÂÌÚ_3-6" x1="216.56" y1="372.7" x2="190.15" y2="385.76" xlink:href="#_ÂÁ_Ï_ÌÌ_È_ËÂÌÚ_3"/><linearGradient id="_ÂÁ_Ï_ÌÌ_È_ËÂÌÚ_40" x1="224.91" y1="294.44" x2="216.25" y2="354.67" gradientUnits="userSpaceOnUse"><stop offset="0.17" stop-color="#beb48e"/><stop offset="0.26" stop-color="#b4ab87"/><stop offset="0.41" stop-color="#9a9273"/><stop offset="0.6" stop-color="#6f6953"/><stop offset="0.82" stop-color="#343127"/><stop offset="1" stop-color="#010101"/></linearGradient><linearGradient id="_ÂÁ_Ï_ÌÌ_È_ËÂÌÚ_40-2" x1="229.06" y1="358.16" x2="223.67" y2="378.51" xlink:href="#_ÂÁ_Ï_ÌÌ_È_ËÂÌÚ_40"/><linearGradient id="_ÂÁ_Ï_ÌÌ_È_ËÂÌÚ_40-3" x1="239.6" y1="362.76" x2="232.88" y2="393.61" xlink:href="#_ÂÁ_Ï_ÌÌ_È_ËÂÌÚ_40"/><linearGradient id="_ÂÁ_Ï_ÌÌ_È_ËÂÌÚ_40-4" x1="243.76" y1="216.06" x2="234.83" y2="264.42" xlink:href="#_ÂÁ_Ï_ÌÌ_È_ËÂÌÚ_40"/></defs><title>Master</title><g class="cls-1"><g id="Layer_1" data-name="Layer 1"><path class="cls-2" d="M219.42,353.54c2.64,4.91,5.33,9.68,8,14.59a36.87,36.87,0,0,1-33.52,5.41,45.16,45.16,0,0,1-.8-11.66C200.89,357,210.2,353.54,219.42,353.54Zm-24.56,34.09a60.29,60.29,0,0,1-5.23,11.44,55.66,55.66,0,0,0,4.13,9.39c.53.93,1,2.32,2.14,2.4,1.41.1,3.2-1,4.21-1.87a45,45,0,0,1-1.8-9.36,25.16,25.16,0,0,0,1.92-13.35A21.7,21.7,0,0,0,194.86,387.63Zm10.78-1.41a60,60,0,0,1-2.75,12.27,55.77,55.77,0,0,0,6,8.34c.71.8,1.41,2.08,2.59,1.91,1.4-.19,2.93-1.64,3.74-2.7a45.23,45.23,0,0,1-3.7-8.78,25.15,25.15,0,0,0-.87-13.47A22.07,22.07,0,0,0,205.64,386.22Zm17.72-12.9a17,17,0,0,0,4.26,8.62c-.05-.07,0,.36-.09.29-.27,3-1.55,6.81-2.17,10.23a9.1,9.1,0,0,0,5.59.4,23.86,23.86,0,0,0,2.11-11.2,58.33,58.33,0,0,1-5.67-9.25A5.65,5.65,0,0,0,223.36,373.32Z"/><path class="cls-2" d="M224.37,270.83c-4,12.88-6.48,25.49-6.38,39l.42.44a24.67,24.67,0,0,1-17-2A88.93,88.93,0,0,1,210.07,267a32.65,32.65,0,0,1,7.67-.88,12.27,12.27,0,0,1,7.56,2.77C225.1,269.09,224.57,270.66,224.37,270.83Z"/><path class="cls-3" d="M232.78,221.75a67.46,67.46,0,0,0-24.11,1.16,82.74,82.74,0,0,0-14,42.16,151.18,151.18,0,0,0,21.62,7.46C226.6,257.61,232.81,239.88,232.78,221.75Z"/><path class="cls-4" d="M248.22,239.55c-3.84-6.9-9.41-12.65-15.41-17.79h0c0,18.13-6.18,35.86-16.54,50.78a107.62,107.62,0,0,0,16,2.89A66.13,66.13,0,0,0,248.22,239.55Z"/><path class="cls-5" d="M223.44,356.4a113,113,0,0,1-2.31-28.95c4.9-7.2,8.93-16.94,6.58-25.32-1.06-3.75-4.91-7.88-8.47-9.47,0,.1-1.22,7.9-1.45,14.59-3.65,2.54-5.36,1.66-8-2.43a42.79,42.79,0,0,1,3.25-17.3c-1.08-1-2.6-2.39-3.68-3.43a35.62,35.62,0,0,0-26.61,5.68c-3.23,8.41-6.46,17.18-5.86,26.17.48,7.25,3.41,14.06,5.8,20.92,3,8.6,6.81,19.16,8.18,28.17a102.92,102.92,0,0,0,24-4.58C217.77,359.48,220.55,357.63,223.44,356.4Z"/><path class="cls-6" d="M190.82,365a102.92,102.92,0,0,0,24-4.58,39.49,39.49,0,0,0,5.7-2.63,37.06,37.06,0,0,1-15.3,2,86.21,86.21,0,0,1-3.58-14.58c-4.19,2.46-9.75,4.36-14.7,4.2A105.61,105.61,0,0,1,190.82,365Z"/><path class="cls-3" d="M197.11,320.8a31.91,31.91,0,0,1,8.79-3.3,72.5,72.5,0,0,1,2.87-33.5,35.65,35.65,0,0,0-26.07,5.77c-3.23,8.41-6.46,17.18-5.86,26.17.48,7.25,3.41,14.06,5.8,20.92,1.3,3.72,2.74,7.81,4.08,12a26,26,0,0,0,14.7-3.51A68.17,68.17,0,0,0,197.11,320.8Z"/><path class="cls-7" d="M208.77,284a35.36,35.36,0,0,0-17.66,1.52c-3.34,9.94-1.84,21,1.06,31.19,2.75,9.67,6.7,19,8.83,28.84l.42-.23a68.17,68.17,0,0,0-4.31-24.52,31.91,31.91,0,0,1,8.79-3.3A72.5,72.5,0,0,1,208.77,284Z"/><path class="cls-6" d="M211.85,364.16l-.34.08A79.8,79.8,0,0,1,191.67,368,41.18,41.18,0,0,0,190,385.81a88.6,88.6,0,0,0,20.07-3C210.61,376.5,211.1,370.64,211.85,364.16Z"/><path class="cls-8" d="M200.76,413.51c-1.76-4.78-3.34-9.63-4.85-14.49-1-.43-2.21-1.29-3.31-1.29a89.8,89.8,0,0,0,7.9,16Z"/><path class="cls-6" d="M192.6,397.73a1.88,1.88,0,0,0-.34,0,13.87,13.87,0,0,0-7.08,3.88A28.92,28.92,0,0,0,197,415.79a10,10,0,0,0,3.55-2A89.8,89.8,0,0,1,192.6,397.73Z"/><path class="cls-9" d="M216.76,410.33c-2.71-4.31-5.26-8.74-7.74-13.18-1.08-.21-2.43-.8-3.51-.57a90.79,90.79,0,0,0,11,14.06C216.62,410.53,216.7,410.43,216.76,410.33Z"/><path class="cls-6" d="M205.51,396.58a1.67,1.67,0,0,0-.32.08,13.91,13.91,0,0,0-6.13,5.26,28.88,28.88,0,0,0,14.43,11.43,10,10,0,0,0,3.06-2.71A90.79,90.79,0,0,1,205.51,396.58Z"/><path class="cls-10" d="M232.09,371.36A19.62,19.62,0,0,1,217.51,377a30.92,30.92,0,0,1,.53-11.38,17,17,0,0,1,7.22-3.24C228.29,364.38,230.58,368.09,232.09,371.36Z"/><path class="cls-11" d="M237.94,380.52a24.33,24.33,0,0,1-5.18,15.34,13.8,13.8,0,0,1-3.63.27A70.43,70.43,0,0,1,232.94,380,10.9,10.9,0,0,1,237.94,380.52Z"/><path class="cls-6" d="M214.49,337.51v.26a69,69,0,0,0,2.19,21.94l.77-.34a68.44,68.44,0,0,1-2.15-21.28,26.53,26.53,0,0,1,5.77-1.6l0-.83a27.37,27.37,0,0,0-6.29,1.75Z"/><path class="cls-12" d="M202,345.35v-.21A70.92,70.92,0,0,0,197.68,321a33.35,33.35,0,0,1,8.51-2.79l.43-.07-.09-.42a63.86,63.86,0,0,1,2.56-33.69l-.84-.13a64.72,64.72,0,0,0-2.62,33.56,35.18,35.18,0,0,0-8.65,2.95l-.35.16.13.36a70,70,0,0,1,4.36,24,20,20,0,0,1-14.53,3.49c.1.3.19.61.29.91a17,17,0,0,0,2.67.21,21.14,21.14,0,0,0,12.23-4.06Z"/><path class="cls-12" d="M191.58,348.76c-.4-5.58-2.22-11-4-16.29-.37-1.12-.74-2.23-1.1-3.35-1.95-6.05-3.77-13.14-2.54-19.95-2-.81-4.52-1.66-6.6-1.46l-.05-.55c2.26-.22,5,.73,7.07,1.58l.21.09-.05.22c-1.28,6.75.54,13.85,2.49,19.9.35,1.12.73,2.23,1.1,3.34,1.77,5.3,3.6,10.78,4,16.43Z"/><path class="cls-12" d="M209.59,382.94A87.86,87.86,0,0,1,190,385.81c0,.13,0,.26,0,.39.88.64,1.57,1.67,2.45,2.31a59.23,59.23,0,0,0,20.41-2.84l.06-.34A36.16,36.16,0,0,1,209.59,382.94Z"/><path class="cls-13" d="M216.76,365.39c-.78-.72-3.4-1.14-4.91-1.23-.75,6.48-1.24,12.34-1.77,18.66-.16.05-.33.08-.49.12a36.16,36.16,0,0,0,3.38,2.39C214.06,378.81,215.69,371.89,216.76,365.39Z"/><path class="cls-14" d="M221.26,295.75c4.51,3.33,6,9.61,5.11,15.14s-3.92,10.48-7,15.17a191.23,191.23,0,0,0,1.5,29.49c-1,.38-2.37.76-3.36,1.14a76.11,76.11,0,0,1-1.6-32.55c5-5.43,6.66-14.18,4.67-21.29C220,300.76,221.19,297.93,221.26,295.75Z"/><path class="cls-15" d="M230.78,371.19a27.72,27.72,0,0,0-5.71-7.51,9.38,9.38,0,0,0-3.08,1.68,44.53,44.53,0,0,1,4.22,9.07c.1.12.34,0,.31-.14a.18.18,0,0,0-.33,0A32.85,32.85,0,0,0,230.78,371.19Z"/><path class="cls-16" d="M237.33,381.19a23.74,23.74,0,0,1-3.28,11.26,19.3,19.3,0,0,0,.48-9.18l-1.42-.66a4.58,4.58,0,0,0,.47-2.09A8.17,8.17,0,0,1,237.33,381.19Z"/><path class="cls-3" d="M228.45,266.84l-.21,0a23.8,23.8,0,0,0-2.68-.16,12.69,12.69,0,0,1-5.39-.91l.37-.74a12.16,12.16,0,0,0,5,.82c.85,0,1.71,0,2.55.13A66.51,66.51,0,0,0,244,234l.82.15a67.36,67.36,0,0,1-16.2,32.51Z"/><path class="cls-12" d="M220.17,265.75c-1.48-.72-3-1.41-4.44-2.1s-3-1.39-4.48-2.12l-.31-.15.1-.33a68.38,68.38,0,0,0,2.48-17.58,83.62,83.62,0,0,0-13.65-2.77l.09-.82a83.57,83.57,0,0,1,14.1,2.88l.3.09v.31a68.7,68.7,0,0,1-2.43,17.78c1.38.67,2.77,1.31,4.15,2s3,1.38,4.46,2.11Z"/><path class="cls-17" d="M242.61,242.26c-1.28,11-5.2,21.9-10.41,31.7,10.19-12.4,12.79-23.3,15.39-34.39-3.11-6-8.13-11.21-13.53-15.28,3,5.63,5.59,11,8.61,16.59Z"/></g></g></svg>