<svg id="Layer_1" data-name="Layer 1" xmlns="http://www.w3.org/2000/svg" xmlns:xlink="http://www.w3.org/1999/xlink" viewBox="0 0 543.42 656.85"><defs><style>.cls-1{fill:url(#linear-gradient);}.cls-2{fill:url(#linear-gradient-2);}.cls-3{fill:url(#linear-gradient-3);}.cls-4{fill:url(#linear-gradient-4);}.cls-5{fill:url(#linear-gradient-5);}.cls-6{fill:url(#radial-gradient);}.cls-7{fill:url(#linear-gradient-6);}.cls-8{fill:url(#linear-gradient-7);}.cls-9{fill:url(#radial-gradient-2);}.cls-10{fill:url(#linear-gradient-8);}.cls-11{fill:url(#linear-gradient-9);}.cls-12{fill:url(#linear-gradient-10);}.cls-13{fill:url(#linear-gradient-11);}.cls-14{fill:url(#linear-gradient-12);}.cls-15{fill:#7e7e81;}.cls-16{fill:url(#linear-gradient-13);}.cls-17{fill:url(#linear-gradient-14);}.cls-18{fill:url(#linear-gradient-15);}.cls-19{fill:url(#linear-gradient-16);}.cls-20{fill:#2b2c30;}.cls-21{fill:url(#linear-gradient-17);}.cls-22{fill:url(#linear-gradient-18);}.cls-23{fill:url(#linear-gradient-19);}.cls-24{fill:url(#linear-gradient-20);}.cls-25{fill:url(#linear-gradient-21);}.cls-26{fill:url(#linear-gradient-22);}.cls-27{fill:url(#linear-gradient-23);}.cls-28{fill:url(#linear-gradient-24);}.cls-29{fill:url(#linear-gradient-25);}.cls-30{fill:url(#linear-gradient-26);}.cls-31{fill:url(#linear-gradient-27);}.cls-32{fill:url(#linear-gradient-28);}.cls-33{fill:#fff;}.cls-34{fill:#20221d;}.cls-35{fill:#554536;}.cls-36{fill:url(#linear-gradient-29);}.cls-37{fill:url(#linear-gradient-30);}.cls-38{fill:url(#linear-gradient-31);}.cls-39{fill:url(#linear-gradient-32);}.cls-40{fill:url(#linear-gradient-33);}.cls-41{fill:#545559;}.cls-42{fill:url(#linear-gradient-34);}.cls-43{fill:url(#linear-gradient-35);}.cls-44{fill:url(#linear-gradient-36);}.cls-45{fill:url(#linear-gradient-37);}.cls-46{fill:url(#linear-gradient-38);}.cls-47{fill:url(#linear-gradient-39);}.cls-48{fill:url(#linear-gradient-40);}.cls-49{fill:url(#linear-gradient-41);}.cls-50{fill:url(#linear-gradient-42);}.cls-51{fill:#fffaf6;}.cls-52{fill:#907d6f;}</style><linearGradient id="linear-gradient" x1="304.35" y1="346.22" x2="311.62" y2="346.22" gradientTransform="translate(-37.92 -143.19) rotate(1.21)" gradientUnits="userSpaceOnUse"><stop offset="0.03" stop-color="#17161b"/><stop offset="0.97" stop-color="#13171a"/></linearGradient><linearGradient id="linear-gradient-2" x1="267.05" y1="201.55" x2="267.14" y2="198.25" gradientUnits="userSpaceOnUse"><stop offset="0.02" stop-color="#202427"/><stop offset="0.53" stop-color="#3f3d40"/><stop offset="0.67" stop-color="#3c3f45"/><stop offset="0.84" stop-color="#35383d"/><stop offset="1" stop-color="#26272b"/></linearGradient><linearGradient id="linear-gradient-3" x1="315.21" y1="350.07" x2="313.16" y2="376.64" gradientTransform="translate(-37.92 -143.19) rotate(1.21)" gradientUnits="userSpaceOnUse"><stop offset="0" stop-color="#241c24"/><stop offset="0.3" stop-color="#1e1d1b"/><stop offset="0.98" stop-color="#151419"/></linearGradient><linearGradient id="linear-gradient-4" x1="288.6" y1="360.42" x2="310.66" y2="374.65" gradientTransform="translate(-37.92 -143.19) rotate(1.21)" gradientUnits="userSpaceOnUse"><stop offset="0" stop-color="#7698a8"/><stop offset="0.3" stop-color="#14181b"/><stop offset="0.69" stop-color="#2a2c29"/><stop offset="0.98" stop-color="#2a2b30"/></linearGradient><linearGradient id="linear-gradient-5" x1="313.48" y1="349.17" x2="310.72" y2="374.13" gradientTransform="translate(-37.92 -143.19) rotate(1.21)" gradientUnits="userSpaceOnUse"><stop offset="0" stop-color="#413d3e"/><stop offset="0.31" stop-color="#363739"/><stop offset="0.69" stop-color="#2a2b30"/></linearGradient><radialGradient id="radial-gradient" cx="300.9" cy="362.58" r="22.94" gradientTransform="translate(-37.92 -143.19) rotate(1.21)" gradientUnits="userSpaceOnUse"><stop offset="0" stop-color="#101014"/><stop offset="0.31" stop-color="#19181e"/><stop offset="0.69" stop-color="#232325"/></radialGradient><linearGradient id="linear-gradient-6" x1="300.82" y1="348.41" x2="348.09" y2="348.41" gradientTransform="translate(-37.92 -143.19) rotate(1.21)" gradientUnits="userSpaceOnUse"><stop offset="0" stop-color="#191922"/><stop offset="0.13" stop-color="#171719"/><stop offset="0.28" stop-color="#171719"/><stop offset="0.42" stop-color="#2c2724"/><stop offset="0.56" stop-color="#63686b"/><stop offset="0.69" stop-color="#2b2727"/><stop offset="0.83" stop-color="#231e20"/></linearGradient><linearGradient id="linear-gradient-7" x1="300.46" y1="346.99" x2="344.67" y2="346.99" gradientTransform="translate(-37.92 -143.19) rotate(1.21)" gradientUnits="userSpaceOnUse"><stop offset="0" stop-color="#4f5d63"/><stop offset="0.07" stop-color="#1e1e24"/><stop offset="0.19" stop-color="#212224"/><stop offset="0.34" stop-color="#28282a"/><stop offset="0.43" stop-color="#3f3a3e"/><stop offset="0.53" stop-color="#6a6965"/><stop offset="0.64" stop-color="#5a5551"/><stop offset="0.76" stop-color="#504c4b"/><stop offset="0.88" stop-color="#3f3533"/><stop offset="0.97" stop-color="#242020"/></linearGradient><radialGradient id="radial-gradient-2" cx="354.15" cy="334.18" r="8.96" gradientTransform="translate(-37.92 -143.19) rotate(1.21)" gradientUnits="userSpaceOnUse"><stop offset="0.07" stop-color="#4b3e34"/><stop offset="0.5" stop-color="#5e5449"/><stop offset="0.82" stop-color="#66544a"/></radialGradient><linearGradient id="linear-gradient-8" x1="360.4" y1="347.13" x2="360.87" y2="328.37" gradientTransform="translate(-37.92 -143.19) rotate(1.21)" gradientUnits="userSpaceOnUse"><stop offset="0" stop-color="#66544a"/><stop offset="0.44" stop-color="#5e5449"/><stop offset="0.98" stop-color="#4b3e34"/></linearGradient><linearGradient id="linear-gradient-9" x1="355.17" y1="348.01" x2="355.32" y2="342.07" gradientTransform="matrix(1.01, 0.02, -0.02, 1, -42.63, -143.29)" gradientUnits="userSpaceOnUse"><stop offset="0" stop-color="#4a3c33"/><stop offset="0.44" stop-color="#54463d"/><stop offset="0.98" stop-color="#6d5d4f"/></linearGradient><linearGradient id="linear-gradient-10" x1="356.85" y1="320.55" x2="362.78" y2="320.55" gradientTransform="translate(-37.92 -143.19) rotate(1.21)" gradientUnits="userSpaceOnUse"><stop offset="0" stop-color="#1d1815"/><stop offset="0.58" stop-color="#1d1c1a"/><stop offset="1" stop-color="#0d0a0a"/></linearGradient><linearGradient id="linear-gradient-11" x1="345.97" y1="345.29" x2="345.49" y2="339.48" gradientTransform="translate(-37.92 -143.19) rotate(1.21)" gradientUnits="userSpaceOnUse"><stop offset="0.09" stop-color="#242224"/><stop offset="0.83" stop-color="#171719"/></linearGradient><linearGradient id="linear-gradient-12" x1="344.48" y1="344.71" x2="344.08" y2="339.84" gradientTransform="translate(-37.92 -143.19) rotate(1.21)" gradientUnits="userSpaceOnUse"><stop offset="0.09" stop-color="#2c3033"/><stop offset="0.83" stop-color="#1b1f22"/></linearGradient><linearGradient id="linear-gradient-13" x1="330.26" y1="341.97" x2="345.33" y2="341.83" xlink:href="#linear-gradient-11"/><linearGradient id="linear-gradient-14" x1="323.03" y1="341.28" x2="333.27" y2="341.18" gradientTransform="translate(-37.92 -143.19) rotate(1.21)" gradientUnits="userSpaceOnUse"><stop offset="0.02" stop-color="#514f4f"/><stop offset="0.83" stop-color="#393534"/></linearGradient><linearGradient id="linear-gradient-15" x1="310.03" y1="343.25" x2="327.13" y2="340.91" gradientTransform="translate(-37.92 -143.19) rotate(1.21)" gradientUnits="userSpaceOnUse"><stop offset="0.02" stop-color="#181417"/><stop offset="0.83" stop-color="#666764"/></linearGradient><linearGradient id="linear-gradient-16" x1="318.26" y1="330.28" x2="332.46" y2="337.91" gradientTransform="translate(-37.92 -143.19) rotate(1.21)" gradientUnits="userSpaceOnUse"><stop offset="0.02" stop-color="#111014"/><stop offset="1" stop-color="#312f32"/></linearGradient><linearGradient id="linear-gradient-17" x1="317.86" y1="338.82" x2="322.13" y2="332.78" gradientTransform="translate(-37.92 -143.19) rotate(1.21)" xlink:href="#linear-gradient-2"/><linearGradient id="linear-gradient-18" x1="313.07" y1="337.77" x2="313.37" y2="343.43" gradientTransform="translate(-37.92 -143.19) rotate(1.21)" gradientUnits="userSpaceOnUse"><stop offset="0.03" stop-color="#626765"/><stop offset="0.98" stop-color="#25262a"/></linearGradient><linearGradient id="linear-gradient-19" x1="310.73" y1="334.81" x2="314.02" y2="338.35" gradientTransform="translate(-37.92 -143.19) rotate(1.21)" gradientUnits="userSpaceOnUse"><stop offset="0.03" stop-color="#232b2d"/><stop offset="0.99" stop-color="#313236"/></linearGradient><linearGradient id="linear-gradient-20" x1="309.63" y1="345.01" x2="309.82" y2="336.23" gradientTransform="translate(-37.92 -143.19) rotate(1.21)" gradientUnits="userSpaceOnUse"><stop offset="0.03" stop-color="#1f262e"/><stop offset="0.28" stop-color="#202123"/><stop offset="0.65" stop-color="#151a21"/><stop offset="0.99" stop-color="#1f262e"/></linearGradient><linearGradient id="linear-gradient-21" x1="306.28" y1="345.05" x2="306.47" y2="336.17" gradientTransform="translate(-37.92 -143.19) rotate(1.21)" gradientUnits="userSpaceOnUse"><stop offset="0" stop-color="#393b40"/><stop offset="0.16" stop-color="#2a2e31"/><stop offset="0.52" stop-color="#2a2e31"/><stop offset="0.67" stop-color="#3c3f45"/><stop offset="0.84" stop-color="#35383d"/><stop offset="1" stop-color="#26272b"/></linearGradient><linearGradient id="linear-gradient-22" x1="302.38" y1="337.68" x2="302.45" y2="334.69" gradientTransform="translate(-37.92 -143.19) rotate(1.21)" gradientUnits="userSpaceOnUse"><stop offset="0" stop-color="#3f4348"/><stop offset="1" stop-color="#2d3035"/></linearGradient><linearGradient id="linear-gradient-23" x1="300.26" y1="345.78" x2="300.48" y2="335.54" xlink:href="#linear-gradient-20"/><linearGradient id="linear-gradient-24" x1="291.05" y1="338" x2="291.36" y2="323.4" gradientTransform="translate(-37.92 -143.19) rotate(1.21)" gradientUnits="userSpaceOnUse"><stop offset="0.03" stop-color="#7c6959"/><stop offset="0.4" stop-color="#605248"/><stop offset="0.98" stop-color="#856e5a"/></linearGradient><linearGradient id="linear-gradient-25" x1="290.65" y1="346.2" x2="290.89" y2="335.05" gradientTransform="translate(-37.92 -143.19) rotate(1.21)" gradientUnits="userSpaceOnUse"><stop offset="0" stop-color="#574c42"/><stop offset="0.26" stop-color="#4f4138"/><stop offset="0.75" stop-color="#856e5a"/></linearGradient><linearGradient id="linear-gradient-26" x1="278.57" y1="331.36" x2="284.68" y2="331.36" gradientTransform="translate(-37.92 -143.19) rotate(1.21)" gradientUnits="userSpaceOnUse"><stop offset="0" stop-color="#392e2c"/><stop offset="0.45" stop-color="#4c3e33"/><stop offset="1" stop-color="#655244"/></linearGradient><linearGradient id="linear-gradient-27" x1="275.61" y1="327.46" x2="301.5" y2="339.93" gradientTransform="translate(-37.92 -143.19) rotate(1.21)" gradientUnits="userSpaceOnUse"><stop offset="0" stop-color="#776556"/><stop offset="0.45" stop-color="#a99482"/><stop offset="1" stop-color="#7b6959"/></linearGradient><linearGradient id="linear-gradient-28" x1="278.63" y1="314.03" x2="285.62" y2="314.03" gradientTransform="translate(-37.92 -143.19) rotate(1.21)" gradientUnits="userSpaceOnUse"><stop offset="0" stop-color="#1d1815"/><stop offset="0.63" stop-color="#1d1c1a"/><stop offset="1" stop-color="#0d0a0a"/></linearGradient><linearGradient id="linear-gradient-29" x1="303.26" y1="341.26" x2="303.32" y2="338.28" gradientTransform="translate(-37.92 -143.19) rotate(1.21)" gradientUnits="userSpaceOnUse"><stop offset="0" stop-color="#404349"/><stop offset="1" stop-color="#585b60"/></linearGradient><linearGradient id="linear-gradient-30" x1="302.64" y1="344.68" x2="302.7" y2="341.86" gradientTransform="translate(-37.92 -143.19) rotate(1.21)" gradientUnits="userSpaceOnUse"><stop offset="0" stop-color="#222629"/><stop offset="1" stop-color="#2b2f32"/></linearGradient><linearGradient id="linear-gradient-31" x1="301.4" y1="346.73" x2="301.44" y2="344.94" xlink:href="#linear-gradient-30"/><linearGradient id="linear-gradient-32" x1="312.4" y1="342.16" x2="312.64" y2="346.6" xlink:href="#linear-gradient"/><linearGradient id="linear-gradient-33" x1="310.63" y1="344.75" x2="310.7" y2="346.17" xlink:href="#linear-gradient"/><linearGradient id="linear-gradient-34" x1="323.59" y1="328.66" x2="329.02" y2="329.93" gradientTransform="translate(-37.92 -143.19) rotate(1.21)" gradientUnits="userSpaceOnUse"><stop offset="0.02" stop-color="#212327"/><stop offset="0.31" stop-color="#3a3d43"/><stop offset="0.67" stop-color="#202125"/></linearGradient><linearGradient id="linear-gradient-35" x1="332.1" y1="331.7" x2="336.98" y2="335.24" xlink:href="#linear-gradient-34"/><linearGradient id="linear-gradient-36" x1="317.87" y1="338.88" x2="324.85" y2="337.74" gradientTransform="translate(-37.92 -143.19) rotate(1.21)" gradientUnits="userSpaceOnUse"><stop offset="0.02" stop-color="#1b1312"/><stop offset="1" stop-color="#706f6d"/></linearGradient><linearGradient id="linear-gradient-37" x1="326.4" y1="337.84" x2="332.46" y2="337.87" gradientTransform="translate(-37.92 -143.19) rotate(1.21)" gradientUnits="userSpaceOnUse"><stop offset="0.02" stop-color="#474543"/><stop offset="1" stop-color="#434144"/></linearGradient><linearGradient id="linear-gradient-38" x1="335.29" y1="338.68" x2="343.49" y2="338.72" xlink:href="#linear-gradient-37"/><linearGradient id="linear-gradient-39" x1="341.99" y1="342.76" x2="343.75" y2="342.76" xlink:href="#linear-gradient-11"/><linearGradient id="linear-gradient-40" x1="346.3" y1="340.72" x2="346.14" y2="338.77" xlink:href="#linear-gradient-12"/><linearGradient id="linear-gradient-41" x1="347.13" y1="343.89" x2="346.92" y2="341.31" xlink:href="#linear-gradient-12"/><linearGradient id="linear-gradient-42" x1="347.16" y1="346.63" x2="346.99" y2="344.6" xlink:href="#linear-gradient-12"/></defs><title>Master</title><polygon class="cls-1" points="259.9 209.02 258.98 210.72 265.5 209.39 266.31 208.23 259.9 209.02"/><polygon class="cls-2" points="267.35 197.61 266.82 198.1 266.58 198.15 264.79 200.48 265.58 201.72 267.68 201.14 269.43 198.31 267.35 197.61"/><path class="cls-3" d="M265.94,241.93l2.26-.67L271.88,211h-2.64S265.94,222.79,265.94,241.93Z"/><path class="cls-4" d="M250.09,224.55l-2.18,1.69s4.22,8,18,15.73l-.23-3.14-.87-3.76Z"/><path class="cls-5" d="M266.53,211.75s-1.79,12.28-2.77,24.46l2.13,5.76s1.14-20.16,3.77-31Z"/><path class="cls-6" d="M256.44,214.77l-6.35,9.78s7.94,8,13.83,11l2.61-23.85Z"/><path class="cls-7" d="M255.38,214.21l1.59.84a49.11,49.11,0,0,1,15.33-4c9-.9,29.62,2.26,29.62,2.26l.81-1.91L292,209.72l-11.81-1.17-11.93.92L257,212.94Z"/><path class="cls-8" d="M299.23,211.19a140,140,0,0,0-14.12-1.72c-5.39-.22-9.38-.87-20.14,1.36,0,0-6.82,1.28-9.59,3.37l-.4-1.39s2.61-2.19,9-3.54,11-3.09,17.74-2.69,15.85,2,15.85,2Z"/><path class="cls-9" d="M301.38,203.46s5.19,0,7.83-1.54,2.75-9.83,2.75-9.83l2.39-3.72,2.42,3.88-.27,12.6-6.05,3.77-8.11-.17Z"/><path class="cls-10" d="M314.94,189.46s1,6.15.46,9.45a19,19,0,0,1-2.54,6.41s-2.23,2.58-.43,4.25a25.22,25.22,0,0,0,4.7,3.16s1.64-6.78,1.73-8.55a76.36,76.36,0,0,0-.87-11.4,10.79,10.79,0,0,0-2.32-3.66Z"/><path class="cls-11" d="M317.11,212.73l-14.84-.45s.37-5,.35-5.61l1.87,0,8.3-1.39S314.12,210.8,317.11,212.73Z"/><path class="cls-12" d="M312.23,176.45l-.34,16.06a1.15,1.15,0,0,0,1.4-.28s1.43.19,1.81-.67,0-1.69.47-1.58.41.68.35,1.29.18,2.85,1.89,1.82l-.09-2.63-1.62-6.56-2.21-5.18Z"/><polygon class="cls-13" points="299.44 202.73 299.21 203.27 300.11 209.95 301.19 210.51 301.42 204.46 299.44 202.73"/><path class="cls-14" d="M297.39,203.23l1.82,0a9.64,9.64,0,0,1,1.31,6.38l-1.61-.26Z"/><polygon class="cls-15" points="296.14 203.2 297.39 203.23 299.57 208.91 302.73 211.36 299.21 211.28 297.03 209.22 296.14 203.2"/><path class="cls-16" d="M296.78,204.24l-.1,5s-5.57-1-11-1.59l.11-5.33S292.7,202.7,296.78,204.24Z"/><polygon class="cls-17" points="278.26 207.32 285.71 207.65 285.82 202.32 278.33 202.17 278.26 207.32"/><path class="cls-18" d="M278.37,202.16l-.11,5.16s-9,.88-12.76,2.07l3.45-6.24Z"/><polygon class="cls-19" points="270.23 193.16 283.44 200.87 286.2 200.88 280.61 196.54 275.04 194.21 270.23 193.16"/><path class="cls-20" d="M294.85,202.87s-9.39-7.53-18.35-8.83-6.28-.88-6.28-.88,5.82,1.24,8.54,2.83,6.19,4,6.94,5C285.7,201,292.92,202.06,294.85,202.87Z"/><path class="cls-21" d="M266.82,198.1s1.39-3.86,3.4-4.94c0,0,11.09,4.53,13.22,7.71l-4.9-.1s-2.55-.19-8.46,1.57l-1,0Z"/><path class="cls-22" d="M269.11,200.29a15.41,15.41,0,0,1,.24,4.64H266.6l-.13-4.45Z"/><polygon class="cls-23" points="269.19 200.28 266.58 198.15 264.39 198.56 266.55 200.46 269.19 200.28"/><path class="cls-24" d="M263.6,198.92s.73-.82,1.47-.19a10.07,10.07,0,0,1,1.56,2l0,4.17-1.66,3-1.62,1.21-1.3,0Z"/><path class="cls-25" d="M263.6,198.92s2.32,1.34,1.93,5.35-3.44,4.79-3.44,4.79l-5.52-.11.45-10.78Z"/><path class="cls-26" d="M255.42,197.44l1.59,0a11.66,11.66,0,0,1,2.17,3.67l-1.9,0Z"/><path class="cls-27" d="M254,199.08a2.83,2.83,0,0,1,1.41-1.64,27.46,27.46,0,0,1,1.86,3.68s-.17,3.16-.24,3.53-1,4.1-2.53,5.17c0,0-.11.22-1.13-.68S254,199.08,254,199.08Z"/><path class="cls-28" d="M255.64,201.38a4.27,4.27,0,0,0-1.65-2.33s-6.27-.39-8.13-1.76-3.24-3-4.21-7-1.25-5.93-1.25-5.93l-2.44-.05-1.16,1.23-.28,13.27,3.92,3.3Z"/><path class="cls-29" d="M253.36,209.1l-18.31.28,4.43-8.9,16.16.84A8.37,8.37,0,0,1,253.36,209.1Z"/><path class="cls-30" d="M233.92,184.91s-1.35,18.76,1.18,24.47c0,0,4.46-4.63,4.44-8.85L237.7,188l.2-9.24A11.55,11.55,0,0,0,233.92,184.91Z"/><path class="cls-31" d="M237.86,188.08s-1.2,9.83,1.67,12.4S255,202,255,202l-.93-1.17s-12,.63-13.2-1.24-2.51-5.78-2.08-11.45Z"/><path class="cls-32" d="M233.78,186.66s2.14.1,1.91-3.32,1.51-.94,1.15,0a1.63,1.63,0,0,0,2.07,2.09s1.26,1.22,1.77.71-.71-14.83-.71-14.83l-.16-4.51S234.71,171.87,233.78,186.66Z"/><path class="cls-33" d="M239.81,166.82s-1,17.13,2.71,26.26c0,0-2.19-5.49-2-25.36Z"/><ellipse class="cls-34" cx="237.7" cy="187.93" rx="1.19" ry="0.95" transform="translate(44.77 421.59) rotate(-88.79)"/><path class="cls-35" d="M249.8,199.8s-2.3,3.44-2.7,3.77S248.77,202.83,249.8,199.8Z"/><polygon class="cls-35" points="242.4 193.25 240.61 195.08 242.52 193.47 242.4 193.25"/><polygon class="cls-36" points="258.9 204.74 257.02 204.65 257.26 201.12 259.18 201.14 258.9 204.74"/><polygon class="cls-37" points="257.71 208.11 258.9 204.75 257.02 204.66 255.93 207.84 257.71 208.11"/><polygon class="cls-38" points="257.71 208.11 256.24 210.03 254.49 209.82 255.93 207.84 257.71 208.11"/><polygon class="cls-39" points="269.36 204.92 267.32 208.52 265.02 207.87 266.68 204.89 269.36 204.92"/><polygon class="cls-40" points="263.39 209.09 267.32 208.52 265.02 207.87 263.39 209.09"/><polygon class="cls-41" points="275.77 200.76 271.49 195.84 276.89 200.78 275.77 200.76"/><path class="cls-42" d="M277.49,194.08l4-4.34.45,6.27A4.77,4.77,0,0,1,277.49,194.08Z"/><path class="cls-43" d="M285.35,197.46l5.54-3.12-1,6.31S286.21,199.89,285.35,197.46Z"/><path class="cls-44" d="M269.42,203.83a49.34,49.34,0,0,1,8.95-1.64l0-1.47s-6.26.32-9,1.59Z"/><polygon class="cls-45" points="286.22 200.88 286.19 202.17 286.19 202.33 278.33 202.16 278.36 200.72 286.22 200.88"/><path class="cls-46" d="M286.19,202.33s7.5.82,10.59,1.91c0,0-.31-.9-.64-1a79.46,79.46,0,0,0-9.92-2.32Z"/><polygon class="cls-47" points="296.78 204.24 298.44 209.15 296.68 209.24 296.78 204.24"/><path class="cls-48" d="M299.44,202.73l1.61-.19,1.56,2.56-1.81,0a10.27,10.27,0,0,0-1.27-2.09Z"/><polygon class="cls-49" points="300.93 208.43 302.54 208.47 302.61 205.1 300.8 205.06 300.93 208.43"/><path class="cls-50" d="M300.9,209.94l0-1.51,1.61,0a12.58,12.58,0,0,1-.15,2.62Z"/><path class="cls-51" d="M317.69,211.42s2.55-8,.43-20.41-5.89-14.56-5.89-14.56V177s2.76,3.14,4.92,12.27S317.69,211.42,317.69,211.42Z"/><path class="cls-52" d="M315.45,195.62s.18,9.21-5.6,9.64l-7,.53.17,1.33s9.3-.34,9.94-1.55S315.73,203.49,315.45,195.62Z"/></svg>