<svg xmlns="http://www.w3.org/2000/svg" xmlns:xlink="http://www.w3.org/1999/xlink" viewBox="0 0 543.42 656.85"><defs><style>.cls-1{isolation:isolate;}.cls-2{fill:url(#_ÂÁ_Ï_ÌÌ_È_ËÂÌÚ_4);}.cls-3{fill:#d7d7d7;}.cls-4{fill:#2b3e51;}.cls-5{fill:url(#_ÂÁ_Ï_ÌÌ_È_ËÂÌÚ_4-2);}.cls-6{fill:url(#_ÂÁ_Ï_ÌÌ_È_ËÂÌÚ_2);}.cls-7{fill:url(#_ÂÁ_Ï_ÌÌ_È_ËÂÌÚ_2-2);}.cls-14,.cls-15,.cls-16,.cls-17,.cls-19,.cls-22,.cls-23,.cls-28,.cls-8{mix-blend-mode:screen;}.cls-8{fill:url(#_ÂÁ_Ï_ÌÌ_È_ËÂÌÚ_40);}.cls-9{fill:url(#_ÂÁ_Ï_ÌÌ_È_ËÂÌÚ_2-3);}.cls-10{fill:url(#_ÂÁ_Ï_ÌÌ_È_ËÂÌÚ_4-3);}.cls-11{fill:url(#_ÂÁ_Ï_ÌÌ_È_ËÂÌÚ_2-4);}.cls-12{fill:#4c6e74;}.cls-13{fill:url(#_ÂÁ_Ï_ÌÌ_È_ËÂÌÚ_4-4);}.cls-14{fill:url(#_ÂÁ_Ï_ÌÌ_È_ËÂÌÚ_40-2);}.cls-15{fill:url(#_ÂÁ_Ï_ÌÌ_È_ËÂÌÚ_40-3);}.cls-16{fill:url(#_ÂÁ_Ï_ÌÌ_È_ËÂÌÚ_40-4);}.cls-17{fill:url(#_ÂÁ_Ï_ÌÌ_È_ËÂÌÚ_40-5);}.cls-18{fill:url(#_ÂÁ_Ï_ÌÌ_È_ËÂÌÚ_4-5);}.cls-19{fill:url(#_ÂÁ_Ï_ÌÌ_È_ËÂÌÚ_40-6);}.cls-20{fill:url(#_ÂÁ_Ï_ÌÌ_È_ËÂÌÚ_2-5);}.cls-21{fill:url(#_ÂÁ_Ï_ÌÌ_È_ËÂÌÚ_2-6);}.cls-22{fill:url(#_ÂÁ_Ï_ÌÌ_È_ËÂÌÚ_40-7);}.cls-23{fill:url(#_ÂÁ_Ï_ÌÌ_È_ËÂÌÚ_40-8);}.cls-24{fill:url(#_ÂÁ_Ï_ÌÌ_È_ËÂÌÚ_160);}.cls-25{fill:#fff;}.cls-26{fill:url(#_ÂÁ_Ï_ÌÌ_È_ËÂÌÚ_4-6);}.cls-27{fill:url(#_ÂÁ_Ï_ÌÌ_È_ËÂÌÚ_160-2);}.cls-28{fill:url(#_ÂÁ_Ï_ÌÌ_È_ËÂÌÚ_166);}</style><linearGradient id="_ÂÁ_Ï_ÌÌ_È_ËÂÌÚ_4" x1="304.76" y1="233.69" x2="262.93" y2="304.85" gradientUnits="userSpaceOnUse"><stop offset="0.04" stop-color="#fff"/><stop offset="0.3" stop-color="#fbfbfb"/><stop offset="0.55" stop-color="#efefef"/><stop offset="0.7" stop-color="#e5e5e4"/><stop offset="0.8" stop-color="#dfdfde"/><stop offset="1" stop-color="#d7d7d7"/></linearGradient><linearGradient id="_ÂÁ_Ï_ÌÌ_È_ËÂÌÚ_4-2" x1="273.13" y1="414.78" x2="225.44" y2="472.7" xlink:href="#_ÂÁ_Ï_ÌÌ_È_ËÂÌÚ_4"/><linearGradient id="_ÂÁ_Ï_ÌÌ_È_ËÂÌÚ_2" x1="259.63" y1="453.87" x2="232.66" y2="496.17" gradientUnits="userSpaceOnUse"><stop offset="0" stop-color="#f3f3f3"/><stop offset="0.42" stop-color="#b6c6c6"/><stop offset="0.84" stop-color="#759696"/></linearGradient><linearGradient id="_ÂÁ_Ï_ÌÌ_È_ËÂÌÚ_2-2" x1="308.92" y1="295.28" x2="282.09" y2="330.77" xlink:href="#_ÂÁ_Ï_ÌÌ_È_ËÂÌÚ_2"/><linearGradient id="_ÂÁ_Ï_ÌÌ_È_ËÂÌÚ_40" x1="304.66" y1="288.9" x2="295.22" y2="335.08" gradientUnits="userSpaceOnUse"><stop offset="0.17" stop-color="#beb48e"/><stop offset="0.26" stop-color="#b4ab87"/><stop offset="0.41" stop-color="#9a9273"/><stop offset="0.6" stop-color="#6f6953"/><stop offset="0.82" stop-color="#343127"/><stop offset="1" stop-color="#010101"/></linearGradient><linearGradient id="_ÂÁ_Ï_ÌÌ_È_ËÂÌÚ_2-3" x1="266.93" y1="379.71" x2="243.36" y2="416.61" xlink:href="#_ÂÁ_Ï_ÌÌ_È_ËÂÌÚ_2"/><linearGradient id="_ÂÁ_Ï_ÌÌ_È_ËÂÌÚ_4-3" x1="316.71" y1="401.75" x2="283.5" y2="467.04" xlink:href="#_ÂÁ_Ï_ÌÌ_È_ËÂÌÚ_4"/><linearGradient id="_ÂÁ_Ï_ÌÌ_È_ËÂÌÚ_2-4" x1="303.29" y1="227.88" x2="284.37" y2="248.32" xlink:href="#_ÂÁ_Ï_ÌÌ_È_ËÂÌÚ_2"/><linearGradient id="_ÂÁ_Ï_ÌÌ_È_ËÂÌÚ_4-4" x1="290.84" y1="203.91" x2="264.91" y2="254.26" xlink:href="#_ÂÁ_Ï_ÌÌ_È_ËÂÌÚ_4"/><linearGradient id="_ÂÁ_Ï_ÌÌ_È_ËÂÌÚ_40-2" x1="296.36" y1="201.66" x2="285.29" y2="223.24" xlink:href="#_ÂÁ_Ï_ÌÌ_È_ËÂÌÚ_40"/><linearGradient id="_ÂÁ_Ï_ÌÌ_È_ËÂÌÚ_40-3" x1="298.75" y1="224.02" x2="293" y2="250.82" xlink:href="#_ÂÁ_Ï_ÌÌ_È_ËÂÌÚ_40"/><linearGradient id="_ÂÁ_Ï_ÌÌ_È_ËÂÌÚ_40-4" x1="302.28" y1="237.38" x2="288.46" y2="269.55" xlink:href="#_ÂÁ_Ï_ÌÌ_È_ËÂÌÚ_40"/><linearGradient id="_ÂÁ_Ï_ÌÌ_È_ËÂÌÚ_40-5" x1="329.13" y1="245.81" x2="299.03" y2="291.8" xlink:href="#_ÂÁ_Ï_ÌÌ_È_ËÂÌÚ_40"/><linearGradient id="_ÂÁ_Ï_ÌÌ_È_ËÂÌÚ_4-5" x1="308.36" y1="317.73" x2="280.46" y2="356.96" xlink:href="#_ÂÁ_Ï_ÌÌ_È_ËÂÌÚ_4"/><linearGradient id="_ÂÁ_Ï_ÌÌ_È_ËÂÌÚ_40-6" x1="314.03" y1="301.78" x2="287.49" y2="350.33" xlink:href="#_ÂÁ_Ï_ÌÌ_È_ËÂÌÚ_40"/><linearGradient id="_ÂÁ_Ï_ÌÌ_È_ËÂÌÚ_2-5" x1="315.35" y1="376.35" x2="300.3" y2="414.39" xlink:href="#_ÂÁ_Ï_ÌÌ_È_ËÂÌÚ_2"/><linearGradient id="_ÂÁ_Ï_ÌÌ_È_ËÂÌÚ_2-6" x1="337.39" y1="451.34" x2="317.8" y2="485.97" xlink:href="#_ÂÁ_Ï_ÌÌ_È_ËÂÌÚ_2"/><linearGradient id="_ÂÁ_Ï_ÌÌ_È_ËÂÌÚ_40-7" x1="265.01" y1="397.62" x2="252.52" y2="489.03" xlink:href="#_ÂÁ_Ï_ÌÌ_È_ËÂÌÚ_40"/><linearGradient id="_ÂÁ_Ï_ÌÌ_È_ËÂÌÚ_40-8" x1="307.43" y1="407.56" x2="307.14" y2="452.42" xlink:href="#_ÂÁ_Ï_ÌÌ_È_ËÂÌÚ_40"/><radialGradient id="_ÂÁ_Ï_ÌÌ_È_ËÂÌÚ_160" cx="300.89" cy="209.79" r="27.25" gradientUnits="userSpaceOnUse"><stop offset="0.01" stop-color="#21577e"/><stop offset="0.25" stop-color="#1f4f77"/><stop offset="0.63" stop-color="#1b3b62"/><stop offset="1" stop-color="#162048"/></radialGradient><linearGradient id="_ÂÁ_Ï_ÌÌ_È_ËÂÌÚ_4-6" x1="423.06" y1="254.91" x2="410.16" y2="274.64" gradientTransform="matrix(1.01, 0, 0.13, 0.99, -153.66, 12.88)" xlink:href="#_ÂÁ_Ï_ÌÌ_È_ËÂÌÚ_4"/><radialGradient id="_ÂÁ_Ï_ÌÌ_È_ËÂÌÚ_160-2" cx="420.93" cy="257.83" r="17.25" gradientTransform="matrix(1.01, 0, 0.13, 0.99, -153.66, 12.88)" xlink:href="#_ÂÁ_Ï_ÌÌ_È_ËÂÌÚ_160"/><linearGradient id="_ÂÁ_Ï_ÌÌ_È_ËÂÌÚ_166" x1="424.12" y1="255.97" x2="413.08" y2="269.17" gradientTransform="matrix(1.01, 0, 0.13, 0.99, -153.66, 12.88)" gradientUnits="userSpaceOnUse"><stop offset="0" stop-color="#848175"/><stop offset="0.73" stop-color="#252421"/><stop offset="1" stop-color="#010101"/></linearGradient></defs><title>Master</title><g class="cls-1"><g id="Layer_1" data-name="Layer 1"><path class="cls-2" d="M321.64,247.38a94.17,94.17,0,0,0-11.44-4.06c-.57-.88-1.16-1.86-1.7-2.65a253.13,253.13,0,0,0-52-5.29l-4.64,3.7a107.19,107.19,0,0,0-12.57,3.09c-8.37,9.07-14.37,25.21-8.29,35.94a84.37,84.37,0,0,0,30,30.69c19.31,2.73,43.72,2.73,62.61-2.53C332,283.89,333.33,262,321.64,247.38Z"/><path class="cls-3" d="M261.79,242l-1.33,1.13A59.32,59.32,0,0,0,279.24,258c-.12.63-.29,1.25-.42,1.88a48.78,48.78,0,0,1-26-20.56c1.22-1.05,2.19-2.14,3.42-3.19,2.3-.07,4.6-.08,6.9-.14a12.47,12.47,0,0,1,.74,3.15,2.45,2.45,0,0,1,0,.81C263.68,240.63,262.33,241.52,261.79,242Z"/><path class="cls-3" d="M280.76,308c-7.9-.3-15.19-4.72-20.61-10.47s-8.93-12.28-12.7-19.23a53.33,53.33,0,0,0,1.92-38.77c-3.25.67-6.6,1.52-10.1,2.6-8.37,9.07-14.37,25.21-8.29,35.94a84.37,84.37,0,0,0,30,30.69c19.31,2.73,43.72,2.73,62.61-2.53.29-.79.57-1.58.85-2.36C309.78,305.22,295.53,308.6,280.76,308Z"/><path class="cls-3" d="M280.46,273.13l-.09-.17-.17-.08A154.85,154.85,0,0,0,245,261.56l-.21,1.09a153.66,153.66,0,0,1,34.73,11.16A115.25,115.25,0,0,1,288.15,298l1.07-.27A115.29,115.29,0,0,0,280.46,273.13Z"/><path class="cls-3" d="M328.63,261.61c-.11-.41-.22-.81-.34-1.21a9.44,9.44,0,0,1-.87.78,70.73,70.73,0,0,1-11.58,7.95l-.28.15,0,.32a106.27,106.27,0,0,1-5.15,28.21l1.06.34A107.73,107.73,0,0,0,316.64,270a73.15,73.15,0,0,0,11.47-7.92C328.29,261.91,328.46,261.76,328.63,261.61Z"/><path class="cls-4" d="M306.87,347.6a178.38,178.38,0,0,0-4.39,51.86c-3,1-6,1.11-9,2.07a144.06,144.06,0,0,1,6.3-47C300.79,351.16,304,349.55,306.87,347.6Z"/><path class="cls-5" d="M265.7,479.16a456,456,0,0,1-3-74,31.47,31.47,0,0,0-27.26-.12,251.55,251.55,0,0,0-10.19,76.53c2.43,2.31,5.15,3.72,9.11,5.06l20.06.75C260.18,485.14,263.49,482.44,265.7,479.16Z"/><path class="cls-3" d="M256.48,413.63c.78-3.52,1.68-6.88,1.53-10.29a31.48,31.48,0,0,0-22.56,1.72,251.55,251.55,0,0,0-10.19,76.53c2.43,2.31,5.15,3.72,9.11,5.06l3.41.13a99.76,99.76,0,0,0,.3-26.46c-1.75,1.23-3.16,2.82-4.91,4.05A155.71,155.71,0,0,1,239.46,413Z"/><path class="cls-6" d="M247.9,495.06a22.61,22.61,0,0,0,8.64-9A161.13,161.13,0,0,0,248.93,461a27,27,0,0,0-10.91-.81,76.78,76.78,0,0,0-7.23,25.26s1.94,6.31,4.06,8.67C238.8,495.25,247.9,495.06,247.9,495.06Z"/><path class="cls-3" d="M310.38,331a5.22,5.22,0,0,1,2.77.93,55.41,55.41,0,0,1-3.63,13,18,18,0,0,1-8.93,9.22A103.24,103.24,0,0,1,310.38,331Z"/><path class="cls-7" d="M313.13,308.27A57.84,57.84,0,0,1,307,331.94a44.7,44.7,0,0,1-33.46-2.66A101.16,101.16,0,0,0,272,310a13.78,13.78,0,0,0,10.83-3.07,14.91,14.91,0,0,0,5.49-10.36,44.9,44.9,0,0,1,22.85-1.36A34,34,0,0,1,313.13,308.27Z"/><path class="cls-8" d="M307.36,331a48.27,48.27,0,0,1-14.15-.13,177.07,177.07,0,0,0-3-33.69,55.54,55.54,0,0,1,20.52-1.53C313.83,307,312.38,320.21,307.36,331Z"/><path class="cls-3" d="M283.65,328.11a55.38,55.38,0,0,0-17.57,2.63,65.21,65.21,0,0,1,1.55,13.42c0,3,2.95,5.65,5.55,7.37a15.39,15.39,0,0,0,9,2.51C282.68,352.18,283.54,334.58,283.65,328.11Z"/><path class="cls-3" d="M311.67,329.14c-2.2,10.13-6.34,21.65-12.93,29.64a40.59,40.59,0,0,1-15.84-.4,131.38,131.38,0,0,1-1.9-29.24c4.1-2.24,7.34-6.07,10.24-9.72,5-1,10.35-.83,15.41-.36A25.65,25.65,0,0,1,311.67,329.14Z"/><path class="cls-4" d="M260.24,393.44a318.63,318.63,0,0,1,16-41.91,7.78,7.78,0,0,0-5.54-3.93,284.81,284.81,0,0,0-20.38,42.8C253.35,391.29,257.21,392.55,260.24,393.44Z"/><path class="cls-9" d="M256.35,414.29c2.93-1.9,5.78-5.32,6.3-8.77.88-5.74,1.46-12,2.33-17.77A29.55,29.55,0,0,0,251.29,384a58.24,58.24,0,0,0-10.36,21.11,31.46,31.46,0,0,0,3.46,6.44A47.3,47.3,0,0,0,256.35,414.29Z"/><path class="cls-10" d="M314.7,451c-4-17.74-7.35-36.36-8.43-54.52a26.9,26.9,0,0,0-14.8,3.73c-7.29,24-14.66,48.83-12.42,73.86a80.9,80.9,0,0,0,25.71,2C309.79,468.44,314.7,451,314.7,451Z"/><path class="cls-4" d="M306.81,241.84a46.88,46.88,0,0,1-4,15.86c-7.1,1.25-22-1.12-22-1.12a54.66,54.66,0,0,1-23.28-19A301.16,301.16,0,0,1,306.81,241.84Z"/><path class="cls-11" d="M296.45,225.22a11.68,11.68,0,0,0-4.85-.23,42.83,42.83,0,0,0-9.11,9.5,46,46,0,0,0,5.61,17.41c2.69.41,5.59-.08,8.3-.13,2.76-5.19,5.54-10.87,6.7-16.61-.49-.8-.79-1.74-1.28-2.54C300.25,230.41,298.58,227.25,296.45,225.22Z"/><path class="cls-12" d="M267.41,221.56a44.77,44.77,0,0,0-8.41-.63,77,77,0,0,0,.38,14.24,49,49,0,0,0,23.37,15.46,133.68,133.68,0,0,0-13-28.48A12.43,12.43,0,0,0,267.41,221.56Z"/><path class="cls-13" d="M301,211.82a39.05,39.05,0,0,0-26.08-4.51,36.83,36.83,0,0,0-15.23,7.14c-.28,1.77-.52,4-.66,6.48a44.77,44.77,0,0,1,8.41.63,12.43,12.43,0,0,1,2.33.59,133.68,133.68,0,0,1,13,28.48,48.11,48.11,0,0,0,5,1.22l.34.05a46,46,0,0,1-5.61-17.41,42.83,42.83,0,0,1,9.11-9.5,11.68,11.68,0,0,1,4.85.23c2.13,2,3.8,5.19,5.37,7.4C302.68,226.17,302,218.25,301,211.82Z"/><path class="cls-14" d="M274.36,208.07a41.76,41.76,0,0,1,26.13,4,59.47,59.47,0,0,1,.65,16.69L299.41,227c-.55-4.16-.28-9.06-1.67-13.32C291.48,210.53,282.94,208.53,274.36,208.07Z"/><path class="cls-4" d="M269.23,231.52a58.32,58.32,0,0,1-7.12-2.72c0,.47,0,.94.05,1.41a34.77,34.77,0,0,0,7.57,4.66C269.62,233.74,269.45,232.64,269.23,231.52Z"/><path class="cls-4" d="M262.36,232.48c.09.76.2,1.51.33,2.21,0,0,4.46,4.4,7.24,5.3,0-1.13,0-2.2-.06-3.23A37,37,0,0,1,262.36,232.48Z"/><path class="cls-4" d="M268.8,229.65c-.23-.94-.5-1.89-.81-2.89a14.28,14.28,0,0,0-5.8-1.24c-.05.46-.05.95-.07,1.44A55.14,55.14,0,0,0,268.8,229.65Z"/><path class="cls-4" d="M246.5,241.85c2,6.45,2.34,13.59-.29,19.82s-8.57,11.29-15.4,11.83C228.08,261.77,236.53,248.84,246.5,241.85Z"/><path class="cls-15" d="M292,225.3a12.29,12.29,0,0,1,4.35.48s4.95,6.27,6.41,9.9a69.19,69.19,0,0,1-7.18,15.52c-.23,0-2.06,0-2.29.06,1.54-7.83,2.63-16.25.56-24C293.63,226.54,292.53,225.87,292,225.3Z"/><path class="cls-12" d="M293.72,248.8s.23-1.19.45-3.13a56.66,56.66,0,0,0,.35-7.59c0-3-.24-5.66-.4-7.61l-.29-3.17s.32,1.18.7,3.11a43.07,43.07,0,0,1,.82,7.65,33.14,33.14,0,0,1-.76,7.68A26,26,0,0,1,293.72,248.8Z"/><path class="cls-12" d="M290.34,247.6s.23-1,.46-2.67a42.52,42.52,0,0,0,.34-6.46c0-2.53-.24-4.82-.4-6.49l-.29-2.69s.32,1,.7,2.64a31.62,31.62,0,0,1,.82,6.53,24.12,24.12,0,0,1-.76,6.53A19.64,19.64,0,0,1,290.34,247.6Z"/><path class="cls-12" d="M297,246.88s.23-1,.45-2.51a36.56,36.56,0,0,0,.35-6.09c0-2.37-.24-4.53-.4-6.1s-.29-2.53-.29-2.53.32.94.7,2.49a28,28,0,0,1,.82,6.13,21.45,21.45,0,0,1-.76,6.15A17.53,17.53,0,0,1,297,246.88Z"/><path class="cls-3" d="M273.06,207.75a36.65,36.65,0,0,0-13.4,6.7c-.28,1.77-.52,4-.66,6.48a44.77,44.77,0,0,1,8.41.63,12.43,12.43,0,0,1,2.33.59,133.68,133.68,0,0,1,13,28.48l.63.17A171,171,0,0,1,273.06,207.75Z"/><path class="cls-12" d="M310.39,302.91l-.82-.06c-.53,0-1.29-.08-2.23-.11a49.54,49.54,0,0,0-7.25.37,50.82,50.82,0,0,0-7.12,1.44c-.9.26-1.63.48-2.13.65l-.78.25.71-.41c.46-.27,1.15-.62,2-1a25.85,25.85,0,0,1,7.17-2,25.06,25.06,0,0,1,7.45.18,22.45,22.45,0,0,1,2.2.49Z"/><path class="cls-12" d="M311.67,312.18l-3,0c-1.87,0-4.44.1-7.27.25s-5.38.37-7.24.56l-3,.31s1.08-.4,2.9-.86a39.76,39.76,0,0,1,7.28-1.12,39.19,39.19,0,0,1,7.4.31C310.55,311.91,311.67,312.18,311.67,312.18Z"/><path class="cls-16" d="M303.38,258.42c1.7-3.89,3.23-7.86,4.62-11.87l.79.67c-.08-.13-2.61,10-5.65,13.89a67.6,67.6,0,0,1-22-.29c0-.6.33-1.34.37-1.94a118,118,0,0,0,21.1,0Z"/><path class="cls-17" d="M312.76,246.33A27.56,27.56,0,0,1,321.3,249c6.1,8.7,6.87,17.27,6.59,26.29s-2.45,17.88-4.67,26.65a34.62,34.62,0,0,1-8.34,1.13,36.75,36.75,0,0,0-3-12.21,142,142,0,0,0-14.58-.41c-3.57-8.67-7.16-18-10.73-26.64,6.29,1,12.51.58,18.85-.11C308.51,258.4,311.48,252.32,312.76,246.33Z"/><path class="cls-18" d="M311,327.75c-1.91,8.78-5.5,18.77-11.22,25.71a35.62,35.62,0,0,1-13.73-.35,113.44,113.44,0,0,1-1.65-25.36c3.55-1.95,6.36-5.27,8.88-8.43a45.64,45.64,0,0,1,13.36-.31A22.35,22.35,0,0,1,311,327.75Z"/><path class="cls-3" d="M307.51,341.47c-1.62-.31-3.85-.72-5.23-.92l-.5-.08L302,340a31.16,31.16,0,0,0,1.7-7.81c-2.09-.22-4.27-.23-6.39-.24h-1.65c-.28,1.36-.45,2.81-.61,4.22-.13,1.08-.26,2.2-.44,3.27l-.05.34-10.84.54,0-.84,10.16-.5c.15-1,.27-1.95.38-2.9a46.7,46.7,0,0,1,.7-4.64l.07-.34h2.33a63.23,63.23,0,0,1,6.88.3l.39.05,0,.39a31.9,31.9,0,0,1-1.61,8c1.39.22,3.32.57,4.77.85Z"/><path class="cls-19" d="M293.94,353.06c1.62,0,3.31-.19,4.93-.21,5.59-7.54,10.14-16.63,11.52-25.8a19,19,0,0,0-3.85-7.34,94.08,94.08,0,0,0-12.22.2,17.09,17.09,0,0,1-8,7.72,17,17,0,0,0,10.24-4.43,28,28,0,0,1,8.66-.16,20.13,20.13,0,0,1,2.67,4.54,82,82,0,0,1-9.42,23.56C296.82,351.75,295.62,352.45,293.94,353.06Z"/><path class="cls-12" d="M256.8,410.64a29.69,29.69,0,0,1-11.71-4.3,171.46,171.46,0,0,1,7.21-22.26c-.34,0-.68-.06-1-.07a58.24,58.24,0,0,0-10.36,21.11,31.46,31.46,0,0,0,3.46,6.44,47.3,47.3,0,0,0,12,2.73c2.9-1.88,5.72-5.26,6.28-8.67A27.76,27.76,0,0,1,256.8,410.64Z"/><path class="cls-3" d="M303.43,467.76a39.81,39.81,0,0,1-17.6-3A203.56,203.56,0,0,1,294,402.66a2.74,2.74,0,0,1,1.9-.18c.19,2.27,1.12,4.37,1.31,6.64A23.57,23.57,0,0,0,307.22,413a82,82,0,0,0-2.58-16.54,26.21,26.21,0,0,0-13.17,3.71c-7.29,24-14.66,48.83-12.42,73.86a80.9,80.9,0,0,0,25.71,2c3.45-5.21,6.84-15.08,8.63-20.76A109.86,109.86,0,0,0,303.43,467.76Z"/><path class="cls-20" d="M310.05,412.17c-1,.09-2.45.47-3.39.1a25.44,25.44,0,0,1-8.65-5.62A58.33,58.33,0,0,1,301.46,389a27.39,27.39,0,0,1,7.82-3.29C312.16,393.82,311.58,403.72,310.05,412.17Z"/><path class="cls-12" d="M310.05,412.17c.07-.34.12-.69.18-1-2.71-2-5.15-4.22-7.82-6.47a93,93,0,0,1,1.76-17.05l-.14,0c-.89.45-1.76.92-2.57,1.38A58.33,58.33,0,0,0,298,406.65a25.44,25.44,0,0,0,8.65,5.62C307.6,412.64,309.05,412.26,310.05,412.17Z"/><path class="cls-21" d="M346.81,477a267.74,267.74,0,0,1-43.59-.82,57.07,57.07,0,0,1,11-25.07c4.37,3.59,8.64,7.87,13,11.47,0,0,12.38,4.6,18.85,5.07A26.45,26.45,0,0,1,346.81,477Z"/><path class="cls-3" d="M257.42,469.41l-.06-.55a268.88,268.88,0,0,0-4.8-31.05c-6.24-.75-12.9-1.16-19.32.63l-.23-.8c6.67-1.86,13.53-1.4,20-.62l.29,0,.06.29a270.62,270.62,0,0,1,4.83,30.89,20.43,20.43,0,0,0,5.76-3.43l.55.63a21.87,21.87,0,0,1-6.52,3.78Z"/><path class="cls-12" d="M247.83,495.06c-.08-.44-.16-.88-.23-1.25a43.8,43.8,0,0,1-11-2.38q.48-15.65,1.86-31.24l-.39,0a76.78,76.78,0,0,0-7.23,25.26s1.94,6.31,4.06,8.67C238.63,495.2,247.07,495.07,247.83,495.06Z"/><path class="cls-12" d="M346.81,477c0-.5.06-1,.08-1.5-8.37.85-16.89-1.56-24.38-5.42a9.11,9.11,0,0,1,1.91-4.65,40.46,40.46,0,0,1-6.12,3.78,44,44,0,0,1-10-8.58,61.69,61.69,0,0,0-5.1,15.55A267.74,267.74,0,0,0,346.81,477Z"/><path class="cls-12" d="M236.91,475.23a67.94,67.94,0,0,1,7.17-1.13,41.49,41.49,0,0,1,4.85-.17,32.38,32.38,0,0,0-4.83-.94,27.79,27.79,0,0,0-7.58.05Z"/><path class="cls-3" d="M289.85,457.69a22.5,22.5,0,0,1-4.39-.41l.17-.82a26.35,26.35,0,0,0,9.68-.11,72,72,0,0,1,3.1-22.72l0-.18.17-.08a44.2,44.2,0,0,1,11.73-3.51l.13.82a43.19,43.19,0,0,0-11.34,3.37,71.05,71.05,0,0,0-3,22.63v.37l-.36.06A33,33,0,0,1,289.85,457.69Z"/><path class="cls-22" d="M264.18,478.75a386.71,386.71,0,0,1-3.41-63.36c-2.83,1.19-6.1,2.42-8.94,3.6-.23,21.73,1.71,43.27,7.66,62.79A23.81,23.81,0,0,0,264.18,478.75Z"/><path class="cls-23" d="M313.44,450a220.45,220.45,0,0,1-6.7-35.23,20.16,20.16,0,0,1-5.63-1.21,106.4,106.4,0,0,0,7.4,41.74c1.41-1.92,3.15-3.66,4.56-5.58C313.07,449.88,313.57,450.1,313.44,450Z"/><path class="cls-24" d="M275.16,212.26a105.07,105.07,0,0,1,25.9,3.58,34.81,34.81,0,0,1,.38,7.58A88.89,88.89,0,0,0,276.5,225,36.66,36.66,0,0,1,275.16,212.26Z"/><polygon class="cls-25" points="280.36 215.65 280.88 219.83 288.77 218.43 289.05 216.01 280.36 215.65"/><polygon class="cls-25" points="299.42 217 299.6 220.63 293.57 218.52 293.35 216.4 299.42 217"/><ellipse class="cls-3" cx="299.49" cy="276.21" rx="10.83" ry="12.73" transform="translate(-97.02 182.58) rotate(-29.4)"/><path class="cls-26" d="M301.45,287.35c-5.68,0-11-5.11-11.76-11.41s3.16-11.42,8.85-11.43,11,5.12,11.76,11.41S307.13,287.35,301.45,287.35Z"/><path class="cls-3" d="M308.62,275.87c.6,4.64-2.24,8.4-6.32,8.4s-7.88-3.75-8.47-8.39,2.24-8.4,6.32-8.41S308,271.23,308.62,275.87Z"/><path class="cls-27" d="M299,268.15a6.16,6.16,0,0,0-2.48.54,7.57,7.57,0,0,0-2.69,7.19c.59,4.64,4.38,8.4,8.47,8.39a6.16,6.16,0,0,0,2.48-.54,7.6,7.6,0,0,0,2.69-7.19C306.88,271.9,303.09,268.15,299,268.15Z"/><path class="cls-28" d="M301.72,276.81a9,9,0,0,0,5.1.65c0-.3,0-.6-.06-.91-.55-4.27-4-7.75-7.7-7.75a5.36,5.36,0,0,0-2.11.46,6.15,6.15,0,0,0-1.13,1.15C296.57,273.1,298.1,275.26,301.72,276.81Z"/></g></g></svg>