<svg id="Layer_1" data-name="Layer 1" xmlns="http://www.w3.org/2000/svg" xmlns:xlink="http://www.w3.org/1999/xlink" viewBox="0 0 543.42 656.85"><defs><style>.cls-1{fill:url(#_ÂÁ_Ï_ÌÌ_È_ËÂÌÚ_160);}.cls-2{fill:#fff;}.cls-3{fill:url(#linear-gradient);}.cls-4{fill:#8e191b;}.cls-5{fill:url(#linear-gradient-2);}.cls-6{fill:url(#linear-gradient-3);}.cls-7{fill:url(#linear-gradient-4);}.cls-8{fill:url(#linear-gradient-5);}.cls-9{fill:url(#linear-gradient-6);}</style><radialGradient id="_ÂÁ_Ï_ÌÌ_È_ËÂÌÚ_160" cx="300.89" cy="209.79" r="27.25" gradientUnits="userSpaceOnUse"><stop offset="0.01" stop-color="#21577e"/><stop offset="0.25" stop-color="#1f4f77"/><stop offset="0.63" stop-color="#1b3b62"/><stop offset="1" stop-color="#162048"/></radialGradient><linearGradient id="linear-gradient" x1="-10.48" y1="-92.94" x2="15.45" y2="-60.52" gradientTransform="translate(312.46 299.84) rotate(-1.59)" gradientUnits="userSpaceOnUse"><stop offset="0.17" stop-color="#ed1c24"/><stop offset="0.24" stop-color="#d91f26"/><stop offset="0.28" stop-color="#ed1c24"/><stop offset="0.34" stop-color="#d42027"/><stop offset="0.4" stop-color="#dc1f26"/><stop offset="0.44" stop-color="#ed1c24"/><stop offset="0.55" stop-color="#ed1c24"/><stop offset="0.72" stop-color="#e71e25"/><stop offset="0.85" stop-color="#d81f26"/><stop offset="1" stop-color="#e01e26"/></linearGradient><linearGradient id="linear-gradient-2" x1="-29.87" y1="-105.37" x2="17.7" y2="-113.56" xlink:href="#linear-gradient"/><linearGradient id="linear-gradient-3" x1="-33.89" y1="-102.97" x2="-30.46" y2="-118.08" gradientTransform="translate(312.46 299.84) rotate(-1.59)" gradientUnits="userSpaceOnUse"><stop offset="0.06" stop-color="#dd2127"/><stop offset="0.1" stop-color="#d91f26"/><stop offset="0.3" stop-color="#ed1c24"/><stop offset="0.64" stop-color="#ea1c24"/><stop offset="0.88" stop-color="#e11b23"/><stop offset="1" stop-color="#d91b22"/></linearGradient><linearGradient id="linear-gradient-4" x1="-35.8" y1="-96.13" x2="-31.47" y2="-116.08" gradientTransform="translate(312.46 299.84) rotate(-1.59)" gradientUnits="userSpaceOnUse"><stop offset="0" stop-color="#b62025"/><stop offset="0.25" stop-color="#ed1c24"/><stop offset="0.7" stop-color="#c61f25"/></linearGradient><linearGradient id="linear-gradient-5" x1="-34.81" y1="-90.93" x2="-34.91" y2="-100.71" gradientTransform="translate(312.46 299.84) rotate(-1.59)" gradientUnits="userSpaceOnUse"><stop offset="0" stop-color="#bc2126"/><stop offset="0.25" stop-color="#c82127"/><stop offset="0.67" stop-color="#ed1c24"/><stop offset="1" stop-color="#d91f26"/></linearGradient><linearGradient id="linear-gradient-6" x1="-51.12" y1="-83.07" x2="-2.9" y2="-102.83" gradientTransform="translate(312.46 299.84) rotate(-1.59)" gradientUnits="userSpaceOnUse"><stop offset="0.08" stop-color="#b1181d"/><stop offset="0.43" stop-color="#d91f26"/><stop offset="0.8" stop-color="#ed1c24"/><stop offset="1" stop-color="#d91b22"/></linearGradient></defs><title>Master</title><path class="cls-1" d="M275.16,212.26a105.07,105.07,0,0,1,25.9,3.58,34.81,34.81,0,0,1,.38,7.58A88.89,88.89,0,0,0,276.5,225,36.66,36.66,0,0,1,275.16,212.26Z"/><polygon class="cls-2" points="280.36 217.55 280.88 221.74 288.77 220.33 289.05 217.91 280.36 217.55"/><polygon class="cls-2" points="298.95 218.57 299.13 222.2 293.09 220.1 292.88 217.98 298.95 218.57"/><path class="cls-3" d="M308.72,204.8s2.65,4.23-.94,5.88c0,0,1.36,4.08-2.28,4.56,0,0,.81,4.29-5.58,2.64a12.68,12.68,0,0,1-8.41-7.63l16.66-5.44Z"/><path class="cls-4" d="M302.23,195.9s2.43.66,2.77,1.29.19,1.54,1,2.27,2.48,1.87,2.75,3.83.59,2.17.35,2.44-9.1,10.67-36.75,13c0,0-8,.6-12.84-1.71a30.2,30.2,0,0,1-2.24-3.79c-.36-1-.91-2.17-1.13-2.8a7,7,0,0,1,.16-2.34s2.1,3.52,10.91,2.53,22.35-5.08,31.72-10.92C299,199.67,302.24,197.66,302.23,195.9Z"/><path class="cls-4" d="M301.42,196.74s-1-4.1-1.61-5.47-.38-4.73-.54-5.63-.78-1.95-1.27-1.68-.32-1.54-2.13-1.14c0,0-.33-.95-2-.49,0,0-2.15-1-2.61-.07a2.08,2.08,0,0,0-2.84.05s-1.8-.56-2,.77c0,0-6.57.26-7.53,2.94l4.49,9.23,8.27,9,10.14-6.81Z"/><path class="cls-5" d="M301.85,196.78s-1-4.09-1.6-5.47-.39-4.72-.55-5.62-.78-2-1.27-1.68-.32-1.54-2.13-1.14c0,0-.33-1-2-.5,0,0-2.14-1-2.61-.06a2.07,2.07,0,0,0-2.84,0s-1.79-.55-2,.78c0,0-6.56.26-7.53,2.93l4.49,9.23,8.27,9,10.15-6.8Z"/><path class="cls-6" d="M294.57,201.46s-12.92-9.74-15-10.66-7.39-4.4-14.18-3.71-5.13-.18-6.67,2.39-1.48,2.26-1.31,4.14.93,2,.93,2S285.26,202.67,294.57,201.46Z"/><path class="cls-4" d="M294.32,201.39S266.76,197,263,195.81s-5.77-.89-5.44-1.86c0,0-1.73.18-1.7,3.79a3.69,3.69,0,0,1-.36,1.42c-.35.64.48,1.86,2.1,3.4,2,1.92,29.86,1.52,33.82.27C295,201.7,294.32,201.39,294.32,201.39Z"/><path class="cls-7" d="M294.18,201.77s-27.52-4.62-31.23-5.84-5.76-.94-5.42-1.9c0,0-1.73.16-1.74,3.77a3.75,3.75,0,0,1-.39,1.41c-.35.65.46,1.87,2.07,3.43,2,1.93,29.84,1.76,33.81.55C294.89,202.09,294.18,201.77,294.18,201.77Z"/><path class="cls-4" d="M256.13,200.88a12.35,12.35,0,0,0-.19,3.14,12.07,12.07,0,0,1,0,3.77c-.18,1.05,1.5,4.28,12.26,3.21S294,202.56,294,202.56s-19.57.63-22.85.63S259.85,203.8,256.13,200.88Z"/><path class="cls-8" d="M256.12,201a12.4,12.4,0,0,0-.18,3.13,12.45,12.45,0,0,1,0,3.78c-.18,1.05,1.5,4.28,12.26,3.2S294,202.72,294,202.72s-19.57.63-22.86.63S259.85,204,256.12,201Z"/><path class="cls-9" d="M301.86,195.79s2.42.66,2.77,1.29.19,1.54,1,2.27,2.48,1.87,2.75,3.83.59,2.17.35,2.44-9.11,10.67-36.76,13c0,0-8,.6-12.83-1.71a30.2,30.2,0,0,1-2.24-3.79c-.36-1-.92-2.17-1.13-2.8A6.74,6.74,0,0,1,256,208s2.1,3.53,10.91,2.54,22.35-5.09,31.72-10.92C298.6,199.57,301.86,197.55,301.86,195.79Z"/><path class="cls-4" d="M286.78,204.69s-13.82,8.75-27.4,4.74C259.38,209.43,272,211.7,286.78,204.69Z"/><path class="cls-4" d="M256.82,204.77a59.6,59.6,0,0,0,22.57,1.61S267.42,208.8,256.82,204.77Z"/><path class="cls-4" d="M291.34,201.93s-22.09.67-26,.9C265.34,202.83,284.82,203.15,291.34,201.93Z"/><path class="cls-4" d="M256.67,201.1a24.57,24.57,0,0,0,6.2,1.61A10.34,10.34,0,0,1,256.67,201.1Z"/><path class="cls-4" d="M291.28,200.55s-10.59-2.43-12.25-2.88-9.78-5.75-12-6.51c0,0,9.73,6.12,11.67,7.15S286,199.36,291.28,200.55Z"/><path class="cls-4" d="M258.67,192s9.12,2.78,10.76,4.29Z"/><path class="cls-4" d="M257.19,199.77l3.83,1S260.49,200.19,257.19,199.77Z"/><path class="cls-4" d="M281.34,193.91l8.14,5.88S283.86,195.15,281.34,193.91Z"/><path class="cls-4" d="M304.54,210.92a8.44,8.44,0,0,1,2.15,0C307.13,211,306.32,211.26,304.54,210.92Z"/><path class="cls-4" d="M305.38,211.46a4.48,4.48,0,0,1,1.45.17C307,211.8,305.83,211.64,305.38,211.46Z"/><path class="cls-4" d="M305.53,211.86c.81.24,1.36.46,1.05.45A3.9,3.9,0,0,1,305.53,211.86Z"/><path class="cls-4" d="M299.82,212.18s4.64,1.45,6.7.81C306.52,213,304.86,213.29,299.82,212.18Z"/><path class="cls-4" d="M308.65,206.84a28.15,28.15,0,0,1-8.95,5.7A40,40,0,0,0,308.65,206.84Z"/><path class="cls-4" d="M294.94,213.52s4.05,2.41,4.06,2.54A29.47,29.47,0,0,1,294.94,213.52Z"/><path class="cls-4" d="M294.69,213.73l2.63,1.88A12.57,12.57,0,0,1,294.69,213.73Z"/><path class="cls-4" d="M303.08,214.31a3.74,3.74,0,0,0,2.56.34A5.92,5.92,0,0,1,303.08,214.31Z"/><path class="cls-4" d="M305.14,215.2a4.22,4.22,0,0,1-2.25.58A2.67,2.67,0,0,0,305.14,215.2Z"/><path class="cls-4" d="M302.3,216.54a6.5,6.5,0,0,0,2.3-.56S304.15,216.72,302.3,216.54Z"/><path class="cls-4" d="M308.71,208a8.55,8.55,0,0,1-2.1.84S308.39,208.05,308.71,208Z"/><path class="cls-4" d="M305.78,209.45s1.87-.31,2.29-1A5.65,5.65,0,0,1,305.78,209.45Z"/><path class="cls-4" d="M283.25,185.65s4.51,9.46,5.08,10.81l.73.33S285.07,187.38,283.25,185.65Z"/><path class="cls-4" d="M286.42,183.25s3.85,7.2,4.05,14.53A58.67,58.67,0,0,0,286.42,183.25Z"/><path class="cls-4" d="M288.48,182.66s3.23,8.24,3.27,16.21S292.28,193.36,288.48,182.66Z"/><path class="cls-4" d="M291.46,182.61a158,158,0,0,1,2.79,17.1S292.18,183.84,291.46,182.61Z"/><path class="cls-4" d="M293.57,183.14s.87,3.77,1,16C294.61,199.15,295.11,188.22,293.57,183.14Z"/><path class="cls-4" d="M296,183.1a46.34,46.34,0,0,1,0,16A94.1,94.1,0,0,0,296,183.1Z"/><path class="cls-4" d="M299.14,190.65s.05,6.91-.4,7.55C298.74,198.2,299.65,196.13,299.14,190.65Z"/><path class="cls-4" d="M300.57,194.93a7.54,7.54,0,0,1-1.3,2.71A3.85,3.85,0,0,0,300.57,194.93Z"/><path class="cls-4" d="M300,193.21a12.87,12.87,0,0,1-.75,3.92A21.61,21.61,0,0,0,300,193.21Z"/></svg>