<svg xmlns="http://www.w3.org/2000/svg" xmlns:xlink="http://www.w3.org/1999/xlink" viewBox="0 0 543.42 656.85"><defs><style>.cls-1{isolation:isolate;}.cls-2{fill:#2b3e51;}.cls-3{fill:url(#_ÂÁ_Ï_ÌÌ_È_ËÂÌÚ_3);}.cls-4{fill:#d3d3d3;}.cls-5{fill:#d7d7d7;}.cls-6{fill:url(#_ÂÁ_Ï_ÌÌ_È_ËÂÌÚ_5);}.cls-7{fill:url(#_ÂÁ_Ï_ÌÌ_È_ËÂÌÚ_3-2);}.cls-8{fill:url(#_ÂÁ_Ï_ÌÌ_È_ËÂÌÚ_3-3);}.cls-9{fill:#99999a;}.cls-10{fill:url(#_ÂÁ_Ï_ÌÌ_È_ËÂÌÚ_3-4);}.cls-11,.cls-12,.cls-13,.cls-29,.cls-30,.cls-31{mix-blend-mode:screen;}.cls-11{fill:url(#_ÂÁ_Ï_ÌÌ_È_ËÂÌÚ_40);}.cls-12{fill:url(#_ÂÁ_Ï_ÌÌ_È_ËÂÌÚ_40-2);}.cls-13{fill:url(#_ÂÁ_Ï_ÌÌ_È_ËÂÌÚ_40-3);}.cls-14{fill:#15191e;}.cls-15{fill:#2e353b;}.cls-16{fill:url(#_ÂÁ_Ï_ÌÌ_È_ËÂÌÚ_4);}.cls-17{fill:url(#_ÂÁ_Ï_ÌÌ_È_ËÂÌÚ_4-2);}.cls-18{fill:#bbbdbf;}.cls-19{fill:#d0d2d3;}.cls-20{fill:#a7a9ac;}.cls-21{fill:#adb6ba;}.cls-22{fill:#858a91;}.cls-23{fill:#666;}.cls-24{fill:url(#_ÂÁ_Ï_ÌÌ_È_ËÂÌÚ_4-3);}.cls-25{fill:url(#_ÂÁ_Ï_ÌÌ_È_ËÂÌÚ_3-5);}.cls-26{fill:url(#_ÂÁ_Ï_ÌÌ_È_ËÂÌÚ_5-2);}.cls-27{fill:url(#_ÂÁ_Ï_ÌÌ_È_ËÂÌÚ_3-6);}.cls-28{fill:url(#_ÂÁ_Ï_ÌÌ_È_ËÂÌÚ_3-7);}.cls-29{fill:url(#_ÂÁ_Ï_ÌÌ_È_ËÂÌÚ_40-4);}.cls-30{fill:url(#_ÂÁ_Ï_ÌÌ_È_ËÂÌÚ_40-5);}.cls-31{fill:url(#_ÂÁ_Ï_ÌÌ_È_ËÂÌÚ_40-6);}</style><linearGradient id="_ÂÁ_Ï_ÌÌ_È_ËÂÌÚ_3" x1="227.03" y1="299.22" x2="190.97" y2="334.99" gradientUnits="userSpaceOnUse"><stop offset="0" stop-color="#fff"/><stop offset="0.84" stop-color="#e9e8e7"/></linearGradient><linearGradient id="_ÂÁ_Ï_ÌÌ_È_ËÂÌÚ_5" x1="203.43" y1="279.05" x2="192.35" y2="336.11" gradientUnits="userSpaceOnUse"><stop offset="0" stop-color="#fff"/><stop offset="0.48" stop-color="#eee"/><stop offset="1" stop-color="#d7d7d7"/></linearGradient><linearGradient id="_ÂÁ_Ï_ÌÌ_È_ËÂÌÚ_3-2" x1="234.54" y1="362.26" x2="215.8" y2="374.61" xlink:href="#_ÂÁ_Ï_ÌÌ_È_ËÂÌÚ_3"/><linearGradient id="_ÂÁ_Ï_ÌÌ_È_ËÂÌÚ_3-3" x1="245.72" y1="379.22" x2="226.98" y2="391.57" xlink:href="#_ÂÁ_Ï_ÌÌ_È_ËÂÌÚ_3"/><linearGradient id="_ÂÁ_Ï_ÌÌ_È_ËÂÌÚ_3-4" x1="216.9" y1="372.27" x2="190.49" y2="385.33" xlink:href="#_ÂÁ_Ï_ÌÌ_È_ËÂÌÚ_3"/><linearGradient id="_ÂÁ_Ï_ÌÌ_È_ËÂÌÚ_40" x1="225.25" y1="294.01" x2="216.59" y2="354.25" gradientUnits="userSpaceOnUse"><stop offset="0.17" stop-color="#beb48e"/><stop offset="0.26" stop-color="#b4ab87"/><stop offset="0.41" stop-color="#9a9273"/><stop offset="0.6" stop-color="#6f6953"/><stop offset="0.82" stop-color="#343127"/><stop offset="1" stop-color="#010101"/></linearGradient><linearGradient id="_ÂÁ_Ï_ÌÌ_È_ËÂÌÚ_40-2" x1="229.4" y1="357.73" x2="224.01" y2="378.08" xlink:href="#_ÂÁ_Ï_ÌÌ_È_ËÂÌÚ_40"/><linearGradient id="_ÂÁ_Ï_ÌÌ_È_ËÂÌÚ_40-3" x1="239.94" y1="362.33" x2="233.22" y2="393.18" xlink:href="#_ÂÁ_Ï_ÌÌ_È_ËÂÌÚ_40"/><linearGradient id="_ÂÁ_Ï_ÌÌ_È_ËÂÌÚ_4" x1="479.86" y1="-715.07" x2="472.16" y2="-701.26" gradientTransform="translate(-147.49 1178.29) rotate(-10.23)" gradientUnits="userSpaceOnUse"><stop offset="0.04" stop-color="#fff"/><stop offset="0.3" stop-color="#fbfbfb"/><stop offset="0.55" stop-color="#efefef"/><stop offset="0.7" stop-color="#e5e5e4"/><stop offset="0.8" stop-color="#dfdfde"/><stop offset="1" stop-color="#d7d7d7"/></linearGradient><linearGradient id="_ÂÁ_Ï_ÌÌ_È_ËÂÌÚ_4-2" x1="491.56" y1="-712.88" x2="487.14" y2="-699.23" xlink:href="#_ÂÁ_Ï_ÌÌ_È_ËÂÌÚ_4"/><linearGradient id="_ÂÁ_Ï_ÌÌ_È_ËÂÌÚ_4-3" x1="243.65" y1="226.52" x2="222.07" y2="277.81" gradientTransform="matrix(1, 0, 0, 1, 0, 0)" xlink:href="#_ÂÁ_Ï_ÌÌ_È_ËÂÌÚ_4"/><linearGradient id="_ÂÁ_Ï_ÌÌ_È_ËÂÌÚ_3-5" x1="226.69" y1="299.65" x2="190.63" y2="335.42" xlink:href="#_ÂÁ_Ï_ÌÌ_È_ËÂÌÚ_3"/><linearGradient id="_ÂÁ_Ï_ÌÌ_È_ËÂÌÚ_5-2" x1="203.09" y1="279.48" x2="192.01" y2="336.54" xlink:href="#_ÂÁ_Ï_ÌÌ_È_ËÂÌÚ_5"/><linearGradient id="_ÂÁ_Ï_ÌÌ_È_ËÂÌÚ_3-6" x1="234.2" y1="362.69" x2="215.46" y2="375.04" xlink:href="#_ÂÁ_Ï_ÌÌ_È_ËÂÌÚ_3"/><linearGradient id="_ÂÁ_Ï_ÌÌ_È_ËÂÌÚ_3-7" x1="216.56" y1="372.7" x2="190.15" y2="385.76" xlink:href="#_ÂÁ_Ï_ÌÌ_È_ËÂÌÚ_3"/><linearGradient id="_ÂÁ_Ï_ÌÌ_È_ËÂÌÚ_40-4" x1="224.91" y1="294.44" x2="216.25" y2="354.67" xlink:href="#_ÂÁ_Ï_ÌÌ_È_ËÂÌÚ_40"/><linearGradient id="_ÂÁ_Ï_ÌÌ_È_ËÂÌÚ_40-5" x1="229.06" y1="358.16" x2="223.67" y2="378.51" xlink:href="#_ÂÁ_Ï_ÌÌ_È_ËÂÌÚ_40"/><linearGradient id="_ÂÁ_Ï_ÌÌ_È_ËÂÌÚ_40-6" x1="243.76" y1="216.06" x2="234.83" y2="264.42" xlink:href="#_ÂÁ_Ï_ÌÌ_È_ËÂÌÚ_40"/></defs><title>Master</title><g class="cls-1"><g id="Layer_1" data-name="Layer 1"><path class="cls-2" d="M219.76,353.11c2.64,4.91,5.33,9.68,8,14.59a36.84,36.84,0,0,1-33.52,5.41,45.16,45.16,0,0,1-.8-11.66C201.23,356.57,210.54,353.11,219.76,353.11Z"/><path class="cls-2" d="M223.7,372.89a17,17,0,0,0,4.26,8.63c-.05-.08,0,.36-.09.28-.27,3-1.55,6.81-2.18,10.23a9.14,9.14,0,0,0,5.6.4,23.86,23.86,0,0,0,2.11-11.2,58.33,58.33,0,0,1-5.67-9.25A5.64,5.64,0,0,0,223.7,372.89Z"/><path class="cls-2" d="M224.71,270.4c-4,12.88-6.48,25.49-6.38,39l.42.43a24.62,24.62,0,0,1-17-2,89,89,0,0,1,8.64-41.19,33.19,33.19,0,0,1,7.67-.88,12.28,12.28,0,0,1,7.55,2.77C225.44,268.67,224.91,270.23,224.71,270.4Z"/><path class="cls-3" d="M223.78,356a113,113,0,0,1-2.31-29c4.9-7.2,8.93-16.94,6.58-25.31-1.06-3.75-4.92-7.89-8.47-9.48,0,.1-1.22,7.9-1.46,14.59-3.64,2.55-5.35,1.66-8-2.43a42.62,42.62,0,0,1,3.25-17.3c-1.08-1-2.6-2.38-3.68-3.43A35.62,35.62,0,0,0,183,289.34c-3.23,8.42-6.46,17.18-5.86,26.18.48,7.24,3.41,14.05,5.8,20.91,3,8.6,6.81,19.16,8.18,28.17a102.74,102.74,0,0,0,24-4.58C218.11,359.05,220.89,357.2,223.78,356Z"/><path class="cls-4" d="M191.16,364.6a102.74,102.74,0,0,0,24-4.58,39.11,39.11,0,0,0,5.71-2.63,37.06,37.06,0,0,1-15.3,2A86.21,86.21,0,0,1,202,344.8c-4.19,2.46-9.75,4.36-14.7,4.21A105.49,105.49,0,0,1,191.16,364.6Z"/><path class="cls-5" d="M197.45,320.37a31.91,31.91,0,0,1,8.79-3.3,72.37,72.37,0,0,1,2.87-33.5A35.64,35.64,0,0,0,183,289.34c-3.23,8.42-6.46,17.18-5.86,26.17.48,7.25,3.41,14.06,5.8,20.92,1.3,3.72,2.74,7.81,4.08,12a26,26,0,0,0,14.7-3.51A68.17,68.17,0,0,0,197.45,320.37Z"/><path class="cls-6" d="M209.11,283.57a35.36,35.36,0,0,0-17.66,1.52c-3.34,9.94-1.84,21,1.06,31.19,2.75,9.67,6.7,19,8.83,28.84.14-.08.28-.14.42-.23a68.17,68.17,0,0,0-4.31-24.52,31.91,31.91,0,0,1,8.79-3.3A72.37,72.37,0,0,1,209.11,283.57Z"/><path class="cls-4" d="M212.19,363.74l-.34.07A79.8,79.8,0,0,1,192,367.57a41,41,0,0,0-1.66,17.81,89.15,89.15,0,0,0,20.07-3C211,376.07,211.44,370.21,212.19,363.74Z"/><path class="cls-7" d="M232.43,370.93a19.62,19.62,0,0,1-14.58,5.68,30.92,30.92,0,0,1,.53-11.38A16.88,16.88,0,0,1,225.6,362C228.63,364,230.92,367.66,232.43,370.93Z"/><path class="cls-8" d="M238.28,380.09a24.33,24.33,0,0,1-5.18,15.34,13.84,13.84,0,0,1-3.63.28,69.67,69.67,0,0,1,3.81-16.18A10.78,10.78,0,0,1,238.28,380.09Z"/><path class="cls-4" d="M214.83,337.08v.26a69.08,69.08,0,0,0,2.19,22l.77-.35a68.11,68.11,0,0,1-2.15-21.28,25.91,25.91,0,0,1,5.77-1.59l0-.84a27.37,27.37,0,0,0-6.29,1.75Z"/><path class="cls-9" d="M202.3,344.92v-.21A70.67,70.67,0,0,0,198,320.59a33.35,33.35,0,0,1,8.51-2.79l.43-.07-.09-.42a63.86,63.86,0,0,1,2.56-33.69l-.84-.13A64.72,64.72,0,0,0,206,317.05a35.18,35.18,0,0,0-8.65,2.95l-.35.16.13.36a70,70,0,0,1,4.36,24A19.92,19.92,0,0,1,186.93,348l.29.92a18.25,18.25,0,0,0,2.67.2,21.06,21.06,0,0,0,12.23-4.06Z"/><path class="cls-9" d="M191.92,348.33c-.4-5.58-2.22-11-4-16.29-.37-1.11-.74-2.23-1.1-3.35-2-6.05-3.77-13.14-2.54-19.95-2-.8-4.52-1.66-6.6-1.46l0-.55c2.26-.22,5,.73,7.06,1.58l.22.09-.05.22c-1.28,6.75.54,13.85,2.49,19.9.35,1.12.73,2.23,1.1,3.35,1.77,5.29,3.6,10.77,4,16.42Z"/><path class="cls-9" d="M209.93,382.51a87.29,87.29,0,0,1-19.58,2.87c0,.13,0,.26,0,.4.88.63,1.57,1.66,2.45,2.3a59,59,0,0,0,20.41-2.84l.06-.34A36.16,36.16,0,0,1,209.93,382.51Z"/><path class="cls-10" d="M217.1,365c-.78-.72-3.4-1.14-4.91-1.22-.75,6.47-1.24,12.33-1.77,18.66l-.49.11a36.16,36.16,0,0,0,3.38,2.39C214.4,378.38,216,371.47,217.1,365Z"/><path class="cls-11" d="M221.6,295.32c4.51,3.33,6,9.61,5.11,15.14s-3.92,10.48-7,15.17a191.23,191.23,0,0,0,1.5,29.49c-1,.38-2.37.76-3.36,1.14a76.11,76.11,0,0,1-1.6-32.55c5-5.43,6.66-14.18,4.67-21.29C220.34,300.33,221.53,297.5,221.6,295.32Z"/><path class="cls-12" d="M231.12,370.76a27.72,27.72,0,0,0-5.71-7.51,9.38,9.38,0,0,0-3.08,1.68,44.53,44.53,0,0,1,4.22,9.07c.1.12.34,0,.31-.14a.18.18,0,0,0-.33,0A33.81,33.81,0,0,0,231.12,370.76Z"/><path class="cls-13" d="M237.67,380.76A23.74,23.74,0,0,1,234.39,392a19.3,19.3,0,0,0,.48-9.18l-1.42-.66a4.55,4.55,0,0,0,.47-2.09A8.17,8.17,0,0,1,237.67,380.76Z"/><path class="cls-14" d="M202.29,413.64a38.26,38.26,0,0,1-12-11.4A23.73,23.73,0,0,1,186.07,389c15.51-1.37,29.59-5.45,41.69-12.09,4.21,5.09,7.86,9.72,10.55,15.26A83.69,83.69,0,0,1,202.29,413.64Z"/><path class="cls-15" d="M208.6,408.14a41.36,41.36,0,0,1-14.17-9.05,110.77,110.77,0,0,0,34.82-13.75,33.52,33.52,0,0,1,5.18,7.53A62.55,62.55,0,0,1,208.6,408.14Z"/><path class="cls-2" d="M221.83,385.31a53.57,53.57,0,0,0,4.32,5c1.64,1.72,3.08,3.06,3.08,3.06s-1.16-1.58-2.45-3.45-2.71-4.06-3.55-5.23Z"/><path class="cls-2" d="M215.42,388.58a25,25,0,0,0,3.91,5.65,28.05,28.05,0,0,0,3.23,3.09,32.08,32.08,0,0,1-2.57-3.45,37.62,37.62,0,0,1-2.82-5.3Z"/><path class="cls-2" d="M207.68,391a49.46,49.46,0,0,0,5.29,7.27c2.12,2.45,4.09,4.27,4.09,4.27s-1.71-2.08-3.43-4.63-3.42-5.53-4.32-7.17Z"/><path class="cls-2" d="M200.34,393.83a51.71,51.71,0,0,0,6.38,7.33,56.06,56.06,0,0,0,4.74,4.07s-2.06-2-4.2-4.58a88.48,88.48,0,0,1-5.47-7.35Z"/><path class="cls-2" d="M199,386.6a33.28,33.28,0,0,0-1.38,6.3c1.66,3,3,6.13,4.35,9.23a6.44,6.44,0,0,1-5.81,2.52c-2.61-3.47-6.3-11.45-6.3-11.45a18.35,18.35,0,0,1,2.16-6.26A19.09,19.09,0,0,1,199,386.6Z"/><path class="cls-5" d="M186.88,394a23.45,23.45,0,0,0,8.63,14,11.13,11.13,0,0,0,5.5-1.34l.06-.14a89.24,89.24,0,0,1-7.13-13.5A27.69,27.69,0,0,1,186.88,394Z"/><path class="cls-16" d="M194.83,391.27a33.15,33.15,0,0,1-6.9,1.27c-.26.28-.8,1.19-1.06,1.47v0a27.69,27.69,0,0,0,7.06-1,89.24,89.24,0,0,0,7.13,13.5l.66-1.46A100.73,100.73,0,0,1,194.83,391.27Z"/><path class="cls-2" d="M210.25,383.43a33.9,33.9,0,0,0,.08,6.45,101.48,101.48,0,0,1,6.33,8,6.42,6.42,0,0,1-5.09,3.77c-3.33-2.79-8.72-9.72-8.72-9.72a18.32,18.32,0,0,1,.67-6.59A19.07,19.07,0,0,1,210.25,383.43Z"/><path class="cls-5" d="M200.18,393.4A23.42,23.42,0,0,0,211.75,405a11.13,11.13,0,0,0,5.05-2.55l0-.15a90.21,90.21,0,0,1-10-11.53A27.83,27.83,0,0,1,200.18,393.4Z"/><path class="cls-17" d="M207.3,388.91a33.39,33.39,0,0,1-6.44,2.8c-.19.33-.5,1.34-.69,1.67v0a27.83,27.83,0,0,0,6.64-2.59,90.21,90.21,0,0,0,10,11.53l.3-1.58A100.33,100.33,0,0,1,207.3,388.91Z"/><path class="cls-18" d="M314.34,339c29.52-14,55.14-38.1,55.89-79.61C373,304,345.53,327.46,316,341.42s-48.23,28.47-48.23,28.47l-1.67-2.43S284.82,352.94,314.34,339Z"/><rect class="cls-19" x="259.12" y="368.31" width="12.7" height="4.62" transform="translate(110 799.18) rotate(-124.45)"/><rect class="cls-20" x="256.45" y="370.43" width="10.63" height="2.95" transform="translate(103.14 798.13) rotate(-124.45)"/><path class="cls-19" d="M265.56,380l-8-11.68-24.46,16.78,4,5.84,4.72-3.24a44,44,0,0,1,23.75-7.7Z"/><rect class="cls-21" x="251.94" y="357.83" width="12.7" height="4.62" transform="translate(409.19 -56.57) rotate(55.55)"/><rect class="cls-22" x="250.44" y="361.66" width="10.63" height="2.95" transform="translate(410.56 -53.17) rotate(55.55)"/><path class="cls-21" d="M249.53,356.67l8,11.69-24.46,16.78-4-5.85,4.72-3.23a44,44,0,0,0,15.74-19.39Z"/><path class="cls-23" d="M317.23,315.84a8.73,8.73,0,0,0-.75-3.28,7.94,7.94,0,0,0-1.7-2.5,8.8,8.8,0,0,0-4.67-2.33c-.55,12.12-19.73,29.76-50.21,50.67l6.21,9.06s18.71-14.52,48.23-28.48,55.14-38.1,55.89-79.61c-13.26,24-39.19,40.51-50.14,40.89A12.12,12.12,0,0,1,317.23,315.84Zm-51.2,44a2.21,2.21,0,1,1-.57,3.08A2.22,2.22,0,0,1,266,359.85Zm8.09-5.55a2.21,2.21,0,1,1-.57,3.08A2.22,2.22,0,0,1,274.12,354.3Zm8.1-5.55a2.21,2.21,0,1,1-.58,3.08A2.22,2.22,0,0,1,282.22,348.75Z"/><path class="cls-2" d="M224.7,270.83c-4,12.88-6.58,25.49-6.48,39l.43.44a25.34,25.34,0,0,1-17.22-2A88,88,0,0,1,210.19,267a33.7,33.7,0,0,1,7.78-.88,12.51,12.51,0,0,1,7.66,2.77C225.43,269.09,224.9,270.66,224.7,270.83Z"/><path class="cls-5" d="M232.78,221.75a67.46,67.46,0,0,0-24.11,1.16,82.74,82.74,0,0,0-14,42.16,151.18,151.18,0,0,0,21.62,7.46C226.6,257.61,232.81,239.88,232.78,221.75Z"/><path class="cls-24" d="M248.22,239.55c-3.84-6.9-9.41-12.65-15.41-17.79h0c0,18.13-6.18,35.86-16.54,50.78a107.62,107.62,0,0,0,16,2.89A66.13,66.13,0,0,0,248.22,239.55Z"/><path class="cls-25" d="M223.44,356.4a113,113,0,0,1-2.31-28.95c4.9-7.2,8.93-16.94,6.58-25.32-1.06-3.75-4.91-7.88-8.47-9.47,0,.1-1.22,7.9-1.45,14.59-3.65,2.54-5.36,1.66-8-2.43a42.79,42.79,0,0,1,3.25-17.3c-1.08-1-2.6-2.39-3.68-3.43a35.62,35.62,0,0,0-26.61,5.68c-3.23,8.41-6.46,17.18-5.86,26.17.48,7.25,3.41,14.06,5.8,20.92,3,8.6,6.81,19.16,8.18,28.17a102.92,102.92,0,0,0,24-4.58C217.77,359.48,220.55,357.63,223.44,356.4Z"/><path class="cls-4" d="M190.82,365a102.92,102.92,0,0,0,24-4.58,39.49,39.49,0,0,0,5.7-2.63,37.06,37.06,0,0,1-15.3,2,86.21,86.21,0,0,1-3.58-14.58c-4.19,2.46-9.75,4.36-14.7,4.2A105.61,105.61,0,0,1,190.82,365Z"/><path class="cls-5" d="M197.11,320.8a31.91,31.91,0,0,1,8.79-3.3,72.5,72.5,0,0,1,2.87-33.5,35.65,35.65,0,0,0-26.07,5.77c-3.23,8.41-6.46,17.18-5.86,26.17.48,7.25,3.41,14.06,5.8,20.92,1.3,3.72,2.74,7.81,4.08,12a26,26,0,0,0,14.7-3.51A68.17,68.17,0,0,0,197.11,320.8Z"/><path class="cls-26" d="M208.77,284a35.36,35.36,0,0,0-17.66,1.52c-3.34,9.94-1.84,21,1.06,31.19,2.75,9.67,6.7,19,8.83,28.84l.42-.23a68.17,68.17,0,0,0-4.31-24.52,31.91,31.91,0,0,1,8.79-3.3A72.5,72.5,0,0,1,208.77,284Z"/><path class="cls-4" d="M211.85,364.16l-.34.08A79.8,79.8,0,0,1,191.67,368,41.18,41.18,0,0,0,190,385.81a88.6,88.6,0,0,0,20.07-3C210.61,376.5,211.1,370.64,211.85,364.16Z"/><path class="cls-27" d="M232.09,371.36A19.62,19.62,0,0,1,217.51,377a30.92,30.92,0,0,1,.53-11.38,17,17,0,0,1,7.22-3.24C228.29,364.38,230.58,368.09,232.09,371.36Z"/><path class="cls-4" d="M214.49,337.51v.26a69,69,0,0,0,2.19,21.94l.77-.34a68.44,68.44,0,0,1-2.15-21.28,26.53,26.53,0,0,1,5.77-1.6l0-.83a27.37,27.37,0,0,0-6.29,1.75Z"/><path class="cls-9" d="M202,345.35v-.21A70.92,70.92,0,0,0,197.68,321a33.35,33.35,0,0,1,8.51-2.79l.43-.07-.09-.42a63.86,63.86,0,0,1,2.56-33.69l-.84-.13a64.72,64.72,0,0,0-2.62,33.56,35.18,35.18,0,0,0-8.65,2.95l-.35.16.13.36a70,70,0,0,1,4.36,24,20,20,0,0,1-14.53,3.49c.1.3.19.61.29.91a17,17,0,0,0,2.67.21,21.14,21.14,0,0,0,12.23-4.06Z"/><path class="cls-9" d="M191.58,348.76c-.4-5.58-2.22-11-4-16.29-.37-1.12-.74-2.23-1.1-3.35-1.95-6.05-3.77-13.14-2.54-19.95-2-.81-4.52-1.66-6.6-1.46l-.05-.55c2.26-.22,5,.73,7.07,1.58l.21.09-.05.22c-1.28,6.75.54,13.85,2.49,19.9.35,1.12.73,2.23,1.1,3.34,1.77,5.3,3.6,10.78,4,16.43Z"/><path class="cls-9" d="M209.59,382.94A87.86,87.86,0,0,1,190,385.81c0,.13,0,.26,0,.39.88.64,1.57,1.67,2.45,2.31a59.23,59.23,0,0,0,20.41-2.84l.06-.34A36.16,36.16,0,0,1,209.59,382.94Z"/><path class="cls-28" d="M216.76,365.39c-.78-.72-3.4-1.14-4.91-1.23-.75,6.48-1.24,12.34-1.77,18.66-.16.05-.33.08-.49.12a36.16,36.16,0,0,0,3.38,2.39C214.06,378.81,215.69,371.89,216.76,365.39Z"/><path class="cls-29" d="M221.26,295.75c4.51,3.33,6,9.61,5.11,15.14s-3.92,10.48-7,15.17a191.23,191.23,0,0,0,1.5,29.49c-1,.38-2.37.76-3.36,1.14a76.11,76.11,0,0,1-1.6-32.55c5-5.43,6.66-14.18,4.67-21.29C220,300.76,221.19,297.93,221.26,295.75Z"/><path class="cls-30" d="M230.78,371.19a27.72,27.72,0,0,0-5.71-7.51,9.38,9.38,0,0,0-3.08,1.68,44.53,44.53,0,0,1,4.22,9.07c.1.12.34,0,.31-.14a.18.18,0,0,0-.33,0A32.85,32.85,0,0,0,230.78,371.19Z"/><path class="cls-5" d="M228.45,266.84l-.21,0a23.8,23.8,0,0,0-2.68-.16,12.69,12.69,0,0,1-5.39-.91l.37-.74a12.16,12.16,0,0,0,5,.82c.85,0,1.71,0,2.55.13A66.51,66.51,0,0,0,244,234l.82.15a67.36,67.36,0,0,1-16.2,32.51Z"/><path class="cls-9" d="M220.17,265.75c-1.48-.72-3-1.41-4.44-2.1s-3-1.39-4.48-2.12l-.31-.15.1-.33a68.38,68.38,0,0,0,2.48-17.58,83.62,83.62,0,0,0-13.65-2.77l.09-.82a83.57,83.57,0,0,1,14.1,2.88l.3.09v.31a68.7,68.7,0,0,1-2.43,17.78c1.38.67,2.77,1.31,4.15,2s3,1.38,4.46,2.11Z"/><path class="cls-31" d="M242.61,242.26c-1.28,11-5.2,21.9-10.41,31.7,10.19-12.4,12.79-23.3,15.39-34.39-3.11-6-8.13-11.21-13.53-15.28,3,5.63,5.59,11,8.61,16.59Z"/></g></g></svg>