<svg xmlns="http://www.w3.org/2000/svg" xmlns:xlink="http://www.w3.org/1999/xlink" viewBox="0 0 543.42 656.85"><defs><style>.cls-1{isolation:isolate;}.cls-2{fill:url(#_ÂÁ_Ï_ÌÌ_È_ËÂÌÚ_4);}.cls-10,.cls-17,.cls-23,.cls-3,.cls-6{mix-blend-mode:screen;}.cls-3{fill:url(#_ÂÁ_Ï_ÌÌ_È_ËÂÌÚ_171);}.cls-4{fill:#2b3e51;}.cls-5{fill:url(#_ÂÁ_Ï_ÌÌ_È_ËÂÌÚ_4-2);}.cls-6{fill:url(#_ÂÁ_Ï_ÌÌ_È_ËÂÌÚ_171-2);}.cls-7{fill:#4c6e74;}.cls-8{fill:#61c19b;}.cls-9{fill:url(#_ÂÁ_Ï_ÌÌ_È_ËÂÌÚ_86);}.cls-10{fill:#fff7cd;opacity:0.85;}.cls-11{fill:url(#_ÂÁ_Ï_ÌÌ_È_ËÂÌÚ_86-2);}.cls-12{fill:url(#_ÂÁ_Ï_ÌÌ_È_ËÂÌÚ_4-3);}.cls-13{fill:url(#_ÂÁ_Ï_ÌÌ_È_ËÂÌÚ_4-4);}.cls-14{fill:#d7d7d7;}.cls-15{fill:#fff;}.cls-16{fill:url(#_ÂÁ_Ï_ÌÌ_È_ËÂÌÚ_4-5);}.cls-17{fill:url(#_ÂÁ_Ï_ÌÌ_È_ËÂÌÚ_171-3);}.cls-18{fill:#c2c0c0;}.cls-19{fill:url(#_ÂÁ_Ï_ÌÌ_È_ËÂÌÚ_4-6);}.cls-20{fill:url(#_ÂÁ_Ï_ÌÌ_È_ËÂÌÚ_3);}.cls-21{fill:#487188;}.cls-22{fill:url(#_ÂÁ_Ï_ÌÌ_È_ËÂÌÚ_160);}.cls-23{fill:url(#_ÂÁ_Ï_ÌÌ_È_ËÂÌÚ_166);}</style><linearGradient id="_ÂÁ_Ï_ÌÌ_È_ËÂÌÚ_4" x1="361.76" y1="466.38" x2="374.41" y2="491.61" gradientUnits="userSpaceOnUse"><stop offset="0.04" stop-color="#fff"/><stop offset="0.3" stop-color="#fbfbfb"/><stop offset="0.55" stop-color="#efefef"/><stop offset="0.7" stop-color="#e5e5e4"/><stop offset="0.8" stop-color="#dfdfde"/><stop offset="1" stop-color="#d7d7d7"/></linearGradient><linearGradient id="_ÂÁ_Ï_ÌÌ_È_ËÂÌÚ_171" x1="368.05" y1="466.4" x2="368.56" y2="491.91" gradientUnits="userSpaceOnUse"><stop offset="0" stop-color="#c4bea9"/><stop offset="0.5" stop-color="#646157"/><stop offset="1" stop-color="#010101"/></linearGradient><linearGradient id="_ÂÁ_Ï_ÌÌ_È_ËÂÌÚ_4-2" x1="391.87" y1="463.58" x2="379.21" y2="503.47" xlink:href="#_ÂÁ_Ï_ÌÌ_È_ËÂÌÚ_4"/><linearGradient id="_ÂÁ_Ï_ÌÌ_È_ËÂÌÚ_171-2" x1="386.32" y1="464.09" x2="389.36" y2="500.65" xlink:href="#_ÂÁ_Ï_ÌÌ_È_ËÂÌÚ_171"/><linearGradient id="_ÂÁ_Ï_ÌÌ_È_ËÂÌÚ_86" x1="13917.14" y1="1490.51" x2="13920.92" y2="1503.84" gradientTransform="matrix(-1, -0.09, -0.09, 1, 14433.48, 144.09)" gradientUnits="userSpaceOnUse"><stop offset="0" stop-color="#f3e9ca"/><stop offset="0.42" stop-color="#b6c1b1"/><stop offset="0.84" stop-color="#759696"/></linearGradient><linearGradient id="_ÂÁ_Ï_ÌÌ_È_ËÂÌÚ_86-2" x1="14047.47" y1="446.16" x2="14046.38" y2="421.32" gradientTransform="matrix(-1, 0, 0, 1, 14433.25, 0)" xlink:href="#_ÂÁ_Ï_ÌÌ_È_ËÂÌÚ_86"/><linearGradient id="_ÂÁ_Ï_ÌÌ_È_ËÂÌÚ_4-3" x1="390.58" y1="401.09" x2="411.55" y2="401.09" xlink:href="#_ÂÁ_Ï_ÌÌ_È_ËÂÌÚ_4"/><linearGradient id="_ÂÁ_Ï_ÌÌ_È_ËÂÌÚ_4-4" x1="364.63" y1="400.98" x2="399.48" y2="400.98" xlink:href="#_ÂÁ_Ï_ÌÌ_È_ËÂÌÚ_4"/><linearGradient id="_ÂÁ_Ï_ÌÌ_È_ËÂÌÚ_4-5" x1="425.83" y1="422.54" x2="408.72" y2="474.81" xlink:href="#_ÂÁ_Ï_ÌÌ_È_ËÂÌÚ_4"/><linearGradient id="_ÂÁ_Ï_ÌÌ_È_ËÂÌÚ_171-3" x1="429.27" y1="422.3" x2="418.13" y2="447.6" xlink:href="#_ÂÁ_Ï_ÌÌ_È_ËÂÌÚ_171"/><linearGradient id="_ÂÁ_Ï_ÌÌ_È_ËÂÌÚ_4-6" x1="814.86" y1="2438.82" x2="822.44" y2="2473.61" gradientTransform="translate(379.35 -2103.93) rotate(16.81)" xlink:href="#_ÂÁ_Ï_ÌÌ_È_ËÂÌÚ_4"/><linearGradient id="_ÂÁ_Ï_ÌÌ_È_ËÂÌÚ_3" x1="815.1" y1="2439.94" x2="818.5" y2="2455.53" gradientTransform="translate(379.35 -2103.93) rotate(16.81)" gradientUnits="userSpaceOnUse"><stop offset="0" stop-color="#fff"/><stop offset="0.84" stop-color="#e9e8e7"/></linearGradient><radialGradient id="_ÂÁ_Ï_ÌÌ_È_ËÂÌÚ_160" cx="12325.73" cy="378.06" r="15.03" gradientTransform="matrix(-1.25, 0, 0, 1.08, 15831.41, -13.04)" gradientUnits="userSpaceOnUse"><stop offset="0.01" stop-color="#21577e"/><stop offset="0.25" stop-color="#1f4f77"/><stop offset="0.63" stop-color="#1b3b62"/><stop offset="1" stop-color="#162048"/></radialGradient><linearGradient id="_ÂÁ_Ï_ÌÌ_È_ËÂÌÚ_166" x1="14187.43" y1="390.97" x2="14181.99" y2="399.93" gradientTransform="matrix(-1, 0, 0, 1, 14559.26, 0)" gradientUnits="userSpaceOnUse"><stop offset="0" stop-color="#848175"/><stop offset="0.73" stop-color="#252421"/><stop offset="1" stop-color="#010101"/></linearGradient></defs><title>Master</title><g class="cls-1"><g id="Layer_1" data-name="Layer 1"><path class="cls-2" d="M381.11,470.52c-1.8,9.58-7.82,19-16.57,26.75a18.72,18.72,0,0,1-4.61-.11,40.45,40.45,0,0,1,4.94-29.53A31.91,31.91,0,0,1,381.11,470.52Z"/><path class="cls-3" d="M376,471.09a69.62,69.62,0,0,0-12.57,22.77c-.95.05-1.78,0-2.73.08a45.89,45.89,0,0,1,5.45-23.6A30.39,30.39,0,0,1,376,471.09Z"/><path class="cls-4" d="M406.67,461.51c-2.11,6.81-7.58,24.56-11.08,30.57a33.55,33.55,0,0,1-6.21-4.69,21.92,21.92,0,0,1,1.36-7.41,24,24,0,0,0,3.74,3.46c2.64-3,5.11-18.17,6.84-21.93C402.35,461.58,405.65,461.31,406.67,461.51Z"/><path class="cls-4" d="M389.13,463.29c-1.24,4-4.48,14.54-6.55,18.1a20,20,0,0,1-3.68-2.78,12.89,12.89,0,0,1,.81-4.38,13.75,13.75,0,0,0,2.21,2c1.56-1.77,3-10.75,4.05-13C386.58,463.34,388.53,463.17,389.13,463.29Z"/><path class="cls-5" d="M395.91,467.71c2.31,11.5-.07,23.45-5.9,34.23a40.73,40.73,0,0,1-10.29,0,45.7,45.7,0,0,1-.85-33.28A45.83,45.83,0,0,1,395.91,467.71Z"/><path class="cls-6" d="M389.53,500.69c-.73,0-1.12,0-1.85,0a125.65,125.65,0,0,0,2.25-27c-3.77-.46-7.7-.83-11.47-1.3a12.81,12.81,0,0,1,.84-3,50.38,50.38,0,0,1,15.46-1.15C396.7,473,395.77,490,389.53,500.69Z"/><polygon class="cls-7" points="436.86 426.85 443.42 395.95 444.07 396.08 438.01 427.07 436.86 426.85"/><polygon class="cls-8" points="443.87 387.96 442.56 396.5 444.44 396.99 446.44 387.9 443.87 387.96"/><path class="cls-7" d="M430.57,431.89l2.41-5.67c1-1.91,9.06-.72,9.26,1l.05,7.26Z"/><polygon class="cls-7" points="438.31 423.51 437.12 432.2 440.08 433.16 440.35 424.15 438.31 423.51"/><polygon class="cls-9" points="438.31 423.51 436.98 423.96 436.69 425.26 437.29 425.3 435.97 432.39 437.17 432.5 438.31 423.51"/><polygon class="cls-10" points="444.24 388.36 443.35 394.88 444.18 395.04 445.78 388.66 444.24 388.36"/><path class="cls-7" d="M380.37,417.17a76,76,0,0,1,7.78,9.74,114,114,0,0,1-7.88,9.4h7.56a39.5,39.5,0,0,0,8.18-9.53,73.7,73.7,0,0,0-5.95-9.72A68.09,68.09,0,0,0,380.37,417.17Z"/><path class="cls-11" d="M386,436.31h-5.73a114,114,0,0,0,7.88-9.4c-1.41-2.06-2.91-4.07-4.49-6a15.33,15.33,0,0,1,3.6-.16c1.78,2.28,3.48,4.65,5.27,6.93Q389.26,432,386,436.31Z"/><path class="cls-12" d="M399.75,383.46c4,1.35,7.78,2.78,11.8,4.13a253.36,253.36,0,0,1-7.2,31.15H390.58q5.13-17.48,8.9-35.29Z"/><path class="cls-13" d="M364.63,385.44a154.16,154.16,0,0,1,34.85-2q-3.76,17.81-8.9,35.29h-19A121,121,0,0,1,364.63,385.44Z"/><path class="cls-14" d="M384.54,405.83c1.46.5,2.84,1,4.31,1.51a94,94,0,0,1-2.63,11.39h-5c1.25-4.25,2.34-8.56,3.26-12.9Z"/><path class="cls-15" d="M371.69,406.56a56.1,56.1,0,0,1,12.75-.73c-.92,4.34-2,8.65-3.26,12.9h-6.93A44.39,44.39,0,0,1,371.69,406.56Z"/><path class="cls-4" d="M368.32,384.28a23.09,23.09,0,0,1,6.34-3.9l1.37,1,1.5,4.93a13.18,13.18,0,0,0-5.61,2.22l-1.38-1Z"/><path class="cls-4" d="M383.6,378.44a33.16,33.16,0,0,1,9.43,3.88s.91.69,1.38,1a40.77,40.77,0,0,1-2.74,4.89,24.68,24.68,0,0,0-7.05-2.45l-1.37-1Z"/><path class="cls-14" d="M393,382.32a40.39,40.39,0,0,1-2.73,4.9,24.68,24.68,0,0,0-7.05-2.45l.35-6.33A33.16,33.16,0,0,1,393,382.32Zm-24.71,2,2.22,3.25a13.22,13.22,0,0,1,5.61-2.21l-1.49-4.94A23.09,23.09,0,0,0,368.32,384.28Z"/><path class="cls-14" d="M399.41,408c.85-4.15,1.71-8.55,2.57-12.69.42,0,.75-.17,1.17-.17q-.94,6.88-2.53,13.54Z"/><path class="cls-16" d="M392,427.25h0c1.66,15.54,2.64,23,1.29,36.82l51.33-.28c4-12,5.24-17.46,5.13-31.11Z"/><path class="cls-17" d="M393.5,427.89l55,5c.6,9.18-1.3,20.17-4.14,30.75h-1.05c1.18-9.85,1.75-20,.54-28.38-11.93-2-30.66-4.36-50.37-6.81Z"/><path class="cls-18" d="M392,427.25h0l-28.41,6c4.17,13.11,6,18.52,8.31,30.83h21.39C394.63,450.26,393.65,442.79,392,427.25Z"/><path class="cls-4" d="M446.34,467.33a11,11,0,0,0-4.48-2.76,52.5,52.5,0,0,0-14.07-.57,66.2,66.2,0,0,1,2.23,8.73c-2.7.57-5.53,1-8.34,1.33a30.94,30.94,0,0,1-2.46-9.52,6,6,0,0,0-3.55-.5,30.21,30.21,0,0,0,2.59,14.25,64.88,64.88,0,0,0,12.43-1,54.22,54.22,0,0,1,0,11.88A26.45,26.45,0,0,0,441,493C446.28,487.75,449.43,473.63,446.34,467.33Z"/><path class="cls-14" d="M451.2,468.18a23,23,0,0,0-10.63.32q1.17,15.06.92,30.19a40.27,40.27,0,0,0,7.29,2.51h0A78.27,78.27,0,0,0,451.2,468.18Z"/><path class="cls-4" d="M449,469.29a24,24,0,0,0-7.68.47,156.5,156.5,0,0,1,1.38,17.51l6.46,1.66A130.81,130.81,0,0,0,449,469.29Z"/><path class="cls-19" d="M455.18,486.53a32.2,32.2,0,0,0-.18-15.64,12.57,12.57,0,0,0-3.7-2.7h-.1a78.27,78.27,0,0,1-2.4,33,9.54,9.54,0,0,0,1.41.14A94.16,94.16,0,0,0,455.18,486.53Z"/><path class="cls-20" d="M455.72,483.44a30.64,30.64,0,0,0-.72-12.55,12.57,12.57,0,0,0-3.7-2.7h-.1a82.06,82.06,0,0,1,.71,13.84C453.17,482.48,454.45,483,455.72,483.44Z"/><path class="cls-4" d="M446.28,479.59a19.74,19.74,0,0,0-.28-3.36,28.69,28.69,0,0,0-3.7-.08c-3,2.8-10.76,6.88-14.38,8-3.95-2.93-5.77-8.2-7.86-12.21-.42.22-.74.35-1.16.57,2,4.87,4,11.2,8.51,14.43C431.11,486.57,442.1,483,446.28,479.59Z"/><path class="cls-21" d="M444.11,479.79l-.05-3A107.31,107.31,0,0,1,430,483.7l.28,1.36C434.16,484.18,440.56,482,444.11,479.79Z"/><path class="cls-15" d="M373.24,446.9l.35.14.07.46a65.17,65.17,0,0,0,2.58,10.24,25.47,25.47,0,0,0,6.88.05c.38-3.78.89-7.34,1.52-10.58l.09-.46.36-.12c3-.95,5.28-5.66,8.2-6.82-.05.57.19,1.62.14,2.2-2.65,1.05-5,5.17-7.67,6.05-.62,3.23-1.11,6.78-1.47,10.55l-.06.63-.48.07a28.24,28.24,0,0,1-4,.28,23.69,23.69,0,0,1-4-.33l-.34-.06-.14-.41a68.5,68.5,0,0,1-2.73-10.52c-1.64-.68-3.3-1.47-5-2.34-.09-.62-.6-1.62-.67-2.24C368.88,444.76,371.3,446.1,373.24,446.9Z"/><path class="cls-22" d="M381.37,388.4l.58,0a10.83,10.83,0,0,1,4.7,1.07c3.83,2.31,6.38,6.93,6.38,12.37,0,8.23-5.83,15.24-13,15.61l-.59,0h0a10.76,10.76,0,0,1-4.69-1.09,12,12,0,0,1-2.63-2.17A14.9,14.9,0,0,1,368.36,404C368.36,395.78,374.19,388.77,381.37,388.4Z"/><path class="cls-23" d="M368.92,404c0-8,5.6-14.77,12.48-15.12"/><path class="cls-14" d="M381.73,400.56a2.41,2.41,0,0,0,2.27,3,3.46,3.46,0,0,0,3.17-3"/><path class="cls-14" d="M378.38,399.94c.33,2.2-1,4-3,4a4.61,4.61,0,0,1-4.22-4c-.33-2.2,1-4,3-4A4.62,4.62,0,0,1,378.38,399.94Z"/></g></g></svg>