<svg xmlns="http://www.w3.org/2000/svg" xmlns:xlink="http://www.w3.org/1999/xlink" viewBox="0 0 543.42 656.85"><defs><style>.cls-1{isolation:isolate;}.cls-2{fill:#2b3e51;}.cls-3{fill:url(#_ÂÁ_Ï_ÌÌ_È_ËÂÌÚ_3);}.cls-4{fill:url(#_ÂÁ_Ï_ÌÌ_È_ËÂÌÚ_5);}.cls-5{fill:#d3d3d3;}.cls-6{fill:url(#_ÂÁ_Ï_ÌÌ_È_ËÂÌÚ_3-2);}.cls-7{fill:url(#_ÂÁ_Ï_ÌÌ_È_ËÂÌÚ_3-3);}.cls-8{fill:#99999a;}.cls-12,.cls-9{mix-blend-mode:screen;}.cls-9{fill:url(#_ÂÁ_Ï_ÌÌ_È_ËÂÌÚ_40);}.cls-10{fill:url(#_ÂÁ_Ï_ÌÌ_È_ËÂÌÚ_4);}.cls-11{fill:#d7d7d7;}.cls-12{fill:url(#_ÂÁ_Ï_ÌÌ_È_ËÂÌÚ_40-2);}</style><linearGradient id="_ÂÁ_Ï_ÌÌ_È_ËÂÌÚ_3" x1="368.8" y1="326.53" x2="339.1" y2="341.28" gradientUnits="userSpaceOnUse"><stop offset="0" stop-color="#fff"/><stop offset="0.84" stop-color="#e9e8e7"/></linearGradient><linearGradient id="_ÂÁ_Ï_ÌÌ_È_ËÂÌÚ_5" x1="365.13" y1="299.97" x2="353.73" y2="348.54" gradientUnits="userSpaceOnUse"><stop offset="0" stop-color="#fff"/><stop offset="0.48" stop-color="#eee"/><stop offset="1" stop-color="#d7d7d7"/></linearGradient><linearGradient id="_ÂÁ_Ï_ÌÌ_È_ËÂÌÚ_3-2" x1="361.24" y1="392.62" x2="321.59" y2="413.64" xlink:href="#_ÂÁ_Ï_ÌÌ_È_ËÂÌÚ_3"/><linearGradient id="_ÂÁ_Ï_ÌÌ_È_ËÂÌÚ_3-3" x1="370.79" y1="359.22" x2="296.64" y2="454.87" xlink:href="#_ÂÁ_Ï_ÌÌ_È_ËÂÌÚ_3"/><linearGradient id="_ÂÁ_Ï_ÌÌ_È_ËÂÌÚ_40" x1="358.82" y1="298.31" x2="357.14" y2="359.58" gradientUnits="userSpaceOnUse"><stop offset="0.17" stop-color="#beb48e"/><stop offset="0.26" stop-color="#b4ab87"/><stop offset="0.41" stop-color="#9a9273"/><stop offset="0.6" stop-color="#6f6953"/><stop offset="0.82" stop-color="#343127"/><stop offset="1" stop-color="#010101"/></linearGradient><linearGradient id="_ÂÁ_Ï_ÌÌ_È_ËÂÌÚ_4" x1="526.37" y1="-573.41" x2="536" y2="-520.87" gradientTransform="translate(-82.09 887.37) rotate(-10.74)" gradientUnits="userSpaceOnUse"><stop offset="0.04" stop-color="#fff"/><stop offset="0.3" stop-color="#fbfbfb"/><stop offset="0.55" stop-color="#efefef"/><stop offset="0.7" stop-color="#e5e5e4"/><stop offset="0.8" stop-color="#dfdfde"/><stop offset="1" stop-color="#d7d7d7"/></linearGradient><linearGradient id="_ÂÁ_Ï_ÌÌ_È_ËÂÌÚ_40-2" x1="528.4" y1="-573.8" x2="531.98" y2="-528.71" gradientTransform="translate(-82.09 887.37) rotate(-10.74)" xlink:href="#_ÂÁ_Ï_ÌÌ_È_ËÂÌÚ_40"/></defs><title>Master</title><g class="cls-1"><g id="Layer_1" data-name="Layer 1"><path class="cls-2" d="M350.9,317.53a201.62,201.62,0,0,0-6.9-43.48A25,25,0,0,0,331.53,277a148.18,148.18,0,0,1,6.09,36.44,19,19,0,0,0,9.41,6.28,4.34,4.34,0,0,0,2.05.23A3.52,3.52,0,0,0,350.9,317.53Z"/><path class="cls-3" d="M359.57,361.63c1.53-6.88,1.94-14.16,4.28-20.81A47.21,47.21,0,0,0,360.44,303a23.94,23.94,0,0,0-11,1.91A22.41,22.41,0,0,1,348.3,319a10.05,10.05,0,0,1-6.23-4.69A27.71,27.71,0,0,1,338.8,307a24.25,24.25,0,0,0-14.14,13.9,49.59,49.59,0,0,0,8.76,20.91,153.3,153.3,0,0,1-.11,19.29c-.16,3.19,2.83,6.38,5.92,7.2s16.15-.18,17.5-1.13S359.21,363.23,359.57,361.63Z"/><path class="cls-4" d="M355.82,303.12a57.42,57.42,0,0,1,1.44,29.63,15.51,15.51,0,0,1,3.82,2.74,36.18,36.18,0,0,1-3.42,14.41l.35.24c1.14.78,2.08,1.62,3.2,2.23a66.77,66.77,0,0,1,2.64-11.55A47.21,47.21,0,0,0,360.44,303,19.64,19.64,0,0,0,355.82,303.12Z"/><path class="cls-5" d="M345,355.93A169.69,169.69,0,0,1,347.21,333a32.81,32.81,0,0,1-2.6-11.66A14.72,14.72,0,0,0,348.7,319c-.05-.2-.1-.41-.14-.61-.09.22-.16.44-.26.67a10.05,10.05,0,0,1-6.23-4.69A27.71,27.71,0,0,1,338.8,307a24.25,24.25,0,0,0-14.14,13.9,49.59,49.59,0,0,0,8.76,20.91,153.3,153.3,0,0,1-.11,19.29c-.16,3.19,2.83,6.38,5.92,7.2s16.15-.18,17.5-1.13a6.53,6.53,0,0,0,1.76-2.46A32.9,32.9,0,0,0,345,355.93Z"/><path class="cls-6" d="M337.62,393.72a5.61,5.61,0,0,0,3.3.75,6.33,6.33,0,0,0,.65,2.18,27.37,27.37,0,0,1-10.26,11.28c-2-.48-4.28-1.09-6.26-1.57-.13-.78-.27-1.27-.39-2.05A42.2,42.2,0,0,0,337.62,393.72ZM347,411.61a21.9,21.9,0,0,0,9-12.71c-.35-.65-.75-1.51-1.1-2.16a20.65,20.65,0,0,1-4.9-.43,63.07,63.07,0,0,1-10.78,11.48c0,.78-.29,1.62-.31,2.4A37.35,37.35,0,0,0,347,411.61Z"/><path class="cls-5" d="M331.31,407.93c-.16-.77-.31-1.54-.42-2.31A23.77,23.77,0,0,0,341,394.79c0-.11,0-.22-.05-.32a5.61,5.61,0,0,1-3.3-.75,42.2,42.2,0,0,1-13,10.59c.12.78.26,1.27.39,2.05,2,.48,4.27,1.09,6.26,1.57Z"/><path class="cls-5" d="M347.14,411.49a16.87,16.87,0,0,0-.19-2.32,33,33,0,0,0,7.83-12.43,21.22,21.22,0,0,1-4.84-.43,63.07,63.07,0,0,1-10.78,11.48c0,.78-.29,1.62-.31,2.4a37.35,37.35,0,0,0,8.12,1.42Z"/><path class="cls-2" d="M356.72,377.47c-.67-2.05,1.21-5.36.25-7.29a8,8,0,0,0-1-1.49c.14-.74.26-1.48.34-2.22a37,37,0,0,0-8.76-6.73,22.16,22.16,0,0,0-12.35,3.7,113.83,113.83,0,0,1-1.2,13.92,11,11,0,0,0,1,6.81c1.45,2.75.26,6.2-.08,9.27a42.42,42.42,0,0,1-7.39,6.9,4.17,4.17,0,0,0,.19,2.25,16.11,16.11,0,0,0,4.68,1,27.08,27.08,0,0,0,7-8.21c1.7-3,2.12-6.79,2.36-10.25a41.27,41.27,0,0,0,4.58-.3,27.27,27.27,0,0,1,1.33,9.46c-.09,3.46-3.62,6.42-5.87,9.1.09.72,0,1.4.12,2.12,1.74.33,3.14.76,4.88,1.09a23.57,23.57,0,0,0,7.06-8.82,44.31,44.31,0,0,1-1.27-7.23,7.34,7.34,0,0,0,3,.52C358.08,386.93,358.19,382,356.72,377.47Z"/><path class="cls-5" d="M359.27,380.74a9.4,9.4,0,0,0-5-1.95l-1.47,1a54.51,54.51,0,0,1-.54,12.76,12.63,12.63,0,0,0,4.3,1.14l1.38-1.23A34.21,34.21,0,0,0,359.27,380.74Z"/><path class="cls-5" d="M359.63,369.72a21.23,21.23,0,0,0-7.37-3.62l-1.47,1c.73,3.29.56,9.87.56,9.79a17.82,17.82,0,0,1,6.76,2.55l1.47-1C360.25,375.73,360.55,372.36,359.63,369.72Z"/><path class="cls-7" d="M359.58,378.44a17.87,17.87,0,0,0-6.77-2.55c0,.08.18-6.5-.55-9.79a21.23,21.23,0,0,1,7.37,3.62C360.55,372.36,360.25,375.73,359.58,378.44Zm-.31,2.3a9.4,9.4,0,0,0-5-1.95,54.51,54.51,0,0,1-.54,12.76,12.64,12.64,0,0,0,4.29,1.14l-.08-.27A34.21,34.21,0,0,0,359.27,380.74Z"/><path class="cls-8" d="M333.84,350.9l-.27-.48A22,22,0,0,1,340,348c.12-1.92.25-3.91.37-5.91s.25-4.05.38-6A33.89,33.89,0,0,1,334.48,326a23.67,23.67,0,0,0-7.31,3.44l-.31-.45a24.17,24.17,0,0,1,7.72-3.58l.23-.06.09.22a33.35,33.35,0,0,0,6.32,10.25l.08.09V336c-.12,2-.25,4.06-.38,6.13s-.26,4.13-.39,6.12v.22l-.22,0A21.28,21.28,0,0,0,333.84,350.9Z"/><path class="cls-8" d="M361.16,353a7.73,7.73,0,0,1-3.88-2.23l-.22-.2.11-.27a40.2,40.2,0,0,0,3.27-13.85l0-.6a11.94,11.94,0,0,0-3.4-2.28l-.3-.13.06-.32a67.79,67.79,0,0,0-1.52-29.81l.79-.22a68.46,68.46,0,0,1,1.59,29.86,12.55,12.55,0,0,1,3.48,2.44l.13.13,0,1a41.08,41.08,0,0,1-3.21,13.85,6.54,6.54,0,0,0,3.21,1.84Z"/><path class="cls-9" d="M357.26,359.24c-1.91-1.11-4-2-5.87-3.09,3.11-7.92,4.09-16.38,4.44-24.66a70.53,70.53,0,0,0-4.29-27.17,21.09,21.09,0,0,1,7.51-1.42,37.71,37.71,0,0,1,2.49,36.91C360.18,346.06,359,353,357.26,359.24Z"/><path class="cls-10" d="M339.78,231.68a108.7,108.7,0,0,0-20.16.8s-.06,0-.05.05c11.22,13.17,17.52,27.55,23.17,43.77a60.41,60.41,0,0,0,9.53-6.72C351.09,255.47,347.48,243.61,339.78,231.68Z"/><path class="cls-11" d="M351.38,261a43,43,0,0,1-9.14.08c-.06,0-.22,0-.26,0s-.05-.2-.07-.27C339.34,249.89,334.68,241,328,232l.62-.49a76.74,76.74,0,0,1,14.06,28.77,43.8,43.8,0,0,0,8.29,0c1.12-.12.24,0,.26,0,.43.12.19.68.15.78S351.39,261,351.38,261Z"/><path class="cls-12" d="M351.05,267a83.25,83.25,0,0,0-11.46-34.29,114,114,0,0,0-18,.22,57.53,57.53,0,0,1,15.87,3.63A90,90,0,0,1,351.05,267Z"/><path class="cls-11" d="M310.2,243.32a94.17,94.17,0,0,1,11.44,4.06c7.32,9.16,9.54,21.18,8.12,34.38a73.43,73.43,0,0,0,13-5.46c-5.65-16.22-11.94-30.59-23.18-43.78a87.89,87.89,0,0,0-9.44,10.68A.83.83,0,0,0,310.2,243.32Z"/></g></g></svg>