<svg xmlns="http://www.w3.org/2000/svg" xmlns:xlink="http://www.w3.org/1999/xlink" viewBox="0 0 543.42 656.85"><defs><style>.cls-1{isolation:isolate;}.cls-2{fill:#2b3e51;}.cls-3{fill:#d7d7d7;}.cls-4{fill:url(#_ÂÁ_Ï_ÌÌ_È_ËÂÌÚ_4);}.cls-5{fill:url(#_ÂÁ_Ï_ÌÌ_È_ËÂÌÚ_3);}.cls-6{fill:#d3d3d3;}.cls-7{fill:url(#_ÂÁ_Ï_ÌÌ_È_ËÂÌÚ_5);}.cls-8{fill:url(#_ÂÁ_Ï_ÌÌ_È_ËÂÌÚ_3-2);}.cls-9{fill:url(#_ÂÁ_Ï_ÌÌ_È_ËÂÌÚ_3-3);}.cls-10{fill:#99999a;}.cls-11,.cls-12,.cls-13,.cls-14,.cls-18,.cls-21{mix-blend-mode:screen;}.cls-11{fill:url(#_ÂÁ_Ï_ÌÌ_È_ËÂÌÚ_40);}.cls-12{fill:url(#_ÂÁ_Ï_ÌÌ_È_ËÂÌÚ_40-2);}.cls-13{fill:url(#_ÂÁ_Ï_ÌÌ_È_ËÂÌÚ_40-3);}.cls-14{fill:url(#_ÂÁ_Ï_ÌÌ_È_ËÂÌÚ_40-4);}.cls-15{fill:url(#linear-gradient);}.cls-16{fill:url(#linear-gradient-2);}.cls-17{fill:#fdfce8;}.cls-18{fill:url(#_ÂÁ_Ï_ÌÌ_È_ËÂÌÚ_40-5);}.cls-19{fill:url(#linear-gradient-3);}.cls-20{fill:url(#linear-gradient-4);}.cls-21{fill:url(#_ÂÁ_Ï_ÌÌ_È_ËÂÌÚ_40-6);}.cls-22{fill:url(#linear-gradient-5);}.cls-23{fill:url(#linear-gradient-6);}.cls-24{fill:url(#linear-gradient-7);}.cls-25{fill:#210e0e;}.cls-26{fill:url(#linear-gradient-8);}.cls-27{fill:#abb3b5;}.cls-28{fill:#211516;}.cls-29{fill:#2e201b;}.cls-30{fill:#881c1d;}.cls-31{fill:#6c0d0f;}.cls-32{fill:none;stroke:#881c1d;stroke-miterlimit:10;stroke-width:0.42px;}.cls-33{fill:#fffef6;}.cls-34{fill:url(#linear-gradient-9);}.cls-35{fill:url(#linear-gradient-10);}.cls-36{fill:url(#linear-gradient-11);}.cls-37{fill:url(#linear-gradient-12);}.cls-38{fill:url(#linear-gradient-13);}.cls-39{fill:url(#linear-gradient-14);}.cls-40{fill:url(#linear-gradient-15);}.cls-41{fill:url(#linear-gradient-16);}.cls-42{fill:url(#linear-gradient-17);}.cls-43{fill:url(#linear-gradient-18);}.cls-44{fill:url(#linear-gradient-19);}.cls-45{fill:url(#linear-gradient-20);}.cls-46{fill:url(#linear-gradient-21);}.cls-47{fill:url(#linear-gradient-22);}.cls-48{fill:url(#linear-gradient-23);}.cls-49{fill:url(#linear-gradient-24);}.cls-50{fill:url(#linear-gradient-25);}.cls-51{fill:url(#linear-gradient-26);}.cls-52{fill:url(#_ÂÁ_Ï_ÌÌ_È_ËÂÌÚ_3-4);}.cls-53{fill:url(#_ÂÁ_Ï_ÌÌ_È_ËÂÌÚ_3-5);}.cls-54{fill:url(#_ÂÁ_Ï_ÌÌ_È_ËÂÌÚ_3-6);}</style><linearGradient id="_ÂÁ_Ï_ÌÌ_È_ËÂÌÚ_4" x1="243.65" y1="226.52" x2="222.07" y2="277.81" gradientUnits="userSpaceOnUse"><stop offset="0.04" stop-color="#fff"/><stop offset="0.3" stop-color="#fbfbfb"/><stop offset="0.55" stop-color="#efefef"/><stop offset="0.7" stop-color="#e5e5e4"/><stop offset="0.8" stop-color="#dfdfde"/><stop offset="1" stop-color="#d7d7d7"/></linearGradient><linearGradient id="_ÂÁ_Ï_ÌÌ_È_ËÂÌÚ_3" x1="226.69" y1="299.65" x2="190.63" y2="335.42" gradientUnits="userSpaceOnUse"><stop offset="0" stop-color="#fff"/><stop offset="0.84" stop-color="#e9e8e7"/></linearGradient><linearGradient id="_ÂÁ_Ï_ÌÌ_È_ËÂÌÚ_5" x1="203.09" y1="279.48" x2="192.01" y2="336.54" gradientUnits="userSpaceOnUse"><stop offset="0" stop-color="#fff"/><stop offset="0.48" stop-color="#eee"/><stop offset="1" stop-color="#d7d7d7"/></linearGradient><linearGradient id="_ÂÁ_Ï_ÌÌ_È_ËÂÌÚ_3-2" x1="234.2" y1="362.69" x2="215.46" y2="375.04" xlink:href="#_ÂÁ_Ï_ÌÌ_È_ËÂÌÚ_3"/><linearGradient id="_ÂÁ_Ï_ÌÌ_È_ËÂÌÚ_3-3" x1="235.94" y1="372" x2="217.2" y2="384.35" xlink:href="#_ÂÁ_Ï_ÌÌ_È_ËÂÌÚ_3"/><linearGradient id="_ÂÁ_Ï_ÌÌ_È_ËÂÌÚ_40" x1="224.91" y1="294.44" x2="216.25" y2="354.67" gradientUnits="userSpaceOnUse"><stop offset="0.17" stop-color="#beb48e"/><stop offset="0.26" stop-color="#b4ab87"/><stop offset="0.41" stop-color="#9a9273"/><stop offset="0.6" stop-color="#6f6953"/><stop offset="0.82" stop-color="#343127"/><stop offset="1" stop-color="#010101"/></linearGradient><linearGradient id="_ÂÁ_Ï_ÌÌ_È_ËÂÌÚ_40-2" x1="229.06" y1="358.16" x2="223.67" y2="378.51" xlink:href="#_ÂÁ_Ï_ÌÌ_È_ËÂÌÚ_40"/><linearGradient id="_ÂÁ_Ï_ÌÌ_È_ËÂÌÚ_40-3" x1="230.16" y1="355.11" x2="223.44" y2="385.96" xlink:href="#_ÂÁ_Ï_ÌÌ_È_ËÂÌÚ_40"/><linearGradient id="_ÂÁ_Ï_ÌÌ_È_ËÂÌÚ_40-4" x1="243.76" y1="216.06" x2="234.83" y2="264.42" xlink:href="#_ÂÁ_Ï_ÌÌ_È_ËÂÌÚ_40"/><linearGradient id="linear-gradient" x1="37.24" y1="-499.69" x2="54.79" y2="-499.69" gradientTransform="matrix(0.58, 0.81, -0.81, 0.58, -148.24, 616.05)" gradientUnits="userSpaceOnUse"><stop offset="0.41" stop-color="#b3a9a9"/><stop offset="1" stop-color="#fffef7"/></linearGradient><linearGradient id="linear-gradient-2" x1="18.16" y1="-455.07" x2="25.19" y2="-455.07" gradientTransform="matrix(0.58, 0.81, -0.81, 0.58, -148.24, 616.05)" gradientUnits="userSpaceOnUse"><stop offset="0" stop-color="#aca9a7"/><stop offset="0.12" stop-color="#c9c7c6"/><stop offset="0.28" stop-color="#e7e6e5"/><stop offset="0.4" stop-color="#f9f8f8"/><stop offset="0.49" stop-color="#fff"/><stop offset="0.59" stop-color="#e8e7e6"/><stop offset="0.77" stop-color="#c4c2c1"/><stop offset="0.91" stop-color="#aeabaa"/><stop offset="1" stop-color="#a6a3a1"/></linearGradient><linearGradient id="_ÂÁ_Ï_ÌÌ_È_ËÂÌÚ_40-5" x1="-1369.64" y1="-597.01" x2="-1346.05" y2="-597.01" gradientTransform="matrix(-0.52, -0.72, -0.81, 0.58, -836.5, -342.8)" xlink:href="#_ÂÁ_Ï_ÌÌ_È_ËÂÌÚ_40"/><linearGradient id="linear-gradient-3" x1="22.91" y1="-519.22" x2="22.68" y2="-563.67" gradientTransform="matrix(0.58, 0.81, -0.81, 0.58, -148.24, 616.05)" gradientUnits="userSpaceOnUse"><stop offset="0" stop-color="#b3a9a9"/><stop offset="0.36" stop-color="#faf8f2"/><stop offset="1" stop-color="#fffef7"/></linearGradient><linearGradient id="linear-gradient-4" x1="22.37" y1="-517.72" x2="22.14" y2="-560.91" xlink:href="#linear-gradient"/><linearGradient id="_ÂÁ_Ï_ÌÌ_È_ËÂÌÚ_40-6" x1="10.11" y1="-535.1" x2="31.09" y2="-535.1" gradientTransform="matrix(0.58, 0.81, -0.81, 0.58, -148.24, 616.05)" xlink:href="#_ÂÁ_Ï_ÌÌ_È_ËÂÌÚ_40"/><linearGradient id="linear-gradient-5" x1="20.71" y1="-524.46" x2="21.42" y2="-562.24" gradientTransform="matrix(0.58, 0.81, -0.81, 0.58, -148.24, 616.05)" gradientUnits="userSpaceOnUse"><stop offset="0.04" stop-color="#fff"/><stop offset="0.33" stop-color="#fbfbfb"/><stop offset="0.62" stop-color="#efefef"/><stop offset="0.79" stop-color="#e5e5e4"/><stop offset="0.86" stop-color="#dfdfde"/><stop offset="1" stop-color="#d7d7d7"/></linearGradient><linearGradient id="linear-gradient-6" x1="11.01" y1="-516.77" x2="29.27" y2="-516.77" gradientTransform="matrix(0.58, 0.81, -0.81, 0.58, -148.24, 616.05)" gradientUnits="userSpaceOnUse"><stop offset="0" stop-color="#8a7d81"/><stop offset="0.51" stop-color="#b3a9a9"/><stop offset="1" stop-color="#fffef7"/></linearGradient><linearGradient id="linear-gradient-7" x1="38.81" y1="-515.96" x2="29.14" y2="-511.86" gradientTransform="matrix(0.58, 0.81, -0.81, 0.58, -148.24, 616.05)" gradientUnits="userSpaceOnUse"><stop offset="0" stop-color="#921f24"/><stop offset="1" stop-color="#f3869a"/></linearGradient><linearGradient id="linear-gradient-8" x1="17.7" y1="-445.18" x2="25.62" y2="-445.18" gradientTransform="matrix(0.58, 0.81, -0.81, 0.58, -148.24, 616.05)" gradientUnits="userSpaceOnUse"><stop offset="0.12" stop-color="#921f24"/><stop offset="0.5" stop-color="#f3869a"/><stop offset="0.72" stop-color="#98272a"/></linearGradient><linearGradient id="linear-gradient-9" x1="37.16" y1="-646.01" x2="37.04" y2="-613.07" xlink:href="#linear-gradient-6"/><linearGradient id="linear-gradient-10" x1="37.62" y1="-595.24" x2="37.58" y2="-583.09" xlink:href="#linear-gradient-6"/><linearGradient id="linear-gradient-11" x1="37.25" y1="-579.11" x2="37.22" y2="-570.8" xlink:href="#linear-gradient-6"/><linearGradient id="linear-gradient-12" x1="38.69" y1="-562.01" x2="38.6" y2="-538.68" xlink:href="#linear-gradient-6"/><linearGradient id="linear-gradient-13" x1="16.15" y1="-675.99" x2="16.09" y2="-658.33" xlink:href="#linear-gradient-6"/><linearGradient id="linear-gradient-14" x1="8.73" y1="-625.41" x2="10.55" y2="-615.11" xlink:href="#linear-gradient-6"/><linearGradient id="linear-gradient-15" x1="9.62" y1="-588.52" x2="10.32" y2="-584.6" xlink:href="#linear-gradient-6"/><linearGradient id="linear-gradient-16" x1="7.99" y1="-582.15" x2="10.68" y2="-566.9" xlink:href="#linear-gradient-6"/><linearGradient id="linear-gradient-17" x1="3.84" y1="-567.68" x2="10.31" y2="-531.04" xlink:href="#linear-gradient-6"/><linearGradient id="linear-gradient-18" x1="4.91" y1="-534.04" x2="6.64" y2="-524.25" xlink:href="#linear-gradient-6"/><linearGradient id="linear-gradient-19" x1="11.5" y1="-664.67" x2="30.36" y2="-557.84" xlink:href="#linear-gradient-6"/><linearGradient id="linear-gradient-20" x1="29.71" y1="-510.58" x2="35.17" y2="-521.27" gradientTransform="matrix(0.58, 0.81, -0.81, 0.58, -148.24, 616.05)" gradientUnits="userSpaceOnUse"><stop offset="0" stop-color="#921f24"/><stop offset="0.51" stop-color="#f37f97"/><stop offset="1" stop-color="#f3869a"/></linearGradient><linearGradient id="linear-gradient-21" x1="16.95" y1="-508.31" x2="6.64" y2="-521.09" gradientTransform="matrix(0.58, 0.81, -0.81, 0.58, -148.24, 616.05)" gradientUnits="userSpaceOnUse"><stop offset="0" stop-color="#921f24"/><stop offset="0.46" stop-color="#f3869a"/><stop offset="1" stop-color="#98272a"/></linearGradient><linearGradient id="linear-gradient-22" x1="26.41" y1="-493.25" x2="36.06" y2="-477.06" gradientTransform="matrix(0.58, 0.81, -0.81, 0.58, -148.24, 616.05)" gradientUnits="userSpaceOnUse"><stop offset="0" stop-color="#921f24"/><stop offset="0.34" stop-color="#f3869a"/><stop offset="0.72" stop-color="#98272a"/></linearGradient><linearGradient id="linear-gradient-23" x1="5.64" y1="-483.61" x2="19.47" y2="-499.39" xlink:href="#linear-gradient-8"/><linearGradient id="linear-gradient-24" x1="-7.18" y1="-502.05" x2="25.87" y2="-502.99" gradientTransform="matrix(0.58, 0.81, -0.81, 0.58, -148.24, 616.05)" gradientUnits="userSpaceOnUse"><stop offset="0.26" stop-color="#fff"/><stop offset="0.47" stop-color="#dcdbda"/><stop offset="0.69" stop-color="#bfbcbb"/><stop offset="0.87" stop-color="#acaaa8"/><stop offset="1" stop-color="#a6a3a1"/></linearGradient><linearGradient id="linear-gradient-25" x1="-1688.12" y1="-1417.51" x2="-1650.83" y2="-1418.58" gradientTransform="matrix(-0.16, -1.32, -1.42, 0.17, -2003.36, -1610.4)" xlink:href="#linear-gradient-24"/><linearGradient id="linear-gradient-26" x1="41.21" y1="-529.45" x2="41.19" y2="-524.79" xlink:href="#linear-gradient-6"/><linearGradient id="_ÂÁ_Ï_ÌÌ_È_ËÂÌÚ_3-4" x1="216.56" y1="372.7" x2="190.15" y2="385.76" xlink:href="#_ÂÁ_Ï_ÌÌ_È_ËÂÌÚ_3"/><linearGradient id="_ÂÁ_Ï_ÌÌ_È_ËÂÌÚ_3-5" x1="200.41" y1="392.98" x2="208.81" y2="392.98" xlink:href="#_ÂÁ_Ï_ÌÌ_È_ËÂÌÚ_3"/><linearGradient id="_ÂÁ_Ï_ÌÌ_È_ËÂÌÚ_3-6" x1="207.52" y1="388.32" x2="219.13" y2="388.32" xlink:href="#_ÂÁ_Ï_ÌÌ_È_ËÂÌÚ_3"/></defs><title>Master</title><g class="cls-1"><g id="Layer_1" data-name="Layer 1"><path class="cls-2" d="M219.42,353.54c2.64,4.91,5.33,9.68,8,14.59a36.87,36.87,0,0,1-33.52,5.41,45.16,45.16,0,0,1-.8-11.66C200.89,357,210.2,353.54,219.42,353.54Zm-21,24.35a59.59,59.59,0,0,1-1.53,12.48,55.79,55.79,0,0,0,6.77,7.71c.79.73,1.61,1.93,2.77,1.65,1.37-.34,2.75-1.93,3.45-3.07a45.15,45.15,0,0,1-4.55-8.37A25.11,25.11,0,0,0,203.1,375,21.69,21.69,0,0,0,198.39,377.89Zm6.2-2.92a59.41,59.41,0,0,1,.64,12.57,55.43,55.43,0,0,0,8,6.42c.89.59,1.92,1.63,3,1.15,1.3-.56,2.38-2.37,2.88-3.61a44.94,44.94,0,0,1-5.92-7.46,25.17,25.17,0,0,0-4.45-12.74C207.16,372.16,205.89,373.73,204.59,375Z"/><path class="cls-2" d="M224.37,270.83c-4,12.88-6.48,25.49-6.38,39l.42.44a24.67,24.67,0,0,1-17-2A88.93,88.93,0,0,1,210.07,267a32.65,32.65,0,0,1,7.67-.88,12.27,12.27,0,0,1,7.56,2.77C225.1,269.09,224.57,270.66,224.37,270.83Z"/><path class="cls-3" d="M232.78,221.75a67.46,67.46,0,0,0-24.11,1.16,82.74,82.74,0,0,0-14,42.16,151.18,151.18,0,0,0,21.62,7.46C226.6,257.61,232.81,239.88,232.78,221.75Z"/><path class="cls-4" d="M248.22,239.55c-3.84-6.9-9.41-12.65-15.41-17.79h0c0,18.13-6.18,35.86-16.54,50.78a107.62,107.62,0,0,0,16,2.89A66.13,66.13,0,0,0,248.22,239.55Z"/><path class="cls-5" d="M223.44,356.4a113,113,0,0,1-2.31-28.95c4.9-7.2,8.93-16.94,6.58-25.32-1.06-3.75-4.91-7.88-8.47-9.47,0,.1-1.22,7.9-1.45,14.59-3.65,2.54-5.36,1.66-8-2.43a42.79,42.79,0,0,1,3.25-17.3c-1.08-1-2.6-2.39-3.68-3.43a35.62,35.62,0,0,0-26.61,5.68c-3.23,8.41-6.46,17.18-5.86,26.17.48,7.25,3.41,14.06,5.8,20.92,3,8.6,6.81,19.16,8.18,28.17a102.92,102.92,0,0,0,24-4.58C217.77,359.48,220.55,357.63,223.44,356.4Z"/><path class="cls-6" d="M190.82,365a102.92,102.92,0,0,0,24-4.58,39.49,39.49,0,0,0,5.7-2.63,37.06,37.06,0,0,1-15.3,2,86.21,86.21,0,0,1-3.58-14.58c-4.19,2.46-9.75,4.36-14.7,4.2A105.61,105.61,0,0,1,190.82,365Z"/><path class="cls-3" d="M197.11,320.8a31.91,31.91,0,0,1,8.79-3.3,72.5,72.5,0,0,1,2.87-33.5,35.65,35.65,0,0,0-26.07,5.77c-3.23,8.41-6.46,17.18-5.86,26.17.48,7.25,3.41,14.06,5.8,20.92,1.3,3.72,2.74,7.81,4.08,12a26,26,0,0,0,14.7-3.51A68.17,68.17,0,0,0,197.11,320.8Z"/><path class="cls-7" d="M208.77,284a35.36,35.36,0,0,0-17.66,1.52c-3.34,9.94-1.84,21,1.06,31.19,2.75,9.67,6.7,19,8.83,28.84l.42-.23a68.17,68.17,0,0,0-4.31-24.52,31.91,31.91,0,0,1,8.79-3.3A72.5,72.5,0,0,1,208.77,284Z"/><path class="cls-8" d="M232.09,371.36A19.62,19.62,0,0,1,217.51,377a30.92,30.92,0,0,1,.53-11.38,17,17,0,0,1,7.22-3.24C228.29,364.38,230.58,368.09,232.09,371.36Z"/><path class="cls-9" d="M228.51,372.87a24.45,24.45,0,0,1-5.18,15.34,13.92,13.92,0,0,1-3.64.28,69.69,69.69,0,0,1,3.82-16.18A10.78,10.78,0,0,1,228.51,372.87Z"/><path class="cls-6" d="M214.49,337.51v.26a69,69,0,0,0,2.19,21.94l.77-.34a68.44,68.44,0,0,1-2.15-21.28,26.53,26.53,0,0,1,5.77-1.6l0-.83a27.37,27.37,0,0,0-6.29,1.75Z"/><path class="cls-10" d="M202,345.35v-.21A70.92,70.92,0,0,0,197.68,321a33.35,33.35,0,0,1,8.51-2.79l.43-.07-.09-.42a63.86,63.86,0,0,1,2.56-33.69l-.84-.13a64.72,64.72,0,0,0-2.62,33.56,35.18,35.18,0,0,0-8.65,2.95l-.35.16.13.36a70,70,0,0,1,4.36,24,20,20,0,0,1-14.53,3.49c.1.3.19.61.29.91a17,17,0,0,0,2.67.21,21.14,21.14,0,0,0,12.23-4.06Z"/><path class="cls-10" d="M191.58,348.76c-.4-5.58-2.22-11-4-16.29-.37-1.12-.74-2.23-1.1-3.35-1.95-6.05-3.77-13.14-2.54-19.95-2-.81-4.52-1.66-6.6-1.46l-.05-.55c2.26-.22,5,.73,7.07,1.58l.21.09-.05.22c-1.28,6.75.54,13.85,2.49,19.9.35,1.12.73,2.23,1.1,3.34,1.77,5.3,3.6,10.78,4,16.43Z"/><path class="cls-11" d="M221.26,295.75c4.51,3.33,6,9.61,5.11,15.14s-3.92,10.48-7,15.17a191.23,191.23,0,0,0,1.5,29.49c-1,.38-2.37.76-3.36,1.14a76.11,76.11,0,0,1-1.6-32.55c5-5.43,6.66-14.18,4.67-21.29C220,300.76,221.19,297.93,221.26,295.75Z"/><path class="cls-12" d="M230.78,371.19a27.72,27.72,0,0,0-5.71-7.51,9.38,9.38,0,0,0-3.08,1.68,44.53,44.53,0,0,1,4.22,9.07c.1.12.34,0,.31-.14a.18.18,0,0,0-.33,0A32.85,32.85,0,0,0,230.78,371.19Z"/><path class="cls-13" d="M227.89,373.54a23.74,23.74,0,0,1-3.28,11.26,19.43,19.43,0,0,0,.49-9.18l-1.42-.66a4.68,4.68,0,0,0,.46-2.09A8.17,8.17,0,0,1,227.89,373.54Z"/><path class="cls-3" d="M228.45,266.84l-.21,0a23.8,23.8,0,0,0-2.68-.16,12.69,12.69,0,0,1-5.39-.91l.37-.74a12.16,12.16,0,0,0,5,.82c.85,0,1.71,0,2.55.13A66.51,66.51,0,0,0,244,234l.82.15a67.36,67.36,0,0,1-16.2,32.51Z"/><path class="cls-10" d="M220.17,265.75c-1.48-.72-3-1.41-4.44-2.1s-3-1.39-4.48-2.12l-.31-.15.1-.33a68.38,68.38,0,0,0,2.48-17.58,83.62,83.62,0,0,0-13.65-2.77l.09-.82a83.57,83.57,0,0,1,14.1,2.88l.3.09v.31a68.7,68.7,0,0,1-2.43,17.78c1.38.67,2.77,1.31,4.15,2s3,1.38,4.46,2.11Z"/><path class="cls-14" d="M242.61,242.26c-1.28,11-5.2,21.9-10.41,31.7,10.19-12.4,12.79-23.3,15.39-34.39-3.11-6-8.13-11.21-13.53-15.28,3,5.63,5.59,11,8.61,16.59Z"/><path class="cls-15" d="M294.64,349.32s-.93,3.37,1.82,8c0,0-9-2.14-11.63-.11s-3.55,1.88-3.88,3.3-4,14.84-4,17.8L275.1,359l13.2-7.28,3.32-5.5Z"/><polygon class="cls-16" points="255.36 349.25 209.35 381.73 213.01 387.62 258.86 354.86 255.36 349.25"/><path class="cls-17" d="M278.71,359c-.11-2.51,4.88-4.51,6-4.78s5.74.16,11.47,2.81c0,0-4.59-5.78-4.84-11.15s1.16-14.55-1.92-18.06-7.49-4-10-5.19-6.67-5-9.1-9.66l-1.89,8.79s-5.48,2.25-8.24,5.47c0,0-7.4-5.28-13.41-2.2,0,0,5.43,10.24,5.05,19.44,0,0-5.11,6.69,8.66,18.18l5.74,1.29S274.86,376.4,276.7,378C276.7,378,278.83,361.51,278.71,359Zm-6.77-7.36c-4.35-1.56-7.49-4.82-7.6-8.57a19.77,19.77,0,0,1,.32-5.22s.93-4.35,6.46-6.07,6.21,2.89,6.21,2.89a8.68,8.68,0,0,1,3.08,5.82,40.2,40.2,0,0,0,1.17,7.28S276.28,353.2,271.94,351.64Z"/><path class="cls-3" d="M289.3,336.41c-.42-.1-.83-1.15-.55-2.23a1.91,1.91,0,0,0-2.64-1.92c-1.42.69-3.35,2.36-2.95,4.79S282,340,282,340s-2.59-6.08,4.06-9a2.49,2.49,0,0,1,3.63,1.32C290.94,335,289.73,336.52,289.3,336.41Z"/><path class="cls-3" d="M285,336.33c0,.75-.93,1.12-1.13.71a2.45,2.45,0,0,1,.45-3.05c1.23-1.16,2.94-1.91,3.45-.77s.41,2.25-1.09,1.87S285,335.59,285,336.33Z"/><path class="cls-3" d="M276.87,332.74l.56-2.41s.93.72,1.61,1.3,2.7-1.3,2.7-1.3,1.36-1.29,2-.54-.15,1.08-.15,1.08c-2.11,1.29-2.27,2.81-3.23,3.54S276.87,332.74,276.87,332.74Z"/><path class="cls-3" d="M284.22,329.93s1.07-1.65-1.24-3.86c0,0-.16-.73,1-.2s2.34,1.63,1.82,3.21S284.22,330.74,284.22,329.93Z"/><path class="cls-3" d="M282,329.28c-.83.69-2.46,1.74-2.46,1.74-.45.3-1.15-.26-1.18-1.3s.37-1.82.72-1.5.6,1,1.25.74.73-.87.52-1.85.81-1.41,1.78-.21S282.86,328.6,282,329.28Z"/><path class="cls-3" d="M259.45,357.36c.12-.5-.81-1.33-2.14-1.41s-2.2-2.32-.69-3.63,4.37-2.82,6.81-1.5,3.81-.19,3.81-.19-5.25-5.08-12,1.18c0,0-2.78,2.13-.5,4.49S259.34,357.87,259.45,357.36Z"/><path class="cls-3" d="M261.69,352.55c.83.22,1.71-.62,1.37-1a2.8,2.8,0,0,0-3.57-.62c-1.92.93-3.66,2.55-2.68,3.52s2.24,1.28,2.61-.51S260.85,352.33,261.69,352.55Z"/><path class="cls-3" d="M262.09,342.32l-2.93-.27s.28,1.29.55,2.26-2.85,2.49-2.85,2.49-2.14,1-1.66,2a.73.73,0,0,0,1.25.23c2.54-1.85,4.28-1.47,5.6-2.27S262.09,342.32,262.09,342.32Z"/><path class="cls-3" d="M255.09,349.4s-2.38.58-3.55-2.78c0,0-.71-.45-.76,1.06s.53,3.16,2.53,3.17S256,349.69,255.09,349.4Z"/><path class="cls-3" d="M255.55,346.75c1.19-.66,3.22-2.08,3.22-2.08.56-.38.32-1.35-.8-1.77s-2.18-.26-2,.25.8,1,.14,1.64-1.34.49-2.29-.09-2,.37-1.18,1.88S254.37,347.41,255.55,346.75Z"/><polygon class="cls-10" points="412.22 242.84 395.96 242.78 385.89 245.24 371.58 260.31 354.71 271.66 342.93 273.45 338.27 282.31 328.8 285.71 325.65 290.27 316.68 294.01 310.12 301.59 303.84 307.13 292.77 311.57 286.65 312.3 282.78 316.63 296.25 342.85 306.69 340.22 307.68 333.04 324.28 318.97 334.27 316.01 338.17 309.51 343.92 307.47 351.17 300.86 362.13 298.23 378.11 278.82 402.93 267.25 412.22 242.84"/><path class="cls-3" d="M411.33,243.66l-92.18,62.28-26.21,26.24c-3.37-5.22-7-9.09-11.6-8.75l4-12.42,14-1.31,8.8-4.58,10.47-10.69,4.74-2.14,5.52-6.66,11.85-2.6,2.32-8.91,15.45-4.24,18.37-13.95,10.6-13Z"/><polygon class="cls-18" points="412.31 242.96 307.25 313.92 289.46 327.82 296.28 341.73 306.69 340.22 311.97 327.15 319.17 320.41 334.27 316.01 335.95 309.68 346.15 305.17 351.25 297.55 361.12 298.79 368.84 284.16 388.2 271.57 403.26 264.58 412.31 242.96"/><path class="cls-19" d="M297.51,340.78s-.45-8,.8-10,19-15.24,19-15.24,4.57-5.72,4-11.16c0,0-5.45-1-9.85,1.81s-16.72,11-16.72,11a12,12,0,0,1-11.22.62l-2.66,2.58,8,6.72,2.22,13.45Z"/><path class="cls-20" d="M296.13,340.42s-1.55-8.92,1.83-12.36,17.23-13.83,17.23-13.83,1.47-.94,1.71-2,2.25-6.27,2.25-6.27l-5.17.48a10.15,10.15,0,0,0-3.59,1.9c-2,1.57-16,10.62-16,10.62s-3.79,1.48-5.35,1-6.45-1.45-6.45-1.45l-2.25,2.91,6.08,2.9,2.53,2.74,1.51,7.66L289,340Z"/><path class="cls-21" d="M278.65,323.72a22.81,22.81,0,0,1,6.14,6.1A23.64,23.64,0,0,1,287.9,338l4.35.18.92-10.6a12.23,12.23,0,0,1,5.06-5.77L311,312.63a8.18,8.18,0,0,0,2.37-3.13,10.85,10.85,0,0,0-3.67,1.41c-1.37,1-12.92,9.39-12.92,9.39s-5.39,3.64-8.86,2.61l-7.32-2.19Z"/><path class="cls-22" d="M278.5,324.29a22,22,0,0,1,5.89,5.87,22.87,22.87,0,0,1,3,7.81l4.15.2.83-10.15a11.55,11.55,0,0,1,4.8-5.5l12.1-8.7a7.77,7.77,0,0,0,2.25-3,10.22,10.22,0,0,0-3.5,1.33c-1.3.93-12.29,8.93-12.29,8.93s-5.13,3.45-8.44,2.45l-7-2.13Z"/><path class="cls-23" d="M276.72,326.46s5.07,1.15,6.38,3.13,2.6,3,1.64,9.73l2.7,0-.29-8.07s-1-4-3.52-4.9-6-2.47-6-2.47Z"/><path class="cls-3" d="M277.79,326.48s4.39,1.17,5.57,2.94,2.32,2.73,1.69,8.59l2.32.11-.49-7.09s-1-3.51-3.16-4.41-5.22-2.33-5.22-2.33Z"/><path class="cls-24" d="M294.4,349l4.72-6-1.61-2.23s-12.6-2.85-15.93,7c0,0,3.11-3.08,5.19-2.55S290.23,345.69,294.4,349Z"/><path class="cls-25" d="M228.38,377.26l.6,2-1.47,1.06-2.12.05a18.4,18.4,0,0,1-5.41-7.83l.57-1.92,1.47-1.05,1.74,1.27Z"/><path class="cls-26" d="M228.57,376.7l-.19.56a14.87,14.87,0,0,1-4.62-6.43l.54.17.22.07Z"/><path class="cls-25" d="M192.6,393.15s1.58-.84,2-7.87l2.4,1,2.55-.66.75,1.85,1.84,3.71,2.59,2.87,1.48,1.51-1.52,2-.18,2.59s-5.12-1.2-7.15-.54C197.39,399.56,194.63,398.12,192.6,393.15Z"/><path class="cls-27" d="M205.93,394.71l.31.82a15.69,15.69,0,0,1-6.66-9.94l.71.73Z"/><path class="cls-28" d="M200.29,386.32l.5-.17,2.74-.75.87-.23,3-2.14,11.17-7.84,4.22,5.66-.06.11-14.85,10.85-1.53,1.59.22,1-.62.29A14.83,14.83,0,0,1,200.29,386.32Z"/><path class="cls-29" d="M220,372.53A3.91,3.91,0,0,1,218.3,375a32.06,32.06,0,0,0,4.51,6.28s1.85-1.08,3-.85a30.71,30.71,0,0,1-5.61-8Z"/><path class="cls-29" d="M222.47,381.46s-1.11-.43-4.56-6.19l-1.82,1.31a12.45,12.45,0,0,0,4.4,6.12l.13.09Z"/><path class="cls-29" d="M220.11,383.15a14.05,14.05,0,0,1-4.48-6.24l-2.42,1.74a12.43,12.43,0,0,0,4.48,6.24Z"/><path class="cls-29" d="M217,385.41a15.11,15.11,0,0,1-4.36-6.33L210,381a14.46,14.46,0,0,0,4.55,6.34Z"/><path class="cls-29" d="M214.05,387.5a15.1,15.1,0,0,1-4.48-6.24l-2.4,1.72a11.41,11.41,0,0,0,4.56,6.34Z"/><path class="cls-29" d="M211.12,390a17.79,17.79,0,0,1-4.61-6.69L204.35,385a14.7,14.7,0,0,0,4.65,6.47Z"/><path class="cls-29" d="M208.51,392s-3.24-1.92-5-7l-2.69,1.16a17.35,17.35,0,0,0,5.76,8.27Z"/><path class="cls-30" d="M204,399.69s-7.21-4.9-9-13.27c0,0,1.64,3.26,2.33,3.65s0,1.25.67,1.91a12.37,12.37,0,0,1,1.93,2.69c.66,1.12,1.63,1.13,1.91,1.81A33.06,33.06,0,0,0,204,399.69Z"/><path class="cls-31" d="M204.46,397.33s-1-2.2-1.4-2.27a9,9,0,0,1-1.87-.71c-.06-.08-3.17-3.84-4.05-7a19.18,19.18,0,0,0,4.42,7.6A14.59,14.59,0,0,0,204.46,397.33Z"/><path class="cls-32" d="M228.5,378.79a20.78,20.78,0,0,1-6.09-8.48"/><path class="cls-32" d="M227.15,379.8a20.73,20.73,0,0,1-6.1-8.49"/><path class="cls-33" d="M418.28,239.67l-8.81,5.14s-.22,7.93-8.54,19.65l5.93,5.21Z"/><path class="cls-34" d="M363.12,302.37l11.07-15.89s9.21-8.13,15.4-11.05,17.28-5.82,17.28-5.82l-5.93-5.21s-16.23,7.77-25,13-17.63,19.24-17.63,19.24l4.43,6.18Z"/><path class="cls-35" d="M348.6,312.11s-1.71-7.25,3.92-9.92a10.56,10.56,0,0,1,10.26.65l-4.43-6.18s-11.32-2.58-17.2,10.88Z"/><polygon class="cls-36" points="336.6 319.25 339.08 310.94 348.6 312.11 341.15 307.54 334.91 308.26 333.08 314.35 336.6 319.25"/><path class="cls-37" d="M309.55,344.19s-1.62-6.95-.79-8,8.7-10.64,10.88-11.53,17-5.41,17-5.41l-3.52-4.91s-17,4.32-22.49,11.37a50.73,50.73,0,0,0-7.72,13.57Z"/><path class="cls-38" d="M385.65,242.24l1.46,4.7s12.59-3.18,22.36-2.13l8.81-5.14Z"/><path class="cls-39" d="M343.88,275.72s13.77-4.36,15.57-5.31,18.15-12.7,18.89-13.56,8.77-9.91,8.77-9.91l-1.46-4.7S374.92,254.6,373,256.14s-13.56,9.67-14.37,9.8-18.3,5.58-18.3,5.58l3.05,4.25Z"/><path class="cls-40" d="M328,281.75s4.37,3.51,9-1.43,3.29-8.8,3.29-8.8l3.05,4.25s-.29,5.8-6.64,9.43S328,288,328,288Z"/><path class="cls-41" d="M317.13,290.05l1.58,4.28s4.43.45,6.7-1.69A8.45,8.45,0,0,0,328,288v-6.25s-1.71,8.21-4.36,8.18S317.13,290.05,317.13,290.05Z"/><path class="cls-42" d="M286.4,306.61s3.79,2.92,5.13,2.75,11.94-3.62,13.11-4.8,12.49-14.51,12.49-14.51l1.58,4.28S313.16,302.6,306.5,307s-13.44,7-19.85,5.31Z"/><polygon class="cls-43" points="282.78 316.63 286.4 306.61 286.65 312.3 283.59 317.76 282.78 316.63"/><path class="cls-44" d="M407.24,246.41s-11.13.83-12.95,1.58a51.26,51.26,0,0,0-6,3.61l-65.67,46.13a57.47,57.47,0,0,1-6.1,2.06c-1.23.16-2.44,1.77-2.44,1.77s8.68-2.58,9.13-3,64.8-46,64.8-46,5.69-3.74,7-3.87,9.89-.59,9.89-.59-4,8.05-4.41,8.58-7.08,5.08-7.08,5.08l-64.81,45.34-5.9,8.49a5.39,5.39,0,0,0,1.62-1.16c.59-.71,4.84-6.55,4.84-6.55l70.67-49.29a11.81,11.81,0,0,0,2-1.6C402.08,256.54,407.24,246.41,407.24,246.41Z"/><path class="cls-45" d="M297.51,340.78s-5.88-4.79-12.75-3.41c0,0-3.57,1.38-4.35,3.12,0,0,.4,5.38,1.17,7.28,0,0,2.27-4.25,4.15-4.93S297.51,340.78,297.51,340.78Z"/><path class="cls-46" d="M277.33,334.67s.56-8.51,1.23-9.24,5.26-4.94,5-7.67l-.81-1.13s-3.22,3.26-7.08,2.23a7.58,7.58,0,0,0-2.58,2.53c-.79,1.49-1.59,9.67-2,10.39A41.57,41.57,0,0,0,277.33,334.67Z"/><path class="cls-47" d="M271.94,351.64s-2.43-2-3.48-1.89-6.08,3.77-6.6,4.22-2,1.44-1.61,4.46a19.47,19.47,0,0,1,.24,4.22l5.74,1.29s.53-5,1-6A12.48,12.48,0,0,1,271.94,351.64Z"/><path class="cls-48" d="M264.66,337.85s-10.44-3.4-14.58-2.29c0,0,2,4.64,1.31,7.2,0,0,8.35-.87,12.82.4C264.21,343.16,265.07,339.42,264.66,337.85Z"/><path class="cls-49" d="M271.37,330.81l3.24-11.15a21.87,21.87,0,0,1-4.19-5.62l-1.77,8a29.6,29.6,0,0,0-8.68,5.73c-4.5-3-12.52-2.52-12.52-2.52,3.08,6,3.51,9.44,3.51,9.44,8.72-.4,13.32,2.61,13.32,2.61C265.62,332,271.37,330.81,271.37,330.81ZM271,318.38c0-.54-1.15.14-1.15.14s-.56-.08.17-.69a1.21,1.21,0,0,1,1.78.31c.16.37-1.45,2.28-1.59,2.47s-1,1.79-.4,2.15,1.54-.22,1.54-.54-1.07-.37-.68-.75,1.3.26,1.33,1-2.35,1.69-3,.28S270.92,318.91,271,318.38Zm-6.88,10.11s.56.62,2.14-.35,1.91-1.93,1.66-2.75-2.35-.53-2.13-1.08,2.44-.85,3.55,1.17-4.44,4.88-5,5-3.48-2.13-3.34-3S264.08,328.49,264.08,328.49Zm1.11-2.54c.38,1.08-2.18.66-2.09,0S265.19,326,265.19,326Zm-11.74,7.19c-1-.48-2.17-2.16-1.78-2.78s.81-.69.22-1.11-.33-.78.12-.71,1.44.66,1.17,1.13-1,1.19-.21,1.95a4.12,4.12,0,0,0,3.26.77c1.14-.15-.58-1.67-1.39-1.32s-.85-.63.34-.78,3.81,1.63,2.26,2.61C257.44,332.9,254.42,333.63,253.45,333.14Zm3.86-3.73c-1.23-1.54-5.87-1.81-5.87-1.81-1.4-1.08,1.75-1.09,5.87.57s5.22,5.15,4.59,5.84S258.53,331,257.31,329.41Zm12.3-5.25,1.69-.37-.19,4.22Z"/><path class="cls-50" d="M271.59,352.49a15,15,0,0,0-4.53,11.15s5.31,7.24,9.21,13c-.31.23,2-13,1.61-18.6a18.52,18.52,0,0,1,7.13-4.5,28.74,28.74,0,0,1,9.58,2.12c-2.11-1.84-3.42-6.55-3.78-8.57-3.55-2-6.57-1.74-8.87,1.44C281.94,348.53,277.11,352.93,271.59,352.49Zm12.71-2.78c-.63-2,3.47-2.47,3.47-2.47s.31,2.2-.46,2.19.32-1.05,0-1.36a1.8,1.8,0,0,0-2.14.89c-.29.88,2.15,1.67,2.48,1.72s3.87.45,4.06,1a1.67,1.67,0,0,1-1.6,1.92c-1.36.07-.84-.52-.84-.52s1.91-.41,1.36-.9S284.94,351.69,284.3,349.71Zm-8.08,8.72c-.81-.1-1.88-3.41-1.6-3.92s4.85-4.85,6.34-3.26.45,3.57-.14,3.62.4-1.82-.27-2.28-1.68-.42-3.12.77-1.06,1.88-1.06,1.88S277,358.53,276.22,358.43Zm2.34-2.11c-.66-.14-.24-2.69.66-2C279.22,354.33,279.21,356.45,278.56,356.32Zm-7.89,3.73c1.69-1.37,2.49,2,1.84,3.2s-1.7.89-1,.13-.19-3.06-.82-1.89a4.57,4.57,0,0,0-.53,3.71c.46,1.11,1.56.51,2.17.37s.82,1.1.71,1.6-.59.67-.8-.09-.45-.34-1.28-.11-2.11-1.56-2.23-2.74S270.67,360.05,270.67,360.05Zm.48-4.06c1.14-.55,4.78,1.82,4.68,7.27s-1.7,9.23-2.29,7.22c0,0,2-5.65.79-7.59S270,356.55,271.15,356Zm9.7-6,3.31.15-.88,1.48Z"/><polygon class="cls-51" points="299.12 343.01 309.55 344.19 302.87 339.3 297.51 340.77 299.12 343.01"/><path class="cls-6" d="M211.85,364.16l-.34.08A79.8,79.8,0,0,1,191.67,368,41.18,41.18,0,0,0,190,385.81a88.6,88.6,0,0,0,20.07-3C210.61,376.5,211.1,370.64,211.85,364.16Z"/><path class="cls-10" d="M209.59,382.94A87.86,87.86,0,0,1,190,385.81c0,.13,0,.26,0,.39.88.64,1.57,1.67,2.45,2.31a59.23,59.23,0,0,0,20.41-2.84l.06-.34A36.16,36.16,0,0,1,209.59,382.94Z"/><path class="cls-52" d="M216.76,365.39c-.78-.72-3.4-1.14-4.91-1.23-.75,6.48-1.24,12.34-1.77,18.66-.16.05-.33.08-.49.12a36.16,36.16,0,0,0,3.38,2.39C214.06,378.81,215.69,371.89,216.76,365.39Z"/><path class="cls-53" d="M208.81,399.22c-1.82-3.84-3.44-7.75-5-11.65a11.71,11.71,0,0,0-3.41-1,67,67,0,0,0,8.13,12.89Z"/><path class="cls-6" d="M200.41,386.53a1.88,1.88,0,0,0-.34,0,15.62,15.62,0,0,0-7.28,3.12,25.67,25.67,0,0,0,12.09,11.38,11.23,11.23,0,0,0,3.66-1.63A67,67,0,0,1,200.41,386.53Z"/><path class="cls-54" d="M219.13,393.27c-2.8-3.16-5.43-6.4-8-9.66a14,14,0,0,0-3.63-.42,76.11,76.11,0,0,0,11.4,10.31Z"/><path class="cls-6" d="M207.52,383.19l-.33.07a14,14,0,0,0-6.32,3.85,30.34,30.34,0,0,0,14.89,8.37,10.18,10.18,0,0,0,3.16-2A76.11,76.11,0,0,1,207.52,383.19Z"/></g></g></svg>