<svg xmlns="http://www.w3.org/2000/svg" xmlns:xlink="http://www.w3.org/1999/xlink" viewBox="0 0 543.42 656.85"><defs><style>.cls-1{isolation:isolate;}.cls-2{fill:#2b3e51;}.cls-3{fill:#d7d7d7;}.cls-4{fill:url(#_ÂÁ_Ï_ÌÌ_È_ËÂÌÚ_4);}.cls-5{fill:#99999a;}.cls-14,.cls-37,.cls-38,.cls-6{mix-blend-mode:screen;}.cls-6{fill:url(#_ÂÁ_Ï_ÌÌ_È_ËÂÌÚ_40);}.cls-24,.cls-7{fill:#e7e6e2;}.cls-8{fill:#eaeaea;}.cls-19,.cls-29,.cls-9{fill:#fff;}.cls-10{fill:#ccc;}.cls-11{fill:#f3f3f3;}.cls-12{fill:#acabab;}.cls-13{fill:#ffc514;}.cls-14{opacity:0.6;}.cls-15{fill:#fcee23;mix-blend-mode:overlay;}.cls-16,.cls-28{fill:#fff1e7;}.cls-17{fill:#fbac18;opacity:0.3;}.cls-17,.cls-23,.cls-24,.cls-27{mix-blend-mode:multiply;}.cls-18{fill:#feddc5;}.cls-19,.cls-28{opacity:0.5;}.cls-19{mix-blend-mode:soft-light;}.cls-20{fill:#fffffb;}.cls-21{fill:#f2e6dd;}.cls-22{fill:#f4f4f4;}.cls-23,.cls-31{fill:#d3d3d3;}.cls-23,.cls-26{opacity:0.2;}.cls-25{fill:#e2e2e2;opacity:0.1;}.cls-27{fill:#bc8639;}.cls-29{opacity:0.8;}.cls-30{fill:url(#_ÂÁ_Ï_ÌÌ_È_ËÂÌÚ_3);}.cls-32{fill:url(#_ÂÁ_Ï_ÌÌ_È_ËÂÌÚ_5);}.cls-33{fill:url(#_ÂÁ_Ï_ÌÌ_È_ËÂÌÚ_3-2);}.cls-34{fill:url(#_ÂÁ_Ï_ÌÌ_È_ËÂÌÚ_3-3);}.cls-35{fill:url(#_ÂÁ_Ï_ÌÌ_È_ËÂÌÚ_3-4);}.cls-36{fill:url(#_ÂÁ_Ï_ÌÌ_È_ËÂÌÚ_3-5);}.cls-37{fill:url(#_ÂÁ_Ï_ÌÌ_È_ËÂÌÚ_40-2);}.cls-38{fill:url(#_ÂÁ_Ï_ÌÌ_È_ËÂÌÚ_40-3);}</style><linearGradient id="_ÂÁ_Ï_ÌÌ_È_ËÂÌÚ_4" x1="243.65" y1="226.52" x2="222.07" y2="277.81" gradientUnits="userSpaceOnUse"><stop offset="0.04" stop-color="#fff"/><stop offset="0.3" stop-color="#fbfbfb"/><stop offset="0.55" stop-color="#efefef"/><stop offset="0.7" stop-color="#e5e5e4"/><stop offset="0.8" stop-color="#dfdfde"/><stop offset="1" stop-color="#d7d7d7"/></linearGradient><linearGradient id="_ÂÁ_Ï_ÌÌ_È_ËÂÌÚ_40" x1="243.76" y1="216.06" x2="234.83" y2="264.42" gradientUnits="userSpaceOnUse"><stop offset="0.17" stop-color="#beb48e"/><stop offset="0.26" stop-color="#b4ab87"/><stop offset="0.41" stop-color="#9a9273"/><stop offset="0.6" stop-color="#6f6953"/><stop offset="0.82" stop-color="#343127"/><stop offset="1" stop-color="#010101"/></linearGradient><linearGradient id="_ÂÁ_Ï_ÌÌ_È_ËÂÌÚ_3" x1="9050.73" y1="-6199.51" x2="9014.67" y2="-6163.74" gradientTransform="translate(6494.64 9285.43) rotate(-90.52)" gradientUnits="userSpaceOnUse"><stop offset="0" stop-color="#fff"/><stop offset="0.84" stop-color="#e9e8e7"/></linearGradient><linearGradient id="_ÂÁ_Ï_ÌÌ_È_ËÂÌÚ_5" x1="9027.13" y1="-6219.68" x2="9016.06" y2="-6162.62" gradientTransform="translate(6494.64 9285.43) rotate(-90.52)" gradientUnits="userSpaceOnUse"><stop offset="0" stop-color="#fff"/><stop offset="0.48" stop-color="#eee"/><stop offset="1" stop-color="#d7d7d7"/></linearGradient><linearGradient id="_ÂÁ_Ï_ÌÌ_È_ËÂÌÚ_3-2" x1="9016.64" y1="-6093.41" x2="9024.81" y2="-6093.41" xlink:href="#_ÂÁ_Ï_ÌÌ_È_ËÂÌÚ_3"/><linearGradient id="_ÂÁ_Ï_ÌÌ_È_ËÂÌÚ_3-3" x1="9029.55" y1="-6095.58" x2="9040.8" y2="-6095.58" xlink:href="#_ÂÁ_Ï_ÌÌ_È_ËÂÌÚ_3"/><linearGradient id="_ÂÁ_Ï_ÌÌ_È_ËÂÌÚ_3-4" x1="9058.24" y1="-6136.47" x2="9039.5" y2="-6124.12" xlink:href="#_ÂÁ_Ï_ÌÌ_È_ËÂÌÚ_3"/><linearGradient id="_ÂÁ_Ï_ÌÌ_È_ËÂÌÚ_3-5" x1="9040.6" y1="-6126.46" x2="9014.2" y2="-6113.41" xlink:href="#_ÂÁ_Ï_ÌÌ_È_ËÂÌÚ_3"/><linearGradient id="_ÂÁ_Ï_ÌÌ_È_ËÂÌÚ_40-2" x1="9048.96" y1="-6204.72" x2="9040.29" y2="-6144.49" gradientTransform="translate(6494.64 9285.43) rotate(-90.52)" xlink:href="#_ÂÁ_Ï_ÌÌ_È_ËÂÌÚ_40"/><linearGradient id="_ÂÁ_Ï_ÌÌ_È_ËÂÌÚ_40-3" x1="9053.11" y1="-6141" x2="9047.71" y2="-6120.65" gradientTransform="translate(6494.64 9285.43) rotate(-90.52)" xlink:href="#_ÂÁ_Ï_ÌÌ_È_ËÂÌÚ_40"/></defs><title>Master</title><g class="cls-1"><g id="Layer_1" data-name="Layer 1"><path class="cls-2" d="M224.37,270.83c-4,12.88-6.48,25.49-6.38,39l.42.44a24.67,24.67,0,0,1-17-2A88.93,88.93,0,0,1,210.07,267a32.65,32.65,0,0,1,7.67-.88,12.27,12.27,0,0,1,7.56,2.77C225.1,269.09,224.57,270.66,224.37,270.83Z"/><path class="cls-3" d="M232.78,221.75a67.46,67.46,0,0,0-24.11,1.16,82.74,82.74,0,0,0-14,42.16,151.18,151.18,0,0,0,21.62,7.46C226.6,257.61,232.81,239.88,232.78,221.75Z"/><path class="cls-4" d="M248.22,239.55c-3.84-6.9-9.41-12.65-15.41-17.79h0c0,18.13-6.18,35.86-16.54,50.78a107.62,107.62,0,0,0,16,2.89A66.13,66.13,0,0,0,248.22,239.55Z"/><path class="cls-3" d="M228.45,266.84l-.21,0a23.8,23.8,0,0,0-2.68-.16,12.69,12.69,0,0,1-5.39-.91l.37-.74a12.16,12.16,0,0,0,5,.82c.85,0,1.71,0,2.55.13A66.51,66.51,0,0,0,244,234l.82.15a67.36,67.36,0,0,1-16.2,32.51Z"/><path class="cls-5" d="M220.17,265.75c-1.48-.72-3-1.41-4.44-2.1s-3-1.39-4.48-2.12l-.31-.15.1-.33a68.38,68.38,0,0,0,2.48-17.58,83.62,83.62,0,0,0-13.65-2.77l.09-.82a83.57,83.57,0,0,1,14.1,2.88l.3.09v.31a68.7,68.7,0,0,1-2.43,17.78c1.38.67,2.77,1.31,4.15,2s3,1.38,4.46,2.11Z"/><path class="cls-6" d="M242.61,242.26c-1.28,11-5.2,21.9-10.41,31.7,10.19-12.4,12.79-23.3,15.39-34.39-3.11-6-8.13-11.21-13.53-15.28,3,5.63,5.59,11,8.61,16.59Z"/><path class="cls-2" d="M282.4,291.92a17,17,0,0,0,8.59-4.34c-.08.05.36,0,.28.08,3,.25,6.83,1.5,10.25,2.09a9.13,9.13,0,0,0,.36-5.6,24,24,0,0,0-11.23-2,57.84,57.84,0,0,1-9.19,5.76A5.64,5.64,0,0,0,282.4,291.92Z"/><path class="cls-7" d="M290.5,274.08c0,.59,0,1.19,0,1.8.17,10.93.62,24.45,1.79,34.2,2.28,19.13,4.92,23.13,3.84,26,0,0,0,.07,0,.11a4,4,0,0,0-.18.64h0a26.76,26.76,0,0,0-.35,7.49s5.81,5.61,23.88,5.71,23.93-5.45,23.93-5.45a26.44,26.44,0,0,0-.31-7.65c-.05-.2-.11-.39-.17-.59a3,3,0,0,1-.19-.78c-.4-2.94,2-7.75,4.31-25.22,1.27-9.73,1.87-23.25,2.17-34.17,0-1.59.08-3.13.11-4.59.15-8.22.14-14.09.14-14.09l-59-.32S290.38,264.42,290.5,274.08Z"/><path class="cls-8" d="M295.57,344.36s5.81,5.61,23.88,5.71,23.93-5.45,23.93-5.45a26.44,26.44,0,0,0-.31-7.65c-1.51-.53-4.67.19-6.08-.35,0,0-.79,2.56-7.19,2.53s-8.42-2.76-8.42-2.76-1.52,2.7-8.78,2.66-8.09-6.33-8.09-6.33-3.75,4.82-8.58,4.15h0A26.76,26.76,0,0,0,295.57,344.36Z"/><path class="cls-9" d="M341,337s-4.7.37-5.44-.38c-.76.62-.77,1.28-4.71,2.4,2.49-.12,3.87-.58,4.76-1.73C335.65,337.28,340.29,337.48,341,337Z"/><path class="cls-9" d="M327.45,339.29s-4.72-.82-6.2-2.81c-.88,1.41-3.63,2.64-7.1,2.73a21.61,21.61,0,0,0,7.2-1.37S322.56,338.84,327.45,339.29Z"/><path class="cls-9" d="M309.79,338.84s-3.75-.65-4.85-2.84a12.73,12.73,0,0,1-6.35,1,20,20,0,0,0,6,.06A15.83,15.83,0,0,0,309.79,338.84Z"/><path class="cls-10" d="M343.48,343.21c0,.85-.1,1.41-.1,1.41s-5.87,5.55-23.93,5.45-23.88-5.71-23.88-5.71a31.79,31.79,0,0,1,0-5.49C298.28,350.92,328.88,351.22,343.48,343.21Z"/><path class="cls-9" d="M342.65,338.57s.64,3.5.27,4.53c-.84,2.31-15,7.5-35.88,4.89,0,0,26.5,1.58,34.35-5.22C341.39,342.77,342.59,341.54,342.65,338.57Z"/><path class="cls-11" d="M290.47,257.21c0-1.81,13.22-3.21,29.51-3.12s29.48,1.63,29.47,3.44-13.22,3.21-29.51,3.11S290.46,259,290.47,257.21Z"/><path class="cls-12" d="M291.8,257.21c0-1.38,12.62-2.44,28.17-2.35s28.16,1.28,28.15,2.66-12.62,2.44-28.18,2.36S291.79,258.6,291.8,257.21Z"/><path class="cls-13" d="M292.63,275.9c.06,4.43.17,9.3.35,14.16h0c0,1.5.11,3,.18,4.48,0,.08,0,.16,0,.24.05,1,.1,2.06.15,3.08s.11,1.81.16,2.7l.08,1.12q.18,2.81.42,5.4l.09,1c0,.34.07.68.1,1s.07.65.11,1c2.11,19.14,4.55,23.14,3.55,26.05l0,.11a4.29,4.29,0,0,0-.17.64,12.4,12.4,0,0,0,7.31-.88s1.42,3,8.15,3.06,8.15-2.67,8.15-2.67,1.23,2.74,7.17,2.77,7.19-2.55,7.19-2.55c1.79,1,4.21.42,5.77.35-.05-.2-.11-.39-.16-.59a3.29,3.29,0,0,1-.18-.78c-.22-1.76.5-4.17,1.56-9.57h0c.72-3.64,1.6-8.62,2.46-15.66,1.17-9.72,1.74-23.24,2-34.16Z"/><g class="cls-14"><path class="cls-15" d="M304.46,283.41a2.56,2.56,0,1,0,2.42-2.7A2.56,2.56,0,0,0,304.46,283.41Z"/><path class="cls-15" d="M323.41,331.24a1.32,1.32,0,1,0,1.24-1.38A1.32,1.32,0,0,0,323.41,331.24Z"/><path class="cls-15" d="M312.59,310.29a1,1,0,1,0,1-1.1A1,1,0,0,0,312.59,310.29Z"/><path class="cls-15" d="M329,311.57a1.14,1.14,0,1,0,1.08-1.2A1.13,1.13,0,0,0,329,311.57Z"/><path class="cls-15" d="M316.76,293.75a1.15,1.15,0,1,0,1.08-1.21A1.16,1.16,0,0,0,316.76,293.75Z"/><path class="cls-15" d="M322,318.44a1.46,1.46,0,1,0,1.38-1.55A1.46,1.46,0,0,0,322,318.44Z"/><path class="cls-15" d="M319.82,304.88a1.46,1.46,0,1,0,1.38-1.54A1.46,1.46,0,0,0,319.82,304.88Z"/><path class="cls-15" d="M322.74,283.87a.93.93,0,1,0,.88-1A.94.94,0,0,0,322.74,283.87Z"/><path class="cls-15" d="M326.66,278.83a.5.5,0,0,0,.53.48.52.52,0,0,0,.47-.53.51.51,0,0,0-.53-.48A.5.5,0,0,0,326.66,278.83Z"/><path class="cls-15" d="M330.72,281.4a.51.51,0,1,0,.48-.53A.52.52,0,0,0,330.72,281.4Z"/><path class="cls-15" d="M311.09,290.79a.51.51,0,0,0,.53.47.5.5,0,0,0-.05-1A.5.5,0,0,0,311.09,290.79Z"/><path class="cls-15" d="M327.17,297.1a.52.52,0,0,0,.53.48.51.51,0,0,0,.48-.53.51.51,0,0,0-1,.05Z"/></g><path class="cls-16" d="M292.8,275.9l54.27.3c.28-4.05.09-18.68.09-18.68l-54.4-.3S292.78,275.28,292.8,275.9Z"/><path class="cls-17" d="M292.66,275.9c.06,4.43.17,9.3.34,14.16h0c.05,1.5.12,3,.18,4.48a1.93,1.93,0,0,1,0,.24c.06,1,.11,2.06.16,3.08s.1,1.81.16,2.7l.07,1.12q.19,2.81.42,5.4c0,.34.07.68.1,1s.07.68.1,1,.07.65.1,1c2.11,19.14,4.55,23.14,3.55,26.05l0,.11a4.29,4.29,0,0,0-.17.64A12.4,12.4,0,0,0,305,336s1.42,3,8.15,3.06,8.14-2.67,8.14-2.67,1,2.73,7,2.77,7.38-2.55,7.38-2.55c1.79,1,4.21.42,5.77.35-.05-.2-.11-.39-.16-.59a3.29,3.29,0,0,1-.18-.78c-.22-1.76.5-4.17,1.56-9.57-7.75,17.58-32.87,11-39-9.37-3.12-13.79-6.4-26.66-7.29-40.73"/><path class="cls-18" d="M296.26,275.92q-.6-9.26-.65-18.69h-3s-.09,7.21,0,16.87c0,.59,0,1.2,0,1.81"/><path class="cls-19" d="M310.23,285.54c-.09,17.58,6.81,31.86,15.41,31.91s15.67-14.16,15.77-31.73-6.8-31.86-15.41-31.91S310.33,268,310.23,285.54Z"/><path class="cls-20" d="M317.65,243.73c.81-.07,10.21-1.2,15.08,1.9s3.78.16,8.8,2.29,7.2,3.93,7.94,5.5c.6,1.27,1.6,4.85-3.26,6.4-8,2.57-2.3,5.23-8.07,11.06s-6.37-2.61-13.33-7.12-11.67-2.73-19.21-3.61-13.85-1.24-14.72-2.12c-5.91-6-.36-13.65,14.47-12.83C311.63,245.55,307.58,244.66,317.65,243.73Z"/><path class="cls-21" d="M305.35,245.2c5.25.29,3.28-.29,8.41-1-5.18,2.3-16.36.64-19.61,5.39-.85,1.24-.06,4.17.51,4.79,10.1,11,29.24-1.22,38.72,13.71.55,1.69,4.3,2.74,6.4.82a13.27,13.27,0,0,1-1.64,2c-5.76,5.84-6.37-2.61-13.33-7.12s-11.67-2.73-19.21-3.61-13.52-1.16-15-2.68C285.13,252,290.52,244.38,305.35,245.2Z"/><path class="cls-22" d="M290.73,269.7c-.15.15-1.08,3.05-3.6,3.23s-17.13-1.09-19.49,5.61,0,23.3,1.57,28.23,7.45,21,20.58,25.48c3,.94,5.55,4.28,5.55,4.28s1.05,1.6,1.74-3.18.45-8.9-5.4-7.87-16.41-9.25-18.57-28.25,5.25-18.3,9.05-17.62,7.3,3.3,8.22,4.76,2.06,0,2.21-3.11S292.67,267.65,290.73,269.7Z"/><path class="cls-23" d="M291.23,273.28s-.77,2.16-6.34,1.34-14.33-2-15.72,9.38,5,31.46,9.37,34.67c0,0-9.82-18.38-7.7-32.18,1.18-6.45,5.91-12.18,15.79-6.29C291.75,283.6,292,283.61,291.23,273.28Z"/><path class="cls-24" d="M293.64,326s2.87.2,2.76,4.25,0,8.28-3.33,2.05c-1.11-2-8.65-1.59-13.85-9.5S289.15,333.47,293.64,326Z"/><path class="cls-9" d="M285.55,274.56s-9.93-.93-13.13,1.23-4.36,7.49-3.5,20.1,5.76,19.46,5.76,19.46-6.09-10-4.81-28.89C270.75,278.66,274,275.63,285.55,274.56Z"/><path class="cls-25" d="M347.89,253.71s.21,4.78-6.77,6.29c-2.43.28-.74,4.32-2,6.32s1.13-.59-.44-6S344.23,262.86,347.89,253.71Z"/><g class="cls-26"><path class="cls-27" d="M308,331.46a4.66,4.66,0,0,0,4.65,4.7h0a4.67,4.67,0,0,0,4.7-4.65l.27-49.16a4.68,4.68,0,0,0-4.65-4.71h0a4.68,4.68,0,0,0-4.7,4.66Z"/><path class="cls-27" d="M298.68,277.57a4.68,4.68,0,0,1,4.65,4.7l-.28,49.16a4.66,4.66,0,0,1-4.7,4.65,3.91,3.91,0,0,1-.49,0c.92-2.91-1.49-7-3.58-26,0-.32-.07-.65-.11-1s-.06-.67-.1-1l-.09-1c-.05-.52-.09-1.07-.14-1.6l.13-23.27A4.67,4.67,0,0,1,298.68,277.57Z"/><path class="cls-27" d="M336.56,331.62l.27-49.17a4.68,4.68,0,0,1,9.35.05l-.09,16.23c-.28,4.16-.62,8.15-1,11.63-.86,7-1.74,12-2.46,15.66h0c-1.06,5.4-1.78,7.81-1.56,9.57a3.51,3.51,0,0,0,.16.73A4.67,4.67,0,0,1,336.56,331.62Z"/><path class="cls-27" d="M322.27,331.54a4.68,4.68,0,0,0,4.65,4.7h0a4.68,4.68,0,0,0,4.7-4.65l.28-49.16a4.69,4.69,0,0,0-4.66-4.71h0a4.68,4.68,0,0,0-4.7,4.65Z"/></g><path class="cls-28" d="M342.51,257.82s1.48,55.53-4.1,73.07c-.83,2.59-7.11,2.46-9.65,3.28a400.31,400.31,0,0,0,4.18-75.75Z"/><path class="cls-29" d="M333.73,331.19s5.2-36.52,4.76-55.12c0,0,1.94,24.38-.35,43.51C337.53,324.75,336.1,328.76,333.73,331.19Z"/><path class="cls-2" d="M266.89,298.32c4.89-2.68,9.63-5.41,14.52-8.09a36.88,36.88,0,0,1,5.71,33.47,45.55,45.55,0,0,1-11.65.9C270.51,316.82,267,307.55,266.89,298.32Zm34.31,24.26a59.33,59.33,0,0,1,11.49,5.12,56.43,56.43,0,0,0,9.35-4.21c.93-.54,2.31-1,2.38-2.16.09-1.41-1-3.2-1.91-4.2a44.86,44.86,0,0,1-9.34,1.89,25.11,25.11,0,0,0-13.37-1.8A22.19,22.19,0,0,0,301.2,322.58Zm-1.51-10.77a59.41,59.41,0,0,1,12.3,2.64,55.24,55.24,0,0,0,8.28-6.05c.8-.71,2.07-1.43,1.89-2.6-.2-1.4-1.66-2.92-2.74-3.72a44.31,44.31,0,0,1-8.74,3.78,25,25,0,0,0-13.46,1A22.52,22.52,0,0,0,299.69,311.81Z"/><path class="cls-30" d="M269.71,294.28a112.92,112.92,0,0,1-28.93,2.57c-7.24-4.83-17-8.77-25.37-6.34-3.74,1.09-7.84,5-9.4,8.55a78.26,78.26,0,0,0,11.9,1.32c0,3.64.65,4.71-3.42,7.44-.06.26-13.62-2.2-13.56-2.46-1,1.09-2.36,2.62-3.4,3.71a35.61,35.61,0,0,0,5.93,26.56c8.44,3.15,17.23,6.3,26.22,5.62,7.24-.55,14-3.54,20.86-6,8.58-3.08,19.1-7,28.1-8.42a103.15,103.15,0,0,0-4.8-23.93C272.84,299.92,271,297.16,269.71,294.28Z"/><path class="cls-31" d="M278.64,326.83a103.15,103.15,0,0,0-4.8-23.93,39.09,39.09,0,0,0-2.68-5.68,36.81,36.81,0,0,1,2.12,15.28,85.65,85.65,0,0,1-14.54,3.71c2.5,4.17,4.45,9.72,4.34,14.66A105.82,105.82,0,0,1,278.64,326.83Z"/><path class="cls-3" d="M234.35,320.93a32.06,32.06,0,0,1-3.38-8.75,72.4,72.4,0,0,1-33.52-2.57,35.63,35.63,0,0,0,6,26c8.44,3.15,17.23,6.3,26.22,5.62,7.24-.55,14-3.54,20.86-6,3.71-1.33,7.78-2.81,11.94-4.18a26,26,0,0,0-3.64-14.67A68.54,68.54,0,0,0,234.35,320.93Z"/><path class="cls-32" d="M197.45,309.61a35.36,35.36,0,0,0,1.68,17.65c10,3.25,21.05,1.64,31.18-1.35,9.65-2.84,19-6.87,28.76-9.09l-.23-.42a68.54,68.54,0,0,0-24.49,4.53,32.06,32.06,0,0,1-3.38-8.75A72.4,72.4,0,0,1,197.45,309.61Z"/><path class="cls-31" d="M277.58,305.8c0,.12.05.24.08.34a80.14,80.14,0,0,1,3.95,19.8,41,41,0,0,0,17.82,1.51,89.16,89.16,0,0,0-3.17-20.05C289.93,306.93,284.06,306.5,277.58,305.8Z"/><path class="cls-33" d="M327,316.44c-4.75,1.8-9.6,3.43-14.44,5-.42,1-1.27,2.22-1.26,3.33a90.87,90.87,0,0,0,16-8.05A3.25,3.25,0,0,0,327,316.44Z"/><path class="cls-31" d="M311.32,324.75a1.84,1.84,0,0,0,0,.33,13.85,13.85,0,0,0,3.94,7,28.87,28.87,0,0,0,14-11.89,10.15,10.15,0,0,0-2-3.53A90.87,90.87,0,0,1,311.32,324.75Z"/><path class="cls-34" d="M323.7,300.47c-4.28,2.75-8.69,5.34-13.11,7.86-.2,1.08-.78,2.44-.54,3.51a89.81,89.81,0,0,0,14-11.16Z"/><path class="cls-31" d="M310.05,311.84a2,2,0,0,0,.09.33,13.88,13.88,0,0,0,5.31,6.07,28.8,28.8,0,0,0,11.3-14.53,9.94,9.94,0,0,0-2.74-3A89.81,89.81,0,0,1,310.05,311.84Z"/><path class="cls-35" d="M284.6,285.49A19.66,19.66,0,0,1,290.4,300a30.48,30.48,0,0,1-11.38-.43,17,17,0,0,1-3.3-7.18C277.65,289.36,281.33,287,284.6,285.49Z"/><path class="cls-31" d="M250.9,303.4h.27A69,69,0,0,0,273.09,301c-.12-.25-.23-.51-.36-.76a68.3,68.3,0,0,1-21.26,2.33,26.31,26.31,0,0,1-1.64-5.75l-.83,0a26.88,26.88,0,0,0,1.8,6.27Z"/><path class="cls-5" d="M258.86,315.86h-.21a71,71,0,0,0-24.08,4.49,33.14,33.14,0,0,1-2.87-8.48l-.07-.43-.43.09a63.76,63.76,0,0,1-33.7-2.25c-.05.28-.09.56-.13.84A64.65,64.65,0,0,0,231,312.44a35.85,35.85,0,0,0,3,8.63l.17.35.36-.14a70,70,0,0,1,23.93-4.58,20,20,0,0,1,3.63,14.5l.91-.3a18.24,18.24,0,0,0,.18-2.67A21.08,21.08,0,0,0,259,316Z"/><path class="cls-5" d="M262.37,326.21c-5.58.45-11,2.32-16.26,4.13l-3.34,1.13c-6,2-13.11,3.89-19.92,2.72-.79,2-1.63,4.54-1.4,6.61l-.56.06c-.24-2.26.69-5,1.52-7.08l.09-.21.22,0c6.76,1.22,13.84-.66,19.88-2.67,1.11-.36,2.22-.75,3.33-1.13,5.28-1.82,10.74-3.7,16.39-4.15Z"/><path class="cls-5" d="M296.38,307.89a87.68,87.68,0,0,1,3.05,19.56l.39-.05c.63-.89,1.65-1.58,2.28-2.47a59.33,59.33,0,0,0-3-20.38l-.34-.06A38.12,38.12,0,0,1,296.38,307.89Z"/><path class="cls-36" d="M278.76,300.88c-.71.78-1.11,3.41-1.18,4.92,6.48.7,12.35,1.13,18.68,1.6l.12.49a38.12,38.12,0,0,0,2.36-3.4C292.2,303.46,285.28,301.89,278.76,300.88Z"/><path class="cls-37" d="M209.09,297c3.28-4.55,9.55-6.14,15.09-5.25s10.52,3.82,15.23,6.86a191,191,0,0,0,29.47-1.77c.39,1,.79,2.36,1.18,3.35a76.05,76.05,0,0,1-32.53,1.89c-5.49-4.94-14.25-6.53-21.34-4.48C214.1,298.23,211.26,297.06,209.09,297Z"/><path class="cls-38" d="M284.43,286.81a28.27,28.27,0,0,0-7.46,5.77,9.45,9.45,0,0,0,1.72,3.07,44.47,44.47,0,0,1,9-4.31c.13-.09,0-.33-.13-.3s-.17.29,0,.33A32.3,32.3,0,0,0,284.43,286.81Z"/></g></g></svg>