<svg id="Layer_1" data-name="Layer 1" xmlns="http://www.w3.org/2000/svg" viewBox="0 0 543.42 656.85"><defs><style>.cls-1{fill:#5d2e10;}.cls-2{fill:#603b17;}</style></defs><title>Master</title><path class="cls-1" d="M193.34,373.76c-.2,0-.22.36,0,.33S193.54,373.73,193.34,373.76Z"/><path class="cls-1" d="M193.93,374.69c.2,0,.22-.36,0-.33S193.73,374.72,193.93,374.69Z"/><path class="cls-1" d="M193.14,374.68c-.21,0-.23.36,0,.33S193.34,374.65,193.14,374.68Z"/><path class="cls-1" d="M194.32,374.25c.2,0,.22-.36,0-.33S194.12,374.28,194.32,374.25Z"/><path class="cls-1" d="M192.94,374.22c-.21,0-.23.36,0,.33S193.14,374.19,192.94,374.22Z"/><path class="cls-1" d="M194.68,371.69c-.2,0-.22.36,0,.33S194.89,371.66,194.68,371.69Z"/><path class="cls-1" d="M195.06,371.47c-.2,0-.22.36,0,.33S195.26,371.44,195.06,371.47Z"/><path class="cls-1" d="M195.09,371.94c-.21,0-.22.36,0,.33S195.29,371.91,195.09,371.94Z"/><path class="cls-1" d="M195.44,371.74c-.2,0-.22.36,0,.33S195.65,371.71,195.44,371.74Z"/><path class="cls-1" d="M194,376.78c-.2,0-.22.36,0,.33S194.23,376.75,194,376.78Z"/><path class="cls-1" d="M194.65,376.38c-.2,0-.22.36,0,.33S194.86,376.35,194.65,376.38Z"/><path class="cls-1" d="M194.91,376.81c-.21,0-.22.36,0,.33S195.11,376.78,194.91,376.81Z"/><path class="cls-1" d="M194.47,376.93c-.21,0-.22.36,0,.33S194.67,376.9,194.47,376.93Z"/><path class="cls-1" d="M195.09,376.29c-.2,0-.22.36,0,.33S195.29,376.26,195.09,376.29Z"/><path class="cls-1" d="M207.24,372c.2,0,.22-.36,0-.33S207,372.05,207.24,372Z"/><path class="cls-1" d="M206.61,372.48c-.2,0-.22.36,0,.33S206.81,372.45,206.61,372.48Z"/><path class="cls-1" d="M207.35,372.86c.2,0,.22-.36,0-.33S207.15,372.89,207.35,372.86Z"/><path class="cls-1" d="M206.26,372.15c-.2,0-.22.36,0,.33S206.46,372.12,206.26,372.15Z"/><path class="cls-1" d="M206.18,372.76c-.21,0-.22.36,0,.33S206.38,372.73,206.18,372.76Z"/><path class="cls-1" d="M207.64,372.36c.2,0,.22-.36,0-.33S207.43,372.39,207.64,372.36Z"/><path class="cls-1" d="M209.37,371.21a8.79,8.79,0,0,1-2.68-2.92,2.12,2.12,0,0,0-1.18.18,1.81,1.81,0,0,0-1.86-1.64,2.89,2.89,0,0,0-2.31,1.61,4.76,4.76,0,0,1-.51-1.64c0-.32-.29-.28-.36.05a6.65,6.65,0,0,1-.7,1.82,1.83,1.83,0,0,0-2.17-.94,3.09,3.09,0,0,0-2.07,2.23,2,2,0,0,0-1.18.17,2.88,2.88,0,0,0-1.58,2.23,3.07,3.07,0,0,0-1.47,1.54,2.33,2.33,0,0,0,0,1.9,1.6,1.6,0,0,0,.92.81,2.09,2.09,0,0,0-.15,2.6,2,2,0,0,0,2.44.21l-.54.34a3.35,3.35,0,0,0-.9.86,3.13,3.13,0,0,0-.61,2.14s.1.43.18.22a1.91,1.91,0,0,1,1.62-1,7.15,7.15,0,0,0,1.93-.28,3.24,3.24,0,0,0,.63-.29,2.35,2.35,0,0,0,.67,2.74c.25.18.36.07.35-.12a2.38,2.38,0,0,1,.81-1.64,10.47,10.47,0,0,0,1.22-1.35v0l0,0a5.52,5.52,0,0,0,1.09,1,1.51,1.51,0,0,1,.64,1.41c0,.21.06.28.33,0a3.11,3.11,0,0,0,1-3,2.44,2.44,0,0,0,.61.11,7.67,7.67,0,0,0,1.93-.3c.53-.12,1.36-.06,1.54.54,0,.19.21-.27.2-.27a2.4,2.4,0,0,0-.38-2,1.76,1.76,0,0,0-.82-.6,5.27,5.27,0,0,1-.51-.19,2.49,2.49,0,0,0,2.5-.94,2.09,2.09,0,0,0,.14-2.6,2.81,2.81,0,0,0,1-1.11A2.43,2.43,0,0,0,209.37,371.21Zm-2.78-2.59a1.46,1.46,0,0,1,1.14,1.44,2.4,2.4,0,0,0-.74.1.86.86,0,0,0-.89-.68,2.43,2.43,0,0,0-1.6.88,5.31,5.31,0,0,1-.24,2.19,2.8,2.8,0,0,0-.26-1,3,3,0,0,0-.86-1.05.76.76,0,0,1-.33-.57.86.86,0,0,1,.38-.66.76.76,0,0,1,1.19.57c0,.2.23,0,.21-.16v0A2.16,2.16,0,0,1,206.59,368.62Zm-3-1.46a1.56,1.56,0,0,1,1.56,1.48,2.55,2.55,0,0,0-.38.29,1.26,1.26,0,0,0-1.52-.71,1.55,1.55,0,0,0-1.14,1.33,5,5,0,0,1-.65-.8A2.53,2.53,0,0,1,203.64,367.16Zm-3.76,1.91a7.52,7.52,0,0,0,.73-1.61,5,5,0,0,0,.58,1.41c.6,1,1.65,1.62,2.25,2.64a2.46,2.46,0,0,1,.35,1.68,2.22,2.22,0,0,1-.51,1.11,2.58,2.58,0,0,0,0-1.38,3,3,0,0,0-.87-1.28c-.72-.69-2-1.38-1.73-2.7.05-.3-.3-.25-.27.05.09,1.26-1.26,2.34-2.07,3.25a5.53,5.53,0,0,0-1,1.56,2.88,2.88,0,0,0-.16,1.41,1.53,1.53,0,0,1-.4-1,3.29,3.29,0,0,1,.54-1.81C198,371.21,199.15,370.29,199.88,369.07Zm2.59,4.6a2.94,2.94,0,0,0-1.07-1.06,1.65,1.65,0,0,1-.82-1.26c0-.37-.3-.33-.36.06a2.88,2.88,0,0,1-1,1.53,5.17,5.17,0,0,0-1.2,1.39,2.05,2.05,0,0,0-.13,1.68,2.14,2.14,0,0,1-.18-2.42c.56-1.11,1.63-1.85,2.31-2.89a4.64,4.64,0,0,0,.44-.82,3.3,3.3,0,0,0,.36.7c.58.85,1.59,1.28,2,2.24a2.45,2.45,0,0,1-.45,2.51A2,2,0,0,0,202.47,373.67Zm-.73,1.25c-.25-.62-1.13-1.12-1.37-1.76,0-.09-.05-.13-.06-.11s0,0-.08.13c-.31.72-1.26,1.49-1.58,2.2a1.49,1.49,0,0,0-.13.94h0l-.06,0a1.67,1.67,0,0,1-.33-.7,2.05,2.05,0,0,1,.51-1.64c.59-.72,1.41-1.27,1.74-2.13.25.77,1,1.09,1.55,1.64a1.54,1.54,0,0,1,.33,1.51,2.58,2.58,0,0,1-.41.81l-.06,0h0A1.44,1.44,0,0,0,201.74,374.92Zm-4.17-6.86a1.59,1.59,0,0,1,2,1,8.26,8.26,0,0,1-.75,1,.94.94,0,0,0-1-1,2,2,0,0,0-1.63,1.19,1.22,1.22,0,0,0-.36-.18A2.67,2.67,0,0,1,197.57,368.06Zm-3.15,2.37a1.53,1.53,0,0,1,1.92.42v0c0,.21.15.31.2.09.11-.55.76-1.13,1.27-.93a.53.53,0,0,1,.31.56,1.25,1.25,0,0,1-.39.67,5.71,5.71,0,0,0-1,1.34,4.3,4.3,0,0,0-.38,1.13,5.08,5.08,0,0,1,0-2.16,1.66,1.66,0,0,0-1.53-.41,1.45,1.45,0,0,0-1,1,2.34,2.34,0,0,0-.74.12A2.45,2.45,0,0,1,194.42,370.43Zm-.84,9A1.38,1.38,0,0,1,192,378a2.07,2.07,0,0,1,.54-1.31,1.27,1.27,0,0,0,.28,0,1.79,1.79,0,0,0,.4,0,1,1,0,0,0,.24.83,1.11,1.11,0,0,0,1,.3,2.92,2.92,0,0,0,1.9-1.4,5.12,5.12,0,0,0,.52.45,1,1,0,0,1-.17,1.6l-.05,0a1.31,1.31,0,0,1-1.31.2,3.81,3.81,0,0,0,.68-1.1c.09-.21-.07-.27-.15-.06A3.15,3.15,0,0,1,193.58,379.4Zm1.79,2.16c-.78.11-2,0-2.62.7a2.94,2.94,0,0,1,.72-1.7c.52-.59,1.37-.81,1.75-1.52a1.61,1.61,0,0,0,1.64-.3c.62-.5,1-1.3.77-1.77l-.52-.34a4.17,4.17,0,0,1-1.58-3.71c0-.22-.13-.2-.14,0a4.78,4.78,0,0,0,.78,3.25,2.59,2.59,0,0,1-1.5,1.27,1,1,0,0,1-.92-.12.72.72,0,0,1-.23-.7,2.44,2.44,0,0,0,.46-.14c0,.09,0,.18.14.17a.21.21,0,0,0,.14-.29,5.84,5.84,0,0,0,.65-.35.13.13,0,0,0,.15.12.18.18,0,0,0,.13-.11c.07.15.13.28.21.42s.26.05.17-.12a6.26,6.26,0,0,1-.62-3,2.26,2.26,0,0,0-1.95.17,1.43,1.43,0,0,0-.71,1.34,1,1,0,0,0,1.07.81,3.18,3.18,0,0,0,1.5-.54,3.8,3.8,0,0,0,.16.51,4.27,4.27,0,0,1-1.82.77,1.57,1.57,0,0,1-1.49-.56,2.26,2.26,0,0,1,.82-3,2.19,2.19,0,0,1,2-.35c.17.08.27-.11.1-.18a1.82,1.82,0,0,0-.37-.13c0-.08,0-.2,0-.24a1.09,1.09,0,0,1,.72-.48,1,1,0,0,1,.35,0c0,.1,0,.21.13.19a.18.18,0,0,0,.15-.13l.14.05c-.1.1-.08.31.08.28a.18.18,0,0,0,.16-.16l.05,0a2.56,2.56,0,0,0-.05.27.19.19,0,0,0-.11,0c-.18.05-.2.32,0,.33l.09,0a4,4,0,0,0,1.92,4.16l.16.09a1.62,1.62,0,0,1,.16,1.57,2.52,2.52,0,0,1-1.35,1.37c-1.11.51-2.25.61-3.22,1.55-.17.16-.05.27.11.11.83-.8,2-.87,2.91-1.24a4.27,4.27,0,0,0,.91-.5c.29.44,0,1.07-.43,1.46l0,0A3.12,3.12,0,0,1,195.37,381.56Zm-1.62-6.4a.52.52,0,0,0,.25,0,1.86,1.86,0,0,1-.39.1.82.82,0,0,1-1-.55,1.08,1.08,0,0,1,.61-1,1.65,1.65,0,0,1,.91-.17,1.2,1.2,0,0,0-.72.78A.69.69,0,0,0,193.75,375.16Zm5.49,6.16c-.63.71-1.53,1.41-1.7,2.35a2.08,2.08,0,0,1-.4-2.33,1.6,1.6,0,0,1,.29-.44l.19-.23a1.37,1.37,0,0,0,.17-1.52l.1-.1a2.68,2.68,0,0,0,.69-1.41c0-.05,0-.09,0-.14a1.83,1.83,0,0,1,.52,2.16,4.21,4.21,0,0,1-.83,1.39,2.42,2.42,0,0,0-.7,1.37c0,.22.16.23.17,0,0-.6.72-1.16,1.07-1.64a3.61,3.61,0,0,0,.68-1.46c0-.1,0-.21.05-.31.05.08.13.17.15.21A2,2,0,0,1,199.24,381.32Zm.76-2.64c-.11-.15-.82-1.34-1.41-1.58a1.9,1.9,0,0,0-.08-.36,4.84,4.84,0,0,1,.71.38,2.19,2.19,0,0,1,.71.69c.08.13.14.12.24,0a3.88,3.88,0,0,1,.79-.91,8.43,8.43,0,0,1,.77-.6,2.91,2.91,0,0,0-.12.39A9.08,9.08,0,0,0,200,378.68ZM202,383c-.07-.9-.94-1.34-1.5-1.87a1.71,1.71,0,0,1-.32-.5,1.81,1.81,0,0,1,.08-1.38,1.27,1.27,0,0,1,.2-.36c0,.1,0,.21,0,.31a2.39,2.39,0,0,0,.54,1.28c.3.38.94.73.9,1.34,0,.21.16.15.18-.07a1.55,1.55,0,0,0-.57-1.19,2.35,2.35,0,0,1,.08-3.51.66.66,0,0,0,0,.14,1.69,1.69,0,0,0,.54,1.22l.09.07a1.29,1.29,0,0,0,0,1.49,1.22,1.22,0,0,0,.31.29A2.56,2.56,0,0,1,202,383Zm6.27-7.43a2.26,2.26,0,0,1-1.77,1.9,1.9,1.9,0,0,1-2.15-1.17c-.06-.19-.23-.08-.16.11a2.38,2.38,0,0,0,.57.91,1.27,1.27,0,0,1-1.31.18l-.05,0a1,1,0,0,1,0-1.57c.21-.21.44-.45.58-.62a1.77,1.77,0,0,0,1.77.86,1.72,1.72,0,0,0,1.09-.62,1.46,1.46,0,0,0,.33-.91,3.48,3.48,0,0,0,.41-.1l.28-.11A1.34,1.34,0,0,1,208.22,375.58Zm.52-2.29a2.45,2.45,0,0,1-1.58,1,3.16,3.16,0,0,1-1.76-.23c.08-.19.16-.38.22-.57a2.51,2.51,0,0,0,1.47.1,1.69,1.69,0,0,0,1.17-1.15.94.94,0,0,0-.57-1.15,2.58,2.58,0,0,0-2,.42,10.26,10.26,0,0,1-1,3.25c-.11.2.05.27.16.07s.18-.32.26-.48a.11.11,0,0,0,.12.06.18.18,0,0,0,.16-.16,3.23,3.23,0,0,0,.63.16c-.07.11,0,.27.11.25a.2.2,0,0,0,.16-.21h.45a1.05,1.05,0,0,1-.31.78,1.3,1.3,0,0,1-.95.39,1.52,1.52,0,0,1-1.38-.84,6.62,6.62,0,0,0,1.15-3.54c0-.21-.13-.19-.14,0a6.41,6.41,0,0,1-2,4.25l-.56.5a1.21,1.21,0,0,0,.58,1.57,1.58,1.58,0,0,0,1.64-.19c.3.61,1.15.57,1.61,1a2,2,0,0,1,.55,1.51c-.58-.55-1.81-.05-2.59.08a2.39,2.39,0,0,1-1.64-.21l0,0a1,1,0,0,1-.28-1.35,2.6,2.6,0,0,0,.88.23c.93.09,2.06-.18,2.82.39.14.11.27,0,.12-.14-.89-.67-2-.43-3.1-.62a1.45,1.45,0,0,1-1.23-1,2,2,0,0,1,.34-1.65l.17-.14a6.2,6.2,0,0,0,2.41-4.8.12.12,0,0,0,.1,0c.17-.05.17-.33,0-.32a.21.21,0,0,0-.11,0,2.46,2.46,0,0,0,0-.26l.05,0c0,.07,0,.13.14.11a.19.19,0,0,0,.12-.31l.14-.09a.12.12,0,0,0,.14.09.2.2,0,0,0,.16-.24,2,2,0,0,1,.35-.09.68.68,0,0,1,.68.29.2.2,0,0,0-.06.24,3,3,0,0,0-.38.24c-.18.13-.1.29.08.16a2.14,2.14,0,0,1,2-.25A1.83,1.83,0,0,1,208.74,373.29Zm-2-.1a1.2,1.2,0,0,0,.35-.46.77.77,0,0,0-.4-1s-.14-.08-.18-.06a1.49,1.49,0,0,1,.9-.09.67.67,0,0,1,.5.87,1.33,1.33,0,0,1-1.08.86,1.77,1.77,0,0,1-.32,0A1.5,1.5,0,0,0,206.78,373.19Z"/><path class="cls-1" d="M206.16,370c-.21,0-.22.36,0,.33S206.36,370,206.16,370Z"/><path class="cls-1" d="M205.8,369.87c-.2,0-.22.36,0,.33S206,369.84,205.8,369.87Z"/><path class="cls-1" d="M205.72,370.36c-.2,0-.22.36,0,.33S205.92,370.33,205.72,370.36Z"/><path class="cls-1" d="M205.38,370.26c-.2,0-.22.36,0,.33S205.58,370.23,205.38,370.26Z"/><path class="cls-1" d="M206.25,375.29c.2,0,.22-.36,0-.33S206,375.32,206.25,375.29Z"/><path class="cls-1" d="M205.65,375.07c.2,0,.22-.36,0-.33S205.45,375.1,205.65,375.07Z"/><path class="cls-1" d="M205.35,375.59c.2,0,.22-.36,0-.33S205.14,375.62,205.35,375.59Z"/><path class="cls-1" d="M205.78,375.58c.2,0,.22-.36,0-.33S205.58,375.61,205.78,375.58Z"/><path class="cls-1" d="M205.22,375.11c.2,0,.22-.36,0-.33S205,375.14,205.22,375.11Z"/><path class="cls-1" d="M193.91,378.34a.34.34,0,0,0-.29.05s-.07,0-.11.05a.4.4,0,0,0,0,.54.38.38,0,0,0,.52-.15A.34.34,0,0,0,193.91,378.34Zm-.1.39a.11.11,0,0,1-.15,0,.09.09,0,0,1,0-.07l0-.05a.13.13,0,0,1,.14-.07A.11.11,0,0,1,193.81,378.73Z"/><path class="cls-1" d="M194.89,378a.31.31,0,0,0-.29,0,.13.13,0,0,0-.11.05c-.14.17-.17.43,0,.54a.38.38,0,0,0,.52-.15A.32.32,0,0,0,194.89,378Zm-.1.39a.13.13,0,0,1-.16,0s0,0,0-.06a.21.21,0,0,0,0-.06.13.13,0,0,1,.13-.07A.11.11,0,0,1,194.79,378.41Z"/><path class="cls-1" d="M193.75,375.77a.18.18,0,0,0-.16,0l-.06,0a.22.22,0,0,0,0,.3.21.21,0,0,0,.29-.08C193.87,375.94,193.85,375.8,193.75,375.77Zm-.05.21a.07.07,0,0,1-.09,0,0,0,0,0,1,0,0s0,0,0,0,.06-.05.08,0A.06.06,0,0,1,193.7,376Z"/><path class="cls-1" d="M193,375.79a.16.16,0,0,0-.16,0s0,0-.06,0a.22.22,0,0,0,0,.3.2.2,0,0,0,.29-.08A.18.18,0,0,0,193,375.79Zm0,.22a.08.08,0,0,1-.09,0,.06.06,0,0,1,0,0s0,0,0,0,.06,0,.08,0A.07.07,0,0,1,193,376Z"/><path class="cls-1" d="M192.36,375.5a.19.19,0,0,0-.16,0,.06.06,0,0,0-.07,0,.23.23,0,0,0,0,.3.21.21,0,0,0,.29-.09A.19.19,0,0,0,192.36,375.5Zm-.06.22a.06.06,0,0,1-.08,0,.05.05,0,0,1,0,0l0,0s.05-.05.07,0S192.32,375.69,192.3,375.72Z"/><path class="cls-1" d="M192,374.87a.18.18,0,0,0-.16,0,.07.07,0,0,0-.07,0,.23.23,0,0,0,0,.3.21.21,0,0,0,.29-.08C192.13,375,192.11,374.9,192,374.87Zm-.06.21a.06.06,0,0,1-.08,0l0,0,0,0s.05-.05.07,0S192,375.06,192,375.08Z"/><path class="cls-1" d="M192.06,374.09a.18.18,0,0,0-.16,0l-.06,0a.22.22,0,0,0,0,.3.21.21,0,0,0,.29-.08A.19.19,0,0,0,192.06,374.09Zm-.05.21a.07.07,0,0,1-.09,0l0,0,0,0a.07.07,0,0,1,.08,0A.06.06,0,0,1,192,374.3Z"/><path class="cls-1" d="M192.53,373.25a.18.18,0,0,0-.16,0,.09.09,0,0,0-.06,0,.22.22,0,0,0,0,.3.21.21,0,0,0,.29-.08A.19.19,0,0,0,192.53,373.25Zm-.05.21a.07.07,0,0,1-.09,0l0,0,0,0a.07.07,0,0,1,.08,0A.06.06,0,0,1,192.48,373.46Z"/><path class="cls-1" d="M193.37,372.72a.19.19,0,0,0-.16,0,.06.06,0,0,0-.06,0,.22.22,0,0,0,0,.3.22.22,0,0,0,.29-.09A.19.19,0,0,0,193.37,372.72Zm-.05.22a.07.07,0,0,1-.09,0,.05.05,0,0,1,0,0l0,0a.06.06,0,0,1,.08,0A.06.06,0,0,1,193.32,372.94Z"/><path class="cls-1" d="M194.29,372.61a.2.2,0,0,0-.17,0,.06.06,0,0,0-.06,0,.22.22,0,0,0,0,.3.22.22,0,0,0,.29-.08A.2.2,0,0,0,194.29,372.61Zm-.06.22a.07.07,0,0,1-.09,0s0,0,0,0l0,0a.07.07,0,0,1,.07,0S194.25,372.8,194.23,372.83Z"/><path class="cls-1" d="M193.78,371.53a.21.21,0,0,0-.17,0l-.06,0a.22.22,0,0,0,0,.3.21.21,0,0,0,.29-.08C193.89,371.7,193.87,371.56,193.78,371.53Zm-.06.21a.07.07,0,0,1-.09,0,0,0,0,0,1,0,0l0,0s.05-.05.07,0S193.74,371.72,193.72,371.74Z"/><path class="cls-1" d="M194.27,370.87a.18.18,0,0,0-.16,0,.11.11,0,0,0-.07,0,.22.22,0,0,0,0,.3.2.2,0,0,0,.29-.08C194.38,371,194.36,370.9,194.27,370.87Zm-.06.22a.08.08,0,0,1-.09,0,.06.06,0,0,1,0,0l0,0s.05-.05.07,0S194.23,371.06,194.21,371.09Z"/><path class="cls-1" d="M195,370.53a.18.18,0,0,0-.16,0l-.06,0c-.08.09-.1.24,0,.3a.21.21,0,0,0,.29-.08C195.1,370.7,195.08,370.56,195,370.53Zm-.06.21a.06.06,0,0,1-.08,0l0,0,0,0s.05-.05.07,0S195,370.72,194.93,370.74Z"/><path class="cls-1" d="M195.75,370.61a.18.18,0,0,0-.16,0,.11.11,0,0,0-.07,0,.22.22,0,0,0,0,.3.21.21,0,0,0,.29-.08C195.86,370.78,195.84,370.64,195.75,370.61Zm-.06.21a.07.07,0,0,1-.09,0,0,0,0,0,1,0,0l0,0s0,0,.07,0S195.71,370.8,195.69,370.82Z"/><path class="cls-1" d="M193.05,378a.3.3,0,0,0-.29,0,.13.13,0,0,0-.11.05c-.14.17-.17.43,0,.54a.38.38,0,0,0,.52-.15A.32.32,0,0,0,193.05,378Zm-.1.39a.13.13,0,0,1-.16,0s0,0,0-.06l0-.06a.13.13,0,0,1,.13-.07A.11.11,0,0,1,193,378.41Z"/><path class="cls-1" d="M192.87,377.1a.3.3,0,0,0-.29,0,.16.16,0,0,0-.12.05.39.39,0,0,0,0,.54.38.38,0,0,0,.52-.15C193.07,377.4,193,377.16,192.87,377.1Zm-.1.39a.13.13,0,0,1-.16,0,.09.09,0,0,1,0-.06l0-.06a.13.13,0,0,1,.13-.07A.11.11,0,0,1,192.77,377.49Z"/><path class="cls-1" d="M197.33,368.47a.28.28,0,0,0-.25,0,.14.14,0,0,0-.1,0,.34.34,0,0,0,0,.47.33.33,0,0,0,.45-.13A.29.29,0,0,0,197.33,368.47Zm-.08.34s-.11.06-.14,0a.07.07,0,0,1,0-.06.08.08,0,0,0,0,0s.09-.07.12-.05A.09.09,0,0,1,197.25,368.81Z"/><path class="cls-1" d="M196.6,369.09a.21.21,0,0,0-.2,0s-.05,0-.08,0a.27.27,0,0,0,0,.37.26.26,0,0,0,.36-.1A.23.23,0,0,0,196.6,369.09Zm-.07.27a.09.09,0,0,1-.11,0,.08.08,0,0,1,0-.05l0,0a.09.09,0,0,1,.1-.05S196.56,369.32,196.53,369.36Z"/><path class="cls-1" d="M198.26,368.24a.28.28,0,0,0-.25,0,.12.12,0,0,0-.09,0,.33.33,0,0,0,0,.47.32.32,0,0,0,.45-.13A.29.29,0,0,0,198.26,368.24Zm-.08.34a.11.11,0,0,1-.14,0,.14.14,0,0,1,0-.06l0-.05a.09.09,0,0,1,.11-.05A.09.09,0,0,1,198.18,368.58Z"/><path class="cls-1" d="M199,368.6a.3.3,0,0,0-.26,0s-.06,0-.09,0a.35.35,0,0,0,0,.47.32.32,0,0,0,.45-.13C199.21,368.86,199.18,368.65,199,368.6Zm-.09.34a.12.12,0,0,1-.14,0,.14.14,0,0,1,0-.06l0-.05a.1.1,0,0,1,.12-.05S199,368.9,199,368.94Z"/><path class="cls-1" d="M206.07,377a.32.32,0,0,0,.51,0,.39.39,0,0,0,0-.54.08.08,0,0,0-.11,0,.34.34,0,0,0-.29,0A.42.42,0,0,0,206.07,377Zm.24-.31a.1.1,0,0,1,.14,0,.08.08,0,0,0,0,.05.09.09,0,0,1,0,.07c-.05.05-.13.06-.16,0A.14.14,0,0,1,206.31,376.72Z"/><path class="cls-1" d="M205.11,377a.33.33,0,0,0,.51,0,.39.39,0,0,0,0-.54s-.08,0-.11,0a.34.34,0,0,0-.29,0A.43.43,0,0,0,205.11,377Zm.25-.32a.09.09,0,0,1,.13,0s0,0,0,0a.3.3,0,0,1,0,.08.12.12,0,0,1-.16,0A.13.13,0,0,1,205.36,376.68Z"/><path class="cls-1" d="M206.58,374.14a.19.19,0,0,0,.29,0,.22.22,0,0,0,0-.3,0,0,0,0,0-.06,0,.16.16,0,0,0-.16,0A.23.23,0,0,0,206.58,374.14Zm.14-.18s.07,0,.07,0l0,0a.05.05,0,0,1,0,0,.06.06,0,0,1-.09,0A.07.07,0,0,1,206.72,374Z"/><path class="cls-1" d="M207.33,373.94a.2.2,0,0,0,.29,0,.23.23,0,0,0,0-.31.07.07,0,0,0-.06,0,.19.19,0,0,0-.16,0A.23.23,0,0,0,207.33,373.94Zm.14-.18a0,0,0,0,1,.07,0l0,0a.05.05,0,0,1,0,0,.06.06,0,0,1-.09,0A.07.07,0,0,1,207.47,373.76Z"/><path class="cls-1" d="M208,373.45a.2.2,0,0,0,.29,0,.23.23,0,0,0,0-.31h-.06a.16.16,0,0,0-.16,0A.23.23,0,0,0,208,373.45Zm.14-.18s.06,0,.07,0l0,0,0,0s-.07,0-.09,0A.07.07,0,0,1,208.17,373.27Z"/><path class="cls-1" d="M208.45,372.7a.18.18,0,0,0,.28,0,.23.23,0,0,0,0-.31h-.07a.16.16,0,0,0-.16,0A.24.24,0,0,0,208.45,372.7Zm.13-.18s.07,0,.08,0v0s0,0,0,.05-.07,0-.09,0A.1.1,0,0,1,208.58,372.52Z"/><path class="cls-1" d="M208.49,371.92a.19.19,0,0,0,.29,0,.22.22,0,0,0,0-.3,0,0,0,0,0-.06,0,.16.16,0,0,0-.16,0A.23.23,0,0,0,208.49,371.92Zm.14-.18s.06,0,.07,0v0a.09.09,0,0,1,0,.05s-.07,0-.09,0A.07.07,0,0,1,208.63,371.74Z"/><path class="cls-1" d="M208.11,371.21c0,.09.19.08.28,0a.23.23,0,0,0,0-.31h-.06a.19.19,0,0,0-.16,0A.22.22,0,0,0,208.11,371.21Zm.13-.18s.07,0,.07,0l0,0a.05.05,0,0,1,0,0s-.07,0-.09,0A.07.07,0,0,1,208.24,371Z"/><path class="cls-1" d="M207.31,370.93c.05.09.2.08.28,0a.23.23,0,0,0,0-.31.07.07,0,0,0-.06,0,.19.19,0,0,0-.16,0A.23.23,0,0,0,207.31,370.93Zm.14-.18s.06,0,.07,0v0s0,0,0,0a.05.05,0,0,1-.08,0A.07.07,0,0,1,207.45,370.75Z"/><path class="cls-1" d="M206.39,371.09a.19.19,0,0,0,.29,0,.22.22,0,0,0,0-.3,0,0,0,0,0-.06,0,.16.16,0,0,0-.16,0A.23.23,0,0,0,206.39,371.09Zm.14-.17a0,0,0,0,1,.07,0l0,0s0,0,0,0-.07,0-.09,0A.07.07,0,0,1,206.53,370.92Z"/><path class="cls-1" d="M207,369.83a.18.18,0,0,0,.28,0,.22.22,0,0,0,0-.3,0,0,0,0,0-.06,0,.18.18,0,0,0-.16,0A.24.24,0,0,0,207,369.83Zm.14-.17a0,0,0,0,1,.07,0v0a.06.06,0,0,1,0,0s-.07,0-.09,0A.07.07,0,0,1,207.17,369.66Z"/><path class="cls-1" d="M206.6,369.31a.19.19,0,0,0,.29,0,.22.22,0,0,0,0-.3,0,0,0,0,0-.06,0,.18.18,0,0,0-.16,0A.24.24,0,0,0,206.6,369.31Zm.14-.17a0,0,0,0,1,.07,0l0,0,0,0s-.07,0-.09,0A.07.07,0,0,1,206.74,369.14Z"/><path class="cls-1" d="M205.91,369.18a.18.18,0,0,0,.28,0,.22.22,0,0,0,0-.3,0,0,0,0,0-.06,0,.18.18,0,0,0-.17,0A.24.24,0,0,0,205.91,369.18ZM206,369s.07,0,.08,0v0l0,0s-.07,0-.08,0A.08.08,0,0,1,206,369Z"/><path class="cls-1" d="M205.13,369.49c.05.09.2.08.28,0a.23.23,0,0,0,0-.31h-.06a.22.22,0,0,0-.17,0A.24.24,0,0,0,205.13,369.49Zm.14-.18s.06,0,.07,0v0s0,0,0,0-.06,0-.08,0A.07.07,0,0,1,205.27,369.31Z"/><path class="cls-1" d="M207,376.44a.33.33,0,0,0,.52,0,.4.4,0,0,0,0-.54.08.08,0,0,0-.11,0,.34.34,0,0,0-.29,0A.42.42,0,0,0,207,376.44Zm.25-.31a.09.09,0,0,1,.13,0l0,.05a.16.16,0,0,1,0,.07.11.11,0,0,1-.16,0A.13.13,0,0,1,207.23,376.13Z"/><path class="cls-1" d="M207.27,375.45a.32.32,0,0,0,.51,0,.39.39,0,0,0,0-.54.08.08,0,0,0-.11,0,.34.34,0,0,0-.29,0A.42.42,0,0,0,207.27,375.45Zm.25-.31a.09.09,0,0,1,.13,0,.08.08,0,0,0,0,0,.09.09,0,0,1,0,.07c0,.05-.13.06-.16,0A.13.13,0,0,1,207.52,375.14Z"/><path class="cls-1" d="M203.71,368a.28.28,0,0,0,.44,0,.34.34,0,0,0,0-.47.06.06,0,0,0-.09,0,.29.29,0,0,0-.25,0A.36.36,0,0,0,203.71,368Zm.21-.27s.1,0,.11,0l0,0,0,.07s-.11.05-.14,0S203.88,367.71,203.92,367.68Z"/><path class="cls-1" d="M204.41,368.27a.23.23,0,0,0,.35,0,.26.26,0,0,0,0-.37.06.06,0,0,0-.07,0,.21.21,0,0,0-.2,0A.29.29,0,0,0,204.41,368.27Zm.17-.22a.06.06,0,0,1,.09,0l0,0a.08.08,0,0,1,0,0s-.09,0-.11,0A.08.08,0,0,1,204.58,368.05Z"/><path class="cls-1" d="M202.78,368a.3.3,0,0,0,.45,0,.34.34,0,0,0,0-.47.08.08,0,0,0-.09,0,.28.28,0,0,0-.25,0A.37.37,0,0,0,202.78,368Zm.22-.27s.1,0,.11,0a.05.05,0,0,0,0,0,.07.07,0,0,1,0,.06.1.1,0,0,1-.13,0A.1.1,0,0,1,203,367.73Z"/><path class="cls-1" d="M202,368.6a.28.28,0,0,0,.44,0,.35.35,0,0,0,0-.47.11.11,0,0,0-.1,0,.26.26,0,0,0-.25,0A.36.36,0,0,0,202,368.6Zm.21-.28a.09.09,0,0,1,.12,0l0,0a.09.09,0,0,1,0,.06s-.11.05-.14,0A.13.13,0,0,1,202.17,368.32Z"/><path class="cls-2" d="M195.16,309.76a.78.78,0,0,0,.61.94,6.67,6.67,0,0,0,.38-1.56A.85.85,0,0,0,195.16,309.76Z"/><path class="cls-2" d="M195.42,311.55l.13-.54a1.13,1.13,0,0,1-.91-1.38,1.28,1.28,0,0,1,1.47-.92l.13-.54a1.87,1.87,0,0,0-2.16,1.35A1.66,1.66,0,0,0,195.42,311.55Z"/><path class="cls-2" d="M193.46,309.28a.74.74,0,0,1-.1-.46.72.72,0,0,1,.8-.56.6.6,0,0,1,.07-.55c.21-.28.68-.2,1,0a.53.53,0,0,1,.34-.45.82.82,0,0,1,.49,0c.14,0,.36.1.39.26s-.1.11-.11,0-.2-.14-.28-.17a.6.6,0,0,0-.49,0c-.33.17-.25.67-.2.94,0,.07-.1.11-.12,0a2.82,2.82,0,0,1,0-.52.72.72,0,0,0-.77-.08c-.35.21,0,.79.21.94.07,0,0,.15-.06.11a1.06,1.06,0,0,1-.33-.39.61.61,0,0,0-.72.4.79.79,0,0,0,.68.81.06.06,0,0,1,0,.12.94.94,0,0,1-.6-.34.71.71,0,0,0-.49.81.5.5,0,0,0,.38.37c.28.08.54-.1.79-.19a.06.06,0,0,1,0,.12,3.45,3.45,0,0,1-.67.21c-.43.25-.05.8.28.87s.56-.46.79-.63a.06.06,0,1,1,.07.09c-.19.15-.29.35-.46.51s.11.6.29.64a.88.88,0,0,0,.8-.28c.06-.06.15,0,.09.08a.91.91,0,0,1-.49.29.8.8,0,0,1-.66-.07.78.78,0,0,1-.25-.53.54.54,0,0,1-.46-.09c-.3-.18-.51-.67-.16-.9l-.1,0a.62.62,0,0,1-.4-.43A.84.84,0,0,1,193.46,309.28Z"/><path class="cls-2" d="M189.67,310.27c0,.51.27.7.61,1a1,1,0,0,0-.23.93c.1.36.44.43.78.45a.74.74,0,0,0,.19.64.83.83,0,0,0,.74.3.74.74,0,0,0,1,.8.58.58,0,0,0,.33.58,1,1,0,0,0,1,0,.06.06,0,0,0,.06,0,.46.46,0,0,0,.09-.15l.12-.24c.05-.09.23-.22.21-.33v0h0a.05.05,0,0,0,0,0h0c-.21.08-.47.25-.71.18a.58.58,0,0,1-.46-.58s0-.08-.08-.06a1.58,1.58,0,0,1-.61.05c-.34-.08-.34-.34-.27-.62h0a1.83,1.83,0,0,0,.63-.4,2,2,0,0,0,.55-.74v0a.86.86,0,0,0,.23,0,.55.55,0,0,0,.29.61,1.21,1.21,0,0,0,1.18,0c.08,0,0-.13-.06-.1a1.09,1.09,0,0,1-.95,0c-.21-.12-.5-.36-.29-.63,0,0,0-.13-.07-.1a.8.8,0,0,1-.85-.15.7.7,0,0,1,.06-.91s0-.1,0-.1c-.79-.05-.62-1.6.08-1.5.06,0,.12-.06.06-.1-.26-.18-.46-.49-.14-.76a1,1,0,0,1,.71-.18.05.05,0,0,0,.06-.07c-.15-.75.71-.94,1.27-.67,0,0,.09,0,.12-.07a.61.61,0,0,1,.43-.45.87.87,0,0,1,.79.13c0,.05.14,0,.08-.09a1,1,0,0,0-.9-.15.75.75,0,0,0-.51.5,1.39,1.39,0,0,0-1,0h0a1.65,1.65,0,0,1-.58-1.48,1,1,0,0,1,1.44-.49s.08,0,.09,0a.74.74,0,0,1,.83-.44.94.94,0,0,1,.66.61.06.06,0,0,0,.11,0,.07.07,0,0,0,0-.06l0-.48a.05.05,0,0,0,0-.08s0,0,0,0l0,0a1.2,1.2,0,0,0-.86-.53.92.92,0,0,0-.52.11.9.9,0,0,0-.18.15c-.19.17-.32.12-.52.09-.65-.12-1.54.35-1.5,1.05a1.27,1.27,0,0,0-1.08.2.68.68,0,0,0-.29.75,1,1,0,0,0-1,.45.8.8,0,0,0,.08,1,.92.92,0,0,0-.59,1.44C189.77,309.54,189.7,310,189.67,310.27Zm3.08-1.81a.34.34,0,0,0-.06.21c-.51-.05-1.14-.06-1.41-.54A.74.74,0,0,1,192,307a.06.06,0,0,0,.06-.08.63.63,0,0,1,.5-.82.86.86,0,0,1,.78.39h0a1.63,1.63,0,0,0,.59.87.68.68,0,0,0-.26.69A.9.9,0,0,0,192.75,308.46Zm-.27,2c-.48.23-1.08.66-1.63.49a.82.82,0,0,1-.6-.76.78.78,0,0,1,.54-.65s.06-.09,0-.11a.54.54,0,0,1-.36-.74.85.85,0,0,1,.93-.31,2.43,2.43,0,0,0,1.34.38.71.71,0,0,0,.21.28C192.39,309.17,192.2,310,192.48,310.49Zm-.95,2.5a.55.55,0,0,1-.18-.72.06.06,0,0,0,0-.09c-.19,0-.57,0-.68-.17s.1-.72.37-.89h0a3.44,3.44,0,0,0,1.56-.54.56.56,0,0,0,.33.2.83.83,0,0,0,0,1,.81.81,0,0,0,.54.28h0a1.53,1.53,0,0,1-.39.56,2.27,2.27,0,0,1-.57.45A.82.82,0,0,1,191.53,313Z"/><path class="cls-2" d="M195.48,308a.27.27,0,0,0,.21.33.3.3,0,0,0,.35-.22.26.26,0,0,0-.21-.32A.29.29,0,0,0,195.48,308Z"/><path class="cls-2" d="M194.54,308.33a.28.28,0,0,0,.22.33.31.31,0,0,0,.35-.22.28.28,0,0,0-.22-.33A.31.31,0,0,0,194.54,308.33Z"/><path class="cls-2" d="M193.88,309.06a.27.27,0,0,0,.22.32.29.29,0,0,0,.34-.21.26.26,0,0,0-.21-.33A.31.31,0,0,0,193.88,309.06Z"/><path class="cls-2" d="M193.68,310a.26.26,0,0,0,.21.33.31.31,0,0,0,.35-.22.27.27,0,0,0-.22-.32A.29.29,0,0,0,193.68,310Z"/><path class="cls-2" d="M193.94,310.8a.27.27,0,0,0,.22.33.29.29,0,0,0,.34-.22.27.27,0,0,0-.21-.33A.3.3,0,0,0,193.94,310.8Z"/><path class="cls-2" d="M194.7,311.48a.26.26,0,0,0,.22.32.29.29,0,0,0,.34-.22.26.26,0,0,0-.21-.32A.3.3,0,0,0,194.7,311.48Z"/><path class="cls-2" d="M195,306.94a5.35,5.35,0,0,0-.19-.79,4.69,4.69,0,0,0-.3-.75,4.8,4.8,0,0,0,.18.79A4.93,4.93,0,0,0,195,306.94Z"/><path class="cls-2" d="M194.58,307a1.64,1.64,0,0,0-.18-.48,2,2,0,0,0-.29-.42,1.64,1.64,0,0,0,.18.48A2,2,0,0,0,194.58,307Z"/><path class="cls-2" d="M195.36,306.64a2.08,2.08,0,0,0,0-.5,1.63,1.63,0,0,0-.13-.48,1.68,1.68,0,0,0,0,.5A1.63,1.63,0,0,0,195.36,306.64Z"/><path class="cls-2" d="M193.31,307.89a3.57,3.57,0,0,0-.52-.44,3.84,3.84,0,0,0-.6-.33,3.49,3.49,0,0,0,.52.43A3.21,3.21,0,0,0,193.31,307.89Z"/><path class="cls-2" d="M193.39,307.54a2,2,0,0,0-.75-.7,2.07,2.07,0,0,0,.33.39A2.17,2.17,0,0,0,193.39,307.54Z"/><path class="cls-2" d="M192.83,308.1a1.79,1.79,0,0,0-.42-.3,2,2,0,0,0-.48-.2,1.79,1.79,0,0,0,.42.3A2,2,0,0,0,192.83,308.1Z"/><path class="cls-2" d="M192.27,309.74a2.67,2.67,0,0,0-.62-.15,2.72,2.72,0,0,0-.64,0,2.67,2.67,0,0,0,.62.15A2.72,2.72,0,0,0,192.27,309.74Z"/><path class="cls-2" d="M192.23,309.37a1.46,1.46,0,0,0-.45-.18,1.51,1.51,0,0,0-.48-.06,1.74,1.74,0,0,0,.45.17A1.85,1.85,0,0,0,192.23,309.37Z"/><path class="cls-2" d="M192.08,310.09a1.83,1.83,0,0,0-.47,0,1.43,1.43,0,0,0-.44.15,1.41,1.41,0,0,0,.46,0A1.59,1.59,0,0,0,192.08,310.09Z"/><path class="cls-2" d="M192.57,311.59a2.75,2.75,0,0,0-.57.28,3.36,3.36,0,0,0-.52.39,2.86,2.86,0,0,0,.58-.29A3.07,3.07,0,0,0,192.57,311.59Z"/><path class="cls-2" d="M192.37,311.21a2.09,2.09,0,0,0-.5.16,2,2,0,0,0-.44.26,1.76,1.76,0,0,0,.49-.16A2,2,0,0,0,192.37,311.21Z"/><path class="cls-2" d="M192.74,312a1.94,1.94,0,0,0-.41.27,1.83,1.83,0,0,0-.32.36,1.94,1.94,0,0,0,.41-.27A2.22,2.22,0,0,0,192.74,312Z"/><path class="cls-2" d="M194.06,312.9a1.7,1.7,0,0,0-.33.38,1.74,1.74,0,0,0-.23.45,2,2,0,0,0,.33-.39A1.85,1.85,0,0,0,194.06,312.9Z"/><path class="cls-2" d="M193.71,312.61a1.27,1.27,0,0,0-.34.27,1.12,1.12,0,0,0-.25.35,1.84,1.84,0,0,0,.34-.27A1.4,1.4,0,0,0,193.71,312.61Z"/><path class="cls-2" d="M194.43,313.09a1.54,1.54,0,0,0-.37.77,1.61,1.61,0,0,0,.24-.36A1.4,1.4,0,0,0,194.43,313.09Z"/><path class="cls-2" d="M191.4,291.4a.06.06,0,0,1-.06.06s-.07,0-.08,0c-.3-.95-.86-1.05-1.09-1.05a.84.84,0,0,0-.78.53c-.16.42.05.88.58,1.28a.07.07,0,0,1,0,.07s0,.05-.07.05h0a1.69,1.69,0,0,1-1.49-1.22c-.42-1.58,1.58-2.29,2.5-1.42A2.15,2.15,0,0,1,191.4,291.4Z"/><path class="cls-2" d="M191.49,286.58a.68.68,0,0,0-.58-.35.74.74,0,0,0-.7.25c-.52.65-.05,2.38,0,2.46h0v0h.11l.11-.15a.36.36,0,0,0,.07-.1C190.94,288.12,191.71,287.13,191.49,286.58Zm-1.18,2.14,0,0c-.06-.38-.17-1.33.11-1.66a.27.27,0,0,1,.22-.1h.1a.32.32,0,0,1,.25.19C191.08,287.54,190.61,288.31,190.31,288.72Z"/><path class="cls-2" d="M193.23,287.27a.66.66,0,0,0-.71-.13c-.79.3-1.34,2.05-1.36,2.12v0h0v0h.07l.18-.07.11,0c.7-.28,1.88-.76,2-1.36A.6.6,0,0,0,193.23,287.27Zm-1.84,1.87h0c.15-.36.56-1.25,1-1.39a.28.28,0,0,1,.24,0l.08.06a.29.29,0,0,1,.1.28C192.67,288.5,191.86,288.93,191.39,289.14Z"/><path class="cls-2" d="M189.45,288.78c0-.73.08-1.95-.44-2.26a.71.71,0,0,0-.7.05.66.66,0,0,0-.43.57c0,.82,1.38,1.94,1.44,2h.08l0,0h0v-.19A.45.45,0,0,1,189.45,288.78Zm-.15.14c-.28-.27-1-1-.91-1.38a.27.27,0,0,1,.13-.21l.09-.05a.33.33,0,0,1,.32,0c.32.21.38,1.09.37,1.58Z"/><path class="cls-2" d="M188.52,289.78h0a1.07,1.07,0,0,0-.09-.16l-.06-.1c-.36-.62-1-1.67-1.6-1.67a.73.73,0,0,0-.58.38.63.63,0,0,0-.07.7c.4.71,2.25.94,2.33.95h.08v-.05Zm-1.75-.78a.26.26,0,0,1,0-.24.24.24,0,0,1,.06-.08.32.32,0,0,1,.28-.15c.4,0,.92.73,1.18,1.14l0,0C187.93,289.62,187,289.37,186.77,289Z"/><path class="cls-2" d="M188,290.63h0v0l-.17-.07-.11-.05c-.66-.32-1.78-.86-2.32-.54a.7.7,0,0,0-.28.62.62.62,0,0,0,.34.61c.74.37,2.46-.41,2.53-.45h0v0h0A0,0,0,0,0,188,290.63Zm-2,.27a.26.26,0,0,1-.14-.2v-.1a.3.3,0,0,1,.16-.26c.35-.2,1.2.11,1.66.31l0,0C187.41,290.8,186.44,291.1,186.07,290.9Z"/><path class="cls-2" d="M188.29,291.51h0s0,0,0,0h0l-.19,0h-.11c-.76.07-2,.18-2.31.72a.63.63,0,0,0,.09.66.65.65,0,0,0,.62.34c.85-.06,1.92-1.58,2-1.65h0s0,0,0,0Zm-1.6,1.15a.24.24,0,0,1-.22-.09.22.22,0,0,1-.05-.08.29.29,0,0,1,0-.3c.21-.34,1.11-.51,1.62-.57h0C187.81,291.91,187.13,292.65,186.69,292.66Z"/><path class="cls-2" d="M190.9,291.36a.53.53,0,0,0-.64-.42.56.56,0,0,0-.47.63.54.54,0,0,0,.65.43A.56.56,0,0,0,190.9,291.36Z"/><path class="cls-2" d="M191.7,292.38a.42.42,0,0,0-.51-.34.44.44,0,0,0-.37.5.43.43,0,0,0,.51.34A.45.45,0,0,0,191.7,292.38Z"/><path class="cls-2" d="M192.17,293.22a.29.29,0,0,0-.35-.23.32.32,0,0,0-.25.35.31.31,0,0,0,.35.23A.31.31,0,0,0,192.17,293.22Z"/><path class="cls-2" d="M192.61,293.82a.26.26,0,0,0-.29-.19.26.26,0,0,0-.21.29.25.25,0,0,0,.29.19A.26.26,0,0,0,192.61,293.82Z"/><path class="cls-2" d="M193,294.35a.14.14,0,0,0-.16-.11.14.14,0,0,0-.11.16.13.13,0,0,0,.16.11A.14.14,0,0,0,193,294.35Z"/><path class="cls-2" d="M195.13,326.65a.07.07,0,0,1,0-.08.09.09,0,0,1,.09,0c1,.29,1.41-.1,1.55-.28a.75.75,0,0,0,0-.9c-.26-.36-.78-.45-1.44-.26a.06.06,0,0,1-.07-.1h0a1.86,1.86,0,0,1,1.94-.5c1.59.54,1,2.5-.32,2.74A2.33,2.33,0,0,1,195.13,326.65Z"/><path class="cls-2" d="M199.16,329.37a.72.72,0,0,0,.65-.26.65.65,0,0,0,.21-.68c-.23-.77-2-1.36-2.06-1.38h-.08a0,0,0,0,0,0,0h0v0a.85.85,0,0,0,.06.17l0,.11C198.18,328.1,198.56,329.25,199.16,329.37Zm-1.09-2.1v0c.35.16,1.23.59,1.34,1a.3.3,0,0,1-.05.24l-.07.07a.37.37,0,0,1-.31.09C198.59,328.53,198.23,327.73,198.07,327.27Z"/><path class="cls-2" d="M197.52,330.36a.69.69,0,0,0,.54-.48c.22-.79-.92-2.18-1-2.24H197l0,0h0s0,0,0,0l0,.18,0,.11c-.18.71-.5,1.9-.06,2.31A.72.72,0,0,0,197.52,330.36Zm-.47-2.47a.08.08,0,0,0,0,0c.21.32.72,1.14.59,1.54a.28.28,0,0,1-.17.18l-.1,0a.31.31,0,0,1-.3-.08C196.81,329.25,196.94,328.37,197.05,327.89Z"/><path class="cls-2" d="M198.54,326.56c.6.43,1.6,1.14,2.18.9a.67.67,0,0,0,.38-.57.61.61,0,0,0-.22-.66c-.66-.48-2.48,0-2.56,0h0s0,0,0,0h0v.05h0v0l.16.1Zm0-.19c.39-.07,1.39-.21,1.72.05a.26.26,0,0,1,.1.21s0,.07,0,.1a.34.34,0,0,1-.21.24c-.38.13-1.16-.3-1.57-.58Z"/><path class="cls-2" d="M198.25,325.28h.33c.75.06,2,.15,2.38-.34a.6.6,0,0,0,0-.66.61.61,0,0,0-.55-.44c-.84-.08-2.16,1.25-2.21,1.3v.06h0l0,0Zm1.73-.93a.25.25,0,0,1,.2.13.19.19,0,0,1,0,.09.29.29,0,0,1-.05.3c-.26.3-1.18.32-1.69.29h0C198.75,324.91,199.55,324.29,200,324.35Z"/><path class="cls-2" d="M197.83,324.42h0l.16-.09.11-.05c.68-.35,1.81-.93,1.86-1.53,0-.21-.1-.39-.35-.56a.72.72,0,0,0-.73-.07c-.76.38-1.14,2.16-1.15,2.23v0h0s0,0,0,0h0Zm1-1.67a.26.26,0,0,1,.24,0l.09.05a.3.3,0,0,1,.13.27c0,.38-.83.88-1.28,1.13l0,0C198.07,323.85,198.4,322.93,198.8,322.75Z"/><path class="cls-2" d="M196.92,324.15H197l0,0,.1-.16.06-.09c.4-.63,1.08-1.69.79-2.21a.66.66,0,0,0-.61-.29.71.71,0,0,0-.67.3c-.46.7.18,2.37.2,2.45h0Zm0-1.89a.28.28,0,0,1,.21-.12h.1a.3.3,0,0,1,.26.17c.17.34-.24,1.14-.5,1.58l0,0C196.88,323.55,196.67,322.61,196.92,322.26Z"/><path class="cls-2" d="M195.46,326.28a.6.6,0,0,0,.76-.27.53.53,0,0,0-.26-.72.59.59,0,0,0-.75.27A.52.52,0,0,0,195.46,326.28Z"/><path class="cls-2" d="M194.12,326.34a.47.47,0,0,0,.6-.21.42.42,0,0,0-.21-.57.45.45,0,0,0-.59.22A.4.4,0,0,0,194.12,326.34Z"/><path class="cls-2" d="M193.11,326.25a.32.32,0,0,0,.41-.15.28.28,0,0,0-.14-.38.32.32,0,0,0-.41.14A.29.29,0,0,0,193.11,326.25Z"/><path class="cls-2" d="M192.34,326.26a.27.27,0,0,0,.34-.13.23.23,0,0,0-.12-.32.26.26,0,0,0-.33.13A.22.22,0,0,0,192.34,326.26Z"/><path class="cls-2" d="M191.68,326.25a.14.14,0,0,0,.18-.07.12.12,0,0,0-.06-.18.15.15,0,0,0-.19.07A.14.14,0,0,0,191.68,326.25Z"/><path class="cls-2" d="M178.28,314.91a1.52,1.52,0,0,0-1.56-.62c0,.41,0,.82.07,1.23a.83.83,0,0,1,.6-.09c.22.05.73.28.78,1.28a.09.09,0,0,0,.06.06.08.08,0,0,0,.08,0A2.14,2.14,0,0,0,178.28,314.91Z"/><path class="cls-2" d="M179.6,312c0-.21-.18-.37-.47-.48a.68.68,0,0,0-.72.08c-.68.52-.66,2.32-.66,2.4a0,0,0,0,0,0,0v0h.1L178,314l.09-.07C178.7,313.41,179.69,312.62,179.6,312Zm-1.67,1.81,0,0c0-.39.17-1.35.52-1.6a.27.27,0,0,1,.24,0l.1,0a.27.27,0,0,1,.18.24C179,312.87,178.32,313.51,177.93,313.84Z"/><path class="cls-2" d="M181.11,313.11a.65.65,0,0,0-.65-.3c-.84.11-1.8,1.7-1.84,1.76v.06h0a0,0,0,0,0,0,0h0l.18,0,.12,0c.75-.11,2-.31,2.26-.86A.62.62,0,0,0,181.11,313.11Zm-2.24,1.4h0c.24-.31.86-1.09,1.3-1.14a.32.32,0,0,1,.23.08l.06.08a.3.3,0,0,1,0,.3C180.27,314.18,179.37,314.41,178.87,314.51Z"/><path class="cls-2" d="M176.67,312a.31.31,0,0,1,.29.09c.26.29.09,1.16,0,1.64v0a4.61,4.61,0,0,1-.22-.41c0,.12,0,.24,0,.36l.18.26H177l0,0,.05-.18,0-.11c.21-.7.57-1.88.14-2.31a.63.63,0,0,0-.56-.14Z"/><path class="cls-2" d="M178.35,317.75a.41.41,0,0,0-.41-.45.46.46,0,0,0-.48.4.41.41,0,0,0,.41.45A.46.46,0,0,0,178.35,317.75Z"/><path class="cls-2" d="M178.6,318.68a.29.29,0,0,0-.28-.3.3.3,0,0,0-.33.28.28.28,0,0,0,.28.3A.32.32,0,0,0,178.6,318.68Z"/><path class="cls-2" d="M178.86,319.37a.24.24,0,0,0-.23-.25.26.26,0,0,0-.27.23.23.23,0,0,0,.23.25A.25.25,0,0,0,178.86,319.37Z"/><path class="cls-2" d="M179.07,320a.13.13,0,0,0-.13-.14.14.14,0,0,0-.15.13.13.13,0,0,0,.13.14A.14.14,0,0,0,179.07,320Z"/><path class="cls-2" d="M191.77,329.24a.43.43,0,0,0-.19-.6.48.48,0,0,0-.63.2.43.43,0,0,0,.19.6A.48.48,0,0,0,191.77,329.24Z"/><path class="cls-2" d="M192.64,329.65a.33.33,0,0,0-.14-.46.39.39,0,0,0-.49.16.34.34,0,0,0,.15.46A.37.37,0,0,0,192.64,329.65Z"/><path class="cls-2" d="M193.24,330.18a.26.26,0,0,0-.11-.36.29.29,0,0,0-.37.12.26.26,0,0,0,.11.36A.29.29,0,0,0,193.24,330.18Z"/><path class="cls-2" d="M193.55,330.8a.19.19,0,0,0-.08-.25.2.2,0,0,0-.26.09.16.16,0,0,0,.08.24A.2.2,0,0,0,193.55,330.8Z"/><path class="cls-2" d="M193.69,331.34a.13.13,0,0,0-.06-.18.15.15,0,0,0-.2.06.14.14,0,0,0,.06.19A.16.16,0,0,0,193.69,331.34Z"/><path class="cls-2" d="M193.87,331.91a.14.14,0,0,0-.06-.19.17.17,0,0,0-.2.06.14.14,0,0,0,.06.19A.17.17,0,0,0,193.87,331.91Z"/><path class="cls-2" d="M189.61,332.49a.44.44,0,0,0,.18-.62.48.48,0,0,0-.64-.15.45.45,0,0,0-.17.62A.46.46,0,0,0,189.61,332.49Z"/><path class="cls-2" d="M190.1,333.3a.34.34,0,0,0,.13-.47.35.35,0,0,0-.48-.11.33.33,0,0,0-.14.47A.36.36,0,0,0,190.1,333.3Z"/><path class="cls-2" d="M190.3,334.06a.26.26,0,0,0,.1-.36.28.28,0,0,0-.37-.09.27.27,0,0,0-.11.37A.28.28,0,0,0,190.3,334.06Z"/><path class="cls-2" d="M190.2,334.76a.2.2,0,0,0,.07-.26.2.2,0,0,0-.26-.06.19.19,0,0,0-.08.26A.21.21,0,0,0,190.2,334.76Z"/><path class="cls-2" d="M190,335.3a.14.14,0,0,0,.05-.19.14.14,0,1,0-.05.19Z"/><path class="cls-2" d="M189.84,335.88a.14.14,0,0,0,0-.19.13.13,0,0,0-.19-.05.14.14,0,0,0-.06.19A.15.15,0,0,0,189.84,335.88Z"/><path class="cls-2" d="M194,301.17a2.62,2.62,0,0,1,.57.44,5.8,5.8,0,0,1,.8.94,9.64,9.64,0,0,1,.61,1c.14.28.21.47.21.47s-.12-.16-.33-.39a9.08,9.08,0,0,0-.82-.78,6.68,6.68,0,0,0-.94-.67,4.36,4.36,0,0,0-.52-.25.32.32,0,0,1-.18-.21.54.54,0,0,1,0-.31.37.37,0,0,1,.23-.26A.49.49,0,0,1,194,301.17Z"/><path class="cls-2" d="M193.92,302.37a1.64,1.64,0,0,1,.48.16,3.75,3.75,0,0,1,.68.49,5.71,5.71,0,0,1,.74.83,5.42,5.42,0,0,0-.92-.6,3.19,3.19,0,0,0-.7-.28,1.82,1.82,0,0,0-.36,0,.24.24,0,0,1-.16-.09.34.34,0,0,1-.09-.18.21.21,0,0,1,.07-.21A.33.33,0,0,1,193.92,302.37Z"/><path class="cls-2" d="M194.07,303.26a1.38,1.38,0,0,1,.38,0,2.41,2.41,0,0,1,.63.2,2.29,2.29,0,0,1,.5.34.9.9,0,0,1,.17.2,1.07,1.07,0,0,0-.21-.15,2.2,2.2,0,0,0-.55-.19,2.36,2.36,0,0,0-.58,0,2.7,2.7,0,0,0-.29,0,.19.19,0,0,1-.15,0,.32.32,0,0,1-.1-.13.25.25,0,0,1,0-.17A.26.26,0,0,1,194.07,303.26Z"/><path class="cls-2" d="M192.84,295.63a1.78,1.78,0,0,1,.38.43,4.62,4.62,0,0,1,.48.86,6.78,6.78,0,0,1,.32.86,2.85,2.85,0,0,1,.09.4,2.59,2.59,0,0,0-.19-.36c-.13-.2-.32-.47-.52-.73a5.64,5.64,0,0,0-.63-.65,2.28,2.28,0,0,0-.37-.27.31.31,0,0,1-.11-.19.49.49,0,0,1,0-.26.31.31,0,0,1,.21-.16A.37.37,0,0,1,192.84,295.63Z"/><path class="cls-2" d="M192.63,296.57a1.38,1.38,0,0,1,.35.2,2.64,2.64,0,0,1,.46.48,4.21,4.21,0,0,1,.45.76,4.73,4.73,0,0,0-.62-.61,2.4,2.4,0,0,0-.51-.31,1.47,1.47,0,0,0-.27-.09.14.14,0,0,1-.11-.09.28.28,0,0,1,0-.16.21.21,0,0,1,.09-.15A.26.26,0,0,1,192.63,296.57Z"/><path class="cls-2" d="M192.62,297.29a1.3,1.3,0,0,1,.29.07,1.74,1.74,0,0,1,.46.25,1.82,1.82,0,0,1,.34.34.9.9,0,0,1,.1.18,1,1,0,0,0-.14-.15,1.84,1.84,0,0,0-.4-.22,1.72,1.72,0,0,0-.44-.12h-.24a.22.22,0,0,1-.11-.05.17.17,0,0,1,0-.12.16.16,0,0,1,0-.13A.25.25,0,0,1,192.62,297.29Z"/><path class="cls-2" d="M193.2,319.26a.76.76,0,0,0,0,1,1.15,1.15,0,0,0,1.11.13c.58-.22.88-.82,1.54-.82a.2.2,0,0,1,0,.11.44.44,0,0,1-.27.54c-.17.05-.3-.11-.18-.16,0,0,.07.18.17.06s-.21-.21-.3-.09,0,.22.1.28a.38.38,0,0,0,.4,0s.62-.55-.12-1.16a1.9,1.9,0,0,0-1.35-.37A1.72,1.72,0,0,0,193.2,319.26Zm0,.59a2.55,2.55,0,0,1,.4-.27,1.28,1.28,0,0,1,.45-.23,1.45,1.45,0,0,1,.66,0,1,1,0,0,0-.32.19c-.26.23-.77.65-1.13.41a1,1,0,0,0,.48-.09c.11,0,.33-.11.36-.25s-.09-.2-.21-.16S193.45,319.8,193.19,319.85Zm1.9-.9a1.15,1.15,0,0,1,.74.54,1.24,1.24,0,0,0-.77.3,2.26,2.26,0,0,1-.86.55,1,1,0,0,1-.91-.14.6.6,0,0,1-.09-.13.65.65,0,0,0,.53.05s.14,0,.19,0,.05,0,0,.06,0,0,0,0-.09.09,0,.1.23-.1.16-.2A.18.18,0,0,0,194,320a1.06,1.06,0,0,0,.2-.12h0c.05,0,.14,0,.15.06a.09.09,0,0,1-.1.11c-.07,0-.09.09,0,.1a.21.21,0,0,0,.24-.21.2.2,0,0,0-.18-.16l.17-.14c.06,0,.17,0,.19,0s0,0,0,.07,0,0,0,0h0s-.1.05,0,.09a.12.12,0,0,0,.15-.06.17.17,0,0,0,0-.18.2.2,0,0,0-.18-.09h0c.23-.16.79.12.75-.28a.15.15,0,0,0-.29,0,.61.61,0,0,0,0,.12c0,.05,0,.05,0,0h0l.1-.07s.11-.07.13-.06.05,0,0,.07a.72.72,0,0,1-.47-.06.26.26,0,0,0,.1-.07c.07-.07.09-.19,0-.23s-.09.08,0,.1-.05.09-.06.1a.39.39,0,0,1-.19.06l-.14,0,.06-.06a.14.14,0,0,0-.1-.21c-.06,0-.09.09,0,.1s0,.07,0,.09l-.14.07-.15,0a.22.22,0,0,0,0-.08.12.12,0,0,0-.16-.13c-.06,0,0,.12,0,.09s0,0,0,0a.08.08,0,0,1,0,.05.66.66,0,0,1-.12.12h0l-.1.05v0c0-.11-.13-.13-.22-.09s0,.12,0,.09.07,0,.09,0a.07.07,0,0,1,0,.06.66.66,0,0,1-.12.12l-.2.12a1.25,1.25,0,0,0-.22.16.61.61,0,0,1,.19-.49A1.9,1.9,0,0,1,195.09,319Z"/><path class="cls-2" d="M195,317a.74.74,0,0,0,.13,1,1.14,1.14,0,0,0,1.12,0c.55-.27.79-.9,1.45-1a.49.49,0,0,1,0,.11.44.44,0,0,1-.21.57c-.16.06-.31-.09-.2-.15s.09.18.19,0-.25-.19-.31-.06,0,.21.12.27a.4.4,0,0,0,.4-.06s.56-.61-.25-1.14a2,2,0,0,0-1.39-.23A1.7,1.7,0,0,0,195,317Zm.06.58a1.85,1.85,0,0,1,.37-.31,1.22,1.22,0,0,1,.41-.27,1.4,1.4,0,0,1,.67,0,.89.89,0,0,0-.29.22c-.24.26-.71.73-1.09.52a1.14,1.14,0,0,0,.47-.13c.11-.05.32-.15.33-.29s-.11-.19-.23-.14S195.29,317.48,195.05,317.55Zm1.79-1.09a1.21,1.21,0,0,1,.8.46,1.26,1.26,0,0,0-.74.38,2.33,2.33,0,0,1-.79.64,1,1,0,0,1-.92-.05.6.6,0,0,1-.11-.12.65.65,0,0,0,.53,0s.14,0,.19,0,0,0,0,.06,0,0,0,0a.05.05,0,1,0,0,.1c.12,0,.22-.13.14-.22l-.09-.06a1.33,1.33,0,0,0,.19-.14h0c.06,0,.15,0,.17,0s0,.13-.09.12-.09.1,0,.1a.2.2,0,0,0,.21-.23c0-.09-.1-.13-.19-.14l.15-.15c.06,0,.17,0,.2,0s0,0,0,.07,0,0,0,0h0a0,0,0,1,0,0,.09c.06,0,.12,0,.14-.07a.17.17,0,0,0,0-.18.19.19,0,0,0-.18-.07h0c.22-.19.81,0,.72-.36a.15.15,0,0,0-.29,0,.19.19,0,0,0,0,.12s.06,0,0,0h0l.09-.08s.11-.08.12-.07.06,0,0,.07a.65.65,0,0,1-.47,0,.24.24,0,0,0,.09-.08c.07-.08.08-.2,0-.23a.05.05,0,1,0,0,.1s0,.1-.06.1a.25.25,0,0,1-.17.08h-.15a.18.18,0,0,0,.05-.07.13.13,0,0,0-.11-.19.05.05,0,1,0,0,.1c.08,0,0,.06,0,.09a.35.35,0,0,1-.13.08l-.14,0a.36.36,0,0,0,0-.09.12.12,0,0,0-.18-.11,0,0,0,1,0,0,.09s0,0,0,0,0,0,0,0a.92.92,0,0,1-.11.14h0l-.09.06v0c0-.11-.15-.12-.23-.07a0,0,0,1,0,0,.09s.06,0,.08,0,0,0,0,.06a.36.36,0,0,1-.11.12l-.18.15a.88.88,0,0,0-.2.18.63.63,0,0,1,.13-.51A1.92,1.92,0,0,1,196.84,316.46Z"/><path class="cls-2" d="M196.57,314.55a.75.75,0,0,0,.24,1,1.15,1.15,0,0,0,1.12-.1c.53-.32.7-1,1.35-1.11l.05.1a.43.43,0,0,1-.15.58c-.16.09-.32,0-.21-.12s.1.17.18,0-.26-.16-.31,0,0,.21.15.25a.41.41,0,0,0,.4-.09s.48-.67-.38-1.1a2,2,0,0,0-1.41-.1A1.76,1.76,0,0,0,196.57,314.55Zm.12.57a2.81,2.81,0,0,1,.34-.35,1.43,1.43,0,0,1,.38-.31,1.45,1.45,0,0,1,.67-.09.72.72,0,0,0-.27.25c-.21.28-.62.79-1,.63a1.06,1.06,0,0,0,.45-.19c.11-.06.3-.18.31-.31a.16.16,0,0,0-.25-.12C197.06,314.76,196.93,315,196.69,315.12Zm1.67-1.26a1.27,1.27,0,0,1,.86.38,1.21,1.21,0,0,0-.71.45,2.32,2.32,0,0,1-.72.71,1,1,0,0,1-.92,0,.43.43,0,0,1-.12-.11.66.66,0,0,0,.53-.05.64.64,0,0,1,.19,0s.05,0,.05,0a.05.05,0,0,1-.05,0c-.06,0-.07.1,0,.1a.14.14,0,0,0,.11-.23.2.2,0,0,0-.09-.05l.17-.16h0s.14,0,.16,0a.08.08,0,0,1-.07.12c-.07,0-.08.11,0,.1A.19.19,0,0,0,198,315a.17.17,0,0,0-.2-.11,1.92,1.92,0,0,1,.13-.17.29.29,0,0,1,.2,0,.1.1,0,0,1,0,.07.06.06,0,0,1,0,0h0s-.09.07,0,.09.12,0,.14-.08a.17.17,0,0,0,0-.18.18.18,0,0,0-.19-.05h0c.2-.21.81,0,.68-.43a.15.15,0,0,0-.29,0s0,.12,0,.13.06,0,0,0h0l.08-.08.11-.09s.06,0,0,.07a.73.73,0,0,1-.47,0,.39.39,0,0,0,.08-.1c.05-.08.05-.2-.07-.21a0,0,0,1,0,0,.09s0,.1,0,.11a.27.27,0,0,1-.17.1h-.15a.18.18,0,0,0,.05-.07.13.13,0,0,0-.14-.18.05.05,0,1,0,0,.1c.07,0,.05.06,0,.09l-.12.1-.14.05a.32.32,0,0,0,0-.09.12.12,0,0,0-.19-.1c-.05,0,0,.13.05.09s0,0,0,0,0,0,0,.05a.51.51,0,0,1-.09.14h0l-.09.06v0c0-.11-.16-.1-.24-.05s0,.12.05.09.06-.05.08,0a.05.05,0,0,1,0,.05.4.4,0,0,1-.09.14l-.17.16a.68.68,0,0,0-.18.2.61.61,0,0,1,.07-.51A1.92,1.92,0,0,1,198.36,313.86Z"/><path class="cls-2" d="M197.91,311.78a.73.73,0,0,0,.38.93,1.14,1.14,0,0,0,1.1-.24c.47-.39.55-1.05,1.18-1.27a.7.7,0,0,1,.06.09.43.43,0,0,1-.06.59c-.15.11-.33,0-.23-.09s.13.15.19,0-.29-.12-.32,0,.08.2.19.22a.4.4,0,0,0,.38-.14s.38-.72-.54-1a2,2,0,0,0-1.41.1A1.67,1.67,0,0,0,197.91,311.78Zm.2.55a2.76,2.76,0,0,1,.28-.39,1.26,1.26,0,0,1,.34-.35,1.33,1.33,0,0,1,.65-.18.87.87,0,0,0-.23.27c-.17.31-.51.87-.93.76a1.18,1.18,0,0,0,.42-.24c.09-.07.27-.22.26-.35s-.16-.16-.27-.08S198.34,312.2,198.11,312.33Zm1.48-1.46a1.27,1.27,0,0,1,.91.25,1.25,1.25,0,0,0-.64.54,2.24,2.24,0,0,1-.61.79,1,1,0,0,1-.91.17.34.34,0,0,1-.14-.09.64.64,0,0,0,.52-.13s.13-.07.18-.06.06,0,0,0a0,0,0,0,1,0,0c-.06,0,0,.11,0,.1s.19-.17.09-.24a.17.17,0,0,0-.11,0,.8.8,0,0,0,.15-.17h0s.14-.05.17,0a.1.1,0,0,1-.06.14c-.06,0-.06.11,0,.1a.2.2,0,0,0,.15-.27.18.18,0,0,0-.22-.09c0-.05.07-.13.1-.19a.3.3,0,0,1,.2,0s0,0,0,.06,0,0,0,0h0c-.06,0-.08.09,0,.1a.11.11,0,0,0,.13-.1.16.16,0,0,0-.07-.17.18.18,0,0,0-.19,0h0c.17-.22.8-.16.62-.51,0-.1-.28-.11-.28.07,0,0,0,.12,0,.13s.06,0,0,0h0l.06-.1s.09-.1.11-.1.06,0,0,.07a.76.76,0,0,1-.46.1l.07-.11c0-.09,0-.2-.11-.2s-.05.1,0,.1,0,.1,0,.11a.33.33,0,0,1-.16.12l-.14,0,0-.07a.14.14,0,0,0-.16-.17c-.07,0-.06.11,0,.1s.06,0,0,.1l-.1.1-.14.07a.15.15,0,0,0,0-.09.12.12,0,0,0-.2-.07c-.05,0,0,.12.06.08s0,0,0,0a.06.06,0,0,1,0,0,.4.4,0,0,1-.07.16h0l-.07.08s0,0,0,0-.17-.07-.25,0,0,.12.06.08.06-.05.08,0a.07.07,0,0,1,0,.05.76.76,0,0,1-.08.15l-.14.18a.78.78,0,0,0-.15.22.63.63,0,0,1,0-.52A1.89,1.89,0,0,1,199.59,310.87Z"/><path class="cls-2" d="M198.87,309.14a.76.76,0,0,0,.44.91,1.14,1.14,0,0,0,1.09-.32c.45-.41.48-1.08,1.09-1.33a.27.27,0,0,1,.07.08.43.43,0,0,1,0,.6c-.14.11-.33,0-.24-.08s.14.15.19,0-.29-.1-.32,0,.1.19.21.21a.4.4,0,0,0,.37-.17s.34-.74-.61-1a2,2,0,0,0-1.41.19A1.64,1.64,0,0,0,198.87,309.14Zm.24.53a2.11,2.11,0,0,1,.26-.4,1.23,1.23,0,0,1,.31-.37,1.33,1.33,0,0,1,.64-.22.82.82,0,0,0-.22.29c-.15.31-.44.89-.87.81a1.18,1.18,0,0,0,.4-.27c.09-.08.26-.23.23-.36s-.17-.15-.27-.06S199.33,309.53,199.11,309.67Zm1.38-1.54a1.26,1.26,0,0,1,.92.19,1.23,1.23,0,0,0-.59.58,2.17,2.17,0,0,1-.57.83,1,1,0,0,1-.9.22l-.14-.08a.69.69,0,0,0,.51-.16s.12-.08.18-.07,0,0,0,0,0,0,0,.05,0,.11,0,.09a.13.13,0,0,0,.07-.24.2.2,0,0,0-.11,0,1.1,1.1,0,0,0,.14-.18h0s.13-.06.17,0a.1.1,0,0,1,0,.14c-.06,0-.05.11,0,.1a.19.19,0,1,0-.09-.36c0-.05.07-.13.09-.19a.26.26,0,0,1,.2,0s.05,0,.05.06v0h0c-.06,0-.07.09,0,.1a.11.11,0,0,0,.12-.11.16.16,0,0,0-.07-.17.2.2,0,0,0-.2,0h0c.15-.24.78-.21.58-.55-.06-.1-.29-.09-.28.08a.28.28,0,0,0,0,.13c.05,0,.07,0,0,0h0l.06-.1s.08-.11.1-.11.06,0,0,.06a.71.71,0,0,1-.45.13.3.3,0,0,0,.06-.11c0-.09,0-.21-.12-.2a.05.05,0,0,0,0,.1s0,.11,0,.12-.09.11-.15.12l-.14,0a.21.21,0,0,0,0-.07.13.13,0,0,0-.17-.15c-.07,0-.05.11,0,.09s.07.05,0,.09a.94.94,0,0,1-.09.12l-.13.07a.28.28,0,0,0,0-.09.13.13,0,0,0-.21-.06c0,.05,0,.12.07.08s0,0,0,0a0,0,0,0,1,0,0,.54.54,0,0,1-.06.16h0l-.07.08a.06.06,0,0,0,0,0c0-.09-.18-.06-.24,0s0,.12.06.08.05-.06.08,0,0,0,0,.05a.24.24,0,0,1-.06.15,1.27,1.27,0,0,1-.13.19,1.42,1.42,0,0,0-.14.23.61.61,0,0,1,0-.51A1.89,1.89,0,0,1,200.49,308.13Z"/><path class="cls-2" d="M199.44,306.41a.75.75,0,0,0,.59.83,1.13,1.13,0,0,0,1-.46c.38-.48.31-1.13.88-1.48l.09.08a.44.44,0,0,1,.07.59c-.12.13-.33.06-.25,0s.16.12.19,0-.31-.06-.31.08.12.18.24.18a.37.37,0,0,0,.33-.22s.23-.77-.75-.89a2,2,0,0,0-1.37.38A1.67,1.67,0,0,0,199.44,306.41Zm.32.49a2.39,2.39,0,0,1,.2-.43,1.3,1.3,0,0,1,.25-.42,1.51,1.51,0,0,1,.61-.3.78.78,0,0,0-.18.32c-.1.33-.3.94-.74.92a1.21,1.21,0,0,0,.36-.32c.07-.09.22-.27.17-.39s-.19-.12-.27,0S200,306.73,199.76,306.9Zm1.14-1.72a1.35,1.35,0,0,1,.95.06,1.21,1.21,0,0,0-.51.65,2.15,2.15,0,0,1-.43.9,1,1,0,0,1-.86.35.44.44,0,0,1-.16-.06.67.67,0,0,0,.49-.23s.11-.1.16-.1.06,0,.06,0a0,0,0,0,1,0,.05c-.07,0,0,.11,0,.09a.14.14,0,0,0,0-.25.25.25,0,0,0-.12,0,1,1,0,0,0,.11-.2l0,0a.14.14,0,0,1,.17,0,.1.1,0,0,1,0,.15c-.06,0,0,.12,0,.09a.19.19,0,0,0,.08-.29.17.17,0,0,0-.23,0,1.17,1.17,0,0,1,.06-.2.28.28,0,0,1,.18-.09.13.13,0,0,1,.07.05v.06c-.06,0-.06.09,0,.09s.1-.06.1-.12a.17.17,0,0,0-.1-.15.2.2,0,0,0-.2,0h0c.11-.25.75-.31.49-.62-.07-.09-.3,0-.27.12a.25.25,0,0,0,0,.13c.05,0,.07,0,0,0h0l0-.11s.07-.11.08-.11.07,0,.06,0a.73.73,0,0,1-.43.19.76.76,0,0,0,0-.11c0-.1,0-.21-.15-.18s0,.11,0,.09,0,.11,0,.12-.06.12-.12.14l-.14.06a.19.19,0,0,0,0-.08.14.14,0,0,0-.2-.12c-.06,0,0,.12,0,.09s.07,0,.05.09l-.08.12-.12.1a.17.17,0,0,0,0-.1.12.12,0,0,0-.21,0,0,0,0,1,0,.07.06s0,0,0,0a0,0,0,0,1,0,.05.36.36,0,0,1,0,.16h0l-.06.09v0c-.07-.09-.19,0-.25,0s0,.12.08.07,0-.06.07,0l0,0a.34.34,0,0,1,0,.16l-.1.21a.86.86,0,0,0-.11.24.63.63,0,0,1-.11-.5A1.89,1.89,0,0,1,200.9,305.18Z"/><path class="cls-2" d="M199.57,303.77a.76.76,0,0,0,.7.74,1.16,1.16,0,0,0,1-.59c.31-.51.15-1.15.67-1.56l.09.06c.17.14.3.36.15.57s-.31.11-.25,0c0,.05.18.09.18-.07s-.31,0-.3.12.15.16.27.15a.38.38,0,0,0,.3-.26s.12-.79-.87-.79a2,2,0,0,0-1.32.56A1.6,1.6,0,0,0,199.57,303.77Zm.39.44a1.67,1.67,0,0,1,.13-.45,1.17,1.17,0,0,1,.2-.44,1.44,1.44,0,0,1,.55-.38.93.93,0,0,0-.12.33c-.06.34-.18,1-.62,1a1.11,1.11,0,0,0,.32-.36c.06-.1.18-.29.12-.41a.16.16,0,0,0-.28,0C200.11,303.73,200.13,304,200,304.21Zm.89-1.84a1.31,1.31,0,0,1,1-.06,1.17,1.17,0,0,0-.41.71,2.14,2.14,0,0,1-.31.94,1,1,0,0,1-.81.45l-.16,0a.62.62,0,0,0,.45-.29s.1-.11.15-.12.06,0,.07,0,0,0,0,0a0,0,0,1,0,0,.09.13.13,0,0,0,0-.25h-.11a1.8,1.8,0,0,0,.08-.21,0,0,0,0,0,0,0s.12-.09.17-.05a.09.09,0,0,1,0,.15,0,0,0,1,0,0,.09.19.19,0,0,0,.05-.3.18.18,0,0,0-.24,0,1.52,1.52,0,0,1,0-.21c0-.05.13-.11.17-.1a.07.07,0,0,1,.07,0s0,0,0,0h0c-.06,0,0,.1,0,.09a.09.09,0,0,0,.08-.13.16.16,0,0,0-.12-.14.22.22,0,0,0-.19,0h0c.08-.26.7-.4.4-.68-.08-.07-.3,0-.24.16a.28.28,0,0,0,0,.13c.06,0,.07,0,0,0h0l0-.11a1.34,1.34,0,0,1,.06-.12s.07,0,.07,0a.79.79,0,0,1-.41.24.27.27,0,0,0,0-.12c0-.09,0-.2-.17-.15s0,.11,0,.09,0,.1,0,.11-.05.13-.11.16l-.12.08a.27.27,0,0,0,0-.09.13.13,0,0,0-.21-.09,0,0,0,1,0,0,.09c.07,0,.08,0,.06.07a.59.59,0,0,1-.06.14l-.1.1a.29.29,0,0,0,0-.09.13.13,0,0,0-.22,0c0,.06.06.12.09.06s0,0,0,0,0,0,0,0a.53.53,0,0,1,0,.17h0a.41.41,0,0,0-.05.09l0,0c-.08-.08-.19,0-.24.07a.05.05,0,0,0,.09,0s0-.06.06,0,0,0,0,0a.33.33,0,0,1,0,.16,1.42,1.42,0,0,1-.07.22.82.82,0,0,0-.06.25.6.6,0,0,1-.19-.48A1.86,1.86,0,0,1,200.85,302.37Z"/><path class="cls-2" d="M199.31,301a.76.76,0,0,0,.76.67,1.11,1.11,0,0,0,.9-.66c.27-.54.05-1.16.54-1.61l.1.06c.18.12.33.33.2.55s-.31.13-.25,0c0,0,.18.08.17-.08s-.32,0-.29.14.17.15.28.13a.41.41,0,0,0,.28-.29s.05-.79-.94-.7a2,2,0,0,0-1.27.65A1.61,1.61,0,0,0,199.31,301Zm.42.4a2.52,2.52,0,0,1,.1-.46,1.06,1.06,0,0,1,.16-.45,1.43,1.43,0,0,1,.52-.43.88.88,0,0,0-.1.35c0,.34-.09,1-.53,1.05a1.2,1.2,0,0,0,.29-.38c.05-.11.15-.31.08-.42a.16.16,0,0,0-.28,0C199.85,300.92,199.89,301.21,199.73,301.41Zm.73-1.9a1.38,1.38,0,0,1,.95-.14,1.12,1.12,0,0,0-.35.74,2.19,2.19,0,0,1-.23,1,1,1,0,0,1-.76.51l-.17,0a.67.67,0,0,0,.43-.33s.08-.11.13-.13.06,0,.07,0a0,0,0,0,1,0,.05s0,.12.06.09a.14.14,0,0,0-.14-.24l.06-.22,0,0s.1-.1.16-.06a.08.08,0,0,1,0,.14s0,.12.05.09a.19.19,0,0,0,0-.31.2.2,0,0,0-.24,0,1.36,1.36,0,0,1,0-.2.23.23,0,0,1,.16-.12.08.08,0,0,1,.07,0l0,0h0a.05.05,0,0,0,0,.1.1.1,0,0,0,.07-.14.16.16,0,0,0-.13-.13.2.2,0,0,0-.19.06h0c.06-.27.67-.46.35-.71-.09-.07-.31,0-.24.18a.27.27,0,0,0,.06.12c.05,0,.07,0,0,0h0l0-.11s0-.13,0-.13.07,0,.07,0a.75.75,0,0,1-.38.27.5.5,0,0,0,0-.12c0-.1-.08-.19-.19-.14s0,.11.05.09,0,.09,0,.11a.35.35,0,0,1-.09.17.57.57,0,0,0-.13.08.22.22,0,0,0,0-.08A.15.15,0,0,0,200,300s0,.12.05.09.08,0,.07.07a.78.78,0,0,1,0,.14.48.48,0,0,0-.09.11.32.32,0,0,0,0-.09.13.13,0,0,0-.22,0c0,.06.07.11.09,0s0,0,0,0a.06.06,0,0,1,0,0,.32.32,0,0,1,0,.17h0l0,.1,0,0a.15.15,0,0,0-.23.08c0,.06.06.11.09.05s0-.07.06-.06l0,0a.32.32,0,0,1,0,.17c0,.07,0,.14,0,.21a.85.85,0,0,0-.05.26.62.62,0,0,1-.22-.46A1.82,1.82,0,0,1,200.46,299.51Z"/><path class="cls-2" d="M199.13,298.11a.78.78,0,0,0,.83.6,1.14,1.14,0,0,0,.83-.76c.21-.56-.08-1.15.35-1.65l.11.05c.19.1.37.3.26.53s-.29.16-.25,0c0,.05.2.06.17-.09s-.32,0-.27.17.18.12.29.09a.39.39,0,0,0,.25-.31s0-.79-1-.6a2,2,0,0,0-1.19.78A1.53,1.53,0,0,0,199.13,298.11Zm.47.36a1.41,1.41,0,0,1,0-.46,1.08,1.08,0,0,1,.11-.47,1.35,1.35,0,0,1,.47-.48.72.72,0,0,0-.06.36c0,.34,0,1-.41,1.09a1.06,1.06,0,0,0,.24-.41c0-.11.12-.32,0-.42a.16.16,0,0,0-.27.06C199.66,298,199.73,298.25,199.6,298.47Zm.51-2a1.29,1.29,0,0,1,.93-.23,1.11,1.11,0,0,0-.27.76,2.11,2.11,0,0,1-.11,1,1,1,0,0,1-.71.6h-.17a.71.71,0,0,0,.39-.37s.07-.12.12-.14.06,0,.07,0,0,0,0,0,0,.12.06.08a.13.13,0,0,0,0-.24.16.16,0,0,0-.12,0,2.07,2.07,0,0,0,0-.22l0,0s.09-.11.15-.08a.09.09,0,0,1,0,.15c-.05,0,0,.12.06.08a.2.2,0,0,0,0-.31.2.2,0,0,0-.24,0,1.48,1.48,0,0,1,0-.21c0-.05.11-.13.15-.13a.08.08,0,0,1,.08,0v0h0c-.07,0,0,.11,0,.09a.1.1,0,0,0,.06-.14.2.2,0,0,0-.15-.12.22.22,0,0,0-.18.08v0c0-.28.61-.53.27-.74-.1-.06-.31.05-.22.2s.05.11.07.11.07,0,0,0h0v-.11s0-.13,0-.14.07,0,.07,0a.68.68,0,0,1-.35.31.2.2,0,0,0,0-.11c0-.1-.09-.19-.2-.13s0,.12.06.08,0,.1,0,.11a.26.26,0,0,1-.07.18l-.11.09a.25.25,0,0,0,0-.08.14.14,0,0,0-.23-.05s0,.12.06.08.08,0,.07.06a.58.58,0,0,1,0,.14.57.57,0,0,0-.08.13.36.36,0,0,0,0-.09.12.12,0,0,0-.21,0c0,.06.07.1.09,0s0,0,0,0,0,0,0,0a1.59,1.59,0,0,1,0,.17h0a.3.3,0,0,0,0,.1l0,0c-.09-.06-.19,0-.22.11s.07.1.09,0,0-.07.06-.07.05,0,.05,0a.34.34,0,0,1,0,.16,1.66,1.66,0,0,1,0,.22,1.18,1.18,0,0,0,0,.26.62.62,0,0,1-.27-.43A1.78,1.78,0,0,1,200.11,296.51Z"/><path class="cls-2" d="M198.86,296.15a.06.06,0,0,0,0,.11,1.45,1.45,0,0,0,1.08-.5,1.53,1.53,0,0,0,.32-1.18,4.28,4.28,0,0,1-.1-1.55c.13-.43.46-1,1-1.12a.06.06,0,0,0,.06-.06s0-.08-.06-.07a2.63,2.63,0,0,0-1.88,1.57A7.25,7.25,0,0,0,198.86,296.15Z"/><path class="cls-2" d="M189.93,317a2,2,0,0,1,0,.57,5.25,5.25,0,0,1-.14,1,6.2,6.2,0,0,1-.26.9c-.09.24-.16.39-.16.39s0-.16.05-.41a5.18,5.18,0,0,0,0-.9,5.48,5.48,0,0,0-.1-.9c-.06-.24-.12-.39-.13-.43a.29.29,0,0,1,0-.22.54.54,0,0,1,.18-.19.31.31,0,0,1,.28,0A.34.34,0,0,1,189.93,317Z"/><path class="cls-2" d="M189.2,317.69a1.26,1.26,0,0,1,.16.36,2.71,2.71,0,0,1,.08.66,4.29,4.29,0,0,1-.1.88,4.69,4.69,0,0,0-.13-.85,2.32,2.32,0,0,0-.22-.54,1,1,0,0,0-.17-.23.29.29,0,0,1,0-.14.4.4,0,0,1,.06-.16.21.21,0,0,1,.17-.07A.24.24,0,0,1,189.2,317.69Z"/><path class="cls-2" d="M188.75,318.29a.73.73,0,0,1,.2.22,1.78,1.78,0,0,1,.21.46,1.41,1.41,0,0,1,.07.47,1,1,0,0,1,0,.21.84.84,0,0,0,0-.2,1.53,1.53,0,0,0-.47-.75,1.07,1.07,0,0,0-.18-.14.15.15,0,0,1-.06-.1.16.16,0,0,1,0-.13.15.15,0,0,1,.11-.08A.15.15,0,0,1,188.75,318.29Z"/><path class="cls-2" d="M193.09,315.63a1.63,1.63,0,0,1-.13.42,4.53,4.53,0,0,1-.38.65,5,5,0,0,1-.44.56,2,2,0,0,1-.23.23,1.48,1.48,0,0,0,.16-.27,4.85,4.85,0,0,0,.28-.63,4.13,4.13,0,0,0,.18-.66,1.56,1.56,0,0,0,0-.33.28.28,0,0,1,.08-.15.38.38,0,0,1,.18-.09.22.22,0,0,1,.19.06A.26.26,0,0,1,193.09,315.63Z"/><path class="cls-2" d="M192.4,315.91a1.37,1.37,0,0,1,0,.3,2,2,0,0,1-.14.48,3.35,3.35,0,0,1-.32.59,4,4,0,0,0,.16-.63,2.21,2.21,0,0,0,0-.44,1.63,1.63,0,0,0-.05-.2.21.21,0,0,1,0-.11.26.26,0,0,1,.09-.09.14.14,0,0,1,.14,0A.18.18,0,0,1,192.4,315.91Z"/><path class="cls-2" d="M191.92,316.21a1.56,1.56,0,0,1,.07.21,1.19,1.19,0,0,1,0,.38,1.12,1.12,0,0,1-.09.35.69.69,0,0,1-.08.14.49.49,0,0,0,0-.15,1.28,1.28,0,0,0,0-.34,1.13,1.13,0,0,0-.1-.31.58.58,0,0,0-.09-.15.28.28,0,0,1,0-.09.16.16,0,0,1,.06-.08.12.12,0,0,1,.1,0A.11.11,0,0,1,191.92,316.21Z"/><path class="cls-2" d="M189.56,321a.17.17,0,0,1-.12-.29c11.8-12.08,5.47-23.16,3.25-26.27a.17.17,0,0,1,.05-.25.2.2,0,0,1,.26,0,20.76,20.76,0,0,1,3.58,9.18c.76,6.19-1.55,12.09-6.88,17.54A.15.15,0,0,1,189.56,321Z"/><path class="cls-2" d="M190.29,320.74l0,0a.05.05,0,0,1,0-.08,21.33,21.33,0,0,0,6.93-13.87,17.1,17.1,0,0,0-.89-7.45.06.06,0,0,1,0-.08.07.07,0,0,1,.08,0,17.59,17.59,0,0,1,.89,7.51,21.66,21.66,0,0,1-7,13.94Z"/><path class="cls-2" d="M190.5,320.9s0,0,0,0a0,0,0,0,1,0-.08l0,0c2.84-2.71,9.25-10.06,7.42-19.88a.08.08,0,0,1,.05-.07s.07,0,.07.05a19.77,19.77,0,0,1-2.45,13.61,27.65,27.65,0,0,1-5,6.37l-.05,0A0,0,0,0,1,190.5,320.9Z"/><path class="cls-2" d="M190.8,321.1a.12.12,0,0,1-.1-.05.11.11,0,0,1,0-.16c4.6-3.23,7.59-10,8.25-13.79a31.58,31.58,0,0,0-.06-6.71c-.2-2.78-.4-5.4.1-6.7a2.8,2.8,0,0,1,2.93-2,1.29,1.29,0,0,1,1.11,1.51.82.82,0,0,1-.92.64.45.45,0,0,1-.3-.18.4.4,0,0,1-.07-.33.12.12,0,0,1,.14-.1.1.1,0,0,1,.1.13.19.19,0,0,0,0,.16.16.16,0,0,0,.14.08.54.54,0,0,0,.62-.43,1,1,0,0,0-.91-1.24,2.59,2.59,0,0,0-2.65,1.86c-.48,1.26-.29,3.86-.09,6.61a32.12,32.12,0,0,1,.07,6.76c-.67,3.82-3.7,10.68-8.36,13.95Z"/><path class="cls-2" d="M190.69,304.54a.86.86,0,0,0-.4-.21c-.39,0-.27.28-.27.52a.32.32,0,0,0-.1.61.73.73,0,0,0,.56,0,3.47,3.47,0,0,1,1.06-.14.06.06,0,0,0,0-.11,2.58,2.58,0,0,1-.53-.32C190.92,304.78,190.82,304.64,190.69,304.54Z"/><path class="cls-2" d="M189.25,305.49a.91.91,0,0,0-.42-.17c-.39,0-.24.31-.22.54a.32.32,0,0,0,0,.62.77.77,0,0,0,.57-.07,3.31,3.31,0,0,1,1-.25c.08,0,.09-.09,0-.11a2.69,2.69,0,0,1-.57-.26C189.51,305.7,189.39,305.57,189.25,305.49Z"/><path class="cls-2" d="M197.41,300.48a.82.82,0,0,0,0,.44c.13.35.38.1.6,0a.34.34,0,0,0,.61-.21c0-.18-.13-.36-.24-.48a3,3,0,0,1-.57-.84c0-.07-.11-.05-.12,0a2.54,2.54,0,0,1-.07.61A3.75,3.75,0,0,0,197.41,300.48Z"/><path class="cls-2" d="M195.75,299a.81.81,0,0,0,0,.44c.19.33.39,0,.59-.1a.35.35,0,0,0,.58-.3c0-.18-.19-.33-.32-.43a3.11,3.11,0,0,1-.71-.74.06.06,0,0,0-.11,0,3.08,3.08,0,0,1,0,.61A4.1,4.1,0,0,0,195.75,299Z"/><path class="cls-2" d="M189.62,316.42a.17.17,0,0,1-.12-.05.21.21,0,0,1-.05-.13.24.24,0,0,1,.07-.13.2.2,0,0,1,.26,0,.16.16,0,0,1,0,.13.18.18,0,0,1-.06.13A.23.23,0,0,1,189.62,316.42Z"/><path class="cls-2" d="M189.24,315.83h0a.18.18,0,0,1,.07-.24h0a.18.18,0,0,1,.26.06h0a.17.17,0,0,1-.07.24h0a.23.23,0,0,1-.11,0h0A.21.21,0,0,1,189.24,315.83Zm-.31-.43h0a.18.18,0,0,1,0-.25h0a.18.18,0,0,1,.26,0h0a.17.17,0,0,1,0,.25h0a.18.18,0,0,1-.13,0h0A.19.19,0,0,1,188.93,315.4Zm-.38-.37h0a.18.18,0,0,1,0-.25h0a.19.19,0,0,1,.26,0h0a.18.18,0,0,1,0,.25h0a.2.2,0,0,1-.16.07h0A.25.25,0,0,1,188.55,315Zm-.44-.3a.17.17,0,0,1-.07-.24h0a.2.2,0,0,1,.26-.07h0a.17.17,0,0,1,.07.24h0a.19.19,0,0,1-.18.09h0A.12.12,0,0,1,188.11,314.73Zm-1.77-.23a.17.17,0,0,1,.12-.22h0a.17.17,0,0,1,.23.11h0a.17.17,0,0,1-.12.22h-.07A.17.17,0,0,1,186.34,314.5Zm1.28.05a.17.17,0,0,1-.13-.21h0a.19.19,0,0,1,.22-.14h0a.19.19,0,0,1,.14.22h0a.22.22,0,0,1-.2.14h0Zm-.72-.21a.19.19,0,0,1,.18-.19h0a.17.17,0,0,1,.19.17h0a.18.18,0,0,1-.18.19h0A.18.18,0,0,1,186.9,314.34Z"/><path class="cls-2" d="M186,314.87a.2.2,0,0,1-.12-.06.19.19,0,0,1-.05-.13.21.21,0,0,1,.07-.12.19.19,0,0,1,.26,0,.14.14,0,0,1,0,.12.16.16,0,0,1-.06.13A.24.24,0,0,1,186,314.87Z"/><path class="cls-2" d="M197.71,299a.19.19,0,0,1-.13-.05.21.21,0,0,1-.05-.13.24.24,0,0,1,.07-.13.2.2,0,0,1,.26,0,.16.16,0,0,1,0,.13.18.18,0,0,1-.06.13A.22.22,0,0,1,197.71,299Z"/><path class="cls-2" d="M197.42,298.29h0a.17.17,0,0,1,.14-.21h0a.17.17,0,0,1,.22.13h0a.18.18,0,0,1-.14.21h0A.19.19,0,0,1,197.42,298.29Zm-.13-.57a.19.19,0,0,1,.14-.22h0a.19.19,0,0,1,.22.13h0a.18.18,0,0,1-.14.22h0A.17.17,0,0,1,197.29,297.72Zm-.14-.57a.19.19,0,0,1,.14-.22h0a.18.18,0,0,1,.22.13h0a.18.18,0,0,1-.13.22h-.06A.17.17,0,0,1,197.15,297.15Zm-.16-.56a.2.2,0,0,1,.13-.22h0a.18.18,0,0,1,.23.12h0a.18.18,0,0,1-.13.22h-.06A.21.21,0,0,1,197,296.59Zm-.17-.55a.19.19,0,0,1,.12-.23h0a.18.18,0,0,1,.23.11h0a.19.19,0,0,1-.12.23H197A.17.17,0,0,1,196.82,296Zm-.2-.54a.17.17,0,0,1,.1-.23h0a.18.18,0,0,1,.24.09h0a.18.18,0,0,1-.1.23h0a.13.13,0,0,1-.08,0h0A.16.16,0,0,1,196.62,295.5Z"/><path class="cls-2" d="M196.51,295.09a.16.16,0,0,1-.13-.06.15.15,0,0,1,0-.13.16.16,0,0,1,.06-.12.19.19,0,0,1,.26,0,.19.19,0,0,1,.05.13.21.21,0,0,1-.07.12A.19.19,0,0,1,196.51,295.09Z"/><path class="cls-2" d="M195.65,297.56a.16.16,0,0,1-.13-.06.18.18,0,0,1-.05-.12.21.21,0,0,1,.07-.13.2.2,0,0,1,.26,0,.16.16,0,0,1,0,.13.14.14,0,0,1-.06.12A.18.18,0,0,1,195.65,297.56Z"/><path class="cls-2" d="M195.3,296.94a.18.18,0,0,1,.11-.24h0a.18.18,0,0,1,.23.1h0a.18.18,0,0,1-.11.24h-.07A.18.18,0,0,1,195.3,296.94Zm-.21-.51a.18.18,0,0,1,.11-.23h0a.18.18,0,0,1,.24.09h0a.17.17,0,0,1-.11.23h0a.11.11,0,0,1-.08,0h0A.18.18,0,0,1,195.09,296.43Zm-.21-.5a.17.17,0,0,1,.1-.23h0a.17.17,0,0,1,.24.08h0a.18.18,0,0,1-.1.24h0l-.08,0h0A.19.19,0,0,1,194.88,295.93Zm-.23-.49a.17.17,0,0,1,.09-.24h0a.18.18,0,0,1,.24.08h0a.17.17,0,0,1-.09.24h0a.13.13,0,0,1-.09,0h0A.18.18,0,0,1,194.65,295.44Zm-.25-.47h0a.18.18,0,0,1,.07-.25h0a.19.19,0,0,1,.25.07h0a.17.17,0,0,1-.07.24h0a.19.19,0,0,1-.1,0h0A.17.17,0,0,1,194.4,295Z"/><path class="cls-2" d="M194.26,294.59a.19.19,0,0,1-.13,0,.21.21,0,0,1,0-.13.24.24,0,0,1,.07-.13.2.2,0,0,1,.26,0,.16.16,0,0,1,0,.13.18.18,0,0,1-.06.13A.22.22,0,0,1,194.26,294.59Z"/><path class="cls-2" d="M193.23,301.05a.19.19,0,0,1-.13-.05.21.21,0,0,1,0-.13.24.24,0,0,1,.07-.13.2.2,0,0,1,.26,0,.16.16,0,0,1,0,.13.18.18,0,0,1-.06.13A.22.22,0,0,1,193.23,301.05Z"/><path class="cls-2" d="M189.38,302.47a.18.18,0,0,1,.17-.19h0a.18.18,0,0,1,.2.16h0a.18.18,0,0,1-.17.19h0A.17.17,0,0,1,189.38,302.47Zm.19-.41a.17.17,0,0,1-.12-.22h0a.2.2,0,0,1,.23-.13h0a.17.17,0,0,1,.12.22h0a.18.18,0,0,1-.19.13h0Zm.22-.54a.18.18,0,0,1,0-.25h0a.19.19,0,0,1,.27,0h0a.18.18,0,0,1,0,.25h0a.19.19,0,0,1-.16.06h0A.19.19,0,0,1,189.79,301.52Zm.41-.43a.17.17,0,0,1,.07-.24h0a.2.2,0,0,1,.26,0h0a.18.18,0,0,1-.07.25h0a.23.23,0,0,1-.11,0h0A.18.18,0,0,1,190.2,301.09Zm.54-.27a.18.18,0,0,1,.12-.23h0a.18.18,0,0,1,.23.12h0a.18.18,0,0,1-.13.22h-.06A.17.17,0,0,1,190.74,300.82Zm1.9,0h0a.18.18,0,0,1-.13-.22h0a.19.19,0,0,1,.22-.13h0a.16.16,0,0,1,.13.21h0a.18.18,0,0,1-.19.14h0Zm-1.32-.2a.18.18,0,0,1,.16-.2h0a.18.18,0,0,1,.21.15h0a.2.2,0,0,1-.17.2h0A.17.17,0,0,1,191.32,300.66Zm.59-.06a.2.2,0,0,1,.2-.17h0a.18.18,0,0,1,.17.19h0a.19.19,0,0,1-.2.17h0A.17.17,0,0,1,191.91,300.6Z"/><path class="cls-2" d="M189.67,303.2a.26.26,0,0,1-.13-.06.21.21,0,0,1,0-.13.19.19,0,0,1,.07-.12.19.19,0,0,1,.26,0,.14.14,0,0,1,0,.12.16.16,0,0,1-.06.13A.24.24,0,0,1,189.67,303.2Z"/><path class="cls-2" d="M190.24,304a1.22,1.22,0,0,1-.77-.28,1.61,1.61,0,0,1-.56-1.34,2.29,2.29,0,0,1,.64-1.41,3.21,3.21,0,0,1,2.73-.88,5.46,5.46,0,0,1,4,3.31.06.06,0,0,1-.11,0,5.33,5.33,0,0,0-3.94-3.24,3.08,3.08,0,0,0-2.62.84,2.18,2.18,0,0,0-.61,1.33,1.51,1.51,0,0,0,.53,1.25,1.12,1.12,0,0,0,.79.25,1.1,1.1,0,0,0,.77-.31.47.47,0,0,0,.13-.34.45.45,0,0,0-.16-.32.18.18,0,0,0-.16-.05.26.26,0,0,0-.16.07.05.05,0,0,1-.08,0,.06.06,0,0,1,0-.09.37.37,0,0,1,.5,0,.53.53,0,0,1,.19.4.58.58,0,0,1-.16.43,1.25,1.25,0,0,1-.86.35Z"/><path class="cls-2" d="M190,304.85h0a2.24,2.24,0,0,1-2-2.22,3.06,3.06,0,0,1,2-3.29,4.79,4.79,0,0,1,3.71.25,5,5,0,0,1,2.62,3.23.06.06,0,0,1,0,.07.07.07,0,0,1-.08,0,4.86,4.86,0,0,0-2.56-3.15,4.63,4.63,0,0,0-3.61-.25,2.92,2.92,0,0,0-1.95,3.16,2.14,2.14,0,0,0,1.91,2.13.06.06,0,0,1,.06.06S190,304.86,190,304.85Z"/><path class="cls-2" d="M188.67,306h0c-1.64-.48-2-1.82-2.08-3.2a4.13,4.13,0,0,1,2.61-4.19,5.57,5.57,0,0,1,4.36.32,5.23,5.23,0,0,1,2.76,3.48.07.07,0,0,1,0,.08s-.07,0-.08,0a5.11,5.11,0,0,0-2.71-3.41,5.47,5.47,0,0,0-4.25-.31,4,4,0,0,0-2.52,4.07c.12,1.54.51,2.66,2,3.09a.06.06,0,0,1,0,.08A.07.07,0,0,1,188.67,306Z"/><path class="cls-2" d="M187.36,307.3h0a5.26,5.26,0,0,1-2.09-3.54,5.76,5.76,0,0,1,1.55-4.56,4.71,4.71,0,0,1,4.19-1.63c2.25.23,4.25,1.66,4.7,2.58a.06.06,0,0,1,0,.08.07.07,0,0,1-.09,0c-.43-.91-2.39-2.3-4.6-2.52a4.56,4.56,0,0,0-4.08,1.59,5.67,5.67,0,0,0-1.52,4.46,5.15,5.15,0,0,0,2,3.46.07.07,0,0,1,0,.09S187.39,307.3,187.36,307.3Z"/><path class="cls-2" d="M190,297.48c.05,0,.05-.05,0-.08-.43-.75-1.77-2.19-2.33-1C187.26,297.25,189.11,297.5,190,297.48Zm-1.83-1c.21-.35,1.06-.05,1.5.67-.2-.15-.81-.78-1-.43s.71.52.94.57C188.79,297.34,187.93,296.86,188.14,296.5Z"/><path class="cls-2" d="M187.84,298.14s0-.06,0-.08c-.77-.42-2.72-1-2.58.3C185.35,299.29,187.1,298.59,187.84,298.14Zm-2.12.09c0-.41.9-.57,1.67-.18-.25,0-1.13-.26-1.12.14s.9.08,1.12,0C186.74,298.61,185.73,298.63,185.72,298.23Z"/><path class="cls-2" d="M186.3,299.56s0-.06-.06-.06c-.9.05-2.89.58-2.07,1.56C184.77,301.78,185.91,300.31,186.3,299.56Zm-1.79,1.15c-.23-.33.47-.93,1.35-1-.24.1-1.12.36-.89.69s.82-.39,1-.56C185.6,300.51,184.74,301,184.51,300.71Z"/><path class="cls-2" d="M185.2,301.87s0,0-.09,0c-.82.39-2.44,1.64-1.28,2.21C184.69,304.47,185.14,302.7,185.2,301.87ZM184,303.6c-.35-.21.05-1,.84-1.42-.17.19-.89.76-.54,1s.6-.67.68-.88C184.94,303,184.35,303.81,184,303.6Z"/><path class="cls-2" d="M185.15,304.05s-.06,0-.09,0c-.68.6-1.86,2.24-.56,2.44C185.46,306.65,185.34,304.85,185.15,304.05Zm-.63,2c-.4-.1-.26-1,.38-1.58-.11.22-.63,1-.23,1.07s.38-.81.39-1C185.24,305.19,184.93,306.12,184.52,306Z"/><path class="cls-2" d="M185.93,306s-.06,0-.08,0c-.44.78-1,2.68.31,2.46C187.12,308.29,186.4,306.65,185.93,306Zm.09,2c-.42,0-.59-.83-.19-1.59,0,.24-.27,1.1.15,1.07s.08-.87,0-1.08C186.41,307,186.44,308,186,308Z"/><path class="cls-2" d="M187,306.91s0,0,0,.08c.28.81,1.32,2.47,2.09,1.4C189.59,307.6,187.83,307,187,306.91Zm1.61,1.28c-.28.32-1.05-.13-1.34-.92.16.18.65.92.91.6s-.6-.63-.8-.72C188.11,307.25,188.86,307.88,188.59,308.19Z"/><path class="cls-2" d="M185.19,316.94a.78.78,0,0,0-.09-.43c-.22-.31-.4,0-.58.16a.34.34,0,0,0-.53.36c0,.18.22.31.37.4a2.75,2.75,0,0,1,.79.65.06.06,0,0,0,.11-.06,2.35,2.35,0,0,1-.1-.59C185.16,317.27,185.2,317.1,185.19,316.94Z"/><path class="cls-2" d="M183.53,316.57a.9.9,0,0,0-.13-.42c-.26-.28-.4.05-.56.22a.34.34,0,0,0-.5.41c0,.18.26.29.41.36a3,3,0,0,1,.87.57c0,.05.12,0,.1-.07a2.77,2.77,0,0,1-.17-.58A4,4,0,0,0,183.53,316.57Z"/><path class="cls-2" d="M189.68,320.16h0a0,0,0,0,1,0-.07c.85-1.95.84-3.8,0-5.08a2.83,2.83,0,0,0-2.33-1.28,2.36,2.36,0,0,0-1.43.5,1.64,1.64,0,0,0-.63,1.24,1.14,1.14,0,0,0,.32.74,1,1,0,0,0,.74.33.49.49,0,0,0,.49-.47.21.21,0,0,0-.22-.22.05.05,0,0,1-.06-.06.06.06,0,0,1,.06-.06.34.34,0,0,1,.35.33.63.63,0,0,1-.63.6,1.19,1.19,0,0,1-.82-.37,1.15,1.15,0,0,1-.35-.82,1.73,1.73,0,0,1,.68-1.33,2.44,2.44,0,0,1,1.5-.53,2.94,2.94,0,0,1,2.43,1.34c.9,1.3.92,3.19.05,5.18A.07.07,0,0,1,189.68,320.16Z"/><path class="cls-2" d="M190.12,319.81h0a.05.05,0,0,1,0-.08,5.06,5.06,0,0,0,.78-4,4.18,4.18,0,0,0-2.14-2.75,3.07,3.07,0,0,0-3.7.81,2.16,2.16,0,0,0-.4,2.85.07.07,0,0,1,0,.08.06.06,0,0,1-.09,0,2.28,2.28,0,0,1,.42-3,3.18,3.18,0,0,1,3.85-.83,4.28,4.28,0,0,1,2.2,2.82,5.2,5.2,0,0,1-.8,4.12A.07.07,0,0,1,190.12,319.81Z"/><path class="cls-2" d="M190.43,319.47h0a.07.07,0,0,1,0-.09,5.27,5.27,0,0,0,.89-4.31,4.93,4.93,0,0,0-2.51-3.25,4.22,4.22,0,0,0-4.77,1c-1.11,1.16-1.72,2.22-1.09,3.58a.06.06,0,0,1,0,.07.05.05,0,0,1-.08,0c-.69-1.51.13-2.67,1.12-3.71a4.34,4.34,0,0,1,4.92-1.06,5,5,0,0,1,2.57,3.32,5.43,5.43,0,0,1-.91,4.41A.05.05,0,0,1,190.43,319.47Z"/><path class="cls-2" d="M183.45,337.67a4,4,0,0,0-.83-1.23,1.84,1.84,0,0,1,0,.25,3.53,3.53,0,0,1,.67,1,6.25,6.25,0,0,1,.55,2.53,1.31,1.31,0,0,1,.12.27A6.22,6.22,0,0,0,183.45,337.67Z"/><path class="cls-2" d="M181.94,334.48a1.42,1.42,0,0,1,.08.18c.47-.18.9-.15,1,.11s-.32.44-.79.5a.68.68,0,0,1,0,.14v.06c.7,0,1.34-.16,1.26-.71C183.36,334,182.63,334.11,181.94,334.48Z"/><path class="cls-2" d="M185.2,337.2c.53-1.18-1.52-1.09-2.39-.86-.05,0-.08,0-.05.08C183.34,337,184.81,338.08,185.2,337.2Zm-2-.62c.19.11,1,.59,1.09.23s-.79-.36-1-.39c.86-.2,1.69.16,1.55.55S183.68,337.11,183.18,336.58Z"/><path class="cls-2" d="M185.4,340.05c1.09-.76-.66-1.72-1.51-2,0,0-.09,0-.08,0C184,338.94,184.59,340.61,185.4,340.05Zm-1.34-1.57c.1.19.47,1,.78.75s-.46-.71-.65-.86c.83.26,1.31,1,1,1.27S184.19,339.2,184.06,338.48Z"/><path class="cls-2" d="M184.2,341.3a2.51,2.51,0,0,1,0-.27c0,.08,0,.25,0,.42s.19.4.28.59h.08c.4-.12-.12-.83-.23-1,.64.56.78,1.43.37,1.56h0c.06.14.12.28.17.42,1.05-.37-.05-1.83-.69-2.36,0,0-.08,0-.09,0a2.9,2.9,0,0,0-.07.34C184.12,341.07,184.16,341.18,184.2,341.3Z"/><path class="cls-2" d="M184.31,325a2,2,0,0,0-1.89.48,1.51,1.51,0,0,0-.46,1.62.93.93,0,0,0,.25.38,1.76,1.76,0,0,0,1.89.28,1.78,1.78,0,0,0,1.13-1.39A1.34,1.34,0,0,0,184.31,325Zm-.19,2.62a1.67,1.67,0,0,1-1.09.11l.29,0c.54-.11,1.19-.48,1.23-1.09a.86.86,0,0,0-1-.94c-.62,0-1.12.72-.86,1.23a.53.53,0,0,0,.67.26c.31-.1.34-.44.17-.52s-.11,0-.07.1-.69.3-.66-.15a.85.85,0,0,1,.44-.67.77.77,0,0,1,1,1,1.57,1.57,0,0,1-1.61.64l-.15-.05-.21-.13a1.21,1.21,0,0,1-.21-1.29c.5-1.31,2.77-1.5,3,0A1.56,1.56,0,0,1,184.12,327.57Z"/><path class="cls-2" d="M186.77,326.8a.69.69,0,0,0-.45-.66.67.67,0,0,0,.42-.61.55.55,0,0,0-.47-.52.53.53,0,0,0,0-.66.6.6,0,0,0-.68-.11.58.58,0,0,0-.19-.58.64.64,0,0,0-.86,0,.5.5,0,0,0-.44-.49c-.16,0-.5.06-.57.23a.56.56,0,0,0-.41-.12.51.51,0,0,0-.4.32c-.28-.25-.93,0-.84.38a.41.41,0,0,0-.26-.07.65.65,0,0,0-.53.75.51.51,0,0,0-.45.23.59.59,0,0,0,0,.76.52.52,0,0,0-.48.48.47.47,0,0,0,.16.37,1.74,1.74,0,0,0,.2.13l-.07.05a.54.54,0,0,0-.24.37c-.05.3.37.53.64.54a.47.47,0,0,0,0,.61.8.8,0,0,0,.78.13.51.51,0,0,0,.15.55c.32.29.71,0,.93-.3a.64.64,0,0,0,0,.36.61.61,0,0,0,.35.32c.33.12.58-.2.66-.47a1.39,1.39,0,0,0,.21.21.62.62,0,0,0,.55.07.89.89,0,0,0,.51-1s0,0,0,0c.28.19.7.34,1,0a.64.64,0,0,0-.06-.93.74.74,0,0,0,.6,0A.42.42,0,0,0,186.77,326.8Zm-.16-1.29c.06.31-.26.49-.5.62a.56.56,0,0,0-.2-.14.65.65,0,0,0,.26-.3.4.4,0,0,0-.08-.46l.1-.11A.43.43,0,0,1,186.61,325.51Zm-.44-1.08c.23.21,0,.55-.17.72a.67.67,0,0,0-.31-.1.57.57,0,0,0,0-.34.33.33,0,0,0-.18-.24A.45.45,0,0,1,186.17,324.43Zm-1.64-.57h0a.57.57,0,0,1,.76-.13.52.52,0,0,1,.08.71h0a1.25,1.25,0,0,0-.54.19.52.52,0,0,0-.08-.51.4.4,0,0,0-.23-.12C184.52,324,184.53,323.9,184.53,323.86Zm-.44-.53c.33.06.36.41.3.67a.74.74,0,0,0-.4.25.33.33,0,0,0-.29-.26,1,1,0,0,0-.09-.43C183.66,323.35,184,323.31,184.09,323.33Zm-.93.1c.33,0,.41.31.41.56h0a.4.4,0,0,0-.28.31.49.49,0,0,0-.44-.21A.45.45,0,0,1,183.16,323.43Zm-1.13.64c-.21-.32.48-.57.64-.29h0a.51.51,0,0,0,0,.32h0a.69.69,0,0,0-.21.15.59.59,0,0,0-.16.34A3.88,3.88,0,0,0,182,324.07Zm-.26,0a1.09,1.09,0,0,1,.46.53.46.46,0,0,0-.4,0,.51.51,0,0,0-.25.23,1.26,1.26,0,0,0-.38-.15v0C181.18,324.4,181.38,323.93,181.77,324.11Zm-1,.88c.18-.3.6-.17.82,0a.66.66,0,0,0,.08.39,1,1,0,0,0-.52.07.44.44,0,0,0-.22.26l-.11-.06A.49.49,0,0,1,180.73,325Zm-.26,1.48a.38.38,0,0,1-.16-.23c-.06-.32.29-.48.56-.43a.45.45,0,0,0,.33.41.59.59,0,0,0-.26.3.14.14,0,0,0,0,.06A.72.72,0,0,1,180.47,326.47Zm-.11.69c0-.12.07-.24.16-.32a.54.54,0,0,1,.37-.14.44.44,0,0,0,.07.3.42.42,0,0,0,.33.19.35.35,0,0,0-.1.21h0l-.24.12C180.74,327.6,180.41,327.36,180.36,327.16Zm1.31,1.08c-.15.12-.49,0-.61,0-.29-.17-.13-.57.14-.69a.71.71,0,0,0,.17.36.39.39,0,0,0,.41.1.46.46,0,0,0,.14-.07A1.12,1.12,0,0,1,181.67,328.24Zm.18.51c-.19-.27,0-.59.2-.84a.63.63,0,0,0,.27.6.36.36,0,0,0,.34.05C182.46,328.82,182.09,329.09,181.85,328.75Zm1.23.38c-.28-.18-.19-.49-.16-.75v0a1.22,1.22,0,0,0,.17-.29c0,.33.14.7.52.71h.09C183.63,329.05,183.38,329.31,183.08,329.13Zm.49-.47c-.36,0-.37-.6-.35-.84,0-.05-.05-.07-.09-.05a.07.07,0,0,0-.07,0c-.09.3-.31.83-.71.57a.58.58,0,0,1,0-.85v0h0c0-.06-.05-.13-.1-.07a1.71,1.71,0,0,1-.25.22l-.2.17a.3.3,0,0,1-.35,0c-.13-.13-.24-.46,0-.56A3.3,3.3,0,0,0,182,327c.06,0,0-.14-.08-.09a.7.7,0,0,1-.76.13c-.14-.08-.13-.26-.09-.4a.52.52,0,0,1,.27-.31l0,0a1.61,1.61,0,0,0,.61.05c.07,0,.05-.13,0-.12a1,1,0,0,1-.88-.27c-.12-.19.06-.39.25-.44a1.19,1.19,0,0,1,.42,0h0a.88.88,0,0,0,.44.29.06.06,0,0,0,0-.12.73.73,0,0,1-.52-.49.4.4,0,0,1,.08-.36c.17-.17.39,0,.62,0a1.51,1.51,0,0,0,.22.44c0,.06.16,0,.11-.06a.73.73,0,0,1-.2-.7.49.49,0,0,1,.24-.29c.14-.06.31,0,.5.21a.64.64,0,0,0,.11.51c0,.05.15,0,.09-.08s-.06-.22-.07-.33a.41.41,0,0,1,.17-.42.23.23,0,0,1,.29.08.53.53,0,0,1,0,.18,1.41,1.41,0,0,1,0,.5c0,.07.1.11.12,0a1.65,1.65,0,0,0,0-.51h0c.17-.28.62-.46.7,0,.05.26-.12.46-.21.7,0,.07.09.11.11,0,.12-.41.87-.75,1-.3s-.27.61-.56.73c-.08,0,0,.13.05.1a1.05,1.05,0,0,0,.57-.48c.32,0,.53.25.37.56s-.53.29-.82.27c-.08,0-.09.12,0,.12a1.76,1.76,0,0,0,.57-.05h0a.38.38,0,0,1,.21.64c-.24.21-.6-.06-.83-.15-.07,0-.11.09,0,.12l.62.25c.1,0,.06.22.05.28a.4.4,0,0,1-.27.28c-.28.09-.54-.19-.7-.36a.07.07,0,0,0-.11.05.06.06,0,0,0,0,.06c.12.29.39.75.11,1s-.59-.26-.66-.53a.2.2,0,0,1,0-.07v0h0c0-.08-.13-.05-.12,0a.52.52,0,0,0,0,.11C184.08,328.13,184,328.67,183.57,328.66Zm1.17.21a.56.56,0,0,1-.37.15.46.46,0,0,1-.28-.08c-.05,0-.19-.16-.2-.23a0,0,0,0,0,0,0,1,1,0,0,0,.26-.58.55.55,0,0,0,.62.35.38.38,0,0,0,.2-.15A1,1,0,0,1,184.74,328.87ZM186,328c-.23.31-.65.1-.87-.07l0,0a1.19,1.19,0,0,0-.15-.55c.24.2.55.35.84.1a.47.47,0,0,0,.13-.21A.54.54,0,0,1,186,328Zm.57-1c-.15.14-.43,0-.59,0a.29.29,0,0,0,0-.17.41.41,0,0,0,.25-.17.46.46,0,0,0,0-.48c.27,0,.42.26.45.49A.37.37,0,0,1,186.54,327.07Z"/><path class="cls-2" d="M184,321.28c-.31,0-.51.37-.62.6a2.19,2.19,0,0,0-.07,1.47c0,.07.16.12.14,0a2.64,2.64,0,0,1-.07-1.12.64.64,0,0,1,.6-.55.51.51,0,0,1,.51.52,4.74,4.74,0,0,1-.21,1.06c0,.08.1.09.12,0C184.47,322.85,184.93,321.26,184,321.28Z"/><path class="cls-2" d="M180.47,322.25c-.26.18-.21.58-.16.83a2.18,2.18,0,0,0,.82,1.2c.06.05.15,0,.09-.08a2.39,2.39,0,0,1-.67-.81.59.59,0,0,1,.17-.77.54.54,0,0,1,.74.13,6.32,6.32,0,0,1,.5,1c0,.07.1,0,.07-.11C181.85,323.21,181.27,321.68,180.47,322.25Z"/><path class="cls-2" d="M179.15,323.55c-.18.25,0,.6.15.82a2.32,2.32,0,0,0,1.21.84c.08,0,.13-.09.06-.11a2.41,2.41,0,0,1-.92-.53.55.55,0,0,1,.63-.89,6.2,6.2,0,0,1,.83.79c.06,0,.09-.09,0-.15C180.81,324,179.71,322.75,179.15,323.55Z"/><path class="cls-2" d="M180.22,326.15a2.74,2.74,0,0,1-1.07-.12.58.58,0,0,1-.23-.13,1.8,1.8,0,0,0,.05.19,2.65,2.65,0,0,0,1.25.18C180.3,326.26,180.3,326.14,180.22,326.15Z"/><path class="cls-2" d="M180.53,325.27l-.09,0c-.35-.14-1.31-.57-1.84-.35.05.15.1.29.14.44a.57.57,0,0,1,.63-.34,5.18,5.18,0,0,1,1,.34l.12.06.09,0S180.56,325.28,180.53,325.27Z"/><path class="cls-2" d="M180.2,326.34a5.65,5.65,0,0,0-1.16,0l0,.11h0a7,7,0,0,1,1.21,0C180.39,326.48,180.28,326.34,180.2,326.34Z"/><path class="cls-2" d="M181,328.23a2.94,2.94,0,0,1-.89.63l-.25.06.06.12a2.58,2.58,0,0,0,1.16-.73C181.14,328.25,181.06,328.17,181,328.23Z"/><path class="cls-2" d="M181.88,328.91a2.57,2.57,0,0,1-.61.89.65.65,0,0,1-.81.11.5.5,0,0,1-.07-.73,6.52,6.52,0,0,1,.82-.75c.06-.05,0-.12-.09-.07a4.78,4.78,0,0,0-1.05,1.06c.09.24.16.48.24.71,0,.07.05.14.07.2a1.31,1.31,0,0,0,.65-.2,2.44,2.44,0,0,0,1-1.17C182,328.89,181.91,328.84,181.88,328.91Z"/><path class="cls-2" d="M181.94,331.08c.3.06.59-.24.75-.45a2.36,2.36,0,0,0,.44-1.42c0-.07-.13-.08-.13,0a2.33,2.33,0,0,1-.22,1,.64.64,0,0,1-.71.4.5.5,0,0,1-.36-.63,6.39,6.39,0,0,1,.47-1c0-.07-.08-.1-.12,0C181.83,329.42,181,330.87,181.94,331.08Z"/><path class="cls-2" d="M183.77,331.26c.31,0,.48-.42.56-.66a2.15,2.15,0,0,0-.07-1.46c0-.07-.16-.14-.13-.06a2.87,2.87,0,0,1,.16,1.13.63.63,0,0,1-.54.6.53.53,0,0,1-.57-.48,6.35,6.35,0,0,1,.11-1.06c0-.08-.11-.08-.12,0C183.1,329.75,182.79,331.37,183.77,331.26Z"/><path class="cls-2" d="M185.59,330.76c.29-.14.3-.54.3-.8a2.45,2.45,0,0,0-.79-1.46c0-.06-.16,0-.1.07a3.5,3.5,0,0,1,.71,1,.61.61,0,0,1-.3.74.55.55,0,0,1-.71-.25,6,6,0,0,1-.28-1c0-.07-.13,0-.12.05C184.41,329.58,184.7,331.19,185.59,330.76Z"/><path class="cls-2" d="M185.83,321.67c-.29-.1-.61.17-.8.35a2.53,2.53,0,0,0-.62,1.44c0,.07.08.23.09.15a3.57,3.57,0,0,1,.39-1.21.64.64,0,0,1,.75-.31.5.5,0,0,1,.28.67,6.14,6.14,0,0,1-.6.93c0,.06.07.11.11.05C185.72,323.34,186.74,322,185.83,321.67Z"/><path class="cls-2" d="M187.44,322.62c-.23-.2-.63-.05-.87.06a2.46,2.46,0,0,0-1.06,1.08c0,.07,0,.26,0,.19a3.33,3.33,0,0,1,.75-1,.64.64,0,0,1,.81,0,.51.51,0,0,1,0,.73,5.89,5.89,0,0,1-.88.68c-.07.05,0,.13.08.09C186.73,324.16,188.17,323.23,187.44,322.62Z"/><path class="cls-2" d="M188.59,324.32c-.1-.28-.52-.33-.78-.34a2.54,2.54,0,0,0-1.46.47c-.06,0-.07.21,0,.17a2.89,2.89,0,0,1,1.07-.49.6.6,0,0,1,.72.34.53.53,0,0,1-.36.65,5.91,5.91,0,0,1-1.1.2c-.08,0-.05.13,0,.12C187.2,325.37,188.91,325.2,188.59,324.32Z"/><path class="cls-2" d="M188.82,325.94c0,.3-.38.5-.63.6a2.47,2.47,0,0,1-1.52.08c-.07,0,0-.14,0-.12a2.67,2.67,0,0,0,1.09,0,.63.63,0,0,0,.57-.58.52.52,0,0,0-.55-.49,7.1,7.1,0,0,0-1.1.21c-.07,0-.08-.1,0-.12C187.18,325.45,188.84,325,188.82,325.94Z"/><path class="cls-2" d="M187.38,329.57c-.22.22-.62.12-.87,0a4.28,4.28,0,0,1-1.47-1.4c0-.07.06-.14.1-.08a5.41,5.41,0,0,0,1.09,1.2.64.64,0,0,0,.81-.05.51.51,0,0,0,0-.73,6.21,6.21,0,0,0-.92-.58c-.07,0,0-.13.07-.09C186.59,328.12,188.07,328.88,187.38,329.57Z"/><path class="cls-2" d="M188.49,327.94c-.14.27-.55.31-.82.31a2.87,2.87,0,0,1-1.54-.62c-.06,0,0-.15.07-.1a3.16,3.16,0,0,0,1.1.55.65.65,0,0,0,.76-.31.51.51,0,0,0-.28-.67,5.7,5.7,0,0,0-1.07-.24c-.08,0,0-.13,0-.11C187.23,326.83,188.91,327.07,188.49,327.94Z"/><path class="cls-2" d="M182.15,321.5c-.3.1-.39.5-.41.75a2.11,2.11,0,0,0,.4,1.4c0,.06.15,0,.11-.06a2.36,2.36,0,0,1-.38-1,.62.62,0,0,1,.4-.7.53.53,0,0,1,.66.34,5.39,5.39,0,0,1,.13,1.06c0,.08.13.05.12,0C183.15,322.83,183.08,321.19,182.15,321.5Z"/><path class="cls-2" d="M183,318.49c-.46.07-.69.63-.81,1a3.3,3.3,0,0,0,.15,2.15c0,.1.22.05.18-.05a3.43,3.43,0,0,1-.25-1.52.91.91,0,0,1,.78-.9.76.76,0,0,1,.85.68,7.66,7.66,0,0,1-.13,1.58c0,.11.17.1.19,0C184.07,320.71,184.46,318.3,183,318.49Z"/><path class="cls-2" d="M186,318.73c-.44-.1-.87.35-1.11.65a3.33,3.33,0,0,0-.66,2.09c0,.11.18.13.18,0a3.54,3.54,0,0,1,.34-1.52,1,1,0,0,1,1.05-.59.75.75,0,0,1,.53.94,7.79,7.79,0,0,1-.71,1.45c0,.1.12.16.17.06C186.12,321.18,187.38,319.05,186,318.73Z"/><path class="cls-2" d="M188.65,320c-.37-.25-.93,0-1.27.23a3.57,3.57,0,0,0-1.38,1.74c0,.11.12.19.16.08a3.91,3.91,0,0,1,.88-1.33,1,1,0,0,1,1.19-.19.75.75,0,0,1,.13,1.07,8.5,8.5,0,0,1-1.19,1.13c-.08.08.05.19.14.11C187.87,322.32,189.83,320.73,188.65,320Z"/><path class="cls-2" d="M190.65,322c-.25-.36-.87-.29-1.25-.22a3.7,3.7,0,0,0-1.93,1.18c-.08.09.05.21.12.13a3.93,3.93,0,0,1,1.3-.95.9.9,0,0,1,1.17.23.76.76,0,0,1-.27,1.05,8.52,8.52,0,0,1-1.52.66c-.11,0,0,.2.09.16C189.05,323.94,191.44,323.11,190.65,322Z"/><path class="cls-2" d="M191.77,324.75c-.07-.43-.66-.61-1-.69a3.76,3.76,0,0,0-2.23.34c-.1.05-.05.22.06.17a3.9,3.9,0,0,1,1.57-.38.88.88,0,0,1,1,.67.81.81,0,0,1-.69.87,9,9,0,0,1-1.64,0c-.12,0-.11.17,0,.17C189.5,326,192,326.12,191.77,324.75Z"/><path class="cls-2" d="M191.52,327.51c.07-.44-.42-.78-.76-1a3.53,3.53,0,0,0-2.2-.34c-.12,0-.12.19,0,.18a3.91,3.91,0,0,1,1.6.1.85.85,0,0,1,.68.93.83.83,0,0,1-.93.63,9.21,9.21,0,0,1-1.55-.46c-.11,0-.16.13-.05.17C189,328,191.3,328.9,191.52,327.51Z"/><path class="cls-2" d="M190.4,330.2c.23-.39-.1-.89-.33-1.18a3.46,3.46,0,0,0-1.91-1.08c-.11,0-.18.14-.07.17a3.62,3.62,0,0,1,1.44.65.81.81,0,0,1-.82,1.39,7.94,7.94,0,0,1-1.25-1c-.09-.07-.19.08-.11.15C187.89,329.78,189.68,331.43,190.4,330.2Z"/><path class="cls-2" d="M188.16,332.42c.37-.28.29-.87.21-1.23a3.25,3.25,0,0,0-1.25-1.75c-.09-.07-.22.06-.13.12a3.4,3.4,0,0,1,1,1.17.88.88,0,0,1-.22,1.15.82.82,0,0,1-1.1-.18,10.54,10.54,0,0,1-.81-1.61c-.05-.1-.1.2-.06.3C186.09,331,187,333.27,188.16,332.42Z"/><path class="cls-2" d="M185.6,333.68c.44-.15.55-.75.59-1.12a3.25,3.25,0,0,0-.63-2.06c-.06-.09-.23,0-.16.09A3.48,3.48,0,0,1,186,332a.92.92,0,0,1-.57,1,.78.78,0,0,1-1-.49,8.78,8.78,0,0,1-.21-1.69c0-.12-.21.06-.2.17C184.09,331.75,184.23,334.16,185.6,333.68Z"/><path class="cls-2" d="M182.47,334c.46,0,.82-.46,1-.79a3.3,3.3,0,0,0,.35-2.15c0-.11-.2-.1-.18,0a3.51,3.51,0,0,1-.11,1.54,1,1,0,0,1-1,.72.73.73,0,0,1-.66-.85,8.59,8.59,0,0,1,.52-1.63c0-.11-.18,0-.22.07C182,331.61,181,333.89,182.47,334Z"/><path class="cls-2" d="M181.17,332.46a3.53,3.53,0,0,0,.74-1.55c0-.11-.15-.16-.17-.05a3.75,3.75,0,0,1-.64,1.41A1.46,1.46,0,0,1,181.17,332.46Z"/><path class="cls-2" d="M179.17,323.81a11.75,11.75,0,0,0-1.19-.69l.06.21a12.05,12.05,0,0,1,1,.64C179.18,324,179.26,323.87,179.17,323.81Z"/><path class="cls-2" d="M180.38,322.41c-.43-.56-1.83-2.53-2.78-1.46a.6.6,0,0,0-.09.15l0,.08c.05.32.14.64.16,1h0a.43.43,0,0,0,0,.11,3.27,3.27,0,0,0,1.59,1.34c.1.05.2-.1.09-.15a3.67,3.67,0,0,1-1.26-.91.86.86,0,0,1,0-1.16.82.82,0,0,1,1.12-.06,8.66,8.66,0,0,1,1.1,1.32C180.39,322.74,180.44,322.5,180.38,322.41Z"/><path class="cls-2" d="M180.11,319.24c-.42.21-.45.81-.43,1.19a3.21,3.21,0,0,0,.92,1.94c.07.08.22,0,.15-.11a3.29,3.29,0,0,1-.78-1.32.89.89,0,0,1,.42-1.1.78.78,0,0,1,1,.36,7.19,7.19,0,0,1,.45,1.5c0,.11.2,0,.17-.06C181.89,321,181.41,318.59,180.11,319.24Z"/></svg>