<svg xmlns="http://www.w3.org/2000/svg" xmlns:xlink="http://www.w3.org/1999/xlink" viewBox="0 0 543.42 656.85"><defs><style>.cls-1{isolation:isolate;}.cls-2{fill:#2b3e51;}.cls-3{fill:url(#_ÂÁ_Ï_ÌÌ_È_ËÂÌÚ_3);}.cls-4{fill:url(#_ÂÁ_Ï_ÌÌ_È_ËÂÌÚ_5);}.cls-5{fill:#d3d3d3;}.cls-6{fill:url(#_ÂÁ_Ï_ÌÌ_È_ËÂÌÚ_3-2);}.cls-7{fill:url(#_ÂÁ_Ï_ÌÌ_È_ËÂÌÚ_3-3);}.cls-8{fill:#99999a;}.cls-12,.cls-17,.cls-23,.cls-24,.cls-33,.cls-34,.cls-35,.cls-36,.cls-37,.cls-38,.cls-40,.cls-43,.cls-44,.cls-49,.cls-9{mix-blend-mode:screen;}.cls-9{fill:url(#_ÂÁ_Ï_ÌÌ_È_ËÂÌÚ_40);}.cls-10{fill:url(#_ÂÁ_Ï_ÌÌ_È_ËÂÌÚ_4);}.cls-11{fill:#d7d7d7;}.cls-12{fill:url(#_ÂÁ_Ï_ÌÌ_È_ËÂÌÚ_40-2);}.cls-13{fill:url(#_ÂÁ_Ï_ÌÌ_È_ËÂÌÚ_4-2);}.cls-14{fill:url(#_ÂÁ_Ï_ÌÌ_È_ËÂÌÚ_4-3);}.cls-15{fill:url(#_ÂÁ_Ï_ÌÌ_È_ËÂÌÚ_2);}.cls-16{fill:url(#_ÂÁ_Ï_ÌÌ_È_ËÂÌÚ_2-2);}.cls-17{fill:url(#_ÂÁ_Ï_ÌÌ_È_ËÂÌÚ_40-3);}.cls-18{fill:url(#_ÂÁ_Ï_ÌÌ_È_ËÂÌÚ_2-3);}.cls-19{fill:url(#_ÂÁ_Ï_ÌÌ_È_ËÂÌÚ_4-4);}.cls-20{fill:url(#_ÂÁ_Ï_ÌÌ_È_ËÂÌÚ_2-4);}.cls-21{fill:#4c6e74;}.cls-22{fill:url(#_ÂÁ_Ï_ÌÌ_È_ËÂÌÚ_4-5);}.cls-23{fill:url(#_ÂÁ_Ï_ÌÌ_È_ËÂÌÚ_40-4);}.cls-24{fill:url(#_ÂÁ_Ï_ÌÌ_È_ËÂÌÚ_40-5);}.cls-25{fill:url(#_ÂÁ_Ï_ÌÌ_È_ËÂÌÚ_4-6);}.cls-26{fill:url(#_ÂÁ_Ï_ÌÌ_È_ËÂÌÚ_3-4);}.cls-27{fill:url(#_ÂÁ_Ï_ÌÌ_È_ËÂÌÚ_5-2);}.cls-28{fill:url(#_ÂÁ_Ï_ÌÌ_È_ËÂÌÚ_3-5);}.cls-29{fill:url(#_ÂÁ_Ï_ÌÌ_È_ËÂÌÚ_3-6);}.cls-30{fill:url(#_ÂÁ_Ï_ÌÌ_È_ËÂÌÚ_3-7);}.cls-31{fill:url(#_ÂÁ_Ï_ÌÌ_È_ËÂÌÚ_3-8);}.cls-32{fill:url(#_ÂÁ_Ï_ÌÌ_È_ËÂÌÚ_3-9);}.cls-33{fill:url(#_ÂÁ_Ï_ÌÌ_È_ËÂÌÚ_40-6);}.cls-34{fill:url(#_ÂÁ_Ï_ÌÌ_È_ËÂÌÚ_40-7);}.cls-35{fill:url(#_ÂÁ_Ï_ÌÌ_È_ËÂÌÚ_40-8);}.cls-36{fill:url(#_ÂÁ_Ï_ÌÌ_È_ËÂÌÚ_40-9);}.cls-37{fill:url(#_ÂÁ_Ï_ÌÌ_È_ËÂÌÚ_40-10);}.cls-38{fill:url(#_ÂÁ_Ï_ÌÌ_È_ËÂÌÚ_40-11);}.cls-39{fill:url(#_ÂÁ_Ï_ÌÌ_È_ËÂÌÚ_4-7);}.cls-40{fill:url(#_ÂÁ_Ï_ÌÌ_È_ËÂÌÚ_40-12);}.cls-41{fill:url(#_ÂÁ_Ï_ÌÌ_È_ËÂÌÚ_2-5);}.cls-42{fill:url(#_ÂÁ_Ï_ÌÌ_È_ËÂÌÚ_2-6);}.cls-43{fill:url(#_ÂÁ_Ï_ÌÌ_È_ËÂÌÚ_40-13);}.cls-44{fill:url(#_ÂÁ_Ï_ÌÌ_È_ËÂÌÚ_40-14);}.cls-45{fill:url(#_ÂÁ_Ï_ÌÌ_È_ËÂÌÚ_160);}.cls-46{fill:#fff;}.cls-47{fill:url(#_ÂÁ_Ï_ÌÌ_È_ËÂÌÚ_4-8);}.cls-48{fill:url(#_ÂÁ_Ï_ÌÌ_È_ËÂÌÚ_160-2);}.cls-49{fill:url(#_ÂÁ_Ï_ÌÌ_È_ËÂÌÚ_166);}</style><linearGradient id="_ÂÁ_Ï_ÌÌ_È_ËÂÌÚ_3" x1="368.8" y1="326.53" x2="339.1" y2="341.28" gradientUnits="userSpaceOnUse"><stop offset="0" stop-color="#fff"/><stop offset="0.84" stop-color="#e9e8e7"/></linearGradient><linearGradient id="_ÂÁ_Ï_ÌÌ_È_ËÂÌÚ_5" x1="365.13" y1="299.97" x2="353.73" y2="348.54" gradientUnits="userSpaceOnUse"><stop offset="0" stop-color="#fff"/><stop offset="0.48" stop-color="#eee"/><stop offset="1" stop-color="#d7d7d7"/></linearGradient><linearGradient id="_ÂÁ_Ï_ÌÌ_È_ËÂÌÚ_3-2" x1="361.24" y1="392.62" x2="321.59" y2="413.64" xlink:href="#_ÂÁ_Ï_ÌÌ_È_ËÂÌÚ_3"/><linearGradient id="_ÂÁ_Ï_ÌÌ_È_ËÂÌÚ_3-3" x1="370.79" y1="359.22" x2="296.64" y2="454.87" xlink:href="#_ÂÁ_Ï_ÌÌ_È_ËÂÌÚ_3"/><linearGradient id="_ÂÁ_Ï_ÌÌ_È_ËÂÌÚ_40" x1="358.82" y1="298.31" x2="357.14" y2="359.58" gradientUnits="userSpaceOnUse"><stop offset="0.17" stop-color="#beb48e"/><stop offset="0.26" stop-color="#b4ab87"/><stop offset="0.41" stop-color="#9a9273"/><stop offset="0.6" stop-color="#6f6953"/><stop offset="0.82" stop-color="#343127"/><stop offset="1" stop-color="#010101"/></linearGradient><linearGradient id="_ÂÁ_Ï_ÌÌ_È_ËÂÌÚ_4" x1="505.64" y1="-353.34" x2="515.28" y2="-300.8" gradientTransform="translate(-102.76 667.29) rotate(-10.74)" gradientUnits="userSpaceOnUse"><stop offset="0.04" stop-color="#fff"/><stop offset="0.3" stop-color="#fbfbfb"/><stop offset="0.55" stop-color="#efefef"/><stop offset="0.7" stop-color="#e5e5e4"/><stop offset="0.8" stop-color="#dfdfde"/><stop offset="1" stop-color="#d7d7d7"/></linearGradient><linearGradient id="_ÂÁ_Ï_ÌÌ_È_ËÂÌÚ_40-2" x1="507.68" y1="-353.73" x2="511.25" y2="-308.64" gradientTransform="translate(-102.76 667.29) rotate(-10.74)" xlink:href="#_ÂÁ_Ï_ÌÌ_È_ËÂÌÚ_40"/><linearGradient id="_ÂÁ_Ï_ÌÌ_È_ËÂÌÚ_4-2" x1="304.76" y1="233.69" x2="262.93" y2="304.85" gradientTransform="matrix(1, 0, 0, 1, 0, 0)" xlink:href="#_ÂÁ_Ï_ÌÌ_È_ËÂÌÚ_4"/><linearGradient id="_ÂÁ_Ï_ÌÌ_È_ËÂÌÚ_4-3" x1="273.13" y1="414.78" x2="225.44" y2="472.7" gradientTransform="matrix(1, 0, 0, 1, 0, 0)" xlink:href="#_ÂÁ_Ï_ÌÌ_È_ËÂÌÚ_4"/><linearGradient id="_ÂÁ_Ï_ÌÌ_È_ËÂÌÚ_2" x1="259.63" y1="453.87" x2="232.66" y2="496.17" gradientUnits="userSpaceOnUse"><stop offset="0" stop-color="#f3f3f3"/><stop offset="0.42" stop-color="#b6c6c6"/><stop offset="0.84" stop-color="#759696"/></linearGradient><linearGradient id="_ÂÁ_Ï_ÌÌ_È_ËÂÌÚ_2-2" x1="308.92" y1="295.28" x2="282.09" y2="330.77" xlink:href="#_ÂÁ_Ï_ÌÌ_È_ËÂÌÚ_2"/><linearGradient id="_ÂÁ_Ï_ÌÌ_È_ËÂÌÚ_40-3" x1="304.66" y1="288.9" x2="295.22" y2="335.08" xlink:href="#_ÂÁ_Ï_ÌÌ_È_ËÂÌÚ_40"/><linearGradient id="_ÂÁ_Ï_ÌÌ_È_ËÂÌÚ_2-3" x1="266.93" y1="379.71" x2="243.36" y2="416.61" xlink:href="#_ÂÁ_Ï_ÌÌ_È_ËÂÌÚ_2"/><linearGradient id="_ÂÁ_Ï_ÌÌ_È_ËÂÌÚ_4-4" x1="316.71" y1="401.75" x2="283.5" y2="467.04" gradientTransform="matrix(1, 0, 0, 1, 0, 0)" xlink:href="#_ÂÁ_Ï_ÌÌ_È_ËÂÌÚ_4"/><linearGradient id="_ÂÁ_Ï_ÌÌ_È_ËÂÌÚ_2-4" x1="303.29" y1="227.88" x2="284.37" y2="248.32" xlink:href="#_ÂÁ_Ï_ÌÌ_È_ËÂÌÚ_2"/><linearGradient id="_ÂÁ_Ï_ÌÌ_È_ËÂÌÚ_4-5" x1="290.84" y1="203.91" x2="264.91" y2="254.26" gradientTransform="matrix(1, 0, 0, 1, 0, 0)" xlink:href="#_ÂÁ_Ï_ÌÌ_È_ËÂÌÚ_4"/><linearGradient id="_ÂÁ_Ï_ÌÌ_È_ËÂÌÚ_40-4" x1="296.36" y1="201.66" x2="285.29" y2="223.24" xlink:href="#_ÂÁ_Ï_ÌÌ_È_ËÂÌÚ_40"/><linearGradient id="_ÂÁ_Ï_ÌÌ_È_ËÂÌÚ_40-5" x1="298.75" y1="224.02" x2="293" y2="250.82" xlink:href="#_ÂÁ_Ï_ÌÌ_È_ËÂÌÚ_40"/><linearGradient id="_ÂÁ_Ï_ÌÌ_È_ËÂÌÚ_4-6" x1="243.65" y1="226.52" x2="222.07" y2="277.81" gradientTransform="matrix(1, 0, 0, 1, 0, 0)" xlink:href="#_ÂÁ_Ï_ÌÌ_È_ËÂÌÚ_4"/><linearGradient id="_ÂÁ_Ï_ÌÌ_È_ËÂÌÚ_3-4" x1="226.69" y1="299.65" x2="190.63" y2="335.42" xlink:href="#_ÂÁ_Ï_ÌÌ_È_ËÂÌÚ_3"/><linearGradient id="_ÂÁ_Ï_ÌÌ_È_ËÂÌÚ_5-2" x1="203.09" y1="279.48" x2="192.01" y2="336.54" xlink:href="#_ÂÁ_Ï_ÌÌ_È_ËÂÌÚ_5"/><linearGradient id="_ÂÁ_Ï_ÌÌ_È_ËÂÌÚ_3-5" x1="192.6" y1="405.75" x2="200.76" y2="405.75" xlink:href="#_ÂÁ_Ï_ÌÌ_È_ËÂÌÚ_3"/><linearGradient id="_ÂÁ_Ï_ÌÌ_È_ËÂÌÚ_3-6" x1="205.51" y1="403.58" x2="216.76" y2="403.58" xlink:href="#_ÂÁ_Ï_ÌÌ_È_ËÂÌÚ_3"/><linearGradient id="_ÂÁ_Ï_ÌÌ_È_ËÂÌÚ_3-7" x1="234.2" y1="362.69" x2="215.46" y2="375.04" xlink:href="#_ÂÁ_Ï_ÌÌ_È_ËÂÌÚ_3"/><linearGradient id="_ÂÁ_Ï_ÌÌ_È_ËÂÌÚ_3-8" x1="245.38" y1="379.65" x2="226.64" y2="392" xlink:href="#_ÂÁ_Ï_ÌÌ_È_ËÂÌÚ_3"/><linearGradient id="_ÂÁ_Ï_ÌÌ_È_ËÂÌÚ_3-9" x1="216.56" y1="372.7" x2="190.15" y2="385.76" xlink:href="#_ÂÁ_Ï_ÌÌ_È_ËÂÌÚ_3"/><linearGradient id="_ÂÁ_Ï_ÌÌ_È_ËÂÌÚ_40-6" x1="224.91" y1="294.44" x2="216.25" y2="354.67" xlink:href="#_ÂÁ_Ï_ÌÌ_È_ËÂÌÚ_40"/><linearGradient id="_ÂÁ_Ï_ÌÌ_È_ËÂÌÚ_40-7" x1="229.06" y1="358.16" x2="223.67" y2="378.51" xlink:href="#_ÂÁ_Ï_ÌÌ_È_ËÂÌÚ_40"/><linearGradient id="_ÂÁ_Ï_ÌÌ_È_ËÂÌÚ_40-8" x1="239.6" y1="362.76" x2="232.88" y2="393.61" xlink:href="#_ÂÁ_Ï_ÌÌ_È_ËÂÌÚ_40"/><linearGradient id="_ÂÁ_Ï_ÌÌ_È_ËÂÌÚ_40-9" x1="243.76" y1="216.06" x2="234.83" y2="264.42" xlink:href="#_ÂÁ_Ï_ÌÌ_È_ËÂÌÚ_40"/><linearGradient id="_ÂÁ_Ï_ÌÌ_È_ËÂÌÚ_40-10" x1="302.28" y1="237.38" x2="288.46" y2="269.55" xlink:href="#_ÂÁ_Ï_ÌÌ_È_ËÂÌÚ_40"/><linearGradient id="_ÂÁ_Ï_ÌÌ_È_ËÂÌÚ_40-11" x1="329.13" y1="245.81" x2="299.03" y2="291.8" xlink:href="#_ÂÁ_Ï_ÌÌ_È_ËÂÌÚ_40"/><linearGradient id="_ÂÁ_Ï_ÌÌ_È_ËÂÌÚ_4-7" x1="308.36" y1="317.73" x2="280.46" y2="356.96" gradientTransform="matrix(1, 0, 0, 1, 0, 0)" xlink:href="#_ÂÁ_Ï_ÌÌ_È_ËÂÌÚ_4"/><linearGradient id="_ÂÁ_Ï_ÌÌ_È_ËÂÌÚ_40-12" x1="314.03" y1="301.78" x2="287.49" y2="350.33" xlink:href="#_ÂÁ_Ï_ÌÌ_È_ËÂÌÚ_40"/><linearGradient id="_ÂÁ_Ï_ÌÌ_È_ËÂÌÚ_2-5" x1="315.35" y1="376.35" x2="300.3" y2="414.39" xlink:href="#_ÂÁ_Ï_ÌÌ_È_ËÂÌÚ_2"/><linearGradient id="_ÂÁ_Ï_ÌÌ_È_ËÂÌÚ_2-6" x1="337.39" y1="451.34" x2="317.8" y2="485.97" xlink:href="#_ÂÁ_Ï_ÌÌ_È_ËÂÌÚ_2"/><linearGradient id="_ÂÁ_Ï_ÌÌ_È_ËÂÌÚ_40-13" x1="265.01" y1="397.62" x2="252.52" y2="489.03" xlink:href="#_ÂÁ_Ï_ÌÌ_È_ËÂÌÚ_40"/><linearGradient id="_ÂÁ_Ï_ÌÌ_È_ËÂÌÚ_40-14" x1="307.43" y1="407.56" x2="307.14" y2="452.42" xlink:href="#_ÂÁ_Ï_ÌÌ_È_ËÂÌÚ_40"/><radialGradient id="_ÂÁ_Ï_ÌÌ_È_ËÂÌÚ_160" cx="300.89" cy="209.79" r="27.25" gradientUnits="userSpaceOnUse"><stop offset="0.01" stop-color="#21577e"/><stop offset="0.25" stop-color="#1f4f77"/><stop offset="0.63" stop-color="#1b3b62"/><stop offset="1" stop-color="#162048"/></radialGradient><linearGradient id="_ÂÁ_Ï_ÌÌ_È_ËÂÌÚ_4-8" x1="416.9" y1="255.44" x2="404" y2="275.17" gradientTransform="matrix(1.01, 0, 0.13, 0.99, -147.5, 12.35)" xlink:href="#_ÂÁ_Ï_ÌÌ_È_ËÂÌÚ_4"/><radialGradient id="_ÂÁ_Ï_ÌÌ_È_ËÂÌÚ_160-2" cx="414.77" cy="258.35" r="17.25" gradientTransform="matrix(1.01, 0, 0.13, 0.99, -147.5, 12.35)" xlink:href="#_ÂÁ_Ï_ÌÌ_È_ËÂÌÚ_160"/><linearGradient id="_ÂÁ_Ï_ÌÌ_È_ËÂÌÚ_166" x1="417.96" y1="256.5" x2="406.92" y2="269.7" gradientTransform="matrix(1.01, 0, 0.13, 0.99, -147.5, 12.35)" gradientUnits="userSpaceOnUse"><stop offset="0" stop-color="#848175"/><stop offset="0.73" stop-color="#252421"/><stop offset="1" stop-color="#010101"/></linearGradient></defs><title>Master</title><g class="cls-1"><g id="Layer_1" data-name="Layer 1"><path class="cls-2" d="M350.9,317.53a201.62,201.62,0,0,0-6.9-43.48A25,25,0,0,0,331.53,277a148.18,148.18,0,0,1,6.09,36.44,19,19,0,0,0,9.41,6.28,4.34,4.34,0,0,0,2.05.23A3.52,3.52,0,0,0,350.9,317.53Z"/><path class="cls-3" d="M359.57,361.63c1.53-6.88,1.94-14.16,4.28-20.81A47.21,47.21,0,0,0,360.44,303a23.94,23.94,0,0,0-11,1.91A22.41,22.41,0,0,1,348.3,319a10.05,10.05,0,0,1-6.23-4.69A27.71,27.71,0,0,1,338.8,307a24.25,24.25,0,0,0-14.14,13.9,49.59,49.59,0,0,0,8.76,20.91,153.3,153.3,0,0,1-.11,19.29c-.16,3.19,2.83,6.38,5.92,7.2s16.15-.18,17.5-1.13S359.21,363.23,359.57,361.63Z"/><path class="cls-4" d="M355.82,303.12a57.42,57.42,0,0,1,1.44,29.63,15.51,15.51,0,0,1,3.82,2.74,36.18,36.18,0,0,1-3.42,14.41l.35.24c1.14.78,2.08,1.62,3.2,2.23a66.77,66.77,0,0,1,2.64-11.55A47.21,47.21,0,0,0,360.44,303,19.64,19.64,0,0,0,355.82,303.12Z"/><path class="cls-5" d="M345,355.93A169.69,169.69,0,0,1,347.21,333a32.81,32.81,0,0,1-2.6-11.66A14.72,14.72,0,0,0,348.7,319c-.05-.2-.1-.41-.14-.61-.09.22-.16.44-.26.67a10.05,10.05,0,0,1-6.23-4.69A27.71,27.71,0,0,1,338.8,307a24.25,24.25,0,0,0-14.14,13.9,49.59,49.59,0,0,0,8.76,20.91,153.3,153.3,0,0,1-.11,19.29c-.16,3.19,2.83,6.38,5.92,7.2s16.15-.18,17.5-1.13a6.53,6.53,0,0,0,1.76-2.46A32.9,32.9,0,0,0,345,355.93Z"/><path class="cls-6" d="M337.62,393.72a5.61,5.61,0,0,0,3.3.75,6.33,6.33,0,0,0,.65,2.18,27.37,27.37,0,0,1-10.26,11.28c-2-.48-4.28-1.09-6.26-1.57-.13-.78-.27-1.27-.39-2.05A42.2,42.2,0,0,0,337.62,393.72ZM347,411.61a21.9,21.9,0,0,0,9-12.71c-.35-.65-.75-1.51-1.1-2.16a20.65,20.65,0,0,1-4.9-.43,63.07,63.07,0,0,1-10.78,11.48c0,.78-.29,1.62-.31,2.4A37.35,37.35,0,0,0,347,411.61Z"/><path class="cls-5" d="M331.31,407.93c-.16-.77-.31-1.54-.42-2.31A23.77,23.77,0,0,0,341,394.79c0-.11,0-.22-.05-.32a5.61,5.61,0,0,1-3.3-.75,42.2,42.2,0,0,1-13,10.59c.12.78.26,1.27.39,2.05,2,.48,4.27,1.09,6.26,1.57Z"/><path class="cls-5" d="M347.14,411.49a16.87,16.87,0,0,0-.19-2.32,33,33,0,0,0,7.83-12.43,21.22,21.22,0,0,1-4.84-.43,63.07,63.07,0,0,1-10.78,11.48c0,.78-.29,1.62-.31,2.4a37.35,37.35,0,0,0,8.12,1.42Z"/><path class="cls-2" d="M356.72,377.47c-.67-2.05,1.21-5.36.25-7.29a8,8,0,0,0-1-1.49c.14-.74.26-1.48.34-2.22a37,37,0,0,0-8.76-6.73,22.16,22.16,0,0,0-12.35,3.7,113.83,113.83,0,0,1-1.2,13.92,11,11,0,0,0,1,6.81c1.45,2.75.26,6.2-.08,9.27a42.42,42.42,0,0,1-7.39,6.9,4.17,4.17,0,0,0,.19,2.25,16.11,16.11,0,0,0,4.68,1,27.08,27.08,0,0,0,7-8.21c1.7-3,2.12-6.79,2.36-10.25a41.27,41.27,0,0,0,4.58-.3,27.27,27.27,0,0,1,1.33,9.46c-.09,3.46-3.62,6.42-5.87,9.1.09.72,0,1.4.12,2.12,1.74.33,3.14.76,4.88,1.09a23.57,23.57,0,0,0,7.06-8.82,44.31,44.31,0,0,1-1.27-7.23,7.34,7.34,0,0,0,3,.52C358.08,386.93,358.19,382,356.72,377.47Z"/><path class="cls-5" d="M359.27,380.74a9.4,9.4,0,0,0-5-1.95l-1.47,1a54.51,54.51,0,0,1-.54,12.76,12.63,12.63,0,0,0,4.3,1.14l1.38-1.23A34.21,34.21,0,0,0,359.27,380.74Z"/><path class="cls-5" d="M359.63,369.72a21.23,21.23,0,0,0-7.37-3.62l-1.47,1c.73,3.29.56,9.87.56,9.79a17.82,17.82,0,0,1,6.76,2.55l1.47-1C360.25,375.73,360.55,372.36,359.63,369.72Z"/><path class="cls-7" d="M359.58,378.44a17.87,17.87,0,0,0-6.77-2.55c0,.08.18-6.5-.55-9.79a21.23,21.23,0,0,1,7.37,3.62C360.55,372.36,360.25,375.73,359.58,378.44Zm-.31,2.3a9.4,9.4,0,0,0-5-1.95,54.51,54.51,0,0,1-.54,12.76,12.64,12.64,0,0,0,4.29,1.14l-.08-.27A34.21,34.21,0,0,0,359.27,380.74Z"/><path class="cls-8" d="M333.84,350.9l-.27-.48A22,22,0,0,1,340,348c.12-1.92.25-3.91.37-5.91s.25-4.05.38-6A33.89,33.89,0,0,1,334.48,326a23.67,23.67,0,0,0-7.31,3.44l-.31-.45a24.17,24.17,0,0,1,7.72-3.58l.23-.06.09.22a33.35,33.35,0,0,0,6.32,10.25l.08.09V336c-.12,2-.25,4.06-.38,6.13s-.26,4.13-.39,6.12v.22l-.22,0A21.28,21.28,0,0,0,333.84,350.9Z"/><path class="cls-8" d="M361.16,353a7.73,7.73,0,0,1-3.88-2.23l-.22-.2.11-.27a40.2,40.2,0,0,0,3.27-13.85l0-.6a11.94,11.94,0,0,0-3.4-2.28l-.3-.13.06-.32a67.79,67.79,0,0,0-1.52-29.81l.79-.22a68.46,68.46,0,0,1,1.59,29.86,12.55,12.55,0,0,1,3.48,2.44l.13.13,0,1a41.08,41.08,0,0,1-3.21,13.85,6.54,6.54,0,0,0,3.21,1.84Z"/><path class="cls-9" d="M357.26,359.24c-1.91-1.11-4-2-5.87-3.09,3.11-7.92,4.09-16.38,4.44-24.66a70.53,70.53,0,0,0-4.29-27.17,21.09,21.09,0,0,1,7.51-1.42,37.71,37.71,0,0,1,2.49,36.91C360.18,346.06,359,353,357.26,359.24Z"/><path class="cls-10" d="M339.78,231.68a108.7,108.7,0,0,0-20.16.8s-.06,0-.05.05c11.22,13.17,17.52,27.55,23.17,43.77a60.41,60.41,0,0,0,9.53-6.72C351.09,255.47,347.48,243.61,339.78,231.68Z"/><path class="cls-11" d="M305.51,250a180.13,180.13,0,0,0,20.66,32.8,75.75,75.75,0,0,0,16.57-6.52c-5.65-16.22-11.94-30.59-23.18-43.78A86.85,86.85,0,0,0,305.51,250Z"/><path class="cls-11" d="M351.38,261a43,43,0,0,1-9.14.08c-.06,0-.22,0-.26,0s-.05-.2-.07-.27C339.34,249.89,334.68,241,328,232l.62-.49a76.74,76.74,0,0,1,14.06,28.77,43.8,43.8,0,0,0,8.29,0c1.12-.12.24,0,.26,0,.43.12.19.68.15.78S351.39,261,351.38,261Z"/><path class="cls-12" d="M351.05,267a83.25,83.25,0,0,0-11.46-34.29,114,114,0,0,0-18,.22,57.53,57.53,0,0,1,15.87,3.63A90,90,0,0,1,351.05,267Z"/><path class="cls-2" d="M219.42,353.54c2.64,4.91,5.33,9.68,8,14.59a36.87,36.87,0,0,1-33.52,5.41,45.16,45.16,0,0,1-.8-11.66C200.89,357,210.2,353.54,219.42,353.54Zm-24.56,34.09a60.29,60.29,0,0,1-5.23,11.44,55.66,55.66,0,0,0,4.13,9.39c.53.93,1,2.32,2.14,2.4,1.41.1,3.2-1,4.21-1.87a45,45,0,0,1-1.8-9.36,25.16,25.16,0,0,0,1.92-13.35A21.7,21.7,0,0,0,194.86,387.63Zm10.78-1.41a60,60,0,0,1-2.75,12.27,55.77,55.77,0,0,0,6,8.34c.71.8,1.41,2.08,2.59,1.91,1.4-.19,2.93-1.64,3.74-2.7a45.23,45.23,0,0,1-3.7-8.78,25.15,25.15,0,0,0-.87-13.47A22.07,22.07,0,0,0,205.64,386.22Zm17.72-12.9a17,17,0,0,0,4.26,8.62c-.05-.07,0,.36-.09.29-.27,3-1.55,6.81-2.17,10.23a9.1,9.1,0,0,0,5.59.4,23.86,23.86,0,0,0,2.11-11.2,58.33,58.33,0,0,1-5.67-9.25A5.65,5.65,0,0,0,223.36,373.32Z"/><path class="cls-13" d="M321.64,247.38a94.17,94.17,0,0,0-11.44-4.06c-.57-.88-1.16-1.86-1.7-2.65a253.13,253.13,0,0,0-52-5.29l-4.64,3.7a107.19,107.19,0,0,0-12.57,3.09c-8.37,9.07-14.37,25.21-8.29,35.94a84.37,84.37,0,0,0,30,30.69c19.31,2.73,43.72,2.73,62.61-2.53C332,283.89,333.33,262,321.64,247.38Z"/><path class="cls-11" d="M261.79,242l-1.33,1.13A59.32,59.32,0,0,0,279.24,258c-.12.63-.29,1.25-.42,1.88a48.78,48.78,0,0,1-26-20.56c1.22-1.05,2.19-2.14,3.42-3.19,2.3-.07,4.6-.08,6.9-.14a12.47,12.47,0,0,1,.74,3.15,2.45,2.45,0,0,1,0,.81C263.68,240.63,262.33,241.52,261.79,242Z"/><path class="cls-11" d="M280.76,308c-7.9-.3-15.19-4.72-20.61-10.47s-8.93-12.28-12.7-19.23a53.33,53.33,0,0,0,1.92-38.77c-3.25.67-6.6,1.52-10.1,2.6-8.37,9.07-14.37,25.21-8.29,35.94a84.37,84.37,0,0,0,30,30.69c19.31,2.73,43.72,2.73,62.61-2.53.29-.79.57-1.58.85-2.36C309.78,305.22,295.53,308.6,280.76,308Z"/><path class="cls-11" d="M280.46,273.13l-.09-.17-.17-.08A154.85,154.85,0,0,0,245,261.56l-.21,1.09a153.66,153.66,0,0,1,34.73,11.16A115.25,115.25,0,0,1,288.15,298l1.07-.27A115.29,115.29,0,0,0,280.46,273.13Z"/><path class="cls-11" d="M328.63,261.61c-.11-.41-.22-.81-.34-1.21a9.44,9.44,0,0,1-.87.78,70.73,70.73,0,0,1-11.58,7.95l-.28.15,0,.32a106.27,106.27,0,0,1-5.15,28.21l1.06.34A107.73,107.73,0,0,0,316.64,270a73.15,73.15,0,0,0,11.47-7.92C328.29,261.91,328.46,261.76,328.63,261.61Z"/><path class="cls-2" d="M306.87,347.6a178.38,178.38,0,0,0-4.39,51.86c-3,1-6,1.11-9,2.07a144.06,144.06,0,0,1,6.3-47C300.79,351.16,304,349.55,306.87,347.6Z"/><path class="cls-14" d="M265.7,479.16a456,456,0,0,1-3-74,31.47,31.47,0,0,0-27.26-.12,251.55,251.55,0,0,0-10.19,76.53c2.43,2.31,5.15,3.72,9.11,5.06l20.06.75C260.18,485.14,263.49,482.44,265.7,479.16Z"/><path class="cls-11" d="M256.48,413.63c.78-3.52,1.68-6.88,1.53-10.29a31.48,31.48,0,0,0-22.56,1.72,251.55,251.55,0,0,0-10.19,76.53c2.43,2.31,5.15,3.72,9.11,5.06l3.41.13a99.76,99.76,0,0,0,.3-26.46c-1.75,1.23-3.16,2.82-4.91,4.05A155.71,155.71,0,0,1,239.46,413Z"/><path class="cls-15" d="M247.9,495.06a22.61,22.61,0,0,0,8.64-9A161.13,161.13,0,0,0,248.93,461a27,27,0,0,0-10.91-.81,76.78,76.78,0,0,0-7.23,25.26s1.94,6.31,4.06,8.67C238.8,495.25,247.9,495.06,247.9,495.06Z"/><path class="cls-11" d="M310.38,331a5.22,5.22,0,0,1,2.77.93,55.41,55.41,0,0,1-3.63,13,18,18,0,0,1-8.93,9.22A103.24,103.24,0,0,1,310.38,331Z"/><path class="cls-16" d="M313.13,308.27A57.84,57.84,0,0,1,307,331.94a44.7,44.7,0,0,1-33.46-2.66A101.16,101.16,0,0,0,272,310a13.78,13.78,0,0,0,10.83-3.07,14.91,14.91,0,0,0,5.49-10.36,44.9,44.9,0,0,1,22.85-1.36A34,34,0,0,1,313.13,308.27Z"/><path class="cls-17" d="M307.36,331a48.27,48.27,0,0,1-14.15-.13,177.07,177.07,0,0,0-3-33.69,55.54,55.54,0,0,1,20.52-1.53C313.83,307,312.38,320.21,307.36,331Z"/><path class="cls-11" d="M283.65,328.11a55.38,55.38,0,0,0-17.57,2.63,65.21,65.21,0,0,1,1.55,13.42c0,3,2.95,5.65,5.55,7.37a15.39,15.39,0,0,0,9,2.51C282.68,352.18,283.54,334.58,283.65,328.11Z"/><path class="cls-11" d="M311.67,329.14c-2.2,10.13-6.34,21.65-12.93,29.64a40.59,40.59,0,0,1-15.84-.4,131.38,131.38,0,0,1-1.9-29.24c4.1-2.24,7.34-6.07,10.24-9.72,5-1,10.35-.83,15.41-.36A25.65,25.65,0,0,1,311.67,329.14Z"/><path class="cls-2" d="M260.24,393.44a318.63,318.63,0,0,1,16-41.91,7.78,7.78,0,0,0-5.54-3.93,284.81,284.81,0,0,0-20.38,42.8C253.35,391.29,257.21,392.55,260.24,393.44Z"/><path class="cls-18" d="M256.35,414.29c2.93-1.9,5.78-5.32,6.3-8.77.88-5.74,1.46-12,2.33-17.77A29.55,29.55,0,0,0,251.29,384a58.24,58.24,0,0,0-10.36,21.11,31.46,31.46,0,0,0,3.46,6.44A47.3,47.3,0,0,0,256.35,414.29Z"/><path class="cls-19" d="M314.7,451c-4-17.74-7.35-36.36-8.43-54.52a26.9,26.9,0,0,0-14.8,3.73c-7.29,24-14.66,48.83-12.42,73.86a80.9,80.9,0,0,0,25.71,2C309.79,468.44,314.7,451,314.7,451Z"/><path class="cls-2" d="M306.81,241.84a46.88,46.88,0,0,1-4,15.86c-7.1,1.25-22-1.12-22-1.12a54.66,54.66,0,0,1-23.28-19A301.16,301.16,0,0,1,306.81,241.84Z"/><path class="cls-20" d="M296.45,225.22a11.68,11.68,0,0,0-4.85-.23,42.83,42.83,0,0,0-9.11,9.5,46,46,0,0,0,5.61,17.41c2.69.41,5.59-.08,8.3-.13,2.76-5.19,5.54-10.87,6.7-16.61-.49-.8-.79-1.74-1.28-2.54C300.25,230.41,298.58,227.25,296.45,225.22Z"/><path class="cls-21" d="M267.41,221.56a44.77,44.77,0,0,0-8.41-.63,77,77,0,0,0,.38,14.24,49,49,0,0,0,23.37,15.46,133.68,133.68,0,0,0-13-28.48A12.43,12.43,0,0,0,267.41,221.56Z"/><path class="cls-22" d="M301,211.82a39.05,39.05,0,0,0-26.08-4.51,36.83,36.83,0,0,0-15.23,7.14c-.28,1.77-.52,4-.66,6.48a44.77,44.77,0,0,1,8.41.63,12.43,12.43,0,0,1,2.33.59,133.68,133.68,0,0,1,13,28.48,48.11,48.11,0,0,0,5,1.22l.34.05a46,46,0,0,1-5.61-17.41,42.83,42.83,0,0,1,9.11-9.5,11.68,11.68,0,0,1,4.85.23c2.13,2,3.8,5.19,5.37,7.4C302.68,226.17,302,218.25,301,211.82Z"/><path class="cls-23" d="M274.36,208.07a41.76,41.76,0,0,1,26.13,4,59.47,59.47,0,0,1,.65,16.69L299.41,227c-.55-4.16-.28-9.06-1.67-13.32C291.48,210.53,282.94,208.53,274.36,208.07Z"/><path class="cls-2" d="M269.23,231.52a58.32,58.32,0,0,1-7.12-2.72c0,.47,0,.94.05,1.41a34.77,34.77,0,0,0,7.57,4.66C269.62,233.74,269.45,232.64,269.23,231.52Z"/><path class="cls-2" d="M262.36,232.48c.09.76.2,1.51.33,2.21,0,0,4.46,4.4,7.24,5.3,0-1.13,0-2.2-.06-3.23A37,37,0,0,1,262.36,232.48Z"/><path class="cls-2" d="M268.8,229.65c-.23-.94-.5-1.89-.81-2.89a14.28,14.28,0,0,0-5.8-1.24c-.05.46-.05.95-.07,1.44A55.14,55.14,0,0,0,268.8,229.65Z"/><path class="cls-2" d="M246.5,241.85c2,6.45,2.34,13.59-.29,19.82s-8.57,11.29-15.4,11.83C228.08,261.77,236.53,248.84,246.5,241.85Z"/><path class="cls-24" d="M292,225.3a12.29,12.29,0,0,1,4.35.48s4.95,6.27,6.41,9.9a69.19,69.19,0,0,1-7.18,15.52c-.23,0-2.06,0-2.29.06,1.54-7.83,2.63-16.25.56-24C293.63,226.54,292.53,225.87,292,225.3Z"/><path class="cls-21" d="M293.72,248.8s.23-1.19.45-3.13a56.66,56.66,0,0,0,.35-7.59c0-3-.24-5.66-.4-7.61l-.29-3.17s.32,1.18.7,3.11a43.07,43.07,0,0,1,.82,7.65,33.14,33.14,0,0,1-.76,7.68A26,26,0,0,1,293.72,248.8Z"/><path class="cls-21" d="M290.34,247.6s.23-1,.46-2.67a42.52,42.52,0,0,0,.34-6.46c0-2.53-.24-4.82-.4-6.49l-.29-2.69s.32,1,.7,2.64a31.62,31.62,0,0,1,.82,6.53,24.12,24.12,0,0,1-.76,6.53A19.64,19.64,0,0,1,290.34,247.6Z"/><path class="cls-21" d="M297,246.88s.23-1,.45-2.51a36.56,36.56,0,0,0,.35-6.09c0-2.37-.24-4.53-.4-6.1s-.29-2.53-.29-2.53.32.94.7,2.49a28,28,0,0,1,.82,6.13,21.45,21.45,0,0,1-.76,6.15A17.53,17.53,0,0,1,297,246.88Z"/><path class="cls-11" d="M273.06,207.75a36.65,36.65,0,0,0-13.4,6.7c-.28,1.77-.52,4-.66,6.48a44.77,44.77,0,0,1,8.41.63,12.43,12.43,0,0,1,2.33.59,133.68,133.68,0,0,1,13,28.48l.63.17A171,171,0,0,1,273.06,207.75Z"/><path class="cls-2" d="M224.37,270.83c-4,12.88-6.48,25.49-6.38,39l.42.44a24.67,24.67,0,0,1-17-2A88.93,88.93,0,0,1,210.07,267a32.65,32.65,0,0,1,7.67-.88,12.27,12.27,0,0,1,7.56,2.77C225.1,269.09,224.57,270.66,224.37,270.83Z"/><path class="cls-11" d="M232.78,221.75a67.46,67.46,0,0,0-24.11,1.16,82.74,82.74,0,0,0-14,42.16,151.18,151.18,0,0,0,21.62,7.46C226.6,257.61,232.81,239.88,232.78,221.75Z"/><path class="cls-25" d="M248.22,239.55c-3.84-6.9-9.41-12.65-15.41-17.79h0c0,18.13-6.18,35.86-16.54,50.78a107.62,107.62,0,0,0,16,2.89A66.13,66.13,0,0,0,248.22,239.55Z"/><path class="cls-26" d="M223.44,356.4a113,113,0,0,1-2.31-28.95c4.9-7.2,8.93-16.94,6.58-25.32-1.06-3.75-4.91-7.88-8.47-9.47,0,.1-1.22,7.9-1.45,14.59-3.65,2.54-5.36,1.66-8-2.43a42.79,42.79,0,0,1,3.25-17.3c-1.08-1-2.6-2.39-3.68-3.43a35.62,35.62,0,0,0-26.61,5.68c-3.23,8.41-6.46,17.18-5.86,26.17.48,7.25,3.41,14.06,5.8,20.92,3,8.6,6.81,19.16,8.18,28.17a102.92,102.92,0,0,0,24-4.58C217.77,359.48,220.55,357.63,223.44,356.4Z"/><path class="cls-5" d="M190.82,365a102.92,102.92,0,0,0,24-4.58,39.49,39.49,0,0,0,5.7-2.63,37.06,37.06,0,0,1-15.3,2,86.21,86.21,0,0,1-3.58-14.58c-4.19,2.46-9.75,4.36-14.7,4.2A105.61,105.61,0,0,1,190.82,365Z"/><path class="cls-11" d="M197.11,320.8a31.91,31.91,0,0,1,8.79-3.3,72.5,72.5,0,0,1,2.87-33.5,35.65,35.65,0,0,0-26.07,5.77c-3.23,8.41-6.46,17.18-5.86,26.17.48,7.25,3.41,14.06,5.8,20.92,1.3,3.72,2.74,7.81,4.08,12a26,26,0,0,0,14.7-3.51A68.17,68.17,0,0,0,197.11,320.8Z"/><path class="cls-27" d="M208.77,284a35.36,35.36,0,0,0-17.66,1.52c-3.34,9.94-1.84,21,1.06,31.19,2.75,9.67,6.7,19,8.83,28.84l.42-.23a68.17,68.17,0,0,0-4.31-24.52,31.91,31.91,0,0,1,8.79-3.3A72.5,72.5,0,0,1,208.77,284Z"/><path class="cls-5" d="M211.85,364.16l-.34.08A79.8,79.8,0,0,1,191.67,368,41.18,41.18,0,0,0,190,385.81a88.6,88.6,0,0,0,20.07-3C210.61,376.5,211.1,370.64,211.85,364.16Z"/><path class="cls-28" d="M200.76,413.51c-1.76-4.78-3.34-9.63-4.85-14.49-1-.43-2.21-1.29-3.31-1.29a89.8,89.8,0,0,0,7.9,16Z"/><path class="cls-5" d="M192.6,397.73a1.88,1.88,0,0,0-.34,0,13.87,13.87,0,0,0-7.08,3.88A28.92,28.92,0,0,0,197,415.79a10,10,0,0,0,3.55-2A89.8,89.8,0,0,1,192.6,397.73Z"/><path class="cls-29" d="M216.76,410.33c-2.71-4.31-5.26-8.74-7.74-13.18-1.08-.21-2.43-.8-3.51-.57a90.79,90.79,0,0,0,11,14.06C216.62,410.53,216.7,410.43,216.76,410.33Z"/><path class="cls-5" d="M205.51,396.58a1.67,1.67,0,0,0-.32.08,13.91,13.91,0,0,0-6.13,5.26,28.88,28.88,0,0,0,14.43,11.43,10,10,0,0,0,3.06-2.71A90.79,90.79,0,0,1,205.51,396.58Z"/><path class="cls-30" d="M232.09,371.36A19.62,19.62,0,0,1,217.51,377a30.92,30.92,0,0,1,.53-11.38,17,17,0,0,1,7.22-3.24C228.29,364.38,230.58,368.09,232.09,371.36Z"/><path class="cls-31" d="M237.94,380.52a24.33,24.33,0,0,1-5.18,15.34,13.8,13.8,0,0,1-3.63.27A70.43,70.43,0,0,1,232.94,380,10.9,10.9,0,0,1,237.94,380.52Z"/><path class="cls-21" d="M310.39,302.91l-.82-.06c-.53,0-1.29-.08-2.23-.11a49.54,49.54,0,0,0-7.25.37,50.82,50.82,0,0,0-7.12,1.44c-.9.26-1.63.48-2.13.65l-.78.25.71-.41c.46-.27,1.15-.62,2-1a25.85,25.85,0,0,1,7.17-2,25.06,25.06,0,0,1,7.45.18,22.45,22.45,0,0,1,2.2.49Z"/><path class="cls-21" d="M311.67,312.18l-3,0c-1.87,0-4.44.1-7.27.25s-5.38.37-7.24.56l-3,.31s1.08-.4,2.9-.86a39.76,39.76,0,0,1,7.28-1.12,39.19,39.19,0,0,1,7.4.31C310.55,311.91,311.67,312.18,311.67,312.18Z"/><path class="cls-5" d="M214.49,337.51v.26a69,69,0,0,0,2.19,21.94l.77-.34a68.44,68.44,0,0,1-2.15-21.28,26.53,26.53,0,0,1,5.77-1.6l0-.83a27.37,27.37,0,0,0-6.29,1.75Z"/><path class="cls-8" d="M202,345.35v-.21A70.92,70.92,0,0,0,197.68,321a33.35,33.35,0,0,1,8.51-2.79l.43-.07-.09-.42a63.86,63.86,0,0,1,2.56-33.69l-.84-.13a64.72,64.72,0,0,0-2.62,33.56,35.18,35.18,0,0,0-8.65,2.95l-.35.16.13.36a70,70,0,0,1,4.36,24,20,20,0,0,1-14.53,3.49c.1.3.19.61.29.91a17,17,0,0,0,2.67.21,21.14,21.14,0,0,0,12.23-4.06Z"/><path class="cls-8" d="M191.58,348.76c-.4-5.58-2.22-11-4-16.29-.37-1.12-.74-2.23-1.1-3.35-1.95-6.05-3.77-13.14-2.54-19.95-2-.81-4.52-1.66-6.6-1.46l-.05-.55c2.26-.22,5,.73,7.07,1.58l.21.09-.05.22c-1.28,6.75.54,13.85,2.49,19.9.35,1.12.73,2.23,1.1,3.34,1.77,5.3,3.6,10.78,4,16.43Z"/><path class="cls-8" d="M209.59,382.94A87.86,87.86,0,0,1,190,385.81c0,.13,0,.26,0,.39.88.64,1.57,1.67,2.45,2.31a59.23,59.23,0,0,0,20.41-2.84l.06-.34A36.16,36.16,0,0,1,209.59,382.94Z"/><path class="cls-32" d="M216.76,365.39c-.78-.72-3.4-1.14-4.91-1.23-.75,6.48-1.24,12.34-1.77,18.66-.16.05-.33.08-.49.12a36.16,36.16,0,0,0,3.38,2.39C214.06,378.81,215.69,371.89,216.76,365.39Z"/><path class="cls-33" d="M221.26,295.75c4.51,3.33,6,9.61,5.11,15.14s-3.92,10.48-7,15.17a191.23,191.23,0,0,0,1.5,29.49c-1,.38-2.37.76-3.36,1.14a76.11,76.11,0,0,1-1.6-32.55c5-5.43,6.66-14.18,4.67-21.29C220,300.76,221.19,297.93,221.26,295.75Z"/><path class="cls-34" d="M230.78,371.19a27.72,27.72,0,0,0-5.71-7.51,9.38,9.38,0,0,0-3.08,1.68,44.53,44.53,0,0,1,4.22,9.07c.1.12.34,0,.31-.14a.18.18,0,0,0-.33,0A32.85,32.85,0,0,0,230.78,371.19Z"/><path class="cls-35" d="M237.33,381.19a23.74,23.74,0,0,1-3.28,11.26,19.3,19.3,0,0,0,.48-9.18l-1.42-.66a4.58,4.58,0,0,0,.47-2.09A8.17,8.17,0,0,1,237.33,381.19Z"/><path class="cls-11" d="M228.45,266.84l-.21,0a23.8,23.8,0,0,0-2.68-.16,12.69,12.69,0,0,1-5.39-.91l.37-.74a12.16,12.16,0,0,0,5,.82c.85,0,1.71,0,2.55.13A66.51,66.51,0,0,0,244,234l.82.15a67.36,67.36,0,0,1-16.2,32.51Z"/><path class="cls-8" d="M220.17,265.75c-1.48-.72-3-1.41-4.44-2.1s-3-1.39-4.48-2.12l-.31-.15.1-.33a68.38,68.38,0,0,0,2.48-17.58,83.62,83.62,0,0,0-13.65-2.77l.09-.82a83.57,83.57,0,0,1,14.1,2.88l.3.09v.31a68.7,68.7,0,0,1-2.43,17.78c1.38.67,2.77,1.31,4.15,2s3,1.38,4.46,2.11Z"/><path class="cls-36" d="M242.61,242.26c-1.28,11-5.2,21.9-10.41,31.7,10.19-12.4,12.79-23.3,15.39-34.39-3.11-6-8.13-11.21-13.53-15.28,3,5.63,5.59,11,8.61,16.59Z"/><path class="cls-37" d="M303.38,258.42c1.7-3.89,3.23-7.86,4.62-11.87l.79.67c-.08-.13-2.61,10-5.65,13.89a67.6,67.6,0,0,1-22-.29c0-.6.33-1.34.37-1.94a118,118,0,0,0,21.1,0Z"/><path class="cls-38" d="M312.76,246.33A27.56,27.56,0,0,1,321.3,249c6.1,8.7,6.87,17.27,6.59,26.29s-2.45,17.88-4.67,26.65a34.62,34.62,0,0,1-8.34,1.13,36.75,36.75,0,0,0-3-12.21,142,142,0,0,0-14.58-.41c-3.57-8.67-7.16-18-10.73-26.64,6.29,1,12.51.58,18.85-.11C308.51,258.4,311.48,252.32,312.76,246.33Z"/><path class="cls-39" d="M311,327.75c-1.91,8.78-5.5,18.77-11.22,25.71a35.62,35.62,0,0,1-13.73-.35,113.44,113.44,0,0,1-1.65-25.36c3.55-1.95,6.36-5.27,8.88-8.43a45.64,45.64,0,0,1,13.36-.31A22.35,22.35,0,0,1,311,327.75Z"/><path class="cls-11" d="M307.51,341.47c-1.62-.31-3.85-.72-5.23-.92l-.5-.08L302,340a31.16,31.16,0,0,0,1.7-7.81c-2.09-.22-4.27-.23-6.39-.24h-1.65c-.28,1.36-.45,2.81-.61,4.22-.13,1.08-.26,2.2-.44,3.27l-.05.34-10.84.54,0-.84,10.16-.5c.15-1,.27-1.95.38-2.9a46.7,46.7,0,0,1,.7-4.64l.07-.34h2.33a63.23,63.23,0,0,1,6.88.3l.39.05,0,.39a31.9,31.9,0,0,1-1.61,8c1.39.22,3.32.57,4.77.85Z"/><path class="cls-40" d="M293.94,353.06c1.62,0,3.31-.19,4.93-.21,5.59-7.54,10.14-16.63,11.52-25.8a19,19,0,0,0-3.85-7.34,94.08,94.08,0,0,0-12.22.2,17.09,17.09,0,0,1-8,7.72,17,17,0,0,0,10.24-4.43,28,28,0,0,1,8.66-.16,20.13,20.13,0,0,1,2.67,4.54,82,82,0,0,1-9.42,23.56C296.82,351.75,295.62,352.45,293.94,353.06Z"/><path class="cls-21" d="M256.8,410.64a29.69,29.69,0,0,1-11.71-4.3,171.46,171.46,0,0,1,7.21-22.26c-.34,0-.68-.06-1-.07a58.24,58.24,0,0,0-10.36,21.11,31.46,31.46,0,0,0,3.46,6.44,47.3,47.3,0,0,0,12,2.73c2.9-1.88,5.72-5.26,6.28-8.67A27.76,27.76,0,0,1,256.8,410.64Z"/><path class="cls-11" d="M303.43,467.76a39.81,39.81,0,0,1-17.6-3A203.56,203.56,0,0,1,294,402.66a2.74,2.74,0,0,1,1.9-.18c.19,2.27,1.12,4.37,1.31,6.64A23.57,23.57,0,0,0,307.22,413a82,82,0,0,0-2.58-16.54,26.21,26.21,0,0,0-13.17,3.71c-7.29,24-14.66,48.83-12.42,73.86a80.9,80.9,0,0,0,25.71,2c3.45-5.21,6.84-15.08,8.63-20.76A109.86,109.86,0,0,0,303.43,467.76Z"/><path class="cls-41" d="M310.05,412.17c-1,.09-2.45.47-3.39.1a25.44,25.44,0,0,1-8.65-5.62A58.33,58.33,0,0,1,301.46,389a27.39,27.39,0,0,1,7.82-3.29C312.16,393.82,311.58,403.72,310.05,412.17Z"/><path class="cls-21" d="M310.05,412.17c.07-.34.12-.69.18-1-2.71-2-5.15-4.22-7.82-6.47a93,93,0,0,1,1.76-17.05l-.14,0c-.89.45-1.76.92-2.57,1.38A58.33,58.33,0,0,0,298,406.65a25.44,25.44,0,0,0,8.65,5.62C307.6,412.64,309.05,412.26,310.05,412.17Z"/><path class="cls-42" d="M346.81,477a267.74,267.74,0,0,1-43.59-.82,57.07,57.07,0,0,1,11-25.07c4.37,3.59,8.64,7.87,13,11.47,0,0,12.38,4.6,18.85,5.07A26.45,26.45,0,0,1,346.81,477Z"/><path class="cls-11" d="M257.42,469.41l-.06-.55a268.88,268.88,0,0,0-4.8-31.05c-6.24-.75-12.9-1.16-19.32.63l-.23-.8c6.67-1.86,13.53-1.4,20-.62l.29,0,.06.29a270.62,270.62,0,0,1,4.83,30.89,20.43,20.43,0,0,0,5.76-3.43l.55.63a21.87,21.87,0,0,1-6.52,3.78Z"/><path class="cls-21" d="M247.83,495.06c-.08-.44-.16-.88-.23-1.25a43.8,43.8,0,0,1-11-2.38q.48-15.65,1.86-31.24l-.39,0a76.78,76.78,0,0,0-7.23,25.26s1.94,6.31,4.06,8.67C238.63,495.2,247.07,495.07,247.83,495.06Z"/><path class="cls-21" d="M346.81,477c0-.5.06-1,.08-1.5-8.37.85-16.89-1.56-24.38-5.42a9.11,9.11,0,0,1,1.91-4.65,40.46,40.46,0,0,1-6.12,3.78,44,44,0,0,1-10-8.58,61.69,61.69,0,0,0-5.1,15.55A267.74,267.74,0,0,0,346.81,477Z"/><path class="cls-21" d="M236.91,475.23a67.94,67.94,0,0,1,7.17-1.13,41.49,41.49,0,0,1,4.85-.17,32.38,32.38,0,0,0-4.83-.94,27.79,27.79,0,0,0-7.58.05Z"/><path class="cls-11" d="M289.85,457.69a22.5,22.5,0,0,1-4.39-.41l.17-.82a26.35,26.35,0,0,0,9.68-.11,72,72,0,0,1,3.1-22.72l0-.18.17-.08a44.2,44.2,0,0,1,11.73-3.51l.13.82a43.19,43.19,0,0,0-11.34,3.37,71.05,71.05,0,0,0-3,22.63v.37l-.36.06A33,33,0,0,1,289.85,457.69Z"/><path class="cls-43" d="M264.18,478.75a386.71,386.71,0,0,1-3.41-63.36c-2.83,1.19-6.1,2.42-8.94,3.6-.23,21.73,1.71,43.27,7.66,62.79A23.81,23.81,0,0,0,264.18,478.75Z"/><path class="cls-44" d="M313.44,450a220.45,220.45,0,0,1-6.7-35.23,20.16,20.16,0,0,1-5.63-1.21,106.4,106.4,0,0,0,7.4,41.74c1.41-1.92,3.15-3.66,4.56-5.58C313.07,449.88,313.57,450.1,313.44,450Z"/><path class="cls-45" d="M275.16,212.26a105.07,105.07,0,0,1,25.9,3.58,34.81,34.81,0,0,1,.38,7.58A88.89,88.89,0,0,0,276.5,225,36.66,36.66,0,0,1,275.16,212.26Z"/><polygon class="cls-46" points="280.36 215.65 280.88 219.83 288.77 218.43 289.05 216.01 280.36 215.65"/><polygon class="cls-46" points="299.42 217 299.6 220.63 293.57 218.52 293.35 216.4 299.42 217"/><ellipse class="cls-11" cx="299.49" cy="276.21" rx="10.83" ry="12.73" transform="translate(-97.02 182.58) rotate(-29.4)"/><path class="cls-47" d="M301.45,287.35c-5.68,0-11-5.11-11.76-11.41s3.16-11.42,8.85-11.43,11,5.12,11.76,11.41S307.13,287.35,301.45,287.35Z"/><path class="cls-11" d="M308.62,275.87c.6,4.64-2.24,8.4-6.32,8.4s-7.88-3.75-8.47-8.39,2.24-8.4,6.32-8.41S308,271.23,308.62,275.87Z"/><path class="cls-48" d="M299,268.15a6.16,6.16,0,0,0-2.48.54,7.57,7.57,0,0,0-2.69,7.19c.59,4.64,4.38,8.4,8.47,8.39a6.16,6.16,0,0,0,2.48-.54,7.6,7.6,0,0,0,2.69-7.19C306.88,271.9,303.09,268.15,299,268.15Z"/><path class="cls-49" d="M301.72,276.81a9,9,0,0,0,5.1.65c0-.3,0-.6-.06-.91-.55-4.27-4-7.75-7.7-7.75a5.36,5.36,0,0,0-2.11.46,6.15,6.15,0,0,0-1.13,1.15C296.57,273.1,298.1,275.26,301.72,276.81Z"/></g></g></svg>