<svg xmlns="http://www.w3.org/2000/svg" xmlns:xlink="http://www.w3.org/1999/xlink" viewBox="0 0 543.42 656.85"><defs><style>.cls-1{isolation:isolate;}.cls-2{fill:#2b3e51;}.cls-3{fill:#d7d7d7;}.cls-4{fill:url(#_ÂÁ_Ï_ÌÌ_È_ËÂÌÚ_4);}.cls-5{fill:#99999a;}.cls-11,.cls-12,.cls-13,.cls-14,.cls-15,.cls-24,.cls-25,.cls-6,.cls-8{mix-blend-mode:screen;}.cls-6{fill:url(#_ÂÁ_Ï_ÌÌ_È_ËÂÌÚ_40);}.cls-7{fill:url(#_ÂÁ_Ï_ÌÌ_È_ËÂÌÚ_3);}.cls-8{fill:url(#_ÂÁ_Ï_ÌÌ_È_ËÂÌÚ_40-2);}.cls-9{fill:#272626;}.cls-10{fill:#555655;}.cls-11{fill:url(#_ÂÁ_Ï_ÌÌ_È_ËÂÌÚ_40-3);}.cls-12{fill:#fff;}.cls-13{fill:url(#_ÂÁ_Ï_ÌÌ_È_ËÂÌÚ_40-4);}.cls-14{fill:url(#_ÂÁ_Ï_ÌÌ_È_ËÂÌÚ_40-5);}.cls-15{fill:url(#_ÂÁ_Ï_ÌÌ_È_ËÂÌÚ_40-6);}.cls-16{fill:url(#_ÂÁ_Ï_ÌÌ_È_ËÂÌÚ_3-2);}.cls-17{fill:#d3d3d3;}.cls-18{fill:url(#_ÂÁ_Ï_ÌÌ_È_ËÂÌÚ_5);}.cls-19{fill:url(#_ÂÁ_Ï_ÌÌ_È_ËÂÌÚ_3-3);}.cls-20{fill:url(#_ÂÁ_Ï_ÌÌ_È_ËÂÌÚ_3-4);}.cls-21{fill:url(#_ÂÁ_Ï_ÌÌ_È_ËÂÌÚ_3-5);}.cls-22{fill:#c62127;}.cls-23{fill:url(#_ÂÁ_Ï_ÌÌ_È_ËÂÌÚ_3-6);}.cls-24{fill:url(#_ÂÁ_Ï_ÌÌ_È_ËÂÌÚ_40-7);}.cls-25{fill:url(#_ÂÁ_Ï_ÌÌ_È_ËÂÌÚ_40-8);}</style><linearGradient id="_ÂÁ_Ï_ÌÌ_È_ËÂÌÚ_4" x1="243.65" y1="226.52" x2="222.07" y2="277.81" gradientUnits="userSpaceOnUse"><stop offset="0.04" stop-color="#fff"/><stop offset="0.3" stop-color="#fbfbfb"/><stop offset="0.55" stop-color="#efefef"/><stop offset="0.7" stop-color="#e5e5e4"/><stop offset="0.8" stop-color="#dfdfde"/><stop offset="1" stop-color="#d7d7d7"/></linearGradient><linearGradient id="_ÂÁ_Ï_ÌÌ_È_ËÂÌÚ_40" x1="243.76" y1="216.06" x2="234.83" y2="264.42" gradientUnits="userSpaceOnUse"><stop offset="0.17" stop-color="#beb48e"/><stop offset="0.26" stop-color="#b4ab87"/><stop offset="0.41" stop-color="#9a9273"/><stop offset="0.6" stop-color="#6f6953"/><stop offset="0.82" stop-color="#343127"/><stop offset="1" stop-color="#010101"/></linearGradient><linearGradient id="_ÂÁ_Ï_ÌÌ_È_ËÂÌÚ_3" x1="7850.22" y1="-4911.8" x2="7831.48" y2="-4899.45" gradientTransform="translate(5274.28 8076.14) rotate(-90.52)" gradientUnits="userSpaceOnUse"><stop offset="0" stop-color="#fff"/><stop offset="0.84" stop-color="#e9e8e7"/></linearGradient><linearGradient id="_ÂÁ_Ï_ÌÌ_È_ËÂÌÚ_40-2" x1="7844.44" y1="-4928.69" x2="7837.72" y2="-4897.84" gradientTransform="translate(5274.28 8076.14) rotate(-90.52)" xlink:href="#_ÂÁ_Ï_ÌÌ_È_ËÂÌÚ_40"/><linearGradient id="_ÂÁ_Ï_ÌÌ_È_ËÂÌÚ_40-3" x1="-5481.92" y1="3600.62" x2="-5511.28" y2="3612.91" gradientTransform="translate(6852.39 -456.85) rotate(26.81)" xlink:href="#_ÂÁ_Ï_ÌÌ_È_ËÂÌÚ_40"/><linearGradient id="_ÂÁ_Ï_ÌÌ_È_ËÂÌÚ_40-4" x1="-5496.21" y1="3593.35" x2="-5518.25" y2="3598.38" gradientTransform="translate(6852.39 -456.85) rotate(26.81)" xlink:href="#_ÂÁ_Ï_ÌÌ_È_ËÂÌÚ_40"/><linearGradient id="_ÂÁ_Ï_ÌÌ_È_ËÂÌÚ_40-5" x1="-5440.48" y1="3580.34" x2="-5489.35" y2="3600.8" gradientTransform="translate(6852.39 -456.85) rotate(26.81)" xlink:href="#_ÂÁ_Ï_ÌÌ_È_ËÂÌÚ_40"/><linearGradient id="_ÂÁ_Ï_ÌÌ_È_ËÂÌÚ_40-6" x1="-5441.43" y1="3589.16" x2="-5484.89" y2="3607.34" gradientTransform="translate(6852.39 -456.85) rotate(26.81)" xlink:href="#_ÂÁ_Ï_ÌÌ_È_ËÂÌÚ_40"/><linearGradient id="_ÂÁ_Ï_ÌÌ_È_ËÂÌÚ_3-2" x1="7830.86" y1="-4989.79" x2="7794.81" y2="-4954.02" xlink:href="#_ÂÁ_Ï_ÌÌ_È_ËÂÌÚ_3"/><linearGradient id="_ÂÁ_Ï_ÌÌ_È_ËÂÌÚ_5" x1="7807.26" y1="-5009.96" x2="7796.19" y2="-4952.9" gradientTransform="translate(5274.28 8076.14) rotate(-90.52)" gradientUnits="userSpaceOnUse"><stop offset="0" stop-color="#fff"/><stop offset="0.48" stop-color="#eee"/><stop offset="1" stop-color="#d7d7d7"/></linearGradient><linearGradient id="_ÂÁ_Ï_ÌÌ_È_ËÂÌÚ_3-3" x1="7796.77" y1="-4883.69" x2="7804.94" y2="-4883.69" xlink:href="#_ÂÁ_Ï_ÌÌ_È_ËÂÌÚ_3"/><linearGradient id="_ÂÁ_Ï_ÌÌ_È_ËÂÌÚ_3-4" x1="7809.69" y1="-4885.86" x2="7820.93" y2="-4885.86" xlink:href="#_ÂÁ_Ï_ÌÌ_È_ËÂÌÚ_3"/><linearGradient id="_ÂÁ_Ï_ÌÌ_È_ËÂÌÚ_3-5" x1="7838.38" y1="-4926.75" x2="7819.64" y2="-4914.4" xlink:href="#_ÂÁ_Ï_ÌÌ_È_ËÂÌÚ_3"/><linearGradient id="_ÂÁ_Ï_ÌÌ_È_ËÂÌÚ_3-6" x1="7820.73" y1="-4916.75" x2="7794.33" y2="-4903.69" xlink:href="#_ÂÁ_Ï_ÌÌ_È_ËÂÌÚ_3"/><linearGradient id="_ÂÁ_Ï_ÌÌ_È_ËÂÌÚ_40-7" x1="7829.09" y1="-4995" x2="7820.43" y2="-4934.77" gradientTransform="translate(5274.28 8076.14) rotate(-90.52)" xlink:href="#_ÂÁ_Ï_ÌÌ_È_ËÂÌÚ_40"/><linearGradient id="_ÂÁ_Ï_ÌÌ_È_ËÂÌÚ_40-8" x1="7833.24" y1="-4931.28" x2="7827.85" y2="-4910.93" gradientTransform="translate(5274.28 8076.14) rotate(-90.52)" xlink:href="#_ÂÁ_Ï_ÌÌ_È_ËÂÌÚ_40"/></defs><title>Master</title><g class="cls-1"><g id="Layer_1" data-name="Layer 1"><path class="cls-2" d="M224.37,270.83A120.09,120.09,0,0,0,219,308.78c.14.15-.73,1.3-.59,1.45a24.67,24.67,0,0,1-17-2A88.93,88.93,0,0,1,210.07,267a32.65,32.65,0,0,1,7.67-.88,12.27,12.27,0,0,1,7.56,2.77C225.1,269.09,224.57,270.66,224.37,270.83Z"/><path class="cls-3" d="M232.78,221.75a67.46,67.46,0,0,0-24.11,1.16,82.74,82.74,0,0,0-14,42.16,151.18,151.18,0,0,0,21.62,7.46C226.6,257.61,232.81,239.88,232.78,221.75Z"/><path class="cls-4" d="M248.22,239.55c-3.84-6.9-9.41-12.65-15.41-17.79h0c0,18.13-6.18,35.86-16.54,50.78a107.62,107.62,0,0,0,16,2.89A66.13,66.13,0,0,0,248.22,239.55Z"/><path class="cls-3" d="M228.45,266.84l-.21,0a23.8,23.8,0,0,0-2.68-.16,12.69,12.69,0,0,1-5.39-.91l.37-.74a12.16,12.16,0,0,0,5,.82c.85,0,1.71,0,2.55.13A66.51,66.51,0,0,0,244,234l.82.15a67.36,67.36,0,0,1-16.2,32.51Z"/><path class="cls-5" d="M220.17,265.75c-1.48-.72-3-1.41-4.44-2.1s-3-1.39-4.48-2.12l-.31-.15.1-.33a68.38,68.38,0,0,0,2.48-17.58,83.62,83.62,0,0,0-13.65-2.77l.09-.82a83.57,83.57,0,0,1,14.1,2.88l.3.09v.31a68.7,68.7,0,0,1-2.43,17.78c1.38.67,2.77,1.31,4.15,2s3,1.38,4.46,2.11Z"/><path class="cls-6" d="M242.61,242.26c-1.28,11-5.2,21.9-10.41,31.7,10.19-12.4,12.79-23.3,15.39-34.39-3.11-6-8.13-11.21-13.53-15.28,3,5.63,5.59,11,8.61,16.59Z"/><path class="cls-2" d="M282.83,291.43a17.1,17.1,0,0,0,8.59-4.34c-.08.05.36,0,.28.08,3,.24,6.83,1.49,10.25,2.09a9.14,9.14,0,0,0,.35-5.6,23.92,23.92,0,0,0-11.22-2,58.29,58.29,0,0,1-9.19,5.76A5.64,5.64,0,0,0,282.83,291.43Z"/><path class="cls-7" d="M292.11,278.42a24.46,24.46,0,0,1,15.39,5,13.9,13.9,0,0,1,.31,3.64,70.49,70.49,0,0,1-16.22-3.67A11,11,0,0,1,292.11,278.42Z"/><path class="cls-8" d="M292.79,279a23.63,23.63,0,0,1,11.28,3.18,19.37,19.37,0,0,0-9.17-.4c-.22.47-.44.95-.65,1.42a4.72,4.72,0,0,0-2.09-.44A8.06,8.06,0,0,1,292.79,279Z"/><path class="cls-2" d="M294.24,327.1A29.73,29.73,0,0,1,282.12,326c-.06.67-.22,1.37-.29,2.06,8.44,3.75,18.47,1.91,27-.71-.33-1.38-.53-2.78-.89-4.15A45.34,45.34,0,0,1,294.24,327.1Z"/><path class="cls-9" d="M308.26,299.43c9.41-.1,18.83-.18,28.25-.17-.15-6.71-.2-13.43-.23-20.14-11.27.83-22.53,1.76-33.79,2.7a65,65,0,0,1-3.15,14.39,91.18,91.18,0,0,1-9.57,3.74A178.06,178.06,0,0,0,282.12,326a29.73,29.73,0,0,0,12.12,1.07,45.34,45.34,0,0,0,13.7-3.87C306.73,315.18,306.49,307.4,308.26,299.43Z"/><path class="cls-2" d="M338.66,272.7c-12.73.73-25.45,1.59-38.17,2.46-.42-1.8-.85-3.61-1.27-5.41,13.2-.6,26.4-1.11,39.6-1.65C338.78,269.64,338.72,271.17,338.66,272.7Z"/><path class="cls-10" d="M314,279.74q-1.08-2.34-2.18-4.66,7.35-.46,14.71-.86c-.19,1.45-.39,2.89-.58,4.34Q319.94,279.13,314,279.74Z"/><path class="cls-5" d="M308.29,279.54a93.56,93.56,0,0,0,5,21.45c6.07.13,12.11-.14,18.17-.61.55-7.55.87-15.08.9-22.65A132,132,0,0,0,308.29,279.54Z"/><path class="cls-11" d="M308.92,280.05q.69,4.23,1.43,8.45,10.69-.24,21.38-.39c0-3.33,0-6.66,0-10A222.57,222.57,0,0,0,308.92,280.05Z"/><path class="cls-2" d="M329.08,291.56q-7.95-.07-15.89-.13c-.27-1.2-.53-2.4-.75-3.62,5.49-.62,11-1.24,16.47-1.81C329,287.85,329.07,289.7,329.08,291.56Zm-.39-8.55c-.1-1.1-.21-2.2-.35-3.3q-8.4.65-16.79,1.35.13,1.44.3,2.88C317.46,283.61,323.07,283.29,328.69,283Zm-14.52,12.26c.36,1.24.74,2.47,1.16,3.7q6.76-.2,13.53-.32c.07-1.35.13-2.71.17-4.07C324.08,294.81,319.12,295,314.17,295.27Z"/><path class="cls-12" d="M315.81,297.64c-.23-.66-.45-1.33-.66-2q6.53-.33,13.05-.62c0,.77-.07,1.53-.11,2.3C324,297.43,319.9,297.52,315.81,297.64Zm-2-7.06c-.14-.67-.29-1.33-.43-2q7.42-.82,14.84-1.6c.05,1.22.08,2.43.09,3.65C323.46,290.61,318.63,290.58,313.79,290.58Zm-1.22-7.09c0-.41-.09-.82-.13-1.23,5.09-.42,10.17-.83,15.26-1.2.06.52.12,1.05.17,1.58Q320.22,283,312.57,283.49Z"/><path class="cls-5" d="M336.29,281.39c13.6-.31,27.21-.28,40.81-.6-.38,2.29-.77,4.59-1.15,6.88-13.19.78-26.39,1.28-39.57,2.08C336.36,287,336.3,284.18,336.29,281.39Z"/><path class="cls-2" d="M360.31,281.09c.16-.76.33-1.52.5-2.28,4.27-.94,8.54-1.91,12.81-2.88.19,1.64.38,3.29.58,4.93C369.57,281,364.94,281,360.31,281.09Z"/><path class="cls-5" d="M338.38,296.45c.1.05,29.28-2.14,33.43-2.45,1.47-2.13.65-4.09,1.26-6.16-12.31.72-24.37,1.16-36.77,1.91C337.72,291.93,333.87,294.52,338.38,296.45Z"/><path class="cls-5" d="M329,275.05q-10.67.76-21.33,1.58-.8-4.61-1.56-9.22,11.43-.53,22.86-1Q329,270.73,329,275.05Z"/><path class="cls-13" d="M306.92,268.12c.35,1.28.7,2.55,1.06,3.83l19.83-.27c.1-1.6.21-3.2.31-4.8Q317.52,267.46,306.92,268.12Z"/><path class="cls-14" d="M337,281.86c.07,1,.14,1.95.22,2.93,12.78-.41,25.58-.54,38.37-1,.12-.77.25-1.54.38-2.31C363,281.75,350,281.65,337,281.86Z"/><path class="cls-15" d="M337.09,290.45c11.58-.71,23.18-1.16,34.76-1.84-.11.57-.21,1.14-.32,1.72-11.32.94-22.65,1.68-34,2.66C337.41,292.14,337.25,291.3,337.09,290.45Z"/><path class="cls-10" d="M336.34,285.61l.48.93c13.1-.41,26.22-.5,39.32-.91,0,.4,0,.81-.05,1.21-13.27.61-26.54.93-39.8,1.54C336.31,287.46,336.33,286.53,336.34,285.61Z"/><path class="cls-10" d="M336.42,294.4c12.05-.85,24.11-1.49,36.16-2.32-.05.42-.09.84-.14,1.26-12,.89-24,1.62-36.05,2.55Z"/><path class="cls-2" d="M311.09,299.4c.19,3.4.43,6.79.65,10.19l-4.83.13a49.53,49.53,0,0,1,1.35-10.29Z"/><path class="cls-2" d="M267.32,297.83c4.88-2.68,9.63-5.41,14.51-8.1a36.88,36.88,0,0,1,5.72,33.48,46,46,0,0,1-11.65.9C270.94,316.33,267.4,307.06,267.32,297.83Zm34.3,24.25a59.44,59.44,0,0,1,11.49,5.13,55,55,0,0,0,9.35-4.22c.93-.53,2.32-1,2.39-2.15.08-1.42-1-3.2-1.91-4.21a44.88,44.88,0,0,1-9.34,1.9,25.11,25.11,0,0,0-13.37-1.81A22.39,22.39,0,0,0,301.62,322.08Zm-1.5-10.77a60.08,60.08,0,0,1,12.3,2.65,56.47,56.47,0,0,0,8.28-6c.8-.72,2.07-1.43,1.89-2.61-.21-1.39-1.66-2.91-2.74-3.71a45.13,45.13,0,0,1-8.74,3.77,25.13,25.13,0,0,0-13.46,1A22.23,22.23,0,0,0,300.12,311.31Z"/><path class="cls-16" d="M270.14,293.79a113,113,0,0,1-28.93,2.57c-7.24-4.83-17-8.78-25.37-6.34-3.74,1.08-7.84,5-9.4,8.55a79.82,79.82,0,0,0,11.9,1.32c0,3.63.64,4.71-3.43,7.43-.06.27-13.62-2.19-13.56-2.46-1,1.1-2.35,2.62-3.39,3.72a35.61,35.61,0,0,0,5.92,26.55c8.45,3.16,17.24,6.31,26.23,5.63,7.24-.55,14-3.54,20.86-6,8.58-3.08,19.1-7,28.1-8.43a103.17,103.17,0,0,0-4.8-23.92C273.27,299.43,271.39,296.67,270.14,293.79Z"/><path class="cls-17" d="M279.07,326.33a103.17,103.17,0,0,0-4.8-23.92,39.2,39.2,0,0,0-2.68-5.69A37,37,0,0,1,273.71,312a85.89,85.89,0,0,1-14.54,3.71c2.5,4.16,4.45,9.71,4.34,14.66A104.34,104.34,0,0,1,279.07,326.33Z"/><path class="cls-3" d="M234.78,320.44a31.67,31.67,0,0,1-3.38-8.75,72.53,72.53,0,0,1-33.52-2.57,35.65,35.65,0,0,0,6,26c8.45,3.16,17.24,6.31,26.23,5.63,7.24-.55,14-3.54,20.86-6,3.71-1.33,7.78-2.81,11.94-4.18a26,26,0,0,0-3.65-14.67A68.31,68.31,0,0,0,234.78,320.44Z"/><path class="cls-18" d="M197.88,309.12a35.2,35.2,0,0,0,1.68,17.64c10,3.26,21.05,1.65,31.18-1.34,9.64-2.84,19-6.88,28.76-9.09-.08-.14-.15-.29-.24-.42a68.31,68.31,0,0,0-24.48,4.53,31.67,31.67,0,0,1-3.38-8.75A72.53,72.53,0,0,1,197.88,309.12Z"/><path class="cls-17" d="M278,305.31a1.87,1.87,0,0,0,.08.34,80,80,0,0,1,3.94,19.8,41.2,41.2,0,0,0,17.82,1.5,88.51,88.51,0,0,0-3.17-20C290.35,306.44,284.49,306,278,305.31Z"/><path class="cls-19" d="M327.45,315.94c-4.76,1.81-9.6,3.44-14.45,5-.42,1-1.26,2.22-1.25,3.33a90.43,90.43,0,0,0,16-8.05A2.23,2.23,0,0,0,327.45,315.94Z"/><path class="cls-17" d="M311.75,324.26a1.83,1.83,0,0,0,0,.33,13.83,13.83,0,0,0,4,7,28.92,28.92,0,0,0,14-11.89,9.94,9.94,0,0,0-2.06-3.53A90.43,90.43,0,0,1,311.75,324.26Z"/><path class="cls-20" d="M324.13,300c-4.28,2.75-8.69,5.34-13.11,7.86-.2,1.07-.78,2.43-.54,3.51a90.4,90.4,0,0,0,14-11.16Z"/><path class="cls-17" d="M310.48,311.35a2,2,0,0,0,.09.33,13.82,13.82,0,0,0,5.31,6.07,28.9,28.9,0,0,0,11.3-14.53,10.07,10.07,0,0,0-2.74-3A90.4,90.4,0,0,1,310.48,311.35Z"/><path class="cls-21" d="M285,285a19.65,19.65,0,0,1,5.81,14.53,30.68,30.68,0,0,1-11.38-.43,16.91,16.91,0,0,1-3.3-7.18C278.07,288.86,281.76,286.54,285,285Z"/><path class="cls-17" d="M251.33,302.91h.26a69.31,69.31,0,0,0,21.93-2.39l-.36-.77a68.34,68.34,0,0,1-21.26,2.34,25.91,25.91,0,0,1-1.64-5.75l-.84,0a27.5,27.5,0,0,0,1.81,6.28Z"/><path class="cls-5" d="M259.29,315.37h-.22a71,71,0,0,0-24.07,4.5,32.88,32.88,0,0,1-2.87-8.48l-.08-.43-.42.09a63.86,63.86,0,0,1-33.7-2.25c-.05.28-.09.56-.13.83A64.66,64.66,0,0,0,231.38,312a35.42,35.42,0,0,0,3,8.63l.17.34.35-.13a70.07,70.07,0,0,1,23.94-4.58,20,20,0,0,1,3.63,14.5l.91-.3a19.74,19.74,0,0,0,.18-2.67,21.07,21.07,0,0,0-4.18-12.2Z"/><path class="cls-5" d="M208.87,318.73a34.84,34.84,0,0,0,2.25,8.24,10.46,10.46,0,0,1-6.27-1.26,29,29,0,0,1-1.91-7.58C204.66,318.44,207.1,318.6,208.87,318.73Z"/><path class="cls-22" d="M208.42,319.3a28.28,28.28,0,0,0,1.53,6.17,6.51,6.51,0,0,1-4.24-1,23.92,23.92,0,0,1-1.29-5.67A37.93,37.93,0,0,0,208.42,319.3Z"/><path class="cls-5" d="M262.79,325.72c-5.58.44-11,2.31-16.25,4.12-1.11.39-2.23.77-3.34,1.14-6,2-13.11,3.89-19.93,2.72-.79,2-1.62,4.53-1.4,6.61l-.55.06c-.24-2.27.68-5,1.52-7.08l.08-.22.23,0c6.76,1.23,13.84-.65,19.87-2.66l3.34-1.13c5.28-1.82,10.74-3.7,16.39-4.15Z"/><path class="cls-5" d="M296.81,307.4a87.67,87.67,0,0,1,3,19.55l.4,0c.62-.89,1.65-1.59,2.28-2.47a59.42,59.42,0,0,0-3-20.39l-.35-.05A37.38,37.38,0,0,1,296.81,307.4Z"/><path class="cls-23" d="M279.19,300.39c-.71.78-1.11,3.41-1.18,4.92,6.48.69,12.34,1.13,18.67,1.6.05.16.09.33.13.49a37.38,37.38,0,0,0,2.35-3.4C292.63,303,285.7,301.4,279.19,300.39Z"/><path class="cls-24" d="M209.51,296.52c3.29-4.54,9.56-6.13,15.1-5.24s10.51,3.82,15.23,6.85a189.85,189.85,0,0,0,29.47-1.77c.39,1,.78,2.37,1.17,3.36A76.2,76.2,0,0,1,238,301.61c-5.48-4.94-14.24-6.53-21.33-4.48C214.53,297.74,211.69,296.57,209.51,296.52Z"/><path class="cls-25" d="M284.86,286.31a28.1,28.1,0,0,0-7.46,5.78,9.42,9.42,0,0,0,1.71,3.07,44.55,44.55,0,0,1,9-4.31c.12-.09,0-.33-.14-.3s-.16.29,0,.33A33,33,0,0,0,284.86,286.31Z"/></g></g></svg>