<svg id="Layer_1" data-name="Layer 1" xmlns="http://www.w3.org/2000/svg" xmlns:xlink="http://www.w3.org/1999/xlink" viewBox="0 0 543.42 656.85"><defs><style>.cls-1{fill:#28262b;}.cls-2{fill:url(#linear-gradient);}.cls-3{fill:url(#linear-gradient-2);}.cls-4{fill:url(#linear-gradient-3);}.cls-5{fill:url(#linear-gradient-4);}.cls-6{fill:url(#linear-gradient-5);}.cls-7{fill:url(#linear-gradient-6);}.cls-8{fill:url(#linear-gradient-7);}.cls-9{fill:url(#linear-gradient-8);}.cls-10{fill:url(#linear-gradient-9);}.cls-11{fill:url(#linear-gradient-10);}.cls-12{fill:#202d3e;}.cls-13{fill:url(#linear-gradient-11);}.cls-14{fill:url(#linear-gradient-12);}.cls-15{fill:#a7bcd2;}.cls-16{fill:url(#linear-gradient-13);}.cls-17{fill:#aed1e0;}.cls-18{fill:url(#linear-gradient-14);}.cls-19{fill:url(#linear-gradient-15);}.cls-20{fill:url(#linear-gradient-16);}.cls-21{fill:url(#linear-gradient-17);}.cls-22{fill:url(#linear-gradient-18);}.cls-23{fill:url(#linear-gradient-19);}.cls-24{fill:url(#linear-gradient-20);}.cls-25{fill:url(#linear-gradient-21);}.cls-26{fill:url(#linear-gradient-22);}.cls-27{fill:url(#linear-gradient-23);}.cls-28{fill:url(#linear-gradient-24);}.cls-29{fill:url(#linear-gradient-25);}.cls-30{fill:#0f0d09;}.cls-31{fill:url(#linear-gradient-26);}.cls-32{fill:url(#linear-gradient-27);}.cls-33{fill:#7f97a8;}.cls-34{fill:url(#linear-gradient-28);}.cls-35{fill:#5a587c;}.cls-36{fill:#728bac;}.cls-37{fill:url(#linear-gradient-29);}.cls-38{fill:url(#linear-gradient-30);}.cls-39{fill:#cecdcd;}.cls-40{fill:url(#linear-gradient-31);}.cls-41{fill:#d7d7d7;}.cls-42{fill:url(#_ÂÁ_Ï_ÌÌ_È_ËÂÌÚ_4);}</style><linearGradient id="linear-gradient" x1="2310.55" y1="-3624.07" x2="2318.06" y2="-3632.81" gradientTransform="translate(-3499.27 -1770.63) rotate(86.47)" gradientUnits="userSpaceOnUse"><stop offset="0" stop-color="#7c5c45"/><stop offset="0.09" stop-color="#785841"/><stop offset="0.18" stop-color="#6e4c35"/><stop offset="0.28" stop-color="#5c3921"/><stop offset="0.28" stop-color="#5a371f"/><stop offset="0.53" stop-color="#5a371f"/><stop offset="0.75" stop-color="#7c5b44"/><stop offset="0.83" stop-color="#785740"/><stop offset="0.91" stop-color="#6c4b33"/><stop offset="1" stop-color="#59361e"/><stop offset="1" stop-color="#58351d"/></linearGradient><linearGradient id="linear-gradient-2" x1="2343.4" y1="-3630.45" x2="2343.4" y2="-3639.42" gradientTransform="translate(-3499.27 -1770.63) rotate(86.47)" gradientUnits="userSpaceOnUse"><stop offset="0" stop-color="#1e2933"/><stop offset="0.51" stop-color="#263841"/><stop offset="0.95" stop-color="#181e29"/></linearGradient><linearGradient id="linear-gradient-3" x1="2343.48" y1="-3643.49" x2="2343.49" y2="-3640.22" gradientTransform="translate(-3499.27 -1770.63) rotate(86.47)" gradientUnits="userSpaceOnUse"><stop offset="0" stop-color="#345055"/><stop offset="0.03" stop-color="#375359"/><stop offset="0.06" stop-color="#405c65"/><stop offset="0.09" stop-color="#4f6b79"/><stop offset="0.09" stop-color="#526f7e"/><stop offset="0.19" stop-color="#87a1c6"/><stop offset="0.24" stop-color="#849dc1"/><stop offset="0.31" stop-color="#7a93b4"/><stop offset="0.37" stop-color="#69819e"/><stop offset="0.44" stop-color="#52687f"/><stop offset="0.51" stop-color="#354857"/><stop offset="0.54" stop-color="#263843"/><stop offset="0.8" stop-color="#263841"/><stop offset="1" stop-color="#181e29"/></linearGradient><linearGradient id="linear-gradient-4" x1="2359.26" y1="-3638.84" x2="2359.28" y2="-3631.76" gradientTransform="translate(-3360.76 -1999.2) rotate(90)" gradientUnits="userSpaceOnUse"><stop offset="0" stop-color="#0d1d25"/><stop offset="0.08" stop-color="#364658"/><stop offset="0.16" stop-color="#556780"/><stop offset="0.22" stop-color="#697b98"/><stop offset="0.25" stop-color="#7082a1"/><stop offset="0.46" stop-color="#4e6178"/><stop offset="0.68" stop-color="#2e4151"/><stop offset="0.8" stop-color="#223542"/></linearGradient><linearGradient id="linear-gradient-5" x1="2339.99" y1="-3638.49" x2="2340.07" y2="-3630.72" gradientTransform="translate(-2067.25 3975.63)" gradientUnits="userSpaceOnUse"><stop offset="0" stop-color="#13262a"/><stop offset="0.03" stop-color="#13292e"/><stop offset="0.05" stop-color="#14343a"/><stop offset="0.08" stop-color="#16454e"/><stop offset="0.1" stop-color="#185c6b"/><stop offset="0.13" stop-color="#1b7b8f"/><stop offset="0.15" stop-color="#1d94ad"/><stop offset="0.39" stop-color="#002933"/><stop offset="0.48" stop-color="#052b35"/><stop offset="0.59" stop-color="#12303a"/><stop offset="0.69" stop-color="#263841"/><stop offset="1" stop-color="#181e29"/></linearGradient><linearGradient id="linear-gradient-6" x1="2339.99" y1="-3638.5" x2="2340.07" y2="-3630.97" gradientTransform="translate(-3499.27 -1770.63) rotate(86.47)" gradientUnits="userSpaceOnUse"><stop offset="0" stop-color="#16344e"/><stop offset="0.02" stop-color="#15425a"/><stop offset="0.06" stop-color="#116478"/><stop offset="0.09" stop-color="#0f798a"/><stop offset="0.11" stop-color="#0e8191"/><stop offset="0.25" stop-color="#34c1d3"/><stop offset="0.31" stop-color="#31bcce"/><stop offset="0.38" stop-color="#29afc1"/><stop offset="0.45" stop-color="#1b99ab"/><stop offset="0.52" stop-color="#097a8c"/><stop offset="0.54" stop-color="#026f81"/><stop offset="0.8" stop-color="#14435d"/><stop offset="1" stop-color="#181e29"/></linearGradient><linearGradient id="linear-gradient-7" x1="2341.98" y1="-3638.44" x2="2342.05" y2="-3630.69" gradientTransform="translate(-2069.15 3977.57)" xlink:href="#linear-gradient-5"/><linearGradient id="linear-gradient-8" x1="2341.98" y1="-3638.49" x2="2342.05" y2="-3630.97" xlink:href="#linear-gradient-6"/><linearGradient id="linear-gradient-9" x1="2355.99" y1="-3638.42" x2="2356.07" y2="-3630.66" gradientTransform="translate(-2082.33 3991.54)" xlink:href="#linear-gradient-5"/><linearGradient id="linear-gradient-10" x1="2355.99" y1="-3638.47" x2="2356.07" y2="-3630.95" xlink:href="#linear-gradient-6"/><linearGradient id="linear-gradient-11" x1="2337.35" y1="-3637.59" x2="2337.36" y2="-3631.18" xlink:href="#linear-gradient-3"/><linearGradient id="linear-gradient-12" x1="2348.84" y1="-3638.59" x2="2348.86" y2="-3631.02" xlink:href="#linear-gradient-3"/><linearGradient id="linear-gradient-13" x1="2334.72" y1="-3639.57" x2="2358.1" y2="-3639.57" gradientTransform="translate(-3499.27 -1770.63) rotate(86.47)" gradientUnits="userSpaceOnUse"><stop offset="0" stop-color="#93b2ce"/><stop offset="0.16" stop-color="#97b6d0"/><stop offset="0.32" stop-color="#a1c2d7"/><stop offset="0.45" stop-color="#aed1e0"/><stop offset="0.91" stop-color="#97bbd2"/></linearGradient><linearGradient id="linear-gradient-14" x1="2318.25" y1="-3639.48" x2="2318.13" y2="-3636.94" gradientTransform="translate(-3499.27 -1770.63) rotate(86.47)" gradientUnits="userSpaceOnUse"><stop offset="0" stop-color="#3e576c"/><stop offset="0.1" stop-color="#3d5468"/><stop offset="0.14" stop-color="#3d5264"/><stop offset="0.91" stop-color="#131c27"/></linearGradient><linearGradient id="linear-gradient-15" x1="2325.34" y1="-3642.83" x2="2324.96" y2="-3634.93" xlink:href="#linear-gradient-14"/><linearGradient id="linear-gradient-16" x1="2327.3" y1="-3642.6" x2="2327.33" y2="-3635.21" gradientTransform="translate(-3499.27 -1770.63) rotate(86.47)" gradientUnits="userSpaceOnUse"><stop offset="0.11" stop-color="#47586b"/><stop offset="0.34" stop-color="#435467"/><stop offset="0.56" stop-color="#38495b"/><stop offset="0.78" stop-color="#243547"/><stop offset="0.86" stop-color="#1c2d3e"/></linearGradient><linearGradient id="linear-gradient-17" x1="2320.93" y1="-3642.59" x2="2331.61" y2="-3638.06" gradientTransform="translate(-3499.27 -1770.63) rotate(86.47)" gradientUnits="userSpaceOnUse"><stop offset="0.11" stop-color="#cacaca"/><stop offset="0.19" stop-color="#cecece"/><stop offset="0.27" stop-color="#dadada"/><stop offset="0.35" stop-color="#eee"/><stop offset="0.4" stop-color="#fff"/><stop offset="0.71" stop-color="#46494d"/><stop offset="0.78" stop-color="#4e5155"/><stop offset="0.88" stop-color="#65686c"/><stop offset="0.97" stop-color="#808487"/></linearGradient><linearGradient id="linear-gradient-18" x1="2321.87" y1="-3642.64" x2="2332.33" y2="-3635.69" gradientTransform="translate(-3499.27 -1770.63) rotate(86.47)" gradientUnits="userSpaceOnUse"><stop offset="0" stop-color="#5c5851"/><stop offset="0.14" stop-color="#6b6a69"/><stop offset="0.27" stop-color="#6a6667"/><stop offset="0.36" stop-color="#675d61"/><stop offset="0.48" stop-color="#615859"/><stop offset="0.66" stop-color="#504942"/><stop offset="0.75" stop-color="#454033"/><stop offset="0.97" stop-color="#676b72"/></linearGradient><linearGradient id="linear-gradient-19" x1="2332.39" y1="-3634.66" x2="2332.38" y2="-3630.77" gradientTransform="translate(-3499.27 -1770.63) rotate(86.47)" gradientUnits="userSpaceOnUse"><stop offset="0.23" stop-color="#6c6a76"/><stop offset="0.39" stop-color="#696772"/><stop offset="0.55" stop-color="#605d66"/><stop offset="0.6" stop-color="#5c5961"/></linearGradient><linearGradient id="linear-gradient-20" x1="2324.92" y1="-3631.21" x2="2326.42" y2="-3633.91" gradientTransform="translate(-3499.27 -1770.63) rotate(86.47)" gradientUnits="userSpaceOnUse"><stop offset="0.02" stop-color="#473d3c"/><stop offset="0.16" stop-color="#534f52"/><stop offset="0.23" stop-color="#5b5a60"/><stop offset="0.38" stop-color="#59575c"/><stop offset="0.52" stop-color="#524d50"/><stop offset="0.66" stop-color="#473e3c"/></linearGradient><linearGradient id="linear-gradient-21" x1="2327.38" y1="-3637.88" x2="2323.01" y2="-3628.26" gradientTransform="translate(-3499.27 -1770.63) rotate(86.47)" gradientUnits="userSpaceOnUse"><stop offset="0.15" stop-color="#6c6a76"/><stop offset="0.27" stop-color="#696772"/><stop offset="0.38" stop-color="#605d66"/><stop offset="0.41" stop-color="#5c5961"/></linearGradient><linearGradient id="linear-gradient-22" x1="2324.74" y1="-3630.87" x2="2326.29" y2="-3636.82" gradientTransform="translate(-3499.27 -1770.63) rotate(86.47)" gradientUnits="userSpaceOnUse"><stop offset="0.41" stop-color="#473d3b"/><stop offset="0.69" stop-color="#473d3f"/><stop offset="0.97" stop-color="#453e4b"/><stop offset="1" stop-color="#453e4d"/></linearGradient><linearGradient id="linear-gradient-23" x1="2319.64" y1="-3631.42" x2="2329.78" y2="-3631.42" gradientTransform="translate(-3499.27 -1770.63) rotate(86.47)" gradientUnits="userSpaceOnUse"><stop offset="0.02" stop-color="#696772"/><stop offset="0.41" stop-color="#5b5a60"/><stop offset="0.55" stop-color="#5e5d64"/><stop offset="0.7" stop-color="#676770"/><stop offset="0.76" stop-color="#6c6c77"/></linearGradient><linearGradient id="linear-gradient-24" x1="2318.57" y1="-3631.02" x2="2330.42" y2="-3631.02" xlink:href="#linear-gradient-22"/><linearGradient id="linear-gradient-25" x1="2332.37" y1="-3634.66" x2="2332.36" y2="-3631.27" gradientTransform="translate(-3499.27 -1770.63) rotate(86.47)" gradientUnits="userSpaceOnUse"><stop offset="0.15" stop-color="#453e4d"/><stop offset="0.53" stop-color="#463e45"/><stop offset="0.81" stop-color="#473d3b"/></linearGradient><linearGradient id="linear-gradient-26" x1="2320.35" y1="-3642.15" x2="2327.14" y2="-3639.27" xlink:href="#linear-gradient-17"/><linearGradient id="linear-gradient-27" x1="2317.55" y1="-3641.69" x2="2317.55" y2="-3639.79" xlink:href="#linear-gradient-16"/><linearGradient id="linear-gradient-28" x1="2335.54" y1="-3638.65" x2="2357.39" y2="-3638.69" gradientTransform="translate(-3499.27 -1770.63) rotate(86.47)" gradientUnits="userSpaceOnUse"><stop offset="0" stop-color="#475e7f"/><stop offset="0.22" stop-color="#485d7b"/><stop offset="0.44" stop-color="#4a5b6f"/><stop offset="0.45" stop-color="#4a5b6e"/><stop offset="0.91" stop-color="#355565"/></linearGradient><linearGradient id="linear-gradient-29" x1="2345.91" y1="-3635.95" x2="2345.84" y2="-3629.97" gradientTransform="translate(-3499.27 -1770.63) rotate(86.47)" gradientUnits="userSpaceOnUse"><stop offset="0" stop-color="#344c61"/><stop offset="0.06" stop-color="#31495d"/><stop offset="0.11" stop-color="#284051"/><stop offset="0.14" stop-color="#223a49"/><stop offset="0.26" stop-color="#2f485b"/><stop offset="0.3" stop-color="#2e4456"/><stop offset="0.34" stop-color="#2c3749"/><stop offset="0.34" stop-color="#2c3648"/><stop offset="0.56" stop-color="#252f3a"/><stop offset="0.91" stop-color="#181e29"/></linearGradient><linearGradient id="linear-gradient-30" x1="2359.25" y1="-3638.89" x2="2359.27" y2="-3631.81" gradientTransform="translate(-3360.76 -1999.2) rotate(90)" gradientUnits="userSpaceOnUse"><stop offset="0" stop-color="#284554"/><stop offset="0.05" stop-color="#3f5a6a"/><stop offset="0.07" stop-color="#4e687a"/><stop offset="0.13" stop-color="#7b90a8"/><stop offset="0.15" stop-color="#8ca0ba"/><stop offset="0.18" stop-color="#869ab3"/><stop offset="0.23" stop-color="#76889f"/><stop offset="0.29" stop-color="#5b6c7f"/><stop offset="0.31" stop-color="#4c5c6d"/><stop offset="0.32" stop-color="#4b5a6b"/><stop offset="0.41" stop-color="#303c4b"/><stop offset="0.49" stop-color="#202a37"/><stop offset="0.55" stop-color="#1a2330"/><stop offset="1" stop-color="#223542"/></linearGradient><linearGradient id="linear-gradient-31" x1="2308.88" y1="-3627.12" x2="2313.36" y2="-3623.53" gradientTransform="translate(-3499.27 -1770.63) rotate(86.47)" gradientUnits="userSpaceOnUse"><stop offset="0" stop-color="#4c4852"/><stop offset="0.63" stop-color="#494450"/><stop offset="1" stop-color="#453e4d"/></linearGradient><linearGradient id="_ÂÁ_Ï_ÌÌ_È_ËÂÌÚ_4" x1="266.37" y1="332.7" x2="282.34" y2="332.7" gradientUnits="userSpaceOnUse"><stop offset="0.04" stop-color="#fff"/><stop offset="0.3" stop-color="#fbfbfb"/><stop offset="0.55" stop-color="#efefef"/><stop offset="0.7" stop-color="#e5e5e4"/><stop offset="0.8" stop-color="#dfdfde"/><stop offset="1" stop-color="#d7d7d7"/></linearGradient></defs><title>Master</title><path class="cls-1" d="M271,319.51a12.15,12.15,0,0,0-6.59-9.55l-3.53,5s5.11,2.15,5.5,6.74A43.85,43.85,0,0,0,271,319.51Z"/><path class="cls-2" d="M270.31,319.55s-.54-5.1-6.33-9.22l-2.67,3.59a9.17,9.17,0,0,1,5.56,7.77Z"/><path class="cls-3" d="M279.48,360.72l-.85.45-.66-.35-5.18-.6-2-1.23-2.52.16a.27.27,0,0,1-.34-.26c0-.35-1.39-21.13-1.39-21.13a.83.83,0,0,1,.25-.58c.23-.16.77-.43.87-.61s.21-.81.28-.89a1.13,1.13,0,0,1,.43-.2c.12,0,3.59-.22,3.59-.22l1.53-1.19,5-8.14,2.42,35.87Z"/><polygon class="cls-4" points="283.02 363.96 279.69 364.16 279.5 361.03 277.21 323.88 280.57 324.02 283.02 363.96"/><rect class="cls-5" x="270.83" y="358.76" width="7.46" height="2.62" transform="translate(-21.67 17.61) rotate(-3.53)"/><rect class="cls-6" x="271.66" y="336.81" width="2.25" height="8.2" transform="translate(596.22 47.63) rotate(86.47)"/><polygon class="cls-7" points="276.64 339.71 268.88 340.19 268.99 342.1 276.9 341.61 276.81 339.7 276.64 339.71"/><rect class="cls-8" x="272.23" y="338.79" width="1.27" height="8.2" transform="translate(598.28 49.41) rotate(86.47)"/><polygon class="cls-9" points="276.79 342.17 269.03 342.65 269.09 343.6 276.99 343.12 276.97 342.16 276.79 342.17"/><rect class="cls-10" x="272.82" y="352.78" width="1.77" height="8.2" transform="translate(613.03 61.7) rotate(86.47)"/><polygon class="cls-11" points="277.62 355.97 269.86 356.45 269.94 357.78 277.85 357.29 277.8 355.96 277.62 355.97"/><rect class="cls-12" x="268.92" y="336.84" width="6.75" height="2.84" transform="translate(-20.33 17.43) rotate(-3.53)"/><polygon class="cls-13" points="275.7 339.3 269 339.71 268.99 339.52 268.85 337.21 275.59 336.82 275.7 339.3"/><polygon class="cls-14" points="277.72 355.47 269.83 355.96 269.77 355.02 269.09 343.94 277.03 343.55 277.72 355.47"/><polygon class="cls-15" points="274.81 336.38 275.33 336.35 275.29 335.73 273.14 334.9 272.83 334.92 273.12 335.7 274.59 336.4 274.81 336.38"/><polygon class="cls-16" points="277.44 335.3 278.03 337.23 279.16 357.81 278.45 358.62 278.11 358.68 277.67 350.17 277.15 338.17 277.12 335.74 277.44 335.3"/><polygon class="cls-17" points="278.14 358.68 277.04 358.4 277.92 357.54 277 340.09 276.09 339.25 275.91 336.26 277.15 335.74 277.61 337.54 278.87 357.86 278.14 358.68"/><path class="cls-18" d="M276.22,316.28l-.44.27a6.7,6.7,0,0,1-2.15,4.31l0,.65a2.08,2.08,0,0,0,2.06-1.66A11.55,11.55,0,0,0,276.22,316.28Z"/><path class="cls-19" d="M280.16,322.7a14.05,14.05,0,0,1-1.51-6l-2.43-.39s-.15,3.83-2.62,5.23l.48,4.29L272,327.18l0,7.1.25,1.08.5-.67,3.74-1.14.13-7.8Z"/><path class="cls-20" d="M274.11,321.65l.47,4.24-2,1.56s-.14,5.7.34,7.23a6.65,6.65,0,0,1,2.27.42,2.51,2.51,0,0,0,2.13-.33l.11-6.48,1.31-1.39-1-5-1.72-.69s-.44-.51-.65-.45A9.79,9.79,0,0,0,274.11,321.65Z"/><polygon class="cls-21" points="282.3 322.86 281.61 321.06 281.33 321.41 273.84 327.67 273.72 332.98 275.81 333.04 276.03 332.73 276.29 327.95 282.3 322.86"/><polygon class="cls-22" points="281.33 321.41 281.89 322.79 276.07 327.83 275.81 333.04 273.72 332.98 273.84 327.67 281.33 321.41"/><polygon class="cls-23" points="272.12 331.2 272.37 335.36 268.31 335.61 268.07 331.72 272.12 331.2"/><path class="cls-1" d="M268.06,325.09l-.2.23,0,.65s.86-.06,1.09.14a1.64,1.64,0,0,1,.1,1.73l.45.18.23.21.19-.45-.31-1.49-.93-1Z"/><path class="cls-24" d="M270.51,326.24s-1.18-1.66-2.45-1.15l0,.65s1.29-.08,1.36,1-.15,1.09-.15,1.09l.44.19Z"/><path class="cls-1" d="M269,323.52l-.86.05s-.64,0-.83.49-.67-.39-.67-.39l.39-.68Z"/><path class="cls-1" d="M273.63,320.86a2.93,2.93,0,0,1-2.67-1.35l-.65,0-2.91,1.91-1,1.79,1.53.34s2,.52,2.22.94a2.35,2.35,0,0,1,.1,1.72c-.17.66-1.1,3.09-1.52,3.33s-1.29.08-1.61-1.62-.21-3.45.39-4.13l-1.1-.37-.57,1.33.95,4.91,1,1.67.44.19h.22l2.73-1.25.58-4.57,1.93-3.79Z"/><path class="cls-25" d="M272.3,327.21l1.85-1.41-.48-4.29-2.42-.72-1.09,3.31a1.7,1.7,0,0,1,.55,1.91c-.35,1.32-1,3.95-2.32,4.46l.07,1.08,3.21-.42a1.06,1.06,0,0,0,.58-1.11C272.2,329.16,272.3,327.21,272.3,327.21Z"/><path class="cls-26" d="M271.84,326.8l1.87-1.19-.24-3.88-2.19-.51-.7,2.64a3.1,3.1,0,0,1,.55,1.91,40.33,40.33,0,0,1-1.49,4,2.4,2.4,0,0,1-1,.92l0,.65,2.56-.59a.63.63,0,0,0,.6-.69C271.78,329.4,271.84,326.8,271.84,326.8Z"/><path class="cls-27" d="M271,320.8l-1.34,2.89-1.34-.78a1.13,1.13,0,0,0-1.06.29,4.84,4.84,0,0,0-1,1.57c0,.21.94,4.69,1.18,5.11a1.54,1.54,0,0,0,.69.6v.22l-.42.24-.91-.81-1.07-3.39-.14-2.15,1-1.79,1.67-1,2.3-1.22Z"/><path class="cls-28" d="M268.19,330.7s-.86.05-1.15-1.22S265.9,325,265.9,325s0-.65.16-.87l1.21-1.37a1.19,1.19,0,0,1,1.29-.08,9.49,9.49,0,0,0,1.12.57l.91-2.64-.28-1.07L267,321.49l-.63.25a7.24,7.24,0,0,1-.91,2.65c-.61.69,1.24,6.19,1.24,6.19s1.14,1,1.57,1Z"/><polygon class="cls-29" points="271.7 331.59 271.9 334.72 271.91 334.98 268.68 335.18 268.53 331.95 271.7 331.59"/><path class="cls-30" d="M275.08,330.92l.1-2.42s.06-.42-.16-.46-.26.19-.27.37-.08,2.54-.08,2.54a.65.65,0,0,0-.49.66.66.66,0,0,0,.65.7.63.63,0,0,0,.62-.65A.89.89,0,0,0,275.08,330.92Z"/><polygon class="cls-31" points="273.84 327.67 281.61 321.06 281.33 321.41 273.84 327.67"/><polygon class="cls-32" points="277.97 316.58 277.3 319.76 276.5 319.49 277.1 316.47 277.97 316.58"/><path class="cls-33" d="M278.54,317l.2,4.3a3,3,0,0,0,.32.77,1.49,1.49,0,0,1-.53-.84c0-.49-.26-4.21-.26-4.21Z"/><polygon class="cls-34" points="277.99 358.69 276.88 358.4 277.76 357.55 276.84 340.1 275.94 339.25 275.75 336.27 277 335.75 277.46 337.55 278.72 357.87 277.99 358.69"/><polygon class="cls-35" points="280.63 330.28 277.36 330.39 277.26 333.01 280.79 332.8 280.63 330.28"/><polygon class="cls-36" points="281.28 330.28 281.43 332.73 280.79 332.8 280.63 330.28 281.28 330.28"/><polygon class="cls-35" points="282.44 358.4 278.45 358.56 278.63 361.17 282.6 360.92 282.44 358.4"/><polygon class="cls-36" points="283.1 358.41 283.25 360.86 282.6 360.92 282.44 358.4 283.1 358.41"/><path class="cls-37" d="M274.8,336.25l0-.55-1.93-.78-1,.79-3.81.23-.26,1-1,.61,1.31,21.28s.82.14,1-.29-1.23-20.48-1.23-20.48.48-1,1.21-1.2a6.33,6.33,0,0,1,1.26-.19l4.5-.28Z"/><rect class="cls-38" x="270.88" y="358.9" width="7.46" height="2.31" transform="translate(-21.67 17.61) rotate(-3.53)"/><polygon class="cls-39" points="264.55 310.02 260.87 314.94 259.88 314.16 263.22 308.85 264.55 310.02"/><polygon class="cls-40" points="264.36 309.97 260.83 315.01 259.84 314.24 263.19 309.12 264.36 309.97"/><path class="cls-41" d="M266.34,331.76a53.18,53.18,0,0,0,16-2.38v4.36s-8.28,2-15.62,1.16Z"/><path class="cls-42" d="M266.37,332.22a53.26,53.26,0,0,0,16-2.38v4.36s-8.29,2-15.63,1.16Z"/></svg>