<svg xmlns="http://www.w3.org/2000/svg" xmlns:xlink="http://www.w3.org/1999/xlink" viewBox="0 0 543.42 656.85"><defs><style>.cls-1{isolation:isolate;}.cls-2{fill:#2b3e51;}.cls-3{fill:url(#_ÂÁ_Ï_ÌÌ_È_ËÂÌÚ_3);}.cls-4{fill:url(#_ÂÁ_Ï_ÌÌ_È_ËÂÌÚ_5);}.cls-5{fill:#d3d3d3;}.cls-6{fill:#99999a;}.cls-10,.cls-7{mix-blend-mode:screen;}.cls-7{fill:url(#_ÂÁ_Ï_ÌÌ_È_ËÂÌÚ_40);}.cls-8{fill:url(#_ÂÁ_Ï_ÌÌ_È_ËÂÌÚ_4);}.cls-9{fill:#d7d7d7;}.cls-10{fill:url(#_ÂÁ_Ï_ÌÌ_È_ËÂÌÚ_40-2);}.cls-11{fill:#818081;}.cls-12{fill:#e2f2ef;}.cls-13{fill:#f0efef;}.cls-14{fill:url(#_ÂÁ_Ï_ÌÌ_È_ËÂÌÚ_3-2);}</style><linearGradient id="_ÂÁ_Ï_ÌÌ_È_ËÂÌÚ_3" x1="368.39" y1="326.6" x2="338.69" y2="341.36" gradientUnits="userSpaceOnUse"><stop offset="0" stop-color="#fff"/><stop offset="0.84" stop-color="#e9e8e7"/></linearGradient><linearGradient id="_ÂÁ_Ï_ÌÌ_È_ËÂÌÚ_5" x1="364.71" y1="300.04" x2="353.32" y2="348.61" gradientUnits="userSpaceOnUse"><stop offset="0" stop-color="#fff"/><stop offset="0.48" stop-color="#eee"/><stop offset="1" stop-color="#d7d7d7"/></linearGradient><linearGradient id="_ÂÁ_Ï_ÌÌ_È_ËÂÌÚ_40" x1="359.31" y1="299.85" x2="357.63" y2="361.12" gradientUnits="userSpaceOnUse"><stop offset="0.17" stop-color="#beb48e"/><stop offset="0.26" stop-color="#b4ab87"/><stop offset="0.41" stop-color="#9a9273"/><stop offset="0.6" stop-color="#6f6953"/><stop offset="0.82" stop-color="#343127"/><stop offset="1" stop-color="#010101"/></linearGradient><linearGradient id="_ÂÁ_Ï_ÌÌ_È_ËÂÌÚ_4" x1="81.44" y1="-615.26" x2="91.07" y2="-562.72" gradientTransform="translate(362.43 845.64) rotate(-10.74)" gradientUnits="userSpaceOnUse"><stop offset="0.04" stop-color="#fff"/><stop offset="0.3" stop-color="#fbfbfb"/><stop offset="0.55" stop-color="#efefef"/><stop offset="0.7" stop-color="#e5e5e4"/><stop offset="0.8" stop-color="#dfdfde"/><stop offset="1" stop-color="#d7d7d7"/></linearGradient><linearGradient id="_ÂÁ_Ï_ÌÌ_È_ËÂÌÚ_40-2" x1="83.48" y1="-615.65" x2="87.05" y2="-570.56" gradientTransform="translate(362.43 845.64) rotate(-10.74)" xlink:href="#_ÂÁ_Ï_ÌÌ_È_ËÂÌÚ_40"/><linearGradient id="_ÂÁ_Ï_ÌÌ_È_ËÂÌÚ_3-2" x1="59.75" y1="-2372.91" x2="36.81" y2="-2347.45" gradientTransform="translate(1693.05 2309.43) rotate(-36)" xlink:href="#_ÂÁ_Ï_ÌÌ_È_ËÂÌÚ_3"/></defs><title>Master</title><g class="cls-1"><g id="Layer_1" data-name="Layer 1"><path class="cls-2" d="M350.49,317.6a201.72,201.72,0,0,0-6.9-43.48,25,25,0,0,0-12.47,2.95,148.26,148.26,0,0,1,6.09,36.44,19,19,0,0,0,9.4,6.29,4.37,4.37,0,0,0,2.05.22A3.56,3.56,0,0,0,350.49,317.6Z"/><path class="cls-3" d="M359.15,361.7c1.54-6.88,2-14.16,4.29-20.81A47.27,47.27,0,0,0,360,303.05a24,24,0,0,0-11,1.9,22.4,22.4,0,0,1-1.15,14.16,10,10,0,0,1-6.23-4.69,27.29,27.29,0,0,1-3.28-7.38,24.31,24.31,0,0,0-14.14,13.9A49.71,49.71,0,0,0,333,341.86a153.15,153.15,0,0,1-.11,19.28c-.16,3.19,2.84,6.39,5.93,7.2s16.15-.18,17.49-1.13S358.79,363.31,359.15,361.7Z"/><path class="cls-4" d="M355.41,303.19a57.65,57.65,0,0,1,1.44,29.63,15.7,15.7,0,0,1,3.82,2.74A36.32,36.32,0,0,1,357.24,350l.36.25c1.13.77,2.08,1.62,3.19,2.23a67.11,67.11,0,0,1,2.65-11.56A47.27,47.27,0,0,0,360,303.05,20.19,20.19,0,0,0,355.41,303.19Z"/><path class="cls-5" d="M344.54,356a169.72,169.72,0,0,1,2.26-22.94,32.83,32.83,0,0,1-2.61-11.67,14.34,14.34,0,0,0,4.09-2.34c0-.19-.09-.4-.14-.61-.08.22-.16.45-.25.67a10,10,0,0,1-6.23-4.69,27.29,27.29,0,0,1-3.28-7.38,24.31,24.31,0,0,0-14.14,13.9A49.71,49.71,0,0,0,333,341.86a153.15,153.15,0,0,1-.11,19.28c-.16,3.19,2.84,6.39,5.93,7.2s16.15-.18,17.49-1.13a6.4,6.4,0,0,0,1.76-2.45A32.7,32.7,0,0,0,344.54,356Z"/><path class="cls-6" d="M333.42,351l-.26-.48a22.35,22.35,0,0,1,6.41-2.37c.13-1.93.25-3.92.38-5.91s.25-4,.37-6a34,34,0,0,1-6.26-10.1,23.59,23.59,0,0,0-7.3,3.43l-.32-.45a24.49,24.49,0,0,1,7.72-3.58l.24-.06.08.23a33.32,33.32,0,0,0,6.33,10.24l.08.09v.12c-.13,2-.26,4.06-.39,6.12s-.25,4.14-.38,6.13v.22l-.22,0A21.61,21.61,0,0,0,333.42,351Z"/><path class="cls-6" d="M361,352.77a7.69,7.69,0,0,1-3.88-2.23l-.23-.2.12-.27a40.66,40.66,0,0,0,3.27-13.85l0-.6a11.94,11.94,0,0,0-3.4-2.28l-.3-.13.06-.32a67.64,67.64,0,0,0-1.52-29.81l.8-.22a68.77,68.77,0,0,1,1.59,29.86,12.7,12.7,0,0,1,3.48,2.44l.13.13,0,1a41.1,41.1,0,0,1-3.22,13.85,6.59,6.59,0,0,0,3.21,1.84Z"/><path class="cls-7" d="M358,360.78c-1.5-1.11-3.12-2-4.62-3.09,2.45-7.92,3.22-16.38,3.49-24.66a88.16,88.16,0,0,0-3.37-27.17,13.53,13.53,0,0,1,5.91-1.42,46.62,46.62,0,0,1,2,36.91C360.29,347.6,359.36,354.58,358,360.78Z"/><path class="cls-8" d="M339.37,231.75a110.56,110.56,0,0,0-20.17.8s-.06,0,0,0c11.21,13.18,17.52,27.55,23.17,43.77a60.16,60.16,0,0,0,9.53-6.71C350.68,255.55,347.07,243.68,339.37,231.75Z"/><path class="cls-9" d="M351,261.1a43.06,43.06,0,0,1-9.15.08c-.05,0-.21,0-.26,0a.67.67,0,0,1-.06-.27c-2.57-10.91-7.23-19.83-13.9-28.81l.63-.49a77,77,0,0,1,14.06,28.78,44.55,44.55,0,0,0,8.28,0l.26,0c.43.13.19.69.16.78S351,261.1,351,261.1Z"/><path class="cls-10" d="M350.64,267a83.41,83.41,0,0,0-11.47-34.3,115.21,115.21,0,0,0-18,.23A57.16,57.16,0,0,1,337,236.59,90.17,90.17,0,0,1,350.64,267Z"/><path class="cls-5" d="M331.45,377.79c3.43.36,8.51,1.66,11.89,2.36,7.78-5.81,16.49-14.26,23-20.88a87.26,87.26,0,0,0-15.18-2.2Z"/><path class="cls-2" d="M343.43,360.82a7.6,7.6,0,0,1,3.37-2.52,36.22,36.22,0,0,1,11.47,8.35,20.26,20.26,0,0,1-3.55,13.5,30.51,30.51,0,0,1-11,9.21,45.29,45.29,0,0,1-7.29-10.68l.19,0c.56-.66,1-1.46,1.52-2.11-1.06-2.08-2-3.87-3.06-5.95A47.47,47.47,0,0,1,343.43,360.82Z"/><polygon class="cls-11" points="395.01 313.34 380.08 307.41 382.86 323.3 395.01 313.34"/><polygon class="cls-5" points="380.08 307.41 395.01 313.34 389.1 318.18 380.08 307.41"/><polygon class="cls-12" points="395.65 312.68 377.95 304.68 381.91 323.91 382.86 323.3 380.08 307.41 395.01 313.34 395.65 312.68"/><polygon class="cls-11" points="413.03 336.47 415.13 352.4 400.41 345.82 413.03 336.47"/><polygon class="cls-5" points="415.13 352.4 413.03 336.47 406.9 341.02 415.13 352.4"/><polygon class="cls-12" points="413.83 336.01 417.26 355.14 399.58 346.59 400.41 345.82 415.13 352.4 413.03 336.47 413.83 336.01"/><polygon class="cls-13" points="393.95 351.05 376.25 328.32 399.64 309.22 418.2 333.04 393.95 351.05"/><polygon class="cls-6" points="412.44 327.77 401.62 334.61 386.54 335.62 377.89 328.15 394.31 349.23 416.31 332.74 412.44 327.77"/><polygon class="cls-5" points="365.83 364.09 356.72 352.4 380.32 333.56 389.87 345.81 365.83 364.09"/><polygon class="cls-11" points="327.64 387.68 324.51 383.67 353.96 359.55 358.22 365.03 327.64 387.68"/><polygon class="cls-5" points="362.7 370.78 349.47 353.8 354.34 349.34 368.22 367.15 362.7 370.78"/><polygon class="cls-5" points="323.46 393.03 318.31 386.41 323.37 382.2 328.78 389.14 323.46 393.03"/><rect class="cls-12" x="390.89" y="322.8" width="13.91" height="13.91" transform="translate(752.03 706.01) rotate(-172.92)"/><rect class="cls-11" x="392.04" y="323.95" width="11.61" height="11.61" transform="translate(774.1 -24.44) rotate(97.08)"/><polygon class="cls-5" points="397.84 329.76 392.11 334.22 402.17 335.77 397.84 329.76"/><polygon class="cls-5" points="403.79 325.12 393.41 323.7 397.84 329.76 403.79 325.12"/><polygon class="cls-6" points="378.77 334.8 381.67 341.81 361.99 359.05 363.79 361.36 385.4 345.96 387.62 347.53 389.87 345.81 380.32 333.56 378.77 334.8"/><path class="cls-5" d="M337.69,375.84a10.54,10.54,0,0,0-4.47,4.54A32.52,32.52,0,0,0,340.35,393c.71-.25,2.12-.78,2.14-.75a19.88,19.88,0,0,0,7.29-4.4,74,74,0,0,0-9.63-12.26Z"/><path class="cls-5" d="M337.19,375.71a28.85,28.85,0,0,1,9.1-9.95c-.39-2.43-1.08-5.2-3-6.63l-2.59-.26a27.32,27.32,0,0,0-9.3,11.71,11.59,11.59,0,0,0,3.25,5.3Z"/><path class="cls-5" d="M343,369.11a16.11,16.11,0,0,0-2.08,2.21,5.53,5.53,0,0,0-1.27,2.74,44.71,44.71,0,0,0,12.06,11.57l1.86-.69a20.64,20.64,0,0,0,5.89-8.08c-3.85-3.52-8.92-6.84-14.08-7.83Z"/><path class="cls-14" d="M347.83,388.6a19.8,19.8,0,0,1-7.48,4.43,32.52,32.52,0,0,1-7.13-12.65,10.54,10.54,0,0,1,4.47-4.54A80.85,80.85,0,0,1,347.83,388.6ZM343,369.11a16.11,16.11,0,0,0-2.08,2.21,5.53,5.53,0,0,0-1.27,2.74,44.71,44.71,0,0,0,12.06,11.57,20.6,20.6,0,0,0,6-8.25C353.68,373.7,348.38,370.21,343,369.11Zm-2.35-10.24a27.32,27.32,0,0,0-9.3,11.71,11.59,11.59,0,0,0,3.25,5.3,28.63,28.63,0,0,1,9.28-10.13C343.46,363.25,342.71,360.38,340.67,358.87Z"/><path class="cls-9" d="M310.2,243.32a94.17,94.17,0,0,1,11.44,4.06c7.31,9.14,9.54,21.14,8.12,34.33a73.45,73.45,0,0,0,12.57-5.34c-5.66-16.22-11.95-30.59-23.18-43.77A87.62,87.62,0,0,0,310,242.94Z"/></g></g></svg>