<svg xmlns="http://www.w3.org/2000/svg" xmlns:xlink="http://www.w3.org/1999/xlink" viewBox="0 0 543.42 656.85"><defs><style>.cls-1{isolation:isolate;}.cls-2{fill:#2b3e51;}.cls-3{fill:url(#_ÂÁ_Ï_ÌÌ_È_ËÂÌÚ_4);}.cls-4{fill:#d7d7d7;}.cls-13,.cls-5{mix-blend-mode:screen;}.cls-5{fill:url(#_ÂÁ_Ï_ÌÌ_È_ËÂÌÚ_40);}.cls-6{fill:#99999a;}.cls-7{fill:#7d7c7c;}.cls-8{fill:#c0bebe;}.cls-9{fill:url(#_ÂÁ_Ï_ÌÌ_È_ËÂÌÚ_5);}.cls-10{fill:url(#_ÂÁ_Ï_ÌÌ_È_ËÂÌÚ_3);}.cls-11{fill:url(#_ÂÁ_Ï_ÌÌ_È_ËÂÌÚ_5-2);}.cls-12{fill:#d3d3d3;}.cls-13{fill:url(#_ÂÁ_Ï_ÌÌ_È_ËÂÌÚ_40-2);}.cls-14{fill:url(#_ÂÁ_Ï_ÌÌ_È_ËÂÌÚ_3-2);}</style><linearGradient id="_ÂÁ_Ï_ÌÌ_È_ËÂÌÚ_4" x1="49.83" y1="-275.08" x2="59.47" y2="-222.54" gradientTransform="translate(330.49 505.44) rotate(-10.74)" gradientUnits="userSpaceOnUse"><stop offset="0.04" stop-color="#fff"/><stop offset="0.3" stop-color="#fbfbfb"/><stop offset="0.55" stop-color="#efefef"/><stop offset="0.7" stop-color="#e5e5e4"/><stop offset="0.8" stop-color="#dfdfde"/><stop offset="1" stop-color="#d7d7d7"/></linearGradient><linearGradient id="_ÂÁ_Ï_ÌÌ_È_ËÂÌÚ_40" x1="51.87" y1="-275.47" x2="55.44" y2="-230.38" gradientTransform="translate(330.49 505.44) rotate(-10.74)" gradientUnits="userSpaceOnUse"><stop offset="0.17" stop-color="#beb48e"/><stop offset="0.26" stop-color="#b4ab87"/><stop offset="0.41" stop-color="#9a9273"/><stop offset="0.6" stop-color="#6f6953"/><stop offset="0.82" stop-color="#343127"/><stop offset="1" stop-color="#010101"/></linearGradient><linearGradient id="_ÂÁ_Ï_ÌÌ_È_ËÂÌÚ_5" x1="86.84" y1="3413.19" x2="38.9" y2="3349.45" gradientTransform="matrix(0.91, -0.41, -0.41, -0.91, 1700.93, 3289.03)" gradientUnits="userSpaceOnUse"><stop offset="0" stop-color="#fff"/><stop offset="0.48" stop-color="#eee"/><stop offset="1" stop-color="#d7d7d7"/></linearGradient><linearGradient id="_ÂÁ_Ï_ÌÌ_È_ËÂÌÚ_3" x1="-62.96" y1="-1402.89" x2="-92.66" y2="-1388.14" gradientTransform="matrix(0.93, -0.37, -0.37, -0.93, -102.86, -1040.58)" gradientUnits="userSpaceOnUse"><stop offset="0" stop-color="#fff"/><stop offset="0.84" stop-color="#e9e8e7"/></linearGradient><linearGradient id="_ÂÁ_Ï_ÌÌ_È_ËÂÌÚ_5-2" x1="-66.64" y1="-1429.45" x2="-78.03" y2="-1380.88" gradientTransform="matrix(0.93, -0.37, -0.37, -0.93, -102.86, -1040.58)" xlink:href="#_ÂÁ_Ï_ÌÌ_È_ËÂÌÚ_5"/><linearGradient id="_ÂÁ_Ï_ÌÌ_È_ËÂÌÚ_40-2" x1="-72.94" y1="-1431.11" x2="-74.62" y2="-1369.84" gradientTransform="matrix(0.93, -0.37, -0.37, -0.93, -102.86, -1040.58)" xlink:href="#_ÂÁ_Ï_ÌÌ_È_ËÂÌÚ_40"/><linearGradient id="_ÂÁ_Ï_ÌÌ_È_ËÂÌÚ_3-2" x1="304.69" y1="247.68" x2="328.76" y2="247.68" gradientTransform="matrix(1, 0, 0, 1, 0, 0)" xlink:href="#_ÂÁ_Ï_ÌÌ_È_ËÂÌÚ_3"/></defs><title>Master</title><g class="cls-1"><g id="Layer_1" data-name="Layer 1"><path class="cls-2" d="M350.9,317.53a201.62,201.62,0,0,0-6.9-43.48A25,25,0,0,0,331.53,277a148.18,148.18,0,0,1,6.09,36.44,19,19,0,0,0,9.41,6.28,4.34,4.34,0,0,0,2.05.23A3.52,3.52,0,0,0,350.9,317.53Z"/><path class="cls-3" d="M339.78,231.68a108.7,108.7,0,0,0-20.16.8s-.06,0-.05.05c11.22,13.17,17.52,27.55,23.17,43.77a60.41,60.41,0,0,0,9.53-6.72C351.09,255.47,347.48,243.61,339.78,231.68Z"/><path class="cls-4" d="M305.51,250a180.13,180.13,0,0,0,20.66,32.8,75.75,75.75,0,0,0,16.57-6.52c-5.65-16.22-11.94-30.59-23.18-43.78A86.85,86.85,0,0,0,305.51,250Z"/><path class="cls-4" d="M351.38,261a43,43,0,0,1-9.14.08c-.06,0-.22,0-.26,0s-.05-.2-.07-.27C339.34,249.89,334.68,241,328,232l.62-.49a76.74,76.74,0,0,1,14.06,28.77,43.8,43.8,0,0,0,8.29,0c1.12-.12.24,0,.26,0,.43.12.19.68.15.78S351.39,261,351.38,261Z"/><path class="cls-5" d="M351.05,267a83.25,83.25,0,0,0-11.46-34.29,114,114,0,0,0-18,.22,57.53,57.53,0,0,1,15.87,3.63A90,90,0,0,1,351.05,267Z"/><polygon class="cls-6" points="301.34 258.4 306.15 262.56 338.11 227.36 331.55 221.69 301.34 258.4"/><polygon class="cls-4" points="294.4 263.28 302.33 270.13 307.9 264.08 299.59 256.89 294.4 263.28"/><polygon class="cls-7" points="334.99 230.8 330.69 230.63 303.74 260.49 302.1 259.07 328.67 228.34 328.6 225.28 331.55 221.69 338.11 227.36 334.99 230.8"/><polygon class="cls-8" points="349.68 235.67 321.23 212.46 322.85 207.36 351.05 230.31 349.68 235.67"/><polygon class="cls-4" points="360.54 213.84 357.81 218.54 337.28 202.62 339.65 197.84 360.54 213.84"/><polygon class="cls-4" points="419.18 151.03 356.39 214.68 340.82 202.83 388.49 143.22 419.18 151.03"/><polygon class="cls-8" points="414.71 152.48 389.55 146.72 342.47 203.91 354.92 213.56 414.71 152.48"/><polygon class="cls-8" points="357.81 218.54 354.25 222.41 340.06 222.62 334.5 205.65 337.28 202.62 357.81 218.54"/><polygon class="cls-7" points="339.65 197.84 336.15 201.64 334.5 205.65 337.28 202.62 339.65 197.84"/><polygon class="cls-6" points="351.96 222.44 344.59 229.98 326.69 215.31 334.71 206.28 340.06 222.62 351.96 222.44"/><polygon class="cls-7" points="326.69 215.31 334.71 206.28 334.5 205.65 335.72 202.69 327.45 212.25 326.69 215.31"/><polygon class="cls-4" points="349.68 235.67 346.86 237.34 319.13 214.37 321.23 212.46 349.68 235.67"/><polygon class="cls-7" points="322.85 207.36 321.23 212.46 319.13 214.37 320.51 210.07 322.85 207.36"/><path class="cls-9" d="M371.15,197l-2.88-24.41,10.52-12.78,7.78,21.44ZM403,164.47,383.8,153.7l-3,3.76,7.8,21.69Z"/><polygon class="cls-7" points="351.96 222.44 340.06 222.62 334.71 206.28 333.18 208.06 338.87 223.75 351.96 222.44"/><path class="cls-10" d="M338.25,256.14c4,5.82,7.07,12.42,11.71,17.73a47.21,47.21,0,0,1,10.89,36.4,24,24,0,0,1-10.9,2.32,22.51,22.51,0,0,0-6.33-12.72,10,10,0,0,0-4.05,6.67,27.93,27.93,0,0,0-.3,8.06A24.27,24.27,0,0,1,321,307a49.75,49.75,0,0,1,.36-22.67,152.5,152.5,0,0,0-7.26-17.86c-1.33-2.9.26-7,2.82-8.89s15.07-5.83,16.67-5.45S337.32,254.78,338.25,256.14Z"/><path class="cls-11" d="M356.51,311.85a57.55,57.55,0,0,0-9.67-28,15.87,15.87,0,0,0,2.53-4,36.18,36.18,0,0,0-8.54-12.11l.25-.36c.76-1.14,1.33-2.27,2.13-3.26a66.54,66.54,0,0,0,6.75,9.75,47.21,47.21,0,0,1,10.89,36.4A19.6,19.6,0,0,1,356.51,311.85Z"/><path class="cls-12" d="M326.8,266.86a171,171,0,0,0,10.62,20.47,32.6,32.6,0,0,0,1.92,11.79,14.72,14.72,0,0,1,4.66.66c0,.2.07.41.1.62-.16-.18-.31-.36-.48-.53a10,10,0,0,0-4.05,6.67,27.93,27.93,0,0,0-.3,8.06A24.27,24.27,0,0,1,321,307a49.75,49.75,0,0,1,.36-22.67,152.5,152.5,0,0,0-7.26-17.86c-1.33-2.9.26-7,2.82-8.89s15.07-5.83,16.67-5.45a6.64,6.64,0,0,1,2.55,1.62A32.85,32.85,0,0,1,326.8,266.86Z"/><path class="cls-6" d="M318.35,275.66l-.07.55a22.38,22.38,0,0,0,6.84-.18c.83,1.74,1.69,3.54,2.54,5.34s1.74,3.67,2.59,5.44a33.62,33.62,0,0,0-2.06,11.71,23.82,23.82,0,0,1-8.07-.48l-.12.54a24.3,24.3,0,0,0,8.5.45l.24,0v-.24a33,33,0,0,1,2.06-11.86l0-.11,0-.11c-.86-1.8-1.75-3.67-2.63-5.54l-2.64-5.55-.09-.19-.21,0A21,21,0,0,1,318.35,275.66Z"/><path class="cls-6" d="M343,263.58a7.67,7.67,0,0,0-2.78,3.51l-.13.26.2.21a40.26,40.26,0,0,1,8.18,11.65l.25.55a11.87,11.87,0,0,1-2.31,3.38l-.23.23.17.28A67.54,67.54,0,0,1,356,311.88l.82-.09a68.52,68.52,0,0,0-9.62-28.31,12.81,12.81,0,0,0,2.33-3.56l.07-.16-.4-.89A41,41,0,0,0,341,267.2a6.51,6.51,0,0,1,2.3-2.9Z"/><path class="cls-13" d="M337,259.22c-1.36,1.74-2.95,3.31-4.31,5,5.83,6.19,9.89,13.68,13.28,21.24a70.59,70.59,0,0,1,6.12,26.82,21.29,21.29,0,0,0,7.5-1.47,37.77,37.77,0,0,0-11.4-35.2C344.6,270.37,340.92,264.32,337,259.22Z"/><polygon class="cls-14" points="304.69 249.76 311.76 259.92 325.44 252.23 328.76 250.36 314.31 235.44 312.64 237.92 304.69 249.76"/><polygon class="cls-12" points="304.69 249.76 305.27 252.98 311.62 261.88 311.76 259.92 304.69 249.76"/><polygon class="cls-12" points="328.76 250.36 328.02 253.21 311.62 261.88 311.76 259.92 328.76 250.36"/></g></g></svg>