<svg xmlns="http://www.w3.org/2000/svg" xmlns:xlink="http://www.w3.org/1999/xlink" viewBox="0 0 543.42 656.85"><defs><style>.cls-1{isolation:isolate;}.cls-2{fill:#2b3e51;}.cls-3{fill:url(#_ÂÁ_Ï_ÌÌ_È_ËÂÌÚ_3);}.cls-4{fill:url(#_ÂÁ_Ï_ÌÌ_È_ËÂÌÚ_5);}.cls-5{fill:#d3d3d3;}.cls-6{fill:#99999a;}.cls-44,.cls-7{mix-blend-mode:screen;}.cls-7{fill:url(#_ÂÁ_Ï_ÌÌ_È_ËÂÌÚ_40);}.cls-8{fill:url(#linear-gradient);}.cls-9{fill:url(#linear-gradient-2);}.cls-10{fill:url(#linear-gradient-3);}.cls-11{fill:url(#linear-gradient-4);}.cls-12{fill:url(#linear-gradient-5);}.cls-13{fill:url(#linear-gradient-6);}.cls-14{fill:url(#linear-gradient-7);}.cls-15{fill:url(#linear-gradient-8);}.cls-16{fill:#f9faf2;}.cls-17{fill:url(#linear-gradient-9);}.cls-18{fill:url(#linear-gradient-10);}.cls-19{fill:url(#linear-gradient-11);}.cls-20{fill:url(#linear-gradient-12);}.cls-21{fill:url(#linear-gradient-13);}.cls-22{fill:url(#linear-gradient-14);}.cls-23{fill:url(#linear-gradient-15);}.cls-24{fill:url(#linear-gradient-16);}.cls-25{fill:url(#linear-gradient-17);}.cls-26{fill:url(#linear-gradient-18);}.cls-27{fill:#372e1e;}.cls-28{fill:#262225;}.cls-29{fill:#c87a29;}.cls-30{fill:url(#linear-gradient-19);}.cls-31{fill:url(#linear-gradient-20);}.cls-32{fill:url(#_ÂÁ_Ï_ÌÌ_È_ËÂÌÚ_160);}.cls-33{fill:#5b3f1a;}.cls-34{fill:#947f2f;}.cls-35{fill:#cdac46;}.cls-36{fill:url(#linear-gradient-21);}.cls-37{fill:url(#linear-gradient-22);}.cls-38{fill:#52554c;}.cls-39{fill:url(#linear-gradient-23);}.cls-40{fill:url(#linear-gradient-24);}.cls-41{fill:url(#linear-gradient-25);}.cls-42{fill:url(#_ÂÁ_Ï_ÌÌ_È_ËÂÌÚ_4);}.cls-43{fill:#d7d7d7;}.cls-44{fill:url(#_ÂÁ_Ï_ÌÌ_È_ËÂÌÚ_40-2);}.cls-45{fill:url(#_ÂÁ_Ï_ÌÌ_È_ËÂÌÚ_3-2);}</style><linearGradient id="_ÂÁ_Ï_ÌÌ_È_ËÂÌÚ_3" x1="-2285.42" y1="-365.81" x2="-2315.12" y2="-351.05" gradientTransform="translate(-1446.79 -1189.95) rotate(-149.43)" gradientUnits="userSpaceOnUse"><stop offset="0" stop-color="#fff"/><stop offset="0.84" stop-color="#e9e8e7"/></linearGradient><linearGradient id="_ÂÁ_Ï_ÌÌ_È_ËÂÌÚ_5" x1="-2289.09" y1="-392.36" x2="-2300.48" y2="-343.8" gradientTransform="translate(-1446.79 -1189.95) rotate(-149.43)" gradientUnits="userSpaceOnUse"><stop offset="0" stop-color="#fff"/><stop offset="0.48" stop-color="#eee"/><stop offset="1" stop-color="#d7d7d7"/></linearGradient><linearGradient id="_ÂÁ_Ï_ÌÌ_È_ËÂÌÚ_40" x1="-2295.39" y1="-394.03" x2="-2297.08" y2="-332.75" gradientTransform="translate(-1446.79 -1189.95) rotate(-149.43)" gradientUnits="userSpaceOnUse"><stop offset="0.17" stop-color="#beb48e"/><stop offset="0.26" stop-color="#b4ab87"/><stop offset="0.41" stop-color="#9a9273"/><stop offset="0.6" stop-color="#6f6953"/><stop offset="0.82" stop-color="#343127"/><stop offset="1" stop-color="#010101"/></linearGradient><linearGradient id="linear-gradient" x1="522.79" y1="-1065.85" x2="529.32" y2="-1065.85" gradientTransform="matrix(1.6, 0.69, -0.37, 1.03, -846.44, 972.72)" gradientUnits="userSpaceOnUse"><stop offset="0" stop-color="#676455"/><stop offset="0.14" stop-color="#8e8a7b"/><stop offset="0.29" stop-color="#ada99a"/><stop offset="0.41" stop-color="#c0bcac"/><stop offset="0.49" stop-color="#c7c3b3"/><stop offset="0.53" stop-color="#b9b5a7"/><stop offset="0.69" stop-color="#858179"/><stop offset="0.82" stop-color="#5f5c58"/><stop offset="0.93" stop-color="#484443"/><stop offset="1" stop-color="#3f3c3c"/></linearGradient><linearGradient id="linear-gradient-2" x1="356.3" y1="278.42" x2="370.45" y2="285.11" gradientTransform="translate(8.69 -11.36) rotate(-1.15)" gradientUnits="userSpaceOnUse"><stop offset="0" stop-color="#b75e27"/><stop offset="0.23" stop-color="#f2db69"/><stop offset="0.72" stop-color="#743016"/><stop offset="1" stop-color="#411c0d"/></linearGradient><linearGradient id="linear-gradient-3" x1="371.92" y1="246.41" x2="380.95" y2="253.38" gradientTransform="translate(8.69 -11.36) rotate(-1.15)" gradientUnits="userSpaceOnUse"><stop offset="0" stop-color="#5c4b4b"/><stop offset="0.13" stop-color="#6c665f"/><stop offset="0.25" stop-color="#6e6e64"/><stop offset="0.4" stop-color="#6d6a61"/><stop offset="0.77" stop-color="#1e0f0e"/></linearGradient><linearGradient id="linear-gradient-4" x1="371.51" y1="244.2" x2="383.77" y2="249.99" gradientTransform="translate(8.69 -11.36) rotate(-1.15)" gradientUnits="userSpaceOnUse"><stop offset="0" stop-color="#b75e27"/><stop offset="0.23" stop-color="#f2db69"/><stop offset="0.56" stop-color="#743016"/><stop offset="1" stop-color="#411c0d"/></linearGradient><linearGradient id="linear-gradient-5" x1="372.67" y1="242.41" x2="384.27" y2="247.89" gradientTransform="translate(8.69 -11.36) rotate(-1.15)" gradientUnits="userSpaceOnUse"><stop offset="0" stop-color="#7c401b"/><stop offset="0.13" stop-color="#975524"/><stop offset="0.29" stop-color="#ac6e29"/><stop offset="0.38" stop-color="#8f5320"/><stop offset="0.49" stop-color="#703616"/><stop offset="0.77" stop-color="#270f0c"/></linearGradient><linearGradient id="linear-gradient-6" x1="373.52" y1="240.95" x2="381.27" y2="246.93" xlink:href="#linear-gradient-3"/><linearGradient id="linear-gradient-7" x1="373.52" y1="236.65" x2="380.11" y2="242.88" gradientTransform="translate(8.69 -11.36) rotate(-1.15)" gradientUnits="userSpaceOnUse"><stop offset="0" stop-color="#b75e27"/><stop offset="0.26" stop-color="#f2db69"/><stop offset="0.46" stop-color="#eded8f"/><stop offset="0.78" stop-color="#f1de71"/></linearGradient><linearGradient id="linear-gradient-8" x1="375.65" y1="237.79" x2="378.06" y2="236.09" gradientTransform="translate(8.69 -11.36) rotate(-1.15)" gradientUnits="userSpaceOnUse"><stop offset="0" stop-color="#8b4820"/><stop offset="0.54" stop-color="#2f1a15"/></linearGradient><linearGradient id="linear-gradient-9" x1="361.71" y1="209.15" x2="391.17" y2="200.28" gradientTransform="translate(8.69 -11.36) rotate(-1.15)" gradientUnits="userSpaceOnUse"><stop offset="0" stop-color="#d1cebd"/><stop offset="0.95" stop-color="#686267"/></linearGradient><linearGradient id="linear-gradient-10" x1="356.91" y1="227.28" x2="366.52" y2="205.92" gradientTransform="translate(8.69 -11.36) rotate(-1.15)" gradientUnits="userSpaceOnUse"><stop offset="0" stop-color="#696056"/><stop offset="0.95" stop-color="#d1cebc"/></linearGradient><linearGradient id="linear-gradient-11" x1="370.14" y1="230.02" x2="387.95" y2="202.28" gradientTransform="translate(8.69 -11.36) rotate(-1.15)" gradientUnits="userSpaceOnUse"><stop offset="0.12" stop-color="#242329"/><stop offset="0.49" stop-color="#2b2b30"/><stop offset="0.82" stop-color="#363739"/></linearGradient><linearGradient id="linear-gradient-12" x1="377.37" y1="219.57" x2="400.01" y2="214.35" gradientTransform="translate(8.69 -11.36) rotate(-1.15)" gradientUnits="userSpaceOnUse"><stop offset="0.12" stop-color="#787e76"/><stop offset="0.33" stop-color="#70766e"/><stop offset="0.67" stop-color="#5c5f58"/><stop offset="0.82" stop-color="#51534c"/></linearGradient><linearGradient id="linear-gradient-13" x1="374.47" y1="231.37" x2="381.77" y2="215.9" gradientTransform="translate(8.69 -11.36) rotate(-1.15)" gradientUnits="userSpaceOnUse"><stop offset="0" stop-color="#787d75"/><stop offset="0.17" stop-color="#80857b"/><stop offset="0.45" stop-color="#979a8d"/><stop offset="0.79" stop-color="#bcbcaa"/><stop offset="0.92" stop-color="#cdccb7"/></linearGradient><linearGradient id="linear-gradient-14" x1="375.9" y1="231.08" x2="380.87" y2="221.35" gradientTransform="translate(8.69 -11.36) rotate(-1.15)" gradientUnits="userSpaceOnUse"><stop offset="0.01" stop-color="#e6cb33"/><stop offset="0.19" stop-color="#e8cd3b"/><stop offset="0.47" stop-color="#edd34f"/><stop offset="0.81" stop-color="#f5dc71"/><stop offset="0.92" stop-color="#f8e07e"/></linearGradient><linearGradient id="linear-gradient-15" x1="400.6" y1="235" x2="419.01" y2="231.53" gradientTransform="translate(8.69 -11.36) rotate(-1.15)" gradientUnits="userSpaceOnUse"><stop offset="0" stop-color="#4d4942"/><stop offset="0.95" stop-color="#2e2a27"/></linearGradient><linearGradient id="linear-gradient-16" x1="388.4" y1="229.85" x2="418.9" y2="220.67" xlink:href="#linear-gradient-9"/><linearGradient id="linear-gradient-17" x1="382.87" y1="250.23" x2="393.3" y2="227.03" xlink:href="#linear-gradient-10"/><linearGradient id="linear-gradient-18" x1="386.65" y1="251.15" x2="395.86" y2="230.67" gradientTransform="translate(8.69 -11.36) rotate(-1.15)" gradientUnits="userSpaceOnUse"><stop offset="0" stop-color="#432610"/><stop offset="0.95" stop-color="#4b4017"/></linearGradient><linearGradient id="linear-gradient-19" x1="383.37" y1="247.09" x2="393.31" y2="227.77" gradientTransform="translate(8.69 -11.36) rotate(-1.15)" gradientUnits="userSpaceOnUse"><stop offset="0" stop-color="#dc8427"/><stop offset="0.51" stop-color="#ebb120"/><stop offset="1" stop-color="#ffeb5c"/></linearGradient><linearGradient id="linear-gradient-20" x1="394.85" y1="251.22" x2="401.94" y2="233.54" gradientTransform="translate(8.69 -11.36) rotate(-1.15)" gradientUnits="userSpaceOnUse"><stop offset="0" stop-color="#676555"/><stop offset="0.95" stop-color="#342f33"/></linearGradient><radialGradient id="_ÂÁ_Ï_ÌÌ_È_ËÂÌÚ_160" cx="-115.67" cy="-36.66" r="1.84" gradientTransform="matrix(1.69, -0.03, 0.03, 1.61, 588.1, 262.73)" gradientUnits="userSpaceOnUse"><stop offset="0.01" stop-color="#21577e"/><stop offset="0.25" stop-color="#1f4f77"/><stop offset="0.63" stop-color="#1b3b62"/><stop offset="1" stop-color="#162048"/></radialGradient><linearGradient id="linear-gradient-21" x1="380.52" y1="222.3" x2="381.36" y2="220.67" xlink:href="#linear-gradient-14"/><linearGradient id="linear-gradient-22" x1="379.73" y1="233.6" x2="384.25" y2="224.75" gradientTransform="translate(8.69 -11.36) rotate(-1.15)" gradientUnits="userSpaceOnUse"><stop offset="0" stop-color="#947f2f"/><stop offset="0.15" stop-color="#9c8736"/><stop offset="0.4" stop-color="#b39d48"/><stop offset="0.7" stop-color="#d8c165"/><stop offset="0.92" stop-color="#f8e07e"/></linearGradient><linearGradient id="linear-gradient-23" x1="357.87" y1="224.63" x2="366.88" y2="207.12" xlink:href="#linear-gradient-19"/><linearGradient id="linear-gradient-24" x1="361.4" y1="226.62" x2="369.83" y2="210.25" xlink:href="#linear-gradient-18"/><linearGradient id="linear-gradient-25" x1="358.77" y1="276.2" x2="371.17" y2="276.2" gradientTransform="translate(8.69 -11.36) rotate(-1.15)" gradientUnits="userSpaceOnUse"><stop offset="0" stop-color="#6b3715"/><stop offset="0.03" stop-color="#713c17"/><stop offset="0.22" stop-color="#905320"/><stop offset="0.38" stop-color="#a36126"/><stop offset="0.49" stop-color="#aa6628"/><stop offset="0.66" stop-color="#79441c"/><stop offset="0.81" stop-color="#532b13"/><stop offset="0.92" stop-color="#3c1b0e"/><stop offset="1" stop-color="#33150c"/></linearGradient><linearGradient id="_ÂÁ_Ï_ÌÌ_È_ËÂÌÚ_4" x1="60.25" y1="-385.72" x2="69.88" y2="-333.18" gradientTransform="translate(340.88 616.09) rotate(-10.74)" gradientUnits="userSpaceOnUse"><stop offset="0.04" stop-color="#fff"/><stop offset="0.3" stop-color="#fbfbfb"/><stop offset="0.55" stop-color="#efefef"/><stop offset="0.7" stop-color="#e5e5e4"/><stop offset="0.8" stop-color="#dfdfde"/><stop offset="1" stop-color="#d7d7d7"/></linearGradient><linearGradient id="_ÂÁ_Ï_ÌÌ_È_ËÂÌÚ_40-2" x1="62.29" y1="-386.11" x2="65.86" y2="-341.02" gradientTransform="translate(340.88 616.09) rotate(-10.74)" xlink:href="#_ÂÁ_Ï_ÌÌ_È_ËÂÌÚ_40"/><linearGradient id="_ÂÁ_Ï_ÌÌ_È_ËÂÌÚ_3-2" x1="602.58" y1="-368.92" x2="576.66" y2="-340.14" gradientTransform="translate(-296.34 318.84) rotate(25.29)" xlink:href="#_ÂÁ_Ï_ÌÌ_È_ËÂÌÚ_3"/></defs><title>Master</title><g class="cls-1"><g id="Layer_1" data-name="Layer 1"><path class="cls-2" d="M353.23,317.13a171.59,171.59,0,0,0-6.31-44.65,36.78,36.78,0,0,0-15.65,2.21,126.26,126.26,0,0,1,5.67,37.43c2.73,3.65,6.17,5.82,11.36,7a7.83,7.83,0,0,0,2.53.36C351.69,319.38,353.24,317.83,353.23,317.13Z"/><path class="cls-3" d="M360.72,261.83c-4.82,5.15-8.88,11.21-14.28,15.74a47.25,47.25,0,0,0-16.3,34.32,23.9,23.9,0,0,0,10.42,3.95,22.36,22.36,0,0,1,8.2-11.6,10.09,10.09,0,0,1,3,7.2,27.48,27.48,0,0,1-.94,8,24.32,24.32,0,0,0,19.25-4.77,49.77,49.77,0,0,0,3.09-22.47,153.81,153.81,0,0,1,9.9-16.54c1.76-2.67.81-6.95-1.43-9.22s-14-8.06-15.64-7.92S361.84,260.64,360.72,261.83Z"/><path class="cls-4" d="M334.18,314.12A57.64,57.64,0,0,1,348,287.87a15.46,15.46,0,0,1-1.9-4.3,36.27,36.27,0,0,1,10.28-10.66l-.18-.39c-.59-1.25-1-2.46-1.62-3.55a66.51,66.51,0,0,1-8.16,8.6,47.25,47.25,0,0,0-16.3,34.32A19.18,19.18,0,0,0,334.18,314.12Z"/><path class="cls-5" d="M370.4,274.17a169,169,0,0,1-13.61,18.61,32.66,32.66,0,0,1-3.69,11.37,14.32,14.32,0,0,0-4.71-.06c-.06.19-.13.39-.19.59.18-.14.36-.3.56-.44a10.09,10.09,0,0,1,3,7.2,27.48,27.48,0,0,1-.94,8,24.32,24.32,0,0,0,19.25-4.77,49.77,49.77,0,0,0,3.09-22.47,153.81,153.81,0,0,1,9.9-16.54c1.76-2.67.81-6.95-1.43-9.22s-14-8.06-15.64-7.92a6.45,6.45,0,0,0-2.77,1.21A32.83,32.83,0,0,0,370.4,274.17Z"/><path class="cls-2" d="M369.69,252.26c-.3,1.8-3.31,3.21-3.3,5.07a7,7,0,0,0,.22,1.57,18.25,18.25,0,0,0-1.23,1.41,36.73,36.73,0,0,0,4.71,9.25,25.63,25.63,0,0,0,12.19,3.65c2.06-3.27,8.11-12.88,8.9-14.69,4.49-10.31-8.81-23.29-14.81-15.35C372.14,247.47,372.4,248.22,369.69,252.26Z"/><path class="cls-6" d="M377.42,284.16l0,.55a22,22,0,0,1-6.73-1.22c-1.09,1.59-2.21,3.25-3.33,4.9l-3.38,5a33.68,33.68,0,0,1,.25,11.88,23.69,23.69,0,0,0,8,.76l0,.55a24.17,24.17,0,0,1-8.46-.85l-.24-.06,0-.24a33.43,33.43,0,0,0-.23-12l0-.11.07-.1,3.45-5.08c1.16-1.71,2.32-3.43,3.45-5.08l.12-.18.2.08A21.45,21.45,0,0,0,377.42,284.16Z"/><path class="cls-6" d="M355,268.47a7.76,7.76,0,0,1,2.21,3.89l.09.29-.24.17a40.61,40.61,0,0,0-9.86,10.26l-.33.51a12.21,12.21,0,0,0,1.77,3.69l.19.27-.21.24a67.63,67.63,0,0,0-13.85,26.44l-.8-.22a68.59,68.59,0,0,1,13.82-26.51,12.88,12.88,0,0,1-1.76-3.87l0-.18.52-.82a41.23,41.23,0,0,1,9.82-10.29,6.48,6.48,0,0,0-1.83-3.21Z"/><path class="cls-7" d="M361.49,265.07c1.08,1.92,2.41,3.72,3.49,5.65-6.71,5.23-11.86,12-16.37,19a70.82,70.82,0,0,0-10.13,25.57,21.1,21.1,0,0,1-7.18-2.59,37.71,37.71,0,0,1,16.63-33.05C352.28,274.93,356.84,269.51,361.49,265.07Z"/><polygon class="cls-8" points="389.73 215.96 371.08 263.6 380.51 267.93 398.71 220.08 389.73 215.96"/><path class="cls-9" d="M382,267.83l3.32-8.26-1.72,1.14-5.09.58-4.23-2.49-.79-3.77v-.5l-4.06,9.2a8,8,0,0,0,4.94,4.83A11.08,11.08,0,0,0,382,267.83Z"/><path class="cls-10" d="M384.62,227.11l-.91,2.25a9.68,9.68,0,0,0,6.23,3.6c4.11.57,4.83-.1,4.83-.1l.33-1.7Z"/><path class="cls-11" d="M385.45,222.27l-1.56,2.62a3.27,3.27,0,0,0,.86,2.73c1.12,1,3.28,3.45,10,4.12,0,0,1.3-.19,1.59-.67a9.58,9.58,0,0,0,.29-2.6Z"/><path class="cls-12" d="M386.27,221.66a1.28,1.28,0,0,0-.77,2c.72,1.56,4.91,5.64,10.06,5.06s-2.16-4.17-2.16-4.17Z"/><path class="cls-13" d="M386.71,221l-.21,1.1s0,1.79,3.95,3.71,4.56.68,4.56.68Z"/><path class="cls-14" d="M386.22,218.27s-.22,2.08.59,2.82a20.33,20.33,0,0,0,4.57,3.35c1.77.77,1.05-3.47,1.05-3.47L388,215.41Z"/><path class="cls-15" d="M388,215.41a7.19,7.19,0,0,0,3.92,5.57l.51-1.85Z"/><path class="cls-16" d="M371.94,182.12s-4.81,11-7.79,20l21.88-9c-1.81-3.81-6.92-7.23-12.7-10.57C373.33,182.53,372.32,181.87,371.94,182.12Z"/><path class="cls-16" d="M371.94,182.12s12.4-2.29,18-3l-14,4.15.27,1.27L376,185Z"/><polygon class="cls-17" points="404.2 189.62 389.9 179.11 373.08 182.28 386.12 193.01 404.2 189.62"/><polygon class="cls-18" points="364.15 202.14 377.77 212.51 386.03 193.1 372.47 182.84 371.79 182.86 364.15 202.14"/><path class="cls-19" d="M403.41,189.71l-14.53,2.21a3.76,3.76,0,0,0-3.61,2.43c-.8,2.51-7.34,17.41-7.34,17.41s-.41,1.16.93.94,4.84-.86,4.84-.86l19.64-19.21,1-2.26S404.54,189.54,403.41,189.71Z"/><polygon class="cls-20" points="412.83 200.1 403.72 192.9 389.57 195.69 399.08 202.5 412.83 200.1"/><polygon class="cls-21" points="390.35 196.28 399.08 202.5 392.4 219.18 381.24 209.78 388.11 194.7 390.35 196.28"/><polygon class="cls-22" points="390.21 199.84 385.54 209.78 392.49 215.36 396.94 205.19 390.21 199.84"/><polygon class="cls-16" points="410.74 209.21 407.82 210.54 416.47 217.66 417.52 217.3 410.74 209.21"/><polygon class="cls-23" points="432.18 209.23 432.1 213.94 416.89 217.49 413.49 213.46 432.18 209.23"/><path class="cls-16" d="M399.08,202.5s13.27-2.45,19.21-3.22l-15,4.44.28,1.36-.24.54Z"/><polygon class="cls-24" points="432.18 209.23 418.29 199.28 400.3 202.67 413.49 213.46 432.18 209.23"/><path class="cls-16" d="M399.08,202.5s-5.14,11.78-8.33,21.41l22.57-10.42-12.75-10.55S399.48,202.23,399.08,202.5Z"/><polygon class="cls-25" points="390.75 223.91 404.28 235.02 413.32 213.49 399.65 203.28 398.92 203.29 390.75 223.91"/><polygon class="cls-26" points="410.25 210.51 400.58 232.4 399.42 232.11 409.61 210.17 410.25 210.51"/><polygon class="cls-27" points="428.87 206.65 410.3 210.49 409.66 210.17 427.73 205.71 428.86 205.82 428.87 206.65"/><polygon class="cls-28" points="416.89 217.49 410.96 233.38 423.67 229.97 426.3 227.87 432.1 213.94 416.89 217.49"/><polygon class="cls-29" points="422.01 200.8 428.86 205.82 409.64 210.17 403.6 205.09 422.01 200.8"/><polygon class="cls-30" points="393.77 226.63 399.46 232.1 409.66 210.16 403.61 205.08 393.77 226.63"/><polygon class="cls-31" points="416.89 217.49 413.32 213.49 404.28 235.02 410.96 233.38 416.89 217.49"/><polygon class="cls-32" points="391.38 204.31 389.42 208.35 392.29 211.04 394.58 206.8 391.38 204.31"/><polygon class="cls-33" points="390.47 202.19 391.15 203.01 388.12 208.98 387.19 209 390.47 202.19"/><polygon class="cls-34" points="392.48 212.54 388.12 208.98 387.19 209 392.5 213.4 392.48 212.54"/><polygon class="cls-35" points="395.27 206.24 392.26 212.36 392.5 213.4 395.27 206.24"/><polygon class="cls-35" points="395 205.79 390.47 202.19 391.15 203.01 395 205.79"/><polygon class="cls-36" points="390.21 199.84 390.89 199.83 397.7 205.2 396.94 205.19 390.21 199.84"/><polygon class="cls-37" points="392.97 216.01 397.7 205.2 396.94 205.19 392.49 215.36 392.97 216.01"/><polygon class="cls-33" points="385.74 210.34 392.97 216.01 392.49 215.36 385.54 209.78 385.74 210.34"/><polygon class="cls-38" points="388.11 194.7 389.57 195.69 382.48 210.81 381.24 209.78 388.11 194.7"/><polygon class="cls-38" points="402.4 191.99 388.11 194.7 389.57 195.69 403.72 192.9 402.4 191.99"/><polygon class="cls-39" points="376.56 185.05 368.73 205.75 373.77 210.02 382.34 189.6 376.56 185.05"/><polygon class="cls-29" points="396.49 182.35 402.25 186.83 382.34 189.6 376.56 185.05 396.49 182.35"/><polygon class="cls-27" points="402.25 186.83 402.27 187.69 382.67 190.1 382.34 189.6 402.25 186.83"/><polygon class="cls-40" points="374.68 210.21 373.77 210.02 382.34 189.6 382.67 190.1 374.68 210.21"/><path class="cls-41" d="M375,254.92a4,4,0,0,0,2.91,4.9c4,1.34,5.52-.58,5.75-1.06l1.1-1.83s1.64,2.41-.48,3.87-7.06,1.16-9.33-.68c-1.5-1.22-2.44-3.24-1.87-4.8a3.12,3.12,0,0,1,2.09-2Z"/><path class="cls-42" d="M339.78,231.68a108.7,108.7,0,0,0-20.16.8s-.06,0-.05.05c11.22,13.17,17.52,27.55,23.17,43.77a60.41,60.41,0,0,0,9.53-6.72C351.09,255.47,347.48,243.61,339.78,231.68Z"/><path class="cls-43" d="M351.38,261a43,43,0,0,1-9.14.08c-.06,0-.22,0-.26,0s-.05-.2-.07-.27C339.34,249.89,334.68,241,328,232l.62-.49a76.74,76.74,0,0,1,14.06,28.77,43.8,43.8,0,0,0,8.29,0c1.12-.12.24,0,.26,0,.43.12.19.68.15.78S351.39,261,351.38,261Z"/><path class="cls-44" d="M351.05,267a83.25,83.25,0,0,0-11.46-34.29,114,114,0,0,0-18,.22,57.53,57.53,0,0,1,15.87,3.63A90,90,0,0,1,351.05,267Z"/><path class="cls-43" d="M310.2,243.32a94.17,94.17,0,0,1,11.44,4.06c7.32,9.16,9.54,21.18,8.12,34.38a73.43,73.43,0,0,0,13-5.46c-5.65-16.22-11.94-30.59-23.18-43.78a87.89,87.89,0,0,0-9.44,10.68A.83.83,0,0,0,310.2,243.32Z"/><path class="cls-5" d="M379.54,244.68A32.56,32.56,0,0,0,374.25,259c-2.64.86-5.77,1.6-8.23.38l-1.59-2.47a30.94,30.94,0,0,1,7-15.38,13.14,13.14,0,0,1,7,.53Z"/><path class="cls-5" d="M379.92,245.12a12,12,0,0,1,2.26-6.83,36.74,36.74,0,0,1,16.39.62c.12.85.31,2.54.35,2.55a22.47,22.47,0,0,1-.66,9.58A83.31,83.31,0,0,1,381,247.7Z"/><path class="cls-5" d="M375.93,254a17.48,17.48,0,0,1,1.15-3.23,6.15,6.15,0,0,1,2.09-2.69A50.52,50.52,0,0,1,397,254.16l.27,2.23a23.47,23.47,0,0,1-5.07,10.09c-5.53-2.05-11.48-5.44-15.14-10.1Z"/><path class="cls-45" d="M373,256.57A32.32,32.32,0,0,1,378.39,242a13.14,13.14,0,0,0-7-.53,30.94,30.94,0,0,0-7,15.38C367,258.15,370.27,257.42,373,256.57Zm18.81,7.86A23.05,23.05,0,0,0,397,254.16,50.52,50.52,0,0,0,379.17,248a6.15,6.15,0,0,0-2.09,2.69,17.48,17.48,0,0,0-1.15,3.23C379.8,258.76,386,262.28,391.82,264.43Zm-11.9-19.31a12,12,0,0,1,2.26-6.83,36.74,36.74,0,0,1,16.39.62,22.51,22.51,0,0,1-.59,9.8A90.14,90.14,0,0,1,379.92,245.12Z"/></g></g></svg>