<svg id="Layer_1" data-name="Layer 1" xmlns="http://www.w3.org/2000/svg" xmlns:xlink="http://www.w3.org/1999/xlink" viewBox="0 0 543.42 656.85"><defs><style>.cls-1{fill:url(#linear-gradient);}.cls-2{fill:url(#linear-gradient-2);}.cls-3{fill:url(#linear-gradient-3);}.cls-4{fill:url(#radial-gradient);}.cls-5{fill:url(#radial-gradient-2);}.cls-6{fill:#d7d7d7;}.cls-7{fill:url(#radial-gradient-3);}.cls-8{fill:url(#radial-gradient-4);}.cls-9{fill:url(#radial-gradient-5);}.cls-10{fill:url(#radial-gradient-6);}.cls-11{fill:url(#radial-gradient-7);}.cls-12{fill:url(#radial-gradient-8);}.cls-13{fill:url(#radial-gradient-9);}.cls-14{fill:url(#radial-gradient-10);}.cls-15{fill:url(#linear-gradient-4);}.cls-16{fill:url(#linear-gradient-5);}.cls-17{fill:url(#linear-gradient-6);}</style><linearGradient id="linear-gradient" x1="322.72" y1="303.54" x2="358.13" y2="303.54" gradientUnits="userSpaceOnUse"><stop offset="0.01" stop-color="#ce5227"/><stop offset="0.15" stop-color="#e97923"/><stop offset="0.49" stop-color="#f37421"/><stop offset="0.81" stop-color="#ed7323"/><stop offset="1" stop-color="#ce5227"/></linearGradient><linearGradient id="linear-gradient-2" x1="333.37" y1="257.43" x2="384.95" y2="236.44" xlink:href="#linear-gradient"/><linearGradient id="linear-gradient-3" x1="330.69" y1="280.56" x2="373.46" y2="275.97" xlink:href="#linear-gradient"/><radialGradient id="radial-gradient" cx="362.56" cy="186.1" r="70.94" gradientUnits="userSpaceOnUse"><stop offset="0.02" stop-color="#f26922"/><stop offset="0.29" stop-color="#f2802f"/><stop offset="0.64" stop-color="#f47c20"/><stop offset="0.8" stop-color="#ee8422"/><stop offset="1" stop-color="#f26e23"/></radialGradient><radialGradient id="radial-gradient-2" cx="204.73" cy="314.21" fx="196.74494206667333" r="27.61" gradientUnits="userSpaceOnUse"><stop offset="0.03" stop-color="#f15a2d"/><stop offset="0.29" stop-color="#ef6e24"/><stop offset="0.68" stop-color="#f47d20"/><stop offset="1" stop-color="#ee6b25"/></radialGradient><radialGradient id="radial-gradient-3" cx="199.03" cy="283.84" fx="199.03303704631526" r="27.02" xlink:href="#radial-gradient-2"/><radialGradient id="radial-gradient-4" cx="191.21" cy="246.28" fx="159.25990987317886" r="32.01" xlink:href="#radial-gradient-2"/><radialGradient id="radial-gradient-5" cx="210.31" cy="198.94" fx="245.81495281932752" fy="247.48978728027387" r="60.15" gradientUnits="userSpaceOnUse"><stop offset="0.02" stop-color="#c53426"/><stop offset="0.29" stop-color="#f57e20"/><stop offset="0.64" stop-color="#ee6c23"/><stop offset="0.91" stop-color="#f15b2c"/></radialGradient><radialGradient id="radial-gradient-6" cx="215.29" cy="196.54" fx="250.71180045940815" fy="244.97465926994496" r="60" gradientUnits="userSpaceOnUse"><stop offset="0.2" stop-color="#fcef3d"/><stop offset="0.29" stop-color="#fdba12"/><stop offset="0.44" stop-color="#fcde30"/><stop offset="0.63" stop-color="#f6eb00"/><stop offset="0.91" stop-color="#fcb316"/></radialGradient><radialGradient id="radial-gradient-7" cx="192.28" cy="239.58" fx="159.86522764104993" r="32.47" gradientUnits="userSpaceOnUse"><stop offset="0.03" stop-color="#fcef3d"/><stop offset="0.29" stop-color="#fdba12"/><stop offset="0.68" stop-color="#f6eb00"/><stop offset="1" stop-color="#f29820"/></radialGradient><radialGradient id="radial-gradient-8" cx="196.98" cy="275.1" r="25.58" gradientUnits="userSpaceOnUse"><stop offset="0.03" stop-color="#fcef3d"/><stop offset="0.29" stop-color="#fdba12"/><stop offset="0.6" stop-color="#f6eb00"/><stop offset="1" stop-color="#f29820"/></radialGradient><radialGradient id="radial-gradient-9" cx="201.96" cy="304.68" fx="194.97952073454312" r="24.13" gradientUnits="userSpaceOnUse"><stop offset="0" stop-color="#df6b26"/><stop offset="0.4" stop-color="#f57e20"/><stop offset="0.77" stop-color="#f78f1e"/><stop offset="1" stop-color="#f29820"/></radialGradient><radialGradient id="radial-gradient-10" cx="318" cy="234.34" r="82.73" gradientUnits="userSpaceOnUse"><stop offset="0.08" stop-color="#ffdd2f"/><stop offset="0.28" stop-color="#fcb218"/><stop offset="0.58" stop-color="#feea00"/><stop offset="0.71" stop-color="#fbaf17"/><stop offset="0.99" stop-color="#f7e52a"/></radialGradient><linearGradient id="linear-gradient-4" x1="330.68" y1="250.2" x2="382.08" y2="229.29" gradientUnits="userSpaceOnUse"><stop offset="0.01" stop-color="#ffdd2f"/><stop offset="0.15" stop-color="#fcb218"/><stop offset="0.49" stop-color="#feea00"/><stop offset="0.82" stop-color="#fbaf17"/><stop offset="1" stop-color="#f7e52a"/></linearGradient><linearGradient id="linear-gradient-5" x1="330.71" y1="273.73" x2="373.03" y2="269.19" gradientUnits="userSpaceOnUse"><stop offset="0.01" stop-color="#f8991d"/><stop offset="0.15" stop-color="#faa31b"/><stop offset="0.54" stop-color="#f89f1c"/><stop offset="0.67" stop-color="#febb12"/><stop offset="0.87" stop-color="#f5b51a"/></linearGradient><linearGradient id="linear-gradient-6" x1="326.08" y1="298.01" x2="358.13" y2="298.01" gradientUnits="userSpaceOnUse"><stop offset="0.01" stop-color="#f8971d"/><stop offset="0.23" stop-color="#f7911e"/><stop offset="0.54" stop-color="#e48025"/><stop offset="0.92" stop-color="#e57025"/></linearGradient></defs><title>Master</title><path class="cls-1" d="M327.92,293.27a120.66,120.66,0,0,1-3.82,12.07l-1.38.35a11.19,11.19,0,0,0,2.75,4c2.37,1.73,22,4.15,22,4.15l10.64-8.2Z"/><path class="cls-2" d="M325.73,251.7a41.09,41.09,0,0,1,4.19,12.58,33.94,33.94,0,0,0,10.85-5.59l5.7,3.17s13.85-2.94,25.82-10c0,0,9.64-15.51,9.76-25.37Z"/><path class="cls-3" d="M343.64,274.88l-10.9-3.83-2.12.2a66.56,66.56,0,0,1-.32,9l1.88.15,1.83,4.88,21.23,2s17-8.52,17.74-13.78Z"/><path class="cls-4" d="M360.23,168.13l-24.29,43.56L310.54,242l0,.08a95.14,95.14,0,0,1,11.5,4.08c.3.38.59.77.87,1.15,4.44-3.91,9.15-9.67,13.58-18.15l7.06.19s8.66-10.8,17-31.5C360.57,197.85,362.3,176.74,360.23,168.13Z"/><path class="cls-5" d="M240.79,290.84l-10.76.89-6.34,11.74-41.55,10.42,12.21,12.25,32.81-7.43,7.14-11.27,18.11-5.58A84.69,84.69,0,0,1,240.79,290.84Z"/><polygon class="cls-6" points="207.34 266.15 203.49 265.92 201.12 268.91 175.56 263.42 171.44 258.99 154.76 251.59 156.04 258.07 168.18 261.09 171.78 267.16 200.97 274.86 207.34 266.15"/><path class="cls-7" d="M231,277c-.06-.1-.1-.2-.15-.29L211,275.53l-49-.85a32.81,32.81,0,0,0,6.7,17.11s16.11,3,42.63-.58l4-3.93L236.13,285A84.2,84.2,0,0,1,231,277Z"/><path class="cls-8" d="M231.38,253.5,219,248.61l-36.26-11.7-31.67-11.5c-1,16,7.9,24.9,7.9,24.9,13.68,8.76,36.64,12.35,36.64,12.35l4.58-3.4a133.38,133.38,0,0,0,28.27,7.89A35,35,0,0,1,231.38,253.5Z"/><path class="cls-9" d="M239.31,240.93c2.15-.67,4.23-1.24,6.28-1.75L230.69,225l-53.6-74.2a89.29,89.29,0,0,0-.38,36.44c3.11,8.54,23.35,37.87,23.35,37.87l10.26.62A104.31,104.31,0,0,0,234.15,248,41.47,41.47,0,0,1,239.31,240.93Z"/><path class="cls-6" d="M386.61,244.94l-.3,5.11s-7.8,6.42-12.36,7.21l-3.35,5.81-30,10.74L336,264.59l5.1,0,.9,1.59s25.43-5.45,27.27-6.72,2.4-4.7,2.4-4.7S381.48,251,386.61,244.94Z"/><polygon class="cls-6" points="383.71 199.17 384.75 205.24 370.5 215.88 367.07 223.06 354.6 236.49 342.35 244.26 334.44 242.63 338.22 238.51 342.65 239.3 364.24 220.1 367.87 212.72 383.71 199.17"/><path class="cls-6" d="M343.48,142.86l3.83,6.83-5.45,20.17,1.92,5.42-11.07,36.57-9.81-.71.21-3.52,5.66-.13,11.58-32.06-2.08-4.61S343.7,154.89,343.48,142.86Z"/><path class="cls-6" d="M171.83,296l12.25-.56,2.42,1.44s17.65,1.68,30.59-1.72l3.19-4.61,2.69-1.33-3,13-30.57,1.51L183,299.57l-10.21-.2Z"/><path class="cls-6" d="M213.12,239.36l-5.46-3-5.82-.35-33.45-23.72-2.71-7.05-25.1-20.09-.63,10.4s10.68,7.25,21.54,13.4l3.37,6.47S195,238.9,201.89,242A9.27,9.27,0,0,0,213.12,239.36Z"/><path class="cls-6" d="M203.33,123.93s-5.06,4.29-6,8.83c0,0,1.65,17.64,5.72,22.9l-2,5.72s4.68,26.38,18.7,43.3l9.16.55-4-6.09L221,198.7s-13.76-24.84-15.4-35.79l2.08-6.77A90,90,0,0,1,203.33,123.93Z"/><path class="cls-10" d="M239.31,240.93A106.91,106.91,0,0,1,252,237.82l1.55-1.24C235,223,229,205.23,229,205.23l-9.16-.55c-15.34-29.73-18.7-43.3-18.7-43.3l-24-10.62c5,35,27.41,65.11,27.41,65.11l9.18.14c6.09,12,15.26,20.87,23.77,27.1C238.06,242.35,238.68,241.62,239.31,240.93Z"/><path class="cls-11" d="M233.44,249.19c-7.31-2.38-14.79-5.6-20.32-9.83,0,0-6.76,1.26-11.92.33,0,0-13.2-6.22-31.35-20.46,0,0-15.76,1.77-18.74,6.18,0,0,22.81,20.09,43.18,28.55l5.45-3.92s11.39,5.66,29.57,9.9A42.23,42.23,0,0,1,233.44,249.19Z"/><path class="cls-12" d="M231,277a20.24,20.24,0,0,1-2.48-9.35l-21.17-1.53-4.24,6.21-27.81-4.59-13.36,6.93c19.87,10,44.34,9.34,44.34,9.34a11.08,11.08,0,0,0,5.51-4.89L232,278.8C231.67,278.22,231.32,277.63,231,277Z"/><path class="cls-13" d="M236.55,285.57,223,289.19l-4.2,9.15-31.53,3.54c-2.89,6.51-5.1,12-5.1,12,15.72,2.4,38.65-3.95,40.4-5.3s5.84-10.3,5.84-10.3l15.4-4.19A85.3,85.3,0,0,1,236.55,285.57Z"/><path class="cls-14" d="M343.78,175.28c-.28,1.75-12.09,33.56-13.56,34.53s-7.32,1.33-7.32,1.33a66.09,66.09,0,0,1-18.62,27.37c1.53.29,3.07.58,4.6.91.54.79,1.14,1.77,1.71,2.66,2.49.7,5,1.53,7.52,2.49,12.27-8.68,16.53-23,16.53-23l6.35.21c13.87-19.14,19.12-53.64,19.12-53.64C357.66,170.63,343.78,175.28,343.78,175.28Z"/><path class="cls-15" d="M367.07,223.06S353.29,234.79,343.14,242l-9.1-1.43a51.31,51.31,0,0,1-10.28,7.92,37.93,37.93,0,0,1,4.89,10.37A71.78,71.78,0,0,0,344,250.67l4.7,4.17s21.49-4.73,33.34-28.4Z"/><path class="cls-16" d="M370.6,263.07c-4.94,2.71-30.44,7.57-30.44,7.57L336,264.59l-6,.33a57,57,0,0,1,.57,11.1l4.39.29,2.43,3.68c26.7,2.66,35.56-6.53,35.56-6.53A19,19,0,0,0,370.6,263.07Z"/><path class="cls-6" d="M360.38,287.55l-4.85,4.13-23.82-3.55-1.89-3.82h-.05c-.42,2.73-1,5.5-1.68,8.29l.28,1.17,26.24,1.57,4.18-.8,3-3.36,5.64.34.26-4.41Z"/><path class="cls-17" d="M354.61,295.33l-25.55-3.82-.45-1.11c-.68,3-1.53,6.12-2.53,9.23a36,36,0,0,0,4.53,4.34c6.45,1.45,27.52,1.65,27.52,1.65Z"/></svg>