<svg xmlns="http://www.w3.org/2000/svg" xmlns:xlink="http://www.w3.org/1999/xlink" viewBox="0 0 543.42 656.85"><defs><style>.cls-1{isolation:isolate;}.cls-2{fill:#2b3e51;}.cls-3{fill:url(#_ÂÁ_Ï_ÌÌ_È_ËÂÌÚ_3);}.cls-4{fill:url(#_ÂÁ_Ï_ÌÌ_È_ËÂÌÚ_5);}.cls-5{fill:#d3d3d3;}.cls-6{fill:#99999a;}.cls-10,.cls-7{mix-blend-mode:screen;}.cls-7{fill:url(#_ÂÁ_Ï_ÌÌ_È_ËÂÌÚ_40);}.cls-8{fill:url(#_ÂÁ_Ï_ÌÌ_È_ËÂÌÚ_4);}.cls-9{fill:#d7d7d7;}.cls-10{fill:url(#_ÂÁ_Ï_ÌÌ_È_ËÂÌÚ_40-2);}.cls-11{fill:#2e201b;}.cls-12{fill:url(#linear-gradient);}.cls-13{fill:url(#linear-gradient-2);}.cls-14{fill:url(#linear-gradient-3);}.cls-15{fill:url(#linear-gradient-4);}.cls-16{fill:url(#linear-gradient-5);}.cls-17{fill:url(#radial-gradient);}.cls-18{fill:url(#linear-gradient-6);}.cls-19{fill:url(#linear-gradient-7);}.cls-20{fill:url(#linear-gradient-8);}.cls-21{fill:url(#linear-gradient-9);}.cls-22{fill:url(#linear-gradient-10);}.cls-23{fill:url(#linear-gradient-11);}.cls-24{fill:url(#linear-gradient-12);}.cls-25{fill:#a9b4c9;}.cls-26{fill:url(#linear-gradient-13);}.cls-27{fill:url(#linear-gradient-14);}.cls-28{fill:#1d4772;}.cls-29{fill:#152330;}.cls-30{fill:url(#radial-gradient-2);}.cls-31{fill:url(#linear-gradient-15);}.cls-32{fill:#afb4b3;}.cls-33{fill:#abb3b5;}.cls-34{fill:#211516;}.cls-35{fill:#2b618e;}.cls-36{fill:none;stroke:#000;stroke-miterlimit:10;stroke-width:0.15px;}.cls-37{fill:url(#_ÂÁ_Ï_ÌÌ_È_ËÂÌÚ_3-2);}</style><linearGradient id="_ÂÁ_Ï_ÌÌ_È_ËÂÌÚ_3" x1="368.8" y1="326.53" x2="339.1" y2="341.28" gradientUnits="userSpaceOnUse"><stop offset="0" stop-color="#fff"/><stop offset="0.84" stop-color="#e9e8e7"/></linearGradient><linearGradient id="_ÂÁ_Ï_ÌÌ_È_ËÂÌÚ_5" x1="365.13" y1="299.97" x2="353.73" y2="348.54" gradientUnits="userSpaceOnUse"><stop offset="0" stop-color="#fff"/><stop offset="0.48" stop-color="#eee"/><stop offset="1" stop-color="#d7d7d7"/></linearGradient><linearGradient id="_ÂÁ_Ï_ÌÌ_È_ËÂÌÚ_40" x1="358.82" y1="298.31" x2="357.14" y2="359.58" gradientUnits="userSpaceOnUse"><stop offset="0.17" stop-color="#beb48e"/><stop offset="0.26" stop-color="#b4ab87"/><stop offset="0.41" stop-color="#9a9273"/><stop offset="0.6" stop-color="#6f6953"/><stop offset="0.82" stop-color="#343127"/><stop offset="1" stop-color="#010101"/></linearGradient><linearGradient id="_ÂÁ_Ï_ÌÌ_È_ËÂÌÚ_4" x1="70.95" y1="-499.4" x2="80.59" y2="-446.86" gradientTransform="translate(351.55 729.77) rotate(-10.74)" gradientUnits="userSpaceOnUse"><stop offset="0.04" stop-color="#fff"/><stop offset="0.3" stop-color="#fbfbfb"/><stop offset="0.55" stop-color="#efefef"/><stop offset="0.7" stop-color="#e5e5e4"/><stop offset="0.8" stop-color="#dfdfde"/><stop offset="1" stop-color="#d7d7d7"/></linearGradient><linearGradient id="_ÂÁ_Ï_ÌÌ_È_ËÂÌÚ_40-2" x1="72.99" y1="-499.79" x2="76.56" y2="-454.7" gradientTransform="translate(351.55 729.77) rotate(-10.74)" xlink:href="#_ÂÁ_Ï_ÌÌ_È_ËÂÌÚ_40"/><linearGradient id="linear-gradient" x1="1954.26" y1="-288.19" x2="1973.39" y2="-289.07" gradientTransform="translate(1076.87 -1462.26) rotate(118.56)" gradientUnits="userSpaceOnUse"><stop offset="0.28" stop-color="#acb5c3"/><stop offset="0.8" stop-color="#4f5763"/><stop offset="1" stop-color="#3f4146"/></linearGradient><linearGradient id="linear-gradient-2" x1="1953.24" y1="-292.75" x2="1973.98" y2="-293.71" gradientTransform="translate(1076.87 -1462.26) rotate(118.56)" gradientUnits="userSpaceOnUse"><stop offset="0" stop-color="#7f8691"/><stop offset="1" stop-color="#8d94a2"/></linearGradient><linearGradient id="linear-gradient-3" x1="1949.99" y1="-294.84" x2="1956.46" y2="-295.13" xlink:href="#linear-gradient"/><linearGradient id="linear-gradient-4" x1="1953.3" y1="-292.89" x2="1974.36" y2="-293.86" xlink:href="#linear-gradient"/><linearGradient id="linear-gradient-5" x1="1951.97" y1="-302.58" x2="1964.29" y2="-302.58" gradientTransform="translate(1076.87 -1462.26) rotate(118.56)" gradientUnits="userSpaceOnUse"><stop offset="0.03" stop-color="#232b2e"/><stop offset="0.22" stop-color="#7f8691"/><stop offset="0.42" stop-color="#8d94a2"/><stop offset="0.88" stop-color="#4f5763"/></linearGradient><radialGradient id="radial-gradient" cx="1956.54" cy="-307.27" r="2.94" gradientTransform="translate(1076.87 -1462.26) rotate(118.56)" gradientUnits="userSpaceOnUse"><stop offset="0.03" stop-color="#bdccd7"/><stop offset="1" stop-color="#8f99a5"/></radialGradient><linearGradient id="linear-gradient-6" x1="1951.93" y1="-316.95" x2="1961.41" y2="-316.95" gradientTransform="translate(1076.87 -1462.26) rotate(118.56)" gradientUnits="userSpaceOnUse"><stop offset="0.03" stop-color="#080b11"/><stop offset="0.19" stop-color="#122135"/><stop offset="0.43" stop-color="#285a8e"/><stop offset="0.71" stop-color="#1f3854"/><stop offset="1" stop-color="#0c1018"/></linearGradient><linearGradient id="linear-gradient-7" x1="1952.11" y1="-348.62" x2="1921.13" y2="-294.71" gradientTransform="translate(1076.87 -1462.26) rotate(118.56)" gradientUnits="userSpaceOnUse"><stop offset="0.03" stop-color="#bdccd7"/><stop offset="0.34" stop-color="#8f99a5"/><stop offset="0.64" stop-color="#404450"/><stop offset="0.89" stop-color="#6f7885"/></linearGradient><linearGradient id="linear-gradient-8" x1="1950.4" y1="-311.26" x2="1937.64" y2="-289.05" gradientTransform="translate(1076.87 -1462.26) rotate(118.56)" gradientUnits="userSpaceOnUse"><stop offset="0.03" stop-color="#232b2e"/><stop offset="0.4" stop-color="#acb5c3"/><stop offset="0.69" stop-color="#8d94a2"/><stop offset="0.88" stop-color="#4f5763"/></linearGradient><linearGradient id="linear-gradient-9" x1="1963.67" y1="-310.56" x2="1978.04" y2="-287.98" gradientTransform="translate(1076.87 -1462.26) rotate(118.56)" gradientUnits="userSpaceOnUse"><stop offset="0.03" stop-color="#222a2d"/><stop offset="0.36" stop-color="#acb5c3"/><stop offset="0.88" stop-color="#4f5763"/></linearGradient><linearGradient id="linear-gradient-10" x1="1984.41" y1="-349.66" x2="1967.91" y2="-290.97" gradientTransform="translate(1076.87 -1462.26) rotate(118.56)" gradientUnits="userSpaceOnUse"><stop offset="0.03" stop-color="#c3cfdd"/><stop offset="0.59" stop-color="#4f5763"/><stop offset="0.95" stop-color="#acb5c3"/></linearGradient><linearGradient id="linear-gradient-11" x1="1935.35" y1="-340.87" x2="1951.93" y2="-340.87" gradientTransform="translate(1076.87 -1462.26) rotate(118.56)" gradientUnits="userSpaceOnUse"><stop offset="0.03" stop-color="#324155"/><stop offset="1" stop-color="#5c6673"/></linearGradient><linearGradient id="linear-gradient-12" x1="1960.85" y1="-341.02" x2="1974.43" y2="-341.02" gradientTransform="translate(1076.87 -1462.26) rotate(118.56)" gradientUnits="userSpaceOnUse"><stop offset="0" stop-color="#5c6673"/><stop offset="1" stop-color="#324155"/></linearGradient><linearGradient id="linear-gradient-13" x1="1931.17" y1="-319.59" x2="1952.8" y2="-319.59" gradientTransform="translate(1076.87 -1462.26) rotate(118.56)" gradientUnits="userSpaceOnUse"><stop offset="0" stop-color="#3267b2"/><stop offset="1" stop-color="#153e68"/></linearGradient><linearGradient id="linear-gradient-14" x1="1958.15" y1="-319.25" x2="1981.4" y2="-319.25" gradientTransform="translate(1076.87 -1462.26) rotate(118.56)" gradientUnits="userSpaceOnUse"><stop offset="0.08" stop-color="#133c64"/><stop offset="0.35" stop-color="#1e4b80"/><stop offset="0.76" stop-color="#3267b2"/></linearGradient><radialGradient id="radial-gradient-2" cx="1956.64" cy="-329.78" r="4.83" xlink:href="#radial-gradient"/><linearGradient id="linear-gradient-15" x1="1962.7" y1="-293.83" x2="1972.76" y2="-294.3" gradientTransform="translate(1076.87 -1462.26) rotate(118.56)" gradientUnits="userSpaceOnUse"><stop offset="0.03" stop-color="#bcbec0"/><stop offset="0.28" stop-color="#acb5c3"/><stop offset="0.8" stop-color="#4f5763"/></linearGradient><linearGradient id="_ÂÁ_Ï_ÌÌ_È_ËÂÌÚ_3-2" x1="1682.74" y1="-1117.09" x2="1662.71" y2="-1094.85" gradientTransform="matrix(-0.26, 0.97, 0.97, 0.26, 1841.46, -952.12)" xlink:href="#_ÂÁ_Ï_ÌÌ_È_ËÂÌÚ_3"/></defs><title>Master</title><g class="cls-1"><g id="Layer_1" data-name="Layer 1"><path class="cls-2" d="M350.9,317.53a201.62,201.62,0,0,0-6.9-43.48A25,25,0,0,0,331.53,277a148.18,148.18,0,0,1,6.09,36.44,19,19,0,0,0,9.41,6.28,4.34,4.34,0,0,0,2.05.23A3.52,3.52,0,0,0,350.9,317.53Z"/><path class="cls-3" d="M359.57,361.63c1.53-6.88,1.94-14.16,4.28-20.81A47.21,47.21,0,0,0,360.44,303a23.94,23.94,0,0,0-11,1.91A22.41,22.41,0,0,1,348.3,319a10.05,10.05,0,0,1-6.23-4.69A27.71,27.71,0,0,1,338.8,307a24.25,24.25,0,0,0-14.14,13.9,49.59,49.59,0,0,0,8.76,20.91,153.3,153.3,0,0,1-.11,19.29c-.16,3.19,2.83,6.38,5.92,7.2s16.15-.18,17.5-1.13S359.21,363.23,359.57,361.63Z"/><path class="cls-4" d="M355.82,303.12a57.42,57.42,0,0,1,1.44,29.63,15.51,15.51,0,0,1,3.82,2.74,36.18,36.18,0,0,1-3.42,14.41l.35.24c1.14.78,2.08,1.62,3.2,2.23a66.77,66.77,0,0,1,2.64-11.55A47.21,47.21,0,0,0,360.44,303,19.64,19.64,0,0,0,355.82,303.12Z"/><path class="cls-5" d="M345,355.93A169.69,169.69,0,0,1,347.21,333a32.81,32.81,0,0,1-2.6-11.66A14.72,14.72,0,0,0,348.7,319c-.05-.2-.1-.41-.14-.61-.09.22-.16.44-.26.67a10.05,10.05,0,0,1-6.23-4.69A27.71,27.71,0,0,1,338.8,307a24.25,24.25,0,0,0-14.14,13.9,49.59,49.59,0,0,0,8.76,20.91,153.3,153.3,0,0,1-.11,19.29c-.16,3.19,2.83,6.38,5.92,7.2s16.15-.18,17.5-1.13a6.53,6.53,0,0,0,1.76-2.46A32.9,32.9,0,0,0,345,355.93Z"/><path class="cls-2" d="M356.72,377.47c.67-2,1.21-5.36.25-7.29a8,8,0,0,0-1-1.49c.14-.74.26-1.48.34-2.22a37,37,0,0,0-8.76-6.73,22.16,22.16,0,0,0-12.35,3.7C326.43,382.85,351.36,393.64,356.72,377.47Z"/><path class="cls-6" d="M333.84,350.9l-.27-.48A22,22,0,0,1,340,348c.12-1.92.25-3.91.37-5.91s.25-4.05.38-6A33.89,33.89,0,0,1,334.48,326a23.67,23.67,0,0,0-7.31,3.44l-.31-.45a24.17,24.17,0,0,1,7.72-3.58l.23-.06.09.22a33.35,33.35,0,0,0,6.32,10.25l.08.09V336c-.12,2-.25,4.06-.38,6.13s-.26,4.13-.39,6.12v.22l-.22,0A21.28,21.28,0,0,0,333.84,350.9Z"/><path class="cls-6" d="M361.16,353a7.73,7.73,0,0,1-3.88-2.23l-.22-.2.11-.27a40.2,40.2,0,0,0,3.27-13.85l0-.6a11.94,11.94,0,0,0-3.4-2.28l-.3-.13.06-.32a67.79,67.79,0,0,0-1.52-29.81l.79-.22a68.46,68.46,0,0,1,1.59,29.86,12.55,12.55,0,0,1,3.48,2.44l.13.13,0,1a41.08,41.08,0,0,1-3.21,13.85,6.54,6.54,0,0,0,3.21,1.84Z"/><path class="cls-7" d="M357.26,359.24c-1.91-1.11-4-2-5.87-3.09,3.11-7.92,4.09-16.38,4.44-24.66a70.53,70.53,0,0,0-4.29-27.17,21.09,21.09,0,0,1,7.51-1.42,37.71,37.71,0,0,1,2.49,36.91C360.18,346.06,359,353,357.26,359.24Z"/><path class="cls-8" d="M339.78,231.68a108.7,108.7,0,0,0-20.16.8s-.06,0-.05.05c11.22,13.17,17.52,27.55,23.17,43.77a60.41,60.41,0,0,0,9.53-6.72C351.09,255.47,347.48,243.61,339.78,231.68Z"/><path class="cls-9" d="M351.38,261a43,43,0,0,1-9.14.08c-.06,0-.22,0-.26,0s-.05-.2-.07-.27C339.34,249.89,334.68,241,328,232l.62-.49a76.74,76.74,0,0,1,14.06,28.77,43.8,43.8,0,0,0,8.29,0c1.12-.12.24,0,.26,0,.43.12.19.68.15.78S351.39,261,351.38,261Z"/><path class="cls-10" d="M351.05,267a83.25,83.25,0,0,0-11.46-34.29,114,114,0,0,0-18,.22,57.53,57.53,0,0,1,15.87,3.63A90,90,0,0,1,351.05,267Z"/><polygon class="cls-11" points="404.45 397.63 346.42 370.24 342.64 377.18 400.86 404.25 404.45 397.63"/><path class="cls-12" d="M397.89,393.41s-1.34-2.28-5.12-1.27l-3.67,6.75a6.13,6.13,0,0,0,4,3.23Z"/><path class="cls-13" d="M393.09,402.38s-.6-.84.65-1.94c0,0,1.29-4.46,3.9-7a2.34,2.34,0,0,1,1.48-.63c.88,0,3,1.38,3,2.38l-.75.65s-2,1.39-3.52,6.82c0,0-.28,1.24-1,1.15Z"/><path class="cls-14" d="M405.6,392.8s-2-3.09-5.84.18a5.1,5.1,0,0,1,2.05,1.5S402.74,392.68,405.6,392.8Z"/><path class="cls-15" d="M393.16,402.68s-.6-.85.66-2c0,0,1.34-4.54,4-7.12a2.41,2.41,0,0,1,1.49-.65c.88,0,3.15,1.9,2.91,2.34a2.3,2.3,0,0,1-.66.72s-2.07,1.43-3.59,6.95c0,0-.29,1.27-1,1.18Z"/><path class="cls-16" d="M410.8,397.62l-6.67-.16a11.36,11.36,0,0,0-3.27,6.78l5.26,4.87,3.72-3.54,2.46-6.47Z"/><path class="cls-17" d="M414.14,400.1l-3.82,7-1.84-1a37.46,37.46,0,0,1,3.82-7Z"/><polygon class="cls-18" points="429.42 407.71 414.14 400.1 410.32 407.11 424.88 416.04 429.42 407.71"/><path class="cls-19" d="M459.06,411.68s2.88-17.6-20.85-26.8c0,0-6.77-3.25-20.53-2.27,0,0-6.2.2-10.61-3.69s4.64,7,4.64,7l11.44,1.33,16.91,6.14,10.55,9.25Z"/><path class="cls-20" d="M414.77,400.73s-2.69-.82-3.4-1.61a1.86,1.86,0,0,1-.57-1.5s3.5-3.24,1.53-7.53-5.1-3.38-5.1-3.38,1.89-2.19-.29-5.1a4.4,4.4,0,0,1-.38-3.13,12.81,12.81,0,0,0,2.84,3.15c2.07,1.75,1.6,2,2.44,2.44a23.09,23.09,0,0,0,3.05,1.11l2.41,4.61-1,7.16Z"/><path class="cls-21" d="M407.34,405.84s-4.09,7.38-10.19,8.22-6.16-1.79-6.16-1.79-.72,2.28-4.51,2.82-4.22,2.31-4.22,2.31l10.26-.58,5.69.2a21.43,21.43,0,0,0,8.88-4.7c3.77-3.56,3.25-5.78,3.25-5.78Z"/><path class="cls-22" d="M382.26,417.4s4-1.36,9.3,4.18,4.06,13.94,23.14,20.46,30.8-5.26,30.8-5.26a86,86,0,0,1-14.95-2.67c-4.19-.62-7.16-.1-10.29-1.4-8.34-3.48-23.69-16.44-23.69-16.44S387.39,414.25,382.26,417.4Z"/><path class="cls-23" d="M458.56,411.24s-4.73-13.42-16.35-13.5c0,0-7.91,5.94-7.59,8.35l.65,4.81S440.71,395.73,458.56,411.24Z"/><path class="cls-24" d="M445.5,436.78s-10.83.39-16.69-3.92-2.3-13.45-2.3-13.45l4.61-.62S421.46,432.27,445.5,436.78Z"/><path class="cls-25" d="M395.87,416.41a50.42,50.42,0,0,1,5.31,7c2.14,3.57,5.11,7.93,16.8,11,0,0,5.18,2.22,13.3-.27l-12.73-1.73-13-6.19-6.75-8.42-2.22-1.59Z"/><path class="cls-25" d="M426.19,406.62l.49.27s1.78-4.64,7.94-.8c0,0,2.95-8,15-6.39l-2.56-1.94-5.69-.47-5.34,3.07-2.22,3.36-3.48-.61S427,403.78,426.19,406.62Z"/><path class="cls-25" d="M423.15,413.51l.43-1.9a6.39,6.39,0,0,0-1.59,1.71,5,5,0,0,0,.39,3.88,6.79,6.79,0,0,0,3.44,2.74s-3.61,5.54-1.58,9.32a9.48,9.48,0,0,0,4.88,4.66l2.16.28s-9.17-5.81-4-14.5C427.29,419.7,420.61,417.63,423.15,413.51Z"/><path class="cls-26" d="M426.19,406.62l-11.42-5.89-.28-1.41s4.71-8.84-.13-14.29c0,0,4.59,1.53,12.88.77s18.66,7.63,21,12.94c0,0-10.44-3.61-14,6C434.23,404.76,429.05,401.37,426.19,406.62Z"/><path class="cls-27" d="M412.49,406l-.73-.4-1.42,1A14.24,14.24,0,0,1,404.5,413a47.42,47.42,0,0,1-7.93,3.3,36.1,36.1,0,0,1,5.16,6.3c1.53,2.77,2.53,6.95,16.39,11.23,0,0,7.47,1.84,11,.12,0,0-8.58-4.3-3.3-14,0,0-6.94-2.71-2.49-8.07l.25-.26-.86-.46Z"/><path class="cls-28" d="M425.42,406.08s2.48-5.58,8.08-3.48l.56-1.33a5.61,5.61,0,0,1,1.37-1.48,11.3,11.3,0,0,1,10-3.72s-3.28-6.15-13.16-8.85c0,0-.42,1.6-.95,1.76,0,0,0-2.09-.45-2.18a36.92,36.92,0,0,0-8.22,0c-5.35.45-6-1-6-1s2.36,4.85,1.33,8.84a25,25,0,0,1-2.54,6.39l9.94,5.19Z"/><path class="cls-28" d="M422.9,411.24S418,415.38,424,419.8c0,0-1.89,2.68-1.12,4.64,0,0-2.84.48-.12,2.76,0,0,.16,3.16,2.25,4.79,0,0-3.49,1.76-13.06-2.76,0,0-4.31-1.64-7.95-7.59s-5.76-4.62-5.76-4.62,8.6,0,14.28-11Z"/><path class="cls-29" d="M416.27,418.68a4,4,0,0,0-.41-2s1.42-.07,3.22,2.9a10.09,10.09,0,0,0,1.25-2.74s-1,.16-1.11,0-3.25-5.77-3.53-5.88-1.13,2.06-1.13,2.06-3-2.09-4.09-2c0,0,.92,1.49.67,1.85s-1.15-.52-3.12,1.28c0,0,2,1,2,1.33s-1.69,1.66-1.73,2.28S411.2,415.08,416.27,418.68Z"/><path class="cls-29" d="M420.17,419.39a6.84,6.84,0,0,1-.22,5.53l.32,1.58a1.71,1.71,0,0,1-.37.69,7.8,7.8,0,0,0-1.68,2.4,5.72,5.72,0,0,1-.54,1.41s-2.09-.88-3.18-1.47l-.7-1.24a2.91,2.91,0,0,0,2.3-.19,6.36,6.36,0,0,1-1.36-1.53s1.73.17,2.27-.36a13.19,13.19,0,0,1-.91-2.13,4.62,4.62,0,0,0,.16,1.95,5.35,5.35,0,0,1-2.22.12,5.62,5.62,0,0,0,1.35,1.82,3.92,3.92,0,0,1-2.64-.33,1.49,1.49,0,0,0,.44,1.17l-2.72-1.7s5.32-4.31-.85-8.34c0,0,1.69-.49,4.26,1.06a2.81,2.81,0,0,0-.2-1.82,6.22,6.22,0,0,1,2.78,1.59,1.89,1.89,0,0,0,.42-1.81s1.76,1.25,1.88,2.47A3,3,0,0,0,420.17,419.39Z"/><path class="cls-29" d="M413.7,409.31a4.12,4.12,0,0,1,.79,3.1s-2.83-1.44-2.92-2.19.3-.92.3-.92l1.48,1.16Z"/><path class="cls-29" d="M430.61,399s-1.05,2.55-1.95,2.21c0,0,0-.67-.43-.58a24.67,24.67,0,0,1-6.58.72s1.33-1.9,1.14-2.1-3.81-1.19-4.24-1.57c0,0,.39-.63,2.17-.45,0,0-1.16-2.32-1.06-3.15a13.62,13.62,0,0,1,2.26.63l1.06-1.94a7,7,0,0,0,5.37,4.55,4.79,4.79,0,0,1-2,1.2A12.08,12.08,0,0,0,430.61,399Z"/><path class="cls-29" d="M422.08,399.65a5.38,5.38,0,0,1-3.57,1.33l1-1.09-2-.59a3.71,3.71,0,0,1,2.22-.57A13.08,13.08,0,0,1,422.08,399.65Z"/><path class="cls-29" d="M430.85,399.82s4.14-1.51,4.9-3.62c0,0,2.19.25,1.83-2.27,0,0,1.85-2.41,1.53-2.64s-1.59-.17-1.86-.32a4.84,4.84,0,0,0-1.39-.36,7.49,7.49,0,0,1,.39,1.21,19.6,19.6,0,0,1-2.05.07,5.06,5.06,0,0,1,1,1.7,6.2,6.2,0,0,1-3.46.54,17.67,17.67,0,0,0,2.64-.84,3.12,3.12,0,0,0-1.4-1.8l2.78,0a1.76,1.76,0,0,0-1.38-1.2s.56-.83,1.06-.71a3.94,3.94,0,0,0-3.09-.64s-.79,5.36-7.73,3.91a7.48,7.48,0,0,0,3.76,2.1,5.05,5.05,0,0,1-1.79,1.1,5.29,5.29,0,0,0,2.72,1.19,2.57,2.57,0,0,1-1.15,1.15,6.75,6.75,0,0,0,3.29.21A4.16,4.16,0,0,1,430.85,399.82Z"/><path class="cls-30" d="M429.42,407.71s7.9,3.16,5.93,8.23-10.47.1-10.47.1S426.44,410.44,429.42,407.71Z"/><path class="cls-31" d="M396.92,402.84s-1.11-1.89-2.68-1.45-2.25,5.85,2.34,6.52c0,0-1.74-.9-.75-3.63l.07.52,1-.7Z"/><path class="cls-29" d="M361.54,386.6l-1.64,1.72-1.87-.87-1.25-2.07a21,21,0,0,1,4.73-9.76l2.22-.52,1.87.87-.28,2.44Z"/><path class="cls-32" d="M362.2,386.48l-.66.12a17,17,0,0,1,3.78-8.19l.13.63.06.26Z"/><path class="cls-28" d="M365.9,384a3.27,3.27,0,0,0-1.32,1.39,17.56,17.56,0,0,0-.86,1.85l-1.6-.74a18.54,18.54,0,0,1,3.32-7.43l1.39.65.33.15S365.57,382.6,365.9,384Z"/><path class="cls-29" d="M325.7,360s1.71,1.11,8.94-2.39l.38,2.92,2.09,2.16-1.41,1.78-2.65,3.91-1.39,4.18-.67,2.32-2.81-.4-2.67,1.27s-1.69-5.75-3.48-7.39C322,368.39,321.91,364.84,325.7,360Z"/><polygon class="cls-28" points="331.41 372.6 328.23 373 328.25 372.23 325.98 372.85 332.29 360.07 332.92 362.49 332.41 363.26 334.63 365.63 332.79 369.15 331.41 372.6"/><path class="cls-33" d="M331.64,374.13l-.65.78a17.89,17.89,0,0,1,6.12-12.19l-.33,1.11Z"/><path class="cls-34" d="M336.78,363.83l.46.4,2.27,2.3.73.73L344,369l14.05,6.67-3.25,7.37h-.14l-19.1-8.64-2.43-.62-.89.79-.63-.46A16.87,16.87,0,0,1,336.78,363.83Z"/><path class="cls-11" d="M361.51,375.62a4.47,4.47,0,0,1-3.35-.31,36.47,36.47,0,0,0-3.7,8s2.11,1.22,2.54,2.51a34.84,34.84,0,0,1,4.82-10.07Z"/><path class="cls-11" d="M354.05,383.1s-.2-1.34,3.58-8L355.32,374a14.12,14.12,0,0,0-3.6,7.8l0,.18Z"/><path class="cls-11" d="M351.05,381.71a16,16,0,0,1,3.68-7.95l-3.09-1.42a14.17,14.17,0,0,0-3.67,8Z"/><path class="cls-11" d="M347,379.86a17.19,17.19,0,0,1,3.83-7.88l-3.31-1.53a16.44,16.44,0,0,0-3.73,8.07Z"/><path class="cls-11" d="M343.34,378.14a17.27,17.27,0,0,1,3.67-7.95l-3.05-1.4a12.94,12.94,0,0,0-3.73,8.07Z"/><path class="cls-11" d="M339.25,376.61a20.32,20.32,0,0,1,4.05-8.33l-2.94-1.16a16.8,16.8,0,0,0-3.81,8.24Z"/><path class="cls-11" d="M335.77,375.17s.08-4.29,4.12-8.92l-2.65-2a19.75,19.75,0,0,0-5,10.36Z"/><path class="cls-35" d="M325.64,375.05s.8-9.89,8.09-16.39c0,0-2.32,3.45-2.32,4.36s-1.26.66-1.52,1.73a14.12,14.12,0,0,1-1.58,3.42c-.74,1.28-.21,2.25-.72,2.91A37.34,37.34,0,0,0,325.64,375.05Z"/><path class="cls-29" d="M328.21,374.15s1.63-2.21,1.46-2.66a10.4,10.4,0,0,1-.34-2.25c.05-.11,2-5.31,4.68-8,0,0-3,2.71-5.06,8.65A16.9,16.9,0,0,0,328.21,374.15Z"/><path class="cls-36" d="M323.75,370.94l1.12-2.23s.52-.86.8-1,.65.12,1.16-.93,1.16-2.52,1.16-2.52.4-.75.21-1.09a1.2,1.2,0,0,1,0-.89l1.16-2.56"/><path class="cls-36" d="M322.54,368.19a19.5,19.5,0,0,1,3.87-7.83"/><path class="cls-32" d="M364.33,385s.65-1.47,1-1.34c0,0-.26-.11.35-1.56Z"/><path class="cls-36" d="M360.09,387.58a23.61,23.61,0,0,1,5-10.8"/><path class="cls-36" d="M358.33,386.8a23.61,23.61,0,0,1,5-10.8"/><path class="cls-5" d="M342.37,371.05a25,25,0,0,1,11.07,4c1.82-1.13,3.82-2.61,4.33-4.67l-.67-2.17a23.83,23.83,0,0,0-12.55-3.56,10.18,10.18,0,0,0-3.18,4.39Z"/><path class="cls-5" d="M342.44,371.49a9.34,9.34,0,0,0-5.16-2.07,28.27,28.27,0,0,0-7.8,10c.44.49,1.34,1.45,1.32,1.48a17.54,17.54,0,0,0,6,4.39,64.74,64.74,0,0,0,6.64-11.86Z"/><path class="cls-5" d="M349.65,373.54a15,15,0,0,0-2.49-.94,4.91,4.91,0,0,0-2.63-.1,39.12,39.12,0,0,0-5.28,13.59l1.18,1.27a18,18,0,0,0,8.49,2c1.55-4.28,2.51-9.48,1.59-14Z"/><path class="cls-37" d="M358.28,369.15a23.85,23.85,0,0,0-12.55-3.56,10.18,10.18,0,0,0-3.18,4.39,24.94,24.94,0,0,1,11.27,4.08C355.69,372.87,357.75,371.31,358.28,369.15Zm-7.46,5.33a13.72,13.72,0,0,0-2.48-.93,4.82,4.82,0,0,0-2.63-.11A39.2,39.2,0,0,0,340.43,387a17.94,17.94,0,0,0,8.65,2.06C350.7,384.6,351.73,379.16,350.82,374.48Zm-14.09,10.41a17.37,17.37,0,0,1-6.07-4.55,28.36,28.36,0,0,1,7.8-10,9.28,9.28,0,0,1,5.16,2.08A70.3,70.3,0,0,1,336.73,384.89Z"/><path class="cls-9" d="M310.2,243.32a94.17,94.17,0,0,1,11.44,4.06c7.32,9.16,9.54,21.18,8.12,34.38a73.43,73.43,0,0,0,13-5.46c-5.65-16.22-11.94-30.59-23.18-43.78a87.89,87.89,0,0,0-9.44,10.68A.83.83,0,0,0,310.2,243.32Z"/></g></g></svg>