<svg id="Layer_1" data-name="Layer 1" xmlns="http://www.w3.org/2000/svg" xmlns:xlink="http://www.w3.org/1999/xlink" viewBox="0 0 543.42 656.85"><defs><style>.cls-1{fill:url(#linear-gradient);}.cls-2{fill:url(#linear-gradient-2);}.cls-3{fill:url(#linear-gradient-3);}.cls-4{fill:url(#linear-gradient-4);}.cls-5{fill:url(#linear-gradient-5);}.cls-6{fill:url(#linear-gradient-6);}.cls-7{fill:url(#linear-gradient-7);}.cls-8{fill:#1a1c13;}.cls-9{fill:url(#linear-gradient-8);}.cls-10{fill:url(#linear-gradient-9);}.cls-11{fill:#424828;}.cls-12{fill:#2a3418;}.cls-13{fill:#121610;}.cls-14{fill:#a6bb7c;}.cls-15{fill:#d8e2b1;}.cls-16{fill:#ced6ab;}.cls-17{fill:#989975;}</style><linearGradient id="linear-gradient" x1="190.31" y1="302" x2="148.58" y2="294.8" gradientUnits="userSpaceOnUse"><stop offset="0" stop-color="#121610"/><stop offset="0.52" stop-color="#525a46"/><stop offset="1" stop-color="#b2b17d"/></linearGradient><linearGradient id="linear-gradient-2" x1="195.96" y1="265.05" x2="152.56" y2="257.57" xlink:href="#linear-gradient"/><linearGradient id="linear-gradient-3" x1="232.8" y1="293.65" x2="274.49" y2="283.56" gradientUnits="userSpaceOnUse"><stop offset="0" stop-color="#434d4c"/><stop offset="0.38" stop-color="#525a46"/><stop offset="1" stop-color="#b2b17d"/></linearGradient><linearGradient id="linear-gradient-4" x1="223.19" y1="260.17" x2="268.24" y2="249.27" gradientUnits="userSpaceOnUse"><stop offset="0" stop-color="#66644e"/><stop offset="0.38" stop-color="#8c8b6b"/><stop offset="1" stop-color="#b2b17d"/></linearGradient><linearGradient id="linear-gradient-5" x1="160.88" y1="319.37" x2="217.6" y2="319.37" gradientUnits="userSpaceOnUse"><stop offset="0" stop-color="#424e47"/><stop offset="0.44" stop-color="#626450"/><stop offset="1" stop-color="#868559"/></linearGradient><linearGradient id="linear-gradient-6" x1="113.76" y1="319.57" x2="280.1" y2="319.57" gradientUnits="userSpaceOnUse"><stop offset="0" stop-color="#dbe0ab"/><stop offset="0.5" stop-color="#b0ae6d"/><stop offset="1" stop-color="#d9e0ad"/></linearGradient><linearGradient id="linear-gradient-7" x1="175.33" y1="291.98" x2="241.9" y2="291.98" gradientUnits="userSpaceOnUse"><stop offset="0.19" stop-color="#374546"/><stop offset="0.28" stop-color="#3b535a"/><stop offset="0.44" stop-color="#768768"/><stop offset="0.52" stop-color="#8e9c6e"/><stop offset="0.66" stop-color="#acb488"/></linearGradient><linearGradient id="linear-gradient-8" x1="224.64" y1="294.54" x2="192.24" y2="294.21" gradientUnits="userSpaceOnUse"><stop offset="0" stop-color="#e8f0bf"/><stop offset="0.07" stop-color="#d4dba6"/><stop offset="0.24" stop-color="#a5a76a"/><stop offset="0.33" stop-color="#929352"/><stop offset="0.55" stop-color="#64653f"/><stop offset="0.97" stop-color="#10140e"/></linearGradient><linearGradient id="linear-gradient-9" x1="211.14" y1="251.63" x2="190.05" y2="251.56" gradientUnits="userSpaceOnUse"><stop offset="0" stop-color="#e8f0bf"/><stop offset="0.33" stop-color="#929352"/><stop offset="0.55" stop-color="#64653f"/><stop offset="0.97" stop-color="#10140e"/></linearGradient></defs><title>Master</title><path class="cls-1" d="M165.61,295.93s9.45,2.32,11.56,11.67,3.67-9.34,3.67-9.34-11.2-11-14.36-10.6-5.6,4.31-5.6,4.31Z"/><path class="cls-2" d="M179.1,304.07s-5.61-14.38-18.22-12.1c0,0-1-50.93,26.37-70.34Z"/><path class="cls-3" d="M240.15,307.6s4.91-22.46,27.85-28.39l1-10-23.08,8.25-11,24.91Z"/><path class="cls-4" d="M225.27,213.6s44.41,11.85,43.79,56.1c0,0-24.45,12.94-30.05,30.56S216.78,241.61,225.27,213.6Z"/><path class="cls-5" d="M186.1,207.74l17-18.78,8,213.13,6.52,47.69s-42.71-31.11-56.72-126c0,0,5.78,3.45,8.41,2S183.76,295.45,186.1,207.74Z"/><path class="cls-6" d="M203.05,189l20.1,10.54.7,52,9.27,40.88,13.49,17.79,6,6.18s6.83,1.81,16.47-1.29v8.59l-4.56,30.56L248,403.44c-9.27,20.88-18.78,39.86-29.8,46.73,0,0-13.93-21.58-17.64-107.33S200.45,195.55,203.05,189Z"/><path class="cls-7" d="M200.75,351.89s29.92-72.28,10-115.6l-9.14-4.23-3.77.92-6.65,11.31L188.12,259S182.28,297,200.75,351.89Z"/><path class="cls-8" d="M187.67,287.66s-4-41.86,12.29-54.36v-4.49S185.22,234.1,187.67,287.66Z"/><path class="cls-9" d="M210.09,251.59s-.09,10-4.07,28.34-5.65,57.16-5.65,57.16-2.42-49.61-4.58-59.5-6.12-18.28-6-21.47S210.09,251.59,210.09,251.59Z"/><path class="cls-10" d="M204.19,239.23s9.28.94,6,15.75-20.67,9-20.4,1.14S190.79,237.61,204.19,239.23Z"/><path class="cls-11" d="M200.55,241.82s6.83-.7,7.35,7-3.7,10.83-6.13,11.25c-3.36,1.4-9-2.82-8.32-3.5Z"/><path class="cls-12" d="M194.33,245.85l-1.52,1.86s-2.8,7.36,2.28,10.75,12.09.66,11-11.34A17.46,17.46,0,0,0,194.33,245.85Z"/><path class="cls-13" d="M196.6,254.7s-2.84-6.26,1.69-10.68,7.6,2.68,7.6,2.68-2.16-7.9-9.58-3.59-2.77,11.86-1.54,12.58S196.6,254.7,196.6,254.7Z"/><path class="cls-14" d="M202.12,242.58s-3.86-.81-4.82,2.16,2.83,2.67,3.69,2.81,1.91,6,.25,7.79-2.28,2-5,1.35,7.39,4.76,9.43-6.07C205.68,250.62,207.63,245.1,202.12,242.58Z"/><path class="cls-15" d="M203.62,254.49s3.59-3.5,1.75-8-4.91-2.24-4.82-1,1.49,3.33,1.49,4.59S202.21,253.59,203.62,254.49Z"/><path class="cls-13" d="M192.58,255.13s1.34,3.71,6.77,5.09C199.35,260.22,193.63,260.16,192.58,255.13Z"/><path class="cls-16" d="M200.37,228.81s26,.18,15,70.63c0,0,8.27-59.13-15.39-66.14v-4.49Z"/><path class="cls-17" d="M222.53,199.11S210.85,288.52,252,316c0,0-26.62-24.83-27.32-73.47,0,0-.35-30.31,2.1-40.73Z"/><path class="cls-17" d="M268.41,314.66s-9.86,85.87-50.81,135.12h6.33s35.37-41.54,50.43-128.61Z"/></svg>