<svg xmlns="http://www.w3.org/2000/svg" xmlns:xlink="http://www.w3.org/1999/xlink" viewBox="0 0 543.42 656.85"><defs><style>.cls-1,.cls-15,.cls-16{isolation:isolate;}.cls-2{fill:url(#linear-gradient);}.cls-3{fill:url(#linear-gradient-2);}.cls-4{fill:url(#linear-gradient-3);}.cls-5{fill:url(#linear-gradient-4);}.cls-6{fill:url(#linear-gradient-5);}.cls-7{fill:url(#linear-gradient-6);}.cls-8{fill:url(#linear-gradient-7);}.cls-9{fill:url(#linear-gradient-8);}.cls-10{fill:url(#linear-gradient-9);}.cls-11{fill:url(#linear-gradient-10);}.cls-12{fill:url(#linear-gradient-11);}.cls-13{fill:url(#linear-gradient-12);}.cls-14{fill:url(#linear-gradient-13);}.cls-15{fill:#fff;}.cls-15,.cls-16{opacity:0.1;}.cls-16,.cls-25{fill:#d7d7d7;}.cls-17{fill:url(#linear-gradient-14);}.cls-18{fill:#2b3e51;}.cls-19{fill:url(#_ÂÁ_Ï_ÌÌ_È_ËÂÌÚ_3);}.cls-20{fill:url(#_ÂÁ_Ï_ÌÌ_È_ËÂÌÚ_5);}.cls-21{fill:#d3d3d3;}.cls-22{fill:#99999a;}.cls-23,.cls-26{mix-blend-mode:screen;}.cls-23{fill:url(#_ÂÁ_Ï_ÌÌ_È_ËÂÌÚ_40);}.cls-24{fill:url(#_ÂÁ_Ï_ÌÌ_È_ËÂÌÚ_4);}.cls-26{fill:url(#_ÂÁ_Ï_ÌÌ_È_ËÂÌÚ_40-2);}.cls-27{fill:url(#linear-gradient-15);}.cls-28{fill:url(#linear-gradient-16);}.cls-29{fill:url(#linear-gradient-17);}.cls-30{fill:url(#linear-gradient-18);}.cls-31{fill:url(#linear-gradient-19);}.cls-32{fill:url(#linear-gradient-20);}.cls-33{fill:url(#linear-gradient-21);}.cls-34{fill:url(#linear-gradient-22);}.cls-35{fill:url(#linear-gradient-23);}.cls-36{fill:url(#linear-gradient-24);}.cls-37{fill:url(#linear-gradient-25);}.cls-38{fill:url(#linear-gradient-26);}.cls-39{fill:url(#linear-gradient-27);}.cls-40{fill:url(#linear-gradient-28);}.cls-41{fill:none;stroke-miterlimit:10;stroke-width:0.53px;stroke:url(#linear-gradient-29);}.cls-42{fill:url(#_ÂÁ_Ï_ÌÌ_È_ËÂÌÚ_3-2);}</style><linearGradient id="linear-gradient" x1="317.63" y1="217.45" x2="317.98" y2="203.46" gradientTransform="translate(55.73 -54.32) rotate(10.91)" gradientUnits="userSpaceOnUse"><stop offset="0" stop-color="#606161"/><stop offset="0.45" stop-color="#efd4b8"/><stop offset="1" stop-color="#8b725c"/></linearGradient><linearGradient id="linear-gradient-2" x1="311.62" y1="209.81" x2="315.58" y2="209.81" gradientTransform="translate(55.73 -54.32) rotate(10.91)" gradientUnits="userSpaceOnUse"><stop offset="0" stop-color="#caae93"/><stop offset="0.45" stop-color="#efd4b8"/><stop offset="1" stop-color="#8b725c"/></linearGradient><linearGradient id="linear-gradient-3" x1="307.65" y1="215.84" x2="308.55" y2="204.77" gradientTransform="translate(55.73 -54.32) rotate(10.91)" gradientUnits="userSpaceOnUse"><stop offset="0.12" stop-color="#7f7a76"/><stop offset="0.6" stop-color="#c5c0bc"/><stop offset="1" stop-color="#9c938b"/></linearGradient><linearGradient id="linear-gradient-4" x1="304.4" y1="215.69" x2="304.16" y2="205.86" xlink:href="#linear-gradient-3"/><linearGradient id="linear-gradient-5" x1="305.8" y1="221.51" x2="306.94" y2="221.51" gradientTransform="translate(537.34 -84.36) rotate(90.22)" gradientUnits="userSpaceOnUse"><stop offset="0.01" stop-color="#301c15"/><stop offset="0.46" stop-color="#6d5343"/><stop offset="0.91" stop-color="#503c34"/></linearGradient><linearGradient id="linear-gradient-6" x1="306.29" y1="219.33" x2="306.94" y2="219.33" gradientTransform="translate(55.73 -54.32) rotate(10.91)" xlink:href="#linear-gradient-5"/><linearGradient id="linear-gradient-7" x1="315.19" y1="221.49" x2="316.33" y2="221.49" gradientTransform="translate(546.57 -92) rotate(90.22)" xlink:href="#linear-gradient-5"/><linearGradient id="linear-gradient-8" x1="315.67" y1="219.3" x2="316.32" y2="219.3" gradientTransform="translate(55.73 -54.32) rotate(10.91)" xlink:href="#linear-gradient-5"/><linearGradient id="linear-gradient-9" x1="302.62" y1="216.84" x2="309.79" y2="216.84" gradientTransform="matrix(1, 0, 0, 1, 0, 0)" xlink:href="#linear-gradient-5"/><linearGradient id="linear-gradient-10" x1="302.27" y1="218.94" x2="309.03" y2="218.94" gradientTransform="matrix(1, 0, 0, 1, 0, 0)" xlink:href="#linear-gradient-5"/><linearGradient id="linear-gradient-11" x1="298.81" y1="218.01" x2="299.16" y2="204.02" xlink:href="#linear-gradient"/><linearGradient id="linear-gradient-12" x1="292.8" y1="210.37" x2="296.76" y2="210.37" xlink:href="#linear-gradient-2"/><linearGradient id="linear-gradient-13" x1="301.82" y1="234.95" x2="326.3" y2="234.95" gradientTransform="matrix(1, 0, 0, 1, 0, 0)" xlink:href="#linear-gradient-5"/><linearGradient id="linear-gradient-14" x1="301.92" y1="226.89" x2="330.39" y2="226.89" gradientTransform="matrix(1, 0, 0, 1, 0, 0)" xlink:href="#linear-gradient-3"/><linearGradient id="_ÂÁ_Ï_ÌÌ_È_ËÂÌÚ_3" x1="361.97" y1="309.8" x2="331.8" y2="324.79" gradientTransform="translate(37.1 -35.6) rotate(6.32)" gradientUnits="userSpaceOnUse"><stop offset="0" stop-color="#fff"/><stop offset="0.84" stop-color="#e9e8e7"/></linearGradient><linearGradient id="_ÂÁ_Ï_ÌÌ_È_ËÂÌÚ_5" x1="358.08" y1="282.29" x2="346.34" y2="332.32" gradientTransform="translate(37.1 -35.6) rotate(6.32)" gradientUnits="userSpaceOnUse"><stop offset="0" stop-color="#fff"/><stop offset="0.48" stop-color="#eee"/><stop offset="1" stop-color="#d7d7d7"/></linearGradient><linearGradient id="_ÂÁ_Ï_ÌÌ_È_ËÂÌÚ_40" x1="351.65" y1="280.58" x2="349.92" y2="343.7" gradientTransform="translate(37.1 -35.6) rotate(6.32)" gradientUnits="userSpaceOnUse"><stop offset="0.17" stop-color="#beb48e"/><stop offset="0.26" stop-color="#b4ab87"/><stop offset="0.41" stop-color="#9a9273"/><stop offset="0.6" stop-color="#6f6953"/><stop offset="0.82" stop-color="#343127"/><stop offset="1" stop-color="#010101"/></linearGradient><linearGradient id="_ÂÁ_Ï_ÌÌ_È_ËÂÌÚ_4" x1="92.36" y1="-726.75" x2="101.99" y2="-674.21" gradientTransform="translate(372.9 957.13) rotate(-10.74)" gradientUnits="userSpaceOnUse"><stop offset="0.04" stop-color="#fff"/><stop offset="0.3" stop-color="#fbfbfb"/><stop offset="0.55" stop-color="#efefef"/><stop offset="0.7" stop-color="#e5e5e4"/><stop offset="0.8" stop-color="#dfdfde"/><stop offset="1" stop-color="#d7d7d7"/></linearGradient><linearGradient id="_ÂÁ_Ï_ÌÌ_È_ËÂÌÚ_40-2" x1="94.4" y1="-727.14" x2="97.97" y2="-682.05" gradientTransform="translate(372.9 957.13) rotate(-10.74)" xlink:href="#_ÂÁ_Ï_ÌÌ_È_ËÂÌÚ_40"/><linearGradient id="linear-gradient-15" x1="253.68" y1="489.28" x2="262.53" y2="475.7" gradientUnits="userSpaceOnUse"><stop offset="0" stop-color="#c7c2bd"/><stop offset="1" stop-color="#746f6c"/></linearGradient><linearGradient id="linear-gradient-16" x1="1416.48" y1="2643.75" x2="1421.2" y2="2643.75" gradientTransform="matrix(1.01, 0.62, -0.64, 1.04, 519.05, -3164.37)" gradientUnits="userSpaceOnUse"><stop offset="0.03" stop-color="#baaea1"/><stop offset="0.49" stop-color="#decebe"/><stop offset="1" stop-color="#c4b6a8"/></linearGradient><linearGradient id="linear-gradient-17" x1="828.49" y1="1524.26" x2="852.55" y2="1529.36" gradientTransform="matrix(1.08, 0.26, -0.24, 0.99, -234.46, -1323.74)" xlink:href="#linear-gradient-5"/><linearGradient id="linear-gradient-18" x1="306.76" y1="563.63" x2="319.82" y2="569.13" gradientTransform="matrix(1, 0.04, -0.04, 1, 31.89, -196.77)" gradientUnits="userSpaceOnUse"><stop offset="0" stop-color="#816852"/><stop offset="0.45" stop-color="#efd4b8"/><stop offset="1" stop-color="#8b725c"/></linearGradient><linearGradient id="linear-gradient-19" x1="325.23" y1="350.29" x2="338.4" y2="355.31" gradientTransform="matrix(1, 0, 0, 1, 0, 0)" xlink:href="#linear-gradient-3"/><linearGradient id="linear-gradient-20" x1="603.34" y1="331.61" x2="615.81" y2="336.87" gradientTransform="matrix(1.06, -0.01, 0.01, 1.11, -303.88, -41.68)" xlink:href="#linear-gradient-18"/><linearGradient id="linear-gradient-21" x1="338.23" y1="320.78" x2="348.86" y2="320.78" gradientUnits="userSpaceOnUse"><stop offset="0" stop-color="#cbb993"/><stop offset="0.54" stop-color="#efe3cc"/><stop offset="1" stop-color="#eee0bd"/></linearGradient><linearGradient id="linear-gradient-22" x1="339.89" y1="298.71" x2="362.12" y2="303.41" gradientTransform="matrix(1, 0, 0, 1, 0, 0)" xlink:href="#linear-gradient-5"/><linearGradient id="linear-gradient-23" x1="349.62" y1="279.65" x2="358.31" y2="279.65" gradientTransform="matrix(1, 0, 0, 1, 0, 0)" xlink:href="#linear-gradient-16"/><linearGradient id="linear-gradient-24" x1="412.67" y1="1953.32" x2="424.54" y2="1953.32" gradientTransform="translate(518.01 -1560.25) rotate(18.41)" xlink:href="#linear-gradient-16"/><linearGradient id="linear-gradient-25" x1="349.95" y1="238.92" x2="362.12" y2="238.92" gradientUnits="userSpaceOnUse"><stop offset="0" stop-color="#301c15"/><stop offset="0.69" stop-color="#6d5343"/></linearGradient><linearGradient id="linear-gradient-26" x1="353.73" y1="196.81" x2="358.34" y2="196.81" gradientTransform="matrix(1, 0, 0, 1, 0, 0)" xlink:href="#linear-gradient-16"/><linearGradient id="linear-gradient-27" x1="358.57" y1="176.7" x2="355.56" y2="194.7" xlink:href="#linear-gradient-15"/><linearGradient id="linear-gradient-28" x1="262.08" y1="444.3" x2="301" y2="464.09" gradientUnits="userSpaceOnUse"><stop offset="0.1" stop-color="#301c15"/><stop offset="0.79" stop-color="#6d5343"/></linearGradient><linearGradient id="linear-gradient-29" x1="217.54" y1="468.81" x2="393.54" y2="198.76" xlink:href="#linear-gradient-15"/><linearGradient id="_ÂÁ_Ï_ÌÌ_È_ËÂÌÚ_3-2" x1="778.41" y1="526.27" x2="752.49" y2="555.05" gradientTransform="translate(-120.96 -462.82) rotate(25.29)" xlink:href="#_ÂÁ_Ï_ÌÌ_È_ËÂÌÚ_3"/></defs><title>Master</title><g class="cls-1"><g id="Layer_1" data-name="Layer 1"><polygon class="cls-2" points="325.18 217.56 327.75 216.07 331.33 206.15 327.08 207.54 325.18 217.56"/><polygon class="cls-3" points="324.74 217.47 322.9 215.16 323.18 204.61 326.64 207.45 324.74 217.47"/><polygon class="cls-4" points="315.83 216.28 318.38 214.79 321.96 204.88 317.72 206.26 315.83 216.28"/><polygon class="cls-5" points="315.38 216.19 313.55 213.88 313.82 203.34 317.27 206.17 315.38 216.19"/><rect class="cls-6" x="297.91" y="220.66" width="33.47" height="1.01" transform="translate(38.97 489.34) rotate(-79.31)"/><path class="cls-7" d="M312,237.71l7-37c0-.13-.18-.27-.46-.32l-7,37.19Z"/><rect class="cls-8" x="307.14" y="222.41" width="33.47" height="1.01" transform="translate(44.77 499.83) rotate(-79.31)"/><path class="cls-9" d="M321.26,239.45l7-37c0-.13-.18-.27-.46-.32l-7,37.19Z"/><path class="cls-10" d="M303,235l6.78-36c0-.12-.17-.26-.45-.32l-6.71,35.55C302.74,234.5,302.87,234.75,303,235Z"/><path class="cls-11" d="M303,235l6-31.93-1-.19-5.77,30.6C302.51,234,302.73,234.51,303,235Z"/><polygon class="cls-12" points="306.6 214.54 309.16 213.06 312.74 203.14 308.49 204.52 306.6 214.54"/><polygon class="cls-13" points="306.16 214.45 304.32 212.14 304.6 201.59 308.05 204.44 306.16 214.45"/><path class="cls-14" d="M301.82,232.62c.49.8.79,1.74,1.28,2.54a37.59,37.59,0,0,1-1.13,4.22c2.18.4,4.35.83,6.53,1.29.54.79,1.13,1.77,1.7,2.65a93.85,93.85,0,0,1,11.19,4l4.91-20.1-12.25-2.31-11.94-2.26A56.74,56.74,0,0,1,301.82,232.62Z"/><path class="cls-15" d="M301.82,232.62c.49.8.79,1.74,1.28,2.54a37.59,37.59,0,0,1-1.13,4.22c2.18.4,4.35.83,6.53,1.29.54.79,1.13,1.77,1.7,2.65l.35.1,3.5-18.55-11.94-2.26A56.74,56.74,0,0,1,301.82,232.62Z"/><polygon class="cls-16" points="298.66 219.02 298.69 228.99 313.12 231.71 314.94 222.09 298.66 219.02"/><path class="cls-17" d="M302.1,229.56l10.61,2,14.06,2.65,3.62-9.27-15.86-3-12.61-2.38A71.28,71.28,0,0,1,302.1,229.56Z"/><path class="cls-18" d="M350.9,317.53a201.62,201.62,0,0,0-6.9-43.48A25,25,0,0,0,331.53,277a148.18,148.18,0,0,1,6.09,36.44,19,19,0,0,0,9.41,6.28,4.34,4.34,0,0,0,2.05.23A3.52,3.52,0,0,0,350.9,317.53Z"/><path class="cls-19" d="M349.29,346.87c2.31-6.88,3.54-14.28,6.62-20.83a50,50,0,0,0,.9-39.12,23.39,23.39,0,0,0-11.13.74A23.73,23.73,0,0,1,342.92,302a10.14,10.14,0,0,1-5.66-5.48,28.71,28.71,0,0,1-2.41-7.92,24.64,24.64,0,0,0-15.63,12.67,51.94,51.94,0,0,0,6.33,22.38,163.57,163.57,0,0,1-2.29,19.72c-.53,3.25,2.09,6.86,5.07,8s16.07,1.59,17.52.77S348.76,348.47,349.29,346.87Z"/><path class="cls-20" d="M352.2,286.56a60.92,60.92,0,0,1-1.93,30.49,15.76,15.76,0,0,1,3.49,3.23,38,38,0,0,1-5,14.37l.33.29c1,.92,1.88,1.89,2.92,2.64A70.67,70.67,0,0,1,355.91,326a50,50,0,0,0,.9-39.12A19.19,19.19,0,0,0,352.2,286.56Z"/><path class="cls-21" d="M335.42,339.43a178.2,178.2,0,0,1,4.84-23.24A34.72,34.72,0,0,1,339,304a14.31,14.31,0,0,0,4.33-1.95c0-.2,0-.42-.07-.64-.11.22-.21.44-.33.66a10.14,10.14,0,0,1-5.66-5.48,28.71,28.71,0,0,1-2.41-7.92,24.64,24.64,0,0,0-15.63,12.67,51.94,51.94,0,0,0,6.33,22.38,163.57,163.57,0,0,1-2.29,19.72c-.53,3.25,2.09,6.86,5.07,8s16.07,1.59,17.52.77a6.77,6.77,0,0,0,2-2.32A32.75,32.75,0,0,0,335.42,339.43Z"/><path class="cls-22" d="M324.93,333.05l-.2-.52a21.68,21.68,0,0,1,6.64-1.72l1-6c.36-2.06.71-4.12,1.06-6.11a35,35,0,0,1-5.08-11,23.41,23.41,0,0,0-7.65,2.71l-.26-.49a23.9,23.9,0,0,1,8.07-2.82l.25,0,.06.24A34.4,34.4,0,0,0,334,318.45l.07.1,0,.12c-.35,2-.71,4.12-1.08,6.23l-1.07,6.23,0,.22h-.22A21.1,21.1,0,0,0,324.93,333.05Z"/><path class="cls-22" d="M351.86,338.19c-1.52-.35-2.68-1.66-3.61-2.71l-.2-.22.15-.27A42.63,42.63,0,0,0,353,321.18l.09-.62a12,12,0,0,0-3.12-2.71l-.28-.17.09-.32a71.59,71.59,0,0,0,1.87-30.67l.81-.15a72.55,72.55,0,0,1-1.8,30.74,12.93,12.93,0,0,1,3.19,2.89l.11.14-.15,1a43.15,43.15,0,0,1-4.77,13.83,6.58,6.58,0,0,0,3,2.24Z"/><path class="cls-23" d="M347.27,344.17c-1.77-1.35-3.71-2.47-5.49-3.81,4-7.76,5.93-16.31,7.21-24.75a74.59,74.59,0,0,0-1.18-28.29,20.73,20.73,0,0,1,7.62-.63,39.85,39.85,0,0,1-1.7,38.06C351.66,331,349.7,338,347.27,344.17Z"/><path class="cls-24" d="M339.78,231.68a108.7,108.7,0,0,0-20.16.8s-.06,0-.05.05c11.22,13.17,17.52,27.55,23.17,43.77a60.41,60.41,0,0,0,9.53-6.72C351.09,255.47,347.48,243.61,339.78,231.68Z"/><path class="cls-25" d="M351.38,261a43,43,0,0,1-9.14.08c-.06,0-.22,0-.26,0s-.05-.2-.07-.27C339.34,249.89,334.68,241,328,232l.62-.49a76.74,76.74,0,0,1,14.06,28.77,43.8,43.8,0,0,0,8.29,0c1.12-.12.24,0,.26,0,.43.12.19.68.15.78S351.39,261,351.38,261Z"/><path class="cls-26" d="M351.05,267a83.25,83.25,0,0,0-11.46-34.29,114,114,0,0,0-18,.22,57.53,57.53,0,0,1,15.87,3.63A90,90,0,0,1,351.05,267Z"/><path class="cls-27" d="M260.28,482.82s-5.89,8.69-8.06,14.23c0,0-2.34,1.2-1.83-1.55s3.81-12.45,6.2-16.2,4.47,2.85,4.47,2.85Z"/><path class="cls-28" d="M262.75,479.87s-.82,1.18-1.69,2.28a5.19,5.19,0,0,1-4.47-2.85s0-.41,1.5-2.3Z"/><path class="cls-29" d="M316.12,380.12s-15.7,32.45-22.34,40.62c0,0,1.48,4.73,9.91,6.66,0,0,15.37-25.57,21.71-42.56Z"/><path class="cls-30" d="M318.15,374.9a9.74,9.74,0,0,1-2,5.23s1.38,4.55,9.26,4.86c0,0,0-4.22,1.91-5.24Z"/><path class="cls-31" d="M336.38,325.09S328.32,351,318.15,374.9c0,0,2.46,4.57,9.11,4.91,0,0,6.44-20.56,18.83-50.09Z"/><path class="cls-32" d="M338.23,319.67a9.65,9.65,0,0,1-1.81,5.42s1.31,4.73,9.67,4.69c0,0-.21-4.28,1.73-5.49Z"/><path class="cls-33" d="M339.52,317.27s-1.2,0-1.29,2.4a12,12,0,0,0,9.6,4.62,3,3,0,0,0,.85-3.17Z"/><path class="cls-34" d="M349.64,279.84s-6.6,29.37-10.11,37.43c0,0,2.48,3.94,9.16,3.85,0,0,7.09-24,8.77-39.24Z"/><path class="cls-35" d="M350,277.37a6,6,0,0,0-.31,2.47s1.57,2.44,7.82,2a7.14,7.14,0,0,0,.85-2.05Z"/><path class="cls-36" d="M293.92,420.6a8.31,8.31,0,0,0-1.47,3.06s1,3.85,9.26,6a9.64,9.64,0,0,0,2-2.3Z"/><path class="cls-37" d="M358.31,198s8.58,44.3,0,81.83c0,0-6.13.28-8.36-2.46,0,0,7.48-30.43,3.89-79.3Z"/><path class="cls-38" d="M358.2,195.47a10.49,10.49,0,0,1,.1,2.53,19.83,19.83,0,0,1-4.46.07,5.87,5.87,0,0,1,0-2.6Z"/><path class="cls-39" d="M353.84,195.52a25.72,25.72,0,0,1,0-7.11c.6-2.83,3.68-12.85,3.68-12.85s1.88-.94,1.88,1-1.11,8.82-1.2,11,0,7.88,0,7.88A12.84,12.84,0,0,1,353.84,195.52Z"/><path class="cls-40" d="M262.33,480.31s30.24-35.8,39.38-50.62l-9.26-6a176.27,176.27,0,0,1-18.64,30.95c-12,15.93-15.76,22.45-15.76,22.45S258.73,479.28,262.33,480.31Z"/><path class="cls-41" d="M359.4,176.59,251.68,491Z"/><path class="cls-21" d="M331.3,345.48a32.7,32.7,0,0,0-5.3,14.28c-2.63.86-5.77,1.6-8.22.38l-1.59-1.36a30.82,30.82,0,0,1,7-15.38,13.18,13.18,0,0,1,7,.77Z"/><path class="cls-21" d="M331.68,345.92a12,12,0,0,1,2.26-6.83,36.7,36.7,0,0,1,16.38.62c.12.85.32,2.54.35,2.55a22.31,22.31,0,0,1-.65,9.58,83.4,83.4,0,0,1-17.28-3.34Z"/><path class="cls-21" d="M327.68,354.75a19.08,19.08,0,0,1,1.15-3.23,6.15,6.15,0,0,1,2.09-2.69A50.5,50.5,0,0,1,348.77,355l.27,2.23A23.6,23.6,0,0,1,344,367.28c-5.52-2-11.47-5.44-15.13-10.1Z"/><path class="cls-42" d="M326,359.41s2.17-9.46,5.11-13.74c-2.23-.8-5.49-1.8-7.81-1.33a30.79,30.79,0,0,0-7,15.37C322.53,361.79,326,359.41,326,359.41Zm17.73,7.87A23.36,23.36,0,0,0,348.92,357a50.31,50.31,0,0,0-17.85-6.13,6.26,6.26,0,0,0-2.09,2.68,19.18,19.18,0,0,0-1.15,3.24C331.7,361.6,337.94,365.13,343.73,367.28ZM331.83,348a12,12,0,0,1,2.26-6.83,36.84,36.84,0,0,1,16.38.62,22.36,22.36,0,0,1-.58,9.8A89.86,89.86,0,0,1,331.83,348Z"/><path class="cls-25" d="M310.2,243.32a94.17,94.17,0,0,1,11.44,4.06c7.32,9.16,9.54,21.18,8.12,34.38a73.43,73.43,0,0,0,13-5.46c-5.65-16.22-11.94-30.59-23.18-43.78a88.75,88.75,0,0,0-9.44,10.68Z"/></g></g></svg>