<svg id="Layer_1" data-name="Layer 1" xmlns="http://www.w3.org/2000/svg" xmlns:xlink="http://www.w3.org/1999/xlink" viewBox="0 0 543.42 656.85"><defs><style>.cls-1{fill:url(#radial-gradient);}.cls-2{fill:url(#radial-gradient-2);}.cls-3{fill:url(#radial-gradient-3);}.cls-4{fill:url(#radial-gradient-4);}.cls-5{fill:url(#radial-gradient-5);}.cls-6{fill:url(#radial-gradient-6);}.cls-7{fill:url(#radial-gradient-7);}.cls-8{fill:url(#radial-gradient-8);}.cls-9{fill:url(#radial-gradient-9);}.cls-10{fill:url(#radial-gradient-10);}.cls-11{fill:url(#radial-gradient-11);}.cls-12{fill:url(#radial-gradient-12);}.cls-13{fill:#d7d7d7;}.cls-14{fill:url(#radial-gradient-13);}.cls-15{fill:url(#radial-gradient-14);}.cls-16{fill:url(#radial-gradient-15);}.cls-17{fill:url(#radial-gradient-16);}.cls-18{fill:url(#radial-gradient-17);}.cls-19{fill:url(#radial-gradient-18);}.cls-20{fill:url(#radial-gradient-19);}.cls-21{fill:url(#radial-gradient-20);}.cls-22{fill:url(#radial-gradient-21);}.cls-23{fill:url(#radial-gradient-22);}.cls-24{fill:url(#radial-gradient-23);}.cls-25{fill:url(#radial-gradient-24);}.cls-26{fill:url(#radial-gradient-25);}.cls-27{fill:url(#radial-gradient-26);}.cls-28{fill:url(#radial-gradient-27);}.cls-29{fill:url(#radial-gradient-28);}.cls-30{fill:url(#radial-gradient-29);}.cls-31{fill:url(#radial-gradient-30);}.cls-32{fill:url(#radial-gradient-31);}.cls-33{fill:url(#radial-gradient-32);}.cls-34{fill:url(#radial-gradient-33);}.cls-35{fill:url(#radial-gradient-34);}.cls-36{fill:url(#radial-gradient-35);}.cls-37{fill:url(#radial-gradient-36);}.cls-38{fill:url(#radial-gradient-37);}.cls-39{fill:url(#radial-gradient-38);}.cls-40{fill:url(#radial-gradient-39);}.cls-41{fill:url(#radial-gradient-40);}.cls-42{fill:url(#radial-gradient-41);}.cls-43{fill:url(#_ÂÁ_Ï_ÌÌ_È_ËÂÌÚ_160);}.cls-44{fill:#6b8895;}.cls-45{fill:#496b75;}.cls-46{fill:url(#_ÂÁ_Ï_ÌÌ_È_ËÂÌÚ_160-2);}.cls-47{fill:url(#radial-gradient-42);}.cls-48{fill:url(#radial-gradient-43);}.cls-49{fill:url(#radial-gradient-44);}.cls-50{fill:url(#_ÂÁ_Ï_ÌÌ_È_ËÂÌÚ_160-3);}.cls-51{fill:url(#_ÂÁ_Ï_ÌÌ_È_ËÂÌÚ_160-4);}.cls-52{fill:url(#radial-gradient-45);}.cls-53{fill:url(#radial-gradient-46);}.cls-54{fill:url(#radial-gradient-47);}.cls-55{fill:url(#radial-gradient-48);}.cls-56{fill:url(#radial-gradient-49);}.cls-57{fill:url(#radial-gradient-50);}</style><radialGradient id="radial-gradient" cx="3521.03" cy="-177.72" r="4.05" gradientTransform="matrix(-0.95, 0.31, 0.31, 0.95, 3646.28, -685.68)" gradientUnits="userSpaceOnUse"><stop offset="0" stop-color="#21577e"/><stop offset="0.24" stop-color="#205077"/><stop offset="0.37" stop-color="#204a70"/><stop offset="0.68" stop-color="#1c375e"/><stop offset="1" stop-color="#162048"/></radialGradient><radialGradient id="radial-gradient-2" cx="3004.3" cy="223.55" r="4.05" gradientTransform="matrix(-1, 0, 0, 1, 3245.23, 0)" xlink:href="#radial-gradient"/><radialGradient id="radial-gradient-3" cx="3005.18" cy="223.93" r="5.09" gradientTransform="matrix(-1, 0, 0, 1, 3245.23, 0)" xlink:href="#radial-gradient"/><radialGradient id="radial-gradient-4" cx="3006.99" cy="224.52" r="4.25" gradientTransform="matrix(-1, 0, 0, 1, 3245.23, 0)" xlink:href="#radial-gradient"/><radialGradient id="radial-gradient-5" cx="3007.87" cy="221.65" r="3.24" gradientTransform="matrix(-1, 0, 0, 1, 3245.23, 0)" xlink:href="#radial-gradient"/><radialGradient id="radial-gradient-6" cx="3529.73" cy="-171.24" r="4.05" xlink:href="#radial-gradient"/><radialGradient id="radial-gradient-7" cx="3010.6" cy="232.37" r="4.05" gradientTransform="matrix(-1, 0, 0, 1, 3245.23, 0)" xlink:href="#radial-gradient"/><radialGradient id="radial-gradient-8" cx="3011.48" cy="232.75" r="5.09" gradientTransform="matrix(-1, 0, 0, 1, 3245.23, 0)" xlink:href="#radial-gradient"/><radialGradient id="radial-gradient-9" cx="3013.29" cy="233.34" r="4.25" gradientTransform="matrix(-1, 0, 0, 1, 3245.23, 0)" xlink:href="#radial-gradient"/><radialGradient id="radial-gradient-10" cx="3014.18" cy="230.47" r="3.24" gradientTransform="matrix(-1, 0, 0, 1, 3245.23, 0)" xlink:href="#radial-gradient"/><radialGradient id="radial-gradient-11" cx="3011.21" cy="222.19" r="1.74" gradientTransform="matrix(-1, 0, 0, 1, 3245.23, 0)" gradientUnits="userSpaceOnUse"><stop offset="0.01" stop-color="#21577e"/><stop offset="0.18" stop-color="#21537a"/><stop offset="0.44" stop-color="#1e476f"/><stop offset="0.89" stop-color="#182850"/><stop offset="1" stop-color="#162048"/></radialGradient><radialGradient id="radial-gradient-12" cx="3015.82" cy="229.65" r="2.91" xlink:href="#radial-gradient-11"/><radialGradient id="radial-gradient-13" cx="3012.91" cy="226.79" r="5.51" xlink:href="#radial-gradient-11"/><radialGradient id="radial-gradient-14" cx="3017.44" cy="228.85" r="3.34" gradientTransform="matrix(-1, 0, 0, 1, 3245.23, 0)" gradientUnits="userSpaceOnUse"><stop offset="0.01" stop-color="#21577e"/><stop offset="0.26" stop-color="#1f4f77"/><stop offset="0.63" stop-color="#1b3b62"/><stop offset="1" stop-color="#162048"/></radialGradient><radialGradient id="radial-gradient-15" cx="3007.6" cy="207.34" r="5.06" gradientTransform="matrix(-1, 0, 0, 1, 3245.23, 0)" gradientUnits="userSpaceOnUse"><stop offset="0.01" stop-color="#21577e"/><stop offset="0.15" stop-color="#21567e"/><stop offset="0.35" stop-color="#1f4d75"/><stop offset="0.66" stop-color="#1a365e"/><stop offset="0.88" stop-color="#162048"/></radialGradient><radialGradient id="radial-gradient-16" cx="3012.52" cy="201.76" r="5.25" xlink:href="#radial-gradient-14"/><radialGradient id="radial-gradient-17" cx="3006.55" cy="203.54" r="2.3" xlink:href="#radial-gradient-14"/><radialGradient id="radial-gradient-18" cx="3025.05" cy="219" r="5.38" xlink:href="#radial-gradient-14"/><radialGradient id="radial-gradient-19" cx="3023.04" cy="216.94" r="4.93" gradientTransform="matrix(-1, 0, 0, 1, 3245.23, 0)" gradientUnits="userSpaceOnUse"><stop offset="0.42" stop-color="#17254c"/><stop offset="1" stop-color="#162048"/></radialGradient><radialGradient id="radial-gradient-20" cx="3025.42" cy="213.08" r="4.19" xlink:href="#radial-gradient-14"/><radialGradient id="radial-gradient-21" cx="3025.79" cy="212.78" r="3.31" xlink:href="#radial-gradient-19"/><radialGradient id="radial-gradient-22" cx="3027.15" cy="209.42" r="3.19" xlink:href="#radial-gradient-14"/><radialGradient id="radial-gradient-23" cx="3029.26" cy="207.92" r="4.21" xlink:href="#radial-gradient-14"/><radialGradient id="radial-gradient-24" cx="3026.9" cy="205.19" r="4.09" xlink:href="#radial-gradient-14"/><radialGradient id="radial-gradient-25" cx="3021.03" cy="198.77" r="4.81" xlink:href="#radial-gradient-14"/><radialGradient id="radial-gradient-26" cx="3023.29" cy="222.68" r="7.65" xlink:href="#radial-gradient-14"/><radialGradient id="radial-gradient-27" cx="3020" cy="218.08" r="14.34" xlink:href="#radial-gradient-14"/><radialGradient id="radial-gradient-28" cx="3024.64" cy="205.5" r="3.38" xlink:href="#radial-gradient-14"/><radialGradient id="radial-gradient-29" cx="3022.42" cy="204.99" r="6.54" gradientTransform="matrix(-1, 0, 0, 1, 3245.23, 0)" gradientUnits="userSpaceOnUse"><stop offset="0" stop-color="#21577e"/><stop offset="0.25" stop-color="#1f4f77"/><stop offset="0.63" stop-color="#1b3b62"/><stop offset="1" stop-color="#162048"/></radialGradient><radialGradient id="radial-gradient-30" cx="3020.84" cy="206.97" r="8.32" xlink:href="#radial-gradient-14"/><radialGradient id="radial-gradient-31" cx="3018.28" cy="207.21" r="7.37" xlink:href="#radial-gradient-14"/><radialGradient id="radial-gradient-32" cx="3018.15" cy="205.2" r="9.39" xlink:href="#radial-gradient-14"/><radialGradient id="radial-gradient-33" cx="3011.18" cy="-329.39" r="3.29" gradientTransform="matrix(-1, 0, 0, 1.3, 3245.23, 615.64)" gradientUnits="userSpaceOnUse"><stop offset="0.34" stop-color="#21577e"/><stop offset="0.47" stop-color="#1f4f77"/><stop offset="0.67" stop-color="#1b3b62"/><stop offset="0.86" stop-color="#162048"/></radialGradient><radialGradient id="radial-gradient-34" cx="3015.52" cy="196" r="2.29" xlink:href="#radial-gradient-14"/><radialGradient id="radial-gradient-35" cx="3017.84" cy="195.13" r="3.85" xlink:href="#radial-gradient-14"/><radialGradient id="radial-gradient-36" cx="3016.8" cy="193.69" r="2.36" xlink:href="#radial-gradient-14"/><radialGradient id="radial-gradient-37" cx="2280.26" cy="143.28" r="3.99" gradientTransform="matrix(-0.67, -0.2, -0.3, 1, 1798.36, 518.73)" xlink:href="#radial-gradient-14"/><radialGradient id="radial-gradient-38" cx="3011.82" cy="193.93" r="5.48" xlink:href="#radial-gradient-14"/><radialGradient id="radial-gradient-39" cx="3012.67" cy="193.02" r="5.29" gradientTransform="matrix(-1, 0, 0, 1, 3245.23, 0)" xlink:href="#radial-gradient-33"/><radialGradient id="radial-gradient-40" cx="3015.81" cy="189.04" fx="3008.3044577159567" r="7.65" gradientTransform="matrix(-1, 0, 0, 1, 3245.23, 0)" xlink:href="#radial-gradient-33"/><radialGradient id="radial-gradient-41" cx="3012.62" cy="189.79" r="3.29" gradientTransform="matrix(-1, 0, 0, 1, 3245.23, 0)" xlink:href="#radial-gradient-33"/><radialGradient id="_ÂÁ_Ï_ÌÌ_È_ËÂÌÚ_160" cx="3009.09" cy="190.76" r="3.47" gradientTransform="matrix(-1, 0, 0, 1, 3245.23, 0)" gradientUnits="userSpaceOnUse"><stop offset="0.01" stop-color="#21577e"/><stop offset="0.25" stop-color="#1f4f77"/><stop offset="0.63" stop-color="#1b3b62"/><stop offset="1" stop-color="#162048"/></radialGradient><radialGradient id="_ÂÁ_Ï_ÌÌ_È_ËÂÌÚ_160-2" cx="3008.06" cy="196.29" r="1.97" xlink:href="#_ÂÁ_Ï_ÌÌ_È_ËÂÌÚ_160"/><radialGradient id="radial-gradient-42" cx="2277.44" cy="135.81" r="4.23" gradientTransform="matrix(-0.67, -0.2, -0.3, 1, 1798.36, 518.73)" gradientUnits="userSpaceOnUse"><stop offset="0" stop-color="#21577e"/><stop offset="0.86" stop-color="#162048"/></radialGradient><radialGradient id="radial-gradient-43" cx="3015.39" cy="187.02" r="3.29" gradientTransform="matrix(-1, 0, 0, 1, 3245.23, 0)" xlink:href="#radial-gradient-33"/><radialGradient id="radial-gradient-44" cx="3011.02" cy="187.37" r="5.05" gradientTransform="matrix(-1, 0, 0, 1, 3245.23, 0)" xlink:href="#radial-gradient-33"/><radialGradient id="_ÂÁ_Ï_ÌÌ_È_ËÂÌÚ_160-3" cx="3220.56" cy="522.7" r="1.53" gradientTransform="matrix(-0.66, 0, 0, 0.86, 2373.56, -260.72)" xlink:href="#_ÂÁ_Ï_ÌÌ_È_ËÂÌÚ_160"/><radialGradient id="_ÂÁ_Ï_ÌÌ_È_ËÂÌÚ_160-4" cx="3196.53" cy="475.43" r="1.47" gradientTransform="matrix(-0.68, 0, 0, 0.88, 2415.71, -236.65)" xlink:href="#_ÂÁ_Ï_ÌÌ_È_ËÂÌÚ_160"/><radialGradient id="radial-gradient-45" cx="247.95" cy="198.89" r="12" gradientUnits="userSpaceOnUse"><stop offset="0.15" stop-color="#162048"/><stop offset="1" stop-color="#215178"/></radialGradient><radialGradient id="radial-gradient-46" cx="243.64" cy="199.73" r="6.44" gradientUnits="userSpaceOnUse"><stop offset="0.15" stop-color="#162048"/><stop offset="0.53" stop-color="#1a2e54"/><stop offset="1" stop-color="#215178"/></radialGradient><radialGradient id="radial-gradient-47" cx="59.27" cy="1804.51" fx="51.85192500939856" r="14.31" gradientTransform="matrix(0.46, 0.04, -0.05, 0.57, 301.99, -837.93)" xlink:href="#radial-gradient-45"/><radialGradient id="radial-gradient-48" cx="246.4" cy="187.56" r="6.32" xlink:href="#radial-gradient-45"/><radialGradient id="radial-gradient-49" cx="245.9" cy="187.71" r="4.95" xlink:href="#radial-gradient-45"/><radialGradient id="radial-gradient-50" cx="845.49" cy="221.36" r="10.51" gradientTransform="translate(-506.89 -263.49) rotate(16.4)" xlink:href="#radial-gradient-45"/></defs><title>Master</title><path class="cls-1" d="M237.38,222.46s3.9.44,4.39,1.21a4.91,4.91,0,0,1,.26,3s-2.29-2.45-4.18-2.74Z"/><path class="cls-2" d="M238.64,223.78s3.58,1.6,3.81,2.49a4.88,4.88,0,0,1-.66,2.91s-1.44-3-3.15-3.88Z"/><path class="cls-3" d="M238.23,224.22s4.11,2.57,3.91,5.84a1.29,1.29,0,0,1-1,.89,4.41,4.41,0,0,0-.66-2.55,22.83,22.83,0,0,0-3.42-2.66Z"/><path class="cls-4" d="M236.42,225.63s2.42,4,2.42,4.86,1.23-1.9.32-3.63a4,4,0,0,0-2.21-2.09Z"/><path class="cls-5" d="M234.84,223.45s.27,2.18,2.17,2.29,2.76-2.09,1.67-3.06-1.51-1.06-3-.59S234.84,223.45,234.84,223.45Z"/><path class="cls-6" d="M231.08,231.29s3.9.43,4.39,1.2a5,5,0,0,1,.26,3s-2.3-2.45-4.19-2.74Z"/><path class="cls-7" d="M232.34,232.6s3.58,1.6,3.81,2.49a5,5,0,0,1-.66,2.91s-1.44-3-3.15-3.88Z"/><path class="cls-8" d="M231.93,233s4.1,2.57,3.91,5.84a1.29,1.29,0,0,1-1.05.89,4.41,4.41,0,0,0-.66-2.55,22.83,22.83,0,0,0-3.42-2.66Z"/><path class="cls-9" d="M230.11,234.45s2.43,4,2.43,4.86,1.23-1.9.32-3.63a4,4,0,0,0-2.21-2.09Z"/><path class="cls-10" d="M228.53,232.27s.28,2.18,2.18,2.29,2.76-2.09,1.67-3.06-1.51-1.05-2.95-.59S228.53,232.27,228.53,232.27Z"/><path class="cls-11" d="M234.46,220.42a9.36,9.36,0,0,1,1.27,1.67,3.17,3.17,0,0,1-.52,1.62.56.56,0,0,1-.41.25,9.41,9.41,0,0,1-2.48-1.1Z"/><path class="cls-12" d="M229.74,226s1.83,3.74,1.48,5.15a3.88,3.88,0,0,1-1.83,2.19s-1.63-.85-1.78-1.86a46.75,46.75,0,0,1,.18-5.27Z"/><path class="cls-13" d="M230.79,225.32a4.57,4.57,0,0,0,4.89,1s-2.44,4.73-6.83,0Z"/><path class="cls-14" d="M230.78,225.31a4.6,4.6,0,0,0,4.95.67s-2.15,4.88-6.82.42Z"/><path class="cls-13" d="M230.38,224.77l-1.27,1s1.3,6-3.5,7.15a16.27,16.27,0,0,0,1.29-7Z"/><path class="cls-15" d="M230.17,224.77l-1.26,1s1.3,6-3.5,7.15a16.27,16.27,0,0,0,1.29-7Z"/><path class="cls-13" d="M236.39,207.92s2.43,5.83-2.31,14.17-9.52,2.68-9.52,2.68l9.28-18.55Z"/><path class="cls-13" d="M238.66,203.35l.14.33s2.52,4.91,2.46,5.53a3.17,3.17,0,0,1-1.69,2.42l-.77-1.34.36,1.34-1.95-.47s-.79-.29-.82-.73a9,9,0,0,0-.17-1.07l-.5,1.28L234,209.49l.08-4Z"/><path class="cls-16" d="M238.66,203.2l.14.34s2.52,4.91,2.46,5.52a3.17,3.17,0,0,1-1.69,2.42l-.77-1.34.36,1.34-1.95-.47s-.79-.29-.82-.72a9.35,9.35,0,0,0-.17-1.08l-.5,1.28L234,209.35l.08-4Z"/><path class="cls-13" d="M229.57,197.74h-2l-1.2,1.72,7.45,6.76a13.69,13.69,0,0,1,3.88-.84c1.73,0,.27-2.87.27-2.87l.14-3.25Z"/><path class="cls-17" d="M229.8,197.52h-2l-1.19,1.72,7.45,6.76a13.45,13.45,0,0,1,3.87-.83c1.73,0,.27-2.88.27-2.88l.15-3.24Z"/><path class="cls-13" d="M238.78,200.73a5.19,5.19,0,0,0,.36,3.12,13.72,13.72,0,0,1,.92,2.85c-.05,0-.61-1.09-1.1-1.16a13.13,13.13,0,0,1-1.49-.35,28.9,28.9,0,0,0,.79-3.13A2.47,2.47,0,0,1,238.78,200.73Z"/><path class="cls-18" d="M238.69,200.55a5.19,5.19,0,0,0,.36,3.12,15.19,15.19,0,0,1,.93,2.86c-.06,0-.62-1.1-1.11-1.16a14.91,14.91,0,0,1-1.49-.36,28.9,28.9,0,0,0,.79-3.13A2.61,2.61,0,0,1,238.69,200.55Z"/><path class="cls-13" d="M217.19,216v.62s-2.19,3.89-1.56,7.69l.16,1a32.56,32.56,0,0,0,4.16-4.2c.76-1.26,4.9-7.81,4.9-7.81Z"/><path class="cls-19" d="M217.19,215.72v.61s-2.19,3.9-1.56,7.7l.16,1a32.56,32.56,0,0,0,4.16-4.2c.76-1.26,4.9-7.81,4.9-7.81Z"/><path class="cls-20" d="M224.38,211.87s-6.17,8.78-6.89,10.22c0,0,6.21-4.78,8.64-7.89S224.38,211.87,224.38,211.87Z"/><path class="cls-13" d="M218.59,210.73s-2.35,1.75-3,6.76c0,0,4.51-2.6,5.6-3.85A31.09,31.09,0,0,0,224,209.1Z"/><path class="cls-21" d="M218.59,210.51s-2.35,1.75-3,6.76c0,0,4.51-2.6,5.6-3.85a31.09,31.09,0,0,0,2.76-4.54Z"/><path class="cls-13" d="M221.69,210.19s-5.16,4.57-5.9,5.65a15.91,15.91,0,0,0,5.73-3.56c2.74-2.65,1.07-2.29,1.07-2.29Z"/><path class="cls-22" d="M221.69,210.06a80.15,80.15,0,0,0-5.9,5.66,15.86,15.86,0,0,0,5.73-3.57c2.74-2.65,1.07-2.29,1.07-2.29Z"/><path class="cls-13" d="M218.44,206.27l-3.15,6.94a11.57,11.57,0,0,0,3.42-2c1.67-1.44,2.1-5.13,2.1-5.13Z"/><path class="cls-23" d="M218.47,206.06,215.33,213a11.7,11.7,0,0,0,3.42-2c1.67-1.44,2.09-5.13,2.09-5.13Z"/><path class="cls-13" d="M216.76,206.78,216.1,208l-3.93,4.43s3,1.7,5.57-3.47,2.19-5.32,2.19-5.32Z"/><path class="cls-24" d="M216.63,206.53l-.62,1.25-3.78,4.55s3,1.6,5.45-3.65,2-5.39,2-5.39Z"/><path class="cls-13" d="M219.91,201.67a43.58,43.58,0,0,0-6,7.35s1.19.63,4.58-3,4.31-3.94,4.31-3.94Z"/><path class="cls-25" d="M219.91,201.49a43.58,43.58,0,0,0-6,7.35s1.19.63,4.58-3,4.31-3.93,4.31-3.93Z"/><path class="cls-13" d="M218.17,200s2.33,1.76,7-4.56l3.18-.41,1.27,2-7.78,5.28S218.52,202.26,218.17,200Z"/><path class="cls-26" d="M218.47,200.08s2.33,1.76,7-4.56l3.18-.41,1.26,2-7.77,5.29S218.82,202.39,218.47,200.08Z"/><path class="cls-13" d="M224.43,214.87s-9,10.14-9.62,12.82,0,3.44,0,3.44,11.66-10.38,13.35-14S224.43,214.87,224.43,214.87Z"/><path class="cls-27" d="M224.85,214.69s-9,10.14-9.62,12.82,0,3.44,0,3.44,11.66-10.38,13.35-14S224.85,214.69,224.85,214.69Z"/><path class="cls-13" d="M230.9,200s7.76,5.53-1,20.25-14.24,15.86-14.24,15.86a6.77,6.77,0,0,1,1.6-5.42c2.16-2.19,11.69-12.83,11.65-14.55S230.9,200,230.9,200Z"/><path class="cls-28" d="M231.29,200s7.75,5.53-1,20.25-14.24,15.86-14.24,15.86a6.75,6.75,0,0,1,1.61-5.42c2.15-2.19,11.69-12.83,11.64-14.55S231.29,200,231.29,200Z"/><path class="cls-13" d="M218.9,204.55s-2.29,1.86-1,1.74.69,1.32.69,1.32-.86,2.71.91,1.28,4.07-7,4.07-7l-1.93.83-1.55,1.73A1.63,1.63,0,0,1,218.9,204.55Z"/><path class="cls-29" d="M219,204.46s-2.29,1.86-1,1.74.69,1.32.69,1.32-.86,2.71.91,1.28,4.07-7,4.07-7l-1.93.83-1.55,1.73A1.63,1.63,0,0,1,219,204.46Z"/><path class="cls-13" d="M222.78,202s-1.54,5.55-4.4,7.58a2.31,2.31,0,0,0-.19,2.34s2.18.24,5.25-3.75,1.8-7.29,1.8-7.29Z"/><path class="cls-30" d="M222.6,202.09s-1.37,5.61-4.17,7.72a2.31,2.31,0,0,0-.11,2.34s2.18.18,5.13-3.9S225,200.9,225,200.9Z"/><path class="cls-13" d="M224.51,200.85s-.34,7.18-4.55,12.24c0,0-1.34,2-.4,3.14,0,0,4.79-1.59,6.16-5.13a47.54,47.54,0,0,0,2.1-7.76l-.67-3Z"/><path class="cls-31" d="M224.46,200.66s-.16,7.19-4.24,12.36c0,0-1.28,2.06-.31,3.15,0,0,4.74-1.71,6-5.28a47.53,47.53,0,0,0,1.9-7.82l-.75-2.93Z"/><path class="cls-13" d="M225.23,200.18s3.17,1.07.88,8.18l-2.3,7.11.74,4.12a29.14,29.14,0,0,0,3-4.27c.43-1.13,3.46-10.58,3.46-10.58l-1.32-4S226,199.62,225.23,200.18Z"/><path class="cls-32" d="M225.41,200.23s3.17,1.07.88,8.18l-2.3,7.11.74,4.12a29.93,29.93,0,0,0,3-4.27c.43-1.13,3.46-10.57,3.46-10.57l-1.32-4S226.13,199.67,225.41,200.23Z"/><path class="cls-13" d="M217.5,206l1.54-2s.21.87.69.61,6-8.19,10.74-5.16,2,12.75-2.58,20.91l-1.16-3.38A5.5,5.5,0,0,1,227,215c.31-.77,3.77-9.44,2.72-12.28s-4.47-3.11-9.21,1.52c0,0-.64.7-1.11.48S217.5,206,217.5,206Z"/><path class="cls-33" d="M217.68,205.83l1.54-2s.22.87.69.61,6-8.19,10.74-5.16,2,12.75-2.58,20.91l-1.16-3.38a5.5,5.5,0,0,1,.27-1.87c.31-.78,3.77-9.44,2.72-12.28s-4.47-3.11-9.21,1.52c0,0-.64.69-1.11.48S217.68,205.83,217.68,205.83Z"/><path class="cls-13" d="M241,185.25s9.21.13,10.78,4.92-1.84,8-2.72,8.23-6.12,1.37-6.12,1.37-.67-.38-1.14,1.66-2-.37-2-.37l-2.89.88a10.8,10.8,0,0,1-7.34-4.83c-3-4.43,1.4-9.55,1.4-9.55l9.4-.93Z"/><path class="cls-34" d="M237.07,189.17l-2.35,1s-1.94-1-2.33-2.21c0,0,3.46.1,4.23-.46l.45,1Z"/><path class="cls-13" d="M232.51,196.11s-2.13,1.76-3,1.75a14.16,14.16,0,0,1-2.41-.36l2.87-3.21Z"/><path class="cls-35" d="M232.42,196s-2.13,1.75-3,1.75a15.12,15.12,0,0,1-2.4-.36l2.86-3.22Z"/><path class="cls-13" d="M225.92,194.26,223,197.05a2.81,2.81,0,0,0,1.09.55c.44,0,2-1.61,2-1.61s-1.81,2.55-1.87,2.55a33.92,33.92,0,0,0,3.27-1.15c.23-.22,4.27-4.5,4.27-4.5l-.19-.79Z"/><path class="cls-36" d="M225.92,194.07,223,196.86a2.81,2.81,0,0,0,1.09.55c.44,0,2-1.61,2-1.61s-1.81,2.55-1.87,2.55a33.92,33.92,0,0,0,3.27-1.15c.23-.22,4.27-4.5,4.27-4.5l-.19-.79Z"/><path class="cls-13" d="M228.18,192.14l-2.57,1.72a2.22,2.22,0,0,0,2.57,1.82l3.07-3Z"/><path class="cls-37" d="M228.18,191.91l-2.57,1.72a2.22,2.22,0,0,0,2.57,1.82l3.07-3Z"/><path class="cls-13" d="M239.06,198.08s-1.91,1.77-1.21,3.32l0,.24a17.29,17.29,0,0,0-1.9,1.11,5.06,5.06,0,0,0-.82,1.68s-.75,0-.45-1.26,1-1.56,1-1.56.17-.38-.11-.37l-1.43.06s-.3.06-.24-.54a7.43,7.43,0,0,1,.58-2.28.81.81,0,0,1,.6-.2,9,9,0,0,0,1.17-.15l-.45-.61s-.11-.11,0-.3l1.69-2.3,1.24,1.28S239.59,197.48,239.06,198.08Z"/><path class="cls-38" d="M239.15,198.11s-1.9,1.77-1.21,3.32l.05.24a16.41,16.41,0,0,0-1.9,1.11,5.06,5.06,0,0,0-.82,1.68s-.75,0-.45-1.26,1-1.56,1-1.56.17-.38-.11-.37l-1.44.06s-.29.06-.24-.54a7.74,7.74,0,0,1,.59-2.28.78.78,0,0,1,.6-.2,9,9,0,0,0,1.17-.15l-.45-.61s-.11-.11,0-.3l1.69-2.3,1.25,1.28S239.69,197.51,239.15,198.11Z"/><path class="cls-13" d="M230.19,195.19a10.69,10.69,0,0,0,5.35,2.35l1.27-3.48s-1.64-2.11-1.52-3.17S230.19,195.19,230.19,195.19Z"/><path class="cls-39" d="M230.1,195a10.69,10.69,0,0,0,5.35,2.35l1.27-3.48s-1.64-2.12-1.52-3.17S230.1,195,230.1,195Z"/><polygon class="cls-13" points="235.72 190.48 230.32 195.68 229.58 194.97 233.68 190.48 235.72 190.48"/><polygon class="cls-40" points="235.63 190.42 230.22 195.62 229.49 194.91 233.59 190.42 235.63 190.42"/><path class="cls-13" d="M226.74,187.13a6,6,0,0,0,1.44,5.32,1.94,1.94,0,0,0,2.68.63,15.71,15.71,0,0,0,3.67-2.73,6.48,6.48,0,0,1-1.34-2.25l-.76-.4-2.43-.57A19.39,19.39,0,0,1,226.74,187.13Z"/><path class="cls-41" d="M226.74,187a6,6,0,0,0,1.44,5.32,1.94,1.94,0,0,0,2.68.63,15.71,15.71,0,0,0,3.67-2.73,6.48,6.48,0,0,1-1.34-2.25l-.76-.41L230,187A19.39,19.39,0,0,1,226.74,187Z"/><path class="cls-13" d="M235.63,190.42l-2.35.8s-1.94-.78-2.33-1.71c0,0,3.46.08,4.24-.35l.44.78Z"/><path class="cls-42" d="M235.63,190.37l-2.35.79s-1.94-.77-2.33-1.71c0,0,3.46.08,4.24-.35l.44.78Z"/><path class="cls-43" d="M233.07,191.06l0,.2-.35.23.09.33.41,0,.08.18-.28.31.17.3.41-.08.12.15-.18.37.24.25.37-.19.16.12-.08.41.3.17.31-.27.18.08,0,.41.34.09.23-.35.19,0,.13.39h.35l.13-.39a1.2,1.2,0,0,0,.2,0l.23.35.33-.09,0-.41.18-.08.31.27.3-.17-.08-.4.16-.12.37.18.24-.25-.18-.36.12-.16.4.08.18-.3L239,192c0-.07,0-.13.07-.19l.41,0,.09-.33-.34-.23,0-.2.38-.13v-.35l-.38-.12,0-.21.34-.22-.09-.34-.41,0c0-.07-.05-.13-.07-.19l.27-.31-.18-.3-.4.09-.12-.17.18-.36-.24-.25-.37.19-.16-.13.08-.4-.3-.17-.31.27-.18-.08,0-.41-.33-.08-.23.34-.2,0-.13-.39H236l-.13.39-.19,0-.23-.34-.34.08,0,.42-.18.08-.31-.28-.3.17.08.41-.16.12-.37-.19-.24.25.18.37-.12.16-.41-.09-.17.3.28.32-.08.18-.41,0-.09.34.35.23,0,.19-.4.13v.35Zm2.84-1a.77.77,0,0,0-.29.17l-1.58-.91a2.55,2.55,0,0,1,1.87-1.08Zm2.34-.75-.94.54-.65.38a.77.77,0,0,0-.29-.17v-1.83a2.59,2.59,0,0,1,1.88,1.08Zm-1.36,1.65a.69.69,0,0,0,0-.33l1.59-.92a2.57,2.57,0,0,1,0,2.17Zm-.52.57a.75.75,0,0,0,.29-.16l1.59.91a2.61,2.61,0,0,1-1.88,1.08Zm-.63-.73a.4.4,0,1,1,.4.4A.4.4,0,0,1,235.74,190.76Zm-1.7,1.48,1.58-.91a.75.75,0,0,0,.29.16v1.83A2.55,2.55,0,0,1,234,192.24Zm-.47-1.48a2.59,2.59,0,0,1,.24-1.08l1.58.91a.47.47,0,0,0,0,.17.44.44,0,0,0,0,.16l-1.58.92A2.62,2.62,0,0,1,233.57,190.76Z"/><path class="cls-44" d="M233.35,190.76a2.79,2.79,0,1,0,2.79-2.79A2.78,2.78,0,0,0,233.35,190.76Zm4.9-1.49-.94.54-.65.38a.77.77,0,0,0-.29-.17v-1.83a2.59,2.59,0,0,1,1.88,1.08Zm.23,2.57-1.59-.92a.69.69,0,0,0,0-.33l1.59-.92a2.57,2.57,0,0,1,0,2.17Zm-2.11-.35a.75.75,0,0,0,.29-.16l1.59.91a2.61,2.61,0,0,1-1.88,1.08Zm-.23-.33a.4.4,0,1,1,.4-.4A.4.4,0,0,1,236.14,191.16Zm-2.1,1.08,1.58-.91a.75.75,0,0,0,.29.16v1.83A2.55,2.55,0,0,1,234,192.24Zm-.23-2.56,1.58.91a.47.47,0,0,0,0,.17.44.44,0,0,0,0,.16l-1.58.92a2.62,2.62,0,0,1-.24-1.08A2.59,2.59,0,0,1,233.81,189.68Zm.23-.4a2.55,2.55,0,0,1,1.87-1.08V190a.77.77,0,0,0-.29.17Z"/><path class="cls-45" d="M233.81,191.84l.53-.31.41.3-.71.41a2.55,2.55,0,0,0,1.87,1.08v-.87a4.37,4.37,0,0,0,.46.18v.69a2.57,2.57,0,0,0,1.13-.38l.3.06a2.82,2.82,0,0,1-1.66.54,2.78,2.78,0,0,1-2.79-2.78c0-.06,0-.13,0-.19l.21.25A2.54,2.54,0,0,0,233.81,191.84Z"/><path class="cls-45" d="M235.52,190.76a.61.61,0,0,0,.62.61.61.61,0,0,0,.61-.61.61.61,0,0,0-.61-.62A.62.62,0,0,0,235.52,190.76Zm.09,0a.52.52,0,0,1,.53-.53.53.53,0,0,1,.53.53.53.53,0,0,1-.53.53A.53.53,0,0,1,235.61,190.76Z"/><path class="cls-46" d="M235.44,196.46a.41.41,0,0,0,0,.11l-.2.13.05.19h.24s0,.07,0,.11l-.16.17.1.17.23,0,.07.08-.1.22.14.14.21-.11.09.07,0,.23.17.1.17-.16.11,0v.24l.19.05.13-.2.11,0,.08.22h.19l.08-.22.11,0,.13.2.19-.05v-.23l.11-.05.17.16.17-.1,0-.23.09-.07.21.11.14-.14-.11-.21.07-.09.23,0,.1-.17-.16-.17a1.17,1.17,0,0,0,0-.11h.23l0-.19-.19-.13s0-.07,0-.11l.22-.08v-.19l-.22-.08s0-.07,0-.11l.19-.13,0-.19h-.23l0-.11.16-.17-.1-.17-.23,0-.07-.09.11-.21-.14-.13-.21.1-.09-.07,0-.23-.17-.1-.17.16-.11-.05v-.23l-.19,0-.13.2-.11,0-.08-.22h-.19l-.08.22-.11,0-.13-.2-.19,0v.24l-.11,0-.17-.16-.17.1,0,.23-.09.07-.21-.1-.14.13.1.22-.07.09-.23-.05-.1.17.16.18a1,1,0,0,0,0,.1h-.24l-.05.19.2.13a.45.45,0,0,0,0,.11l-.23.08v.19Zm1.6-.59a.51.51,0,0,0-.16.09l-.9-.51a1.48,1.48,0,0,1,1.06-.62Zm1.33-.43-.53.31-.37.21a.51.51,0,0,0-.16-.09v-1a1.51,1.51,0,0,1,.6.19A1.54,1.54,0,0,1,238.37,195.44Zm-.77.94a.28.28,0,0,0,0-.09.31.31,0,0,0,0-.1l.9-.52a1.44,1.44,0,0,1,.14.62,1.4,1.4,0,0,1-.14.61Zm-.29.32a.51.51,0,0,0,.16-.09l.9.52a1.45,1.45,0,0,1-1.06.61Zm-.36-.41a.23.23,0,1,1,.45,0,.22.22,0,0,1-.22.22A.22.22,0,0,1,237,196.29Zm-1,.83.9-.51a.51.51,0,0,0,.16.09v1A1.45,1.45,0,0,1,236,197.12Zm-.26-.83a1.6,1.6,0,0,1,.13-.62l.9.52a.31.31,0,0,0,0,.1.28.28,0,0,0,0,.09l-.9.52A1.59,1.59,0,0,1,235.72,196.29Z"/><path class="cls-44" d="M235.6,196.29a1.58,1.58,0,1,0,1.58-1.58A1.58,1.58,0,0,0,235.6,196.29Zm2.77-.85-.53.31-.37.21a.51.51,0,0,0-.16-.09v-1a1.51,1.51,0,0,1,.6.19A1.54,1.54,0,0,1,238.37,195.44Zm.13,1.46-.9-.52a.28.28,0,0,0,0-.09.31.31,0,0,0,0-.1l.9-.52a1.44,1.44,0,0,1,.14.62A1.4,1.4,0,0,1,238.5,196.9Zm-1.19-.2a.51.51,0,0,0,.16-.09l.9.52a1.45,1.45,0,0,1-1.06.61Zm-.13-.19a.23.23,0,1,1,.22-.22A.22.22,0,0,1,237.18,196.51Zm-1.2.61.9-.51a.51.51,0,0,0,.16.09v1A1.45,1.45,0,0,1,236,197.12Zm-.13-1.45.9.52a.31.31,0,0,0,0,.1.28.28,0,0,0,0,.09l-.9.52a1.52,1.52,0,0,1,0-1.23Zm.13-.22a1.48,1.48,0,0,1,1.06-.62v1a.51.51,0,0,0-.16.09Z"/><path class="cls-45" d="M235.85,196.9l.31-.18.23.17-.41.23a1.45,1.45,0,0,0,1.06.62v-.49l.27.1v.39a1.44,1.44,0,0,0,.64-.22l.17,0a1.63,1.63,0,0,1-.94.31,1.58,1.58,0,0,1-1.58-1.58v-.11l.12.14A1.44,1.44,0,0,0,235.85,196.9Z"/><path class="cls-45" d="M236.83,196.29a.35.35,0,1,0,.35-.35A.34.34,0,0,0,236.83,196.29Zm0,0a.31.31,0,1,1,.61,0,.31.31,0,0,1-.61,0Z"/><path class="cls-13" d="M243.45,194.3s-1.61,2.47-3.2,2.68l0-.78a1.17,1.17,0,0,0-1.23.42c-.65.66-2.56-2.49-1.06-6s1.79-1.74,1.79-1.74-.51,3,1.72,4.33S243.45,194.3,243.45,194.3Z"/><path class="cls-47" d="M243.51,194.12s-1.61,2.48-3.21,2.69l0-.78a1.17,1.17,0,0,0-1.23.42c-.65.66-2.56-2.49-1.06-6s1.79-1.74,1.79-1.74-.5,3,1.72,4.33S243.51,194.12,243.51,194.12Z"/><path class="cls-13" d="M240,188.89l-.79,2.93s5.17-5.85,8-3.83c0,0,2.94,2.65-2.89,5.16l2.47.48,2.32-1.28V188l-3.71-1.36Z"/><path class="cls-13" d="M232.74,187.75l-2.22.76s-1.84-.74-2.21-1.62c0,0,3.27.08,4-.33l.42.74Z"/><path class="cls-48" d="M232.86,187.59l-2.35.8s-1.94-.78-2.33-1.71c0,0,3.46.08,4.23-.35l.45.78Z"/><path class="cls-49" d="M236,186.56a14.43,14.43,0,0,1-4.66.41,11.21,11.21,0,0,0,5.88,2,17.51,17.51,0,0,1,2.18-.35C240.07,188.6,236,186.56,236,186.56Z"/><path class="cls-13" d="M243.37,189s-.89.53-.12,2a1.93,1.93,0,0,0,2.43.8l1-.92.14-.41s.08-1.12-.24-1.48S244.33,187.78,243.37,189Z"/><circle cx="241.93" cy="190.12" r="0.62"/><path class="cls-50" d="M243.23,189.77s-1.16-1.81-2.6.08a1.86,1.86,0,0,1,1.38-1.54S243,188.26,243.23,189.77Z"/><path class="cls-51" d="M243.17,190.63a1.49,1.49,0,0,1-2.54-.09s0,1.48,1.21,1.6S243.17,190.63,243.17,190.63Z"/><path class="cls-52" d="M251.46,192.2s-.11-2.71-2.71-1.21-5,5.23-5,5.23a25.06,25.06,0,0,1,2.11,3.65c.23.87,1.5,1.47,1.58,2.15a15.57,15.57,0,0,1,0,4.47c-.34,1.59,1.32.23,1.69-.26S253.68,202.66,251.46,192.2Z"/><path class="cls-53" d="M240.58,202c.11.08,3.35,3.27,6.44-.23a1.33,1.33,0,0,0-.6-.53,3.82,3.82,0,0,1-1.13-1.91c-.12-.49-1.51-3.13-1.51-3.13a1.55,1.55,0,0,0-2.11.64C241,198.22,239.64,201.32,240.58,202Z"/><path class="cls-54" d="M251.92,190.49s.63-7.15-8.9-5.49c0,0,7.36.29,7.56,5.13C250.58,190.13,251.39,189.31,251.92,190.49Z"/><path class="cls-55" d="M250.59,190.12s.59-5.93-8.39-5c0,0,7,1,6.9,4.75C249.1,189.85,250.11,189.19,250.59,190.12Z"/><path class="cls-56" d="M242.69,185.71s6.51-1.28,6.42,4.13C249.11,189.84,247.49,186.82,242.69,185.71Z"/><path class="cls-57" d="M249.11,189.84a2.2,2.2,0,0,0-2.42,0s-2.92-4.89-9.16-1.69c0,0-1.3-1.53-4-.23C233.57,187.92,243.63,180.41,249.11,189.84Z"/></svg>