<svg xmlns="http://www.w3.org/2000/svg" xmlns:xlink="http://www.w3.org/1999/xlink" viewBox="0 0 340.16 340.16"><defs><style>.cls-1{isolation:isolate;}.cls-2{fill:#2a3e51;}.cls-3{fill:url(#_ÂÁ_Ï_ÌÌ_È_ËÂÌÚ_3);}.cls-4{fill:url(#_ÂÁ_Ï_ÌÌ_È_ËÂÌÚ_5);}.cls-5{fill:#d3d3d3;}.cls-6{fill:url(#_ÂÁ_Ï_ÌÌ_È_ËÂÌÚ_3-2);}.cls-7{fill:url(#_ÂÁ_Ï_ÌÌ_È_ËÂÌÚ_3-3);}.cls-8{fill:#99999a;}.cls-12,.cls-17,.cls-23,.cls-25,.cls-34,.cls-35,.cls-36,.cls-37,.cls-38,.cls-39,.cls-41,.cls-44,.cls-45,.cls-50,.cls-9{mix-blend-mode:screen;}.cls-9{fill:url(#_ÂÁ_Ï_ÌÌ_È_ËÂÌÚ_40);}.cls-10{fill:url(#_ÂÁ_Ï_ÌÌ_È_ËÂÌÚ_4);}.cls-11{fill:#d7d7d7;}.cls-12{fill:url(#_ÂÁ_Ï_ÌÌ_È_ËÂÌÚ_40-2);}.cls-13{fill:url(#_ÂÁ_Ï_ÌÌ_È_ËÂÌÚ_4-2);}.cls-14{fill:url(#_ÂÁ_Ï_ÌÌ_È_ËÂÌÚ_4-3);}.cls-15{fill:url(#_ÂÁ_Ï_ÌÌ_È_ËÂÌÚ_2);}.cls-16{fill:url(#_ÂÁ_Ï_ÌÌ_È_ËÂÌÚ_2-2);}.cls-17{fill:url(#_ÂÁ_Ï_ÌÌ_È_ËÂÌÚ_40-3);}.cls-18{fill:url(#_ÂÁ_Ï_ÌÌ_È_ËÂÌÚ_2-3);}.cls-19{fill:url(#_ÂÁ_Ï_ÌÌ_È_ËÂÌÚ_4-4);}.cls-20{fill:url(#_ÂÁ_Ï_ÌÌ_È_ËÂÌÚ_2-4);}.cls-21{fill:#4b6d73;}.cls-22{fill:url(#_ÂÁ_Ï_ÌÌ_È_ËÂÌÚ_4-5);}.cls-23{fill:url(#_ÂÁ_Ï_ÌÌ_È_ËÂÌÚ_40-4);}.cls-24{fill:#c62026;}.cls-25{fill:url(#_ÂÁ_Ï_ÌÌ_È_ËÂÌÚ_40-5);}.cls-26{fill:url(#_ÂÁ_Ï_ÌÌ_È_ËÂÌÚ_4-6);}.cls-27{fill:url(#_ÂÁ_Ï_ÌÌ_È_ËÂÌÚ_3-4);}.cls-28{fill:url(#_ÂÁ_Ï_ÌÌ_È_ËÂÌÚ_5-2);}.cls-29{fill:url(#_ÂÁ_Ï_ÌÌ_È_ËÂÌÚ_3-5);}.cls-30{fill:url(#_ÂÁ_Ï_ÌÌ_È_ËÂÌÚ_3-6);}.cls-31{fill:url(#_ÂÁ_Ï_ÌÌ_È_ËÂÌÚ_3-7);}.cls-32{fill:url(#_ÂÁ_Ï_ÌÌ_È_ËÂÌÚ_3-8);}.cls-33{fill:url(#_ÂÁ_Ï_ÌÌ_È_ËÂÌÚ_3-9);}.cls-34{fill:url(#_ÂÁ_Ï_ÌÌ_È_ËÂÌÚ_40-6);}.cls-35{fill:url(#_ÂÁ_Ï_ÌÌ_È_ËÂÌÚ_40-7);}.cls-36{fill:url(#_ÂÁ_Ï_ÌÌ_È_ËÂÌÚ_40-8);}.cls-37{fill:url(#_ÂÁ_Ï_ÌÌ_È_ËÂÌÚ_40-9);}.cls-38{fill:url(#_ÂÁ_Ï_ÌÌ_È_ËÂÌÚ_40-10);}.cls-39{fill:url(#_ÂÁ_Ï_ÌÌ_È_ËÂÌÚ_40-11);}.cls-40{fill:url(#_ÂÁ_Ï_ÌÌ_È_ËÂÌÚ_4-7);}.cls-41{fill:url(#_ÂÁ_Ï_ÌÌ_È_ËÂÌÚ_40-12);}.cls-42{fill:url(#_ÂÁ_Ï_ÌÌ_È_ËÂÌÚ_2-5);}.cls-43{fill:url(#_ÂÁ_Ï_ÌÌ_È_ËÂÌÚ_2-6);}.cls-44{fill:url(#_ÂÁ_Ï_ÌÌ_È_ËÂÌÚ_40-13);}.cls-45{fill:url(#_ÂÁ_Ï_ÌÌ_È_ËÂÌÚ_40-14);}.cls-46{fill:url(#_ÂÁ_Ï_ÌÌ_È_ËÂÌÚ_160);}.cls-47{fill:#fff;}.cls-48{fill:url(#_ÂÁ_Ï_ÌÌ_È_ËÂÌÚ_4-8);}.cls-49{fill:url(#_ÂÁ_Ï_ÌÌ_È_ËÂÌÚ_160-2);}.cls-50{fill:url(#_ÂÁ_Ï_ÌÌ_È_ËÂÌÚ_166);}</style><linearGradient id="_ÂÁ_Ï_ÌÌ_È_ËÂÌÚ_3" x1="266.58" y1="141.92" x2="236.88" y2="156.68" gradientUnits="userSpaceOnUse"><stop offset="0" stop-color="#fff"/><stop offset="0.84" stop-color="#e8e7e7"/></linearGradient><linearGradient id="_ÂÁ_Ï_ÌÌ_È_ËÂÌÚ_5" x1="262.91" y1="115.36" x2="251.51" y2="163.93" gradientUnits="userSpaceOnUse"><stop offset="0" stop-color="#fff"/><stop offset="0.48" stop-color="#eee"/><stop offset="1" stop-color="#d7d7d7"/></linearGradient><linearGradient id="_ÂÁ_Ï_ÌÌ_È_ËÂÌÚ_3-2" x1="259.02" y1="208.02" x2="219.37" y2="229.03" xlink:href="#_ÂÁ_Ï_ÌÌ_È_ËÂÌÚ_3"/><linearGradient id="_ÂÁ_Ï_ÌÌ_È_ËÂÌÚ_3-3" x1="268.57" y1="174.62" x2="194.42" y2="270.26" xlink:href="#_ÂÁ_Ï_ÌÌ_È_ËÂÌÚ_3"/><linearGradient id="_ÂÁ_Ï_ÌÌ_È_ËÂÌÚ_40" x1="257.51" y1="115.17" x2="255.83" y2="176.44" gradientUnits="userSpaceOnUse"><stop offset="0.17" stop-color="#bdb48e"/><stop offset="0.26" stop-color="#b3ab87"/><stop offset="0.41" stop-color="#999273"/><stop offset="0.6" stop-color="#6e6953"/><stop offset="0.82" stop-color="#333126"/><stop offset="1"/></linearGradient><linearGradient id="_ÂÁ_Ï_ÌÌ_È_ËÂÌÚ_4" x1="274.88" y1="857.66" x2="284.52" y2="910.2" gradientTransform="translate(-203.98 -750.13) rotate(-10.74)" gradientUnits="userSpaceOnUse"><stop offset="0.04" stop-color="#fff"/><stop offset="0.3" stop-color="#fbfbfb"/><stop offset="0.55" stop-color="#efefef"/><stop offset="0.7" stop-color="#e5e5e4"/><stop offset="0.8" stop-color="#dfdfde"/><stop offset="1" stop-color="#d7d7d7"/></linearGradient><linearGradient id="_ÂÁ_Ï_ÌÌ_È_ËÂÌÚ_40-2" x1="276.92" y1="857.27" x2="280.49" y2="902.36" gradientTransform="translate(-203.98 -750.13) rotate(-10.74)" xlink:href="#_ÂÁ_Ï_ÌÌ_È_ËÂÌÚ_40"/><linearGradient id="_ÂÁ_Ï_ÌÌ_È_ËÂÌÚ_4-2" x1="204.04" y1="52.89" x2="162.22" y2="124.05" gradientTransform="matrix(1, 0, 0, 1, 0, 0)" xlink:href="#_ÂÁ_Ï_ÌÌ_È_ËÂÌÚ_4"/><linearGradient id="_ÂÁ_Ï_ÌÌ_È_ËÂÌÚ_4-3" x1="172.42" y1="233.99" x2="124.72" y2="291.9" gradientTransform="matrix(1, 0, 0, 1, 0, 0)" xlink:href="#_ÂÁ_Ï_ÌÌ_È_ËÂÌÚ_4"/><linearGradient id="_ÂÁ_Ï_ÌÌ_È_ËÂÌÚ_2" x1="158.92" y1="273.08" x2="131.95" y2="315.38" gradientUnits="userSpaceOnUse"><stop offset="0" stop-color="#f2f2f2"/><stop offset="0.42" stop-color="#b5c5c5"/><stop offset="0.84" stop-color="#759595"/></linearGradient><linearGradient id="_ÂÁ_Ï_ÌÌ_È_ËÂÌÚ_2-2" x1="208.2" y1="114.49" x2="181.37" y2="149.97" xlink:href="#_ÂÁ_Ï_ÌÌ_È_ËÂÌÚ_2"/><linearGradient id="_ÂÁ_Ï_ÌÌ_È_ËÂÌÚ_40-3" x1="203.95" y1="108.1" x2="194.51" y2="154.29" xlink:href="#_ÂÁ_Ï_ÌÌ_È_ËÂÌÚ_40"/><linearGradient id="_ÂÁ_Ï_ÌÌ_È_ËÂÌÚ_2-3" x1="166.21" y1="198.91" x2="142.65" y2="235.82" xlink:href="#_ÂÁ_Ï_ÌÌ_È_ËÂÌÚ_2"/><linearGradient id="_ÂÁ_Ï_ÌÌ_È_ËÂÌÚ_4-4" x1="216" y1="220.95" x2="182.78" y2="286.25" gradientTransform="matrix(1, 0, 0, 1, 0, 0)" xlink:href="#_ÂÁ_Ï_ÌÌ_È_ËÂÌÚ_4"/><linearGradient id="_ÂÁ_Ï_ÌÌ_È_ËÂÌÚ_2-4" x1="202.58" y1="47.08" x2="183.65" y2="67.52" xlink:href="#_ÂÁ_Ï_ÌÌ_È_ËÂÌÚ_2"/><linearGradient id="_ÂÁ_Ï_ÌÌ_È_ËÂÌÚ_4-5" x1="190.13" y1="23.12" x2="164.2" y2="73.46" gradientTransform="matrix(1, 0, 0, 1, 0, 0)" xlink:href="#_ÂÁ_Ï_ÌÌ_È_ËÂÌÚ_4"/><linearGradient id="_ÂÁ_Ï_ÌÌ_È_ËÂÌÚ_40-4" x1="195.65" y1="20.87" x2="184.57" y2="42.44" xlink:href="#_ÂÁ_Ï_ÌÌ_È_ËÂÌÚ_40"/><linearGradient id="_ÂÁ_Ï_ÌÌ_È_ËÂÌÚ_40-5" x1="198.03" y1="43.23" x2="192.29" y2="70.02" xlink:href="#_ÂÁ_Ï_ÌÌ_È_ËÂÌÚ_40"/><linearGradient id="_ÂÁ_Ï_ÌÌ_È_ËÂÌÚ_4-6" x1="142.93" y1="45.72" x2="121.36" y2="97.01" gradientTransform="matrix(1, 0, 0, 1, 0, 0)" xlink:href="#_ÂÁ_Ï_ÌÌ_È_ËÂÌÚ_4"/><linearGradient id="_ÂÁ_Ï_ÌÌ_È_ËÂÌÚ_3-4" x1="125.97" y1="118.86" x2="89.92" y2="154.63" xlink:href="#_ÂÁ_Ï_ÌÌ_È_ËÂÌÚ_3"/><linearGradient id="_ÂÁ_Ï_ÌÌ_È_ËÂÌÚ_5-2" x1="102.37" y1="98.69" x2="91.3" y2="155.75" xlink:href="#_ÂÁ_Ï_ÌÌ_È_ËÂÌÚ_5"/><linearGradient id="_ÂÁ_Ï_ÌÌ_È_ËÂÌÚ_3-5" x1="91.88" y1="224.95" x2="100.05" y2="224.95" xlink:href="#_ÂÁ_Ï_ÌÌ_È_ËÂÌÚ_3"/><linearGradient id="_ÂÁ_Ï_ÌÌ_È_ËÂÌÚ_3-6" x1="104.8" y1="222.79" x2="116.04" y2="222.79" xlink:href="#_ÂÁ_Ï_ÌÌ_È_ËÂÌÚ_3"/><linearGradient id="_ÂÁ_Ï_ÌÌ_È_ËÂÌÚ_3-7" x1="133.49" y1="181.89" x2="114.75" y2="194.24" xlink:href="#_ÂÁ_Ï_ÌÌ_È_ËÂÌÚ_3"/><linearGradient id="_ÂÁ_Ï_ÌÌ_È_ËÂÌÚ_3-8" x1="144.66" y1="198.86" x2="125.93" y2="211.2" xlink:href="#_ÂÁ_Ï_ÌÌ_È_ËÂÌÚ_3"/><linearGradient id="_ÂÁ_Ï_ÌÌ_È_ËÂÌÚ_3-9" x1="115.84" y1="191.9" x2="89.44" y2="204.96" xlink:href="#_ÂÁ_Ï_ÌÌ_È_ËÂÌÚ_3"/><linearGradient id="_ÂÁ_Ï_ÌÌ_È_ËÂÌÚ_40-6" x1="124.2" y1="113.65" x2="115.53" y2="173.88" xlink:href="#_ÂÁ_Ï_ÌÌ_È_ËÂÌÚ_40"/><linearGradient id="_ÂÁ_Ï_ÌÌ_È_ËÂÌÚ_40-7" x1="128.35" y1="177.37" x2="122.96" y2="197.71" xlink:href="#_ÂÁ_Ï_ÌÌ_È_ËÂÌÚ_40"/><linearGradient id="_ÂÁ_Ï_ÌÌ_È_ËÂÌÚ_40-8" x1="138.89" y1="181.96" x2="132.17" y2="212.81" xlink:href="#_ÂÁ_Ï_ÌÌ_È_ËÂÌÚ_40"/><linearGradient id="_ÂÁ_Ï_ÌÌ_È_ËÂÌÚ_40-9" x1="143.04" y1="35.27" x2="134.11" y2="83.63" xlink:href="#_ÂÁ_Ï_ÌÌ_È_ËÂÌÚ_40"/><linearGradient id="_ÂÁ_Ï_ÌÌ_È_ËÂÌÚ_40-10" x1="201.57" y1="56.58" x2="187.75" y2="88.76" xlink:href="#_ÂÁ_Ï_ÌÌ_È_ËÂÌÚ_40"/><linearGradient id="_ÂÁ_Ï_ÌÌ_È_ËÂÌÚ_40-11" x1="228.41" y1="65.02" x2="198.32" y2="111.01" xlink:href="#_ÂÁ_Ï_ÌÌ_È_ËÂÌÚ_40"/><linearGradient id="_ÂÁ_Ï_ÌÌ_È_ËÂÌÚ_4-7" x1="207.65" y1="136.94" x2="179.75" y2="176.17" gradientTransform="matrix(1, 0, 0, 1, 0, 0)" xlink:href="#_ÂÁ_Ï_ÌÌ_È_ËÂÌÚ_4"/><linearGradient id="_ÂÁ_Ï_ÌÌ_È_ËÂÌÚ_40-12" x1="213.32" y1="120.99" x2="186.78" y2="169.54" xlink:href="#_ÂÁ_Ï_ÌÌ_È_ËÂÌÚ_40"/><linearGradient id="_ÂÁ_Ï_ÌÌ_È_ËÂÌÚ_2-5" x1="214.63" y1="195.56" x2="199.59" y2="233.6" xlink:href="#_ÂÁ_Ï_ÌÌ_È_ËÂÌÚ_2"/><linearGradient id="_ÂÁ_Ï_ÌÌ_È_ËÂÌÚ_2-6" x1="236.68" y1="270.55" x2="217.09" y2="305.18" xlink:href="#_ÂÁ_Ï_ÌÌ_È_ËÂÌÚ_2"/><linearGradient id="_ÂÁ_Ï_ÌÌ_È_ËÂÌÚ_40-13" x1="164.29" y1="216.83" x2="151.8" y2="308.24" xlink:href="#_ÂÁ_Ï_ÌÌ_È_ËÂÌÚ_40"/><linearGradient id="_ÂÁ_Ï_ÌÌ_È_ËÂÌÚ_40-14" x1="206.71" y1="226.77" x2="206.43" y2="271.63" xlink:href="#_ÂÁ_Ï_ÌÌ_È_ËÂÌÚ_40"/><radialGradient id="_ÂÁ_Ï_ÌÌ_È_ËÂÌÚ_160" cx="200.18" cy="29" r="27.25" gradientUnits="userSpaceOnUse"><stop offset="0.01" stop-color="#22577e"/><stop offset="0.25" stop-color="#204f77"/><stop offset="0.63" stop-color="#1c3b62"/><stop offset="1" stop-color="#162048"/></radialGradient><linearGradient id="_ÂÁ_Ï_ÌÌ_È_ËÂÌÚ_4-8" x1="238.99" y1="81.26" x2="226.09" y2="100.99" gradientTransform="matrix(1.01, 0, 0.13, 0.99, -46.44, 3.75)" xlink:href="#_ÂÁ_Ï_ÌÌ_È_ËÂÌÚ_4"/><radialGradient id="_ÂÁ_Ï_ÌÌ_È_ËÂÌÚ_160-2" cx="236.86" cy="84.18" r="17.25" gradientTransform="matrix(1.01, 0, 0.13, 0.99, -46.44, 3.75)" xlink:href="#_ÂÁ_Ï_ÌÌ_È_ËÂÌÚ_160"/><linearGradient id="_ÂÁ_Ï_ÌÌ_È_ËÂÌÚ_166" x1="240.04" y1="82.32" x2="229" y2="95.53" gradientTransform="matrix(1.01, 0, 0.13, 0.99, -46.44, 3.75)" gradientUnits="userSpaceOnUse"><stop offset="0" stop-color="#848174"/><stop offset="0.73" stop-color="#252420"/><stop offset="1"/></linearGradient></defs><title>Advanced</title><g class="cls-1"><g id="Layer_1" data-name="Layer 1"><path class="cls-2" d="M248.68,132.92a201.72,201.72,0,0,0-6.9-43.48,25,25,0,0,0-12.47,3,148.18,148.18,0,0,1,6.09,36.44,19,19,0,0,0,9.41,6.29,4.34,4.34,0,0,0,2.05.22A3.52,3.52,0,0,0,248.68,132.92Z"/><path class="cls-3" d="M257.35,177c1.53-6.88,1.94-14.16,4.28-20.81a47.19,47.19,0,0,0-3.41-37.84,23.93,23.93,0,0,0-11,1.9,22.4,22.4,0,0,1-1.16,14.16,10.05,10.05,0,0,1-6.23-4.69,27.71,27.71,0,0,1-3.27-7.38,24.28,24.28,0,0,0-14.14,13.9,49.63,49.63,0,0,0,8.76,20.92,155.06,155.06,0,0,1-.11,19.28c-.16,3.19,2.83,6.39,5.92,7.2s16.15-.18,17.5-1.13S257,178.63,257.35,177Z"/><path class="cls-4" d="M253.6,118.51A57.43,57.43,0,0,1,255,148.14a15.51,15.51,0,0,1,3.82,2.74,36.14,36.14,0,0,1-3.42,14.41l.35.24c1.14.78,2.08,1.62,3.2,2.24a67.09,67.09,0,0,1,2.64-11.56,47.19,47.19,0,0,0-3.41-37.84A19.65,19.65,0,0,0,253.6,118.51Z"/><path class="cls-5" d="M242.74,171.32A169.39,169.39,0,0,1,245,148.38a32.82,32.82,0,0,1-2.6-11.67,14.48,14.48,0,0,0,4.09-2.34c0-.2-.1-.41-.14-.61-.09.22-.16.45-.26.67a10.05,10.05,0,0,1-6.23-4.69,27.71,27.71,0,0,1-3.27-7.38,24.28,24.28,0,0,0-14.14,13.9,49.63,49.63,0,0,0,8.76,20.92,155.06,155.06,0,0,1-.11,19.28c-.16,3.19,2.83,6.39,5.92,7.2s16.15-.18,17.5-1.13a6.48,6.48,0,0,0,1.76-2.45A32.82,32.82,0,0,0,242.74,171.32Z"/><path class="cls-6" d="M235.4,209.11a5.7,5.7,0,0,0,3.3.76,6.27,6.27,0,0,0,.65,2.17,27.46,27.46,0,0,1-10.26,11.29c-2-.49-4.28-1.1-6.26-1.58-.13-.78-.27-1.27-.39-2.05A42.06,42.06,0,0,0,235.4,209.11ZM244.75,227a21.84,21.84,0,0,0,9-12.71c-.35-.65-.75-1.51-1.1-2.16a21.18,21.18,0,0,1-4.9-.42,63,63,0,0,1-10.78,11.47c0,.78-.29,1.63-.31,2.41A38,38,0,0,0,244.75,227Z"/><path class="cls-5" d="M229.09,223.32c-.16-.76-.31-1.53-.42-2.31a23.77,23.77,0,0,0,10.08-10.83c0-.11,0-.21-.05-.31a5.7,5.7,0,0,1-3.3-.76,42.06,42.06,0,0,1-13,10.59c.12.78.26,1.27.39,2.05,2,.48,4.27,1.09,6.26,1.58Z"/><path class="cls-5" d="M244.92,226.88a17,17,0,0,0-.19-2.32,33,33,0,0,0,7.83-12.43,20.66,20.66,0,0,1-4.84-.42,63,63,0,0,1-10.78,11.47c0,.78-.29,1.63-.31,2.41a38,38,0,0,0,8.12,1.41A1.77,1.77,0,0,0,244.92,226.88Z"/><path class="cls-2" d="M254.5,192.86c-.67-2.05,1.21-5.36.25-7.29a8.34,8.34,0,0,0-1-1.49c.14-.74.26-1.48.34-2.22a37,37,0,0,0-8.76-6.73,22.24,22.24,0,0,0-12.35,3.7,114.16,114.16,0,0,1-1.2,13.93,10.94,10.94,0,0,0,1,6.8c1.45,2.75.26,6.2-.08,9.28a43.2,43.2,0,0,1-7.39,6.9,4.13,4.13,0,0,0,.19,2.24,16.12,16.12,0,0,0,4.68,1,27.2,27.2,0,0,0,7-8.21c1.69-3,2.12-6.8,2.36-10.26a37,37,0,0,0,4.58-.3,27.34,27.34,0,0,1,1.33,9.46c-.09,3.46-3.62,6.43-5.87,9.11.09.72,0,1.4.12,2.12,1.74.32,3.14.76,4.88,1.08a23.57,23.57,0,0,0,7.06-8.82,44.38,44.38,0,0,1-1.27-7.22,7.69,7.69,0,0,0,3,.52C255.86,202.32,256,197.42,254.5,192.86Z"/><path class="cls-5" d="M257.05,196.13a9.56,9.56,0,0,0-5-1.95l-1.47,1a54.49,54.49,0,0,1-.54,12.76,12.63,12.63,0,0,0,4.3,1.14l1.38-1.23A34.18,34.18,0,0,0,257.05,196.13Z"/><path class="cls-5" d="M257.41,185.12A21.23,21.23,0,0,0,250,181.5l-1.47,1c.73,3.28.56,9.87.56,9.78a17.82,17.82,0,0,1,6.76,2.55l1.47-1C258,191.12,258.33,187.75,257.41,185.12Z"/><path class="cls-7" d="M257.36,193.83a17.68,17.68,0,0,0-6.77-2.54c0,.08.18-6.51-.55-9.79a21.23,21.23,0,0,1,7.37,3.62C258.33,187.75,258,191.12,257.36,193.83Zm-.31,2.3a9.56,9.56,0,0,0-5-1.95,54.6,54.6,0,0,1-.54,12.77,12.86,12.86,0,0,0,4.29,1.13l-.08-.27A34.18,34.18,0,0,0,257.05,196.13Z"/><path class="cls-8" d="M231.62,166.29l-.27-.48a22,22,0,0,1,6.42-2.37c.12-1.93.25-3.92.37-5.91s.25-4.06.38-6a33.84,33.84,0,0,1-6.26-10.1,23.64,23.64,0,0,0-7.31,3.43l-.31-.45a24.22,24.22,0,0,1,7.71-3.58l.24-.06.09.23A33.3,33.3,0,0,0,239,151.23l.08.09v.12c-.12,2-.25,4.05-.38,6.12s-.26,4.14-.39,6.13v.21l-.22,0A21.28,21.28,0,0,0,231.62,166.29Z"/><path class="cls-8" d="M259.15,168.09a7.73,7.73,0,0,1-3.88-2.23l-.22-.2.11-.27a40.2,40.2,0,0,0,3.27-13.85l0-.6a11.75,11.75,0,0,0-3.39-2.28l-.3-.13.06-.32a67.78,67.78,0,0,0-1.52-29.81l.79-.22A68.46,68.46,0,0,1,255.68,148a12.55,12.55,0,0,1,3.48,2.44l.13.13,0,1A40.91,40.91,0,0,1,256,165.43a6.62,6.62,0,0,0,3.22,1.84Z"/><path class="cls-9" d="M256.18,176.09c-1.5-1.11-3.12-2-4.62-3.09,2.45-7.91,3.23-16.37,3.5-24.65a88.42,88.42,0,0,0-3.37-27.17,13.64,13.64,0,0,1,5.9-1.43,46.65,46.65,0,0,1,2,36.92C258.48,162.92,257.56,169.9,256.18,176.09Z"/><path class="cls-10" d="M237.56,47.07a110.46,110.46,0,0,0-20.16.8s-.06,0-.05.05c11.22,13.18,17.52,27.55,23.17,43.77A59.7,59.7,0,0,0,250.05,85C248.87,70.87,245.26,59,237.56,47.07Z"/><path class="cls-11" d="M203.29,65.41A180.13,180.13,0,0,0,224,98.21a75.75,75.75,0,0,0,16.57-6.52c-5.65-16.22-11.94-30.59-23.18-43.77A86.79,86.79,0,0,0,203.29,65.41Z"/><path class="cls-11" d="M249.16,76.42a44.32,44.32,0,0,1-9.14.08c-.06,0-.22,0-.26,0s0-.2-.07-.27c-2.57-10.91-7.23-19.83-13.89-28.81l.62-.49a76.85,76.85,0,0,1,14.06,28.78,45.54,45.54,0,0,0,8.29,0l.26,0c.43.13.19.69.15.78S249.17,76.41,249.16,76.42Z"/><path class="cls-12" d="M248.83,82.34a83.25,83.25,0,0,0-11.46-34.29,116.43,116.43,0,0,0-18,.22,57.19,57.19,0,0,1,15.87,3.64A89.93,89.93,0,0,1,248.83,82.34Z"/><path class="cls-2" d="M118.71,172.75c2.64,4.91,5.32,9.67,8,14.58a36.84,36.84,0,0,1-33.52,5.41,46,46,0,0,1-.8-11.65C100.18,176.2,109.48,172.75,118.71,172.75ZM94.14,206.83a60,60,0,0,1-5.22,11.44A56.07,56.07,0,0,0,93,227.66c.53.93,1,2.33,2.14,2.41,1.41.09,3.21-1,4.22-1.88a44.82,44.82,0,0,1-1.81-9.35,25.1,25.1,0,0,0,1.93-13.36A22.11,22.11,0,0,0,94.14,206.83Zm10.79-1.4a60,60,0,0,1-2.76,12.27,55.13,55.13,0,0,0,6,8.34c.7.8,1.41,2.07,2.58,1.91,1.4-.2,2.93-1.64,3.74-2.71a44.75,44.75,0,0,1-3.69-8.77,25.14,25.14,0,0,0-.87-13.47A21.86,21.86,0,0,0,104.93,205.43Zm17.71-12.91a17,17,0,0,0,4.26,8.63c-.05-.08,0,.36-.08.28-.27,3-1.56,6.82-2.18,10.23a9.07,9.07,0,0,0,5.6.41,24.14,24.14,0,0,0,2.11-11.2,58.11,58.11,0,0,1-5.68-9.25A5.65,5.65,0,0,0,122.64,192.52Z"/><path class="cls-13" d="M220.93,66.59a95.53,95.53,0,0,0-11.45-4.07c-.57-.88-1.16-1.86-1.7-2.64a252.38,252.38,0,0,0-52-5.3l-4.63,3.71a103.93,103.93,0,0,0-12.58,3.09c-8.37,9.06-14.36,25.2-8.28,35.93a84.29,84.29,0,0,0,30,30.7c19.31,2.72,43.73,2.72,62.61-2.54C231.31,103.09,232.61,81.19,220.93,66.59Z"/><path class="cls-11" d="M161.07,61.19l-1.32,1.14A59.21,59.21,0,0,0,178.53,77.2c-.13.63-.3,1.25-.42,1.88a48.77,48.77,0,0,1-26-20.57c1.23-1,2.2-2.14,3.42-3.19,2.3-.06,4.61-.07,6.91-.14a12.65,12.65,0,0,1,.73,3.15,2,2,0,0,1,0,.81C163,59.83,161.61,60.73,161.07,61.19Z"/><path class="cls-11" d="M180.05,127.25c-7.9-.3-15.19-4.72-20.61-10.47s-8.94-12.28-12.71-19.23a53.31,53.31,0,0,0,1.93-38.78c-3.25.67-6.61,1.52-10.11,2.61-8.37,9.06-14.36,25.2-8.28,35.93a84.29,84.29,0,0,0,30,30.7c19.31,2.72,43.73,2.72,62.61-2.54.3-.79.58-1.57.86-2.36C209.06,124.43,194.81,127.81,180.05,127.25Z"/><path class="cls-11" d="M179.75,92.34l-.09-.17-.18-.08a155.13,155.13,0,0,0-35.15-11.33l-.22,1.09A154,154,0,0,1,178.84,93a115.35,115.35,0,0,1,8.59,24.13l1.08-.27A116.5,116.5,0,0,0,179.75,92.34Z"/><path class="cls-11" d="M227.91,80.82c-.1-.41-.22-.81-.33-1.21a7.35,7.35,0,0,1-.88.77,70.68,70.68,0,0,1-11.57,8l-.29.14v.33a106.14,106.14,0,0,1-5.16,28.2l1.06.35a107.32,107.32,0,0,0,5.19-28.18,74.46,74.46,0,0,0,11.48-7.93C227.57,81.11,227.75,81,227.91,80.82Z"/><path class="cls-2" d="M206.16,166.81a178.38,178.38,0,0,0-4.4,51.86c-3,1-6,1.1-9,2.07a143.74,143.74,0,0,1,6.29-47C200.07,170.36,203.26,168.76,206.16,166.81Z"/><path class="cls-14" d="M165,298.37a456.11,456.11,0,0,1-3-74,31.52,31.52,0,0,0-27.27-.12,251.6,251.6,0,0,0-10.18,76.54c2.42,2.3,5.14,3.72,9.11,5.06l20.06.75C159.47,304.34,162.78,301.65,165,298.37Z"/><path class="cls-11" d="M155.77,232.84c.78-3.53,1.68-6.88,1.53-10.3a31.61,31.61,0,0,0-22.57,1.72,251.6,251.6,0,0,0-10.18,76.54c2.42,2.3,5.14,3.72,9.11,5.06l3.4.13a100.19,100.19,0,0,0,.31-26.46c-1.75,1.22-3.17,2.82-4.91,4.05a155.71,155.71,0,0,1,6.28-51.37Z"/><path class="cls-15" d="M147.19,314.26a22.43,22.43,0,0,0,8.63-8.95,161.13,161.13,0,0,0-7.61-25.06,26.78,26.78,0,0,0-10.91-.81,76.71,76.71,0,0,0-7.22,25.25s1.94,6.31,4.06,8.68C138.09,314.45,147.19,314.26,147.19,314.26Z"/><path class="cls-11" d="M209.67,150.2a5.34,5.34,0,0,1,2.77.94,56,56,0,0,1-3.63,13,18.11,18.11,0,0,1-8.93,9.22A103.51,103.51,0,0,1,209.67,150.2Z"/><path class="cls-16" d="M212.41,127.48a58.07,58.07,0,0,1-6.16,23.67,44.74,44.74,0,0,1-33.46-2.66,100.36,100.36,0,0,0-1.48-19.28,13.86,13.86,0,0,0,10.84-3.08,14.89,14.89,0,0,0,5.48-10.35,44.79,44.79,0,0,1,22.85-1.36A33.64,33.64,0,0,1,212.41,127.48Z"/><path class="cls-17" d="M206.65,150.17a48.69,48.69,0,0,1-14.16-.13,175.46,175.46,0,0,0-3-33.69A55.58,55.58,0,0,1,210,114.81C213.12,126.25,211.66,139.42,206.65,150.17Z"/><path class="cls-11" d="M182.93,147.32A55.32,55.32,0,0,0,165.37,150a65,65,0,0,1,1.55,13.41c0,3,2.94,5.66,5.55,7.38a15.5,15.5,0,0,0,9,2.51C182,171.39,182.83,153.79,182.93,147.32Z"/><path class="cls-11" d="M211,148.35C208.76,158.47,204.62,170,198,178a40.73,40.73,0,0,1-15.83-.41,131.29,131.29,0,0,1-1.9-29.23c4.09-2.25,7.33-6.08,10.24-9.73a53,53,0,0,1,15.4-.36A25.85,25.85,0,0,1,211,148.35Z"/><path class="cls-2" d="M159.52,212.65a319.35,319.35,0,0,1,16-41.92,7.78,7.78,0,0,0-5.54-3.92,283.27,283.27,0,0,0-20.38,42.79C152.63,210.49,156.5,211.75,159.52,212.65Z"/><path class="cls-18" d="M155.64,233.5c2.92-1.91,5.77-5.32,6.3-8.77.87-5.74,1.45-12,2.33-17.77a29.45,29.45,0,0,0-13.7-3.75,58.64,58.64,0,0,0-10.36,21.11,31.42,31.42,0,0,0,3.46,6.44A47.82,47.82,0,0,0,155.64,233.5Z"/><path class="cls-19" d="M214,270.16c-4-17.74-7.34-36.36-8.43-54.52a26.89,26.89,0,0,0-14.8,3.72c-7.29,24-14.66,48.83-12.41,73.86a80.57,80.57,0,0,0,25.71,2C209.08,287.65,214,270.16,214,270.16Z"/><path class="cls-2" d="M206.1,61.05a47.11,47.11,0,0,1-4,15.86c-7.1,1.25-22-1.12-22-1.12a54.76,54.76,0,0,1-23.29-19A300.28,300.28,0,0,1,206.1,61.05Z"/><path class="cls-20" d="M195.74,44.43a11.74,11.74,0,0,0-4.86-.23,42.36,42.36,0,0,0-9.1,9.5,45.8,45.8,0,0,0,5.61,17.4c2.68.41,5.59-.07,8.3-.13,2.76-5.19,5.53-10.87,6.69-16.6-.49-.8-.79-1.74-1.28-2.55C199.53,49.62,197.86,46.45,195.74,44.43Z"/><path class="cls-21" d="M166.69,40.77a43,43,0,0,0-8.41-.63,78.84,78.84,0,0,0,.38,14.24A48.94,48.94,0,0,0,182,69.83a133.6,133.6,0,0,0-13-28.47A12.53,12.53,0,0,0,166.69,40.77Z"/><path class="cls-22" d="M200.25,31a39,39,0,0,0-26.07-4.52A36.9,36.9,0,0,0,159,33.65c-.29,1.78-.52,4-.67,6.49a43,43,0,0,1,8.41.63,12.53,12.53,0,0,1,2.34.59,133.6,133.6,0,0,1,13,28.47,44.65,44.65,0,0,0,5,1.23l.34,0a45.8,45.8,0,0,1-5.61-17.4,42.36,42.36,0,0,1,9.1-9.5,11.74,11.74,0,0,1,4.86.23c2.12,2,3.79,5.19,5.36,7.39C202,45.37,201.28,37.45,200.25,31Z"/><path class="cls-23" d="M173.65,27.28a41.77,41.77,0,0,1,26.13,4A59.76,59.76,0,0,1,200.43,48c-.49-.5-1.74-1.82-1.74-1.82-.54-4.16-.27-9.06-1.66-13.33C190.77,29.74,182.22,27.74,173.65,27.28Z"/><path class="cls-2" d="M168.51,50.73A56.64,56.64,0,0,1,161.4,48c0,.47,0,.94,0,1.42A35,35,0,0,0,169,54.08C168.9,53,168.73,51.84,168.51,50.73Z"/><path class="cls-2" d="M161.64,51.68q.15,1.16.33,2.22s4.47,4.39,7.25,5.29c0-1.13,0-2.19-.06-3.23A37.38,37.38,0,0,1,161.64,51.68Z"/><path class="cls-2" d="M168.09,48.85c-.24-.93-.5-1.88-.82-2.88a14.12,14.12,0,0,0-5.8-1.24c0,.46-.05,1-.07,1.44A55.23,55.23,0,0,0,168.09,48.85Z"/><path class="cls-2" d="M145.78,61.06c2,6.44,2.34,13.59-.29,19.81s-8.56,11.29-15.4,11.84C127.37,81,135.82,68.05,145.78,61.06Z"/><path class="cls-11" d="M176.25,123.05A14.15,14.15,0,0,0,178,116.8c-3.15-.12-6.71-.22-9.87-.34l-.34,6.27A40.37,40.37,0,0,0,176.25,123.05Z"/><path class="cls-24" d="M174.81,122.18a10.23,10.23,0,0,0,1.3-4.57c-2.3-.09-4.9-.16-7.21-.25-.08,1.53-.16,3.06-.25,4.59A30.28,30.28,0,0,0,174.81,122.18Z"/><path class="cls-25" d="M191.26,44.51a12,12,0,0,1,4.35.48s5,6.27,6.42,9.9a69.8,69.8,0,0,1-7.18,15.51c-.24,0-2.06,0-2.3.06,1.54-7.83,2.63-16.24.57-23.95C192.91,45.74,191.81,45.08,191.26,44.51Z"/><path class="cls-21" d="M193,68s.23-1.2.46-3.14a58.52,58.52,0,0,0,.34-7.59c0-3-.24-5.66-.4-7.61s-.28-3.16-.28-3.16.32,1.17.7,3.1a45.29,45.29,0,0,1,.82,7.66,32.93,32.93,0,0,1-.77,7.67A25.9,25.9,0,0,1,193,68Z"/><path class="cls-21" d="M189.62,66.81s.23-1,.46-2.67a42.58,42.58,0,0,0,.34-6.47c0-2.53-.24-4.82-.4-6.48s-.28-2.7-.28-2.7.32,1,.7,2.65a33,33,0,0,1,.82,6.52,24.16,24.16,0,0,1-.77,6.54A19.64,19.64,0,0,1,189.62,66.81Z"/><path class="cls-21" d="M196.3,66.09s.23-1,.46-2.52a37.61,37.61,0,0,0,.34-6.08c0-2.38-.24-4.54-.4-6.1s-.28-2.54-.28-2.54.32.94.7,2.49a29.38,29.38,0,0,1,.82,6.14,21.41,21.41,0,0,1-.77,6.15A18.18,18.18,0,0,1,196.3,66.09Z"/><path class="cls-11" d="M172.35,27A36.71,36.71,0,0,0,159,33.65c-.29,1.78-.52,4-.67,6.49a43,43,0,0,1,8.41.63,12.53,12.53,0,0,1,2.34.59,133.6,133.6,0,0,1,13,28.47c.2.07.42.12.62.18A171.16,171.16,0,0,1,172.35,27Z"/><path class="cls-2" d="M123.66,90c-4,12.89-6.49,25.49-6.39,39l.42.43a24.62,24.62,0,0,1-17-2,89,89,0,0,1,8.65-41.18,32.66,32.66,0,0,1,7.67-.89,12.34,12.34,0,0,1,7.55,2.77C124.38,88.3,123.86,89.87,123.66,90Z"/><path class="cls-11" d="M132.06,41A67.18,67.18,0,0,0,108,42.12,82.81,82.81,0,0,0,93.9,84.27a150.88,150.88,0,0,0,21.63,7.46C125.89,76.82,132.09,59.08,132.06,41Z"/><path class="cls-26" d="M147.5,58.76c-3.84-6.9-9.41-12.66-15.41-17.8h0c0,18.12-6.17,35.86-16.53,50.77a105.11,105.11,0,0,0,16,2.89A66.08,66.08,0,0,0,147.5,58.76Z"/><path class="cls-27" d="M122.72,175.61a113.12,113.12,0,0,1-2.3-29c4.89-7.19,8.93-16.93,6.57-25.31-1-3.75-4.91-7.88-8.46-9.48,0,.11-1.22,7.91-1.46,14.59-3.65,2.55-5.35,1.67-8-2.42a42.69,42.69,0,0,1,3.25-17.31c-1.09-1-2.6-2.38-3.69-3.42A35.61,35.61,0,0,0,82,109c-3.23,8.42-6.46,17.18-5.86,26.18.48,7.24,3.42,14.06,5.81,20.91,3,8.61,6.81,19.16,8.17,28.17a102.82,102.82,0,0,0,24-4.58C117.05,178.68,119.84,176.83,122.72,175.61Z"/><path class="cls-5" d="M90.1,184.23a102.82,102.82,0,0,0,24-4.58,38.49,38.49,0,0,0,5.71-2.62,36.92,36.92,0,0,1-15.31,2,86,86,0,0,1-3.57-14.58c-4.19,2.47-9.76,4.36-14.7,4.21A107,107,0,0,1,90.1,184.23Z"/><path class="cls-11" d="M96.4,140a32,32,0,0,1,8.78-3.3,72.46,72.46,0,0,1,2.87-33.49A35.69,35.69,0,0,0,82,109c-3.23,8.42-6.46,17.18-5.86,26.18.48,7.24,3.42,14.06,5.81,20.91,1.3,3.72,2.74,7.81,4.07,12a26,26,0,0,0,14.71-3.51A68.7,68.7,0,0,0,96.4,140Z"/><path class="cls-28" d="M108.05,103.21a35.15,35.15,0,0,0-17.66,1.52c-3.34,9.94-1.83,21,1.06,31.19,2.76,9.67,6.71,19,8.83,28.84l.43-.23A68.7,68.7,0,0,0,96.4,140a32,32,0,0,1,8.78-3.3A72.46,72.46,0,0,1,108.05,103.21Z"/><path class="cls-5" d="M111.13,183.37a1.87,1.87,0,0,0-.34.08A80.55,80.55,0,0,1,91,187.21,41,41,0,0,0,89.29,205a88.77,88.77,0,0,0,20.08-3C109.89,195.7,110.38,189.84,111.13,183.37Z"/><path class="cls-29" d="M100.05,232.71c-1.77-4.77-3.35-9.63-4.85-14.49-1-.43-2.22-1.29-3.32-1.28a90.74,90.74,0,0,0,7.9,16A2.23,2.23,0,0,0,100.05,232.71Z"/><path class="cls-5" d="M91.88,216.94a1.94,1.94,0,0,0-.34,0,13.81,13.81,0,0,0-7.07,3.88A29,29,0,0,0,96.23,235a10.09,10.09,0,0,0,3.55-2A90.74,90.74,0,0,1,91.88,216.94Z"/><path class="cls-30" d="M116,229.54c-2.71-4.31-5.26-8.74-7.73-13.19-1.08-.21-2.43-.8-3.51-.57a89.79,89.79,0,0,0,11,14.06C115.91,229.74,116,229.63,116,229.54Z"/><path class="cls-5" d="M104.8,215.78a1.78,1.78,0,0,0-.33.09,13.76,13.76,0,0,0-6.12,5.26,28.9,28.9,0,0,0,14.43,11.43,10,10,0,0,0,3-2.72A89.79,89.79,0,0,1,104.8,215.78Z"/><path class="cls-31" d="M131.38,190.57a19.66,19.66,0,0,1-14.58,5.67,30.43,30.43,0,0,1,.53-11.37,17,17,0,0,1,7.21-3.24C127.58,183.58,129.87,187.29,131.38,190.57Z"/><path class="cls-32" d="M137.23,199.72a24.45,24.45,0,0,1-5.18,15.34,13.47,13.47,0,0,1-3.64.28,70.32,70.32,0,0,1,3.82-16.18A10.91,10.91,0,0,1,137.23,199.72Z"/><path class="cls-21" d="M209.67,122.11l-.82,0c-.52,0-1.28-.09-2.22-.11a46.83,46.83,0,0,0-7.25.37,48.85,48.85,0,0,0-7.12,1.44c-.9.25-1.64.47-2.13.64l-.79.25.72-.41c.46-.26,1.14-.62,2-1a25.74,25.74,0,0,1,7.17-2,25.37,25.37,0,0,1,7.45.19,20.11,20.11,0,0,1,2.19.49Z"/><path class="cls-21" d="M211,131.39l-3.05,0c-1.87,0-4.44.09-7.26.25s-5.38.37-7.24.55l-3,.32s1.08-.4,2.9-.86a38.22,38.22,0,0,1,7.29-1.12,39.23,39.23,0,0,1,7.39.3C209.83,131.11,211,131.39,211,131.39Z"/><path class="cls-5" d="M113.78,156.71l0,.27A69.3,69.3,0,0,0,116,178.92l.77-.35a68.4,68.4,0,0,1-2.14-21.28,26.39,26.39,0,0,1,5.76-1.59c0-.28,0-.56,0-.83a27,27,0,0,0-6.3,1.74Z"/><path class="cls-8" d="M101.24,164.56v-.22A70.91,70.91,0,0,0,97,140.23a33.08,33.08,0,0,1,8.52-2.8l.42-.06-.08-.43a63.83,63.83,0,0,1,2.55-33.68l-.83-.14a64.63,64.63,0,0,0-2.62,33.56,35.52,35.52,0,0,0-8.66,2.95l-.34.17.13.36a70.14,70.14,0,0,1,4.36,24,20,20,0,0,1-14.54,3.5l.3.91a18.25,18.25,0,0,0,2.67.2,21.09,21.09,0,0,0,12.23-4.06Z"/><path class="cls-8" d="M98.35,114.11a34.92,34.92,0,0,0-8.27,2.18A10.48,10.48,0,0,1,91.4,110a29,29,0,0,1,7.6-1.83C98.67,109.9,98.49,112.35,98.35,114.11Z"/><path class="cls-24" d="M97.77,113.66a27.74,27.74,0,0,0-6.17,1.47,6.43,6.43,0,0,1,1-4.23,23.54,23.54,0,0,1,5.68-1.24C98,110.82,97.88,112.47,97.77,113.66Z"/><path class="cls-8" d="M90.86,168c-.39-5.58-2.21-11-4-16.29-.38-1.12-.75-2.23-1.11-3.35-2-6.05-3.77-13.15-2.54-20-2-.81-4.52-1.67-6.6-1.46l0-.56c2.27-.22,5,.73,7.07,1.59l.21.08,0,.23c-1.29,6.75.53,13.85,2.48,19.9.36,1.11.73,2.23,1.1,3.34,1.78,5.3,3.61,10.78,4,16.43Z"/><path class="cls-8" d="M108.87,202.15A87.78,87.78,0,0,1,89.29,205c0,.13,0,.26,0,.39.88.64,1.57,1.67,2.45,2.3a59.22,59.22,0,0,0,20.41-2.83c0-.12,0-.23.06-.35A37.42,37.42,0,0,1,108.87,202.15Z"/><path class="cls-33" d="M116,184.59c-.77-.71-3.39-1.13-4.91-1.22-.75,6.47-1.24,12.33-1.76,18.66l-.5.12a37.42,37.42,0,0,0,3.38,2.38C113.34,198,115,191.1,116,184.59Z"/><path class="cls-34" d="M120.54,115c4.52,3.32,6,9.61,5.11,15.14s-3.91,10.48-7,15.17a189.86,189.86,0,0,0,1.5,29.48c-1,.38-2.38.76-3.37,1.14a76.05,76.05,0,0,1-1.59-32.54c5-5.44,6.66-14.19,4.67-21.29C119.28,120,120.48,117.13,120.54,115Z"/><path class="cls-35" d="M130.07,190.4a28.34,28.34,0,0,0-5.71-7.52,9.27,9.27,0,0,0-3.09,1.69,44.2,44.2,0,0,1,4.23,9.06c.09.13.33,0,.31-.13s-.3-.17-.34,0A33.85,33.85,0,0,0,130.07,190.4Z"/><path class="cls-36" d="M136.62,200.39a23.83,23.83,0,0,1-3.28,11.26,19.5,19.5,0,0,0,.48-9.17l-1.42-.66a4.6,4.6,0,0,0,.46-2.09A8.21,8.21,0,0,1,136.62,200.39Z"/><path class="cls-11" d="M127.74,86.05l-.22,0a26.41,26.41,0,0,0-2.68-.15,12.8,12.8,0,0,1-5.38-.91l.36-.75a11.89,11.89,0,0,0,5,.82c.84,0,1.71,0,2.55.14a66.65,66.65,0,0,0,15.86-31.94l.82.15a67.49,67.49,0,0,1-16.2,32.51Z"/><path class="cls-8" d="M119.46,85c-1.48-.72-3-1.41-4.45-2.1s-3-1.39-4.47-2.12l-.31-.15.09-.34a68,68,0,0,0,2.49-17.58,84.78,84.78,0,0,0-13.66-2.76l.1-.83A85.8,85.8,0,0,1,113.35,62l.3.09v.31a69,69,0,0,1-2.42,17.78q2.07,1,4.15,2c1.48.69,3,1.39,4.45,2.11Z"/><path class="cls-8" d="M114,50c-2.35-.07-4.73-.23-7.06-.52a18.65,18.65,0,0,1,2.24-4.81,35.09,35.09,0,0,1,7.09-.35A25.53,25.53,0,0,1,114,50Z"/><path class="cls-24" d="M113.68,49.39A46,46,0,0,1,109,49a12.61,12.61,0,0,1,1.49-3.2,24,24,0,0,1,4.71-.23A16.68,16.68,0,0,1,113.68,49.39Z"/><path class="cls-37" d="M141.9,61.47c-1.28,11-5.21,21.9-10.42,31.69,10.2-12.4,12.79-23.29,15.4-34.39-3.11-6-8.13-11.2-13.53-15.28,3,5.64,5.59,11,8.61,16.59Z"/><path class="cls-38" d="M202.67,77.62q2.54-5.84,4.61-11.86l.8.67c-.09-.14-2.61,10-5.65,13.88a67.66,67.66,0,0,1-22-.29c0-.6.34-1.33.37-1.93a117.09,117.09,0,0,0,21.1,0Z"/><path class="cls-39" d="M212,65.53a27.64,27.64,0,0,1,8.55,2.66c6.09,8.69,6.86,17.27,6.58,26.29s-2.45,17.87-4.66,26.65a34.26,34.26,0,0,1-8.35,1.12,36.38,36.38,0,0,0-3-12.2,142.09,142.09,0,0,0-14.59-.41C193,101,189.4,91.68,185.83,83c6.3,1,12.52.58,18.85-.11C207.8,77.61,210.77,71.53,212,65.53Z"/><path class="cls-40" d="M210.23,147c-1.91,8.78-5.5,18.77-11.22,25.7a35.24,35.24,0,0,1-13.73-.35A113.91,113.91,0,0,1,183.63,147c3.55-2,6.36-5.27,8.88-8.44a45.65,45.65,0,0,1,13.36-.31A22.32,22.32,0,0,1,210.23,147Z"/><path class="cls-11" d="M206.8,160.67c-1.62-.31-3.85-.71-5.24-.92l-.5-.07.17-.48a31.28,31.28,0,0,0,1.71-7.81,61.94,61.94,0,0,0-6.39-.25H194.9c-.28,1.37-.45,2.82-.62,4.23-.12,1.08-.25,2.19-.43,3.27l-.06.33L183,159.5l0-.83,10.16-.51c.15-.95.26-1.94.38-2.9a44.72,44.72,0,0,1,.69-4.64l.08-.33h.34l2,0a60.8,60.8,0,0,1,6.88.29l.4.05,0,.39a31.48,31.48,0,0,1-1.62,8c1.39.22,3.33.58,4.78.85Z"/><path class="cls-41" d="M193.22,172.26c1.63,0,3.31-.19,4.93-.21,5.6-7.54,10.14-16.63,11.52-25.8a18.83,18.83,0,0,0-3.84-7.34,96,96,0,0,0-12.23.2,17,17,0,0,1-8,7.73,17,17,0,0,0,10.23-4.44,28.6,28.6,0,0,1,8.66-.16,20.23,20.23,0,0,1,2.68,4.55,82.28,82.28,0,0,1-9.42,23.56C196.11,171,194.9,171.65,193.22,172.26Z"/><path class="cls-21" d="M156.09,229.84a29.38,29.38,0,0,1-11.72-4.3,172.45,172.45,0,0,1,7.21-22.26l-1-.07a58.64,58.64,0,0,0-10.36,21.11,31.42,31.42,0,0,0,3.46,6.44,47.82,47.82,0,0,0,12,2.74c2.89-1.89,5.71-5.26,6.28-8.68A28,28,0,0,1,156.09,229.84Z"/><path class="cls-11" d="M202.71,287a39.75,39.75,0,0,1-17.59-3,203.19,203.19,0,0,1,8.13-62.08,2.72,2.72,0,0,1,1.89-.19c.19,2.28,1.12,4.38,1.31,6.65a23.79,23.79,0,0,0,10.06,3.87,81.79,81.79,0,0,0-2.59-16.54,26.2,26.2,0,0,0-13.17,3.7c-7.29,24-14.66,48.83-12.41,73.86a80.57,80.57,0,0,0,25.71,2c3.45-5.21,6.84-15.08,8.63-20.77A110.94,110.94,0,0,0,202.71,287Z"/><path class="cls-42" d="M209.34,231.38c-1,.09-2.45.47-3.39.1a25.37,25.37,0,0,1-8.65-5.63,58.33,58.33,0,0,1,3.45-17.63,27.59,27.59,0,0,1,7.81-3.28C211.44,213,210.87,222.92,209.34,231.38Z"/><path class="cls-21" d="M209.34,231.38l.18-1c-2.71-2-5.16-4.23-7.82-6.48a92,92,0,0,1,1.75-17l-.13,0c-.9.44-1.76.92-2.57,1.37a58.33,58.33,0,0,0-3.45,17.63,25.37,25.37,0,0,0,8.65,5.63C206.89,231.85,208.33,231.47,209.34,231.38Z"/><path class="cls-43" d="M246.1,296.22a267.87,267.87,0,0,1-43.6-.83,57.2,57.2,0,0,1,11.05-25.06c4.38,3.59,8.64,7.87,13,11.46,0,0,12.39,4.6,18.86,5.08A26.45,26.45,0,0,1,246.1,296.22Z"/><path class="cls-11" d="M156.7,288.61l0-.55a271.23,271.23,0,0,0-4.8-31c-6.25-.75-12.9-1.17-19.33.63l-.22-.81c6.67-1.86,13.52-1.4,19.94-.62l.3,0,.06.29a272.68,272.68,0,0,1,4.83,30.88,20.35,20.35,0,0,0,5.75-3.42l.56.63a21.78,21.78,0,0,1-6.52,3.77Z"/><path class="cls-21" d="M147.11,314.26c-.08-.43-.15-.87-.23-1.25a43.37,43.37,0,0,1-11-2.37q.48-15.64,1.85-31.24l-.39,0a76.71,76.71,0,0,0-7.22,25.25s1.94,6.31,4.06,8.68C137.91,314.41,146.36,314.28,147.11,314.26Z"/><path class="cls-21" d="M246.1,296.22c0-.5.06-1,.08-1.51-8.37.85-16.9-1.55-24.39-5.41a9.07,9.07,0,0,1,1.91-4.65,40,40,0,0,1-6.12,3.78,44.49,44.49,0,0,1-10-8.58,62.42,62.42,0,0,0-5.1,15.54A267.87,267.87,0,0,0,246.1,296.22Z"/><path class="cls-21" d="M136.19,294.43a71.48,71.48,0,0,1,7.17-1.12,43.11,43.11,0,0,1,4.86-.18,33.54,33.54,0,0,0-4.84-.93,28.17,28.17,0,0,0-7.57,0Z"/><path class="cls-11" d="M189.13,276.9a21.64,21.64,0,0,1-4.38-.42l.17-.81a26.52,26.52,0,0,0,9.67-.11,72.37,72.37,0,0,1,3.1-22.73l.06-.18.17-.08a44.09,44.09,0,0,1,11.73-3.51l.12.83a43.6,43.6,0,0,0-11.33,3.36,70.85,70.85,0,0,0-3,22.64v.36l-.35.07A34,34,0,0,1,189.13,276.9Z"/><path class="cls-44" d="M163.47,298a386.77,386.77,0,0,1-3.41-63.36c-2.84,1.18-6.11,2.41-8.94,3.6-.23,21.73,1.71,43.26,7.65,62.79A24,24,0,0,0,163.47,298Z"/><path class="cls-45" d="M212.72,269.2A221.7,221.7,0,0,1,206,234a19.41,19.41,0,0,1-5.63-1.21,106.4,106.4,0,0,0,7.39,41.75c1.42-1.92,3.15-3.66,4.57-5.58C212.36,269.09,212.86,269.3,212.72,269.2Z"/><path class="cls-46" d="M174.45,31.47a105.13,105.13,0,0,1,25.9,3.58,34.74,34.74,0,0,1,.37,7.57,88.56,88.56,0,0,0-24.94,1.62A36.42,36.42,0,0,1,174.45,31.47Z"/><polygon class="cls-47" points="179.65 34.85 180.16 39.04 188.06 37.64 188.34 35.21 179.65 34.85"/><polygon class="cls-47" points="198.7 36.2 198.89 39.83 192.85 37.72 192.63 35.61 198.7 36.2"/><ellipse class="cls-11" cx="198.78" cy="95.42" rx="10.83" ry="12.73" transform="translate(-21.24 109.86) rotate(-29.4)"/><path class="cls-48" d="M200.74,106.56c-5.69,0-11-5.12-11.77-11.41s3.17-11.43,8.85-11.43,11,5.11,11.76,11.41S206.42,106.55,200.74,106.56Z"/><path class="cls-11" d="M207.91,95.07c.59,4.64-2.24,8.41-6.33,8.41s-7.88-3.76-8.47-8.39,2.24-8.41,6.33-8.41S207.32,90.43,207.91,95.07Z"/><path class="cls-49" d="M198.28,87.35a6.12,6.12,0,0,0-2.47.55,7.59,7.59,0,0,0-2.7,7.19c.59,4.63,4.39,8.39,8.47,8.39a6,6,0,0,0,2.48-.55,7.58,7.58,0,0,0,2.7-7.18C206.16,91.11,202.37,87.35,198.28,87.35Z"/><path class="cls-50" d="M201,96a8.82,8.82,0,0,0,5.11.65c0-.3,0-.6-.07-.9-.54-4.28-4-7.75-7.69-7.75a5.39,5.39,0,0,0-2.12.45,5.81,5.81,0,0,0-1.12,1.15C195.85,92.31,197.39,94.46,201,96Z"/></g></g></svg>