<svg xmlns="http://www.w3.org/2000/svg" xmlns:xlink="http://www.w3.org/1999/xlink" viewBox="0 0 340.16 340.16"><defs><style>.cls-1{isolation:isolate;}.cls-2{fill:#2a3e51;}.cls-3{fill:url(#_ÂÁ_Ï_ÌÌ_È_ËÂÌÚ_3);}.cls-4{fill:url(#_ÂÁ_Ï_ÌÌ_È_ËÂÌÚ_5);}.cls-5{fill:#d3d3d3;}.cls-6{fill:#99999a;}.cls-7{mix-blend-mode:screen;fill:url(#_ÂÁ_Ï_ÌÌ_È_ËÂÌÚ_40);}.cls-8{fill:gray;}.cls-9{fill:#e2f2ef;}.cls-10{fill:#efefef;}.cls-11{fill:url(#_ÂÁ_Ï_ÌÌ_È_ËÂÌÚ_3-2);}</style><linearGradient id="_ÂÁ_Ï_ÌÌ_È_ËÂÌÚ_3" x1="276.64" y1="141.74" x2="246.94" y2="156.5" gradientUnits="userSpaceOnUse"><stop offset="0" stop-color="#fff"/><stop offset="0.84" stop-color="#e8e7e7"/></linearGradient><linearGradient id="_ÂÁ_Ï_ÌÌ_È_ËÂÌÚ_5" x1="272.97" y1="115.19" x2="261.57" y2="163.75" gradientUnits="userSpaceOnUse"><stop offset="0" stop-color="#fff"/><stop offset="0.48" stop-color="#eee"/><stop offset="1" stop-color="#d7d7d7"/></linearGradient><linearGradient id="_ÂÁ_Ï_ÌÌ_È_ËÂÌÚ_40" x1="267.57" y1="114.99" x2="265.89" y2="176.26" gradientUnits="userSpaceOnUse"><stop offset="0.17" stop-color="#bdb48e"/><stop offset="0.26" stop-color="#b3ab87"/><stop offset="0.41" stop-color="#999273"/><stop offset="0.6" stop-color="#6e6953"/><stop offset="0.82" stop-color="#333126"/><stop offset="1"/></linearGradient><linearGradient id="_ÂÁ_Ï_ÌÌ_È_ËÂÌÚ_3-2" x1="-613.99" y1="2274.77" x2="-636.92" y2="2300.24" gradientTransform="translate(-585.56 -2031.42) rotate(-36)" xlink:href="#_ÂÁ_Ï_ÌÌ_È_ËÂÌÚ_3"/></defs><title>Advanced</title><g class="cls-1"><g id="Layer_1" data-name="Layer 1"><path class="cls-2" d="M258.74,132.74a201.72,201.72,0,0,0-6.9-43.48,25,25,0,0,0-12.47,2.95,148.26,148.26,0,0,1,6.09,36.44,19,19,0,0,0,9.41,6.29,4.45,4.45,0,0,0,2,.23A3.55,3.55,0,0,0,258.74,132.74Z"/><path class="cls-3" d="M267.41,176.84c1.53-6.88,1.94-14.15,4.28-20.81a47.19,47.19,0,0,0-3.41-37.84,23.88,23.88,0,0,0-11,1.9,22.4,22.4,0,0,1-1.16,14.16,10,10,0,0,1-6.23-4.69,27.65,27.65,0,0,1-3.27-7.37,24.24,24.24,0,0,0-14.14,13.89A49.69,49.69,0,0,0,241.25,157a153.14,153.14,0,0,1-.1,19.28c-.16,3.19,2.83,6.39,5.92,7.21s16.15-.19,17.5-1.14S267.05,178.45,267.41,176.84Z"/><path class="cls-4" d="M263.66,118.33A57.43,57.43,0,0,1,265.1,148a16,16,0,0,1,3.82,2.74,36.15,36.15,0,0,1-3.43,14.41l.36.25c1.14.77,2.08,1.62,3.2,2.23A67.09,67.09,0,0,1,271.69,156a47.19,47.19,0,0,0-3.41-37.84A20.21,20.21,0,0,0,263.66,118.33Z"/><path class="cls-5" d="M252.8,171.14a168.11,168.11,0,0,1,2.25-22.94,32.82,32.82,0,0,1-2.6-11.67,14.61,14.61,0,0,0,4.09-2.34c-.05-.19-.1-.4-.14-.61-.09.23-.16.45-.26.67a10,10,0,0,1-6.23-4.69,27.65,27.65,0,0,1-3.27-7.37,24.24,24.24,0,0,0-14.14,13.89A49.69,49.69,0,0,0,241.25,157a153.14,153.14,0,0,1-.1,19.28c-.16,3.19,2.83,6.39,5.92,7.21s16.15-.19,17.5-1.14a6.4,6.4,0,0,0,1.76-2.45A32.82,32.82,0,0,0,252.8,171.14Z"/><path class="cls-6" d="M241.68,166.11l-.27-.48a22.3,22.3,0,0,1,6.42-2.37c.12-1.93.25-3.92.37-5.91s.25-4,.38-6a33.84,33.84,0,0,1-6.26-10.1,23.64,23.64,0,0,0-7.31,3.43l-.31-.45a24.2,24.2,0,0,1,7.71-3.57l.24-.07.09.23a33.3,33.3,0,0,0,6.32,10.24l.08.09v.12c-.12,2-.25,4.06-.38,6.12s-.26,4.14-.39,6.13v.22l-.22,0A21.56,21.56,0,0,0,241.68,166.11Z"/><path class="cls-6" d="M269.21,167.91a7.73,7.73,0,0,1-3.88-2.23l-.22-.2.11-.27a40.2,40.2,0,0,0,3.27-13.85l0-.6a11.67,11.67,0,0,0-3.4-2.28l-.29-.13.05-.32a67.59,67.59,0,0,0-1.51-29.8l.79-.23a68.46,68.46,0,0,1,1.59,29.86,12.55,12.55,0,0,1,3.48,2.44l.13.13,0,1a41,41,0,0,1-3.22,13.86,6.67,6.67,0,0,0,3.22,1.83Z"/><path class="cls-7" d="M266.24,175.92c-1.5-1.11-3.12-2-4.62-3.09,2.45-7.92,3.22-16.38,3.5-24.66A88.46,88.46,0,0,0,261.75,121a13.49,13.49,0,0,1,5.9-1.42,46.62,46.62,0,0,1,2,36.91C268.54,162.74,267.62,169.72,266.24,175.92Z"/><path class="cls-5" d="M239.71,192.93c3.43.37,8.51,1.66,11.88,2.36,7.79-5.8,16.5-14.26,23-20.88a87.15,87.15,0,0,0-15.17-2.2Z"/><path class="cls-2" d="M251.69,176a7.57,7.57,0,0,1,3.36-2.52,36.11,36.11,0,0,1,11.47,8.35,20.21,20.21,0,0,1-3.55,13.5,30.4,30.4,0,0,1-11,9.21,45.63,45.63,0,0,1-7.3-10.68l.19,0c.57-.66,1-1.46,1.52-2.11-1.06-2.08-2-3.87-3-5.95A47.12,47.12,0,0,1,251.69,176Z"/><polygon class="cls-8" points="303.26 128.49 288.33 122.55 291.11 138.44 303.26 128.49"/><polygon class="cls-5" points="288.33 122.55 303.26 128.49 297.36 133.32 288.33 122.55"/><polygon class="cls-9" points="303.91 127.82 286.2 119.82 290.17 139.05 291.11 138.44 288.33 122.55 303.26 128.49 303.91 127.82"/><polygon class="cls-8" points="321.28 151.61 323.38 167.54 308.66 160.97 321.28 151.61"/><polygon class="cls-5" points="323.38 167.54 321.28 151.61 315.15 156.16 323.38 167.54"/><polygon class="cls-9" points="322.08 151.15 325.52 170.28 307.84 161.73 308.66 160.97 323.38 167.54 321.28 151.61 322.08 151.15"/><polygon class="cls-10" points="302.2 166.19 284.5 143.47 307.89 124.36 326.45 148.18 302.2 166.19"/><polygon class="cls-6" points="320.69 142.91 309.88 149.75 294.8 150.76 286.14 143.29 302.56 164.37 324.57 147.88 320.69 142.91"/><polygon class="cls-5" points="274.09 179.23 264.98 167.54 288.58 148.7 298.13 160.96 274.09 179.23"/><polygon class="cls-8" points="235.89 202.82 232.76 198.81 262.21 174.69 266.47 180.17 235.89 202.82"/><polygon class="cls-5" points="270.96 185.92 257.72 168.94 262.6 164.48 276.47 182.29 270.96 185.92"/><polygon class="cls-5" points="231.72 208.17 226.56 201.55 231.63 197.35 237.03 204.28 231.72 208.17"/><rect class="cls-9" x="299.14" y="137.94" width="13.91" height="13.91" transform="translate(592.01 326.4) rotate(-172.92)"/><rect class="cls-8" x="300.29" y="139.09" width="11.61" height="11.61" transform="translate(487.6 -141.02) rotate(97.08)"/><polygon class="cls-5" points="306.1 144.9 300.37 149.36 310.43 150.91 306.1 144.9"/><polygon class="cls-5" points="312.05 140.26 301.66 138.84 306.1 144.9 312.05 140.26"/><polygon class="cls-6" points="287.02 149.94 289.93 156.95 270.24 174.19 272.04 176.5 293.66 161.1 295.87 162.67 298.13 160.96 288.58 148.7 287.02 149.94"/><path class="cls-5" d="M245.94,191a10.59,10.59,0,0,0-4.47,4.54,32.57,32.57,0,0,0,7.13,12.65c.72-.25,2.13-.78,2.15-.75A19.85,19.85,0,0,0,258,203a74.46,74.46,0,0,0-9.62-12.26Z"/><path class="cls-5" d="M245.44,190.85a28.85,28.85,0,0,1,9.1-9.95c-.39-2.43-1.07-5.2-3-6.63l-2.59-.25a27.3,27.3,0,0,0-9.29,11.71,11.59,11.59,0,0,0,3.24,5.29Z"/><path class="cls-5" d="M251.28,184.25a15.52,15.52,0,0,0-2.08,2.21,5.53,5.53,0,0,0-1.27,2.74A44.57,44.57,0,0,0,260,200.77l1.86-.69a20.84,20.84,0,0,0,5.89-8.08c-3.85-3.52-8.93-6.84-14.09-7.83Z"/><path class="cls-11" d="M256.08,203.74a19.65,19.65,0,0,1-7.48,4.43,32.57,32.57,0,0,1-7.13-12.65,10.59,10.59,0,0,1,4.47-4.54A79.72,79.72,0,0,1,256.08,203.74Zm-4.8-19.49a15.52,15.52,0,0,0-2.08,2.21,5.53,5.53,0,0,0-1.27,2.74A44.57,44.57,0,0,0,260,200.77a20.57,20.57,0,0,0,6-8.25C261.94,188.84,256.63,185.35,251.28,184.25ZM248.92,174a27.3,27.3,0,0,0-9.29,11.71,11.59,11.59,0,0,0,3.24,5.29,28.72,28.72,0,0,1,9.28-10.13C251.71,178.39,251,175.52,248.92,174Z"/></g></g></svg>