<svg xmlns="http://www.w3.org/2000/svg" xmlns:xlink="http://www.w3.org/1999/xlink" viewBox="0 0 340.16 340.16"><defs><style>.cls-1{isolation:isolate;}.cls-2{fill:url(#_ÂÁ_Ï_ÌÌ_È_ËÂÌÚ_4);}.cls-10,.cls-17,.cls-23,.cls-3,.cls-6{mix-blend-mode:screen;}.cls-3{fill:url(#_ÂÁ_Ï_ÌÌ_È_ËÂÌÚ_171);}.cls-4{fill:#2a3e51;}.cls-5{fill:url(#_ÂÁ_Ï_ÌÌ_È_ËÂÌÚ_4-2);}.cls-6{fill:url(#_ÂÁ_Ï_ÌÌ_È_ËÂÌÚ_171-2);}.cls-7{fill:#4b6d73;}.cls-8{fill:#61c19a;}.cls-9{fill:url(#_ÂÁ_Ï_ÌÌ_È_ËÂÌÚ_86);}.cls-10{fill:#fff7cd;opacity:0.85;}.cls-11{fill:url(#_ÂÁ_Ï_ÌÌ_È_ËÂÌÚ_86-2);}.cls-12{fill:url(#_ÂÁ_Ï_ÌÌ_È_ËÂÌÚ_4-3);}.cls-13{fill:url(#_ÂÁ_Ï_ÌÌ_È_ËÂÌÚ_4-4);}.cls-14{fill:#d7d7d7;}.cls-15{fill:#fff;}.cls-16{fill:url(#_ÂÁ_Ï_ÌÌ_È_ËÂÌÚ_4-5);}.cls-17{fill:url(#_ÂÁ_Ï_ÌÌ_È_ËÂÌÚ_171-3);}.cls-18{fill:#c1c0c0;}.cls-19{fill:url(#_ÂÁ_Ï_ÌÌ_È_ËÂÌÚ_4-6);}.cls-20{fill:url(#_ÂÁ_Ï_ÌÌ_È_ËÂÌÚ_3);}.cls-21{fill:#477087;}.cls-22{fill:url(#_ÂÁ_Ï_ÌÌ_È_ËÂÌÚ_160);}.cls-23{fill:url(#_ÂÁ_Ï_ÌÌ_È_ËÂÌÚ_166);}</style><linearGradient id="_ÂÁ_Ï_ÌÌ_È_ËÂÌÚ_4" x1="243.98" y1="290.85" x2="254.86" y2="312.54" gradientUnits="userSpaceOnUse"><stop offset="0.04" stop-color="#fff"/><stop offset="0.3" stop-color="#fbfbfb"/><stop offset="0.55" stop-color="#efefef"/><stop offset="0.7" stop-color="#e5e5e4"/><stop offset="0.8" stop-color="#dfdfde"/><stop offset="1" stop-color="#d7d7d7"/></linearGradient><linearGradient id="_ÂÁ_Ï_ÌÌ_È_ËÂÌÚ_171" x1="249.39" y1="290.87" x2="249.83" y2="312.8" gradientUnits="userSpaceOnUse"><stop offset="0" stop-color="#c3bea9"/><stop offset="0.5" stop-color="#636156"/><stop offset="1"/></linearGradient><linearGradient id="_ÂÁ_Ï_ÌÌ_È_ËÂÌÚ_4-2" x1="269.86" y1="288.45" x2="258.98" y2="322.74" xlink:href="#_ÂÁ_Ï_ÌÌ_È_ËÂÌÚ_4"/><linearGradient id="_ÂÁ_Ï_ÌÌ_È_ËÂÌÚ_171-2" x1="265.1" y1="288.89" x2="267.71" y2="320.31" xlink:href="#_ÂÁ_Ï_ÌÌ_È_ËÂÌÚ_171"/><linearGradient id="_ÂÁ_Ï_ÌÌ_È_ËÂÌÚ_86" x1="2413.56" y1="826.74" x2="2416.81" y2="838.21" gradientTransform="matrix(-1, -0.09, -0.09, 1, 2787.26, -362.32)" gradientUnits="userSpaceOnUse"><stop offset="0" stop-color="#f3e9ca"/><stop offset="0.42" stop-color="#b6c0b0"/><stop offset="0.84" stop-color="#759595"/></linearGradient><linearGradient id="_ÂÁ_Ï_ÌÌ_È_ËÂÌÚ_86-2" x1="2518.36" y1="273.48" x2="2517.42" y2="252.12" gradientTransform="matrix(-1, 0, 0, 1, 2782.98, 0)" xlink:href="#_ÂÁ_Ï_ÌÌ_È_ËÂÌÚ_86"/><linearGradient id="_ÂÁ_Ï_ÌÌ_È_ËÂÌÚ_4-3" x1="268.76" y1="234.73" x2="286.78" y2="234.73" xlink:href="#_ÂÁ_Ï_ÌÌ_È_ËÂÌÚ_4"/><linearGradient id="_ÂÁ_Ï_ÌÌ_È_ËÂÌÚ_4-4" x1="246.45" y1="234.64" x2="276.4" y2="234.64" xlink:href="#_ÂÁ_Ï_ÌÌ_È_ËÂÌÚ_4"/><linearGradient id="_ÂÁ_Ï_ÌÌ_È_ËÂÌÚ_4-5" x1="299.05" y1="253.17" x2="284.35" y2="298.1" xlink:href="#_ÂÁ_Ï_ÌÌ_È_ËÂÌÚ_4"/><linearGradient id="_ÂÁ_Ï_ÌÌ_È_ËÂÌÚ_171-3" x1="302.01" y1="252.96" x2="292.44" y2="274.71" xlink:href="#_ÂÁ_Ï_ÌÌ_È_ËÂÌÚ_171"/><linearGradient id="_ÂÁ_Ï_ÌÌ_È_ËÂÌÚ_4-6" x1="450.39" y1="615.4" x2="456.9" y2="645.31" gradientTransform="translate(70.26 -428.53) rotate(16.81)" xlink:href="#_ÂÁ_Ï_ÌÌ_È_ËÂÌÚ_4"/><linearGradient id="_ÂÁ_Ï_ÌÌ_È_ËÂÌÚ_3" x1="450.6" y1="616.37" x2="453.52" y2="629.77" gradientTransform="translate(70.26 -428.53) rotate(16.81)" gradientUnits="userSpaceOnUse"><stop offset="0" stop-color="#fff"/><stop offset="0.84" stop-color="#e8e7e7"/></linearGradient><radialGradient id="_ÂÁ_Ï_ÌÌ_È_ËÂÌÚ_160" cx="1950.81" cy="209.33" r="12.92" gradientTransform="matrix(-1.25, 0, 0, 1.08, 2701.42, 3.67)" gradientUnits="userSpaceOnUse"><stop offset="0.01" stop-color="#22577e"/><stop offset="0.25" stop-color="#204f77"/><stop offset="0.63" stop-color="#1c3b62"/><stop offset="1" stop-color="#162048"/></radialGradient><linearGradient id="_ÂÁ_Ï_ÌÌ_È_ËÂÌÚ_166" x1="2656.36" y1="226.03" x2="2651.68" y2="233.73" gradientTransform="matrix(-1, 0, 0, 1, 2909, 0)" gradientUnits="userSpaceOnUse"><stop offset="0" stop-color="#848174"/><stop offset="0.73" stop-color="#252420"/><stop offset="1"/></linearGradient></defs><title>Advanced</title><g class="cls-1"><g id="Layer_1" data-name="Layer 1"><path class="cls-2" d="M260.61,294.41c-1.54,8.23-6.71,16.31-14.24,23a15.9,15.9,0,0,1-4-.09,34.77,34.77,0,0,1,4.25-25.39A27.46,27.46,0,0,1,260.61,294.41Z"/><path class="cls-3" d="M256.25,294.91a59.29,59.29,0,0,0-10.8,19.57c-.82,0-1.53,0-2.35.06a39.34,39.34,0,0,1,4.69-20.28A25.86,25.86,0,0,1,256.25,294.91Z"/><path class="cls-4" d="M282.58,286.67c-1.81,5.85-6.51,21.11-9.52,26.28a29.47,29.47,0,0,1-5.34-4,19,19,0,0,1,1.17-6.38,19.6,19.6,0,0,0,3.22,3c2.27-2.57,4.39-15.61,5.88-18.84C278.87,286.73,281.71,286.5,282.58,286.67Z"/><path class="cls-4" d="M267.51,288.2c-1.07,3.47-3.85,12.5-5.64,15.56a17.56,17.56,0,0,1-3.15-2.39,11.05,11.05,0,0,1,.69-3.77,12.63,12.63,0,0,0,1.9,1.76c1.35-1.53,2.6-9.25,3.48-11.16C265.32,288.24,267,288.1,267.51,288.2Z"/><path class="cls-5" d="M273.34,292c2,9.88-.06,20.16-5.07,29.42a35,35,0,0,1-8.85,0,39.32,39.32,0,0,1-.73-28.61A39.21,39.21,0,0,1,273.34,292Z"/><path class="cls-6" d="M267.85,320.35l-1.59,0a108.39,108.39,0,0,0,1.94-23.2c-3.24-.39-6.62-.72-9.86-1.11a10.63,10.63,0,0,1,.72-2.56,43.19,43.19,0,0,1,13.29-1C274,296.51,273.22,311.12,267.85,320.35Z"/><polygon class="cls-7" points="308.54 256.87 314.17 230.32 314.74 230.43 309.53 257.06 308.54 256.87"/><polygon class="cls-8" points="314.56 223.44 313.44 230.78 315.06 231.21 316.77 223.39 314.56 223.44"/><path class="cls-7" d="M303.13,261.21l2.07-4.88c.84-1.63,7.79-.61,8,.89l0,6.24Z"/><polygon class="cls-7" points="309.79 254 308.76 261.48 311.31 262.3 311.54 254.55 309.79 254"/><polygon class="cls-9" points="309.79 254 308.64 254.39 308.39 255.51 308.91 255.54 307.77 261.63 308.8 261.73 309.79 254"/><polygon class="cls-10" points="314.88 223.79 314.12 229.4 314.83 229.53 316.2 224.04 314.88 223.79"/><path class="cls-7" d="M260,248.56a63.53,63.53,0,0,1,6.68,8.37,96.51,96.51,0,0,1-6.77,8.08h6.51a34.06,34.06,0,0,0,7-8.2,63.74,63.74,0,0,0-5.12-8.35A57.74,57.74,0,0,0,260,248.56Z"/><path class="cls-11" d="M264.82,265h-4.93a96.51,96.51,0,0,0,6.77-8.08c-1.21-1.78-2.49-3.5-3.86-5.16a12.76,12.76,0,0,1,3.1-.14c1.53,2,3,4,4.53,6Z"/><path class="cls-12" d="M276.64,219.57c3.45,1.16,6.69,2.4,10.14,3.56a215,215,0,0,1-6.19,26.77H268.76q4.39-15,7.64-30.33Z"/><path class="cls-13" d="M246.45,221.28a132.11,132.11,0,0,1,29.95-1.71q-3.22,15.3-7.64,30.33h-16.3A104.4,104.4,0,0,1,246.45,221.28Z"/><path class="cls-14" d="M263.56,238.81c1.26.42,2.45.87,3.71,1.3A81.71,81.71,0,0,1,265,249.9h-4.33c1.07-3.66,2-7.36,2.79-11.09Z"/><path class="cls-15" d="M252.52,239.43a48.46,48.46,0,0,1,11-.62c-.78,3.73-1.72,7.43-2.79,11.09h-6A38.26,38.26,0,0,1,252.52,239.43Z"/><path class="cls-4" d="M249.62,220.28a19.81,19.81,0,0,1,5.45-3.35l1.18.84,1.29,4.24a11.35,11.35,0,0,0-4.83,1.91l-1.18-.84Z"/><path class="cls-4" d="M262.75,215.26a28.77,28.77,0,0,1,8.12,3.34s.78.59,1.18.84a34.77,34.77,0,0,1-2.36,4.2,21.24,21.24,0,0,0-6.06-2.1l-1.18-.84Z"/><path class="cls-14" d="M270.87,218.6a35.53,35.53,0,0,1-2.36,4.21,21.26,21.26,0,0,0-6.06-2.11l.3-5.44A28.77,28.77,0,0,1,270.87,218.6Zm-21.25,1.68,1.91,2.8a11.49,11.49,0,0,1,4.82-1.91l-1.28-4.24A19.81,19.81,0,0,0,249.62,220.28Z"/><path class="cls-14" d="M276.34,240.64c.74-3.57,1.48-7.35,2.21-10.91.37,0,.65-.14,1-.14-.54,3.94-1.27,7.83-2.18,11.63Z"/><path class="cls-16" d="M270,257.22h0c1.44,13.36,2.27,19.77,1.11,31.65l44.13-.24c3.47-10.3,4.5-15,4.41-26.74Z"/><path class="cls-17" d="M271.27,257.77l47.29,4.29c.51,7.89-1.12,17.33-3.56,26.43h-.91c1-8.47,1.52-17.2.47-24.39-10.25-1.69-26.35-3.75-43.29-5.86Z"/><path class="cls-18" d="M270,257.22h0l-24.41,5.14c3.58,11.28,5.15,15.93,7.14,26.51h18.38C272.23,277,271.4,270.58,270,257.22Z"/><path class="cls-4" d="M316.68,291.67a9.43,9.43,0,0,0-3.85-2.37,45.1,45.1,0,0,0-12.09-.49,57,57,0,0,1,1.92,7.5c-2.32.49-4.76.88-7.17,1.15a26.29,26.29,0,0,1-2.11-8.19,5.19,5.19,0,0,0-3.06-.43,26,26,0,0,0,2.23,12.26,55.88,55.88,0,0,0,10.68-.87,46.46,46.46,0,0,1,0,10.21,22.65,22.65,0,0,0,8.89,3.28C316.63,309.23,319.34,297.08,316.68,291.67Z"/><path class="cls-14" d="M320.87,292.4a19.88,19.88,0,0,0-9.14.28q1,12.94.78,25.95a35,35,0,0,0,6.28,2.16h0A67.41,67.41,0,0,0,320.87,292.4Z"/><path class="cls-4" d="M319,293.36a20.51,20.51,0,0,0-6.6.4,135.18,135.18,0,0,1,1.19,15.05l5.55,1.43A112.88,112.88,0,0,0,319,293.36Z"/><path class="cls-19" d="M324.29,308.18a27.82,27.82,0,0,0-.16-13.45,10.74,10.74,0,0,0-3.18-2.32h-.08a67.41,67.41,0,0,1-2.07,28.39,7.46,7.46,0,0,0,1.21.12A81,81,0,0,0,324.29,308.18Z"/><path class="cls-20" d="M324.74,305.52a26.3,26.3,0,0,0-.61-10.79,10.74,10.74,0,0,0-3.18-2.32h-.08a70.58,70.58,0,0,1,.6,11.9C322.55,304.69,323.66,305.12,324.74,305.52Z"/><path class="cls-4" d="M316.63,302.21a17.89,17.89,0,0,0-.23-2.89,26.15,26.15,0,0,0-3.18-.07c-2.61,2.41-9.25,5.91-12.36,6.87-3.4-2.52-5-7.06-6.77-10.5-.35.19-.63.3-1,.49,1.68,4.18,3.44,9.63,7.31,12.4C303.6,308.21,313,305.1,316.63,302.21Z"/><path class="cls-21" d="M314.77,302.38l0-2.58a91.41,91.41,0,0,1-12.12,5.94l.24,1.17A45.4,45.4,0,0,0,314.77,302.38Z"/><path class="cls-15" d="M253.85,274.11l.3.12.06.4a57.77,57.77,0,0,0,2.22,8.8,22,22,0,0,0,5.91,0c.33-3.25.77-6.31,1.31-9.09l.08-.4.31-.1c2.53-.82,4.54-4.86,7-5.87,0,.5.17,1.4.13,1.9-2.28.9-4.3,4.44-6.6,5.2-.53,2.78-.95,5.82-1.26,9.07l-.05.53-.42.06a23.25,23.25,0,0,1-3.42.25,20.24,20.24,0,0,1-3.47-.28l-.3-.05-.12-.36a59.11,59.11,0,0,1-2.34-9q-2.11-.89-4.27-2c-.08-.54-.51-1.4-.58-1.93C250.1,272.27,252.18,273.42,253.85,274.11Z"/><path class="cls-22" d="M260.83,223.82h.5a9.36,9.36,0,0,1,4.05.92,12.21,12.21,0,0,1,5.49,10.63c0,7.08-5,13.1-11.19,13.42h-.5a9.23,9.23,0,0,1-4-.93,10.51,10.51,0,0,1-2.27-1.87,12.84,12.84,0,0,1-3.23-8.74C249.65,230.17,254.67,224.14,260.83,223.82Z"/><path class="cls-23" d="M250.14,237.25c0-6.87,4.81-12.7,10.72-13"/><path class="cls-14" d="M261.15,234.28a2.08,2.08,0,0,0,2,2.58,3,3,0,0,0,2.73-2.58"/><path class="cls-14" d="M258.27,233.74a2.76,2.76,0,0,1-2.59,3.43,4,4,0,0,1-3.62-3.43,2.74,2.74,0,0,1,2.58-3.42A4,4,0,0,1,258.27,233.74Z"/></g></g></svg>