<svg xmlns="http://www.w3.org/2000/svg" xmlns:xlink="http://www.w3.org/1999/xlink" viewBox="0 0 340.16 340.16"><defs><style>.cls-1{isolation:isolate;}.cls-2{fill:#2a3e51;}.cls-3{fill:url(#_ÂÁ_Ï_ÌÌ_È_ËÂÌÚ_3);}.cls-10,.cls-11,.cls-12,.cls-22,.cls-23,.cls-4,.cls-8,.cls-9{mix-blend-mode:screen;}.cls-4{fill:url(#_ÂÁ_Ï_ÌÌ_È_ËÂÌÚ_40);}.cls-5{fill:#262626;}.cls-6{fill:#545554;}.cls-7{fill:#99999a;}.cls-8{fill:url(#_ÂÁ_Ï_ÌÌ_È_ËÂÌÚ_40-2);}.cls-9{fill:#fff;}.cls-10{fill:url(#_ÂÁ_Ï_ÌÌ_È_ËÂÌÚ_40-3);}.cls-11{fill:url(#_ÂÁ_Ï_ÌÌ_È_ËÂÌÚ_40-4);}.cls-12{fill:url(#_ÂÁ_Ï_ÌÌ_È_ËÂÌÚ_40-5);}.cls-13{fill:url(#_ÂÁ_Ï_ÌÌ_È_ËÂÌÚ_3-2);}.cls-14{fill:#d3d3d3;}.cls-15{fill:#d7d7d7;}.cls-16{fill:url(#_ÂÁ_Ï_ÌÌ_È_ËÂÌÚ_5);}.cls-17{fill:url(#_ÂÁ_Ï_ÌÌ_È_ËÂÌÚ_3-3);}.cls-18{fill:url(#_ÂÁ_Ï_ÌÌ_È_ËÂÌÚ_3-4);}.cls-19{fill:url(#_ÂÁ_Ï_ÌÌ_È_ËÂÌÚ_3-5);}.cls-20{fill:#c62026;}.cls-21{fill:url(#_ÂÁ_Ï_ÌÌ_È_ËÂÌÚ_3-6);}.cls-22{fill:url(#_ÂÁ_Ï_ÌÌ_È_ËÂÌÚ_40-6);}.cls-23{fill:url(#_ÂÁ_Ï_ÌÌ_È_ËÂÌÚ_40-7);}</style><linearGradient id="_ÂÁ_Ï_ÌÌ_È_ËÂÌÚ_3" x1="2363.53" y1="2602.09" x2="2344.79" y2="2614.44" gradientTransform="translate(-2399.01 2479.41) rotate(-90.52)" gradientUnits="userSpaceOnUse"><stop offset="0" stop-color="#fff"/><stop offset="0.84" stop-color="#e8e7e7"/></linearGradient><linearGradient id="_ÂÁ_Ï_ÌÌ_È_ËÂÌÚ_40" x1="2357.75" y1="2585.2" x2="2351.03" y2="2616.05" gradientTransform="translate(-2399.01 2479.41) rotate(-90.52)" gradientUnits="userSpaceOnUse"><stop offset="0.17" stop-color="#bdb48e"/><stop offset="0.26" stop-color="#b3ab87"/><stop offset="0.41" stop-color="#999273"/><stop offset="0.6" stop-color="#6e6953"/><stop offset="0.82" stop-color="#333126"/><stop offset="1"/></linearGradient><linearGradient id="_ÂÁ_Ï_ÌÌ_È_ËÂÌÚ_40-2" x1="-6823.59" y1="617.51" x2="-6852.96" y2="629.8" gradientTransform="translate(6594.69 2632.1) rotate(26.81)" xlink:href="#_ÂÁ_Ï_ÌÌ_È_ËÂÌÚ_40"/><linearGradient id="_ÂÁ_Ï_ÌÌ_È_ËÂÌÚ_40-3" x1="-6837.88" y1="610.24" x2="-6859.93" y2="615.27" gradientTransform="translate(6594.69 2632.1) rotate(26.81)" xlink:href="#_ÂÁ_Ï_ÌÌ_È_ËÂÌÚ_40"/><linearGradient id="_ÂÁ_Ï_ÌÌ_È_ËÂÌÚ_40-4" x1="-6782.15" y1="597.23" x2="-6831.03" y2="617.68" gradientTransform="translate(6594.69 2632.1) rotate(26.81)" xlink:href="#_ÂÁ_Ï_ÌÌ_È_ËÂÌÚ_40"/><linearGradient id="_ÂÁ_Ï_ÌÌ_È_ËÂÌÚ_40-5" x1="-6783.11" y1="606.05" x2="-6826.56" y2="624.23" gradientTransform="translate(6594.69 2632.1) rotate(26.81)" xlink:href="#_ÂÁ_Ï_ÌÌ_È_ËÂÌÚ_40"/><linearGradient id="_ÂÁ_Ï_ÌÌ_È_ËÂÌÚ_3-2" x1="2344.17" y1="2524.1" x2="2308.12" y2="2559.87" xlink:href="#_ÂÁ_Ï_ÌÌ_È_ËÂÌÚ_3"/><linearGradient id="_ÂÁ_Ï_ÌÌ_È_ËÂÌÚ_5" x1="2320.57" y1="2503.93" x2="2309.5" y2="2560.99" gradientTransform="translate(-2399.01 2479.41) rotate(-90.52)" gradientUnits="userSpaceOnUse"><stop offset="0" stop-color="#fff"/><stop offset="0.48" stop-color="#eee"/><stop offset="1" stop-color="#d7d7d7"/></linearGradient><linearGradient id="_ÂÁ_Ï_ÌÌ_È_ËÂÌÚ_3-3" x1="2310.08" y1="2630.2" x2="2318.25" y2="2630.2" xlink:href="#_ÂÁ_Ï_ÌÌ_È_ËÂÌÚ_3"/><linearGradient id="_ÂÁ_Ï_ÌÌ_È_ËÂÌÚ_3-4" x1="2323" y1="2628.03" x2="2334.24" y2="2628.03" xlink:href="#_ÂÁ_Ï_ÌÌ_È_ËÂÌÚ_3"/><linearGradient id="_ÂÁ_Ï_ÌÌ_È_ËÂÌÚ_3-5" x1="2351.69" y1="2587.14" x2="2332.95" y2="2599.49" xlink:href="#_ÂÁ_Ï_ÌÌ_È_ËÂÌÚ_3"/><linearGradient id="_ÂÁ_Ï_ÌÌ_È_ËÂÌÚ_3-6" x1="2334.04" y1="2597.15" x2="2307.64" y2="2610.21" xlink:href="#_ÂÁ_Ï_ÌÌ_È_ËÂÌÚ_3"/><linearGradient id="_ÂÁ_Ï_ÌÌ_È_ËÂÌÚ_40-6" x1="2342.4" y1="2518.89" x2="2333.73" y2="2579.13" xlink:href="#_ÂÁ_Ï_ÌÌ_È_ËÂÌÚ_40"/><linearGradient id="_ÂÁ_Ï_ÌÌ_È_ËÂÌÚ_40-7" x1="2346.55" y1="2582.61" x2="2341.16" y2="2602.96" xlink:href="#_ÂÁ_Ï_ÌÌ_È_ËÂÌÚ_40"/></defs><title>Advanced</title><g class="cls-1"><g id="Layer_1" data-name="Layer 1"><path class="cls-2" d="M173.1,112.71a16.94,16.94,0,0,0,8.58-4.33c-.07,0,.36,0,.29.08,3,.24,6.83,1.49,10.25,2.08a9.13,9.13,0,0,0,.35-5.6,24,24,0,0,0-11.22-2,58.38,58.38,0,0,1-9.2,5.76A5.69,5.69,0,0,0,173.1,112.71Z"/><path class="cls-3" d="M182.38,99.71a24.42,24.42,0,0,1,15.39,5,14.26,14.26,0,0,1,.31,3.63,69.85,69.85,0,0,1-16.22-3.67A10.89,10.89,0,0,1,182.38,99.71Z"/><path class="cls-4" d="M183.05,100.32a23.73,23.73,0,0,1,11.29,3.17,19.41,19.41,0,0,0-9.18-.4c-.21.48-.43,1-.64,1.43a4.61,4.61,0,0,0-2.1-.45A8.3,8.3,0,0,1,183.05,100.32Z"/><path class="cls-2" d="M184.51,148.39a29.9,29.9,0,0,1-12.12-1.07c-.06.66-.22,1.37-.3,2.05,8.45,3.76,18.47,1.92,27-.71-.33-1.37-.54-2.77-.89-4.14A45.42,45.42,0,0,1,184.51,148.39Z"/><path class="cls-5" d="M198.53,120.71c9.41-.09,18.83-.18,28.25-.17-.15-6.71-.2-13.42-.23-20.14q-16.91,1.26-33.79,2.71a64.81,64.81,0,0,1-3.15,14.38,93.49,93.49,0,0,1-9.57,3.75,176.84,176.84,0,0,0-7.65,26.08,29.9,29.9,0,0,0,12.12,1.07,45.42,45.42,0,0,0,13.7-3.87C197,136.47,196.76,128.69,198.53,120.71Z"/><path class="cls-2" d="M228.93,94c-12.73.73-25.45,1.58-38.17,2.45q-.64-2.7-1.27-5.4c13.2-.61,26.4-1.11,39.6-1.65C229,90.92,229,92.46,228.93,94Z"/><path class="cls-6" d="M204.24,101l-2.19-4.66q7.37-.45,14.72-.85c-.2,1.44-.39,2.89-.59,4.34C212.2,100.23,208.22,100.61,204.24,101Z"/><path class="cls-7" d="M198.55,100.83a93.7,93.7,0,0,0,5,21.45c6.07.13,12.11-.14,18.16-.61.56-7.55.87-15.09.91-22.66A132.14,132.14,0,0,0,198.55,100.83Z"/><path class="cls-8" d="M199.18,101.34c.47,2.82.95,5.63,1.44,8.45q10.69-.24,21.38-.39,0-5,0-10A217.47,217.47,0,0,0,199.18,101.34Z"/><path class="cls-2" d="M219.35,112.85q-7.95-.07-15.89-.13c-.27-1.2-.53-2.41-.76-3.62,5.49-.62,11-1.25,16.48-1.82C219.28,109.14,219.34,111,219.35,112.85Zm-.39-8.56c-.1-1.1-.21-2.2-.35-3.29q-8.4.65-16.79,1.35.12,1.44.3,2.88Q210.53,104.72,219,104.29Zm-14.52,12.27c.36,1.24.74,2.47,1.16,3.69q6.77-.18,13.53-.31c.07-1.36.13-2.71.17-4.07Q211.88,116.2,204.44,116.56Z"/><path class="cls-9" d="M206.08,118.92c-.23-.66-.45-1.32-.66-2l13.05-.62q0,1.16-.12,2.31C214.26,118.71,210.17,118.8,206.08,118.92Zm-2-7.06c-.14-.66-.29-1.32-.43-2q7.43-.83,14.83-1.59c.06,1.21.09,2.43.1,3.64Q211.32,111.88,204.06,111.86Zm-1.22-7.09c-.05-.4-.09-.81-.13-1.22q7.64-.63,15.26-1.21c.06.53.12,1,.17,1.58Q210.49,104.31,202.84,104.77Z"/><path class="cls-7" d="M226.56,102.68c13.6-.31,27.21-.28,40.81-.6q-.58,3.44-1.15,6.87c-13.19.79-26.39,1.29-39.57,2.08C226.63,108.25,226.57,105.46,226.56,102.68Z"/><path class="cls-2" d="M250.58,102.37c.16-.75.33-1.51.5-2.27,4.27-.94,8.54-1.92,12.81-2.88.19,1.64.38,3.28.58,4.93C259.84,102.26,255.21,102.32,250.58,102.37Z"/><path class="cls-7" d="M228.65,117.74c.1,0,29.28-2.15,33.43-2.45,1.47-2.14.65-4.1,1.26-6.17-12.31.72-24.37,1.17-36.77,1.92C228,113.22,224.13,115.81,228.65,117.74Z"/><path class="cls-7" d="M219.28,96.34q-10.67.75-21.33,1.58c-.53-3.07-1.06-6.14-1.56-9.22,7.62-.35,15.24-.7,22.85-1Q219.26,92,219.28,96.34Z"/><path class="cls-10" d="M197.19,89.4c.35,1.28.7,2.56,1.06,3.84q9.92-.17,19.83-.27c.1-1.6.21-3.2.31-4.81Q207.79,88.76,197.19,89.4Z"/><path class="cls-11" d="M227.29,103.15c.07,1,.13,1.95.21,2.92,12.79-.4,25.59-.53,38.38-1,.12-.77.25-1.54.38-2.31C253.27,103,240.28,102.94,227.29,103.15Z"/><path class="cls-12" d="M227.36,111.74c11.58-.71,23.18-1.17,34.76-1.85-.11.57-.22,1.15-.32,1.72-11.32.94-22.66,1.69-34,2.66C227.67,113.43,227.52,112.58,227.36,111.74Z"/><path class="cls-6" d="M226.61,106.89l.48.93c13.1-.4,26.21-.5,39.32-.91l-.06,1.22c-13.26.61-26.53.92-39.8,1.54C226.57,108.74,226.6,107.82,226.61,106.89Z"/><path class="cls-6" d="M226.69,115.69c12.05-.86,24.11-1.5,36.16-2.32-.05.42-.09.84-.14,1.26-12,.89-24,1.61-36,2.55C226.66,116.68,226.68,116.19,226.69,115.69Z"/><path class="cls-2" d="M201.36,120.68c.19,3.4.43,6.8.65,10.2l-4.83.13a48.87,48.87,0,0,1,1.35-10.3Z"/><path class="cls-2" d="M157.59,119.12c4.88-2.69,9.62-5.41,14.51-8.1a36.85,36.85,0,0,1,5.71,33.47,45.48,45.48,0,0,1-11.64.9C161.21,137.61,157.67,128.34,157.59,119.12Zm34.3,24.25a60,60,0,0,1,11.49,5.12,55.7,55.7,0,0,0,9.35-4.21c.93-.54,2.32-1,2.39-2.16.08-1.41-1-3.19-1.92-4.2a44.77,44.77,0,0,1-9.33,1.89A25.12,25.12,0,0,0,190.5,138C190.55,139.8,191.38,141.65,191.89,143.37Zm-1.5-10.77a60.06,60.06,0,0,1,12.3,2.64,55,55,0,0,0,8.28-6.05c.8-.71,2.07-1.43,1.89-2.6-.21-1.4-1.67-2.91-2.74-3.71a45.4,45.4,0,0,1-8.74,3.77,25.12,25.12,0,0,0-13.46,1A21.88,21.88,0,0,0,190.39,132.6Z"/><path class="cls-13" d="M160.41,115.08a113.44,113.44,0,0,1-28.93,2.57c-7.24-4.83-17-8.78-25.37-6.35-3.74,1.09-7.84,5-9.4,8.55a78.72,78.72,0,0,0,11.89,1.33c0,3.63.65,4.71-3.42,7.43-.06.27-13.62-2.2-13.56-2.46-1,1.09-2.36,2.62-3.39,3.72a35.63,35.63,0,0,0,5.92,26.55c8.45,3.16,17.24,6.31,26.23,5.62,7.24-.54,14-3.54,20.86-6,8.58-3.09,19.09-7,28.09-8.43a102.62,102.62,0,0,0-4.79-23.93C163.54,120.72,161.66,118,160.41,115.08Z"/><path class="cls-14" d="M169.33,147.62a102.62,102.62,0,0,0-4.79-23.93,39.09,39.09,0,0,0-2.68-5.68A37,37,0,0,1,164,133.3a86.69,86.69,0,0,1-14.55,3.7c2.51,4.17,4.45,9.72,4.35,14.66A105.7,105.7,0,0,1,169.33,147.62Z"/><path class="cls-15" d="M125.05,141.72a31.43,31.43,0,0,1-3.38-8.75,72.58,72.58,0,0,1-33.53-2.56,35.71,35.71,0,0,0,6,26c8.45,3.16,17.24,6.31,26.23,5.62,7.24-.54,14-3.54,20.86-6,3.7-1.34,7.78-2.81,11.93-4.19a26,26,0,0,0-3.64-14.67A68.53,68.53,0,0,0,125.05,141.72Z"/><path class="cls-16" d="M88.14,130.41a35.23,35.23,0,0,0,1.69,17.64c10,3.25,21,1.64,31.18-1.34,9.64-2.85,19-6.88,28.76-9.09l-.24-.43a68.53,68.53,0,0,0-24.48,4.53,31.43,31.43,0,0,1-3.38-8.75A72.58,72.58,0,0,1,88.14,130.41Z"/><path class="cls-14" d="M168.28,126.59a1.8,1.8,0,0,0,.08.35,80.4,80.4,0,0,1,3.94,19.8,41.19,41.19,0,0,0,17.82,1.5A88.59,88.59,0,0,0,187,128.19C180.62,127.72,174.76,127.29,168.28,126.59Z"/><path class="cls-17" d="M217.72,137.23c-4.76,1.81-9.6,3.43-14.45,5-.42,1-1.26,2.23-1.25,3.33a89.42,89.42,0,0,0,16-8Z"/><path class="cls-14" d="M202,145.54a1.94,1.94,0,0,0,0,.34,13.83,13.83,0,0,0,4,7A28.92,28.92,0,0,0,220,141a10,10,0,0,0-2.06-3.54A89.42,89.42,0,0,1,202,145.54Z"/><path class="cls-18" d="M214.4,121.27c-4.29,2.75-8.69,5.33-13.11,7.85-.21,1.08-.78,2.44-.55,3.52a90.55,90.55,0,0,0,14-11.17C214.6,121.4,214.5,121.32,214.4,121.27Z"/><path class="cls-14" d="M200.74,132.64a1.7,1.7,0,0,0,.1.32,13.83,13.83,0,0,0,5.31,6.08,28.93,28.93,0,0,0,11.3-14.54,10.19,10.19,0,0,0-2.74-3A90.55,90.55,0,0,1,200.74,132.64Z"/><path class="cls-19" d="M175.29,106.28a19.67,19.67,0,0,1,5.81,14.53,30.68,30.68,0,0,1-11.38-.42,17,17,0,0,1-3.3-7.19C168.34,110.15,172,107.82,175.29,106.28Z"/><path class="cls-14" d="M141.6,124.19l.26,0a68.93,68.93,0,0,0,21.92-2.4c-.11-.25-.23-.51-.35-.76a68.34,68.34,0,0,1-21.26,2.34,26.12,26.12,0,0,1-1.65-5.75l-.83,0A27.65,27.65,0,0,0,141.5,124Z"/><path class="cls-7" d="M149.56,136.66h-.22a71.08,71.08,0,0,0-24.08,4.5,33.14,33.14,0,0,1-2.86-8.49l-.08-.43-.42.09a63.76,63.76,0,0,1-33.7-2.25c0,.28-.09.56-.14.84a64.6,64.6,0,0,0,33.59,2.31,34.86,34.86,0,0,0,3,8.63l.16.35.36-.14a70.3,70.3,0,0,1,23.94-4.57,19.94,19.94,0,0,1,3.62,14.5l.92-.3a18.37,18.37,0,0,0,.17-2.68,21.05,21.05,0,0,0-4.17-12.19Z"/><path class="cls-7" d="M99.14,140a34.44,34.44,0,0,0,2.25,8.25A10.46,10.46,0,0,1,95.12,147a29.06,29.06,0,0,1-1.91-7.59C94.92,139.72,97.37,139.89,99.14,140Z"/><path class="cls-20" d="M98.69,140.59a27.64,27.64,0,0,0,1.53,6.16,6.5,6.5,0,0,1-4.24-.94,23.92,23.92,0,0,1-1.29-5.67C95.85,140.37,97.5,140.49,98.69,140.59Z"/><path class="cls-7" d="M153.06,147c-5.58.44-11,2.31-16.25,4.12l-3.34,1.14c-6,2-13.11,3.88-19.93,2.72-.79,2-1.62,4.53-1.4,6.61l-.55.06c-.24-2.27.68-5,1.52-7.09l.08-.21.23,0c6.76,1.23,13.84-.66,19.87-2.66l3.34-1.14c5.28-1.82,10.74-3.7,16.39-4.15Z"/><path class="cls-7" d="M187.08,128.69a87.58,87.58,0,0,1,3,19.55l.4-.05c.62-.88,1.65-1.58,2.27-2.47a58.89,58.89,0,0,0-3-20.38l-.34-.06A38.17,38.17,0,0,1,187.08,128.69Z"/><path class="cls-21" d="M169.45,121.68c-.7.78-1.1,3.4-1.17,4.91,6.48.7,12.34,1.13,18.67,1.6.05.17.08.33.13.5a38.17,38.17,0,0,0,2.35-3.41C182.9,124.25,176,122.69,169.45,121.68Z"/><path class="cls-22" d="M99.78,117.81c3.29-4.55,9.56-6.13,15.1-5.25s10.51,3.82,15.23,6.86a191.09,191.09,0,0,0,29.47-1.77c.39,1,.78,2.37,1.17,3.35a76,76,0,0,1-32.53,1.9c-5.48-4.94-14.24-6.54-21.33-4.48C104.8,119,102,117.85,99.78,117.81Z"/><path class="cls-23" d="M175.13,107.6a27.94,27.94,0,0,0-7.46,5.78,9.52,9.52,0,0,0,1.71,3.07,44.55,44.55,0,0,1,9-4.31c.12-.1,0-.34-.14-.31a.18.18,0,0,0,0,.34A32.67,32.67,0,0,0,175.13,107.6Z"/></g></g></svg>