<svg xmlns="http://www.w3.org/2000/svg" xmlns:xlink="http://www.w3.org/1999/xlink" viewBox="0 0 340.16 340.16"><defs><style>.cls-1{isolation:isolate;}.cls-2{fill:#2a3e51;}.cls-3{fill:url(#_ÂÁ_Ï_ÌÌ_È_ËÂÌÚ_3);}.cls-4{fill:#d3d3d3;}.cls-5{fill:#d7d7d7;}.cls-6{fill:url(#_ÂÁ_Ï_ÌÌ_È_ËÂÌÚ_5);}.cls-7{fill:url(#_ÂÁ_Ï_ÌÌ_È_ËÂÌÚ_3-2);}.cls-8{fill:url(#_ÂÁ_Ï_ÌÌ_È_ËÂÌÚ_3-3);}.cls-9{fill:#99999a;}.cls-10{fill:url(#_ÂÁ_Ï_ÌÌ_È_ËÂÌÚ_3-4);}.cls-11,.cls-12,.cls-13{mix-blend-mode:screen;}.cls-11{fill:url(#_ÂÁ_Ï_ÌÌ_È_ËÂÌÚ_40);}.cls-12{fill:url(#_ÂÁ_Ï_ÌÌ_È_ËÂÌÚ_40-2);}.cls-13{fill:url(#_ÂÁ_Ï_ÌÌ_È_ËÂÌÚ_40-3);}.cls-14{fill:#13181d;}.cls-15{fill:#2d353a;}.cls-16{fill:url(#_ÂÁ_Ï_ÌÌ_È_ËÂÌÚ_4);}.cls-17{fill:url(#_ÂÁ_Ï_ÌÌ_È_ËÂÌÚ_4-2);}.cls-18{fill:#bbbdbf;}.cls-19{fill:#d0d2d3;}.cls-20{fill:#a6a8ab;}.cls-21{fill:#acb5b9;}.cls-22{fill:#858a91;}.cls-23{fill:#666;}</style><linearGradient id="_ÂÁ_Ï_ÌÌ_È_ËÂÌÚ_3" x1="112.99" y1="118.93" x2="76.94" y2="154.7" gradientUnits="userSpaceOnUse"><stop offset="0" stop-color="#fff"/><stop offset="0.84" stop-color="#e8e7e7"/></linearGradient><linearGradient id="_ÂÁ_Ï_ÌÌ_È_ËÂÌÚ_5" x1="89.39" y1="98.76" x2="78.32" y2="155.82" gradientUnits="userSpaceOnUse"><stop offset="0" stop-color="#fff"/><stop offset="0.48" stop-color="#eee"/><stop offset="1" stop-color="#d7d7d7"/></linearGradient><linearGradient id="_ÂÁ_Ï_ÌÌ_È_ËÂÌÚ_3-2" x1="120.5" y1="181.97" x2="101.77" y2="194.32" xlink:href="#_ÂÁ_Ï_ÌÌ_È_ËÂÌÚ_3"/><linearGradient id="_ÂÁ_Ï_ÌÌ_È_ËÂÌÚ_3-3" x1="131.68" y1="198.93" x2="112.95" y2="211.28" xlink:href="#_ÂÁ_Ï_ÌÌ_È_ËÂÌÚ_3"/><linearGradient id="_ÂÁ_Ï_ÌÌ_È_ËÂÌÚ_3-4" x1="102.86" y1="191.98" x2="76.46" y2="205.04" xlink:href="#_ÂÁ_Ï_ÌÌ_È_ËÂÌÚ_3"/><linearGradient id="_ÂÁ_Ï_ÌÌ_È_ËÂÌÚ_40" x1="111.22" y1="113.72" x2="102.55" y2="173.96" gradientUnits="userSpaceOnUse"><stop offset="0.17" stop-color="#bdb48e"/><stop offset="0.26" stop-color="#b3ab87"/><stop offset="0.41" stop-color="#999273"/><stop offset="0.6" stop-color="#6e6953"/><stop offset="0.82" stop-color="#333126"/><stop offset="1"/></linearGradient><linearGradient id="_ÂÁ_Ï_ÌÌ_È_ËÂÌÚ_40-2" x1="115.37" y1="177.44" x2="109.97" y2="197.79" xlink:href="#_ÂÁ_Ï_ÌÌ_È_ËÂÌÚ_40"/><linearGradient id="_ÂÁ_Ï_ÌÌ_È_ËÂÌÚ_40-3" x1="125.91" y1="182.04" x2="119.19" y2="212.89" xlink:href="#_ÂÁ_Ï_ÌÌ_È_ËÂÌÚ_40"/><linearGradient id="_ÂÁ_Ï_ÌÌ_È_ËÂÌÚ_4" x1="475.57" y1="245.75" x2="467.87" y2="259.55" gradientTransform="translate(-427.9 51.69) rotate(-10.23)" gradientUnits="userSpaceOnUse"><stop offset="0.04" stop-color="#fff"/><stop offset="0.3" stop-color="#fbfbfb"/><stop offset="0.55" stop-color="#efefef"/><stop offset="0.7" stop-color="#e5e5e4"/><stop offset="0.8" stop-color="#dfdfde"/><stop offset="1" stop-color="#d7d7d7"/></linearGradient><linearGradient id="_ÂÁ_Ï_ÌÌ_È_ËÂÌÚ_4-2" x1="487.27" y1="247.93" x2="482.85" y2="261.58" xlink:href="#_ÂÁ_Ï_ÌÌ_È_ËÂÌÚ_4"/></defs><title>Advanced</title><g class="cls-1"><g id="Layer_1" data-name="Layer 1"><path class="cls-2" d="M105.73,172.82c2.64,4.91,5.32,9.68,8,14.59a36.84,36.84,0,0,1-33.52,5.41,46.06,46.06,0,0,1-.8-11.66C87.2,176.28,96.5,172.82,105.73,172.82Z"/><path class="cls-2" d="M109.66,192.6a17.1,17.1,0,0,0,4.26,8.63c0-.08,0,.36-.08.28-.27,3-1.56,6.81-2.18,10.23a9.11,9.11,0,0,0,5.59.4,24,24,0,0,0,2.12-11.2,57.66,57.66,0,0,1-5.68-9.25A5.66,5.66,0,0,0,109.66,192.6Z"/><path class="cls-3" d="M109.74,175.68a113,113,0,0,1-2.3-29c4.89-7.2,8.93-16.94,6.57-25.31-1.05-3.75-4.91-7.89-8.46-9.48,0,.1-1.22,7.9-1.46,14.59-3.65,2.55-5.36,1.66-8-2.43a42.62,42.62,0,0,1,3.25-17.3c-1.09-1-2.6-2.38-3.69-3.43A35.62,35.62,0,0,0,69,109.05c-3.23,8.42-6.46,17.18-5.86,26.18.48,7.24,3.41,14.05,5.81,20.91,3,8.6,6.81,19.16,8.17,28.17a102.82,102.82,0,0,0,24-4.58C104.07,178.76,106.85,176.91,109.74,175.68Z"/><path class="cls-4" d="M77.12,184.31a102.82,102.82,0,0,0,24-4.58,39,39,0,0,0,5.7-2.63,37,37,0,0,1-15.3,2,86.18,86.18,0,0,1-3.57-14.58c-4.19,2.46-9.76,4.36-14.7,4.21A106.68,106.68,0,0,1,77.12,184.31Z"/><path class="cls-5" d="M83.42,140.08a32,32,0,0,1,8.78-3.3,72.5,72.5,0,0,1,2.87-33.5A35.65,35.65,0,0,0,69,109.05c-3.23,8.42-6.46,17.18-5.86,26.17.48,7.25,3.41,14.06,5.81,20.92,1.3,3.72,2.74,7.81,4.07,12a26,26,0,0,0,14.71-3.51A68.61,68.61,0,0,0,83.42,140.08Z"/><path class="cls-6" d="M95.07,103.28a35.37,35.37,0,0,0-17.66,1.52c-3.34,9.94-1.83,21,1.06,31.19,2.76,9.67,6.71,19,8.83,28.84.14-.08.29-.14.43-.23a68.61,68.61,0,0,0-4.31-24.52,32,32,0,0,1,8.78-3.3A72.5,72.5,0,0,1,95.07,103.28Z"/><path class="cls-4" d="M98.15,183.45l-.34.07A79.72,79.72,0,0,1,78,187.28a41,41,0,0,0-1.67,17.81,89.15,89.15,0,0,0,20.07-3C96.91,195.78,97.4,189.92,98.15,183.45Z"/><path class="cls-7" d="M118.4,190.65a19.66,19.66,0,0,1-14.58,5.67,30.5,30.5,0,0,1,.53-11.38,16.84,16.84,0,0,1,7.21-3.23C114.6,183.66,116.89,187.37,118.4,190.65Z"/><path class="cls-8" d="M124.25,199.8a24.45,24.45,0,0,1-5.18,15.34,13.92,13.92,0,0,1-3.64.28,70.2,70.2,0,0,1,3.82-16.18A10.78,10.78,0,0,1,124.25,199.8Z"/><path class="cls-4" d="M100.8,156.79l0,.26A69.37,69.37,0,0,0,103,179l.77-.35a68.4,68.4,0,0,1-2.14-21.28,25.84,25.84,0,0,1,5.76-1.59c0-.28,0-.56,0-.84a27.31,27.31,0,0,0-6.3,1.75Z"/><path class="cls-9" d="M88.26,164.63v-.21A70.92,70.92,0,0,0,84,140.3a33.35,33.35,0,0,1,8.51-2.79l.43-.07-.08-.42a63.86,63.86,0,0,1,2.55-33.69l-.83-.13a64.62,64.62,0,0,0-2.62,33.56,35.1,35.1,0,0,0-8.66,3l-.35.16.14.36a70,70,0,0,1,4.35,24,19.9,19.9,0,0,1-14.53,3.49c.1.31.2.61.29.92a18.38,18.38,0,0,0,2.68.2,21.09,21.09,0,0,0,12.23-4.06Z"/><path class="cls-9" d="M77.88,168c-.39-5.58-2.21-11-4-16.29-.38-1.11-.75-2.23-1.11-3.35-2-6.05-3.77-13.14-2.54-20-2-.8-4.52-1.66-6.6-1.46l0-.55c2.27-.22,5,.73,7.07,1.58l.21.09,0,.22c-1.29,6.75.53,13.85,2.48,19.9.36,1.12.73,2.23,1.1,3.35,1.77,5.29,3.61,10.77,4,16.43Z"/><path class="cls-9" d="M95.89,202.22a87.2,87.2,0,0,1-19.58,2.87c0,.13,0,.26,0,.4.88.63,1.57,1.66,2.45,2.3A59,59,0,0,0,99.21,205l.06-.34A37.53,37.53,0,0,1,95.89,202.22Z"/><path class="cls-10" d="M103.06,184.67c-.77-.72-3.4-1.14-4.91-1.22-.75,6.47-1.24,12.33-1.77,18.66l-.49.11a37.53,37.53,0,0,0,3.38,2.39C100.36,198.09,102,191.18,103.06,184.67Z"/><path class="cls-11" d="M107.56,115c4.52,3.33,6,9.61,5.11,15.15s-3.92,10.47-7,15.16a188.76,188.76,0,0,0,1.5,29.49c-1,.38-2.38.76-3.37,1.14a76.27,76.27,0,0,1-1.6-32.55c5-5.43,6.67-14.18,4.68-21.29C106.3,120,107.5,117.21,107.56,115Z"/><path class="cls-12" d="M117.08,190.47a27.89,27.89,0,0,0-5.7-7.51,9.42,9.42,0,0,0-3.09,1.68,44,44,0,0,1,4.23,9.07c.09.12.33,0,.3-.14s-.29-.16-.33,0A33.2,33.2,0,0,0,117.08,190.47Z"/><path class="cls-13" d="M123.63,200.47a23.73,23.73,0,0,1-3.27,11.26,19.55,19.55,0,0,0,.48-9.18l-1.42-.66a4.55,4.55,0,0,0,.46-2.09A8.15,8.15,0,0,1,123.63,200.47Z"/><path class="cls-14" d="M88.25,233.35a38.22,38.22,0,0,1-12-11.4A23.65,23.65,0,0,1,72,208.67c15.5-1.37,29.59-5.45,41.69-12.09,4.2,5.09,7.86,9.72,10.54,15.26A83.63,83.63,0,0,1,88.25,233.35Z"/><path class="cls-15" d="M94.57,227.85a41.26,41.26,0,0,1-14.17-9,111,111,0,0,0,34.82-13.75,33.15,33.15,0,0,1,5.17,7.53A62.58,62.58,0,0,1,94.57,227.85Z"/><path class="cls-2" d="M107.79,205a52.4,52.4,0,0,0,4.33,5c1.63,1.72,3.08,3.06,3.08,3.06s-1.16-1.58-2.46-3.45-2.71-4.06-3.54-5.23Z"/><path class="cls-2" d="M101.39,208.29a24.86,24.86,0,0,0,3.9,5.65,27.63,27.63,0,0,0,3.24,3.09,32.92,32.92,0,0,1-2.58-3.45,37.39,37.39,0,0,1-2.81-5.3Z"/><path class="cls-2" d="M93.65,210.73A48.56,48.56,0,0,0,98.93,218c2.12,2.45,4.09,4.27,4.09,4.27s-1.7-2.08-3.42-4.63-3.42-5.53-4.33-7.17Z"/><path class="cls-2" d="M86.31,213.54a51.71,51.71,0,0,0,6.38,7.33,54.27,54.27,0,0,0,4.74,4.07s-2.06-2-4.21-4.58A88,88,0,0,1,87.76,213Z"/><path class="cls-2" d="M84.91,206.31a34.07,34.07,0,0,0-1.38,6.3,100.84,100.84,0,0,1,4.35,9.23,6.43,6.43,0,0,1-5.81,2.52c-2.61-3.47-6.29-11.45-6.29-11.45a18.33,18.33,0,0,1,2.15-6.26A19.1,19.1,0,0,1,84.91,206.31Z"/><path class="cls-5" d="M72.84,213.74a23.47,23.47,0,0,0,8.64,14A11.1,11.1,0,0,0,87,226.36l.07-.14a89.19,89.19,0,0,1-7.14-13.5A27.56,27.56,0,0,1,72.84,213.74Z"/><path class="cls-16" d="M80.8,211a33.36,33.36,0,0,1-6.91,1.27c-.26.28-.79,1.19-1,1.47v0a27.56,27.56,0,0,0,7.06-1A89.19,89.19,0,0,0,87,226.22l.65-1.46A100.67,100.67,0,0,1,80.8,211Z"/><path class="cls-2" d="M96.21,203.14a33.1,33.1,0,0,0,.09,6.45c2.28,2.5,4.3,5.29,6.32,8a6.41,6.41,0,0,1-5.09,3.77c-3.32-2.79-8.72-9.72-8.72-9.72a18.32,18.32,0,0,1,.68-6.59A19,19,0,0,1,96.21,203.14Z"/><path class="cls-5" d="M86.14,213.11a23.46,23.46,0,0,0,11.57,11.64,11,11,0,0,0,5.05-2.55l0-.15a91,91,0,0,1-10-11.53A27.83,27.83,0,0,1,86.14,213.11Z"/><path class="cls-17" d="M93.26,208.62a33.13,33.13,0,0,1-6.44,2.8c-.19.33-.5,1.34-.69,1.67v0a27.83,27.83,0,0,0,6.64-2.59,91,91,0,0,0,10,11.53l.31-1.58A99.45,99.45,0,0,1,93.26,208.62Z"/><path class="cls-18" d="M200.31,158.69c29.51-13.95,55.14-38.1,55.89-79.61,2.74,44.65-24.71,68.09-54.22,82.05s-48.24,28.47-48.24,28.47l-1.67-2.43S170.79,172.65,200.31,158.69Z"/><rect class="cls-19" x="145.09" y="188.02" width="12.7" height="4.62" transform="translate(80.14 422.87) rotate(-124.45)"/><rect class="cls-20" x="142.42" y="190.14" width="10.63" height="2.95" transform="matrix(-0.57, -0.82, 0.82, -0.57, 73.28, 421.82)"/><path class="cls-19" d="M151.52,199.75l-8-11.68L119,204.85l4,5.84,4.72-3.24a44,44,0,0,1,23.75-7.7Z"/><rect class="cls-21" x="137.91" y="177.54" width="12.7" height="4.62" transform="translate(210.98 -40.84) rotate(55.55)"/><rect class="cls-22" x="136.41" y="181.37" width="10.63" height="2.95" transform="translate(212.35 -37.45) rotate(55.55)"/><path class="cls-21" d="M135.49,176.38l8,11.69L119,204.85,115,199l4.72-3.23a44,44,0,0,0,15.73-19.39Z"/><path class="cls-23" d="M203.2,135.55a9,9,0,0,0-.75-3.28,7.94,7.94,0,0,0-1.7-2.5,8.79,8.79,0,0,0-4.68-2.33c-.55,12.12-19.72,29.76-50.21,50.67l6.21,9.06s18.72-14.52,48.24-28.48,55.14-38.1,55.89-79.61c-13.26,24-39.2,40.51-50.14,40.89A12.13,12.13,0,0,1,203.2,135.55Zm-51.21,44a2.21,2.21,0,1,1-.57,3.08A2.22,2.22,0,0,1,152,179.56Zm8.1-5.55a2.21,2.21,0,1,1-.58,3.08A2.23,2.23,0,0,1,160.09,174Zm8.09-5.55a2.21,2.21,0,1,1-.57,3.08A2.21,2.21,0,0,1,168.18,168.46Z"/></g></g></svg>