<svg xmlns="http://www.w3.org/2000/svg" xmlns:xlink="http://www.w3.org/1999/xlink" viewBox="0 0 340.16 340.16"><defs><style>.cls-1{isolation:isolate;}.cls-2{fill:#2a3e51;}.cls-3{fill:url(#_ÂÁ_Ï_ÌÌ_È_ËÂÌÚ_3);}.cls-17,.cls-18,.cls-4{mix-blend-mode:screen;}.cls-4{fill:url(#_ÂÁ_Ï_ÌÌ_È_ËÂÌÚ_40);}.cls-5{fill:#99999a;}.cls-6{fill:#d7d7d7;}.cls-7{fill:#7b7b7b;}.cls-8{fill:#bfbebe;}.cls-9{fill:url(#_ÂÁ_Ï_ÌÌ_È_ËÂÌÚ_5);}.cls-10{fill:url(#_ÂÁ_Ï_ÌÌ_È_ËÂÌÚ_3-2);}.cls-11{fill:#d3d3d3;}.cls-12{fill:url(#_ÂÁ_Ï_ÌÌ_È_ËÂÌÚ_5-2);}.cls-13{fill:url(#_ÂÁ_Ï_ÌÌ_È_ËÂÌÚ_3-3);}.cls-14{fill:url(#_ÂÁ_Ï_ÌÌ_È_ËÂÌÚ_3-4);}.cls-15{fill:url(#_ÂÁ_Ï_ÌÌ_È_ËÂÌÚ_3-5);}.cls-16{fill:url(#_ÂÁ_Ï_ÌÌ_È_ËÂÌÚ_3-6);}.cls-17{fill:url(#_ÂÁ_Ï_ÌÌ_È_ËÂÌÚ_40-2);}.cls-18{fill:url(#_ÂÁ_Ï_ÌÌ_È_ËÂÌÚ_40-3);}</style><linearGradient id="_ÂÁ_Ï_ÌÌ_È_ËÂÌÚ_3" x1="129.31" y1="198.43" x2="111.12" y2="210.42" gradientUnits="userSpaceOnUse"><stop offset="0" stop-color="#fff"/><stop offset="0.84" stop-color="#e8e7e7"/></linearGradient><linearGradient id="_ÂÁ_Ï_ÌÌ_È_ËÂÌÚ_40" x1="123.7" y1="182.03" x2="117.18" y2="211.98" gradientUnits="userSpaceOnUse"><stop offset="0.17" stop-color="#bdb48e"/><stop offset="0.26" stop-color="#b3ab87"/><stop offset="0.41" stop-color="#999273"/><stop offset="0.6" stop-color="#6e6953"/><stop offset="0.82" stop-color="#333126"/><stop offset="1"/></linearGradient><linearGradient id="_ÂÁ_Ï_ÌÌ_È_ËÂÌÚ_5" x1="264.35" y1="5539.75" x2="195.83" y2="5448.65" gradientTransform="matrix(1, 0, 0, -1, 0, 5652.59)" gradientUnits="userSpaceOnUse"><stop offset="0" stop-color="#fff"/><stop offset="0.48" stop-color="#eee"/><stop offset="1" stop-color="#d7d7d7"/></linearGradient><linearGradient id="_ÂÁ_Ï_ÌÌ_È_ËÂÌÚ_3-2" x1="111.16" y1="120.77" x2="76.16" y2="155.5" xlink:href="#_ÂÁ_Ï_ÌÌ_È_ËÂÌÚ_3"/><linearGradient id="_ÂÁ_Ï_ÌÌ_È_ËÂÌÚ_5-2" x1="88.25" y1="101.19" x2="77.5" y2="156.58" gradientTransform="matrix(1, 0, 0, 1, 0, 0)" xlink:href="#_ÂÁ_Ï_ÌÌ_È_ËÂÌÚ_5"/><linearGradient id="_ÂÁ_Ï_ÌÌ_È_ËÂÌÚ_3-3" x1="78.07" y1="223.77" x2="86" y2="223.77" xlink:href="#_ÂÁ_Ï_ÌÌ_È_ËÂÌÚ_3"/><linearGradient id="_ÂÁ_Ï_ÌÌ_È_ËÂÌÚ_3-4" x1="90.61" y1="221.66" x2="101.52" y2="221.66" xlink:href="#_ÂÁ_Ï_ÌÌ_È_ËÂÌÚ_3"/><linearGradient id="_ÂÁ_Ï_ÌÌ_È_ËÂÌÚ_3-5" x1="118.46" y1="181.97" x2="100.27" y2="193.95" xlink:href="#_ÂÁ_Ï_ÌÌ_È_ËÂÌÚ_3"/><linearGradient id="_ÂÁ_Ï_ÌÌ_È_ËÂÌÚ_3-6" x1="101.33" y1="191.68" x2="75.7" y2="204.36" xlink:href="#_ÂÁ_Ï_ÌÌ_È_ËÂÌÚ_3"/><linearGradient id="_ÂÁ_Ï_ÌÌ_È_ËÂÌÚ_40-2" x1="109.44" y1="115.72" x2="101.03" y2="174.19" xlink:href="#_ÂÁ_Ï_ÌÌ_È_ËÂÌÚ_40"/><linearGradient id="_ÂÁ_Ï_ÌÌ_È_ËÂÌÚ_40-3" x1="113.47" y1="177.57" x2="108.23" y2="197.32" xlink:href="#_ÂÁ_Ï_ÌÌ_È_ËÂÌÚ_40"/></defs><title>Advanced</title><g class="cls-1"><g id="Layer_1" data-name="Layer 1"><path class="cls-2" d="M108.11,192.07a16.56,16.56,0,0,0,4.13,8.38c0-.08,0,.35-.08.27-.26,2.95-1.51,6.62-2.11,9.93a8.82,8.82,0,0,0,5.43.4,23.31,23.31,0,0,0,2-10.88,56.15,56.15,0,0,1-5.51-9A5.53,5.53,0,0,0,108.11,192.07Z"/><path class="cls-3" d="M122.09,199.28a23.69,23.69,0,0,1-5,14.89,13.5,13.5,0,0,1-3.53.26,67.85,67.85,0,0,1,3.71-15.7A10.42,10.42,0,0,1,122.09,199.28Z"/><path class="cls-4" d="M121.5,199.92a23.06,23.06,0,0,1-3.19,10.93,18.77,18.77,0,0,0,.47-8.9l-1.38-.64a4.47,4.47,0,0,0,.45-2A8,8,0,0,1,121.5,199.92Z"/><polygon class="cls-5" points="72.58 220.49 76.44 228.72 138.63 201.31 133.35 190.1 72.58 220.49"/><polygon class="cls-6" points="60.69 222.82 67.06 236.38 77.85 231.71 71.17 217.5 60.69 222.82"/><polygon class="cls-7" points="132.55 203.99 127.04 201.28 74.51 224.6 73.19 221.8 125.72 197.11 127.42 193.07 133.35 190.1 138.63 201.31 132.55 203.99"/><polygon class="cls-8" points="148.91 218.88 125.23 172.05 130.32 166.33 153.81 212.68 148.91 218.88"/><polygon class="cls-6" points="175.77 196.68 169.48 201.23 151.91 168.51 157.78 163.64 175.77 196.68"/><polygon class="cls-6" points="288.82 148.71 169.87 195.37 156.41 170.84 253.28 120.68 288.82 148.71"/><polygon class="cls-8" points="282.15 148.01 252.63 125.87 157.94 173.21 168.6 193.04 282.15 148.01"/><polygon class="cls-8" points="169.48 201.23 162.59 204.21 143.93 196.25 146.53 170.86 151.91 168.51 169.48 201.23"/><polygon class="cls-7" points="157.78 163.64 151 166.57 146.53 170.86 151.91 168.51 157.78 163.64"/><polygon class="cls-5" points="159.57 202.92 145.57 208.49 130.72 178.94 146.43 171.81 143.93 196.25 159.57 202.92"/><polygon class="cls-7" points="130.72 178.94 146.43 171.81 146.53 170.86 149.83 167.69 133.48 175.38 130.72 178.94"/><polygon class="cls-6" points="148.91 218.88 144.25 219.43 121.39 173.32 125.23 172.05 148.91 218.88"/><polygon class="cls-7" points="130.32 166.33 125.23 172.05 121.39 173.32 125.69 168.5 130.32 166.33"/><path class="cls-9" d="M199.41,180.82l10.42-33.55L231,136.69l-2.3,32.52Zm60.46-24-18.79-25.2-6.1,3.16-2.41,32.86Z"/><polygon class="cls-7" points="159.57 202.92 143.93 196.25 146.43 171.81 143.4 173.23 141.71 197.03 159.57 202.92"/><path class="cls-2" d="M104.11,173.09c2.56,4.76,5.17,9.39,7.73,14.16A35.79,35.79,0,0,1,79.3,192.5a44.31,44.31,0,0,1-.77-11.32C86.12,176.44,95.16,173.08,104.11,173.09ZM80.26,206.17a57.42,57.42,0,0,1-5.07,11.11,54.42,54.42,0,0,0,4,9.12c.51.9.92,2.25,2.07,2.33,1.37.1,3.11-1,4.1-1.82a43,43,0,0,1-1.76-9.08,24.33,24.33,0,0,0,1.87-13A21.93,21.93,0,0,0,80.26,206.17Zm10.47-1.36a57.82,57.82,0,0,1-2.67,11.91,53.81,53.81,0,0,0,5.8,8.1c.68.78,1.37,2,2.51,1.86,1.36-.19,2.84-1.6,3.63-2.63a43.44,43.44,0,0,1-3.59-8.52,24.36,24.36,0,0,0-.84-13.07A21.21,21.21,0,0,0,90.73,204.81Z"/><path class="cls-10" d="M108,175.86a109.61,109.61,0,0,1-2.24-28.11c4.75-7,8.67-16.43,6.38-24.57-1-3.64-4.77-7.65-8.21-9.2,0,.1-1.19,7.68-1.42,14.17-3.54,2.47-5.2,1.61-7.81-2.36A41.5,41.5,0,0,1,97.87,109c-1.06-1-2.53-2.31-3.58-3.32a34.54,34.54,0,0,0-25.83,5.51c-3.14,8.17-6.27,16.68-5.69,25.41.47,7,3.31,13.65,5.64,20.3,2.92,8.35,6.61,18.6,7.93,27.35a100.14,100.14,0,0,0,23.27-4.45C102.5,178.85,105.21,177.05,108,175.86Z"/><path class="cls-11" d="M76.34,184.24a100.14,100.14,0,0,0,23.27-4.45,37.27,37.27,0,0,0,5.54-2.55,35.81,35.81,0,0,1-14.86,1.93A84.1,84.1,0,0,1,86.82,165c-4.06,2.4-9.47,4.24-14.27,4.09A101.55,101.55,0,0,1,76.34,184.24Z"/><path class="cls-6" d="M82.45,141.3A31.26,31.26,0,0,1,91,138.09a70.3,70.3,0,0,1,2.79-32.51,34.57,34.57,0,0,0-25.31,5.6c-3.14,8.17-6.27,16.68-5.69,25.41.47,7,3.31,13.65,5.64,20.3,1.26,3.61,2.66,7.58,4,11.62a25.21,25.21,0,0,0,14.28-3.4A66.5,66.5,0,0,0,82.45,141.3Z"/><path class="cls-12" d="M93.77,105.58a34.16,34.16,0,0,0-17.15,1.48c-3.24,9.64-1.78,20.41,1,30.27,2.68,9.39,6.51,18.48,8.57,28l.42-.22a66.5,66.5,0,0,0-4.19-23.81A31.26,31.26,0,0,1,91,138.09,70.3,70.3,0,0,1,93.77,105.58Z"/><path class="cls-11" d="M96.76,183.4a2.72,2.72,0,0,0-.33.07,77.9,77.9,0,0,1-19.26,3.66,40,40,0,0,0-1.62,17.28A85.74,85.74,0,0,0,95,201.51C95.56,195.37,96,189.68,96.76,183.4Z"/><path class="cls-13" d="M86,231.3c-1.72-4.63-3.25-9.35-4.71-14.07-1-.42-2.15-1.25-3.22-1.25a86.91,86.91,0,0,0,7.67,15.57Z"/><path class="cls-11" d="M78.07,216a1.83,1.83,0,0,0-.33,0,13.52,13.52,0,0,0-6.87,3.77,28.09,28.09,0,0,0,11.42,13.75,9.76,9.76,0,0,0,3.45-2A86.91,86.91,0,0,1,78.07,216Z"/><path class="cls-14" d="M101.52,228.21c-2.63-4.18-5.1-8.48-7.51-12.79-1-.21-2.36-.78-3.4-.56a87.15,87.15,0,0,0,10.71,13.65Z"/><path class="cls-11" d="M90.61,214.86a3,3,0,0,0-.32.09,13.44,13.44,0,0,0-6,5.1,28.13,28.13,0,0,0,14,11.1,9.76,9.76,0,0,0,3-2.64A87.15,87.15,0,0,1,90.61,214.86Z"/><path class="cls-15" d="M116.41,190.39a19,19,0,0,1-14.15,5.5,29.73,29.73,0,0,1,.51-11,16.52,16.52,0,0,1,7-3.14C112.72,183.61,114.94,187.21,116.41,190.39Z"/><path class="cls-11" d="M99.32,157.52v.26a67.05,67.05,0,0,0,2.13,21.3l.74-.34a66.54,66.54,0,0,1-2.08-20.66,25.3,25.3,0,0,1,5.6-1.54l0-.81a26.32,26.32,0,0,0-6.11,1.7Z"/><path class="cls-5" d="M87.16,165.14v-.21A68.56,68.56,0,0,0,83,141.52a31.62,31.62,0,0,1,8.27-2.71l.41-.07-.08-.41a62,62,0,0,1,2.48-32.7l-.81-.13a62.8,62.8,0,0,0-2.55,32.58,34.65,34.65,0,0,0-8.4,2.86l-.34.16.13.35a67.87,67.87,0,0,1,4.23,23.27,19.35,19.35,0,0,1-14.1,3.39c.09.3.19.6.28.89a17.18,17.18,0,0,0,2.59.2A20.5,20.5,0,0,0,87,165.26Z"/><path class="cls-5" d="M94.56,201.63a85,85,0,0,1-19,2.78c0,.13,0,.26,0,.38.85.62,1.52,1.62,2.37,2.24a57.53,57.53,0,0,0,19.82-2.75,3.23,3.23,0,0,1,.06-.33A36.06,36.06,0,0,1,94.56,201.63Z"/><path class="cls-16" d="M101.52,184.58c-.75-.69-3.29-1.1-4.76-1.18-.73,6.28-1.2,12-1.72,18.11l-.48.12A36.06,36.06,0,0,0,97.85,204C98.9,197.61,100.48,190.9,101.52,184.58Z"/><path class="cls-17" d="M105.89,117c4.39,3.22,5.87,9.33,5,14.7s-3.8,10.17-6.79,14.72A185,185,0,0,0,105.52,175c-1,.37-2.31.74-3.27,1.11a73.89,73.89,0,0,1-1.55-31.59c4.85-5.28,6.47-13.77,4.54-20.67C104.67,121.84,105.83,119.1,105.89,117Z"/><path class="cls-18" d="M115.14,190.22a27,27,0,0,0-5.55-7.29,9,9,0,0,0-3,1.63,43.47,43.47,0,0,1,4.1,8.8c.09.12.33,0,.3-.13a.17.17,0,0,0-.32,0A31.85,31.85,0,0,0,115.14,190.22Z"/></g></g></svg>