<?xml version="1.0" encoding="utf-8"?>
<!-- Generator: Adobe Illustrator 19.1.0, SVG Export Plug-In . SVG Version: 6.00 Build 0)  -->
<svg version="1.1" id="Layer_3" xmlns="http://www.w3.org/2000/svg" xmlns:xlink="http://www.w3.org/1999/xlink" x="0px" y="0px"
	 viewBox="81.5 90.6 129.6 117" style="enable-background:new 81.5 90.6 129.6 117;" xml:space="preserve">
<path d="M106.2,180.6c3.7,0,6.9-1.3,9.5-4c2.6-2.6,4-5.8,4-9.5s-1.3-6.9-4-9.5c-2.6-2.6-5.8-4-9.5-4s-6.9,1.3-9.5,4
	c-2.6,2.6-4,5.8-4,9.5s1.3,6.9,4,9.5C99.3,179.3,102.4,180.6,106.2,180.6L106.2,180.6z"/>
<path d="M130.8,194.9c-0.1-1.2-0.2-2.5-0.5-3.8c-0.2-1.4-0.6-2.6-0.9-3.8c-0.4-1.2-0.9-2.3-1.5-3.4c-0.6-1.1-1.4-2.1-2.2-2.8
	c-0.8-0.8-1.8-1.4-3-1.9s-2.5-0.7-3.9-0.7c-0.2,0-0.7,0.3-1.5,0.8s-1.6,1.1-2.6,1.7c-1,0.6-2.2,1.2-3.8,1.7
	c-1.6,0.5-3.1,0.8-4.7,0.8s-3.1-0.3-4.7-0.8s-2.8-1.1-3.8-1.7c-1-0.6-1.8-1.2-2.6-1.7c-0.8-0.5-1.3-0.8-1.5-0.8
	c-1.4,0-2.7,0.2-3.9,0.7c-1.2,0.5-2.2,1.1-3,1.9c-0.8,0.8-1.5,1.7-2.2,2.8c-0.6,1.1-1.1,2.3-1.5,3.4c-0.4,1.2-0.7,2.4-0.9,3.8
	c-0.2,1.4-0.4,2.6-0.5,3.8s-0.1,2.4-0.1,3.6c0,2.8,0.9,5,2.6,6.7c1.7,1.6,4,2.4,6.8,2.4h30.7c2.8,0,5.1-0.8,6.8-2.4
	c1.7-1.6,2.6-3.8,2.6-6.7C130.9,197.3,130.8,196.1,130.8,194.9z M106.2,203.6l-3.2-3.7l1.8-13.7h1.4L106.2,203.6v-17.4h1.4l1.8,13.7
	L106.2,203.6z"/>
<path d="M165.9,150.8v10.7c0,1.2-0.4,2.2-1.3,3c-0.8,0.8-1.9,1.3-3,1.3h-21.5c-1.2,0-2.2-0.4-3-1.3c-0.9-0.8-1.3-1.9-1.3-3v-10.7
	h-14.3c0.2,0.1,0.3,0.3,0.5,0.4c4.3,4.3,6.6,9.8,6.6,15.9c0,1.6-0.2,3.1-0.5,4.6c1.4,0.7,2.6,1.6,3.7,2.7c1.5,1.4,2.7,3,3.8,4.9
	c0.9,1.6,1.7,3.4,2.3,5.1c0.5,1.5,0.9,3.2,1.2,5c0.3,1.5,0.5,2.9,0.6,4.3h60.6c3,0,5.5-1.1,7.6-3.2c2.1-2.1,3.2-4.6,3.2-7.6v-32.2
	h-45.2V150.8z"/>
<rect x="142.3" y="150.8" width="17.2" height="8.6"/>
<path d="M207.8,111c-2.1-2.1-4.6-3.2-7.6-3.2h-23.6V97.1c0-1.8-0.6-3.3-1.9-4.6c-1.3-1.3-2.8-1.9-4.6-1.9h-38.7
	c-1.8,0-3.3,0.6-4.6,1.9c-1.3,1.3-1.9,2.8-1.9,4.6v10.7h-23.6c-3,0-5.5,1-7.6,3.2c-2.1,2.1-3.2,4.6-3.2,7.6v25.8H211v-25.8
	C211,115.6,209.9,113.1,207.8,111L207.8,111z M168,107.9h-34.4v-8.6H168V107.9z"/>
</svg>
