<?xml version="1.0" encoding="utf-8"?>
<!-- Generator: Adobe Illustrator 19.1.0, SVG Export Plug-In . SVG Version: 6.00 Build 0)  -->
<svg version="1.1" id="Layer_1" xmlns="http://www.w3.org/2000/svg" xmlns:xlink="http://www.w3.org/1999/xlink" x="0px" y="0px"
	 viewBox="0 0 127.7 115.2" style="enable-background:new 0 0 127.7 115.2;" xml:space="preserve">
<path d="M124,73.9c-2.5-4.2-5.8-7.6-10-10c-4.2-2.5-8.8-3.7-13.8-3.7c-5,0-9.6,1.2-13.8,3.7c-4.2,2.5-7.6,5.8-10,10
	c-2.5,4.2-3.7,8.8-3.7,13.8c0,5,1.2,9.6,3.7,13.8c2.5,4.2,5.8,7.6,10,10c4.2,2.5,8.8,3.7,13.8,3.7c5,0,9.6-1.2,13.8-3.7
	c4.2-2.5,7.6-5.8,10-10c2.5-4.2,3.7-8.8,3.7-13.8C127.7,82.7,126.4,78.1,124,73.9L124,73.9z M116.2,90c0,0.6-0.2,1.2-0.7,1.6
	c-0.5,0.5-1,0.7-1.6,0.7h-9.2v9.2c0,0.6-0.2,1.2-0.7,1.6c-0.5,0.5-1,0.7-1.6,0.7h-4.6c-0.6,0-1.2-0.2-1.6-0.7
	c-0.5-0.5-0.7-1-0.7-1.6v-9.2h-9.2c-0.6,0-1.2-0.2-1.6-0.7c-0.5-0.5-0.7-1-0.7-1.6v-4.6c0-0.6,0.2-1.2,0.7-1.6
	c0.5-0.5,1-0.7,1.6-0.7h9.2v-9.2c0-0.6,0.2-1.2,0.7-1.6c0.5-0.5,1-0.7,1.6-0.7h4.6c0.6,0,1.2,0.2,1.6,0.7c0.5,0.5,0.7,1,0.7,1.6v9.2
	h9.2c0.6,0,1.2,0.2,1.6,0.7c0.5,0.5,0.7,1,0.7,1.6V90z M116.2,90"/>
<path d="M63.2,91.8H8.3V8.3h66.5l4.6-8C78.9,0.1,78.2,0,77.4,0H6C2.7,0,0,2.7,0,6v88.1c0,3.3,2.7,6,6,6h59.1
	C64.1,97.5,63.5,94.7,63.2,91.8z"/>
<path d="M97.3,22.8c-0.1-0.3-0.9-3.5-5.9-6.4c-5-2.9-8.2-2-8.5-1.9c-0.5,0.2-0.9,0.5-1.1,0.9L57.2,57.9c-0.2,0.3-0.2,0.6-0.3,0.9
	l-0.9,15.3c0,0.7,0.3,1.4,1,1.8c0.6,0.4,1.4,0.4,2.1-0.1l12.8-8.5c0.3-0.2,0.5-0.4,0.6-0.7l24.6-42.5C97.4,23.8,97.4,23.3,97.3,22.8
	L97.3,22.8z M64.1,69c-0.7-0.5-1.4-1-2.2-1.5c-0.8-0.5-1.6-0.9-2.4-1.2l0.3-4.6c1,0.1,2.5,0.5,4.5,1.7c1.9,1.1,3,2.2,3.7,3L64.1,69z
	 M64.1,69"/>
<path d="M36.8,80.9c0.2,1.2,1.6,1.6,2.6,2c0.9,0.4,2-0.3,2.8-0.7c4.6-2.3,10.9,0.4,15.9,0.4c2.9,0,2.9-4.6,0-4.6
	c-5.8,0-10.6-1.5-16.4-0.5c0-0.3-0.1-0.8-0.5-1.4c-1.1-1.8-2.4-2.4-3.8-2.1c-0.1-0.2-0.2-0.4-0.3-0.7c-0.4-0.6-0.9-0.9-1.4-1
	c1.6-2.8,2.6-5.8,1.6-8.2c-0.3-0.7-1.2-1.1-2-1.1c-3-0.1-5.7,3.1-7.6,5c-4.9,4.8-9.2,10.2-13.4,15.7c-1.8,2.3,2.2,4.6,3.9,2.3
	c3.7-4.8,7.6-9.5,11.8-13.8c-1,1.7-2.1,3.3-3.2,4.9c-1.6,2.5,2.2,4.6,3.9,2.3c0.4-0.6,0.9-1.1,1.5-1.4c-0.1,0.3-0.2,0.6-0.3,0.8
	c0,0,0,0,0,0c-0.1,0.2-0.2,0.4-0.2,0.5c-1,2.6,2.8,3.7,4.2,1.8c0.3-0.5,0.7-1,1-1.6C36.7,79.9,36.7,80.4,36.8,80.9L36.8,80.9z
	 M36.8,80.9"/>
</svg>
