<?xml version="1.0" encoding="utf-8"?>
<!-- Generator: Adobe Illustrator 19.1.0, SVG Export Plug-In . SVG Version: 6.00 Build 0)  -->
<svg version="1.1" id="Layer_1" xmlns="http://www.w3.org/2000/svg" xmlns:xlink="http://www.w3.org/1999/xlink" x="0px" y="0px"
	 viewBox="0 0 116.8 91.8" style="enable-background:new 0 0 116.8 91.8;" xml:space="preserve">
<g>
	<path d="M112.6,66.7H4.2c-1.1,0-2.1,0.4-2.9,1.2C0.4,68.8,0,69.8,0,70.9v16.7c0,1.1,0.4,2.1,1.2,2.9c0.8,0.8,1.8,1.2,2.9,1.2h108.5
		c1.1,0,2.1-0.4,2.9-1.2c0.8-0.8,1.2-1.8,1.2-2.9V70.9c0-1.1-0.4-2.1-1.2-2.9C114.7,67.2,113.8,66.7,112.6,66.7L112.6,66.7z
		 M108.5,83.4H66.7v-8.3h41.7L108.5,83.4L108.5,83.4z M108.5,83.4"/>
	<path d="M112.6,33.4H4.2c-1.1,0-2.1,0.4-2.9,1.2C0.4,35.4,0,36.4,0,37.5v16.7c0,1.1,0.4,2.1,1.2,2.9C2.1,58,3,58.4,4.2,58.4h108.5
		c1.1,0,2.1-0.4,2.9-1.2c0.8-0.8,1.2-1.8,1.2-2.9V37.5c0-1.1-0.4-2.1-1.2-2.9C114.7,33.8,113.8,33.4,112.6,33.4L112.6,33.4z
		 M108.5,50.1H41.7v-8.3h66.7V50.1z M108.5,50.1"/>
	<path d="M115.6,1.2c-0.8-0.8-1.8-1.2-2.9-1.2H4.2C3,0,2.1,0.4,1.2,1.2C0.4,2.1,0,3,0,4.2v16.7C0,22,0.4,23,1.2,23.8
		C2.1,24.6,3,25,4.2,25h108.5c1.1,0,2.1-0.4,2.9-1.2c0.8-0.8,1.2-1.8,1.2-2.9V4.2C116.8,3,116.4,2.1,115.6,1.2L115.6,1.2z
		 M108.5,16.7h-25V8.3h25V16.7z M108.5,16.7"/>
</g>
</svg>
