<svg data-name="Layer 1" 
    xmlns="http://www.w3.org/2000/svg" viewBox="0 0 95.47 94">
    <g>
        <path d="M71.74 39.54a6.43 6.43 0 00-6.46-6.08h-8.65A3.43 3.43 0 0054 34.71l-7.18 8.49v-3.51A5.42 5.42 0 0044.2 35a5.45 5.45 0 10-5.66 0 5.42 5.42 0 00-2.62 4.67v16.45l-1.71 2a.62.62 0 01-.55.23h-2.18A6.38 6.38 0 0025 64.46 5.94 5.94 0 0026.81 69a6.23 6.23 0 004.44 1.87h7.32a3.45 3.45 0 002.64-1.24l19.39-23.4a1.45 1.45 0 01.78-.31h4.13A6.25 6.25 0 0070 44.05a5.87 5.87 0 001.74-4.51zm-34.26-9.19a3.89 3.89 0 113.89 3.89 3.85 3.85 0 01-3.89-3.89zm0 23.9V39.69a3.89 3.89 0 017.78 0V45L41 50.09zM68.86 43a4.52 4.52 0 01-3.35 1.41h-4.13a2.55 2.55 0 00-1.94.93L40.05 68.58a1.92 1.92 0 01-1.48.7h-7.32a4.51 4.51 0 01-3.35-1.4 5.07 5.07 0 01-1.32-3.42 4.8 4.8 0 014.9-4.52h2.18a2.3 2.3 0 001.79-.86l19.7-23.36a1.92 1.92 0 011.48-.7h8.65a4.82 4.82 0 014.9 4.52A4.93 4.93 0 0168.86 43zM63.85 54.08a.74.74 0 00-.68-.37.72.72 0 00-.67.37l-5.32 5.31a.75.75 0 000 1.09.74.74 0 001.09 0l4.13-4.12v13.7a.78.78 0 101.55 0v-13.7l4.13 4.12a.74.74 0 001.09 0 .75.75 0 000-1.09z"/>
    </g>
</svg>