<?xml version="1.0" encoding="utf-8"?>
<!-- Generator: Adobe Illustrator 19.1.0, SVG Export Plug-In . SVG Version: 6.00 Build 0)  -->
<svg version="1.1" id="Layer_1" xmlns="http://www.w3.org/2000/svg" xmlns:xlink="http://www.w3.org/1999/xlink" x="0px" y="0px"
	 viewBox="-240.9 251.3 117.8 107.1" style="enable-background:new -240.9 251.3 117.8 107.1;" xml:space="preserve">
<rect x="-212.4" y="299.3" width="62" height="10.2"/>
<circle cx="-228.9" cy="263.3" r="12"/>
<path d="M-192.8,349l-4.6-26.4c-0.8-4.3-4.9-7.2-9.2-6.5c-0.4-0.1-0.9-0.1-1.3-0.1h-13.9v-29.3c0-4.4-3.6-8-8-8s-8,3.6-8,8v37.9
	c0,4.4,3.6,8,8,8c0.2,0,0.4,0,0.6,0s0.4,0,0.6,0h16.7l3.4,19.2c0.8,4.3,4.9,7.3,9.3,6.5C-194.9,357.5-192.1,353.3-192.8,349z"/>
<circle cx="-135.1" cy="263.3" r="12"/>
<path d="M-171.3,349l4.6-26.4c0.8-4.3,4.9-7.2,9.2-6.5c0.4-0.1,0.9-0.1,1.3-0.1h13.9v-29.3c0-4.4,3.6-8,8-8s8,3.6,8,8v37.9
	c0,4.4-3.6,8-8,8c-0.2,0-0.4,0-0.6,0s-0.4,0-0.6,0h-16.7l-3.4,19.2c-0.8,4.3-4.9,7.3-9.3,6.5C-169.2,357.5-172.1,353.3-171.3,349z"
	/>
</svg>
