<svg data-name="Layer 1" 
    xmlns="http://www.w3.org/2000/svg" viewBox="0 0 95.47 94">
    <g>
        <path d="M63.57 42.31h-.92V38a14.71 14.71 0 0 0-14.24-14.78h-.86A14.71 14.71 0 0 0 33.31 38v4.31h-.92c-1.42 0-2.58 1.47-2.58 3.28v21.62c0 1.81 1.16 3.29 2.58 3.29h31.18c1.42 0 2.58-1.48 2.58-3.29V45.59c0-1.81-1.15-3.28-2.58-3.28zM50.9 56.38v6.53a1.4 1.4 0 0 1-1.38 1.38h-3.09a1.39 1.39 0 0 1-1.37-1.38v-6.53a4 4 0 0 1 2.49-6.73h.86a4 4 0 0 1 2.49 6.73zm5.68-14.07h-17.2V38a8.6 8.6 0 1 1 17.2 0v4.31z"/>
    </g>
</svg>