<?xml version="1.0" encoding="utf-8"?>
<!-- Generator: Adobe Illustrator 19.1.0, SVG Export Plug-In . SVG Version: 6.00 Build 0)  -->
<svg version="1.1" id="Layer_2" xmlns="http://www.w3.org/2000/svg" xmlns:xlink="http://www.w3.org/1999/xlink" x="0px" y="0px"
	 viewBox="44 -48.1 133.3 100.2" style="enable-background:new 44 -48.1 133.3 100.2;" xml:space="preserve">
<g>
	<g>
		<path d="M176.3-46c-0.7-0.6-1.6-1-2.5-1h-66.6c1.3,1,2.5,2,3.7,3.2c1.2,1.2,2.3,2.5,3.3,3.9h56v85h-21.2v-9.7
			c-0.4,0.6-0.8,1.1-1.4,1.6l-15.1,15.1h41.3c0.9,0,1.8-0.4,2.5-1c0.7-0.7,1-1.6,1-2.5v-92.1C177.3-44.5,176.9-45.3,176.3-46z"/>
	</g>
</g>
<path d="M157.8,30.9h3.5c0.5,0,0.9-0.2,1.2-0.6c0.4-0.4,0.6-0.7,0.6-1.2v-3.5c0-0.5-0.2-0.9-0.6-1.2c-0.4-0.4-0.7-0.6-1.2-0.6h-3.5
	c-0.5,0-0.9,0.2-1.2,0.6c-0.4,0.4-0.6,0.7-0.6,1.2v3.5c0,0.5,0.2,0.9,0.6,1.2C156.9,30.7,157.4,30.9,157.8,30.9L157.8,30.9z"/>
<path d="M143.7,16.7h3.5c0.5,0,0.9-0.2,1.2-0.6c0.4-0.4,0.6-0.7,0.6-1.2v-3.5c0-0.5-0.2-0.9-0.6-1.2c-0.4-0.4-0.7-0.6-1.2-0.6h-3.5
	c-0.5,0-0.9,0.2-1.2,0.6c-0.4,0.4-0.6,0.7-0.6,1.2V15c0,0.5,0.2,0.9,0.6,1.2C142.7,16.5,143.1,16.7,143.7,16.7L143.7,16.7z"/>
<path d="M129.4,2.6h3.5c0.5,0,0.9-0.2,1.2-0.6c0.4-0.4,0.6-0.7,0.6-1.2v-3.5c0-0.5-0.2-0.9-0.6-1.2c-0.4-0.4-0.7-0.6-1.2-0.6h-3.5
	c-0.5,0-0.9,0.2-1.2,0.6c-0.4,0.4-0.6,0.7-0.6,1.2v3.5c0,0.5,0.2,0.9,0.6,1.2C128.6,2.4,128.9,2.6,129.4,2.6L129.4,2.6z"/>
<path d="M157.8,16.7h3.5c0.5,0,0.9-0.2,1.2-0.6c0.4-0.4,0.6-0.7,0.6-1.2v-3.5c0-0.5-0.2-0.9-0.6-1.2c-0.4-0.4-0.7-0.6-1.2-0.6h-3.5
	c-0.5,0-0.9,0.2-1.2,0.6c-0.4,0.4-0.6,0.7-0.6,1.2V15c0,0.5,0.2,0.9,0.6,1.2C156.9,16.5,157.4,16.7,157.8,16.7L157.8,16.7z"/>
<path d="M143.7,2.6h3.5c0.5,0,0.9-0.2,1.2-0.6c0.4-0.4,0.6-0.7,0.6-1.2v-3.5c0-0.5-0.2-0.9-0.6-1.2c-0.4-0.4-0.7-0.6-1.2-0.6h-3.5
	c-0.5,0-0.9,0.2-1.2,0.6c-0.4,0.4-0.6,0.7-0.6,1.2v3.5c0,0.5,0.2,0.9,0.6,1.2C142.7,2.4,143.1,2.6,143.7,2.6L143.7,2.6z"/>
<path d="M129.4-11.6h3.5c0.5,0,0.9-0.2,1.2-0.6c0.4-0.4,0.6-0.7,0.6-1.2v-3.5c0-0.5-0.2-0.9-0.6-1.2c-0.4-0.4-0.7-0.6-1.2-0.6h-3.5
	c-0.5,0-0.9,0.2-1.2,0.6c-0.4,0.4-0.6,0.7-0.6,1.2v3.5c0,0.5,0.2,0.9,0.6,1.2C128.6-11.8,128.9-11.6,129.4-11.6L129.4-11.6z"/>
<path d="M157.8,2.6h3.5c0.5,0,0.9-0.2,1.2-0.6c0.4-0.4,0.6-0.7,0.6-1.2v-3.5c0-0.5-0.2-0.9-0.6-1.2c-0.4-0.4-0.7-0.6-1.2-0.6h-3.5
	c-0.5,0-0.9,0.2-1.2,0.6c-0.4,0.4-0.6,0.7-0.6,1.2v3.5c0,0.5,0.2,0.9,0.6,1.2C156.9,2.4,157.4,2.6,157.8,2.6L157.8,2.6z"/>
<path d="M143.7-11.6h3.5c0.5,0,0.9-0.2,1.2-0.6c0.4-0.4,0.6-0.7,0.6-1.2v-3.5c0-0.5-0.2-0.9-0.6-1.2c-0.4-0.4-0.7-0.6-1.2-0.6h-3.5
	c-0.5,0-0.9,0.2-1.2,0.6c-0.4,0.4-0.6,0.7-0.6,1.2v3.5c0,0.5,0.2,0.9,0.6,1.2C142.7-11.8,143.1-11.6,143.7-11.6L143.7-11.6z"/>
<path d="M129.4-25.8h3.5c0.5,0,0.9-0.2,1.2-0.6c0.4-0.4,0.6-0.7,0.6-1.2V-31c0-0.5-0.2-0.9-0.6-1.2c-0.4-0.4-0.7-0.6-1.2-0.6h-3.5
	c-0.5,0-0.9,0.2-1.2,0.6c-0.4,0.4-0.6,0.7-0.6,1.2v3.5c0,0.5,0.2,0.9,0.6,1.2C128.6-26,128.9-25.8,129.4-25.8L129.4-25.8z"/>
<path d="M157.8-11.6h3.5c0.5,0,0.9-0.2,1.2-0.6c0.4-0.4,0.6-0.7,0.6-1.2v-3.5c0-0.5-0.2-0.9-0.6-1.2c-0.4-0.4-0.7-0.6-1.2-0.6h-3.5
	c-0.5,0-0.9,0.2-1.2,0.6c-0.4,0.4-0.6,0.7-0.6,1.2v3.5c0,0.5,0.2,0.9,0.6,1.2C156.9-11.8,157.4-11.6,157.8-11.6L157.8-11.6z"/>
<path d="M143.7-25.8h3.5c0.5,0,0.9-0.2,1.2-0.6c0.4-0.4,0.6-0.7,0.6-1.2V-31c0-0.5-0.2-0.9-0.6-1.2c-0.4-0.4-0.7-0.6-1.2-0.6h-3.5
	c-0.5,0-0.9,0.2-1.2,0.6c-0.4,0.4-0.6,0.7-0.6,1.2v3.5c0,0.5,0.2,0.9,0.6,1.2C142.7-26,143.1-25.8,143.7-25.8L143.7-25.8z"/>
<path d="M157.8-25.8h3.5c0.5,0,0.9-0.2,1.2-0.6c0.4-0.4,0.6-0.7,0.6-1.2V-31c0-0.5-0.2-0.9-0.6-1.2c-0.4-0.4-0.7-0.6-1.2-0.6h-3.5
	c-0.5,0-0.9,0.2-1.2,0.6c-0.4,0.4-0.6,0.7-0.6,1.2v3.5c0,0.5,0.2,0.9,0.6,1.2C156.9-26,157.4-25.8,157.8-25.8L157.8-25.8z"/>
<path d="M89.9,2c6.9,0,12.8-2.4,17.7-7.3c4.9-4.9,7.3-10.8,7.3-17.7s-2.4-12.8-7.3-17.7c-4.9-5-10.8-7.4-17.7-7.4
	s-12.8,2.4-17.7,7.3c-4.9,4.9-7.3,10.8-7.3,17.7s2.4,12.8,7.3,17.7C77.1-0.5,83,2,89.9,2L89.9,2z"/>
<path d="M107.1,46.1c0-1.3,0.2-2.6,0.6-3.8h-4.1c-3.2,0-6.1-1.3-8.1-3.7c-1.8-2.1-2.8-4.7-2.8-7.6v-3.8c0-2.8,1-5.5,2.8-7.6
	c2.1-2.4,5-3.7,8.2-3.7h4.1c-0.4-1.2-0.6-2.5-0.6-3.8c0-3.1,1.2-5.9,3.4-8l2.1-2.1c2-2,4.7-3.2,7.6-3.3c-2.1-0.8-4.4-1.2-7-1.2
	c-0.4,0-1.3,0.5-2.7,1.4c-1.4,0.9-3,2-4.9,3.1c-1.8,1.2-4.2,2.2-7,3.1c-2.9,0.9-5.8,1.4-8.7,1.4c-2.9,0-5.8-0.5-8.7-1.4
	c-2.9-0.9-5.2-2-7-3.1c-1.8-1.1-3.4-2.2-4.9-3.1c-1.4-0.9-2.3-1.4-2.7-1.4c-2.6,0-5.1,0.4-7.3,1.3s-4.1,2-5.6,3.5s-2.9,3.2-4,5.3
	c-1.2,2.1-2.1,4.2-2.8,6.4c-0.7,2.2-1.3,4.5-1.7,7.1c-0.5,2.5-0.8,4.9-0.9,7.1c-0.2,2.2-0.3,4.4-0.3,6.7c0,5.2,1.6,9.3,4.8,12.4
	c3.2,3,7.4,4.5,12.6,4.5h47.4C107.7,50.2,107.1,48.2,107.1,46.1z"/>
<path d="M142.3,26.4L123.2,7.3c-0.7-0.7-1.6-1.1-2.7-1.1c-1,0-1.9,0.4-2.6,1.1l-2.2,2.2c-0.7,0.7-1.1,1.6-1.1,2.6
	c0,1.1,0.4,1.9,1.1,2.6l8.6,8.6h-20.6c-1,0-1.8,0.4-2.5,1.1c-0.6,0.7-1,1.6-1,2.7v3.8c0,1,0.3,1.9,1,2.7c0.6,0.7,1.5,1.1,2.5,1.1
	h20.6l-8.6,8.6c-0.7,0.7-1.1,1.6-1.1,2.7c0,1,0.4,1.9,1.1,2.7l2.2,2.2c0.8,0.7,1.6,1.1,2.6,1.1c1,0,1.9-0.4,2.7-1.1l19.1-19.1
	c0.7-0.7,1.1-1.6,1.1-2.7C143.4,27.9,143,27.1,142.3,26.4L142.3,26.4z M142.3,26.4"/>
</svg>
