<svg xmlns="http://www.w3.org/2000/svg" 
    xmlns:xlink="http://www.w3.org/1999/xlink" viewBox="0 0 294.54 401.1">
    <title>Hero</title>
    <g id="body" class="body-1">
        <path class="body-3" d="M140.56,135.55l.86,19.57,12.09.83,2.92-20S146.43,134,140.56,135.55Z"/>
        <polygon class="body-4" points="140.89 136.4 134.84 136.4 131.13 154.25 141.5 156.41 140.89 136.4"/>
        <path class="body-5" d="M99.81,189.52l.57,6a31.56,31.56,0,0,0,18.77,2c5-11.49,7.49-23.84,6.11-36.31C113.37,167.15,98.56,176.32,99.81,189.52Z"/>
        <path class="body-6" d="M144,152.4c.71-.57,1.57-.67,1.92-.24s.06,1.26-.65,1.83-1.57.68-1.92.24S143.27,153,144,152.4Z"/>
        <path class="body-7" d="M201.15,342a59.13,59.13,0,0,1-12.51,2.81,104,104,0,0,1-36.45-3.21,327.55,327.55,0,0,1,3-58.88,97.06,97.06,0,0,1,19-8.69,39.81,39.81,0,0,1,9.13,8.1S197.73,311.68,201.15,342Z"/>
        <path class="body-8" d="M126.59,347.5c-9.54,2-17.22,4.06-29.53,4.12-6.23-1.37-12.81-3.24-18.92-5.06a228,228,0,0,1,17.38-59.1s6.24-7.52,10.27-10a73.49,73.49,0,0,1,20.47,9C126.7,287,127.75,327.16,126.59,347.5Z"/>
        <path class="body-9" d="M102.11,204.68c15.85,5.41,34.23,5.85,48.4,5.07,6-.67,12-3.24,17.38-5.84-11.72-.67-25.39-.91-41.23-3C116.16,202.18,110.66,203.5,102.11,204.68Z"/>
        <path class="body-10" d="M124.15,150a145.6,145.6,0,0,0-24.8,8.62c-1.43,14.84-.89,31.57,2.67,46.05l.09,0c8.48-1.17,14-2.48,24.28-3.77A191,191,0,0,1,124.15,150Z"/>
        <path class="body-11" d="M124.3,150l-.15,0a191,191,0,0,0,2.24,50.93l.27,0c15.84,2.12,29.51,2.36,41.23,3l.28-.13c6.31-14.22,11.72-30.85,13.07-46.36C181.33,157.47,147.33,149.15,124.3,150Z"/>
        <path class="body-12" d="M179.79,159.35a205.94,205.94,0,0,1-12.69,43.09,173.28,173.28,0,0,1-28.72-1c8.66-.32,17.65-.52,26.31-.84a332.8,332.8,0,0,0,11.5-37.07,5,5,0,0,0-2.12-.34c.23-1.64.38-3.3.61-4.94a29.57,29.57,0,0,1,4.87,1C179.4,159.26,179.94,159.29,179.79,159.35Z"/>
        <path class="body-10" d="M152.31,197.11c-9.78,0-17.75-8.93-17.75-19.9s8-19.89,17.75-19.89,17.75,8.92,17.75,19.89S162.1,197.11,152.31,197.11Z"/>
        <path class="body-13" d="M153.16,195.23c-9,0-16.32-8.29-16.32-18.47s7.32-18.47,16.32-18.47,16.32,8.29,16.32,18.47S162.16,195.23,153.16,195.23Z"/>
        <ellipse class="body-10" cx="155.12" cy="176.66" rx="11.72" ry="13.59"/>
        <path class="body-14" d="M153.16,164.17a10.2,10.2,0,0,0-4,.88,14,14,0,0,0-5.72,11.61c0,7.51,5.24,13.59,11.71,13.59a10.21,10.21,0,0,0,4-.88,14.06,14.06,0,0,0,5.72-11.61C164.88,170.25,159.63,164.17,153.16,164.17Z"/>
        <path class="body-15" d="M155.71,178.17a13.12,13.12,0,0,0,8,1.06c0-.48.08-1,.08-1.46,0-6.91-4.77-12.54-10.62-12.54a8.94,8.94,0,0,0-3.44.73,11.07,11.07,0,0,0-2,1.86C148.31,172.18,150.3,175.67,155.71,178.17Z"/>
        <path class="body-16" d="M162.12,133.87l1.17,0a25.76,25.76,0,0,0,1.34-6.74,6.19,6.19,0,0,1,2.22,2,51.36,51.36,0,0,1-5.46,18,95.91,95.91,0,0,1-34.59-1.82,57.4,57.4,0,0,1-10.42-22.18,18.45,18.45,0,0,1,4.65-4.16,57.41,57.41,0,0,0,8.18,13,42.72,42.72,0,0,0,11.43,1.23,83,83,0,0,0,3.11-9.11,49.21,49.21,0,0,1,17.07,1.93A46.92,46.92,0,0,1,162.12,133.87Z"/>
        <path class="body-17" d="M165.52,129.27a21.78,21.78,0,0,1-1.22,5.11l-.31.69-3-.13,0-1a39.06,39.06,0,0,0-1-6.47l-.09-.44a47.65,47.65,0,0,0-13.13-1.78c-.71,0-1.43,0-2.15,0a78.12,78.12,0,0,1-2.95,8.49l-.28.65h-.14c.83,2.42,1.5,5,2.39,7.08.76,1.8,1.49,3.58,2.18,5.38,1.16,0,2.32.07,3.48.07a86.69,86.69,0,0,0,11.38-.73,49.9,49.9,0,0,0,5-16.71C165.64,129.41,165.59,129.34,165.52,129.27Z"/>
        <path class="body-6" d="M129.21,132.06a57.41,57.41,0,0,1-8.18-13l3.38,1.37a32.7,32.7,0,0,0,6.48,11c3,.34,6.12.52,9.18.58a48.85,48.85,0,0,0,3-8.63,43.55,43.55,0,0,1,17.61,1.92,6.51,6.51,0,0,1,.13.77,49.14,49.14,0,0,0-17-1.92,85.27,85.27,0,0,1-3.11,9.11A42.72,42.72,0,0,1,129.21,132.06Zm35.42-4.88h-1.27a25.36,25.36,0,0,1-1.24,6.69l1.17,0A25.91,25.91,0,0,0,164.63,127.18Z"/>
        <path class="body-18" d="M124.41,120.43a32.7,32.7,0,0,0,6.48,11c3,.34,6.12.52,9.18.58a48.85,48.85,0,0,0,3-8.63,43.55,43.55,0,0,1,17.61,1.92,6.51,6.51,0,0,1,.13.77h0a46.92,46.92,0,0,1,1.3,7.76h0a25.36,25.36,0,0,0,1.24-6.69h.26a63.93,63.93,0,0,0-.69-20.38c-8.93-2.23-18.32-3.69-28.47-2.35a101.71,101.71,0,0,0-11,7.39,27.36,27.36,0,0,0-.17,8.13Z"/>
        <path class="body-19" d="M134.84,105.31a82,82,0,0,1,27.28,2.28c1.42,5.78,1.22,12.31.46,19.09-.53-6.25-1-12.53-2.42-16.61C154,107.85,144.77,106.48,134.84,105.31Z"/>
        <path class="body-10" d="M134.46,104.45a101.71,101.71,0,0,0-11,7.39,27.36,27.36,0,0,0-.17,8.13l1.13.46a32.7,32.7,0,0,0,6.48,11c1.31.14,2.63.25,4,.34A156.14,156.14,0,0,1,134.46,104.45Z"/>
        <path class="body-20" d="M134.84,108.35a229.17,229.17,0,0,0,28.33,3l.38,8s-.79,2.7-11.75,1.94c-11.62-.81-17-4.92-17-4.92Z"/>
        <polygon class="body-21" points="147.71 116.56 139.8 115.58 140.31 111.33 148.56 113.24 147.71 116.56"/>
        <polygon class="body-21" points="153.63 117.22 160.35 117.17 160.33 113.56 153.25 114.36 153.63 117.22"/>
        <path class="body-22" d="M120.51,236.15A174.19,174.19,0,0,0,119.38,207a54.64,54.64,0,0,1,35.11-.36,134.84,134.84,0,0,1-2,31.35A59.92,59.92,0,0,1,120.51,236.15Z"/>
        <path class="body-23" d="M121.29,211c.69,5.87,1.67,12.11,2.36,18a50.18,50.18,0,0,0,16.74,2.13,13.62,13.62,0,0,0,.41-4.23c-1.9-1.44-3.91-3.15-5.81-4.59,1.95.11,3.93,0,5.88.07l.23.66a23.54,23.54,0,0,0,.24-7.24c-2-.9-4.26-3.08-5.93-4.82,1.81.08,3.68-.14,5.49-.06-.19-1.41-.37-2.82-.55-4.22C133.81,206.12,127.75,208.54,121.29,211Z"/>
        <path class="body-6" d="M122.36,215.21l1.2-.29c.78-.21,1.89-.46,3.27-.75a81.1,81.1,0,0,1,10.76-1.47,78.55,78.55,0,0,1,10.73,0c1.37.1,2.48.21,3.25.31l1.19.13-1.15-.39a31.44,31.44,0,0,0-3.19-.88,37.67,37.67,0,0,0-10.79-.87,40.49,40.49,0,0,0-10.86,2.32c-1.37.5-2.48,1-3.23,1.31Z"/>
        <path class="body-6" d="M124.75,221.44a73.19,73.19,0,0,0,13.47,1.86,74.44,74.44,0,0,0,13.65-.65s-6.06-.68-13.53-1S124.75,221.44,124.75,221.44Z"/>
        <path class="body-6" d="M123.79,228.77s1.45.55,3.85,1.21a57.49,57.49,0,0,0,19.12,2c2.47-.16,4-.39,4-.39l-13.49-1.45Z"/>
        <path class="body-24" d="M169.76,279a101.87,101.87,0,0,0-22.57-22.74,14.81,14.81,0,0,0-5.69,3.54,98.15,98.15,0,0,1,18.38,24.74C164,283.77,167.53,282.6,169.76,279Z"/>
        <path class="body-25" d="M120.86,233a201.29,201.29,0,0,0,4.71,26.38c3,.21,6.31.45,9.26.86.55,2.67,1,5.43,1.38,8.17a81.91,81.91,0,0,0,10.5-.68,23.53,23.53,0,0,0,4.55-6.82,25.14,25.14,0,0,1,6.1-2,52,52,0,0,0,7-25.35Q142.69,232.55,120.86,233Z"/>
        <path class="body-26" d="M129.93,232.9l2.85,16.15s6.11,1.51,10.32,1.12,8.59-.82,8.59-.82a36.7,36.7,0,0,0,2.28-7.93c.63-4.14,1.48-8.2,1.48-8.2Q142.4,232.79,129.93,232.9Z"/>
        <path class="body-27" d="M125.57,259.38A201.29,201.29,0,0,1,120.86,233q-8.81.18-17.66.57a65.58,65.58,0,0,0,6.13,23.73l9.41.93a56.79,56.79,0,0,1,5.21,9.36,88.18,88.18,0,0,0,12.26.82c-.37-2.74-.83-5.5-1.38-8.17C131.88,259.83,128.61,259.59,125.57,259.38Z"/>
        <path class="body-9" d="M155,233.21a108.81,108.81,0,0,1-3.64,15.89,50.92,50.92,0,0,1-18.25-.24l-2.71-16h-.84l2.82,16.67.28.05a52.59,52.59,0,0,0,10.26,1,50.32,50.32,0,0,0,8.83-.78l.25,0,.08-.24a109.61,109.61,0,0,0,3.76-16.34Z"/>
        <path class="body-28" d="M146.32,266.48a16.14,16.14,0,0,0,4.24-7.08c1.89-.72,4.06-1.32,5.95-2A60.39,60.39,0,0,0,162.35,236,297.12,297.12,0,0,0,123,234.67c11.28,1.78,22.84,3.92,34.11,5.7a31.72,31.72,0,0,1-3.25,15.24c-1.51.82-3.51,1.51-5,2.33C147.78,260.5,147.38,263.91,146.32,266.48Z"/>
        <path class="body-24" d="M119.32,283.46a78.94,78.94,0,0,1,4.34-24.61c-2.45-.3-5.77-.87-8.42-1a64,64,0,0,0-9.74,25C109.79,284.31,115.15,285.19,119.32,283.46Z"/>
        <path class="body-27" d="M175.38,337.69A38.82,38.82,0,0,1,158,336.27a326.54,326.54,0,0,1-.94-54.34,2.69,2.69,0,0,0,0-.29c-.62.34-1.24.69-1.84,1a327.55,327.55,0,0,0-3,58.88,104.82,104.82,0,0,0,32,3.52,132.63,132.63,0,0,0,1.24-24.7A55.05,55.05,0,0,0,175.38,337.69Z"/>
        <path class="body-29" d="M202.75,341.67a38.85,38.85,0,0,1-2,6.48,105.91,105.91,0,0,1-24.14-3.34c1.33-8.15,4.91-17.12,8.9-24.35C199.15,326.9,202.75,341.67,202.75,341.67Z"/>
        <path class="body-27" d="M93.89,350.86a242.09,242.09,0,0,1,8.29-26.76,52.15,52.15,0,0,0-12.32,12.26,315.22,315.22,0,0,1,14.38-58.93,77.15,77.15,0,0,0-8.72,9.05,234.16,234.16,0,0,0-17.38,60C83.23,348,88.63,349.58,93.89,350.86Z"/>
        <path class="body-30" d="M116.58,349.59c-1.79-10.91-6.37-18.85-14.16-26.37-7.45,7.11-13.33,15.59-14.76,26,3.53,3.88,11.91,5.73,11.91,5.73S111.07,353.56,116.58,349.59Z"/>
        <path class="body-6" d="M99.17,354.88a106.45,106.45,0,0,1,3.07-31.48c-7.37,7.08-13.16,15.49-14.58,25.85C90.73,352.63,97.46,354.46,99.17,354.88Z"/>
        <path class="body-6" d="M176.62,344.81a105.91,105.91,0,0,0,24.14,3.34c.09-.18.18-.38.26-.59a102.5,102.5,0,0,0-15.81-26.51C181.35,328.18,177.92,336.87,176.62,344.81Z"/>
        <path class="body-31" d="M117.63,278.75a32.45,32.45,0,0,0-6.22-2.49,43.22,43.22,0,0,1,5.25-16.59,8.21,8.21,0,0,1,4.6,2.95,37.92,37.92,0,0,0-3.27,15.7C118,278,117.65,279,117.63,278.75Z"/>
        <path class="body-31" d="M165.55,275.52a8.59,8.59,0,0,0-4.21,1.65,116.45,116.45,0,0,0-10.28-12.83,6.59,6.59,0,0,1,1.8-2.09C157,266.21,161.84,271.17,165.55,275.52Z"/>
        <path class="body-24" d="M114.37,263.24a22.16,22.16,0,0,1,2.32.75,11.19,11.19,0,0,1,1.49.73,8.72,8.72,0,0,0-1.2-1.2,7.4,7.4,0,0,0-2.27-1.34Z"/>
        <path class="body-24" d="M112.18,268.19a8.45,8.45,0,0,1,3.16.68,7.37,7.37,0,0,1,1.88,1.21,6.54,6.54,0,0,0-1.6-1.68,6.47,6.47,0,0,0-3.39-1.32Z"/>
        <path class="body-24" d="M111.08,273.24a11,11,0,0,1,3.08.67,8.8,8.8,0,0,1,1.89,1,7.7,7.7,0,0,0-4.85-2.8Z"/>
        <path class="body-24" d="M155.87,271.43c.37-.3,1-.93,1.54-1.44s1.08-.92,1.08-.92a12.91,12.91,0,0,0-1.37.45,8.1,8.1,0,0,0-2,1Z"/>
        <path class="body-24" d="M151.86,267.56a24.94,24.94,0,0,0,2.79-2.13,26.31,26.31,0,0,0-3.31,1.15Z"/>
        <path class="body-24" d="M158.77,275.4c.51-.33,1.41-1,2.25-1.46a16.83,16.83,0,0,1,1.61-.84,12.4,12.4,0,0,0-1.82.32,10.21,10.21,0,0,0-2.63,1Z"/>
        <path class="body-27" d="M163.76,316.17l-.16-.86a158.66,158.66,0,0,1-2.37-30.84l1.12,0a156.22,156.22,0,0,0,2.2,29.76,97.59,97.59,0,0,1,20-10.57l.21-.09.21.09a31.14,31.14,0,0,1,10.72,7.86l-.83.73a30.12,30.12,0,0,0-10.11-7.47,95.27,95.27,0,0,0-20.29,10.86Z"/>
        <path class="body-32" d="M174.22,274l-.17.06a339.51,339.51,0,0,1,13.71,43.74L198.59,327a225.74,225.74,0,0,0-15.24-44.86A40.06,40.06,0,0,0,174.22,274Z"/>
        <path class="body-33" d="M121.91,344.1c-1.85.23-4,.45-5.87.69A61.32,61.32,0,0,0,99.12,317,380.29,380.29,0,0,1,103.93,277a50.27,50.27,0,0,1,18.35,8A458.53,458.53,0,0,1,121.91,344.1Z"/>
        <path class="body-34" d="M121.91,344.18c-1.85.23-4,.46-5.87.69A61.32,61.32,0,0,0,99.12,317a380.29,380.29,0,0,1,4.81-39.95,50.27,50.27,0,0,1,18.35,8A458.52,458.52,0,0,1,121.91,344.18Z"/>
        <path class="body-27" d="M114.91,315.06l-.58-.44c-1.74-1.33-7-5.35-11.09-6.33A51.18,51.18,0,0,0,93,314.6l-.71-.84a52.31,52.31,0,0,1,10.65-6.55l.17-.08.19,0c3.69.8,8,3.77,11.14,6.13,3.79-9.28,6-19.94,7.53-28.25l1.09.19c-1.56,8.57-3.87,19.62-7.86,29.15Z"/>
    </g>
</svg>