<svg xmlns="http://www.w3.org/2000/svg" 
    xmlns:xlink="http://www.w3.org/1999/xlink" viewBox="0 0 245.89 350.07">
    <defs>
        <style>
            .club-1{isolation:isolate;}
            .club-2{fill:#d7d7d7;}
            .club-3{fill:url(#_4);}
            .club-4{fill:#2a3e51;}
            .club-5{fill:url(#_3);}
            .club-6{fill:#99999a;}
            .club-11,.club-7{fill:#d3d3d3;}
            .club-8{mix-blend-mode:screen;fill:url(#_40);}
            .club-9{fill:#477087;}
            .club-10{fill:#2d353a;}
            .club-11{stroke:#939393;stroke-miterlimit:10;stroke-width:0.25px;}
            .club-12{fill:url(#club-gradient);}
            .club-13{fill:#13181d;}
            .club-14{fill:url(#_4-2);}
        </style>
        <linearGradient id="_4" x1="206.6" y1="-1348.79" x2="206.37" y2="-1297.16" gradientTransform="matrix(1, 0, 0, -1, 0, -1205.73)" gradientUnits="userSpaceOnUse">
            <stop offset="0.04" stop-color="#fff"/>
            <stop offset="0.3" stop-color="#fbfbfb"/>
            <stop offset="0.55" stop-color="#efefef"/>
            <stop offset="0.7" stop-color="#e5e5e4"/>
            <stop offset="0.8" stop-color="#dfdfde"/>
            <stop offset="1" stop-color="#d7d7d7"/>
        </linearGradient>
        <linearGradient id="_3" x1="216" y1="-1322.63" x2="191.32" y2="-1392.54" gradientTransform="matrix(1, 0, 0, -1, 0, -1205.73)" gradientUnits="userSpaceOnUse">
            <stop offset="0" stop-color="#fff"/>
            <stop offset="0.84" stop-color="#e8e7e7"/>
        </linearGradient>
        <linearGradient id="_40" x1="-488.47" y1="796.48" x2="-466.35" y2="796.48" gradientTransform="matrix(0.87, 0.47, 0.5, -0.88, 226.28, 1064.92)" gradientUnits="userSpaceOnUse">
            <stop offset="0.17" stop-color="#bdb48e"/>
            <stop offset="0.26" stop-color="#b3ab87"/>
            <stop offset="0.41" stop-color="#999273"/>
            <stop offset="0.6" stop-color="#6e6953"/>
            <stop offset="0.82" stop-color="#333126"/>
            <stop offset="1"/>
        </linearGradient>
        <linearGradient id="club-gradient" x1="-1.18" y1="-15.79" x2="82.1" y2="-15.79" gradientTransform="translate(98.11 102.42) rotate(-15.55)" gradientUnits="userSpaceOnUse">
            <stop offset="0.04" stop-color="#fff"/>
            <stop offset="0.19" stop-color="#fbfbfb"/>
            <stop offset="0.34" stop-color="#efefef"/>
            <stop offset="0.43" stop-color="#e5e5e4"/>
            <stop offset="0.62" stop-color="#dfdfde"/>
            <stop offset="1" stop-color="#d7d7d7"/>
        </linearGradient>
        <linearGradient id="_4-2" x1="-29.12" y1="-213.89" x2="-55.95" y2="-184.09" gradientTransform="matrix(0.96, 0.25, 0.28, -0.97, 292.4, -84.55)" xlink:href="#_4"/>
    </defs>
    <title>small</title>
    <g id="club" class="club-1">
        <path class="club-2" d="M175.12,98.29a382,382,0,0,1-3.83,40.6c0,4.74,0,9.14-.06,13.28,7.13,5.51,13.77,11,21,16.53a343.32,343.32,0,0,0,12.85-56.45Z"/>
        <path class="club-2" d="M175.12,98.29c3.63-1.88,8.72-5.49,12.16-7.72,10.87,2.94,23.82,8.34,33.63,12.7a106.35,106.35,0,0,1-15.84,9Z"/>
        <path class="club-3" d="M192.22,168.7a343.32,343.32,0,0,0,12.85-56.45,106.35,106.35,0,0,0,15.84-9c-1,19.09-6.58,39.6-12.42,59.14A36,36,0,0,1,192.22,168.7Z"/>
        <path class="club-4" d="M195,111.54a8.68,8.68,0,0,0,4.7,1.28,44.15,44.15,0,0,0,9.34-14,22.58,22.58,0,0,0-9.25-13.14,34.64,34.64,0,0,0-15.74-5.25,54.75,54.75,0,0,0-3.81,14.77l.19-.11c.89.47,1.63,1.16,2.51,1.63-.34,2.72-.66,5.07-1,7.79A53.09,53.09,0,0,0,195,111.54Z"/>
        <path class="club-5" d="M192.22,168.7q5.39-17.2,8.92-33.94l.35.21a86.25,86.25,0,0,0,9.24-3.92c2.14-1.21,5.42-3.26,7-4.27-2.39,11.88-5.77,23.93-9.27,35.63A36,36,0,0,1,192.22,168.7Z"/>
        <path class="club-6" d="M201.28,134.09c-.08.41-.17.81-.26,1.22h0l-.17-.11c-7.74-5-16.89-10.19-27.2-15.53,0-.42.09-.84.13-1.25C184.2,123.81,193.45,129.08,201.28,134.09Z"/>
        <path class="club-7" d="M217.6,127.57c-4.25,2.76-12.1,7.17-16.38,7.71l-.2,0c.09-.41.18-.81.26-1.22l0,0c4.5-.69,13-5.7,16.6-8.11C217.81,126.52,217.7,127.05,217.6,127.57Z"/>
        <path class="club-8" d="M207.15,162a216.7,216.7,0,0,0,11.36-55.13,29.35,29.35,0,0,1-7.86,4.47,263,263,0,0,1-8.51,44.19,26.78,26.78,0,0,1-5,2.74c-.89,2.73-1.85,5.6-2.73,8.33C198.31,165.58,203.61,164,207.15,162Z"/>
        <path class="club-6" d="M177.42,110.14c-.91-.46-1.84-.87-2.76-1.23l-.22.51a33.56,33.56,0,0,1,8.33,4.76,30.3,30.3,0,0,1-.6,9.38l.54.11a31,31,0,0,0,.6-9.68v-.11l-.09-.07A33.63,33.63,0,0,0,177.42,110.14Z"/>
        <path class="club-4" d="M190.93,152.15a11.7,11.7,0,0,0-1.64-8.58,11.45,11.45,0,0,0-7.15-4.89,5.86,5.86,0,0,0-2.7-.05c-2.5.63-2.16,3.14-2.56,5.2-.46,2.39-1,4.77-1.65,7.12a44.5,44.5,0,0,0,12.37,8.2C189.12,156.63,190.38,155,190.93,152.15Z"/>
        <path class="club-6" d="M191.94,129.12l-.54-.11a86.92,86.92,0,0,0-1.77,10.11v.14l.1.09a40.86,40.86,0,0,0,5.79,4.53,99.26,99.26,0,0,1-6.31,22.52l.51.2a99.8,99.8,0,0,0,6.37-22.84l0-.17-.15-.1A37.93,37.93,0,0,1,190.2,139,85.82,85.82,0,0,1,191.94,129.12Z"/>
        <path class="club-4" d="M185.06,147.38a9.63,9.63,0,0,0-6.81-2.21,112.25,112.25,0,0,1-7.06,9.78c-.08,5.4-.22,10.36-.42,15.06a104.43,104.43,0,0,0,17.58-16A10.11,10.11,0,0,0,185.06,147.38Z"/>
        <path class="club-9" d="M181.87,149.73c-1.25,1.61-2.54,3.17-3.87,4.72a13.28,13.28,0,0,1,1.35,2.16,14.4,14.4,0,0,1,1,2.61,17.86,17.86,0,0,0-1.51-2.3,16.86,16.86,0,0,0-1.51-1.73c-1,1.14-2,2.25-3.05,3.35a14.85,14.85,0,0,1,1.36,1.61A14.5,14.5,0,0,1,177,162.4a17.05,17.05,0,0,0-1.77-1.87,17.57,17.57,0,0,0-1.58-1.3c-.86.9-1.75,1.78-2.63,2.65,0,.53,0,1.06-.05,1.58l.24.31a7.3,7.3,0,0,1,.9,1.78,8.6,8.6,0,0,0-1.16-1.26c0,1.54-.1,3.05-.16,4.53a81.19,81.19,0,0,0,12.23-11.24A13.08,13.08,0,0,0,181.87,149.73Z"/>
        <polygon class="club-10" points="93.56 57.46 94.71 54.43 104.77 58.03 103.41 60.86 93.56 57.46"/>
        <polygon class="club-10" points="110.92 64.72 112.33 60.73 125.15 65.66 123.47 69.39 110.92 64.72"/>
        <polygon class="club-10" points="129.61 71.77 131.1 67.27 145.14 73 143.35 77.2 129.61 71.77"/>
        <polygon class="club-10" points="151.13 80.73 152.98 75.75 169.35 81.73 167.16 86.38 151.13 80.73"/>
        <polygon class="club-10" points="89.32 69.92 90.25 66.81 100.53 69.69 99.38 72.61 89.32 69.92"/>
        <polygon class="club-10" points="107.63 74.85 108.76 70.77 121.89 74.78 120.48 78.62 107.63 74.85"/>
        <polygon class="club-10" points="127.17 80.42 128.34 75.82 142.75 80.55 141.27 84.86 127.17 80.42"/>
        <polygon class="club-10" points="149.37 86.52 150.87 81.42 167.62 86.22 165.76 91.02 149.37 86.52"/>
        <path class="club-11" d="M179,87.43,90.4,55.63c-1.23-.4-4.9,10.64-3.68,11.05L177.6,91.91Z"/>
        <path class="club-12" d="M177.61,87.82,88.7,60.66c-.54-.18-2.36,5.4-1.83,5.57l91.61,25.44,1-3Z"/>
        <path class="club-10" d="M200.62,96.07a27.58,27.58,0,0,1,4.42,9.79,135.26,135.26,0,0,0-26.34-13,12.8,12.8,0,0,1,.21-4.87A72.94,72.94,0,0,1,200.62,96.07Z"/>
        <path class="club-13" d="M204.08,94.91a87.6,87.6,0,0,0-27.57-10.15c-.73,2.75-.59,5.68-.34,9a117.71,117.71,0,0,1,26.92,15.32,7,7,0,0,0,2.92-5.61A17.49,17.49,0,0,0,204.08,94.91Zm-21.8-4.2a20.62,20.62,0,0,1,.34,3.34l-1-.46c0-.7.12-1.94.15-3s0-2.07,0-2.07S182.08,89.5,182.28,90.71Zm5.16,2a8.86,8.86,0,0,1-.13,3.33l-.93-.78a11.93,11.93,0,0,0,.57-2.74,12.13,12.13,0,0,0,0-2.12A13,13,0,0,1,187.44,92.68Zm5,1.72a18.06,18.06,0,0,1,0,4.4l-1-.65a29.27,29.27,0,0,0,.5-4,28.1,28.1,0,0,0,0-2.83A25.73,25.73,0,0,1,192.41,94.4Zm4.44,2a20.78,20.78,0,0,1,.54,4.91l-1-.5a32.86,32.86,0,0,0,0-4.51,29.19,29.19,0,0,0-.45-3.16A27.65,27.65,0,0,1,196.85,96.4Z"/>
        <path class="club-2" d="M186.35,96.5a11.88,11.88,0,0,1-6.72-3,38.59,38.59,0,0,1,2.85-16.84c.89,0,2.65-.07,2.66-.11a23,23,0,0,1,9.77,1.62,89.67,89.67,0,0,1-5.76,17.5Z"/>
        <path class="club-2" d="M185.85,96.86a32.56,32.56,0,0,0,14,6.87c.52,2.8.86,6.11-.72,8.52l-2.76,1.39A30.57,30.57,0,0,1,181.47,105,13.81,13.81,0,0,1,183,97.78Z"/>
        <path class="club-2" d="M194.89,101.5a18.78,18.78,0,0,1-3.17-1.5,6.24,6.24,0,0,1-2.48-2.43A54.45,54.45,0,0,1,198,79.77l2.32-.06A23.19,23.19,0,0,1,210,85.94c-2.85,5.5-7.13,11.3-12.42,14.62Z"/>
        <path class="club-14" d="M186.33,96.42a12,12,0,0,1-6.72-3,38.78,38.78,0,0,1,2.85-16.85,22.76,22.76,0,0,1,10,1.58A96.43,96.43,0,0,1,186.33,96.42Zm21.46-10.37a23,23,0,0,0-9.86-6.37,54.5,54.5,0,0,0-8.71,17.81,6.15,6.15,0,0,0,2.48,2.42,18.38,18.38,0,0,0,3.17,1.5C200.34,97.9,204.8,91.81,207.79,86.05Zm-10.62,18.63a32.27,32.27,0,0,1-14.24-7,13.77,13.77,0,0,0-1.48,7.16,30.51,30.51,0,0,0,14.87,8.7C198,111,197.67,107.59,197.17,104.68Z"/>
    </g>
</svg>