<svg xmlns="http://www.w3.org/2000/svg" 
    xmlns:xlink="http://www.w3.org/1999/xlink" viewBox="0 0 245.89 350.07">
    <defs>
        <style>
            .hand-1{isolation:isolate;}
            .hand-2{fill:#d7d7d7;}
            .hand-3{fill:#d3d3d3;}
            .hand-4{fill:url(#_4);}
            .hand-5{fill:#2a3e51;}
            .hand-6{fill:url(#_3);}
            .hand-7{fill:#99999a;}
            .hand-8{mix-blend-mode:screen;fill:url(#_40);}
            .hand-9{fill:#477087;}
            .hand-10{fill:url(#_4-2);}
        </style>
        <linearGradient id="_4" x1="205.56" y1="179.43" x2="205.34" y2="231.05" gradientUnits="userSpaceOnUse">
            <stop offset="0.04" stop-color="#fff"/>
            <stop offset="0.3" stop-color="#fbfbfb"/>
            <stop offset="0.55" stop-color="#efefef"/>
            <stop offset="0.7" stop-color="#e5e5e4"/>
            <stop offset="0.8" stop-color="#dfdfde"/>
            <stop offset="1" stop-color="#d7d7d7"/>
        </linearGradient>
        <linearGradient id="_3" x1="214.96" y1="205.58" x2="190.29" y2="135.68" gradientUnits="userSpaceOnUse">
            <stop offset="0" stop-color="#fff"/>
            <stop offset="0.84" stop-color="#e8e7e7"/>
        </linearGradient>
        <linearGradient id="_40" x1="-1283.22" y1="2256.69" x2="-1261.11" y2="2256.69" gradientTransform="matrix(0.87, -0.47, 0.5, 0.88, 188.35, -2404.75)" gradientUnits="userSpaceOnUse">
            <stop offset="0.17" stop-color="#bdb48e"/>
            <stop offset="0.26" stop-color="#b3ab87"/>
            <stop offset="0.41" stop-color="#999273"/>
            <stop offset="0.6" stop-color="#6e6953"/>
            <stop offset="0.82" stop-color="#333126"/>
            <stop offset="1"/>
        </linearGradient>
        <linearGradient id="_4-2" x1="-470.09" y1="1322.39" x2="-496.92" y2="1352.18" gradientTransform="matrix(0.96, -0.25, 0.28, 0.97, 281.08, -1191.89)" xlink:href="#_4"/>
    </defs>
    <title>small</title>
    <g id="hand" class="hand-1">
        <path class="hand-2" d="M191.19,153.79c-7,5.38-13.52,10.73-20.43,16.1-.28,3.54-.6,7-1,10.58a387.39,387.39,0,0,1,4.29,43.73l29.95-14A343.26,343.26,0,0,0,191.19,153.79Z"/>
        <path class="hand-3" d="M191.19,153.79c-7,5.38-13.52,10.73-20.43,16.1-.28,3.54-.6,7-1,10.58,1.1,7.12,2.1,15.07,2.87,22.82,3.21-1.71,12.19-6.51,14.05-7.56,2-1.15,11.47-6.83,13.4-8Q196.57,171,191.19,153.79Z"/>
        <path class="hand-2" d="M174.08,224.2c3.64,1.88,8.72,5.49,12.17,7.72,10.87-2.94,23.81-8.34,33.63-12.7a106.43,106.43,0,0,0-15.85-9Z"/>
        <path class="hand-4" d="M191.19,153.79A343.26,343.26,0,0,1,204,210.24a106.43,106.43,0,0,1,15.85,9c-1-19.09-6.58-39.6-12.42-59.14A36,36,0,0,0,191.19,153.79Z"/>
        <path class="hand-5" d="M194,211a8.72,8.72,0,0,1,4.71-1.28A44.15,44.15,0,0,1,208,223.72a22.55,22.55,0,0,1-9.26,13.14,34.6,34.6,0,0,1-15.73,5.25,54.87,54.87,0,0,1-3.82-14.77l.2.11c.88-.47,1.63-1.16,2.51-1.63-.34-2.72-.67-5.07-1-7.79A53,53,0,0,1,194,211Z"/>
        <path class="hand-5" d="M189.9,170.34a11.8,11.8,0,0,1-1.64,8.58,11.45,11.45,0,0,1-7.15,4.89,5.86,5.86,0,0,1-2.7.05c-2.5-.63-2.17-3.14-2.56-5.2-.46-2.39-1-4.77-1.65-7.12a44.36,44.36,0,0,1,12.37-8.2C188.08,165.86,189.35,167.48,189.9,170.34Z"/>
        <path class="hand-6" d="M191.19,153.79q5.38,17.21,8.92,33.94l.35-.21a86.25,86.25,0,0,1,9.24,3.92c2.14,1.21,5.42,3.26,7,4.27-2.38-11.88-5.76-23.93-9.26-35.63A36,36,0,0,0,191.19,153.79Z"/>
        <path class="hand-7" d="M200.25,188.4c-.08-.41-.18-.82-.26-1.22h0l-.17.11c-7.74,5-16.89,10.19-27.2,15.53l.12,1.25C183.16,198.68,192.42,193.41,200.25,188.4Z"/>
        <path class="hand-3" d="M216.56,194.92c-4.25-2.76-12.09-7.17-16.38-7.72l-.19,0c.08.4.18.81.26,1.22l0,0c4.5.69,13,5.69,16.6,8.11C216.78,196,216.67,195.44,216.56,194.92Z"/>
        <path class="hand-7" d="M190.91,193.37l-.54.11a84.85,84.85,0,0,1-1.77-10.11l0-.14.1-.09a41.44,41.44,0,0,1,5.79-4.53,99.24,99.24,0,0,0-6.3-22.52l.51-.2a99.66,99.66,0,0,1,6.37,22.84l0,.17-.16.1a38.43,38.43,0,0,0-5.76,4.47A85.86,85.86,0,0,0,190.91,193.37Z"/>
        <path class="hand-8" d="M206.11,160.52a216.27,216.27,0,0,1,11.36,55.13,29.14,29.14,0,0,0-7.85-4.47A263,263,0,0,0,201.11,167a26.86,26.86,0,0,0-5-2.74c-.88-2.73-1.85-5.6-2.73-8.33C197.28,156.91,202.58,158.51,206.11,160.52Z"/>
        <path class="hand-7" d="M176.39,212.35c-.91.46-1.84.87-2.76,1.23l-.22-.51a33.49,33.49,0,0,0,8.32-4.76,30,30,0,0,0-.59-9.38l.54-.11a31,31,0,0,1,.6,9.68v.11l-.09.07A33.63,33.63,0,0,1,176.39,212.35Z"/>
        <path class="hand-5" d="M171.66,153.91c-.19,5.09-.45,9.85-.79,14.52,2.25,2.87,4.38,5.83,6.35,8.89a9.69,9.69,0,0,0,6.81-2.21,10.1,10.1,0,0,0,3.28-6.58A102.76,102.76,0,0,0,171.66,153.91Z"/>
        <path class="hand-9" d="M182,164.91a80.48,80.48,0,0,0-10.39-9.84c-.1,2.33-.2,4.59-.33,6.81.45.46.91.92,1.35,1.38a17.57,17.57,0,0,0,1.58-1.3,17.79,17.79,0,0,0,1.78-1.87,14.13,14.13,0,0,1-1.36,2.25,13.61,13.61,0,0,1-1.35,1.6c1,1.11,2,2.24,3,3.38a17.27,17.27,0,0,0,1.53-1.75,17.86,17.86,0,0,0,1.51-2.3,15.34,15.34,0,0,1-1,2.61,14.6,14.6,0,0,1-1.35,2.17c1.33,1.54,2.62,3.1,3.87,4.7A13,13,0,0,0,182,164.91Z"/>
        <path class="hand-2" d="M181.72,224.78a11.85,11.85,0,0,0-6.71,3,38.59,38.59,0,0,0,2.85,16.84c.88,0,2.65.08,2.66.11a22.87,22.87,0,0,0,9.77-1.62,90,90,0,0,0-5.76-17.49Z"/>
        <path class="hand-2" d="M181.23,224.43a32.3,32.3,0,0,1,14-6.87c.53-2.81.87-6.12-.72-8.53l-2.75-1.39a30.53,30.53,0,0,0-14.87,8.69,13.81,13.81,0,0,0,1.48,7.17Z"/>
        <path class="hand-2" d="M190.27,219.78a18.08,18.08,0,0,0-3.17,1.51,6,6,0,0,0-2.48,2.42,54.25,54.25,0,0,0,8.71,17.8l2.32.06a23.09,23.09,0,0,0,9.69-6.23c-2.85-5.5-7.13-11.3-12.42-14.62Z"/>
        <path class="hand-10" d="M187.85,243.05a22.85,22.85,0,0,1-10,1.57A38.59,38.59,0,0,1,175,227.78a11.85,11.85,0,0,1,6.71-3A95.73,95.73,0,0,1,187.85,243.05Zm2.42-23.27a18.08,18.08,0,0,0-3.17,1.51,6,6,0,0,0-2.48,2.42,54.25,54.25,0,0,0,8.71,17.8,23,23,0,0,0,9.86-6.36C200.2,229.39,195.73,223.3,190.27,219.78Zm1.45-12.14a30.53,30.53,0,0,0-14.87,8.69,13.81,13.81,0,0,0,1.48,7.17,32.09,32.09,0,0,1,14.23-7C193.07,213.6,193.37,210.16,191.72,207.64Z"/>
    </g>
</svg>