<svg xmlns="http://www.w3.org/2000/svg" 
    xmlns:xlink="http://www.w3.org/1999/xlink" viewBox="0 0 245.89 350.07">
    <defs>
        <style>
            .shield-1{isolation:isolate;}
            .shield-2{fill:#d7d7d7;}
            .shield-3{fill:#d3d3d3;}
            .shield-4{fill:url(#_4);}
            .shield-5{fill:#2a3e51;}
            .shield-6{fill:url(#_3);}
            .shield-7{fill:#99999a;}
            .shield-8{mix-blend-mode:screen;fill:url(#_40);}
            .shield-9{fill:#477087;}
            .shield-10{fill:url(#_4-2);}
            .shield-11{fill:#bfbfbf;}
            .shield-12{fill:url(#_160);}
            .shield-13{fill:url(#_160-2);}
            .shield-14{fill:url(#_160-3);}
            .shield-15{fill:url(#_160-4);}
            .shield-16{fill:url(#_160-5);}
            .shield-17{fill:url(#_160-6);}
        </style>
        <linearGradient id="_4" x1="205.31" y1="179.43" x2="205.08" y2="231.05" gradientUnits="userSpaceOnUse">
            <stop offset="0.04" stop-color="#fff"/>
            <stop offset="0.3" stop-color="#fbfbfb"/>
            <stop offset="0.55" stop-color="#efefef"/>
            <stop offset="0.7" stop-color="#e5e5e4"/>
            <stop offset="0.8" stop-color="#dfdfde"/>
            <stop offset="1" stop-color="#d7d7d7"/>
        </linearGradient>
        <linearGradient id="_3" x1="214.71" y1="205.58" x2="190.04" y2="135.68" gradientUnits="userSpaceOnUse">
            <stop offset="0" stop-color="#fff"/>
            <stop offset="0.84" stop-color="#e8e7e7"/>
        </linearGradient>
        <linearGradient id="_40" x1="-1217.5" y1="1990.17" x2="-1195.38" y2="1990.17" gradientTransform="matrix(0.87, -0.47, 0.5, 0.88, 263.7, -2138.36)" gradientUnits="userSpaceOnUse">
            <stop offset="0.17" stop-color="#bdb48e"/>
            <stop offset="0.26" stop-color="#b3ab87"/>
            <stop offset="0.41" stop-color="#999273"/>
            <stop offset="0.6" stop-color="#6e6953"/>
            <stop offset="0.82" stop-color="#333126"/>
            <stop offset="1"/>
        </linearGradient>
        <linearGradient id="_4-2" x1="-452.78" y1="1181.86" x2="-479.62" y2="1211.66" gradientTransform="matrix(0.96, -0.25, 0.28, 0.97, 303.57, -1051.42)" xlink:href="#_4"/>
        <radialGradient id="_160" cx="207.14" cy="224.05" r="34.89" gradientTransform="translate(50.46 909.72) rotate(-150) scale(1 3)" gradientUnits="userSpaceOnUse">
            <stop offset="0.01" stop-color="#22577e"/>
            <stop offset="0.25" stop-color="#204f77"/>
            <stop offset="0.63" stop-color="#1c3b62"/>
            <stop offset="1" stop-color="#162048"/>
        </radialGradient>
        <radialGradient id="_160-2" cx="193.59" cy="226.98" r="39.49" gradientTransform="matrix(1, 0, 0, 1, 0, 0)" xlink:href="#_160"/>
        <radialGradient id="_160-3" cx="324.31" cy="581.82" r="25.53" gradientTransform="matrix(-0.83, -0.47, 1.68, -1.89, -497.79, 1459.76)" xlink:href="#_160"/>
        <radialGradient id="_160-4" cx="192.52" cy="175.42" r="10.56" gradientTransform="matrix(1.01, 0, 0, 1.02, 1.21, 21.11)" xlink:href="#_160"/>
        <radialGradient id="_160-5" cx="735.31" cy="86" r="5.19" gradientTransform="matrix(0.91, 0.45, -0.45, 0.92, -422.95, -190.9)" xlink:href="#_160"/>
        <radialGradient id="_160-6" cx="277.24" cy="203.11" r="3.34" gradientTransform="matrix(1.01, 0.06, -0.05, 1.02, -72.56, 5.67)" xlink:href="#_160"/>
    </defs>
    <title>small</title>
    <g id="shield" class="shield-1">
        <path class="shield-2" d="M190.93,153.79c-7,5.38-13.51,10.73-20.42,16.1-.28,3.54-.6,7-1,10.58a387.39,387.39,0,0,1,4.29,43.73l29.95-14A342.3,342.3,0,0,0,190.93,153.79Z"/>
        <path class="shield-3" d="M190.93,153.79c-7,5.38-13.51,10.73-20.42,16.1-.28,3.54-.6,7-1,10.58,1.1,7.12,2.1,15.07,2.86,22.82,3.22-1.71,12.2-6.51,14.06-7.56,2-1.15,11.47-6.83,13.4-8Q196.32,171,190.93,153.79Z"/>
        <path class="shield-2" d="M173.83,224.2c3.63,1.88,8.72,5.49,12.16,7.72,10.88-2.94,23.82-8.34,33.64-12.7a106.43,106.43,0,0,0-15.85-9Z"/>
        <path class="shield-4" d="M190.93,153.79a342.3,342.3,0,0,1,12.85,56.45,106.43,106.43,0,0,1,15.85,9c-1-19.09-6.58-39.6-12.42-59.14A36,36,0,0,0,190.93,153.79Z"/>
        <path class="shield-5" d="M193.74,211a8.72,8.72,0,0,1,4.71-1.28,44.32,44.32,0,0,1,9.34,14.05,22.55,22.55,0,0,1-9.26,13.14,34.6,34.6,0,0,1-15.73,5.25A54.5,54.5,0,0,1,179,227.34l.2.11c.88-.47,1.63-1.16,2.51-1.63-.35-2.72-.67-5.07-1-7.79A53,53,0,0,1,193.74,211Z"/>
        <path class="shield-5" d="M189.65,170.34a11.8,11.8,0,0,1-1.64,8.58,11.45,11.45,0,0,1-7.15,4.89,5.86,5.86,0,0,1-2.7.05c-2.5-.63-2.17-3.14-2.56-5.2-.46-2.39-1-4.77-1.65-7.12a44.36,44.36,0,0,1,12.37-8.2C187.83,165.86,189.09,167.48,189.65,170.34Z"/>
        <path class="shield-6" d="M190.93,153.79q5.4,17.21,8.93,33.94l.35-.21a86.25,86.25,0,0,1,9.24,3.92c2.14,1.21,5.42,3.26,7,4.27-2.38-11.88-5.76-23.93-9.26-35.63A36,36,0,0,0,190.93,153.79Z"/>
        <path class="shield-7" d="M200,188.4c-.09-.41-.18-.82-.26-1.22h0l-.18.11c-7.73,5-16.88,10.19-27.19,15.53l.12,1.25C182.91,198.68,192.17,193.41,200,188.4Z"/>
        <path class="shield-3" d="M216.31,194.92c-4.25-2.76-12.09-7.17-16.38-7.72l-.19,0c.08.4.17.81.26,1.22l0,0c4.5.69,13,5.69,16.6,8.11C216.53,196,216.42,195.44,216.31,194.92Z"/>
        <path class="shield-7" d="M190.66,193.37l-.54.11a84.85,84.85,0,0,1-1.77-10.11l0-.14.1-.09a40.86,40.86,0,0,1,5.79-4.53,99.75,99.75,0,0,0-6.3-22.52l.51-.2a99.66,99.66,0,0,1,6.37,22.84l0,.17-.16.1a38.43,38.43,0,0,0-5.76,4.47A85.86,85.86,0,0,0,190.66,193.37Z"/>
        <path class="shield-8" d="M205.86,160.52a216.27,216.27,0,0,1,11.36,55.13,29.14,29.14,0,0,0-7.85-4.47A264,264,0,0,0,200.86,167a26.86,26.86,0,0,0-5-2.74c-.88-2.73-1.85-5.6-2.73-8.33C197,156.91,202.33,158.51,205.86,160.52Z"/>
        <path class="shield-7" d="M176.14,212.35c-.91.46-1.84.87-2.76,1.23l-.22-.51a33.49,33.49,0,0,0,8.32-4.76,30,30,0,0,0-.59-9.38l.54-.11a30.72,30.72,0,0,1,.59,9.68v.11l-.09.07A33.17,33.17,0,0,1,176.14,212.35Z"/>
        <path class="shield-5" d="M171.41,153.91c-.19,5.09-.45,9.85-.8,14.52,2.26,2.87,4.39,5.83,6.36,8.89a9.69,9.69,0,0,0,6.81-2.21,10.15,10.15,0,0,0,3.28-6.58A102.76,102.76,0,0,0,171.41,153.91Z"/>
        <path class="shield-9" d="M181.76,164.91a80.48,80.48,0,0,0-10.39-9.84c-.1,2.33-.2,4.59-.33,6.81.45.46.91.92,1.35,1.38A17.57,17.57,0,0,0,174,162a17.79,17.79,0,0,0,1.78-1.87,15.1,15.1,0,0,1-1.36,2.25,13.61,13.61,0,0,1-1.35,1.6c1,1.11,2,2.24,3,3.38a16.19,16.19,0,0,0,1.54-1.75,17.13,17.13,0,0,0,1.5-2.3,14.78,14.78,0,0,1-1,2.61,14.6,14.6,0,0,1-1.35,2.17c1.32,1.54,2.62,3.1,3.87,4.7A13,13,0,0,0,181.76,164.91Z"/>
        <path class="shield-2" d="M181.47,224.78a11.82,11.82,0,0,0-6.71,3,38.73,38.73,0,0,0,2.84,16.84c.89,0,2.65.08,2.67.11a22.87,22.87,0,0,0,9.77-1.62,90.06,90.06,0,0,0-5.77-17.49Z"/>
        <path class="shield-2" d="M181,224.43a32.39,32.39,0,0,1,14-6.87c.53-2.81.87-6.12-.72-8.53l-2.75-1.39a30.56,30.56,0,0,0-14.88,8.69,13.91,13.91,0,0,0,1.49,7.17Z"/>
        <path class="shield-2" d="M190,219.78a18.08,18.08,0,0,0-3.17,1.51,6,6,0,0,0-2.48,2.42,54.25,54.25,0,0,0,8.71,17.8l2.32.06a23.09,23.09,0,0,0,9.69-6.23c-2.85-5.5-7.13-11.3-12.42-14.62Z"/>
        <path class="shield-10" d="M187.6,243.05a22.88,22.88,0,0,1-10,1.57,38.73,38.73,0,0,1-2.84-16.84,11.82,11.82,0,0,1,6.71-3A96.43,96.43,0,0,1,187.6,243.05ZM190,219.78a18.08,18.08,0,0,0-3.17,1.51,6,6,0,0,0-2.48,2.42,54.25,54.25,0,0,0,8.71,17.8,23,23,0,0,0,9.86-6.36C200,229.39,195.48,223.3,190,219.78Zm1.45-12.14a30.56,30.56,0,0,0-14.88,8.69,13.91,13.91,0,0,0,1.49,7.17,32.09,32.09,0,0,1,14.23-7C192.81,213.6,193.12,210.16,191.47,207.64Z"/>
        <path class="shield-11" d="M218.94,276.73s-24.22-8.64-31.52-18.67c-5.27-7.3-6.22-16.55-6.22-16.55l-7.95-63.88L167.49,181l7.35,60.37s.93,14.56,12.58,22.64S212.16,277.16,218.94,276.73Z"/>
        <path class="shield-2" d="M168.47,180.8l5.76-3.38L206,176.28l25.22,8.09,6.75,50s2.58,7.77-5.16,23.26c0,0-6.95,11.32-13.51,18.87,0,0-7.74-1-9.73-1.79S192.5,269.17,185,260s-7.75-8.83-9.93-27.36S168.47,180.8,168.47,180.8Z"/>
        <path class="shield-12" d="M217.52,266s10.34-11.76,13.52-20.69,1.88-13.88,1.29-19.28S227.27,188,227.27,188l-19.86-5.88-26.22.82,7.06,56s.94,8,6.58,13.52A54.42,54.42,0,0,0,217.52,266Z"/>
        <path class="shield-13" d="M219.31,276.52s-24.23-8.64-31.52-18.67c-5.27-7.3-6.22-16.55-6.22-16.55l-7.95-63.88-5.76,3.38,7.35,60.37s.93,14.56,12.58,22.64S212.53,277,219.31,276.52Z"/>
        <path class="shield-14" d="M213.75,238.62s2.12-37.75-6-56.47l-.59-.07S213.77,191,213.75,238.62Z"/>
        <polygon class="shield-15" points="191.53 211.81 192.09 204.19 186.18 199.36 193.54 197.6 196.23 190.48 200.22 197.02 207.78 197.46 202.89 203.24 204.88 210.64 197.87 207.68 191.53 211.81"/>
        <polygon class="shield-2" points="192.4 210.35 192.91 203.92 187.9 199.86 194.17 198.36 196.48 192.34 199.85 197.84 206.29 198.18 202.1 203.08 203.77 209.31 197.81 206.84 192.4 210.35"/>
        <polygon class="shield-16" points="201.15 222.59 203.05 219.36 201.49 215.95 205.11 216.76 207.84 214.21 208.18 217.95 211.43 219.78 208.01 221.27 207.29 224.96 204.84 222.14 201.15 222.59"/>
        <polygon class="shield-2" points="201.85 222.14 203.47 219.41 202.14 216.54 205.23 217.23 207.55 215.08 207.84 218.23 210.61 219.78 207.7 221.03 207.09 224.14 205 221.76 201.85 222.14"/>
        <polygon class="shield-17" points="195.14 233.05 195.45 230.65 193.67 229.02 196.02 228.6 197 226.4 198.14 228.53 200.52 228.8 198.87 230.54 199.37 232.91 197.21 231.85 195.14 233.05"/>
        <polygon class="shield-2" points="195.44 232.6 195.71 230.58 194.21 229.21 196.21 228.85 197.04 226.99 198.01 228.78 200.03 229.01 198.63 230.48 199.04 232.47 197.21 231.59 195.44 232.6"/>
    </g>
</svg>