<svg xmlns="http://www.w3.org/2000/svg" 
    xmlns:xlink="http://www.w3.org/1999/xlink" viewBox="0 0 245.89 350.07">
    <defs>
        <style>
            .torch-1{isolation:isolate;}
            .torch-2{fill:#d7d7d7;}
            .torch-3{fill:#d3d3d3;}
            .torch-4{fill:url(#_4);}
            .torch-5{fill:#2a3e51;}
            .torch-6{fill:url(#_3);}
            .torch-7{fill:#99999a;}
            .torch-8{mix-blend-mode:screen;fill:url(#_40);}
            .torch-9{fill:#477087;}
            .torch-10{fill:url(#torch-gradient);}
            .torch-11{fill:url(#torch-gradient-2);}
            .torch-12{fill:#b2b2b2;}
            .torch-13{fill:#575756;}
            .torch-14{fill:#fcea10;}
            .torch-15{fill:#fff;}
            .torch-16{fill:url(#_4-2);}
        </style>
        <linearGradient id="_4" x1="205.13" y1="179.29" x2="204.9" y2="230.92" gradientUnits="userSpaceOnUse">
            <stop offset="0.04" stop-color="#fff"/>
            <stop offset="0.3" stop-color="#fbfbfb"/>
            <stop offset="0.55" stop-color="#efefef"/>
            <stop offset="0.7" stop-color="#e5e5e4"/>
            <stop offset="0.8" stop-color="#dfdfde"/>
            <stop offset="1" stop-color="#d7d7d7"/>
        </linearGradient>
        <linearGradient id="_3" x1="214.53" y1="205.44" x2="189.86" y2="135.54" gradientUnits="userSpaceOnUse">
            <stop offset="0" stop-color="#fff"/>
            <stop offset="0.84" stop-color="#e8e7e7"/>
        </linearGradient>
        <linearGradient id="_40" x1="-1316.29" y1="2388.66" x2="-1294.17" y2="2388.66" gradientTransform="matrix(0.87, -0.47, 0.5, 0.88, 150.94, -2537.03)" gradientUnits="userSpaceOnUse">
            <stop offset="0.17" stop-color="#bdb48e"/>
            <stop offset="0.26" stop-color="#b3ab87"/>
            <stop offset="0.41" stop-color="#999273"/>
            <stop offset="0.6" stop-color="#6e6953"/>
            <stop offset="0.82" stop-color="#333126"/>
            <stop offset="1"/>
        </linearGradient>
        <linearGradient id="torch-gradient" x1="169.41" y1="230.24" x2="183.09" y2="230.24" gradientUnits="userSpaceOnUse">
            <stop offset="0" stop-color="#fff"/>
            <stop offset="0.84" stop-color="#e8e7e7"/>
        </linearGradient>
        <linearGradient id="torch-gradient-2" x1="172.73" y1="222.6" x2="216.21" y2="222.6" gradientTransform="translate(101.03 -57.82) rotate(22.71)" xlink:href="#torch-gradient"/>
        <linearGradient id="_4-2" x1="-479.18" y1="1391.9" x2="-506.02" y2="1421.69" gradientTransform="matrix(0.96, -0.25, 0.28, 0.97, 269.91, -1261.64)" xlink:href="#_4"/>
    </defs>
    <title>small</title>
        <g id="torch" class="torch-1">
            <path class="torch-2" d="M190.75,153.65c-7,5.38-13.51,10.73-20.43,16.1-.27,3.54-.59,7-1,10.59a384.79,384.79,0,0,1,4.3,43.72l29.95-14A343.32,343.32,0,0,0,190.75,153.65Z"/>
            <path class="torch-3" d="M190.75,153.65c-7,5.38-13.51,10.73-20.43,16.1-.27,3.54-.59,7-1,10.59,1.11,7.11,2.11,15.06,2.87,22.81,3.21-1.71,12.2-6.51,14.06-7.56,2-1.14,11.46-6.83,13.39-8Q196.15,170.85,190.75,153.65Z"/>
            <path class="torch-2" d="M173.65,224.06c3.63,1.88,8.72,5.49,12.16,7.72,10.87-2.93,23.82-8.34,33.64-12.7a106.93,106.93,0,0,0-15.85-9Z"/>
            <path class="torch-4" d="M190.75,153.65A343.32,343.32,0,0,1,203.6,210.1a106.93,106.93,0,0,1,15.85,9c-1-19.09-6.58-39.6-12.43-59.14A36,36,0,0,0,190.75,153.65Z"/>
            <path class="torch-5" d="M193.56,210.82a8.62,8.62,0,0,1,4.71-1.29,44.49,44.49,0,0,1,9.34,14.05,22.64,22.64,0,0,1-9.26,13.14A34.6,34.6,0,0,1,182.62,242a54.41,54.41,0,0,1-3.82-14.77l.2.12c.88-.47,1.62-1.17,2.51-1.64-.35-2.71-.67-5.07-1-7.79A52.91,52.91,0,0,1,193.56,210.82Z"/>
            <path class="torch-5" d="M189.46,170.2a11.7,11.7,0,0,1-1.64,8.58,11.43,11.43,0,0,1-7.14,4.89,5.91,5.91,0,0,1-2.71.05c-2.5-.63-2.16-3.14-2.56-5.2-.45-2.39-1-4.77-1.64-7.12a44.45,44.45,0,0,1,12.36-8.2C187.65,165.72,188.91,167.34,189.46,170.2Z"/>
            <path class="torch-6" d="M190.75,153.65q5.4,17.21,8.92,33.95l.35-.22a84,84,0,0,1,9.24,3.93c2.14,1.2,5.42,3.25,7,4.26-2.38-11.88-5.77-23.93-9.27-35.63A36,36,0,0,0,190.75,153.65Z"/>
            <path class="torch-7" d="M199.82,188.26l-.27-1.22h0l-.17.11c-7.74,5-16.89,10.19-27.2,15.53.05.42.09.84.13,1.25C182.73,198.54,192,193.28,199.82,188.26Z"/>
            <path class="torch-3" d="M216.13,194.78c-4.25-2.76-12.1-7.17-16.38-7.71l-.2,0,.27,1.22,0,0c4.51.69,13,5.7,16.61,8.11C216.34,195.83,216.24,195.3,216.13,194.78Z"/>
            <path class="torch-7" d="M190.47,193.23l-.54.11a86.55,86.55,0,0,1-1.77-10.11v-.14l.1-.09a40.86,40.86,0,0,1,5.79-4.53,99.75,99.75,0,0,0-6.3-22.52l.51-.2a100.82,100.82,0,0,1,6.37,22.84l0,.18-.15.09a39.09,39.09,0,0,0-5.76,4.47A85.82,85.82,0,0,0,190.47,193.23Z"/>
            <path class="torch-8" d="M205.68,160.38A216.27,216.27,0,0,1,217,215.51a29.32,29.32,0,0,0-7.86-4.47,263,263,0,0,0-8.51-44.19,26.78,26.78,0,0,0-5-2.74c-.88-2.73-1.85-5.6-2.73-8.33C196.84,156.77,202.14,158.37,205.68,160.38Z"/>
            <path class="torch-7" d="M176,212.21c-.92.46-1.84.87-2.77,1.23l-.22-.51a33.66,33.66,0,0,0,8.33-4.75,30.66,30.66,0,0,0-.59-9.39l.53-.11a30.42,30.42,0,0,1,.6,9.68v.11l-.09.07A33.93,33.93,0,0,1,176,212.21Z"/>
            <path class="torch-5" d="M171.23,153.77c-.19,5.09-.46,9.86-.8,14.53,2.26,2.86,4.39,5.82,6.35,8.88A9.67,9.67,0,0,0,183.6,175a10.15,10.15,0,0,0,3.28-6.58A102.76,102.76,0,0,0,171.23,153.77Z"/>
            <path class="torch-9" d="M181.58,164.78a80.64,80.64,0,0,0-10.4-9.85c-.09,2.33-.2,4.59-.32,6.81l1.35,1.38a19,19,0,0,0,3.35-3.16,14.7,14.7,0,0,1-1.35,2.24,13.8,13.8,0,0,1-1.36,1.61c1,1.1,2,2.23,3,3.37a17.27,17.27,0,0,0,1.53-1.75,16.66,16.66,0,0,0,1.51-2.3,14.78,14.78,0,0,1-1,2.61,13.42,13.42,0,0,1-1.36,2.17c1.33,1.54,2.63,3.1,3.88,4.71A13.05,13.05,0,0,0,181.58,164.78Z"/>
            <path class="torch-7" d="M166.83,241.19a10.34,10.34,0,0,1-2.05-1.76,12.76,12.76,0,0,1-3.12-7.47,10,10,0,0,1,.18-2.69c.91-4.25,4.62-5.8,8.29-3.46a12.14,12.14,0,0,1,5,11.91C174.2,242,170.49,243.52,166.83,241.19Z"/>
            <rect class="torch-7" x="167.95" y="221.76" width="13.49" height="18.24" transform="translate(-75.6 85.35) rotate(-22.71)"/>
            <path class="torch-10" d="M174.61,237.93a9.47,9.47,0,0,1-2.05-1.76,12.76,12.76,0,0,1-3.12-7.46,9.61,9.61,0,0,1,.18-2.69c.91-4.25,4.62-5.81,8.28-3.47a12.12,12.12,0,0,1,5,11.91C182,238.71,178.27,240.27,174.61,237.93Z"/>
            <rect class="torch-11" x="174.72" y="213.48" width="39.5" height="18.24" transform="translate(-70.87 92.35) rotate(-22.71)"/>
            <path class="torch-7" d="M210.59,225.73a5.66,5.66,0,0,1-4.83-.84,10,10,0,0,1-2-1.76,12.76,12.76,0,0,1-3.12-7.46,9.61,9.61,0,0,1,.18-2.69,5.55,5.55,0,0,1,3.11-4.21l-5.06,2.12a5.55,5.55,0,0,0-3.11,4.2,9.68,9.68,0,0,0-.18,2.7,12.76,12.76,0,0,0,3.12,7.46,10.06,10.06,0,0,0,2.05,1.76,5.42,5.42,0,0,0,5.58.53Z"/>
            <path class="torch-7" d="M204.48,228.29a5.66,5.66,0,0,1-4.83-.84,10,10,0,0,1-2-1.76,12.84,12.84,0,0,1-3.13-7.46,9.7,9.7,0,0,1,.19-2.7,5.55,5.55,0,0,1,3.11-4.2l-2.36,1a5.55,5.55,0,0,0-3.11,4.2,9.61,9.61,0,0,0-.18,2.69,12.73,12.73,0,0,0,3.12,7.46,9.47,9.47,0,0,0,2.05,1.76,5.37,5.37,0,0,0,5.58.53Z"/>
            <path class="torch-12" d="M211,222.68a10,10,0,0,1-2-1.76,12.84,12.84,0,0,1-3.13-7.46,9.6,9.6,0,0,1,.19-2.69c.9-4.25,4.62-5.81,8.28-3.47a12.12,12.12,0,0,1,5,11.91C218.42,223.46,214.71,225,211,222.68Z"/>
            <ellipse class="torch-13" cx="214.82" cy="214.1" rx="8.68" ry="12.49" transform="translate(-66.01 99.54) rotate(-22.71)"/>
            <path class="torch-5" d="M207.4,218.88,206.21,216c-3-7.25,1.58-16.08,10.31-19.73l7.7-3.22,12.17,29.08-7.7,3.22C220,229,210.43,226.12,207.4,218.88Z"/>
            <ellipse class="torch-9" cx="230.3" cy="207.62" rx="10.96" ry="15.76" transform="translate(-62.3 105.02) rotate(-22.71)"/>
            <path class="torch-14" d="M228,218.25a13.51,13.51,0,0,1-2.83-2.43,17.79,17.79,0,0,1-4.32-10.32,13.51,13.51,0,0,1,.26-3.72c1.25-5.88,6.39-8,11.45-4.8s8.16,10.6,6.9,16.48S233.09,221.48,228,218.25Z"/>
            <path class="torch-15" d="M225.19,215.82a17.79,17.79,0,0,1-4.32-10.32,3.26,3.26,0,0,1,3.81.12,7.58,7.58,0,0,1,3.1,7.41A3.27,3.27,0,0,1,225.19,215.82Z"/>
            <path class="torch-2" d="M181.29,224.64a12,12,0,0,0-6.72,3,38.71,38.71,0,0,0,2.85,16.84c.89,0,2.65.08,2.67.11a22.72,22.72,0,0,0,9.77-1.62,90.06,90.06,0,0,0-5.77-17.49Z"/>
            <path class="torch-2" d="M180.79,224.29a32.34,32.34,0,0,1,14-6.87c.52-2.81.87-6.12-.72-8.52l-2.76-1.4a30.57,30.57,0,0,0-14.87,8.69,13.81,13.81,0,0,0,1.48,7.17Z"/>
            <path class="torch-2" d="M189.83,219.64a18.42,18.42,0,0,0-3.17,1.51,6.15,6.15,0,0,0-2.48,2.42,54.59,54.59,0,0,0,8.71,17.81l2.33.05a23.22,23.22,0,0,0,9.69-6.23c-2.85-5.49-7.14-11.3-12.43-14.62Z"/>
            <path class="torch-16" d="M187.42,242.91a22.9,22.9,0,0,1-10,1.57,38.71,38.71,0,0,1-2.85-16.84,12,12,0,0,1,6.72-3A96.43,96.43,0,0,1,187.42,242.91Zm2.41-23.27a18.42,18.42,0,0,0-3.17,1.51,6.15,6.15,0,0,0-2.48,2.42,54.59,54.59,0,0,0,8.71,17.81,23,23,0,0,0,9.86-6.37C199.76,229.25,195.3,223.16,189.83,219.64Zm1.45-12.14a30.57,30.57,0,0,0-14.87,8.69,13.81,13.81,0,0,0,1.48,7.17,32.06,32.06,0,0,1,14.24-7C192.63,213.46,192.94,210,191.28,207.5Z"/>
        </g>
</svg>